<?xml version="1.0" standalone="no"?>
<!DOCTYPE svg PUBLIC "-//W3C//DTD SVG 1.1//EN" "http://www.w3.org/Graphics/SVG/1.1/DTD/svg11.dtd" >
<svg xmlns="http://www.w3.org/2000/svg" xmlns:xlink="http://www.w3.org/1999/xlink" version="1.1">
<metadata>
Created by FontForge 20170731 at Thu Mar 22 20:32:10 2018
 By Aleksey,,,
Copyright (c) 1992 ParaType Inc., ParaType Ltd. All rights reserved.
</metadata>
<defs>
<font id="VTBGroup-BookOblique" horiz-adv-x="550" >
  <font-face 
    font-family="VTB Group Book"
    font-weight="400"
    font-style="oblique"
    font-stretch="normal"
    units-per-em="1000"
    panose-1="2 11 5 3 4 5 4 9 2 4"
    ascent="773"
    descent="-227"
    x-height="510"
    cap-height="700"
    bbox="-303 -248 1160 1000"
    underline-thickness="50"
    underline-position="-150"
    slope="-11"
    unicode-range="U+000D-FB02"
  />
<missing-glyph horiz-adv-x="500" 
d="M442 8v496h-384v-496h384zM50 512h400v-512h-400v512z" />
    <glyph glyph-name="IJ" unicode="IJ" horiz-adv-x="719" 
d="M236 700h100l-142 -700h-100zM369 88q23 -7 37.5 -8.5t23.5 -1.5q35 0 57.5 9t36.5 23q21 20 32 49.5t16 55.5l98 485h100l-105 -517q-3 -14 -8 -32t-15 -38.5t-25 -40.5t-37 -37q-59 -45 -153 -45q-32 0 -50 4.5t-26 7.5z" />
    <glyph glyph-name="ij" unicode="ij" horiz-adv-x="532" 
d="M183 510h94l-103 -510h-94zM304 614h-106l21 106h106zM213 -139q16 -3 28 -3h10q18 1 31 8t23 19q2 3 14.5 24t20.5 59l109 542h94l-107 -528q-4 -19 -9 -40t-12.5 -42t-18 -40.5t-25.5 -35.5q-32 -32 -67 -40t-67 -8q-15 0 -25 1t-18 3zM571 614h-106l21 106h106z" />
    <glyph glyph-name="afii10017.var.accented" unicode="&#x410;`" horiz-adv-x="584" 
d="M435 261l-28 309h-2l-154 -309h184zM379 700h110l83 -700h-106l-21 177h-238l-93 -177h-102zM636 870l-141 -120h-100l105 120h136z" />
    <glyph glyph-name="afii10022.var.accented" unicode="&#x415;`" horiz-adv-x="554" 
d="M236 700h98h293l-18 -88h-291l-42 -205h265l-17 -88h-265l-47 -231h291l-18 -88h-291h-100zM570 870l-141 -120h-100l105 120h136z" />
    <glyph glyph-name="afii10026.var.accented" unicode="&#x418;`" horiz-adv-x="745" 
d="M236 700h100l-97 -477l-20 -87h5q14 20 24.5 34.5t20 26.5t19 23.5t21.5 25.5l372 454h14h98l-142 -700h-100l97 477l20 87h-5q-14 -21 -25 -36t-21 -27.5t-19.5 -23.5t-19.5 -23l-372 -454h-12h-100zM683 870l-141 -120h-100l105 120h136z" />
    <glyph glyph-name="afii10032.var.accented" unicode="&#x41e;`" horiz-adv-x="780" 
d="M535 710q48 0 84.5 -9.5t64.5 -24.5t47.5 -34t31.5 -38q23 -37 32.5 -86t9.5 -89q0 -42 -9 -86.5t-27 -88.5t-45.5 -84.5t-63.5 -74.5q-52 -48 -119 -76.5t-152 -28.5q-30 0 -61 4.5t-59.5 15.5t-54.5 30t-47 48q-20 29 -35 71.5t-15 101.5q0 44 10 91t29 92t46 86.5
t61 73.5q19 18 45.5 37t60 34.5t75 25t91.5 9.5zM517 622q-44 0 -93 -17.5t-94 -62.5q-50 -50 -78.5 -120.5t-28.5 -145.5q0 -26 5 -62t28 -68q17 -24 53.5 -46t97.5 -22q45 0 93.5 16.5t93.5 63.5q23 24 42.5 55t33.5 66.5t21.5 73.5t7.5 77q0 29 -7 63.5t-30 64.5
q-19 25 -54.5 44.5t-90.5 19.5zM682 870l-141 -120h-100l105 120h136z" />
    <glyph glyph-name="afii10037.var.accented" unicode="&#x423;`" horiz-adv-x="581" 
d="M264 700l106 -404l254 404h103l-388 -602q-13 -20 -34 -44t-39 -37q-23 -16 -48.5 -21.5t-52.5 -5.5q-18 0 -37.5 4t-38.5 10l28 87q11 -5 25 -9t33 -4t31 4.5t20 9.5t20.5 18.5t18.5 23.5l35 57l-143 509h107zM582 870l-141 -120h-100l105 120h136z" />
    <glyph glyph-name="afii10045.var.accented" unicode="&#x42b;`" horiz-adv-x="831" 
d="M477 249q0 54 -27 78.5t-85 24.5h-100l-54 -264h100q76 0 121 39t45 122zM236 700h100l-53 -260h100q104 0 153.5 -46.5t49.5 -123.5q0 -63 -20.5 -113.5t-58.5 -85t-92 -53t-121 -18.5h-200zM779 700h100l-142 -700h-100zM747 870l-141 -120h-100l105 120h136z" />
    <glyph glyph-name="afii10047.var.accented" unicode="&#x42d;`" horiz-adv-x="640" 
d="M192 680q26 11 63 20.5t95 9.5q76 0 134.5 -21t96.5 -57q24 -23 39 -48t23.5 -51t11.5 -51t3 -48q0 -61 -12 -111.5t-31.5 -91.5t-44 -73t-50.5 -55q-69 -63 -151 -88t-172 -25q-31 0 -65.5 4t-75.5 21l26 97q42 -22 76 -28t62 -6q41 0 74.5 7t60.5 18.5t48 25t36 27.5
q25 23 43 48.5t29.5 48.5t18 40.5t8.5 25.5h-271l17 88h271v10q0 54 -19.5 92.5t-42.5 59.5q-8 7 -21 16t-32.5 17t-46 14t-61.5 6q-23 0 -63 -6.5t-89 -32.5zM582 870l-141 -120h-100l105 120h136z" />
    <glyph glyph-name="afii10048.var.accented" unicode="&#x42e;`" horiz-adv-x="1031" 
d="M396 407q17 51 46.5 103t74.5 94q34 33 70 53.5t71 32t67.5 16t59.5 4.5q69 0 123 -22.5t87 -60.5q26 -31 43.5 -78t17.5 -110q0 -97 -35.5 -186.5t-110.5 -157.5q-52 -48 -119 -76.5t-152 -28.5q-48 0 -84.5 10t-63.5 25t-46 34t-31 37q-26 38 -34 80.5t-8 89.5
q0 14 1 26.5t3 26.5h-117l-65 -319h-100l142 700h100l-60 -293h120zM767 622q-53 0 -101 -21t-86 -59q-24 -24 -43.5 -55t-33.5 -66t-21.5 -73t-7.5 -77q0 -47 10.5 -80t27.5 -53q20 -25 57 -42.5t88 -17.5q45 0 93.5 16.5t93.5 63.5q48 49 77 119.5t29 143.5q0 58 -14.5 93
t-31.5 54q-21 23 -55.5 38.5t-81.5 15.5zM807 870l-141 -120h-100l105 120h136z" />
    <glyph glyph-name="afii10049.var.accented" unicode="&#x42f;`" horiz-adv-x="627" 
d="M533 0h-100l57 280h-113l-203 -280h-120l231 304q-25 8 -43.5 22t-30.5 29q-11 14 -22 37.5t-11 58.5q0 25 6 51.5t19 52.5t31.5 49.5t44.5 41.5q42 29 94.5 41.5t99.5 12.5h101h101zM557 612h-108q-20 0 -52 -6.5t-63 -31.5q-24 -21 -37 -50.5t-13 -62.5q0 -25 7 -42
t18 -27q10 -11 25 -17t31.5 -9t32.5 -3.5t30 -0.5h78zM663 870l-141 -120h-100l105 120h136z" />
    <glyph glyph-name="afii10023.var.accented" unicode="&#x401;`" horiz-adv-x="554" 
d="M236 700h98h293l-18 -88h-291l-42 -205h265l-17 -88h-265l-47 -231h291l-18 -88h-291h-100zM405 857l-22 -105h-108l22 105h108zM624 857l-22 -105h-108l22 105h108zM541 1000h109l-160 -144h-67z" />
    <glyph glyph-name="afii10065.var.accented" unicode="&#x430;`" horiz-adv-x="615" 
d="M638 510l-103 -510h-90l15 72h-2q-17 -19 -33 -30t-37 -22q-28 -14 -53.5 -21t-57.5 -7q-48 0 -88.5 16t-66.5 59q-19 32 -23 66t-4 53q0 77 30 148t85 120q42 38 82.5 51t82.5 13q34 0 57.5 -5t48.5 -22q16 -11 27 -22.5t20 -28.5h2l14 70h94zM497 299q0 23 -3 43.5
t-13 39.5q-17 32 -42 46t-59 14q-35 0 -62 -13t-50 -36q-32 -32 -52.5 -83t-20.5 -111q0 -18 3.5 -41.5t17.5 -43.5q11 -16 31.5 -31t57.5 -15q28 0 58.5 11.5t58.5 39.5q31 30 53 76.5t22 103.5zM502 740h122l-160 -130h-80z" />
    <glyph glyph-name="afii10070.var.accented" unicode="&#x435;`" 
d="M314 -8q-109 0 -164 52.5t-55 145.5q0 72 24 132.5t65.5 104t98 67.5t121.5 24q80 0 120.5 -37.5t40.5 -100.5q0 -39 -17 -71t-59 -56t-113 -38.5t-180 -16.5v-8q0 -54 35 -88t98 -34q46 0 92 16.5t79 36.5l-19 -96q-17 -7 -34 -13t-36.5 -10.5t-43 -7t-53.5 -2.5z
M389 442q-63 0 -114 -43.5t-70 -124.5q84 1 135.5 9.5t80.5 22.5t39 33t10 41q0 28 -19.5 45t-61.5 17zM478 740h122l-160 -130h-80z" />
    <glyph glyph-name="afii10074.var.accented" unicode="&#x438;`" horiz-adv-x="611" 
d="M531 0h-94l15 73h-2q-15 -17 -34 -32t-45 -27q-20 -10 -44.5 -16t-57.5 -6q-15 0 -33 2t-36 8t-34.5 17t-28.5 29t-18 42.5t-6 44.5q0 17 3.5 39.5t5.5 32.5l61 303h94l-53 -264q-4 -18 -7.5 -42.5t-3.5 -46.5q0 -14 3 -31t16 -31q8 -8 24.5 -17.5t46.5 -9.5
q32 0 60 12.5t49 31.5q18 16 31.5 36.5t23 41.5t15.5 42.5t10 41.5l48 236h94zM506 740h122l-160 -130h-80z" />
    <glyph glyph-name="afii10080.var.accented" unicode="&#x43e;`" horiz-adv-x="618" 
d="M414 518q36 0 64.5 -7t50 -18.5t37 -26t25.5 -28.5q14 -20 24.5 -50t10.5 -75q0 -69 -30.5 -133t-78.5 -108q-40 -36 -93 -58t-117 -22q-36 0 -64.5 7t-50 18.5t-36.5 26t-25 28.5q-36 51 -36 118q0 37 9.5 73.5t24.5 68.5t35 59t41 47q39 36 92 58t117 22zM399 442
q-38 0 -73 -17t-60 -43q-34 -35 -52 -82.5t-18 -91.5q0 -11 2.5 -37t17.5 -49q14 -22 41.5 -38t65.5 -16q32 0 67 14.5t65 45.5q28 29 49 74.5t21 96.5q0 19 -4 44t-20 48q-22 32 -51 41.5t-51 9.5zM479 740h122l-160 -130h-80z" />
    <glyph glyph-name="afii10085.var.accented" unicode="&#x443;`" horiz-adv-x="488" 
d="M14 -140q1 0 11.5 -4t27.5 -4t37 6.5t37 20.5q19 18 33.5 41t22.5 38l11 22l-4 38l-80 492h103l55 -419h2l222 419h95l-298 -529q-21 -37 -37 -63.5t-28.5 -44.5t-22 -29t-17.5 -18q-26 -23 -60 -36.5t-74 -13.5q-20 0 -32.5 2t-20.5 4l-5 1zM416 740h122l-160 -130h-80z
" />
    <glyph glyph-name="afii10093.var.accented" unicode="&#x44b;`" horiz-adv-x="742" 
d="M182 510h94l-36 -180h103q95 0 138 -38t43 -102q0 -38 -16.5 -72t-48 -60.5t-77.5 -42t-105 -15.5h-197zM426 190q0 29 -21.5 46.5t-76.5 17.5h-103l-36 -178h103q63 0 98.5 33t35.5 81zM671 510h94l-103 -510h-94zM561 740h122l-160 -130h-80z" />
    <glyph glyph-name="afii10095.var.accented" unicode="&#x44d;`" horiz-adv-x="493" 
d="M150 498q7 2 21 5.5t32 6.5t40 5.5t45 2.5q63 0 103 -18.5t61 -41.5q20 -22 33.5 -57t13.5 -88q0 -77 -27.5 -138.5t-69.5 -100.5q-40 -38 -97 -60t-134 -22q-29 0 -59 4.5t-64 16.5l23 83q38 -20 68 -24t48 -4q48 0 85 16t60 39q20 19 34 46.5t21 58.5h-193l15 74h189
q1 5 1 10.5v10.5q0 18 -3.5 36.5t-13.5 33.5q-13 20 -41 34.5t-78 14.5q-6 0 -18.5 -0.5t-29.5 -2.5t-36 -6t-37 -11zM416 740h122l-160 -130h-80z" />
    <glyph glyph-name="afii10096.var.accented" unicode="&#x44e;`" horiz-adv-x="824" 
d="M326 303q20 53 46.5 86t43.5 49q27 25 54.5 40.5t54.5 24.5t51.5 12t45.5 3q65 0 104 -20.5t60 -44.5q16 -18 25.5 -37.5t14 -37.5t5.5 -33t1 -25q0 -65 -26 -131t-81 -117q-40 -36 -93 -58t-117 -22q-36 0 -63.5 7t-48.5 18.5t-36 26t-25 28.5q-9 14 -22.5 44.5
t-13.5 81.5q0 8 0.5 14.5t1.5 14.5h-88l-46 -227h-94l103 510h94l-42 -207h91zM607 442q-38 0 -73 -17t-60 -43q-34 -35 -52 -83t-18 -93q0 -6 0.5 -16.5t2.5 -22.5t7 -24.5t13 -24.5q16 -23 43 -36.5t61 -13.5q33 0 67.5 14.5t64.5 45.5q33 34 51 79t18 97q0 29 -7.5 55.5
t-23.5 44.5q-17 19 -42 28.5t-52 9.5zM582 740h122l-160 -130h-80z" />
    <glyph glyph-name="afii10097.var.accented" unicode="&#x44f;`" horiz-adv-x="524" 
d="M444 0h-94l41 201h-93l-144 -201h-109l165 217q-20 6 -35 17t-26 23t-18.5 30t-7.5 42q0 38 20 77.5t58 65.5q27 18 62 28t74 10h210zM334 439q-11 0 -34 -4.5t-46 -24.5q-17 -15 -24.5 -35.5t-7.5 -40.5q0 -9 3 -20.5t14 -22.5q14 -14 32 -17t29 -3h105l34 168h-105z
M452 740h122l-160 -130h-80z" />
    <glyph glyph-name="afii10071.var.accented" unicode="&#x451;`" 
d="M314 -8q-109 0 -164 52.5t-55 145.5q0 72 24 132.5t65.5 104t98 67.5t121.5 24q80 0 120.5 -37.5t40.5 -100.5q0 -39 -17 -71t-59 -56t-113 -38.5t-180 -16.5v-8q0 -54 35 -88t98 -34q46 0 92 16.5t79 36.5l-19 -96q-17 -7 -34 -13t-36.5 -10.5t-43 -7t-53.5 -2.5z
M389 442q-63 0 -114 -43.5t-70 -124.5q84 1 135.5 9.5t80.5 22.5t39 33t10 41q0 28 -19.5 45t-61.5 17zM365 700l-21 -105h-109l21 105h109zM602 700l-21 -105h-108l21 105h108zM509 844h109l-160 -144h-67z" />
    <glyph glyph-name="fi" unicode="fi" horiz-adv-x="642" 
d="M216 434h-111l15 76h111l10 47q4 20 9 42t14 44t23 42.5t36 37.5q32 26 66.5 32.5t60.5 6.5q14 0 30 -1t35 -5l-19 -76q-13 4 -24 5t-20 1q-13 0 -33.5 -3.5t-37.5 -18.5q-20 -17 -30 -46t-15 -53l-11 -55h141l-15 -76h-141l-88 -434h-94zM571 510h94l-103 -510h-94z
M692 614h-106l21 106h106z" />
    <glyph glyph-name="fl" unicode="fl" horiz-adv-x="644" 
d="M216 434h-111l15 76h111l10 47q4 20 9 42t14 44t23 42.5t36 37.5q32 26 66.5 32.5t60.5 6.5q14 0 30 -1t35 -5l-19 -76q-13 4 -24 5t-20 1q-13 0 -33.5 -3.5t-37.5 -18.5q-20 -17 -30 -46t-15 -53l-11 -55h141l-15 -76h-141l-88 -434h-94zM622 762h94l-154 -762h-94z" />
    <glyph glyph-name=".notdef" horiz-adv-x="500" 
d="M442 8v496h-384v-496h384zM50 512h400v-512h-400v512z" />
    <glyph glyph-name=".null" horiz-adv-x="0" 
 />
    <glyph glyph-name=".null" horiz-adv-x="0" 
 />
    <glyph glyph-name="uni000D" unicode="&#xd;" horiz-adv-x="233" 
 />
    <glyph glyph-name="space" unicode=" " horiz-adv-x="220" 
 />
    <glyph glyph-name="exclam" unicode="!" horiz-adv-x="389" 
d="M275 196h-80l86 504h112zM162 112h112l-23 -112h-112z" />
    <glyph glyph-name="quotedbl" unicode="&#x22;" horiz-adv-x="556" 
d="M451 700h88l-50 -245h-88zM301 700h88l-50 -245h-88z" />
    <glyph glyph-name="numbersign" unicode="#" 
d="M180 197h-100l15 76h100l31 154h-100l15 76h101l41 197h76l-41 -197h119l41 197h76l-41 -197h100l-15 -76h-101l-31 -154h100l-15 -76h-100l-40 -197h-76l40 197h-119l-40 -197h-76zM390 273l31 154h-119l-31 -154h119z" />
    <glyph glyph-name="dollar" unicode="$" 
d="M366 615q-35 -6 -57 -25q-20 -16 -29.5 -37.5t-9.5 -41.5q0 -22 13 -40t46 -36zM316 84q40 9 71 42q21 23 27 44t6 37q0 13 -5 26.5t-13 24.5q-8 10 -19 18.5t-25 13.5zM239 -12h-12q-61 0 -97 11t-50 18l32 96q36 -25 69.5 -31t60.5 -6h14l50 243l-32 17
q-8 4 -20.5 11.5t-25 17t-25 20t-20.5 22.5q-11 15 -17.5 35t-6.5 46q0 40 19 83t69 82q34 26 66.5 39t70.5 15l20 99h58l-19 -96q57 -1 90.5 -10t47.5 -15l-33 -92q-14 8 -40.5 18.5t-72.5 10.5h-10l-44 -217l52 -32q35 -21 50 -37t21 -24q14 -20 18.5 -40.5t4.5 -38.5
q0 -51 -20.5 -98.5t-65.5 -84.5q-42 -34 -81 -45t-63 -13l-19 -98h-58z" />
    <glyph glyph-name="percent" unicode="%" horiz-adv-x="830" 
d="M308 366q-65 0 -100 32t-35 92q0 11 1.5 22.5t3.5 24.5q17 81 70 126t130 45q65 0 100 -32t35 -92q0 -11 -1.5 -22.5t-3.5 -24.5q-17 -81 -70 -126t-130 -45zM320 426q42 0 71.5 26.5t41.5 84.5q2 11 3.5 21t1.5 19q0 37 -19 54t-53 17q-42 0 -71.5 -26.5t-41.5 -84.5
q-2 -11 -3.5 -21t-1.5 -19q0 -37 19 -54t53 -17zM748 700h82l-618 -700h-82zM582 -8q-65 0 -100 32t-35 92q0 11 1.5 22.5t3.5 24.5q17 81 70 126t130 45q65 0 100 -32t35 -92q0 -11 -1.5 -22.5t-3.5 -24.5q-17 -81 -70 -126t-130 -45zM594 52q42 0 71.5 26.5t41.5 84.5
q4 19 4 39q0 38 -19 55t-53 17q-42 0 -71 -26.5t-41 -84.5q-2 -11 -3.5 -21t-1.5 -19q0 -37 19 -54t53 -17z" />
    <glyph glyph-name="ampersand" unicode="&#x26;" horiz-adv-x="677" 
d="M679 377q-12 -42 -26 -76.5t-30.5 -63t-34.5 -52.5t-37 -47l94 -138h-125l-43 68q-46 -42 -97.5 -60t-118.5 -18q-91 0 -140.5 41.5t-49.5 110.5q0 22 4 41q17 80 69 127.5t128 76.5q-17 27 -30 56.5t-13 65.5q0 20 4 37q8 42 28.5 73t49.5 51t64 30t73 10q30 0 56.5 -7
t46 -22t31 -37.5t11.5 -53.5q0 -19 -4 -38q-7 -33 -26 -61t-45.5 -51t-57.5 -40.5t-61 -29.5l109 -162q27 32 44 70.5t33 98.5h94zM308 328q-23 -14 -43.5 -27.5t-37 -29.5t-28.5 -35.5t-17 -45.5q-2 -6 -2 -12v-12q0 -46 33 -73t81 -27q24 0 45.5 6.5t39.5 16.5t32.5 21.5
t25.5 20.5zM326 544q-1 -5 -1.5 -10t-0.5 -10q0 -29 12.5 -53t27.5 -45q17 7 38 19t40 27.5t33 34.5t19 41q3 15 3 27q0 32 -19 45.5t-50 13.5q-35 0 -64 -22.5t-38 -67.5z" />
    <glyph glyph-name="quotesingle" unicode="'" horiz-adv-x="278" 
d="M237 700h88l-50 -245h-88z" />
    <glyph glyph-name="parenleft" unicode="(" horiz-adv-x="330" 
d="M196 -140q-18 35 -33.5 75t-27.5 82.5t-18.5 87t-6.5 87.5q0 60 15 124.5t47 134t83.5 144.5t124.5 155h90q-46 -57 -92 -120.5t-83.5 -133t-61 -144.5t-23.5 -155q0 -39 6 -83t16.5 -88t24.5 -86.5t29 -79.5h-90v0z" />
    <glyph glyph-name="parenright" unicode=")" horiz-adv-x="330" 
d="M-20 -140q47 59 93.5 123.5t83.5 135.5t60 148t23 160q0 40 -6.5 82.5t-17 84.5t-24.5 81.5t-28 74.5h90q51 -97 68.5 -181t17.5 -143q0 -83 -23 -160t-60.5 -148t-86 -135.5t-100.5 -122.5h-90v0z" />
    <glyph glyph-name="asterisk" unicode="*" horiz-adv-x="556" 
d="M369 448l-110 -138l-64 50l135 123l-153 33l45 85l138 -62l16 159h91l-47 -159l159 62l10 -85l-164 -33l82 -123l-85 -50z" />
    <glyph glyph-name="plus" unicode="+" 
d="M301 306h-181v88h181v181h88v-181h181v-88h-181v-181h-88v181z" />
    <glyph glyph-name="comma" unicode="," horiz-adv-x="278" 
d="M138 112h111l-135 -245h-89z" />
    <glyph glyph-name="hyphen" unicode="-" horiz-adv-x="460" 
d="M144 350h300l-20 -100h-300z" />
    <glyph glyph-name="period" unicode="." horiz-adv-x="278" 
d="M106 112h112l-23 -112h-112z" />
    <glyph glyph-name="slash" unicode="/" horiz-adv-x="278" 
d="M359 710h88l-386 -722h-88z" />
    <glyph glyph-name="zero" unicode="0" 
d="M272 -8q-83 0 -132.5 54t-49.5 163q0 31 3.5 66t11.5 75q19 94 50 162t71 111.5t88 64t102 20.5q83 0 133.5 -54t50.5 -162q0 -31 -3.5 -66t-11.5 -76q-20 -97 -51 -165t-71.5 -111t-89 -62.5t-101.5 -19.5zM289 76q32 0 61.5 15t55 48t47 85t36.5 126q8 41 11.5 75
t3.5 61q0 78 -27 108t-78 30q-30 0 -58.5 -14t-54 -46t-47.5 -84.5t-38 -129.5q-8 -39 -11 -71.5t-3 -58.5q0 -81 27 -112.5t75 -31.5z" />
    <glyph glyph-name="one" unicode="1" 
d="M382 585l-158 -119l-39 68l231 166h89l-142 -700h-100z" />
    <glyph glyph-name="two" unicode="2" 
d="M68 87q119 94 200 161.5t130 118t70 88.5t21 71q0 49 -32.5 71.5t-86.5 22.5q-53 0 -96 -14.5t-79 -34.5l20 96q57 24 104 32.5t82 8.5q40 0 74.5 -9t60 -28t40 -47t14.5 -67q0 -53 -28 -108t-80 -113.5t-126.5 -121t-168.5 -129.5v-1h322l-17 -84h-442z" />
    <glyph glyph-name="three" unicode="3" 
d="M79 117q32 -17 71.5 -27t87.5 -10q34 0 69 7.5t63 24t45.5 43.5t17.5 65q0 51 -46 77t-120 26h-61l16 82h56q30 0 65.5 6.5t65.5 22t50.5 41.5t20.5 65q0 38 -28 59t-100 21q-45 0 -87.5 -9.5t-76.5 -24.5l19 91q40 16 82 23.5t95 7.5q94 0 145 -39.5t51 -108.5
q0 -77 -45.5 -126.5t-124.5 -66.5l-1 -2q36 -9 59.5 -24.5t37 -35t19 -41.5t5.5 -44q0 -52 -21 -94t-60 -72t-93 -46t-120 -16q-48 0 -91 8t-85 25z" />
    <glyph glyph-name="four" unicode="4" 
d="M463 618h-2l-298 -377h224zM370 159h-325l17 83l375 458h143l-93 -459h88l-17 -82h-88l-32 -159h-100z" />
    <glyph glyph-name="five" unicode="5" 
d="M218 -8q-33 0 -69.5 6t-68.5 20l19 91q20 -9 36.5 -14.5t32 -8.5t31 -4.5t33.5 -1.5q39 0 77.5 8t68.5 26.5t48.5 49.5t18.5 76q0 52 -35.5 87t-104.5 35q-31 0 -72.5 -6.5t-79.5 -19.5l96 364h361l-19 -88h-282l-47 -178q28 5 46 7.5t42 2.5q46 0 82 -14t61 -38.5
t38 -57.5t13 -72q0 -66 -25.5 -116.5t-69.5 -84.5t-103.5 -51.5t-127.5 -17.5z" />
    <glyph glyph-name="six" unicode="6" 
d="M584 599q-31 17 -62.5 23t-55.5 6q-38 0 -75.5 -14.5t-69.5 -45.5q-19 -18 -35 -40.5t-29 -48t-22.5 -52.5t-14.5 -52h3q23 22 47 34.5t46 19t40.5 8.5t31.5 2q36 0 69 -10.5t59 -37.5q25 -26 34 -54.5t9 -57.5q0 -57 -23.5 -118t-76.5 -106q-12 -11 -29.5 -22.5
t-40.5 -21t-51 -15.5t-61 -6q-60 0 -92 20t-51 50q-21 32 -27.5 64.5t-6.5 67.5q0 41 7.5 91.5t23 104t40 105t57.5 93.5q21 27 46 49.5t56.5 39t69.5 26t86 9.5q34 0 69 -6t61 -16zM358 357q-30 0 -54.5 -9.5t-43.5 -25.5q-19 -15 -31 -33t-19 -36t-10 -35.5t-3 -30.5
q0 -22 3.5 -42.5t13.5 -35.5q9 -14 28.5 -25.5t51.5 -11.5q23 0 52 9.5t56 41.5q22 25 35 59.5t13 72.5q0 23 -6 40.5t-15 29.5q-14 19 -32.5 25.5t-38.5 6.5z" />
    <glyph glyph-name="seven" unicode="7" 
d="M613 618l-383 -618h-110l391 618h-340l17 82h442z" />
    <glyph glyph-name="eight" unicode="8" 
d="M256 370q-23 9 -42 24t-33 32q-15 19 -20.5 38t-5.5 42q0 21 6 44.5t19.5 46t35.5 43t54 37.5q33 17 70.5 25t73.5 8q31 0 55.5 -5t42 -11.5t29 -14t17.5 -12.5q24 -20 35.5 -43t11.5 -46q0 -11 -1.5 -27t-8 -34.5t-20 -39t-36.5 -41.5q-22 -20 -48 -35.5t-49 -26.5
q7 -3 17 -9t21 -13t22 -16t19 -18q34 -39 34 -87q0 -23 -5 -48t-16.5 -49.5t-30.5 -47.5t-46 -42t-72 -36.5t-111 -17.5q-47 0 -87.5 12t-75.5 43q-25 23 -35 46t-10 52q0 19 4 41t14 45t28 46t46 44q30 23 58.5 34.5t39.5 14.5v2zM287 311q-20 -11 -40.5 -24.5t-36.5 -31
t-26 -40t-10 -49.5q0 -19 6.5 -35t23.5 -30t42 -21.5t49 -7.5q18 0 44 5.5t53 25.5q32 23 44 52.5t12 56.5q0 23 -7.5 38t-20 26t-28.5 19.5t-32 18.5l-31 19zM376 403q24 15 46.5 32t39 35.5t26.5 39.5t10 43q0 32 -27 54q-9 8 -27 14.5t-49 6.5q-46 0 -84 -22
q-31 -17 -43 -40t-12 -44q0 -16 4.5 -29.5t17.5 -27.5q5 -5 14 -12t19 -14t20 -13.5t17 -9.5z" />
    <glyph glyph-name="nine" unicode="9" 
d="M108 100q30 -17 61 -22.5t53 -5.5q38 0 82 15.5t83 60.5q25 28 49.5 74t36.5 103h-3q-25 -23 -49.5 -35.5t-46 -19.5t-39 -8.5t-28.5 -1.5q-30 0 -52.5 5.5t-39.5 14.5t-29 19.5t-20 20.5q-20 26 -26 55t-6 53q0 68 29 126t79 98q38 31 79.5 44.5t88.5 13.5
q19 0 43.5 -3.5t48.5 -14.5t44.5 -32.5t32.5 -57.5q9 -26 11 -53t2 -55q0 -38 -7 -84t-21 -94t-34.5 -95t-47.5 -86q-29 -43 -62.5 -71t-68.5 -44.5t-70.5 -23t-68.5 -6.5q-29 0 -68 5.5t-68 16.5zM238 438q0 -20 4.5 -39t24.5 -35q12 -10 29.5 -16t40.5 -6q26 0 53 10.5
t50 31.5q28 26 42 61t14 73q0 20 -5 39.5t-16 34.5q-11 16 -30.5 26t-45.5 10q-32 0 -55.5 -12t-40.5 -27q-29 -27 -47 -64t-18 -87z" />
    <glyph glyph-name="colon" unicode=":" horiz-adv-x="278" 
d="M276 398h-112l22 112h112zM106 112h112l-23 -112h-112z" />
    <glyph glyph-name="semicolon" unicode=";" horiz-adv-x="278" 
d="M106 112h112l-135 -245h-90zM276 398h-112l22 112h112z" />
    <glyph glyph-name="less" unicode="&#x3c;" 
d="M120 300v100l450 225v-100l-355 -175l355 -175v-100z" />
    <glyph glyph-name="equal" unicode="=" 
d="M120 295h450v-88h-450v88zM120 494h450v-88h-450v88z" />
    <glyph glyph-name="greater" unicode="&#x3e;" 
d="M120 175l355 175l-355 175v100l450 -225v-100l-450 -225v100z" />
    <glyph glyph-name="question" unicode="?" horiz-adv-x="458" 
d="M203 215q5 20 10 37.5t19 39.5t30.5 38.5l32.5 32.5l13 13q19 19 37.5 35t32.5 36q16 21 25 46t9 51q0 11 -3.5 27t-17.5 30q-17 17 -40 22t-40 5q-21 0 -60.5 -6t-96.5 -37l12 92q25 10 50.5 16.5t48.5 10.5t42 5t32 1q40 0 77.5 -10t60.5 -31q20 -17 32 -46t12 -65
q0 -29 -10.5 -57.5t-26.5 -51.5q-15 -22 -34.5 -41t-42.5 -42l-31 -30q-11 -11 -29 -31.5t-33 -44.5q-10 -16 -12.5 -24.5t-5.5 -23.5l-4 -18h-94zM173 112h112l-23 -112h-112z" />
    <glyph glyph-name="at" unicode="@" horiz-adv-x="780" 
d="M483 -135q-100 0 -177 31t-129.5 85t-79.5 128t-27 160q0 85 28 158t79 127t122 85t157 31q88 0 155.5 -27.5t114 -73.5t70.5 -106t24 -124q0 -73 -19.5 -124.5t-49.5 -84.5t-67.5 -48.5t-73.5 -15.5q-43 0 -62.5 18t-19.5 52q-25 -34 -58 -52t-79 -18q-29 0 -55.5 13
t-46 36.5t-31 56t-11.5 71.5q0 43 14.5 83t41.5 70.5t65 49t85 18.5q39 0 66.5 -15t39.5 -44h2l13 53h71l-39 -220q-5 -25 -8 -43.5t-3 -26.5q0 -10 5.5 -20.5t26.5 -10.5t42.5 11.5t39.5 36t29.5 62.5t11.5 92q0 51 -18.5 98t-55.5 83t-92.5 58t-128.5 22q-71 0 -128.5 -25
t-98 -69.5t-62 -105.5t-21.5 -133t21 -132.5t62.5 -105t103.5 -69.5t144 -25q49 0 95 9t70 21v-69q-11 -6 -28 -11.5t-38 -10t-44.5 -7t-47.5 -2.5zM420 139q33 0 56 14t37 37t20.5 53.5t6.5 62.5q0 39 -23.5 62.5t-66.5 23.5q-31 0 -54 -13t-38.5 -34.5t-23 -48t-7.5 -53.5
q0 -43 25 -73.5t68 -30.5z" />
    <glyph glyph-name="A" unicode="A" horiz-adv-x="584" 
d="M435 261l-28 309h-2l-154 -309h184zM379 700h110l83 -700h-106l-21 177h-238l-93 -177h-102z" />
    <glyph glyph-name="B" unicode="B" horiz-adv-x="608" 
d="M236 700h99h90q16 0 38.5 -1t47 -5.5t49 -14t43.5 -27.5q20 -19 28.5 -41t8.5 -48q0 -53 -20 -89t-43 -57q-22 -20 -52.5 -36t-68.5 -24v-2q29 -2 55.5 -13.5t44.5 -29.5q19 -20 25.5 -41t6.5 -41q0 -60 -24.5 -104.5t-60.5 -70.5q-26 -18 -56 -29t-60 -17t-58 -7.5
t-49 -1.5h-86h-100zM211 82h75q15 0 35 1t40.5 5t40.5 11.5t36 21.5q19 16 32.5 42.5t13.5 58.5q0 24 -10 43.5t-33 33.5q-18 11 -45.5 15.5t-71.5 4.5h-65zM275 401h55h15q31 0 67 4.5t65 24.5q25 17 41.5 47.5t16.5 63.5q0 18 -6 31.5t-21 24.5q-17 11 -41 16t-43 5h-105z
" />
    <glyph glyph-name="C" unicode="C" horiz-adv-x="628" 
d="M692 583q-19 13 -52 26t-84 13q-48 0 -94 -14t-88 -42q-37 -25 -65 -57.5t-46.5 -69.5t-28 -76.5t-9.5 -77.5q0 -35 9 -70t29 -61q9 -12 23.5 -25t37 -24.5t53.5 -19t72 -7.5q23 0 61.5 5.5t88.5 27.5l-13 -96q-50 -17 -87.5 -21t-69.5 -4q-27 0 -59.5 3t-66 13t-66 30
t-60.5 55q-25 31 -42 74.5t-17 101.5q0 43 10 92t33.5 98t61 95t91.5 82q63 42 130 59t130 17q57 0 90 -9.5t56 -20.5z" />
    <glyph glyph-name="D" unicode="D" horiz-adv-x="738" 
d="M236 700h100h106q17 0 45.5 -2t62.5 -11t69 -27t65 -49q38 -41 52.5 -90t14.5 -99q0 -86 -31.5 -162t-86.5 -133q-38 -39 -78.5 -63.5t-83 -39t-86 -19.5t-85.5 -5h-106h-100zM212 88h105q27 0 56.5 3t60 12.5t60.5 26.5t57 44q43 44 67.5 108.5t24.5 129.5
q0 13 -1.5 30.5t-6 35.5t-13 36.5t-23.5 34.5q-19 22 -59 42.5t-105 20.5h-117z" />
    <glyph glyph-name="E" unicode="E" horiz-adv-x="554" 
d="M236 700h98h293l-18 -88h-291l-42 -205h265l-17 -88h-265l-47 -231h291l-18 -88h-291h-100z" />
    <glyph glyph-name="F" unicode="F" horiz-adv-x="511" 
d="M236 700h99h272l-18 -88h-271l-42 -205h259l-17 -88h-259l-65 -319h-100z" />
    <glyph glyph-name="G" unicode="G" horiz-adv-x="731" 
d="M744 575q-17 12 -33 20t-39 14q-11 3 -38 8t-65 5q-60 0 -108 -16t-87 -44q-35 -25 -61.5 -58t-45 -69.5t-28 -75t-9.5 -74.5q0 -46 12.5 -80t34.5 -59q28 -32 73.5 -50t105.5 -18q7 0 19 0.5t25.5 2t26 2.5t19.5 3l15 3l43 212h-147l17 82h146h101l-74 -362
q-48 -15 -101.5 -23t-107.5 -8q-24 0 -55.5 3t-65.5 12t-67 27t-61 48q-38 42 -51.5 90t-13.5 92q0 48 11 97.5t33 96t55.5 88.5t79.5 76q55 41 123 65.5t153 24.5q27 0 59 -3t62 -9q23 -5 40.5 -10.5t32.5 -12.5z" />
    <glyph glyph-name="H" unicode="H" horiz-adv-x="722" 
d="M236 700h100l-60 -293h334l60 293h100l-142 -700h-100l65 319h-334l-65 -319h-100z" />
    <glyph glyph-name="I" unicode="I" horiz-adv-x="288" 
d="M236 700h100l-142 -700h-100z" />
    <glyph glyph-name="J" unicode="J" horiz-adv-x="389" 
d="M39 88q23 -7 37.5 -8.5t23.5 -1.5q35 0 57.5 9t36.5 23q21 20 32 49.5t16 55.5l98 485h100l-105 -517q-3 -14 -8 -32t-15 -38.5t-25 -40.5t-37 -37q-59 -45 -153 -45q-32 0 -50 4.5t-26 7.5z" />
    <glyph glyph-name="K" unicode="K" horiz-adv-x="667" 
d="M236 700h100l-63 -308l361 308h133l-395 -331l279 -369h-146l-242 343l-69 -343h-100z" />
    <glyph glyph-name="L" unicode="L" horiz-adv-x="506" 
d="M236 700h100l-124 -612h292l-18 -88h-293h-99z" />
    <glyph glyph-name="M" unicode="M" horiz-adv-x="858" 
d="M236 700h159l96 -403l261 403h154l-142 -700h-100l121 600h-2l-263 -400h-100l-103 400h-2l-121 -600h-100z" />
    <glyph glyph-name="N" unicode="N" horiz-adv-x="734" 
d="M236 700h100h36l194 -564h2l114 564h100l-142 -700h-100h-28l-199 576h-2l-117 -576h-100z" />
    <glyph glyph-name="O" unicode="O" horiz-adv-x="780" 
d="M535 710q48 0 84.5 -9.5t64.5 -24.5t47.5 -34t31.5 -38q23 -37 32.5 -86t9.5 -89q0 -42 -9 -86.5t-27 -88.5t-45.5 -84.5t-63.5 -74.5q-52 -48 -119 -76.5t-152 -28.5q-30 0 -61 4.5t-59.5 15.5t-54.5 30t-47 48q-20 29 -35 71.5t-15 101.5q0 44 10 91t29 92t46 86.5
t61 73.5q19 18 45.5 37t60 34.5t75 25t91.5 9.5zM517 622q-44 0 -93 -17.5t-94 -62.5q-50 -50 -78.5 -120.5t-28.5 -145.5q0 -26 5 -62t28 -68q17 -24 53.5 -46t97.5 -22q45 0 93.5 16.5t93.5 63.5q23 24 42.5 55t33.5 66.5t21.5 73.5t7.5 77q0 29 -7 63.5t-30 64.5
q-19 25 -54.5 44.5t-90.5 19.5z" />
    <glyph glyph-name="P" unicode="P" horiz-adv-x="570" 
d="M265 348h90q86 0 132.5 44.5t46.5 117.5q0 47 -30.5 74.5t-93.5 27.5h-92zM236 700h194q108 0 160.5 -49.5t52.5 -140.5q0 -53 -20 -98.5t-59 -79t-95.5 -53t-128.5 -19.5h-93l-53 -260h-100z" />
    <glyph glyph-name="Q" unicode="Q" horiz-adv-x="780" 
d="M446 -6q-17 -2 -29 -3t-28 -1q-47 0 -83.5 9t-64.5 24t-47.5 34t-32.5 38q-22 32 -33 74.5t-11 89.5q0 43 9.5 89.5t28.5 92.5t46 88t62 75q19 18 45.5 37t60 34.5t75 25t91.5 9.5q48 0 84.5 -9.5t64.5 -24.5t47 -34t32 -38q14 -22 22.5 -46.5t13 -47t5.5 -41t1 -28.5
q0 -78 -26.5 -161t-86.5 -152q-38 -44 -77.5 -69t-71.5 -39l132 -146h-124zM517 622q-17 0 -38.5 -3t-46 -11.5t-50.5 -24.5t-52 -41q-27 -27 -47.5 -60t-33.5 -69t-19.5 -73t-6.5 -73q0 -8 1 -22.5t5 -32.5t11 -37t19 -35q7 -10 19.5 -21t30.5 -20t42 -15t56 -6
q110 0 187 80q23 24 42.5 54.5t33.5 64t21.5 69t7.5 69.5q0 51 -10.5 84.5t-25.5 54.5q-20 29 -55 48.5t-91 19.5z" />
    <glyph glyph-name="R" unicode="R" horiz-adv-x="624" 
d="M236 700h194q108 0 160.5 -49.5t52.5 -140.5q0 -73 -38.5 -131.5t-110.5 -89.5l88 -289h-110l-71 264q-15 -2 -30 -3t-31 -1h-93l-53 -260h-100zM534 510q0 47 -30.5 74.5t-93.5 27.5h-92l-53 -264h90q86 0 132.5 44.5t46.5 117.5z" />
    <glyph glyph-name="S" unicode="S" horiz-adv-x="500" 
d="M526 593q-37 18 -68.5 23.5t-56.5 5.5q-26 0 -46.5 -4.5t-36.5 -12.5q-31 -15 -46.5 -41t-15.5 -49q0 -14 6 -26t15 -23q17 -20 37 -29.5t45 -23.5l23 -13q35 -20 60.5 -39.5t41.5 -53.5q8 -17 10 -33t2 -38q0 -64 -23.5 -110t-71.5 -81q-47 -35 -97 -45t-98 -10
q-29 0 -65.5 6t-81.5 23l28 92q29 -14 67.5 -23.5t71.5 -9.5q26 0 58 8t54 25q23 17 36.5 45t13.5 57q0 35 -23 58q-11 10 -28.5 21t-54.5 32l-39 22q-35 20 -55 39.5t-28 36.5q-10 20 -11.5 39.5t-1.5 27.5q0 48 26 96t74 80q25 16 51 25t49 13.5t41 5.5t27 1q50 0 85.5 -8
t58.5 -17z" />
    <glyph glyph-name="T" unicode="T" horiz-adv-x="556" 
d="M352 612h-217l18 88h534l-18 -88h-217l-124 -612h-100z" />
    <glyph glyph-name="U" unicode="U" horiz-adv-x="725" 
d="M694 290q-18 -90 -52 -143.5t-67 -81.5q-38 -33 -92 -54t-121 -21q-38 0 -67 6.5t-51 17.5t-38 25t-27 28q-26 33 -31.5 66t-5.5 62q0 24 2.5 47.5t7.5 47.5l83 410h100l-81 -397q-5 -26 -8.5 -50t-3.5 -47q0 -10 1 -22t4.5 -25t10.5 -26t20 -24q20 -17 49.5 -24t52.5 -7
q40 0 77 13.5t69 48.5q34 37 48 79.5t22 83.5l81 397h100z" />
    <glyph glyph-name="V" unicode="V" horiz-adv-x="667" 
d="M394 0h-125l-121 700h112l91 -612h2l345 612h105z" />
    <glyph glyph-name="W" unicode="W" horiz-adv-x="1000" 
d="M144 700h110l45 -600h2l271 600h142l29 -600h2l289 600h106l-357 -700h-129l-28 612h-2l-277 -612h-134z" />
    <glyph glyph-name="X" unicode="X" horiz-adv-x="667" 
d="M339 364l-166 336h120l131 -269l240 269h114l-303 -334l184 -366h-126l-146 297l-259 -297h-120z" />
    <glyph glyph-name="Y" unicode="Y" horiz-adv-x="667" 
d="M343 293l-190 407h117l144 -314l267 314h117l-355 -407l-59 -293h-100z" />
    <glyph glyph-name="Z" unicode="Z" horiz-adv-x="556" 
d="M50 90l469 522h-351l18 88h465l-18 -90l-467 -522h367l-18 -88h-483z" />
    <glyph glyph-name="bracketleft" unicode="[" horiz-adv-x="370" 
d="M271 750h189l-14 -70h-101l-153 -750h101l-14 -70h-189z" />
    <glyph glyph-name="backslash" unicode="\" horiz-adv-x="278" 
d="M119 710h88l94 -722h-88z" />
    <glyph glyph-name="bracketright" unicode="]" horiz-adv-x="330" 
d="M34 -70h101l153 750h-101l14 70h189l-181 -890h-189z" />
    <glyph glyph-name="asciicircum" unicode="^" 
d="M371 700h90l124 -400h-90l-95 320l-220 -320h-95z" />
    <glyph glyph-name="underscore" unicode="_" horiz-adv-x="500" 
d="M0 -75h500v-50h-500v50z" />
    <glyph glyph-name="grave" unicode="`" horiz-adv-x="289" 
d="M334 610h-76l-104 130h120z" />
    <glyph glyph-name="a" unicode="a" horiz-adv-x="615" 
d="M638 510l-103 -510h-90l15 72h-2q-17 -19 -33 -30t-37 -22q-28 -14 -53.5 -21t-57.5 -7q-48 0 -88.5 16t-66.5 59q-19 32 -23 66t-4 53q0 77 30 148t85 120q42 38 82.5 51t82.5 13q34 0 57.5 -5t48.5 -22q16 -11 27 -22.5t20 -28.5h2l14 70h94zM497 299q0 23 -3 43.5
t-13 39.5q-17 32 -42 46t-59 14q-35 0 -62 -13t-50 -36q-32 -32 -52.5 -83t-20.5 -111q0 -18 3.5 -41.5t17.5 -43.5q11 -16 31.5 -31t57.5 -15q28 0 58.5 11.5t58.5 39.5q31 30 53 76.5t22 103.5z" />
    <glyph glyph-name="b" unicode="b" horiz-adv-x="612" 
d="M234 762h94l-65 -322h2q16 19 33 31t37 22q29 14 59 19.5t60 5.5q47 0 79 -16.5t57 -50.5q23 -32 29 -62t6 -60q0 -79 -27 -142t-66 -107q-24 -26 -48.5 -43t-49 -27t-47.5 -14t-43 -4q-26 0 -54.5 6t-51.5 21q-14 8 -27 21.5t-24 31.5h-2l-15 -72h-90zM415 442
q-35 0 -65 -13.5t-53 -36.5q-39 -38 -58 -91t-19 -102q0 -38 17 -72q4 -9 11.5 -19t19.5 -19t29 -15t41 -6q22 0 52 10.5t62 44.5q33 35 53 86t20 107q0 21 -4.5 39t-11.5 32q-28 55 -94 55z" />
    <glyph glyph-name="c" unicode="c" horiz-adv-x="446" 
d="M491 420q-21 10 -47.5 16t-49.5 6q-28 0 -57.5 -10t-55.5 -29q-47 -35 -71 -91t-24 -113q0 -20 5 -40.5t20 -40.5q17 -23 46 -36.5t67 -13.5q28 0 55.5 7.5t51.5 21.5l-10 -84q-17 -7 -47.5 -14t-75.5 -7q-37 0 -65.5 8t-49.5 20t-36 26.5t-24 27.5q-14 20 -26 50.5
t-12 75.5q0 33 7.5 68t24 69t42.5 65t62 57q40 29 87 44t97 15q22 0 50 -4t60 -16z" />
    <glyph glyph-name="d" unicode="d" horiz-adv-x="613" 
d="M685 762l-154 -762h-90l15 72h-2q-17 -19 -33 -30t-37 -22q-28 -14 -53.5 -21t-57.5 -7q-48 0 -88.5 16t-66.5 59q-19 32 -23 66t-4 53q0 77 30 148t85 120q42 38 82.5 51t82.5 13q34 0 57.5 -5t48.5 -22q16 -11 27 -22.5t20 -28.5h2l65 322h94zM493 299q0 23 -3 43.5
t-13 39.5q-17 32 -42 46t-59 14q-35 0 -62 -13t-50 -36q-32 -32 -52.5 -83t-20.5 -111q0 -18 3.5 -41.5t17.5 -43.5q11 -16 31.5 -31t57.5 -15q28 0 58.5 11.5t58.5 39.5q31 30 53 76.5t22 103.5z" />
    <glyph glyph-name="e" unicode="e" 
d="M314 -8q-109 0 -164 52.5t-55 145.5q0 72 24 132.5t65.5 104t98 67.5t121.5 24q80 0 120.5 -37.5t40.5 -100.5q0 -39 -17 -71t-59 -56t-113 -38.5t-180 -16.5v-8q0 -54 35 -88t98 -34q46 0 92 16.5t79 36.5l-19 -96q-17 -7 -34 -13t-36.5 -10.5t-43 -7t-53.5 -2.5z
M389 442q-63 0 -114 -43.5t-70 -124.5q84 1 135.5 9.5t80.5 22.5t39 33t10 41q0 28 -19.5 45t-61.5 17z" />
    <glyph glyph-name="f" unicode="f" horiz-adv-x="373" 
d="M216 434h-111l15 76h111l10 47q4 20 9 42t14 44t23 42.5t36 37.5q32 26 66.5 32.5t60.5 6.5q14 0 30 -1t35 -5l-19 -76q-13 4 -24 5t-20 1q-13 0 -33.5 -3.5t-37.5 -18.5q-20 -17 -30 -46t-15 -53l-11 -55h141l-15 -76h-141l-88 -434h-94z" />
    <glyph glyph-name="g" unicode="g" horiz-adv-x="611" 
d="M535 22q-4 -21 -11 -44.5t-18.5 -48t-28.5 -47t-41 -42.5q-36 -29 -88.5 -46.5t-124.5 -17.5q-21 0 -67 5.5t-109 29.5l28 87q60 -32 104 -39t64 -7q45 0 79 13.5t60 40.5q20 22 36.5 52t24.5 71l10 50h-2q-23 -24 -45 -37.5t-40 -21.5q-34 -14 -62.5 -17t-39.5 -3
q-43 0 -77 14.5t-60 46.5q-22 27 -30 57t-8 65q0 66 25.5 133.5t81.5 122.5q47 46 95.5 62.5t94.5 16.5q23 0 49 -6t46 -18q19 -11 30.5 -26.5t18.5 -33.5h2l15 76h87zM303 76q25 0 59 10.5t66 45.5q15 16 27 36.5t20.5 43.5t13.5 47.5t5 47.5q0 22 -4 45t-13 39
q-4 7 -11 16t-18.5 16.5t-28.5 13t-39 5.5q-37 0 -67 -16t-52 -39q-16 -17 -28.5 -39t-21.5 -47t-14 -50.5t-5 -49.5q0 -20 5 -41.5t14 -36.5q9 -14 30 -30.5t62 -16.5z" />
    <glyph glyph-name="h" unicode="h" horiz-adv-x="610" 
d="M234 762h94l-65 -325h2q23 26 44.5 39.5t33.5 19.5q23 11 49 16.5t58 5.5q37 0 71 -11.5t57 -46.5q10 -14 16.5 -33.5t6.5 -46.5q0 -11 -1.5 -29.5t-7.5 -47.5l-61 -303h-94l53 264q5 24 8 41.5t3 43.5q0 17 -3.5 34.5t-17.5 33.5q-15 17 -34 21t-34 4q-23 0 -51.5 -9
t-57.5 -35q-38 -34 -55.5 -77t-25.5 -85l-48 -236h-94z" />
    <glyph glyph-name="i" unicode="i" horiz-adv-x="254" 
d="M183 510h94l-103 -510h-94zM304 614h-106l21 106h106z" />
    <glyph glyph-name="j" unicode="j" horiz-adv-x="278" 
d="M-41 -139q16 -3 28 -3h10q18 1 31 8t23 19q2 3 14.5 24t20.5 59l109 542h94l-107 -528q-4 -19 -9 -40t-12.5 -42t-18 -40.5t-25.5 -35.5q-32 -32 -67 -40t-67 -8q-15 0 -25 1t-18 3zM317 614h-106l21 106h106z" />
    <glyph glyph-name="k" unicode="k" horiz-adv-x="546" 
d="M234 762h94l-93 -459l250 207h122l-279 -221l205 -289h-127l-179 262l-53 -262h-94z" />
    <glyph glyph-name="l" unicode="l" horiz-adv-x="256" 
d="M234 762h94l-154 -762h-94z" />
    <glyph glyph-name="m" unicode="m" horiz-adv-x="886" 
d="M183 510h88l-15 -74h2q13 17 32.5 33.5t48.5 28.5q23 10 47.5 15t46.5 5q24 0 45.5 -5t38.5 -19q10 -8 25 -25.5t20 -49.5q24 32 49 50.5t40 26.5q23 12 47 17t51 5q13 0 28.5 -2t31 -7.5t30.5 -16t26 -28.5q19 -30 19 -65q0 -18 -1 -35.5t-5 -36.5l-66 -327h-94l62 304
q6 28 6 56q0 13 -2 26t-8 24q-12 21 -30.5 26.5t-31.5 5.5q-26 0 -52 -11t-52 -38q-31 -33 -45 -70t-20 -66l-52 -257h-94l62 304q6 30 6 58q0 12 -2 23.5t-7 22.5q-8 15 -23.5 24.5t-39.5 9.5q-26 0 -52 -10.5t-52 -38.5q-32 -34 -46 -71t-19 -65l-52 -257h-94z" />
    <glyph glyph-name="n" unicode="n" horiz-adv-x="604" 
d="M183 510h94l-14 -73h2q23 26 44.5 39.5t33.5 19.5q47 22 102 22t86.5 -16.5t46.5 -39.5q13 -20 18 -41.5t5 -43.5q0 -20 -3 -38.5t-6 -35.5l-61 -303h-94l53 264q5 24 8 46t3 42q0 36 -13 56q-6 9 -23.5 21.5t-52.5 12.5q-23 0 -51.5 -9t-57.5 -35q-38 -35 -55.5 -77.5
t-25.5 -84.5l-48 -236h-94z" />
    <glyph glyph-name="o" unicode="o" horiz-adv-x="618" 
d="M414 518q36 0 64.5 -7t50 -18.5t37 -26t25.5 -28.5q14 -20 24.5 -50t10.5 -75q0 -69 -30.5 -133t-78.5 -108q-40 -36 -93 -58t-117 -22q-36 0 -64.5 7t-50 18.5t-36.5 26t-25 28.5q-36 51 -36 118q0 37 9.5 73.5t24.5 68.5t35 59t41 47q39 36 92 58t117 22zM399 442
q-38 0 -73 -17t-60 -43q-34 -35 -52 -82.5t-18 -91.5q0 -11 2.5 -37t17.5 -49q14 -22 41.5 -38t65.5 -16q32 0 67 14.5t65 45.5q28 29 49 74.5t21 96.5q0 19 -4 44t-20 48q-22 32 -51 41.5t-51 9.5z" />
    <glyph glyph-name="p" unicode="p" horiz-adv-x="613" 
d="M273 510l-14 -73h2q37 42 86 61.5t99 19.5q46 0 81 -14.5t61 -49.5q37 -51 37 -121q0 -33 -7.5 -69.5t-21 -72t-33 -68t-43.5 -56.5q-38 -38 -84 -56.5t-92 -18.5q-27 0 -56 5.5t-51 19.5q-14 9 -26.5 22.5t-20.5 27.5h-2l-59 -291h-94l148 734h90zM415 442
q-29 0 -62 -12.5t-65 -47.5q-34 -38 -51 -84.5t-17 -94.5q0 -19 3.5 -41t17.5 -44q11 -17 34 -33.5t61 -16.5q25 0 51.5 9.5t52.5 33.5q20 19 36 43.5t26.5 52t16 56.5t5.5 56q0 21 -4 41t-16 38q-11 17 -32.5 30.5t-56.5 13.5z" />
    <glyph glyph-name="q" unicode="q" horiz-adv-x="612" 
d="M487 -224h-94l59 291h-2q-14 -14 -30 -26.5t-39 -23.5q-28 -14 -57.5 -19.5t-59.5 -5.5q-31 0 -54.5 7t-40.5 18t-29 24t-20 26q-18 29 -23 62t-5 54q0 81 29.5 151t78.5 116q39 36 82.5 52t93.5 16q15 0 35.5 -2.5t41.5 -10.5t41 -24.5t35 -43.5h2l14 73h90zM377 442
q-29 0 -55 -10t-52 -34q-20 -19 -35 -42.5t-24.5 -49.5t-14 -53t-4.5 -53q0 -20 4.5 -44t19.5 -45q8 -12 29 -27.5t59 -15.5q32 0 63 14t57 41q15 16 28 37.5t22.5 45.5t15 49.5t5.5 48.5q0 52 -21 87q-5 9 -13 18t-19.5 16.5t-27.5 12t-37 4.5z" />
    <glyph glyph-name="r" unicode="r" horiz-adv-x="379" 
d="M271 510l-17 -83h2q29 42 71 66.5t84 24.5q7 0 24 -1.5t25 -3.5l8 -2l-17 -84q-9 4 -21 6.5t-29 2.5q-30 0 -53 -11t-45 -31q-38 -35 -56 -79t-27 -87l-46 -228h-94l103 510h88z" />
    <glyph glyph-name="s" unicode="s" horiz-adv-x="406" 
d="M74 103q32 -20 61.5 -27.5t50.5 -7.5q47 0 80 25q15 12 23 27t8 29q0 8 -3.5 19.5t-15.5 22.5q-2 2 -12 9t-42 24l-24 13q-16 8 -36.5 23t-32.5 39q-5 9 -8.5 22.5t-3.5 33.5q0 11 2.5 25.5t9.5 30.5t19.5 32t32.5 31q32 23 70.5 33.5t76.5 10.5q20 0 49.5 -4t63.5 -16
l-24 -80q-21 13 -40 17q-11 3 -23 5t-26 2q-17 0 -35 -2.5t-34 -10.5q-27 -13 -34.5 -30.5t-7.5 -28.5q0 -21 15 -38q7 -8 20.5 -16.5t42.5 -22.5l14 -7q26 -14 42 -26t24 -23q20 -26 20 -70q0 -14 -3 -30t-11.5 -34t-23.5 -36t-38 -34q-32 -22 -66.5 -31.5t-75.5 -9.5
q-43 0 -73.5 8.5t-53.5 19.5z" />
    <glyph glyph-name="t" unicode="t" horiz-adv-x="375" 
d="M345 658l-30 -148h141l-15 -76h-141l-56 -275q-1 -5 -2.5 -16.5t-1.5 -19.5q0 -22 16 -37q10 -9 24 -13.5t29 -4.5q14 0 31 4.5t32 13.5l-16 -80q-44 -14 -86 -14q-29 0 -57 8t-46 27q-26 26 -26 71q0 19 5 42l60 294h-111l15 76h111l24 118z" />
    <glyph glyph-name="u" unicode="u" horiz-adv-x="611" 
d="M531 0h-94l15 73h-2q-15 -17 -34 -32t-45 -27q-20 -10 -44.5 -16t-57.5 -6q-15 0 -33 2t-36 8t-34.5 17t-28.5 29t-18 42.5t-6 44.5q0 17 3.5 39.5t5.5 32.5l61 303h94l-53 -264q-4 -18 -7.5 -42.5t-3.5 -46.5q0 -14 3 -31t16 -31q8 -8 24.5 -17.5t46.5 -9.5
q32 0 60 12.5t49 31.5q18 16 31.5 36.5t23 41.5t15.5 42.5t10 41.5l48 236h94z" />
    <glyph glyph-name="v" unicode="v" horiz-adv-x="500" 
d="M306 0h-112l-80 510h103l54 -416h2l225 416h94z" />
    <glyph glyph-name="w" unicode="w" horiz-adv-x="833" 
d="M657 0h-109l-45 428h-2l-216 -428h-109l-61 510h103l32 -422h2l215 422h111l43 -422h2l209 422h92z" />
    <glyph glyph-name="x" unicode="x" horiz-adv-x="500" 
d="M248 267l-117 243h117l74 -182l150 182h105l-213 -243l126 -267h-116l-85 200l-167 -200h-112z" />
    <glyph glyph-name="y" unicode="y" horiz-adv-x="488" 
d="M14 -140q1 0 11.5 -4t27.5 -4t37 6.5t37 20.5q19 18 33.5 41t22.5 38l11 22l-4 38l-80 492h103l55 -419h2l222 419h95l-298 -529q-21 -37 -37 -63.5t-28.5 -44.5t-22 -29t-17.5 -18q-26 -23 -60 -36.5t-74 -13.5q-20 0 -32.5 2t-20.5 4l-5 1z" />
    <glyph glyph-name="z" unicode="z" horiz-adv-x="500" 
d="M60 82l365 352h-280l15 76h389l-16 -82l-366 -352h305l-15 -76h-414z" />
    <glyph glyph-name="braceleft" unicode="{" horiz-adv-x="317" 
d="M296 429q-7 -34 -22.5 -57t-34.5 -37q-11 -8 -25.5 -15t-31.5 -11q12 -2 23.5 -8t22.5 -18q13 -14 18 -28.5t5 -30.5q0 -8 -1 -17t-3 -18l-36 -181q-4 -19 -4 -39q0 -11 8 -21q8 -11 19 -13.5t19 -2.5q12 0 24 3l-6 -69q-8 -2 -21 -3t-25 -1q-31 0 -53 8.5t-34 22.5
q-19 22 -19 51q0 14 0.5 28t3.5 29l35 174q2 8 3 15.5t1 15.5q0 29 -15.5 47t-53.5 22l13 68q45 5 71 28.5t36 71.5l35 174q10 47 27.5 72t31.5 36t38 21t61 10q13 0 24.5 -1t19.5 -3l-22 -69q-11 3 -22 3q-14 0 -24 -4t-20 -12q-18 -15 -22 -29t-7 -31z" />
    <glyph glyph-name="bar" unicode="|" horiz-adv-x="330" 
d="M182 750h88v-890h-88v890z" />
    <glyph glyph-name="braceright" unicode="}" horiz-adv-x="317" 
d="M232 610q2 11 2.5 20t0.5 19q0 11 -8 21q-8 11 -19 13.5t-19 2.5q-12 0 -24 -3l6 69q8 2 21 3t25 1q36 0 56.5 -10t30.5 -21q9 -11 14.5 -24t5.5 -27t-1 -28t-4 -29l-35 -174q-2 -8 -3 -15.5t-1 -15.5q0 -29 15.5 -47t53.5 -22l-13 -68q-45 -5 -71 -28.5t-36 -71.5
l-35 -174q-5 -23 -16.5 -53t-42.5 -55q-18 -14 -42.5 -22.5t-56.5 -8.5q-14 0 -25 1t-19 3l22 69q10 -3 22 -3q14 0 24 4t20 12q17 15 22 29.5t8 30.5l36 181q7 34 22.5 57t34.5 37q15 12 30 18t28 8q-11 2 -23 7t-24 19q-13 14 -18 28.5t-5 30.5q0 8 1 17t3 18z" />
    <glyph glyph-name="asciitilde" unicode="~" 
d="M451 275q-20 0 -44 6t-67 25l-25 11q-23 11 -41.5 18.5t-35.5 7.5q-16 0 -29.5 -7.5t-24.5 -19t-19.5 -24t-14.5 -22.5l-36 70q7 16 18.5 31t26.5 27t35 19.5t45 7.5q10 0 20.5 -1.5t23.5 -5t29 -9.5t38 -15l25 -11q23 -11 41.5 -18.5t35.5 -7.5q16 0 29.5 7.5t24.5 19
t19.5 24t14.5 22.5l36 -70q-8 -16 -19 -31t-26 -27t-35 -19.5t-45 -7.5z" />
    <glyph glyph-name="uni00A0" unicode="&#xa0;" horiz-adv-x="220" 
 />
    <glyph glyph-name="exclamdown" unicode="&#xa1;" horiz-adv-x="389" 
d="M119 -200l118 504h80l-86 -504h-112zM373 500l-23 -112h-112l23 112h112z" />
    <glyph glyph-name="cent" unicode="&#xa2;" 
d="M266 -1q-71 15 -113.5 63t-42.5 128q0 58 18.5 110.5t52.5 95.5t82 73t108 42l21 99h94l-19 -93q29 -2 54 -8t39 -11l-18 -83q-48 25 -112 25q-51 0 -91.5 -19t-69 -51t-43.5 -74.5t-15 -90.5q0 -35 11.5 -60.5t31 -42t45 -24.5t54.5 -8q49 0 80 14t48 24l-19 -91
q-13 -7 -42.5 -14t-60.5 -10l-18 -93h-94z" />
    <glyph glyph-name="sterling" unicode="&#xa3;" 
d="M78 86h76l49 241h-76l14 66h76l17 87q24 123 90.5 175.5t170.5 52.5q32 0 64 -6t61 -15l-20 -93q-32 16 -63 21t-60 5q-48 0 -88 -32t-55 -108l-17 -87h160l-14 -66h-160l-49 -241h244l-18 -86h-420z" />
    <glyph glyph-name="currency" unicode="&#xa4;" 
d="M136 203q-16 19 -33 54t-17 92q0 30 5.5 54t13 42.5t16 31t15.5 20.5l-56 54l51 52l55 -55q42 31 82 40t66 9q49 0 86.5 -14.5t63.5 -34.5l54 55l50 -52l-54 -54q6 -7 14 -19.5t15.5 -30.5t13 -42.5t5.5 -55.5q0 -32 -9.5 -71t-38.5 -75l54 -57l-50 -51l-54 57
q-8 -7 -20.5 -15.5t-31 -16.5t-43 -13.5t-55.5 -5.5t-55 5.5t-42 13.5t-30.5 16.5t-20.5 15.5l-55 -57l-51 51zM174 349q0 -35 12.5 -65t34.5 -52.5t51 -35.5t62 -13q34 0 63.5 13.5t51 36t33.5 53t12 63.5t-12 63t-33.5 53t-51 36.5t-63.5 13.5q-33 0 -62.5 -13.5t-51 -36
t-34 -52.5t-12.5 -64z" />
    <glyph glyph-name="yen" unicode="&#xa5;" 
d="M249 157h-159l13 66h159l13 64h-159l13 66h125l-116 345h104l103 -318l225 318h110l-257 -345h125l-13 -66h-160l-13 -64h160l-13 -66h-160l-32 -157h-100z" />
    <glyph glyph-name="brokenbar" unicode="&#xa6;" horiz-adv-x="330" 
d="M182 215h88v-355h-88v355zM182 750h88v-355h-88v355z" />
    <glyph glyph-name="section" unicode="&#xa7;" horiz-adv-x="556" 
d="M97 -3q42 -23 85.5 -29t72.5 -6q25 0 45 5.5t40 16.5q31 17 42 37.5t11 41.5q0 14 -6 23.5t-17 17.5q-12 8 -31.5 15.5t-46.5 18.5l-57 24q-34 14 -52 31t-26 31q-3 5 -9 19t-6 35q0 29 12.5 59t35.5 54q16 17 31 26t23 13q-3 3 -15.5 14.5t-20.5 24.5t-10.5 26t-2.5 27
q0 45 27.5 86t66.5 65q37 23 78 30t76 7q26 0 60 -3.5t79 -15.5l-27 -91q-41 19 -71 23.5t-52 4.5q-20 0 -40.5 -3t-39.5 -11q-33 -13 -46.5 -34t-13.5 -38q0 -8 2 -16.5t8 -16.5q12 -17 37.5 -28t61.5 -25l29 -11q22 -8 51 -24t45 -40q8 -11 13.5 -28.5t5.5 -33.5
q0 -39 -26 -81.5t-73 -68.5q29 -20 36.5 -42t7.5 -42q0 -41 -23 -84t-68 -72q-38 -25 -85 -36.5t-88 -11.5q-57 0 -96.5 8.5t-59.5 16.5zM400 201q22 18 36.5 39t14.5 43q0 9 -1 20t-6 19q-4 8 -14 18t-30 18l-38 15q-19 7 -30.5 12t-18.5 8t-12 5.5t-10 5.5
q-25 -15 -39.5 -40t-14.5 -47q0 -24 13 -41q16 -21 42.5 -32.5t65.5 -26.5z" />
    <glyph glyph-name="dieresis" unicode="&#xa8;" horiz-adv-x="278" 
d="M149 720h94l-20 -100h-94zM313 720h94l-20 -100h-94z" />
    <glyph glyph-name="copyright" unicode="&#xa9;" horiz-adv-x="826" 
d="M472 -10q-75 0 -140.5 28.5t-114 78t-77 114.5t-28.5 139q0 75 28.5 140.5t77 114t114 77t140.5 28.5t140 -28.5t114 -77t77 -114t28 -140.5q0 -73 -28.5 -138.5t-77 -114.5t-114 -78t-139.5 -29zM472 56q61 0 114.5 23t93.5 63t63 93.5t23 114.5t-23 115t-63 94
t-93.5 63t-114.5 23q-60 0 -114 -23t-94 -63t-63.5 -94t-23.5 -115t23.5 -114.5t63.5 -93.5t93.5 -63t114.5 -23zM479 152q-52 0 -89 18t-60 47t-34 65t-11 72q0 43 14 79t39 62t59.5 40.5t75.5 14.5q30 0 55.5 -4t45.5 -11v-60q-23 10 -47 12.5t-44 2.5q-28 0 -50 -10.5
t-37 -29t-22.5 -43.5t-7.5 -53q0 -35 9.5 -61t26 -43.5t38 -26.5t45.5 -9q20 0 46 4.5t46 12.5v-61q-23 -9 -46 -13.5t-52 -4.5z" />
    <glyph glyph-name="ordfeminine" unicode="&#xaa;" horiz-adv-x="368" 
d="M205 689q23 8 54.5 14.5t73.5 6.5q24 0 51.5 -4.5t47.5 -20.5q15 -12 21.5 -27.5t6.5 -33.5q0 -6 -1 -15t-5 -26l-26 -128l-9 -59h-84l8 38h-2q-18 -22 -45 -34q-14 -6 -29 -9t-33 -3q-14 0 -40 2.5t-46 18.5q-11 9 -19 25t-8 36q0 11 3.5 24.5t12 27t23 25.5t36.5 21
q33 14 70 16t70 2h15t21 -1l2 8q2 8 2 15q0 16 -13 29q-11 11 -25.5 13.5t-29.5 2.5q-18 0 -46 -5t-67 -22zM362 534q-10 1 -19.5 1h-19.5q-23 0 -44 -1.5t-41 -9.5q-20 -9 -27 -21t-7 -24q0 -9 3.5 -15t7.5 -9q10 -9 41 -9q17 0 35.5 3t35.5 14q15 10 21 21t8 22z" />
    <glyph glyph-name="guillemotleft" unicode="&#xab;" horiz-adv-x="556" 
d="M105 300l184 202h88l-171 -202l90 -202h-88zM307 300l184 202h88l-171 -202l90 -202h-88z" />
    <glyph glyph-name="logicalnot" unicode="&#xac;" 
d="M120 394h450v-298h-88v210h-362v88z" />
    <glyph glyph-name="uni00AD" unicode="&#xad;" horiz-adv-x="460" 
d="M144 350h300l-20 -100h-300z" />
    <glyph glyph-name="registered" unicode="&#xae;" horiz-adv-x="826" 
d="M472 -10q-75 0 -140.5 28.5t-114 78t-77 114.5t-28.5 139q0 75 28.5 140.5t77 114t114 77t140.5 28.5t140 -28.5t114 -77t77 -114t28 -140.5q0 -73 -28.5 -138.5t-77 -114.5t-114 -78t-139.5 -29zM472 56q61 0 114.5 23t93.5 63t63 93.5t23 114.5t-23 115t-63 94
t-93.5 63t-114.5 23q-60 0 -114 -23t-94 -63t-63.5 -94t-23.5 -115t23.5 -114.5t63.5 -93.5t93.5 -63t114.5 -23zM491 302q-7 -1 -14 -1h-15h-50v-150h-73v396h123q81 0 116.5 -32t35.5 -92q0 -76 -59 -105l74 -167h-78zM462 356q42 0 62 17.5t20 49.5q0 31 -20 48.5
t-62 17.5h-50v-133h50z" />
    <glyph glyph-name="macron" unicode="&#xaf;" horiz-adv-x="278" 
d="M130 722h296l-14 -70h-296z" />
    <glyph glyph-name="degree" unicode="&#xb0;" horiz-adv-x="406" 
d="M318 422q-30 0 -56 11t-45.5 30.5t-30.5 45.5t-11 56t11 56t30.5 45.5t45.5 30.5t56 11t56 -11t45.5 -30.5t30.5 -45.5t11 -56t-11 -56t-30.5 -45.5t-45.5 -30.5t-56 -11zM318 486q32 0 55.5 23.5t23.5 55.5t-23.5 55.5t-55.5 23.5t-55.5 -23.5t-23.5 -55.5t23.5 -55.5
t55.5 -23.5z" />
    <glyph glyph-name="plusminus" unicode="&#xb1;" 
d="M120 456h181v147h88v-147h181v-88h-181v-147h-88v147h-181v88zM120 185h450v-88h-450v88z" />
    <glyph glyph-name="twosuperior" unicode="&#xb2;" horiz-adv-x="361" 
d="M104 358q12 8 34 23t48.5 34.5t54 41t51.5 44t40.5 44t20.5 40.5q1 4 1 10q0 12 -6.5 20.5t-16.5 14t-22.5 8t-23.5 2.5q-26 0 -55.5 -7.5t-54.5 -21.5l9 74q63 25 130 25q26 0 49.5 -5t41.5 -16.5t29 -29.5t11 -43q0 -12 -3 -27q-4 -20 -19.5 -44t-38 -48t-48.5 -47
t-51.5 -42.5t-47 -33.5t-34.5 -20l-1 -2h199l-14 -70h-299z" />
    <glyph glyph-name="threesuperior" unicode="&#xb3;" horiz-adv-x="361" 
d="M202 536h46q14 0 31.5 3.5t34 10t29 17.5t15.5 26q1 3 1 7q0 12 -8 19.5t-20 12t-26 6.5t-26 2q-28 0 -53.5 -6.5t-48.5 -15.5l11 72q24 8 58 14t69 6q27 0 51 -5t42.5 -16.5t29.5 -28.5t11 -41v-10.5t-2 -11.5q-4 -21 -16 -37t-28.5 -28t-36 -19.5t-38.5 -10.5l-1 -2
q38 -5 62 -25.5t24 -56.5q0 -11 -3 -23q-8 -38 -29 -61.5t-50.5 -36t-63 -17t-66.5 -4.5q-34 0 -61.5 5t-48.5 11l26 76q6 -8 33 -15t56 -7q14 0 32.5 2t36.5 8t31.5 16.5t16.5 26.5q1 3 1 10q0 15 -8 25.5t-21 17.5t-28.5 10.5t-30.5 3.5h-49z" />
    <glyph glyph-name="acute" unicode="&#xb4;" horiz-adv-x="291" 
d="M309 740h122l-160 -130h-80z" />
    <glyph glyph-name="mu" unicode="&#xb5;" horiz-adv-x="611" 
d="M531 0h-91l16 81h-2q-14 -19 -33.5 -37t-42.5 -30q-24 -13 -52 -19.5t-57 -6.5q-14 0 -28.5 2t-30.5 9q-20 8 -31 24l-50 -247h-94l148 734h94l-53 -264q-4 -20 -8.5 -43t-4.5 -46q0 -27 9 -48q11 -24 30 -34.5t45 -10.5q36 0 70 14t61 46q17 20 35.5 55.5t30.5 94.5
l48 236h94z" />
    <glyph glyph-name="paragraph" unicode="&#xb6;" horiz-adv-x="604" 
d="M307 333q-8 0 -21 1t-28.5 3.5t-32.5 7.5t-32 13q-38 20 -53.5 49.5t-15.5 67.5q0 56 22 99.5t55 69.5q22 18 48.5 29t53.5 17t53 8t49 2h268l-165 -812h-88l150 740h-115l-150 -740h-88z" />
    <glyph glyph-name="periodcentered" unicode="&#xb7;" horiz-adv-x="278" 
d="M156 360h112l-23 -112h-112z" />
    <glyph glyph-name="cedilla" unicode="&#xb8;" horiz-adv-x="286" 
d="M159 9l-13 -40q19 0 32.5 -7.5t21.5 -16.5q5 -7 9.5 -17t4.5 -24q0 -26 -11.5 -51.5t-34.5 -42.5q-20 -15 -40.5 -20t-40.5 -5q-26 0 -43 6t-32 19l34 46q11 -11 23 -14t20 -3q18 0 35 12q12 9 15.5 19t3.5 18q0 17 -12 26q-7 5 -16 6.5t-17 1.5h-13t-13 -2l30 89h57z
" />
    <glyph glyph-name="onesuperior" unicode="&#xb9;" horiz-adv-x="361" 
d="M281 628l-81 -55l-25 46l129 85h81l-86 -422h-88z" />
    <glyph glyph-name="ordmasculine" unicode="&#xba;" horiz-adv-x="404" 
d="M280 388q-45 0 -72.5 14.5t-42.5 32.5q-16 19 -22 40t-6 43q0 16 3.5 34.5t12 37.5t22 38t34.5 36q31 26 64.5 36t71.5 10q32 0 60 -9t48 -29q16 -15 25.5 -36t9.5 -49q0 -38 -17 -76t-46 -66q-32 -31 -70.5 -44t-74.5 -13zM219 516q0 -13 3.5 -28t17.5 -26
q12 -11 26.5 -13.5t24.5 -2.5q32 0 50.5 10.5t29.5 22.5q12 14 23.5 39.5t11.5 60.5q0 10 -1.5 22.5t-11.5 24.5q-8 11 -23.5 18.5t-36.5 7.5q-9 0 -30.5 -4.5t-41.5 -24.5q-15 -15 -28.5 -43.5t-13.5 -63.5z" />
    <glyph glyph-name="guillemotright" unicode="&#xbb;" horiz-adv-x="556" 
d="M559 300l-183 -202h-88l170 202l-89 202h88zM357 300l-183 -202h-88l170 202l-89 202h88z" />
    <glyph glyph-name="onequarter" unicode="&#xbc;" horiz-adv-x="840" 
d="M262 628l-81 -55l-25 46l129 85h81l-86 -422h-88zM738 700h82l-618 -700h-82zM696 154l39 190h-2l-162 -190h125zM682 84h-211l12 61l241 278h116l-56 -269h52l-14 -70h-52l-17 -83h-88z" />
    <glyph glyph-name="onehalf" unicode="&#xbd;" horiz-adv-x="840" 
d="M281 628l-81 -55l-25 46l129 85h81l-86 -422h-88zM738 700h82l-618 -700h-82zM534 77q12 8 34 23t48.5 34.5t54 41t51.5 44t40.5 44t20.5 40.5q1 4 1 10q0 12 -6.5 20.5t-16.5 14t-22.5 8t-23.5 2.5q-26 0 -55.5 -7.5t-54.5 -21.5l9 74q63 25 130 25q26 0 49.5 -5
t41.5 -16.5t29 -29.5t11 -43q0 -12 -3 -27q-4 -20 -19.5 -44t-38 -48t-48.5 -47t-51.5 -42.5t-47 -33.5t-34.5 -20l-1 -2h199l-14 -70h-299z" />
    <glyph glyph-name="threequarters" unicode="&#xbe;" horiz-adv-x="840" 
d="M183 536h46q14 0 31.5 3.5t34 10t29 17.5t15.5 26q1 3 1 7q0 12 -8 19.5t-20 12t-26 6.5t-26 2q-28 0 -53.5 -6.5t-48.5 -15.5l11 72q24 8 58 14t69 6q27 0 51 -5t42.5 -16.5t29.5 -28.5t11 -41v-10.5t-2 -11.5q-4 -21 -16 -37t-28.5 -28t-36 -19.5t-38.5 -10.5l-1 -2
q38 -5 62 -25.5t24 -56.5q0 -11 -3 -23q-8 -38 -29 -61.5t-50.5 -36t-63 -17t-66.5 -4.5q-34 0 -61.5 5t-48.5 11l26 76q6 -8 33 -15t56 -7q14 0 32.5 2t36.5 8t31.5 16.5t16.5 26.5q1 3 1 10q0 15 -8 25.5t-21 17.5t-28.5 10.5t-30.5 3.5h-49zM768 700h82l-618 -700h-82z
M686 154l39 190h-2l-162 -190h125zM672 84h-211l12 61l241 278h116l-56 -269h52l-14 -70h-52l-17 -83h-88z" />
    <glyph glyph-name="questiondown" unicode="&#xbf;" horiz-adv-x="476" 
d="M378 285q-3 -17 -9 -36.5t-20 -40.5t-30.5 -38t-32.5 -33l-13 -13q-15 -15 -29 -27.5t-33 -34.5q-16 -19 -29.5 -43t-13.5 -58q0 -27 8.5 -42t13.5 -20q17 -17 40 -22t40 -5q19 0 60 6t96 37l-11 -92q-44 -18 -89.5 -25.5t-83.5 -7.5q-42 0 -77.5 10t-60.5 31
q-16 14 -31 39.5t-15 66.5q0 28 8.5 56t26.5 54q14 20 33.5 40.5t47.5 46.5l31 30q4 4 12.5 13t17.5 19.5t17.5 22t14.5 21.5q5 9 10.5 22t7.5 26l3 18h94zM408 388h-112l23 112h112z" />
    <glyph glyph-name="Agrave" unicode="&#xc0;" horiz-adv-x="584" 
d="M435 261l-28 309h-2l-154 -309h184zM379 700h110l83 -700h-106l-21 177h-238l-93 -177h-102zM493 750h-96l-97 120h130z" />
    <glyph glyph-name="Aacute" unicode="&#xc1;" horiz-adv-x="584" 
d="M435 261l-28 309h-2l-154 -309h184zM379 700h110l83 -700h-106l-21 177h-238l-93 -177h-102zM636 870l-141 -120h-100l105 120h136z" />
    <glyph glyph-name="Acircumflex" unicode="&#xc2;" horiz-adv-x="584" 
d="M435 261l-28 309h-2l-154 -309h184zM379 700h110l83 -700h-106l-21 177h-238l-93 -177h-102zM544 870l72 -120h-86l-51 70l-85 -70h-96l126 120h120z" />
    <glyph glyph-name="Atilde" unicode="&#xc3;" horiz-adv-x="584" 
d="M435 261l-28 309h-2l-154 -309h184zM379 700h110l83 -700h-106l-21 177h-238l-93 -177h-102zM274 748q11 43 38 73q21 25 42.5 32t37.5 7q15 0 28 -4t23 -9l26 -12q20 -9 34.5 -15t31.5 -6q14 0 24 5t16 13q4 5 8.5 14t6.5 14h46q-5 -16 -14 -35t-18 -31
q-17 -24 -40.5 -35t-44.5 -11q-15 0 -28.5 4t-23.5 9l-26 12q-17 8 -32.5 14.5t-33.5 6.5q-14 0 -22.5 -4t-14.5 -11q-5 -6 -10 -14.5t-8 -16.5h-46z" />
    <glyph glyph-name="Adieresis" unicode="&#xc4;" horiz-adv-x="584" 
d="M435 261l-28 309h-2l-154 -309h184zM379 700h110l83 -700h-106l-21 177h-238l-93 -177h-102zM412 852l-21 -100h-106l21 100h106zM628 852l-21 -100h-106l21 100h106z" />
    <glyph glyph-name="Aring" unicode="&#xc5;" horiz-adv-x="584" 
d="M435 261l-28 309h-2l-154 -309h184zM379 700h110l83 -700h-106l-21 177h-238l-93 -177h-102zM357 807q0 28 13.5 53t33.5 41q17 13 37 20t39 7q40 0 62 -24q9 -10 15 -24.5t6 -33.5q0 -20 -9 -43t-31 -43q-19 -17 -40.5 -25.5t-43.5 -8.5q-23 0 -38.5 7.5t-25.5 19.5
t-14 26.5t-4 27.5zM403 816q0 -17 10 -29q8 -10 18 -12.5t17 -2.5q17 0 28.5 5.5t17.5 11.5q11 10 16.5 23t5.5 26q0 18 -11 30q-13 14 -34 14q-26 0 -45 -17q-10 -8 -16.5 -21.5t-6.5 -27.5z" />
    <glyph glyph-name="AE" unicode="&#xc6;" horiz-adv-x="944" 
d="M566 700h439l-18 -88h-277l-29 -206h246l-18 -88h-241l-32 -230h255l-18 -88h-347l25 176h-297l-141 -176h-111zM615 628h-2l-295 -370h244z" />
    <glyph glyph-name="Ccedilla" unicode="&#xc7;" horiz-adv-x="628" 
d="M692 583q-19 13 -52 26t-84 13q-48 0 -94 -14t-88 -42q-37 -25 -65 -57.5t-46.5 -69.5t-28 -76.5t-9.5 -77.5q0 -35 9 -70t29 -61q9 -12 23.5 -25t37 -24.5t53.5 -19t72 -7.5q23 0 61.5 5.5t88.5 27.5l-13 -96q-48 -17 -85 -21t-60 -4l-8 -23q13 0 26 -4t23 -12
q8 -7 15.5 -20.5t7.5 -34.5q0 -24 -12 -49.5t-38 -45.5q-20 -15 -44 -21t-47 -6q-26 0 -43 9.5t-28 17.5l36 48q12 -11 24 -14.5t20 -3.5q10 0 20.5 3t18.5 10q8 6 13.5 17t5.5 22q0 10 -4 16t-9 10q-7 5 -15 7t-16 2h-15.5t-15.5 -2l26 76q-69 3 -121 32t-84 67
q-20 24 -39.5 67t-19.5 109q0 43 10 92t33.5 98t61 95t91.5 82q63 42 130 59t130 17q57 0 90 -9.5t56 -20.5z" />
    <glyph glyph-name="Egrave" unicode="&#xc8;" horiz-adv-x="554" 
d="M236 700h98h293l-18 -88h-291l-42 -205h265l-17 -88h-265l-47 -231h291l-18 -88h-291h-100zM530 750h-96l-97 120h130z" />
    <glyph glyph-name="Eacute" unicode="&#xc9;" horiz-adv-x="554" 
d="M236 700h98h293l-18 -88h-291l-42 -205h265l-17 -88h-265l-47 -231h291l-18 -88h-291h-100zM569 870l-141 -120h-100l105 120h136z" />
    <glyph glyph-name="Ecircumflex" unicode="&#xca;" horiz-adv-x="554" 
d="M236 700h98h293l-18 -88h-291l-42 -205h265l-17 -88h-265l-47 -231h291l-18 -88h-291h-100zM516 870l72 -120h-86l-51 70l-85 -70h-96l126 120h120z" />
    <glyph glyph-name="Edieresis" unicode="&#xcb;" horiz-adv-x="554" 
d="M236 700h98h293l-18 -88h-291l-42 -205h265l-17 -88h-265l-47 -231h291l-18 -88h-291h-100zM394 852l-21 -100h-106l21 100h106zM610 852l-21 -100h-106l21 100h106z" />
    <glyph glyph-name="Igrave" unicode="&#xcc;" horiz-adv-x="288" 
d="M236 700h100l-142 -700h-100zM398 750h-96l-97 120h130z" />
    <glyph glyph-name="Iacute" unicode="&#xcd;" horiz-adv-x="288" 
d="M236 700h100l-142 -700h-100zM437 870l-141 -120h-100l105 120h136z" />
    <glyph glyph-name="Icircumflex" unicode="&#xce;" horiz-adv-x="288" 
d="M236 700h100l-142 -700h-100zM384 870l72 -120h-86l-51 70l-85 -70h-96l126 120h120z" />
    <glyph glyph-name="Idieresis" unicode="&#xcf;" horiz-adv-x="288" 
d="M236 700h100l-142 -700h-100zM262 852l-21 -100h-106l21 100h106zM478 852l-21 -100h-106l21 100h106z" />
    <glyph glyph-name="Eth" unicode="&#xd0;" horiz-adv-x="740" 
d="M276 407h183l-13 -64h-183l-51 -255h105q129 0 211.5 64t109.5 200q6 31 6 61q0 44 -14.5 80.5t-41.5 63t-66.5 41t-88.5 14.5h-115zM163 343h-68l13 64h68l60 293h97h109q68 0 125 -18t98.5 -52t64.5 -84t23 -113q0 -34 -8 -77q-18 -88 -57 -154.5t-96.5 -111.5
t-131 -67.5t-160.5 -22.5h-109h-97z" />
    <glyph glyph-name="Ntilde" unicode="&#xd1;" horiz-adv-x="734" 
d="M236 700h100h36l194 -564h2l114 564h100l-142 -700h-100h-28l-199 576h-2l-117 -576h-100zM349 748q11 43 38 73q21 25 42.5 32t37.5 7q15 0 28 -4t23 -9l26 -12q20 -9 34.5 -15t31.5 -6q14 0 24 5t16 13q4 5 8.5 14t6.5 14h46q-5 -16 -14 -35t-18 -31q-17 -24 -40.5 -35
t-44.5 -11q-15 0 -28.5 4t-23.5 9l-26 12q-17 8 -32.5 14.5t-33.5 6.5q-14 0 -22.5 -4t-14.5 -11q-5 -6 -10 -14.5t-8 -16.5h-46z" />
    <glyph glyph-name="Ograve" unicode="&#xd2;" horiz-adv-x="780" 
d="M535 710q48 0 84.5 -9.5t64.5 -24.5t47.5 -34t31.5 -38q23 -37 32.5 -86t9.5 -89q0 -42 -9 -86.5t-27 -88.5t-45.5 -84.5t-63.5 -74.5q-52 -48 -119 -76.5t-152 -28.5q-30 0 -61 4.5t-59.5 15.5t-54.5 30t-47 48q-20 29 -35 71.5t-15 101.5q0 44 10 91t29 92t46 86.5
t61 73.5q19 18 45.5 37t60 34.5t75 25t91.5 9.5zM517 622q-44 0 -93 -17.5t-94 -62.5q-50 -50 -78.5 -120.5t-28.5 -145.5q0 -26 5 -62t28 -68q17 -24 53.5 -46t97.5 -22q45 0 93.5 16.5t93.5 63.5q23 24 42.5 55t33.5 66.5t21.5 73.5t7.5 77q0 29 -7 63.5t-30 64.5
q-19 25 -54.5 44.5t-90.5 19.5zM643 750h-96l-97 120h130z" />
    <glyph glyph-name="Oacute" unicode="&#xd3;" horiz-adv-x="780" 
d="M535 710q48 0 84.5 -9.5t64.5 -24.5t47.5 -34t31.5 -38q23 -37 32.5 -86t9.5 -89q0 -42 -9 -86.5t-27 -88.5t-45.5 -84.5t-63.5 -74.5q-52 -48 -119 -76.5t-152 -28.5q-30 0 -61 4.5t-59.5 15.5t-54.5 30t-47 48q-20 29 -35 71.5t-15 101.5q0 44 10 91t29 92t46 86.5
t61 73.5q19 18 45.5 37t60 34.5t75 25t91.5 9.5zM517 622q-44 0 -93 -17.5t-94 -62.5q-50 -50 -78.5 -120.5t-28.5 -145.5q0 -26 5 -62t28 -68q17 -24 53.5 -46t97.5 -22q45 0 93.5 16.5t93.5 63.5q23 24 42.5 55t33.5 66.5t21.5 73.5t7.5 77q0 29 -7 63.5t-30 64.5
q-19 25 -54.5 44.5t-90.5 19.5zM682 870l-141 -120h-100l105 120h136z" />
    <glyph glyph-name="Ocircumflex" unicode="&#xd4;" horiz-adv-x="780" 
d="M535 710q48 0 84.5 -9.5t64.5 -24.5t47.5 -34t31.5 -38q23 -37 32.5 -86t9.5 -89q0 -42 -9 -86.5t-27 -88.5t-45.5 -84.5t-63.5 -74.5q-52 -48 -119 -76.5t-152 -28.5q-30 0 -61 4.5t-59.5 15.5t-54.5 30t-47 48q-20 29 -35 71.5t-15 101.5q0 44 10 91t29 92t46 86.5
t61 73.5q19 18 45.5 37t60 34.5t75 25t91.5 9.5zM517 622q-44 0 -93 -17.5t-94 -62.5q-50 -50 -78.5 -120.5t-28.5 -145.5q0 -26 5 -62t28 -68q17 -24 53.5 -46t97.5 -22q45 0 93.5 16.5t93.5 63.5q23 24 42.5 55t33.5 66.5t21.5 73.5t7.5 77q0 29 -7 63.5t-30 64.5
q-19 25 -54.5 44.5t-90.5 19.5zM629 870l72 -120h-86l-51 70l-85 -70h-96l126 120h120z" />
    <glyph glyph-name="Otilde" unicode="&#xd5;" horiz-adv-x="780" 
d="M535 710q48 0 84.5 -9.5t64.5 -24.5t47.5 -34t31.5 -38q23 -37 32.5 -86t9.5 -89q0 -42 -9 -86.5t-27 -88.5t-45.5 -84.5t-63.5 -74.5q-52 -48 -119 -76.5t-152 -28.5q-30 0 -61 4.5t-59.5 15.5t-54.5 30t-47 48q-20 29 -35 71.5t-15 101.5q0 44 10 91t29 92t46 86.5
t61 73.5q19 18 45.5 37t60 34.5t75 25t91.5 9.5zM517 622q-44 0 -93 -17.5t-94 -62.5q-50 -50 -78.5 -120.5t-28.5 -145.5q0 -26 5 -62t28 -68q17 -24 53.5 -46t97.5 -22q45 0 93.5 16.5t93.5 63.5q23 24 42.5 55t33.5 66.5t21.5 73.5t7.5 77q0 29 -7 63.5t-30 64.5
q-19 25 -54.5 44.5t-90.5 19.5zM372 748q11 43 38 73q21 25 42.5 32t37.5 7q15 0 28 -4t23 -9l26 -12q20 -9 34.5 -15t31.5 -6q14 0 24 5t16 13q4 5 8.5 14t6.5 14h46q-5 -16 -14 -35t-18 -31q-17 -24 -40.5 -35t-44.5 -11q-15 0 -28.5 4t-23.5 9l-26 12q-17 8 -32.5 14.5
t-33.5 6.5q-14 0 -22.5 -4t-14.5 -11q-5 -6 -10 -14.5t-8 -16.5h-46z" />
    <glyph glyph-name="Odieresis" unicode="&#xd6;" horiz-adv-x="780" 
d="M535 710q48 0 84.5 -9.5t64.5 -24.5t47.5 -34t31.5 -38q23 -37 32.5 -86t9.5 -89q0 -42 -9 -86.5t-27 -88.5t-45.5 -84.5t-63.5 -74.5q-52 -48 -119 -76.5t-152 -28.5q-30 0 -61 4.5t-59.5 15.5t-54.5 30t-47 48q-20 29 -35 71.5t-15 101.5q0 44 10 91t29 92t46 86.5
t61 73.5q19 18 45.5 37t60 34.5t75 25t91.5 9.5zM517 622q-44 0 -93 -17.5t-94 -62.5q-50 -50 -78.5 -120.5t-28.5 -145.5q0 -26 5 -62t28 -68q17 -24 53.5 -46t97.5 -22q45 0 93.5 16.5t93.5 63.5q23 24 42.5 55t33.5 66.5t21.5 73.5t7.5 77q0 29 -7 63.5t-30 64.5
q-19 25 -54.5 44.5t-90.5 19.5zM507 852l-21 -100h-106l21 100h106zM723 852l-21 -100h-106l21 100h106z" />
    <glyph glyph-name="multiply" unicode="&#xd7;" 
d="M120 513l62 62l163 -164l163 164l62 -62l-164 -163l164 -163l-62 -62l-163 164l-163 -164l-62 62l163 163z" />
    <glyph glyph-name="Oslash" unicode="&#xd8;" horiz-adv-x="780" 
d="M653 574q-21 23 -52.5 36.5t-76.5 13.5h-4h-2q-57 0 -104.5 -23t-83.5 -61t-60 -87t-35 -102q-4 -20 -6 -39t-2 -38q0 -31 6 -59.5t19 -52.5zM172 81q-53 67 -53 173q0 23 2.5 47t7.5 50q16 78 52 144t89 114t120.5 75.5t147.5 27.5q60 0 107.5 -16.5t82.5 -45.5l67 69
l30 -28l-68 -71q27 -35 40.5 -79.5t13.5 -96.5q0 -46 -10 -93q-16 -80 -52 -146t-88.5 -114t-120.5 -74.5t-148 -26.5q-121 0 -191 61l-68 -70l-33 26zM277 128q22 -23 55 -36.5t78 -13.5q60 0 108.5 23t84 61.5t58.5 87.5t34 101q8 40 8 74q0 65 -26 114z" />
    <glyph glyph-name="Ugrave" unicode="&#xd9;" horiz-adv-x="725" 
d="M694 290q-18 -90 -52 -143.5t-67 -81.5q-38 -33 -92 -54t-121 -21q-38 0 -67 6.5t-51 17.5t-38 25t-27 28q-26 33 -31.5 66t-5.5 62q0 24 2.5 47.5t7.5 47.5l83 410h100l-81 -397q-5 -26 -8.5 -50t-3.5 -47q0 -10 1 -22t4.5 -25t10.5 -26t20 -24q20 -17 49.5 -24t52.5 -7
q40 0 77 13.5t69 48.5q34 37 48 79.5t22 83.5l81 397h100zM599 750h-96l-97 120h130z" />
    <glyph glyph-name="Uacute" unicode="&#xda;" horiz-adv-x="725" 
d="M694 290q-18 -90 -52 -143.5t-67 -81.5q-38 -33 -92 -54t-121 -21q-38 0 -67 6.5t-51 17.5t-38 25t-27 28q-26 33 -31.5 66t-5.5 62q0 24 2.5 47.5t7.5 47.5l83 410h100l-81 -397q-5 -26 -8.5 -50t-3.5 -47q0 -10 1 -22t4.5 -25t10.5 -26t20 -24q20 -17 49.5 -24t52.5 -7
q40 0 77 13.5t69 48.5q34 37 48 79.5t22 83.5l81 397h100zM654 870l-141 -120h-100l105 120h136z" />
    <glyph glyph-name="Ucircumflex" unicode="&#xdb;" horiz-adv-x="725" 
d="M694 290q-18 -90 -52 -143.5t-67 -81.5q-38 -33 -92 -54t-121 -21q-38 0 -67 6.5t-51 17.5t-38 25t-27 28q-26 33 -31.5 66t-5.5 62q0 24 2.5 47.5t7.5 47.5l83 410h100l-81 -397q-5 -26 -8.5 -50t-3.5 -47q0 -10 1 -22t4.5 -25t10.5 -26t20 -24q20 -17 49.5 -24t52.5 -7
q40 0 77 13.5t69 48.5q34 37 48 79.5t22 83.5l81 397h100zM601 870l72 -120h-86l-51 70l-85 -70h-96l126 120h120z" />
    <glyph glyph-name="Udieresis" unicode="&#xdc;" horiz-adv-x="725" 
d="M694 290q-18 -90 -52 -143.5t-67 -81.5q-38 -33 -92 -54t-121 -21q-38 0 -67 6.5t-51 17.5t-38 25t-27 28q-26 33 -31.5 66t-5.5 62q0 24 2.5 47.5t7.5 47.5l83 410h100l-81 -397q-5 -26 -8.5 -50t-3.5 -47q0 -10 1 -22t4.5 -25t10.5 -26t20 -24q20 -17 49.5 -24t52.5 -7
q40 0 77 13.5t69 48.5q34 37 48 79.5t22 83.5l81 397h100zM479 852l-21 -100h-106l21 100h106zM695 852l-21 -100h-106l21 100h106z" />
    <glyph glyph-name="Yacute" unicode="&#xdd;" horiz-adv-x="667" 
d="M343 293l-190 407h117l144 -314l267 314h117l-355 -407l-59 -293h-100zM625 870l-141 -120h-100l105 120h136z" />
    <glyph glyph-name="Thorn" unicode="&#xde;" horiz-adv-x="570" 
d="M236 700h100l-21 -104h83q47 0 88 -8t71.5 -26t48 -48t17.5 -74q0 -25 -6 -53q-12 -58 -40.5 -98t-68 -65t-86.5 -36t-94 -11h-98l-36 -177h-100zM248 265h99q23 0 49 6.5t49.5 20.5t41.5 37.5t25 58.5q1 6 1.5 11.5t0.5 10.5q0 27 -12.5 45.5t-32 30t-43 17t-44.5 5.5
h-85z" />
    <glyph glyph-name="germandbls" unicode="&#xdf;" horiz-adv-x="611" 
d="M80 0l96 474q14 68 37.5 121.5t60 90.5t87 56.5t118.5 19.5q32 0 62 -9.5t53.5 -28.5t38 -47.5t14.5 -67.5q0 -10 -1 -21t-3 -22q-26 -127 -150 -163l-1 -2q29 -3 51 -16t36.5 -32t21.5 -43t7 -51q0 -23 -4 -42q-9 -46 -32 -86.5t-57.5 -71t-79 -48t-97.5 -17.5
q-25 0 -47.5 3t-46.5 11l16 79q34 -17 75 -17q28 0 55.5 9.5t50 27.5t39 44.5t23.5 61.5q5 25 5 41q0 31 -12 51t-34 31.5t-52 16t-66 4.5l16 76q35 0 65 6t53.5 21t39.5 40t24 63q3 15 3 30q0 38 -22 65.5t-68 27.5q-42 0 -73.5 -18t-53 -46.5t-35 -63.5t-20.5 -69
l-99 -489h-94z" />
    <glyph glyph-name="agrave" unicode="&#xe0;" horiz-adv-x="615" 
d="M638 510l-103 -510h-90l15 72h-2q-17 -19 -33 -30t-37 -22q-28 -14 -53.5 -21t-57.5 -7q-48 0 -88.5 16t-66.5 59q-19 32 -23 66t-4 53q0 77 30 148t85 120q42 38 82.5 51t82.5 13q34 0 57.5 -5t48.5 -22q16 -11 27 -22.5t20 -28.5h2l14 70h94zM497 299q0 23 -3 43.5
t-13 39.5q-17 32 -42 46t-59 14q-35 0 -62 -13t-50 -36q-32 -32 -52.5 -83t-20.5 -111q0 -18 3.5 -41.5t17.5 -43.5q11 -16 31.5 -31t57.5 -15q28 0 58.5 11.5t58.5 39.5q31 30 53 76.5t22 103.5zM466 610h-76l-104 130h120z" />
    <glyph glyph-name="aacute" unicode="&#xe1;" horiz-adv-x="615" 
d="M638 510l-103 -510h-90l15 72h-2q-17 -19 -33 -30t-37 -22q-28 -14 -53.5 -21t-57.5 -7q-48 0 -88.5 16t-66.5 59q-19 32 -23 66t-4 53q0 77 30 148t85 120q42 38 82.5 51t82.5 13q34 0 57.5 -5t48.5 -22q16 -11 27 -22.5t20 -28.5h2l14 70h94zM497 299q0 23 -3 43.5
t-13 39.5q-17 32 -42 46t-59 14q-35 0 -62 -13t-50 -36q-32 -32 -52.5 -83t-20.5 -111q0 -18 3.5 -41.5t17.5 -43.5q11 -16 31.5 -31t57.5 -15q28 0 58.5 11.5t58.5 39.5q31 30 53 76.5t22 103.5zM506 740h122l-160 -130h-80z" />
    <glyph glyph-name="acircumflex" unicode="&#xe2;" horiz-adv-x="615" 
d="M638 510l-103 -510h-90l15 72h-2q-17 -19 -33 -30t-37 -22q-28 -14 -53.5 -21t-57.5 -7q-48 0 -88.5 16t-66.5 59q-19 32 -23 66t-4 53q0 77 30 148t85 120q42 38 82.5 51t82.5 13q34 0 57.5 -5t48.5 -22q16 -11 27 -22.5t20 -28.5h2l14 70h94zM497 299q0 23 -3 43.5
t-13 39.5q-17 32 -42 46t-59 14q-35 0 -62 -13t-50 -36q-32 -32 -52.5 -83t-20.5 -111q0 -18 3.5 -41.5t17.5 -43.5q11 -16 31.5 -31t57.5 -15q28 0 58.5 11.5t58.5 39.5q31 30 53 76.5t22 103.5zM423 740h92l71 -130h-74l-48 84l-92 -84h-76z" />
    <glyph glyph-name="atilde" unicode="&#xe3;" horiz-adv-x="615" 
d="M638 510l-103 -510h-90l15 72h-2q-17 -19 -33 -30t-37 -22q-28 -14 -53.5 -21t-57.5 -7q-48 0 -88.5 16t-66.5 59q-19 32 -23 66t-4 53q0 77 30 148t85 120q42 38 82.5 51t82.5 13q34 0 57.5 -5t48.5 -22q16 -11 27 -22.5t20 -28.5h2l14 70h94zM497 299q0 23 -3 43.5
t-13 39.5q-17 32 -42 46t-59 14q-35 0 -62 -13t-50 -36q-32 -32 -52.5 -83t-20.5 -111q0 -18 3.5 -41.5t17.5 -43.5q11 -16 31.5 -31t57.5 -15q28 0 58.5 11.5t58.5 39.5q31 30 53 76.5t22 103.5zM262 586q5 19 15 39t21 34q17 21 37.5 30t39.5 9q14 0 26 -4t22 -9l25 -12
q16 -8 30 -14.5t32 -6.5q16 0 24.5 6t13.5 12q4 5 8.5 14t6.5 14h44q-5 -16 -14 -34.5t-18 -31.5q-20 -28 -42 -37t-39 -9q-15 0 -27 4t-22 9l-25 12q-16 8 -30 14.5t-32 6.5q-14 0 -21.5 -4t-13.5 -11q-5 -6 -10 -14.5t-8 -16.5h-43z" />
    <glyph glyph-name="adieresis" unicode="&#xe4;" horiz-adv-x="615" 
d="M638 510l-103 -510h-90l15 72h-2q-17 -19 -33 -30t-37 -22q-28 -14 -53.5 -21t-57.5 -7q-48 0 -88.5 16t-66.5 59q-19 32 -23 66t-4 53q0 77 30 148t85 120q42 38 82.5 51t82.5 13q34 0 57.5 -5t48.5 -22q16 -11 27 -22.5t20 -28.5h2l14 70h94zM497 299q0 23 -3 43.5
t-13 39.5q-17 32 -42 46t-59 14q-35 0 -62 -13t-50 -36q-32 -32 -52.5 -83t-20.5 -111q0 -18 3.5 -41.5t17.5 -43.5q11 -16 31.5 -31t57.5 -15q28 0 58.5 11.5t58.5 39.5q31 30 53 76.5t22 103.5zM321 720h94l-20 -100h-94zM485 720h94l-20 -100h-94z" />
    <glyph glyph-name="aring" unicode="&#xe5;" horiz-adv-x="615" 
d="M638 510l-103 -510h-90l15 72h-2q-17 -19 -33 -30t-37 -22q-28 -14 -53.5 -21t-57.5 -7q-48 0 -88.5 16t-66.5 59q-19 32 -23 66t-4 53q0 77 30 148t85 120q42 38 82.5 51t82.5 13q34 0 57.5 -5t48.5 -22q16 -11 27 -22.5t20 -28.5h2l14 70h94zM497 299q0 23 -3 43.5
t-13 39.5q-17 32 -42 46t-59 14q-35 0 -62 -13t-50 -36q-32 -32 -52.5 -83t-20.5 -111q0 -18 3.5 -41.5t17.5 -43.5q11 -16 31.5 -31t57.5 -15q28 0 58.5 11.5t58.5 39.5q31 30 53 76.5t22 103.5zM335 646q0 23 11.5 47t32.5 42q1 1 8 6t17.5 11t24.5 10.5t30 4.5
q17 0 33.5 -6t28.5 -19q11 -11 16.5 -26t5.5 -32t-7.5 -39t-30.5 -44q-20 -20 -43 -29t-44 -9q-37 0 -60 23q-8 8 -15.5 22.5t-7.5 37.5zM376 647q0 -6 2 -14t10 -16q7 -7 17 -10.5t21 -3.5q16 0 30 6.5t24 16.5q9 9 15.5 23t6.5 28t-4 22t-7 11q-14 17 -40 17
q-12 0 -25.5 -5t-24.5 -15q-11 -11 -18 -27t-7 -33z" />
    <glyph glyph-name="ae" unicode="&#xe6;" horiz-adv-x="895" 
d="M236 -8q-40 0 -71 10.5t-52.5 28.5t-32.5 42t-11 51q0 38 15.5 71.5t49.5 58t87.5 38.5t129.5 14q38 0 62 -0.5t43 -2.5q2 10 3 22t1 20q0 44 -30 71t-91 27q-37 0 -78 -15t-75 -36l11 78q38 20 83.5 34t95.5 14q25 0 49.5 -5t45.5 -15.5t37.5 -27t24.5 -39.5
q42 42 97 64.5t119 22.5q80 0 120.5 -37t40.5 -96q0 -37 -17 -66t-59 -50t-113 -32.5t-179 -13.5q-1 -8 -1 -16.5v-16.5q0 -54 35 -88t98 -34q46 0 92 16.5t79 36.5l-19 -96q-17 -7 -34 -13t-36.5 -10.5t-43 -7t-53.5 -2.5q-82 0 -133.5 30t-72.5 86q-14 -30 -38 -51.5
t-54 -36t-62.5 -21.5t-62.5 -7zM255 67q33 0 63.5 13.5t55.5 36t42.5 52t24.5 60.5v1q-11 1 -33 1h-55q-54 0 -89.5 -7t-56.5 -20t-29.5 -31t-8.5 -39q0 -28 22 -47.5t64 -19.5zM734 442q-58 0 -106 -37t-71 -106q78 1 128.5 7t79 17t39.5 26.5t11 35.5q0 24 -19.5 40.5
t-61.5 16.5z" />
    <glyph glyph-name="ccedilla" unicode="&#xe7;" horiz-adv-x="446" 
d="M490 420q-21 10 -47.5 16t-49.5 6q-33 0 -69 -14.5t-65 -41.5q-32 -30 -53.5 -76.5t-21.5 -96.5q0 -20 3.5 -47t22.5 -50q17 -20 46 -34t67 -14q28 0 55.5 7.5t51.5 21.5l-10 -84q-25 -10 -49 -14.5t-56 -6.5l-7 -23q14 0 26.5 -4.5t20.5 -12.5q7 -6 14 -18.5t7 -32.5
q0 -25 -12.5 -49.5t-35.5 -41.5q-34 -25 -87 -25q-23 0 -38 7t-29 18l34 46q11 -11 22 -14t19 -3q22 0 37 12q12 10 15.5 20.5t3.5 18.5q0 6 -1.5 13t-10.5 12q-6 4 -14 5.5t-16 1.5h-14.5t-14.5 -2l25 75q-51 7 -85.5 31t-51.5 48q-18 25 -27.5 57.5t-9.5 67.5q0 75 36 145
t99 115q40 29 87.5 44t96.5 15q22 0 50 -4t60 -16z" />
    <glyph glyph-name="egrave" unicode="&#xe8;" 
d="M314 -8q-109 0 -164 52.5t-55 145.5q0 72 24 132.5t65.5 104t98 67.5t121.5 24q80 0 120.5 -37.5t40.5 -100.5q0 -39 -17 -71t-59 -56t-113 -38.5t-180 -16.5v-8q0 -54 35 -88t98 -34q46 0 92 16.5t79 36.5l-19 -96q-17 -7 -34 -13t-36.5 -10.5t-43 -7t-53.5 -2.5z
M389 442q-63 0 -114 -43.5t-70 -124.5q84 1 135.5 9.5t80.5 22.5t39 33t10 41q0 28 -19.5 45t-61.5 17zM442 610h-76l-104 130h120z" />
    <glyph glyph-name="eacute" unicode="&#xe9;" 
d="M314 -8q-109 0 -164 52.5t-55 145.5q0 72 24 132.5t65.5 104t98 67.5t121.5 24q80 0 120.5 -37.5t40.5 -100.5q0 -39 -17 -71t-59 -56t-113 -38.5t-180 -16.5v-8q0 -54 35 -88t98 -34q46 0 92 16.5t79 36.5l-19 -96q-17 -7 -34 -13t-36.5 -10.5t-43 -7t-53.5 -2.5z
M389 442q-63 0 -114 -43.5t-70 -124.5q84 1 135.5 9.5t80.5 22.5t39 33t10 41q0 28 -19.5 45t-61.5 17zM482 740h122l-160 -130h-80z" />
    <glyph glyph-name="ecircumflex" unicode="&#xea;" 
d="M314 -8q-109 0 -164 52.5t-55 145.5q0 72 24 132.5t65.5 104t98 67.5t121.5 24q80 0 120.5 -37.5t40.5 -100.5q0 -39 -17 -71t-59 -56t-113 -38.5t-180 -16.5v-8q0 -54 35 -88t98 -34q46 0 92 16.5t79 36.5l-19 -96q-17 -7 -34 -13t-36.5 -10.5t-43 -7t-53.5 -2.5z
M389 442q-63 0 -114 -43.5t-70 -124.5q84 1 135.5 9.5t80.5 22.5t39 33t10 41q0 28 -19.5 45t-61.5 17zM399 740h92l71 -130h-74l-48 84l-92 -84h-76z" />
    <glyph glyph-name="edieresis" unicode="&#xeb;" 
d="M314 -8q-109 0 -164 52.5t-55 145.5q0 72 24 132.5t65.5 104t98 67.5t121.5 24q80 0 120.5 -37.5t40.5 -100.5q0 -39 -17 -71t-59 -56t-113 -38.5t-180 -16.5v-8q0 -54 35 -88t98 -34q46 0 92 16.5t79 36.5l-19 -96q-17 -7 -34 -13t-36.5 -10.5t-43 -7t-53.5 -2.5z
M389 442q-63 0 -114 -43.5t-70 -124.5q84 1 135.5 9.5t80.5 22.5t39 33t10 41q0 28 -19.5 45t-61.5 17zM297 720h94l-20 -100h-94zM461 720h94l-20 -100h-94z" />
    <glyph glyph-name="igrave" unicode="&#xec;" horiz-adv-x="254" 
d="M183 510h94l-103 -510h-94zM323 610h-76l-104 130h120z" />
    <glyph glyph-name="iacute" unicode="&#xed;" horiz-adv-x="254" 
d="M183 510h94l-103 -510h-94zM298 740h122l-160 -130h-80z" />
    <glyph glyph-name="icircumflex" unicode="&#xee;" horiz-adv-x="254" 
d="M183 510h94l-103 -510h-94zM228 740h92l71 -130h-74l-48 84l-92 -84h-76z" />
    <glyph glyph-name="idieresis" unicode="&#xef;" horiz-adv-x="254" 
d="M183 510h94l-103 -510h-94zM138 720h94l-20 -100h-94zM302 720h94l-20 -100h-94z" />
    <glyph glyph-name="eth" unicode="&#xf0;" horiz-adv-x="622" 
d="M197 205q0 -18 4 -40.5t18 -43.5q6 -8 15 -17.5t22 -17.5t31 -13.5t41 -5.5q41 0 74.5 18t56.5 42q15 16 27.5 37.5t21.5 46t14.5 49.5t5.5 47q0 17 -5.5 39.5t-17.5 42.5q-14 22 -39 38t-64 16q-42 0 -71 -15.5t-48 -32.5q-26 -23 -42.5 -48t-26 -50t-13.5 -48.5
t-4 -43.5zM355 645q-39 27 -68.5 39.5t-45.5 17.5l83 53q48 -20 75.5 -35t48.5 -30l135 65l35 -53l-115 -55q38 -33 62 -68.5t40 -77.5q16 -41 21.5 -78t5.5 -78q0 -68 -25 -140t-87 -130q-39 -37 -91 -60t-119 -23q-118 0 -173 77q-17 23 -28 55t-11 73q0 19 3.5 48t16 63
t37 70.5t66.5 70.5q12 10 30 22t42 22.5t55 17.5t69 7q17 0 35.5 -3.5t44.5 -17.5h2q-11 21 -31 47t-57 59l-143 -68l-35 52z" />
    <glyph glyph-name="ntilde" unicode="&#xf1;" horiz-adv-x="604" 
d="M183 510h94l-14 -73h2q23 26 44.5 39.5t33.5 19.5q47 22 102 22t86.5 -16.5t46.5 -39.5q13 -20 18 -41.5t5 -43.5q0 -20 -3 -38.5t-6 -35.5l-61 -303h-94l53 264q5 24 8 46t3 42q0 36 -13 56q-6 9 -23.5 21.5t-52.5 12.5q-23 0 -51.5 -9t-57.5 -35q-38 -35 -55.5 -77.5
t-25.5 -84.5l-48 -236h-94zM259 586q5 19 15 39t21 34q17 21 37.5 30t39.5 9q14 0 26 -4t22 -9l25 -12q16 -8 30 -14.5t32 -6.5q16 0 24.5 6t13.5 12q4 5 8.5 14t6.5 14h44q-5 -16 -14 -34.5t-18 -31.5q-20 -28 -42 -37t-39 -9q-15 0 -27 4t-22 9l-25 12q-16 8 -30 14.5
t-32 6.5q-14 0 -21.5 -4t-13.5 -11q-5 -6 -10 -14.5t-8 -16.5h-43z" />
    <glyph glyph-name="ograve" unicode="&#xf2;" horiz-adv-x="618" 
d="M414 518q36 0 64.5 -7t50 -18.5t37 -26t25.5 -28.5q14 -20 24.5 -50t10.5 -75q0 -69 -30.5 -133t-78.5 -108q-40 -36 -93 -58t-117 -22q-36 0 -64.5 7t-50 18.5t-36.5 26t-25 28.5q-36 51 -36 118q0 37 9.5 73.5t24.5 68.5t35 59t41 47q39 36 92 58t117 22zM399 442
q-38 0 -73 -17t-60 -43q-34 -35 -52 -82.5t-18 -91.5q0 -11 2.5 -37t17.5 -49q14 -22 41.5 -38t65.5 -16q32 0 67 14.5t65 45.5q28 29 49 74.5t21 96.5q0 19 -4 44t-20 48q-22 32 -51 41.5t-51 9.5zM504 610h-76l-104 130h120z" />
    <glyph glyph-name="oacute" unicode="&#xf3;" horiz-adv-x="618" 
d="M414 518q36 0 64.5 -7t50 -18.5t37 -26t25.5 -28.5q14 -20 24.5 -50t10.5 -75q0 -69 -30.5 -133t-78.5 -108q-40 -36 -93 -58t-117 -22q-36 0 -64.5 7t-50 18.5t-36.5 26t-25 28.5q-36 51 -36 118q0 37 9.5 73.5t24.5 68.5t35 59t41 47q39 36 92 58t117 22zM399 442
q-38 0 -73 -17t-60 -43q-34 -35 -52 -82.5t-18 -91.5q0 -11 2.5 -37t17.5 -49q14 -22 41.5 -38t65.5 -16q32 0 67 14.5t65 45.5q28 29 49 74.5t21 96.5q0 19 -4 44t-20 48q-22 32 -51 41.5t-51 9.5zM479 740h122l-160 -130h-80z" />
    <glyph glyph-name="ocircumflex" unicode="&#xf4;" horiz-adv-x="618" 
d="M414 518q36 0 64.5 -7t50 -18.5t37 -26t25.5 -28.5q14 -20 24.5 -50t10.5 -75q0 -69 -30.5 -133t-78.5 -108q-40 -36 -93 -58t-117 -22q-36 0 -64.5 7t-50 18.5t-36.5 26t-25 28.5q-36 51 -36 118q0 37 9.5 73.5t24.5 68.5t35 59t41 47q39 36 92 58t117 22zM399 442
q-38 0 -73 -17t-60 -43q-34 -35 -52 -82.5t-18 -91.5q0 -11 2.5 -37t17.5 -49q14 -22 41.5 -38t65.5 -16q32 0 67 14.5t65 45.5q28 29 49 74.5t21 96.5q0 19 -4 44t-20 48q-22 32 -51 41.5t-51 9.5zM409 740h92l71 -130h-74l-48 84l-92 -84h-76z" />
    <glyph glyph-name="otilde" unicode="&#xf5;" horiz-adv-x="618" 
d="M414 518q36 0 64.5 -7t50 -18.5t37 -26t25.5 -28.5q14 -20 24.5 -50t10.5 -75q0 -69 -30.5 -133t-78.5 -108q-40 -36 -93 -58t-117 -22q-36 0 -64.5 7t-50 18.5t-36.5 26t-25 28.5q-36 51 -36 118q0 37 9.5 73.5t24.5 68.5t35 59t41 47q39 36 92 58t117 22zM399 442
q-38 0 -73 -17t-60 -43q-34 -35 -52 -82.5t-18 -91.5q0 -11 2.5 -37t17.5 -49q14 -22 41.5 -38t65.5 -16q32 0 67 14.5t65 45.5q28 29 49 74.5t21 96.5q0 19 -4 44t-20 48q-22 32 -51 41.5t-51 9.5zM266 586q5 19 15 39t21 34q17 21 37.5 30t39.5 9q14 0 26 -4t22 -9l25 -12
q16 -8 30 -14.5t32 -6.5q16 0 24.5 6t13.5 12q4 5 8.5 14t6.5 14h44q-5 -16 -14 -34.5t-18 -31.5q-20 -28 -42 -37t-39 -9q-15 0 -27 4t-22 9l-25 12q-16 8 -30 14.5t-32 6.5q-14 0 -21.5 -4t-13.5 -11q-5 -6 -10 -14.5t-8 -16.5h-43z" />
    <glyph glyph-name="odieresis" unicode="&#xf6;" horiz-adv-x="618" 
d="M414 518q36 0 64.5 -7t50 -18.5t37 -26t25.5 -28.5q14 -20 24.5 -50t10.5 -75q0 -69 -30.5 -133t-78.5 -108q-40 -36 -93 -58t-117 -22q-36 0 -64.5 7t-50 18.5t-36.5 26t-25 28.5q-36 51 -36 118q0 37 9.5 73.5t24.5 68.5t35 59t41 47q39 36 92 58t117 22zM399 442
q-38 0 -73 -17t-60 -43q-34 -35 -52 -82.5t-18 -91.5q0 -11 2.5 -37t17.5 -49q14 -22 41.5 -38t65.5 -16q32 0 67 14.5t65 45.5q28 29 49 74.5t21 96.5q0 19 -4 44t-20 48q-22 32 -51 41.5t-51 9.5zM319 720h94l-20 -100h-94zM483 720h94l-20 -100h-94z" />
    <glyph glyph-name="divide" unicode="&#xf7;" 
d="M120 394h450v-88h-450v88zM269 538q0 31 23 54t54 23q15 0 28.5 -6.5t24 -17t17 -24.5t6.5 -29t-6 -28.5t-16.5 -24t-24 -17t-28.5 -6.5q-16 0 -30.5 6.5t-25 17t-16.5 24t-6 28.5zM269 162q0 32 23 54t54 22q15 0 28.5 -6t24 -16.5t17 -24.5t6.5 -29t-6 -28.5
t-16.5 -24.5t-24 -17.5t-28.5 -6.5q-16 0 -30 6.5t-24.5 17t-17 24.5t-6.5 29z" />
    <glyph glyph-name="oslash" unicode="&#xf8;" horiz-adv-x="618" 
d="M490 406q-31 37 -89 37q-38 0 -71 -16t-59 -42t-43.5 -60t-24.5 -70q-2 -12 -3.5 -24t-1.5 -24q0 -19 3 -36.5t11 -33.5zM230 105q16 -17 39.5 -27.5t55.5 -10.5q41 0 74.5 17t58.5 44t41 60.5t23 66.5q2 11 3 22t1 22q0 45 -16 77zM140 68q-43 54 -43 130q0 27 6 57
q12 57 40 105.5t69.5 83.5t93 54.5t110.5 19.5q90 0 144 -45l66 64l25 -25l-66 -64q43 -52 43 -131q0 -29 -6 -62q-11 -54 -40 -102t-70.5 -83.5t-93.5 -56.5t-109 -21q-46 0 -82.5 13t-62.5 36l-70 -68l-25 25z" />
    <glyph glyph-name="ugrave" unicode="&#xf9;" horiz-adv-x="611" 
d="M531 0h-94l15 73h-2q-15 -17 -34 -32t-45 -27q-20 -10 -44.5 -16t-57.5 -6q-15 0 -33 2t-36 8t-34.5 17t-28.5 29t-18 42.5t-6 44.5q0 17 3.5 39.5t5.5 32.5l61 303h94l-53 -264q-4 -18 -7.5 -42.5t-3.5 -46.5q0 -14 3 -31t16 -31q8 -8 24.5 -17.5t46.5 -9.5
q32 0 60 12.5t49 31.5q18 16 31.5 36.5t23 41.5t15.5 42.5t10 41.5l48 236h94zM500 610h-76l-104 130h120z" />
    <glyph glyph-name="uacute" unicode="&#xfa;" horiz-adv-x="611" 
d="M531 0h-94l15 73h-2q-15 -17 -34 -32t-45 -27q-20 -10 -44.5 -16t-57.5 -6q-15 0 -33 2t-36 8t-34.5 17t-28.5 29t-18 42.5t-6 44.5q0 17 3.5 39.5t5.5 32.5l61 303h94l-53 -264q-4 -18 -7.5 -42.5t-3.5 -46.5q0 -14 3 -31t16 -31q8 -8 24.5 -17.5t46.5 -9.5
q32 0 60 12.5t49 31.5q18 16 31.5 36.5t23 41.5t15.5 42.5t10 41.5l48 236h94zM475 740h122l-160 -130h-80z" />
    <glyph glyph-name="ucircumflex" unicode="&#xfb;" horiz-adv-x="611" 
d="M531 0h-94l15 73h-2q-15 -17 -34 -32t-45 -27q-20 -10 -44.5 -16t-57.5 -6q-15 0 -33 2t-36 8t-34.5 17t-28.5 29t-18 42.5t-6 44.5q0 17 3.5 39.5t5.5 32.5l61 303h94l-53 -264q-4 -18 -7.5 -42.5t-3.5 -46.5q0 -14 3 -31t16 -31q8 -8 24.5 -17.5t46.5 -9.5
q32 0 60 12.5t49 31.5q18 16 31.5 36.5t23 41.5t15.5 42.5t10 41.5l48 236h94zM405 740h92l71 -130h-74l-48 84l-92 -84h-76z" />
    <glyph glyph-name="udieresis" unicode="&#xfc;" horiz-adv-x="611" 
d="M531 0h-94l15 73h-2q-15 -17 -34 -32t-45 -27q-20 -10 -44.5 -16t-57.5 -6q-15 0 -33 2t-36 8t-34.5 17t-28.5 29t-18 42.5t-6 44.5q0 17 3.5 39.5t5.5 32.5l61 303h94l-53 -264q-4 -18 -7.5 -42.5t-3.5 -46.5q0 -14 3 -31t16 -31q8 -8 24.5 -17.5t46.5 -9.5
q32 0 60 12.5t49 31.5q18 16 31.5 36.5t23 41.5t15.5 42.5t10 41.5l48 236h94zM315 720h94l-20 -100h-94zM479 720h94l-20 -100h-94z" />
    <glyph glyph-name="yacute" unicode="&#xfd;" horiz-adv-x="488" 
d="M14 -140q1 0 11.5 -4t27.5 -4t37 6.5t37 20.5q19 18 33.5 41t22.5 38l11 22l-4 38l-80 492h103l55 -419h2l222 419h95l-298 -529q-21 -37 -37 -63.5t-28.5 -44.5t-22 -29t-17.5 -18q-26 -23 -60 -36.5t-74 -13.5q-20 0 -32.5 2t-20.5 4l-5 1zM414 740h122l-160 -130h-80z
" />
    <glyph glyph-name="thorn" unicode="&#xfe;" horiz-adv-x="611" 
d="M230 743h94l-61 -306h2q29 35 73.5 58t111.5 23q45 0 78.5 -14.5t55 -39t32 -58t10.5 -72.5q0 -32 -8 -70q-10 -52 -32.5 -101t-57 -87t-80.5 -61t-104 -23q-68 0 -103.5 23t-49.5 58h-2l-56 -276h-94zM517 257q3 15 5 30.5t2 30.5q0 25 -6 48t-19 40t-33.5 27t-50.5 10
q-38 0 -70 -16.5t-56 -43t-40.5 -60.5t-23.5 -69q-2 -12 -3.5 -24.5t-1.5 -24.5q0 -26 6.5 -51t20.5 -44.5t36.5 -31t54.5 -11.5q38 0 68.5 18.5t53.5 47t37.5 61.5t19.5 63z" />
    <glyph glyph-name="ydieresis" unicode="&#xff;" horiz-adv-x="488" 
d="M14 -140q1 0 11.5 -4t27.5 -4t37 6.5t37 20.5q19 18 33.5 41t22.5 38l11 22l-4 38l-80 492h103l55 -419h2l222 419h95l-298 -529q-21 -37 -37 -63.5t-28.5 -44.5t-22 -29t-17.5 -18q-26 -23 -60 -36.5t-74 -13.5q-20 0 -32.5 2t-20.5 4l-5 1zM254 720h94l-20 -100h-94z
M418 720h94l-20 -100h-94z" />
    <glyph glyph-name="Amacron" unicode="&#x100;" horiz-adv-x="584" 
d="M435 261l-28 309h-2l-154 -309h184zM379 700h110l83 -700h-106l-21 177h-238l-93 -177h-102zM593 834l-12 -60h-262l12 60h262z" />
    <glyph glyph-name="amacron" unicode="&#x101;" horiz-adv-x="615" 
d="M638 510l-103 -510h-90l15 72h-2q-17 -19 -33 -30t-37 -22q-28 -14 -53.5 -21t-57.5 -7q-48 0 -88.5 16t-66.5 59q-19 32 -23 66t-4 53q0 77 30 148t85 120q42 38 82.5 51t82.5 13q34 0 57.5 -5t48.5 -22q16 -11 27 -22.5t20 -28.5h2l14 70h94zM497 299q0 23 -3 43.5
t-13 39.5q-17 32 -42 46t-59 14q-35 0 -62 -13t-50 -36q-32 -32 -52.5 -83t-20.5 -111q0 -18 3.5 -41.5t17.5 -43.5q11 -16 31.5 -31t57.5 -15q28 0 58.5 11.5t58.5 39.5q31 30 53 76.5t22 103.5zM303 722h296l-14 -70h-296z" />
    <glyph glyph-name="Abreve" unicode="&#x102;" horiz-adv-x="584" 
d="M435 261l-28 309h-2l-154 -309h184zM379 700h110l83 -700h-106l-21 177h-238l-93 -177h-102zM358 870q1 -5 3.5 -14.5t11.5 -18.5t25.5 -16t45.5 -7q27 0 45.5 5.5t31.5 14t20.5 18t12.5 18.5h70q-26 -55 -75 -90.5t-118 -35.5q-65 0 -103 34.5t-40 91.5h70z" />
    <glyph glyph-name="abreve" unicode="&#x103;" horiz-adv-x="615" 
d="M638 510l-103 -510h-90l15 72h-2q-17 -19 -33 -30t-37 -22q-28 -14 -53.5 -21t-57.5 -7q-48 0 -88.5 16t-66.5 59q-19 32 -23 66t-4 53q0 77 30 148t85 120q42 38 82.5 51t82.5 13q34 0 57.5 -5t48.5 -22q16 -11 27 -22.5t20 -28.5h2l14 70h94zM497 299q0 23 -3 43.5
t-13 39.5q-17 32 -42 46t-59 14q-35 0 -62 -13t-50 -36q-32 -32 -52.5 -83t-20.5 -111q0 -18 3.5 -41.5t17.5 -43.5q11 -16 31.5 -31t57.5 -15q28 0 58.5 11.5t58.5 39.5q31 30 53 76.5t22 103.5zM351 740q-2 -33 19 -52.5t59 -19.5q7 0 22 1.5t31.5 8.5t32 21.5t24.5 40.5
h60q-19 -66 -68 -104t-113 -38q-33 0 -58.5 11t-42 30t-23.5 45t-3 56h60z" />
    <glyph glyph-name="Aogonek" unicode="&#x104;" horiz-adv-x="584" 
d="M466 0l-21 177h-238l-93 -177h-102l367 700h110l83 -700q-17 -11 -29.5 -19.5t-22 -16t-18 -16t-17.5 -19.5q-12 -14 -23 -33t-11 -40q0 -8 2 -15t8 -14q12 -13 34 -13q11 0 30 3t40 17l10 -43q-24 -14 -52.5 -23t-65.5 -9q-16 0 -35.5 4t-35.5 20q-8 8 -15 21.5t-7 32.5
t9.5 44.5t37.5 54.5q37 39 92 64h-37zM435 261l-28 309h-2l-154 -309h184z" />
    <glyph glyph-name="aogonek" unicode="&#x105;" horiz-adv-x="615" 
d="M445 0l15 72h-2q-17 -19 -33 -30t-37 -22q-28 -14 -53.5 -21t-57.5 -7q-48 0 -88.5 16t-66.5 59q-19 32 -23 66t-4 53q0 77 30 148t85 120q42 38 82.5 51t82.5 13q34 0 57.5 -5t48.5 -22q16 -11 27 -22.5t20 -28.5h2l14 70h94l-103 -510q-36 -23 -55 -39.5t-30 -29.5
q-10 -13 -21 -32.5t-11 -39.5q0 -17 9 -27q12 -13 31 -13q39 0 70 20l10 -42q-31 -18 -59.5 -24.5t-50.5 -6.5q-51 0 -74 23q-6 6 -13 18.5t-7 33.5q0 18 5 33.5t12 28t14.5 21.5t12.5 14q14 14 36 31t54 31h-23zM497 299q0 23 -3 43.5t-13 39.5q-17 32 -42 46t-59 14
q-35 0 -62 -13t-50 -36q-32 -32 -52.5 -83t-20.5 -111q0 -18 3.5 -41.5t17.5 -43.5q11 -16 31.5 -31t57.5 -15q28 0 58.5 11.5t58.5 39.5q31 30 53 76.5t22 103.5z" />
    <glyph glyph-name="Cacute" unicode="&#x106;" horiz-adv-x="628" 
d="M692 583q-19 13 -52 26t-84 13q-48 0 -94 -14t-88 -42q-37 -25 -65 -57.5t-46.5 -69.5t-28 -76.5t-9.5 -77.5q0 -35 9 -70t29 -61q9 -12 23.5 -25t37 -24.5t53.5 -19t72 -7.5q23 0 61.5 5.5t88.5 27.5l-13 -96q-50 -17 -87.5 -21t-69.5 -4q-27 0 -59.5 3t-66 13t-66 30
t-60.5 55q-25 31 -42 74.5t-17 101.5q0 43 10 92t33.5 98t61 95t91.5 82q63 42 130 59t130 17q57 0 90 -9.5t56 -20.5zM701 870l-141 -120h-100l105 120h136z" />
    <glyph glyph-name="cacute" unicode="&#x107;" horiz-adv-x="446" 
d="M491 420q-21 10 -47.5 16t-49.5 6q-28 0 -57.5 -10t-55.5 -29q-47 -35 -71 -91t-24 -113q0 -20 5 -40.5t20 -40.5q17 -23 46 -36.5t67 -13.5q28 0 55.5 7.5t51.5 21.5l-10 -84q-17 -7 -47.5 -14t-75.5 -7q-37 0 -65.5 8t-49.5 20t-36 26.5t-24 27.5q-14 20 -26 50.5
t-12 75.5q0 33 7.5 68t24 69t42.5 65t62 57q40 29 87 44t97 15q22 0 50 -4t60 -16zM426 740h122l-160 -130h-80z" />
    <glyph glyph-name="Ccircumflex" unicode="&#x108;" horiz-adv-x="628" 
d="M692 583q-19 13 -52 26t-84 13q-48 0 -94 -14t-88 -42q-37 -25 -65 -57.5t-46.5 -69.5t-28 -76.5t-9.5 -77.5q0 -35 9 -70t29 -61q9 -12 23.5 -25t37 -24.5t53.5 -19t72 -7.5q23 0 61.5 5.5t88.5 27.5l-13 -96q-50 -17 -87.5 -21t-69.5 -4q-27 0 -59.5 3t-66 13t-66 30
t-60.5 55q-25 31 -42 74.5t-17 101.5q0 43 10 92t33.5 98t61 95t91.5 82q63 42 130 59t130 17q57 0 90 -9.5t56 -20.5zM638 870l72 -120h-86l-51 70l-85 -70h-96l126 120h120z" />
    <glyph glyph-name="ccircumflex" unicode="&#x109;" horiz-adv-x="446" 
d="M491 420q-21 10 -47.5 16t-49.5 6q-28 0 -57.5 -10t-55.5 -29q-47 -35 -71 -91t-24 -113q0 -20 5 -40.5t20 -40.5q17 -23 46 -36.5t67 -13.5q28 0 55.5 7.5t51.5 21.5l-10 -84q-17 -7 -47.5 -14t-75.5 -7q-37 0 -65.5 8t-49.5 20t-36 26.5t-24 27.5q-14 20 -26 50.5
t-12 75.5q0 33 7.5 68t24 69t42.5 65t62 57q40 29 87 44t97 15q22 0 50 -4t60 -16zM355 740h92l71 -130h-74l-48 84l-92 -84h-76z" />
    <glyph glyph-name="Cdotaccent" unicode="&#x10a;" horiz-adv-x="628" 
d="M692 583q-19 13 -52 26t-84 13q-48 0 -94 -14t-88 -42q-37 -25 -65 -57.5t-46.5 -69.5t-28 -76.5t-9.5 -77.5q0 -35 9 -70t29 -61q9 -12 23.5 -25t37 -24.5t53.5 -19t72 -7.5q23 0 61.5 5.5t88.5 27.5l-13 -96q-50 -17 -87.5 -21t-69.5 -4q-27 0 -59.5 3t-66 13t-66 30
t-60.5 55q-25 31 -42 74.5t-17 101.5q0 43 10 92t33.5 98t61 95t91.5 82q63 42 130 59t130 17q57 0 90 -9.5t56 -20.5zM615 752h-112l21 102h112z" />
    <glyph glyph-name="cdotaccent" unicode="&#x10b;" horiz-adv-x="446" 
d="M491 420q-21 10 -47.5 16t-49.5 6q-28 0 -57.5 -10t-55.5 -29q-47 -35 -71 -91t-24 -113q0 -20 5 -40.5t20 -40.5q17 -23 46 -36.5t67 -13.5q28 0 55.5 7.5t51.5 21.5l-10 -84q-17 -7 -47.5 -14t-75.5 -7q-37 0 -65.5 8t-49.5 20t-36 26.5t-24 27.5q-14 20 -26 50.5
t-12 75.5q0 33 7.5 68t24 69t42.5 65t62 57q40 29 87 44t97 15q22 0 50 -4t60 -16zM457 614h-106l21 106h106z" />
    <glyph glyph-name="Ccaron" unicode="&#x10c;" horiz-adv-x="628" 
d="M692 583q-19 13 -52 26t-84 13q-48 0 -94 -14t-88 -42q-37 -25 -65 -57.5t-46.5 -69.5t-28 -76.5t-9.5 -77.5q0 -35 9 -70t29 -61q9 -12 23.5 -25t37 -24.5t53.5 -19t72 -7.5q23 0 61.5 5.5t88.5 27.5l-13 -96q-50 -17 -87.5 -21t-69.5 -4q-27 0 -59.5 3t-66 13t-66 30
t-60.5 55q-25 31 -42 74.5t-17 101.5q0 43 10 92t33.5 98t61 95t91.5 82q63 42 130 59t130 17q57 0 90 -9.5t56 -20.5zM512 750l-72 120h86l51 -70l85 70h96l-126 -120h-120z" />
    <glyph glyph-name="ccaron" unicode="&#x10d;" horiz-adv-x="446" 
d="M491 420q-21 10 -47.5 16t-49.5 6q-28 0 -57.5 -10t-55.5 -29q-47 -35 -71 -91t-24 -113q0 -20 5 -40.5t20 -40.5q17 -23 46 -36.5t67 -13.5q28 0 55.5 7.5t51.5 21.5l-10 -84q-17 -7 -47.5 -14t-75.5 -7q-37 0 -65.5 8t-49.5 20t-36 26.5t-24 27.5q-14 20 -26 50.5
t-12 75.5q0 33 7.5 68t24 69t42.5 65t62 57q40 29 87 44t97 15q22 0 50 -4t60 -16zM439 610h-92l-71 130h74l48 -84l92 84h76z" />
    <glyph glyph-name="Dcaron" unicode="&#x10e;" horiz-adv-x="738" 
d="M236 700h100h106q17 0 45.5 -2t62.5 -11t69 -27t65 -49q38 -41 52.5 -90t14.5 -99q0 -86 -31.5 -162t-86.5 -133q-38 -39 -78.5 -63.5t-83 -39t-86 -19.5t-85.5 -5h-106h-100zM212 88h105q27 0 56.5 3t60 12.5t60.5 26.5t57 44q43 44 67.5 108.5t24.5 129.5
q0 13 -1.5 30.5t-6 35.5t-13 36.5t-23.5 34.5q-19 22 -59 42.5t-105 20.5h-117zM409 750l-72 120h86l51 -70l85 70h96l-126 -120h-120z" />
    <glyph glyph-name="dcaron" unicode="&#x10f;" horiz-adv-x="695" 
d="M685 762l-154 -762h-90l15 72h-2q-17 -19 -33 -30t-37 -22q-28 -14 -53.5 -21t-57.5 -7q-48 0 -88.5 16t-66.5 59q-19 32 -23 66t-4 53q0 77 30 148t85 120q42 38 82.5 51t82.5 13q34 0 57.5 -5t48.5 -22q16 -11 27 -22.5t20 -28.5h2l65 322h94zM493 299q0 23 -3 43.5
t-13 39.5q-17 32 -42 46t-59 14q-35 0 -62 -13t-50 -36q-32 -32 -52.5 -83t-20.5 -111q0 -18 3.5 -41.5t17.5 -43.5q11 -16 31.5 -31t57.5 -15q28 0 58.5 11.5t58.5 39.5q31 30 53 76.5t22 103.5zM775 762h100l-104 -168h-70z" />
    <glyph glyph-name="Dcroat" unicode="&#x110;" horiz-adv-x="740" 
d="M276 407h183l-13 -64h-183l-51 -255h105q129 0 211.5 64t109.5 200q6 31 6 61q0 44 -14.5 80.5t-41.5 63t-66.5 41t-88.5 14.5h-115zM163 343h-68l13 64h68l60 293h97h109q68 0 125 -18t98.5 -52t64.5 -84t23 -113q0 -34 -8 -77q-18 -88 -57 -154.5t-96.5 -111.5
t-131 -67.5t-160.5 -22.5h-109h-97z" />
    <glyph glyph-name="dcroat" unicode="&#x111;" horiz-adv-x="612" 
d="M686 762l-21 -107h75l-11 -54h-75l-122 -601h-90l15 72h-2q-17 -17 -33.5 -28.5t-36.5 -22.5q-28 -14 -56 -21.5t-63 -7.5q-59 0 -93.5 22t-52.5 53q-16 26 -22.5 59t-6.5 64q0 75 30.5 145t85.5 119q42 38 82.5 51t82.5 13q32 0 57 -5t49 -22q14 -10 26 -22t21 -29h2
l33 161h-203l11 54h203l21 107h94zM494 308q0 30 -7 52t-18 38q-32 44 -92 44q-29 0 -57.5 -11t-54.5 -38q-18 -18 -31.5 -42t-22.5 -50t-14 -52t-5 -48q0 -8 1 -19.5t3.5 -23.5t6.5 -23t9 -20q4 -7 10.5 -15t17.5 -15t26 -12t36 -5q28 0 58.5 11.5t58.5 39.5
q36 35 55.5 86.5t19.5 102.5z" />
    <glyph glyph-name="Emacron" unicode="&#x112;" horiz-adv-x="554" 
d="M236 700h98h293l-18 -88h-291l-42 -205h265l-17 -88h-265l-47 -231h291l-18 -88h-291h-100zM577 834l-12 -60h-262l12 60h262z" />
    <glyph glyph-name="emacron" unicode="&#x113;" 
d="M314 -8q-109 0 -164 52.5t-55 145.5q0 72 24 132.5t65.5 104t98 67.5t121.5 24q80 0 120.5 -37.5t40.5 -100.5q0 -39 -17 -71t-59 -56t-113 -38.5t-180 -16.5v-8q0 -54 35 -88t98 -34q46 0 92 16.5t79 36.5l-19 -96q-17 -7 -34 -13t-36.5 -10.5t-43 -7t-53.5 -2.5z
M389 442q-63 0 -114 -43.5t-70 -124.5q84 1 135.5 9.5t80.5 22.5t39 33t10 41q0 28 -19.5 45t-61.5 17zM279 722h296l-14 -70h-296z" />
    <glyph glyph-name="Edotaccent" unicode="&#x116;" horiz-adv-x="554" 
d="M236 700h98h293l-18 -88h-291l-42 -205h265l-17 -88h-265l-47 -231h291l-18 -88h-291h-100zM501 752h-112l21 102h112z" />
    <glyph glyph-name="edotaccent" unicode="&#x117;" 
d="M314 -8q-109 0 -164 52.5t-55 145.5q0 72 24 132.5t65.5 104t98 67.5t121.5 24q80 0 120.5 -37.5t40.5 -100.5q0 -39 -17 -71t-59 -56t-113 -38.5t-180 -16.5v-8q0 -54 35 -88t98 -34q46 0 92 16.5t79 36.5l-19 -96q-17 -7 -34 -13t-36.5 -10.5t-43 -7t-53.5 -2.5z
M389 442q-63 0 -114 -43.5t-70 -124.5q84 1 135.5 9.5t80.5 22.5t39 33t10 41q0 28 -19.5 45t-61.5 17zM459 614h-106l21 106h106z" />
    <glyph glyph-name="Eogonek" unicode="&#x118;" horiz-adv-x="554" 
d="M236 700h99h292l-18 -88h-291l-42 -205h265l-17 -88h-265l-47 -231h291l-18 -88h-71q-17 -11 -29.5 -19.5t-22 -16t-18 -16t-17.5 -19.5q-11 -13 -23 -33.5t-12 -43.5q0 -15 11 -26q7 -7 15.5 -9.5t16.5 -2.5q41 0 72 20l10 -43q-24 -15 -51 -23.5t-60 -8.5
q-17 0 -38.5 3.5t-39.5 20.5q-21 20 -21 53q0 19 5 35t12.5 28.5t15.5 22t13 14.5q14 15 37 32.5t55 31.5h-151h-100z" />
    <glyph glyph-name="eogonek" unicode="&#x119;" 
d="M314 -8q-109 0 -164 52.5t-55 145.5q0 72 24 132.5t65.5 104t98 67.5t121.5 24q80 0 120.5 -37.5t40.5 -100.5q0 -39 -17 -71t-59 -56t-113 -38.5t-180 -16.5v-8q0 -54 35 -88t98 -34q46 0 92 16.5t79 36.5l-19 -96q-17 -7 -34 -13t-36.5 -10.5t-43 -7t-53.5 -2.5z
M389 442q-63 0 -114 -43.5t-70 -124.5q84 1 135.5 9.5t80.5 22.5t39 33t10 41q0 28 -19.5 45t-61.5 17zM402 0q-36 -23 -55 -39.5t-30 -29.5q-10 -13 -21 -32.5t-11 -39.5q0 -17 9 -27q12 -13 31 -13q39 0 70 20l10 -42q-31 -18 -59.5 -24.5t-50.5 -6.5q-51 0 -74 23
q-6 6 -13 18.5t-7 33.5q0 18 5 33.5t12 28t14.5 21.5t12.5 14q14 14 36 31t54 31h67z" />
    <glyph glyph-name="Ecaron" unicode="&#x11a;" horiz-adv-x="554" 
d="M236 700h98h293l-18 -88h-291l-42 -205h265l-17 -88h-265l-47 -231h291l-18 -88h-291h-100zM367 750l-72 120h86l51 -70l85 70h96l-126 -120h-120z" />
    <glyph glyph-name="ecaron" unicode="&#x11b;" 
d="M314 -8q-109 0 -164 52.5t-55 145.5q0 72 24 132.5t65.5 104t98 67.5t121.5 24q80 0 120.5 -37.5t40.5 -100.5q0 -39 -17 -71t-59 -56t-113 -38.5t-180 -16.5v-8q0 -54 35 -88t98 -34q46 0 92 16.5t79 36.5l-19 -96q-17 -7 -34 -13t-36.5 -10.5t-43 -7t-53.5 -2.5z
M389 442q-63 0 -114 -43.5t-70 -124.5q84 1 135.5 9.5t80.5 22.5t39 33t10 41q0 28 -19.5 45t-61.5 17zM450 610h-92l-71 130h74l48 -84l92 84h76z" />
    <glyph glyph-name="Gcircumflex" unicode="&#x11c;" horiz-adv-x="731" 
d="M744 575q-17 12 -33 20t-39 14q-11 3 -38 8t-65 5q-60 0 -108 -16t-87 -44q-35 -25 -61.5 -58t-45 -69.5t-28 -75t-9.5 -74.5q0 -46 12.5 -80t34.5 -59q28 -32 73.5 -50t105.5 -18q7 0 19 0.5t25.5 2t26 2.5t19.5 3l15 3l43 212h-147l17 82h146h101l-74 -362
q-48 -15 -101.5 -23t-107.5 -8q-24 0 -55.5 3t-65.5 12t-67 27t-61 48q-38 42 -51.5 90t-13.5 92q0 48 11 97.5t33 96t55.5 88.5t79.5 76q55 41 123 65.5t153 24.5q27 0 59 -3t62 -9q23 -5 40.5 -10.5t32.5 -12.5zM664 870l72 -120h-86l-51 70l-85 -70h-96l126 120h120z" />
    <glyph glyph-name="gcircumflex" unicode="&#x11d;" horiz-adv-x="611" 
d="M535 22q-4 -21 -11 -44.5t-18.5 -48t-28.5 -47t-41 -42.5q-36 -29 -88.5 -46.5t-124.5 -17.5q-21 0 -67 5.5t-109 29.5l28 87q60 -32 104 -39t64 -7q45 0 79 13.5t60 40.5q20 22 36.5 52t24.5 71l10 50h-2q-23 -24 -45 -37.5t-40 -21.5q-34 -14 -62.5 -17t-39.5 -3
q-43 0 -77 14.5t-60 46.5q-22 27 -30 57t-8 65q0 66 25.5 133.5t81.5 122.5q47 46 95.5 62.5t94.5 16.5q23 0 49 -6t46 -18q19 -11 30.5 -26.5t18.5 -33.5h2l15 76h87zM303 76q25 0 59 10.5t66 45.5q15 16 27 36.5t20.5 43.5t13.5 47.5t5 47.5q0 22 -4 45t-13 39
q-4 7 -11 16t-18.5 16.5t-28.5 13t-39 5.5q-37 0 -67 -16t-52 -39q-16 -17 -28.5 -39t-21.5 -47t-14 -50.5t-5 -49.5q0 -20 5 -41.5t14 -36.5q9 -14 30 -30.5t62 -16.5zM389 740h92l71 -130h-74l-48 84l-92 -84h-76z" />
    <glyph glyph-name="Gbreve" unicode="&#x11e;" horiz-adv-x="731" 
d="M744 575q-17 12 -33 20t-39 14q-11 3 -38 8t-65 5q-60 0 -108 -16t-87 -44q-35 -25 -61.5 -58t-45 -69.5t-28 -75t-9.5 -74.5q0 -46 12.5 -80t34.5 -59q28 -32 73.5 -50t105.5 -18q7 0 19 0.5t25.5 2t26 2.5t19.5 3l15 3l43 212h-147l17 82h146h101l-74 -362
q-48 -15 -101.5 -23t-107.5 -8q-24 0 -55.5 3t-65.5 12t-67 27t-61 48q-38 42 -51.5 90t-13.5 92q0 48 11 97.5t33 96t55.5 88.5t79.5 76q55 41 123 65.5t153 24.5q27 0 59 -3t62 -9q23 -5 40.5 -10.5t32.5 -12.5zM513 870q1 -5 3.5 -14.5t11.5 -18.5t25.5 -16t45.5 -7
q27 0 45.5 5.5t31.5 14t20.5 18t12.5 18.5h70q-26 -55 -75 -90.5t-118 -35.5q-65 0 -103 34.5t-40 91.5h70z" />
    <glyph glyph-name="gbreve" unicode="&#x11f;" horiz-adv-x="611" 
d="M535 22q-4 -21 -11 -44.5t-18.5 -48t-28.5 -47t-41 -42.5q-36 -29 -88.5 -46.5t-124.5 -17.5q-21 0 -67 5.5t-109 29.5l28 87q60 -32 104 -39t64 -7q45 0 79 13.5t60 40.5q20 22 36.5 52t24.5 71l10 50h-2q-23 -24 -45 -37.5t-40 -21.5q-34 -14 -62.5 -17t-39.5 -3
q-43 0 -77 14.5t-60 46.5q-22 27 -30 57t-8 65q0 66 25.5 133.5t81.5 122.5q47 46 95.5 62.5t94.5 16.5q23 0 49 -6t46 -18q19 -11 30.5 -26.5t18.5 -33.5h2l15 76h87zM303 76q25 0 59 10.5t66 45.5q15 16 27 36.5t20.5 43.5t13.5 47.5t5 47.5q0 22 -4 45t-13 39
q-4 7 -11 16t-18.5 16.5t-28.5 13t-39 5.5q-37 0 -67 -16t-52 -39q-16 -17 -28.5 -39t-21.5 -47t-14 -50.5t-5 -49.5q0 -20 5 -41.5t14 -36.5q9 -14 30 -30.5t62 -16.5zM341 740q-2 -33 19 -52.5t59 -19.5q7 0 22 1.5t31.5 8.5t32 21.5t24.5 40.5h60q-19 -66 -68 -104
t-113 -38q-33 0 -58.5 11t-42 30t-23.5 45t-3 56h60z" />
    <glyph glyph-name="Gdotaccent" unicode="&#x120;" horiz-adv-x="731" 
d="M744 575q-17 12 -33 20t-39 14q-11 3 -38 8t-65 5q-60 0 -108 -16t-87 -44q-35 -25 -61.5 -58t-45 -69.5t-28 -75t-9.5 -74.5q0 -46 12.5 -80t34.5 -59q28 -32 73.5 -50t105.5 -18q7 0 19 0.5t25.5 2t26 2.5t19.5 3l15 3l43 212h-147l17 82h146h101l-74 -362
q-48 -15 -101.5 -23t-107.5 -8q-24 0 -55.5 3t-65.5 12t-67 27t-61 48q-38 42 -51.5 90t-13.5 92q0 48 11 97.5t33 96t55.5 88.5t79.5 76q55 41 123 65.5t153 24.5q27 0 59 -3t62 -9q23 -5 40.5 -10.5t32.5 -12.5zM665 752h-112l21 102h112z" />
    <glyph glyph-name="gdotaccent" unicode="&#x121;" horiz-adv-x="611" 
d="M535 22q-4 -21 -11 -44.5t-18.5 -48t-28.5 -47t-41 -42.5q-36 -29 -88.5 -46.5t-124.5 -17.5q-21 0 -67 5.5t-109 29.5l28 87q60 -32 104 -39t64 -7q45 0 79 13.5t60 40.5q20 22 36.5 52t24.5 71l10 50h-2q-23 -24 -45 -37.5t-40 -21.5q-34 -14 -62.5 -17t-39.5 -3
q-43 0 -77 14.5t-60 46.5q-22 27 -30 57t-8 65q0 66 25.5 133.5t81.5 122.5q47 46 95.5 62.5t94.5 16.5q23 0 49 -6t46 -18q19 -11 30.5 -26.5t18.5 -33.5h2l15 76h87zM303 76q25 0 59 10.5t66 45.5q15 16 27 36.5t20.5 43.5t13.5 47.5t5 47.5q0 22 -4 45t-13 39
q-4 7 -11 16t-18.5 16.5t-28.5 13t-39 5.5q-37 0 -67 -16t-52 -39q-16 -17 -28.5 -39t-21.5 -47t-14 -50.5t-5 -49.5q0 -20 5 -41.5t14 -36.5q9 -14 30 -30.5t62 -16.5zM457 614h-106l21 106h106z" />
    <glyph glyph-name="Gcommaaccent" unicode="&#x122;" horiz-adv-x="731" 
d="M744 575q-17 12 -33 20t-39 14q-11 3 -38 8t-65 5q-60 0 -108 -16t-87 -44q-35 -25 -61.5 -58t-45 -69.5t-28 -75t-9.5 -74.5q0 -46 12.5 -80t34.5 -59q28 -32 73.5 -50t105.5 -18q7 0 19 0.5t25.5 2t26 2.5t19.5 3l15 3l43 212h-147l17 82h146h101l-74 -362
q-48 -15 -101.5 -23t-107.5 -8q-24 0 -55.5 3t-65.5 12t-67 27t-61 48q-38 42 -51.5 90t-13.5 92q0 48 11 97.5t33 96t55.5 88.5t79.5 76q55 41 123 65.5t153 24.5q27 0 59 -3t62 -9q23 -5 40.5 -10.5t32.5 -12.5zM382 -50h110l-110 -198h-80z" />
    <glyph glyph-name="gcommaaccent" unicode="&#x123;" horiz-adv-x="611" 
d="M535 22q-4 -21 -11 -44.5t-18.5 -48t-28.5 -47t-41 -42.5q-36 -29 -88.5 -46.5t-124.5 -17.5q-21 0 -67 5.5t-109 29.5l28 87q60 -32 104 -39t64 -7q45 0 79 13.5t60 40.5q20 22 36.5 52t24.5 71l10 50h-2q-23 -24 -45 -37.5t-40 -21.5q-34 -14 -62.5 -17t-39.5 -3
q-43 0 -77 14.5t-60 46.5q-22 27 -30 57t-8 65q0 66 25.5 133.5t81.5 122.5q47 46 95.5 62.5t94.5 16.5q23 0 49 -6t46 -18q19 -11 30.5 -26.5t18.5 -33.5h2l15 76h87zM303 76q25 0 59 10.5t66 45.5q15 16 27 36.5t20.5 43.5t13.5 47.5t5 47.5q0 22 -4 45t-13 39
q-4 7 -11 16t-18.5 16.5t-28.5 13t-39 5.5q-37 0 -67 -16t-52 -39q-16 -17 -28.5 -39t-21.5 -47t-14 -50.5t-5 -49.5q0 -20 5 -41.5t14 -36.5q9 -14 30 -30.5t62 -16.5zM437.01 593.994h-99.9873l104.987 169.979h69.9912z" />
    <glyph glyph-name="Hcircumflex" unicode="&#x124;" horiz-adv-x="722" 
d="M236 700h100l-60 -293h334l60 293h100l-142 -700h-100l65 319h-334l-65 -319h-100zM600 870l72 -120h-86l-51 70l-85 -70h-96l126 120h120z" />
    <glyph glyph-name="hcircumflex" unicode="&#x125;" horiz-adv-x="610" 
d="M234 762h94l-65 -325h2q23 26 44.5 39.5t33.5 19.5q23 11 49 16.5t58 5.5q37 0 71 -11.5t57 -46.5q10 -14 16.5 -33.5t6.5 -46.5q0 -11 -1.5 -29.5t-7.5 -47.5l-61 -303h-94l53 264q5 24 8 41.5t3 43.5q0 17 -3.5 34.5t-17.5 33.5q-15 17 -34 21t-34 4q-23 0 -51.5 -9
t-57.5 -35q-38 -34 -55.5 -77t-25.5 -85l-48 -236h-94zM269 930h92l71 -130h-74l-48 84l-92 -84h-76z" />
    <glyph glyph-name="Hbar" unicode="&#x126;" horiz-adv-x="722" 
d="M197 510h-72l13 64h72l25 126h100l-25 -126h334l25 126h100l-25 -126h72l-13 -64h-72l-103 -510h-100l64 319h-334l-64 -319h-100zM610 407l21 103h-334l-21 -103h334z" />
    <glyph glyph-name="hbar" unicode="&#x127;" horiz-adv-x="610" 
d="M531 0h-94l53 264q5 28 8 50t3 39q0 36 -13 55q-6 9 -23.5 21.5t-52.5 12.5q-23 0 -51.5 -9t-57.5 -35q-38 -35 -55.5 -77.5t-25.5 -84.5l-48 -236h-94l122 601h-75l11 54h75l21 107h94l-21 -107h203l-11 -54h-203l-33 -164h2q23 26 44.5 39.5t33.5 19.5q47 22 102 22
t86.5 -16.5t46.5 -39.5q13 -20 18 -41.5t5 -43.5q0 -20 -3 -38.5t-6 -35.5z" />
    <glyph glyph-name="Imacron" unicode="&#x12a;" horiz-adv-x="288" 
d="M236 700h100l-142 -700h-100zM445 834l-12 -60h-262l12 60h262z" />
    <glyph glyph-name="imacron" unicode="&#x12b;" horiz-adv-x="254" 
d="M183 510h94l-103 -510h-94zM119 722h296l-14 -70h-296z" />
    <glyph glyph-name="Iogonek" unicode="&#x12e;" horiz-adv-x="289" 
d="M237 700h100l-142 -700q-17 -11 -29.5 -19.5t-22 -16t-18 -16t-17.5 -19.5q-12 -14 -23 -33t-11 -42q0 -11 2.5 -16.5t7.5 -10.5q8 -8 15.5 -10.5t16.5 -2.5q8 0 28 2.5t44 17.5l10 -43q-24 -15 -51 -23.5t-60 -8.5q-16 0 -38.5 3.5t-39.5 20.5q-8 7 -14.5 20t-6.5 34
q0 18 5 34t12.5 28.5t15.5 22t13 14.5q14 15 37 32.5t55 31.5h-31z" />
    <glyph glyph-name="iogonek" unicode="&#x12f;" horiz-adv-x="254" 
d="M183 510h94l-103 -510q-37 -23 -55.5 -39.5t-29.5 -29.5q-7 -8 -19 -28t-12 -43q0 -12 3 -19t5 -9q6 -8 14.5 -10.5t16.5 -2.5q39 0 70 20l10 -42q-27 -17 -54 -24t-53 -7q-54 0 -77 23q-8 8 -14 21.5t-6 35.5q0 32 15 55t29 37q17 18 39.5 34t50.5 28h-27zM304 614h-106
l21 106h106z" />
    <glyph glyph-name="Idotaccent" unicode="&#x130;" horiz-adv-x="288" 
d="M236 700h100l-142 -700h-100zM351 752h-112l21 102h112z" />
    <glyph glyph-name="dotlessi" unicode="&#x131;" horiz-adv-x="254" 
d="M183 510h94l-103 -510h-94z" />
    <glyph glyph-name="Jcircumflex" unicode="&#x134;" horiz-adv-x="389" 
d="M39 88q23 -7 37.5 -8.5t23.5 -1.5q35 0 57.5 9t36.5 23q21 20 32 49.5t16 55.5l98 485h100l-105 -517q-3 -14 -8 -32t-15 -38.5t-25 -40.5t-37 -37q-59 -45 -153 -45q-32 0 -50 4.5t-26 7.5zM468 870l72 -120h-86l-51 70l-85 -70h-96l126 120h120z" />
    <glyph glyph-name="jcircumflex" unicode="&#x135;" horiz-adv-x="278" 
d="M-41 -137q16 -3 28 -3h10q18 1 31 8t23 19q2 3 14.5 23t20.5 58l109 542h94l-107 -528q-4 -19 -9 -40t-12.5 -41.5t-18 -39.5t-25.5 -35q-32 -32 -67 -40t-67 -8q-15 0 -25 1t-18 3zM239 740h92l71 -130h-74l-48 84l-92 -84h-76z" />
    <glyph glyph-name="Kcommaaccent" unicode="&#x136;" horiz-adv-x="667" 
d="M236 700h100l-63 -308l361 308h133l-395 -331l279 -369h-146l-242 343l-69 -343h-100zM282 -50h110l-110 -198h-80z" />
    <glyph glyph-name="kcommaaccent" unicode="&#x137;" horiz-adv-x="546" 
d="M234 762h94l-93 -459l250 207h122l-279 -221l205 -289h-127l-179 262l-53 -262h-94zM250 -50h100l-105 -170h-70z" />
    <glyph glyph-name="Lacute" unicode="&#x139;" horiz-adv-x="506" 
d="M236 700h100l-124 -612h292l-18 -88h-293h-99zM493 870l-141 -120h-100l105 120h136z" />
    <glyph glyph-name="lacute" unicode="&#x13a;" horiz-adv-x="256" 
d="M234 762h94l-154 -762h-94zM329 930h122l-160 -130h-80z" />
    <glyph glyph-name="Lcommaaccent" unicode="&#x13b;" horiz-adv-x="506" 
d="M236 700h100l-124 -612h292l-18 -88h-293h-99zM227 -50h110l-110 -198h-80z" />
    <glyph glyph-name="lcommaaccent" unicode="&#x13c;" horiz-adv-x="256" 
d="M234 762h94l-154 -762h-94zM106 -50h100l-105 -170h-70z" />
    <glyph glyph-name="Lcaron" unicode="&#x13d;" horiz-adv-x="506" 
d="M236 700h100l-124 -612h292l-18 -88h-293h-99zM448 700h110l-114 -200h-76z" />
    <glyph glyph-name="lcaron" unicode="&#x13e;" horiz-adv-x="310" 
d="M234 762h94l-154 -762h-94zM415 762h100l-104 -168h-70z" />
    <glyph glyph-name="Ldot" unicode="&#x13f;" horiz-adv-x="506" 
d="M236 700h100l-124 -612h292l-18 -88h-293h-99zM407 422h112l-23 -112h-112z" />
    <glyph glyph-name="ldot" unicode="&#x140;" horiz-adv-x="366" 
d="M234 762h94l-154 -762h-94zM340 435h112l-23 -112h-112z" />
    <glyph glyph-name="Lslash" unicode="&#x141;" horiz-adv-x="506" 
d="M136 236l-72 -38l15 72l71 38l80 392h100l-68 -334l219 115l-14 -72l-219 -115l-42 -206h292l-18 -88h-293h-99z" />
    <glyph glyph-name="lslash" unicode="&#x142;" horiz-adv-x="278" 
d="M161 340l-74 -51l14 71l74 51l71 351h94l-56 -277l75 51l-15 -71l-74 -51l-84 -414h-94z" />
    <glyph glyph-name="Nacute" unicode="&#x143;" horiz-adv-x="734" 
d="M236 700h100h36l194 -564h2l114 564h100l-142 -700h-100h-28l-199 576h-2l-117 -576h-100zM659 870l-141 -120h-100l105 120h136z" />
    <glyph glyph-name="nacute" unicode="&#x144;" horiz-adv-x="604" 
d="M183 510h94l-14 -73h2q23 26 44.5 39.5t33.5 19.5q47 22 102 22t86.5 -16.5t46.5 -39.5q13 -20 18 -41.5t5 -43.5q0 -20 -3 -38.5t-6 -35.5l-61 -303h-94l53 264q5 24 8 46t3 42q0 36 -13 56q-6 9 -23.5 21.5t-52.5 12.5q-23 0 -51.5 -9t-57.5 -35q-38 -35 -55.5 -77.5
t-25.5 -84.5l-48 -236h-94zM472 740h122l-160 -130h-80z" />
    <glyph glyph-name="Ncommaaccent" unicode="&#x145;" horiz-adv-x="734" 
d="M236 700h100h36l194 -564h2l114 564h100l-142 -700h-100h-28l-199 576h-2l-117 -576h-100zM341 -50h110l-110 -198h-80z" />
    <glyph glyph-name="ncommaaccent" unicode="&#x146;" horiz-adv-x="604" 
d="M183 510h94l-14 -73h2q23 26 44.5 39.5t33.5 19.5q47 22 102 22t86.5 -16.5t46.5 -39.5q13 -20 18 -41.5t5 -43.5q0 -20 -3 -38.5t-6 -35.5l-61 -303h-94l53 264q5 24 8 46t3 42q0 36 -13 56q-6 9 -23.5 21.5t-52.5 12.5q-23 0 -51.5 -9t-57.5 -35q-38 -35 -55.5 -77.5
t-25.5 -84.5l-48 -236h-94zM262 -50h100l-105 -170h-70z" />
    <glyph glyph-name="Ncaron" unicode="&#x147;" horiz-adv-x="734" 
d="M236 700h100h36l194 -564h2l114 564h100l-142 -700h-100h-28l-199 576h-2l-117 -576h-100zM457 750l-72 120h86l51 -70l85 70h96l-126 -120h-120z" />
    <glyph glyph-name="ncaron" unicode="&#x148;" horiz-adv-x="604" 
d="M183 510h94l-14 -73h2q23 26 44.5 39.5t33.5 19.5q47 22 102 22t86.5 -16.5t46.5 -39.5q13 -20 18 -41.5t5 -43.5q0 -20 -3 -38.5t-6 -35.5l-61 -303h-94l53 264q5 24 8 46t3 42q0 36 -13 56q-6 9 -23.5 21.5t-52.5 12.5q-23 0 -51.5 -9t-57.5 -35q-38 -35 -55.5 -77.5
t-25.5 -84.5l-48 -236h-94zM467 610h-92l-71 130h74l48 -84l92 84h76z" />
    <glyph glyph-name="Omacron" unicode="&#x14c;" horiz-adv-x="780" 
d="M535 710q48 0 84.5 -9.5t64.5 -24.5t47.5 -34t31.5 -38q23 -37 32.5 -86t9.5 -89q0 -42 -9 -86.5t-27 -88.5t-45.5 -84.5t-63.5 -74.5q-52 -48 -119 -76.5t-152 -28.5q-30 0 -61 4.5t-59.5 15.5t-54.5 30t-47 48q-20 29 -35 71.5t-15 101.5q0 44 10 91t29 92t46 86.5
t61 73.5q19 18 45.5 37t60 34.5t75 25t91.5 9.5zM517 622q-44 0 -93 -17.5t-94 -62.5q-50 -50 -78.5 -120.5t-28.5 -145.5q0 -26 5 -62t28 -68q17 -24 53.5 -46t97.5 -22q45 0 93.5 16.5t93.5 63.5q23 24 42.5 55t33.5 66.5t21.5 73.5t7.5 77q0 29 -7 63.5t-30 64.5
q-19 25 -54.5 44.5t-90.5 19.5zM690 834l-12 -60h-262l12 60h262z" />
    <glyph glyph-name="omacron" unicode="&#x14d;" horiz-adv-x="618" 
d="M414 518q36 0 64.5 -7t50 -18.5t37 -26t25.5 -28.5q14 -20 24.5 -50t10.5 -75q0 -69 -30.5 -133t-78.5 -108q-40 -36 -93 -58t-117 -22q-36 0 -64.5 7t-50 18.5t-36.5 26t-25 28.5q-36 51 -36 118q0 37 9.5 73.5t24.5 68.5t35 59t41 47q39 36 92 58t117 22zM399 442
q-38 0 -73 -17t-60 -43q-34 -35 -52 -82.5t-18 -91.5q0 -11 2.5 -37t17.5 -49q14 -22 41.5 -38t65.5 -16q32 0 67 14.5t65 45.5q28 29 49 74.5t21 96.5q0 19 -4 44t-20 48q-22 32 -51 41.5t-51 9.5zM300 722h296l-14 -70h-296z" />
    <glyph glyph-name="Obreve" unicode="&#x14e;" horiz-adv-x="780" 
d="M535 710q48 0 84.5 -9.5t64.5 -24.5t47.5 -34t31.5 -38q23 -37 32.5 -86t9.5 -89q0 -42 -9 -86.5t-27 -88.5t-45.5 -84.5t-63.5 -74.5q-52 -48 -119 -76.5t-152 -28.5q-30 0 -61 4.5t-59.5 15.5t-54.5 30t-47 48q-20 29 -35 71.5t-15 101.5q0 44 10 91t29 92t46 86.5
t61 73.5q19 18 45.5 37t60 34.5t75 25t91.5 9.5zM517 622q-44 0 -93 -17.5t-94 -62.5q-50 -50 -78.5 -120.5t-28.5 -145.5q0 -26 5 -62t28 -68q17 -24 53.5 -46t97.5 -22q45 0 93.5 16.5t93.5 63.5q23 24 42.5 55t33.5 66.5t21.5 73.5t7.5 77q0 29 -7 63.5t-30 64.5
q-19 25 -54.5 44.5t-90.5 19.5zM469 870q1 -5 3.5 -14.5t11.5 -18.5t25.5 -16t45.5 -7q27 0 45.5 5.5t31.5 14t20.5 18t12.5 18.5h70q-26 -55 -75 -90.5t-118 -35.5q-65 0 -103 34.5t-40 91.5h70z" />
    <glyph glyph-name="obreve" unicode="&#x14f;" horiz-adv-x="618" 
d="M414 518q36 0 64.5 -7t50 -18.5t37 -26t25.5 -28.5q14 -20 24.5 -50t10.5 -75q0 -69 -30.5 -133t-78.5 -108q-40 -36 -93 -58t-117 -22q-36 0 -64.5 7t-50 18.5t-36.5 26t-25 28.5q-36 51 -36 118q0 37 9.5 73.5t24.5 68.5t35 59t41 47q39 36 92 58t117 22zM399 442
q-38 0 -73 -17t-60 -43q-34 -35 -52 -82.5t-18 -91.5q0 -11 2.5 -37t17.5 -49q14 -22 41.5 -38t65.5 -16q32 0 67 14.5t65 45.5q28 29 49 74.5t21 96.5q0 19 -4 44t-20 48q-22 32 -51 41.5t-51 9.5zM361 740q-2 -33 19 -52.5t59 -19.5q7 0 22 1.5t31.5 8.5t32 21.5
t24.5 40.5h60q-19 -66 -68 -104t-113 -38q-33 0 -58.5 11t-42 30t-23.5 45t-3 56h60z" />
    <glyph glyph-name="Ohungarumlaut" unicode="&#x150;" horiz-adv-x="780" 
d="M535 710q48 0 84.5 -9.5t64.5 -24.5t47.5 -34t31.5 -38q23 -37 32.5 -86t9.5 -89q0 -42 -9 -86.5t-27 -88.5t-45.5 -84.5t-63.5 -74.5q-52 -48 -119 -76.5t-152 -28.5q-30 0 -61 4.5t-59.5 15.5t-54.5 30t-47 48q-20 29 -35 71.5t-15 101.5q0 44 10 91t29 92t46 86.5
t61 73.5q19 18 45.5 37t60 34.5t75 25t91.5 9.5zM517 622q-44 0 -93 -17.5t-94 -62.5q-50 -50 -78.5 -120.5t-28.5 -145.5q0 -26 5 -62t28 -68q17 -24 53.5 -46t97.5 -22q45 0 93.5 16.5t93.5 63.5q23 24 42.5 55t33.5 66.5t21.5 73.5t7.5 77q0 29 -7 63.5t-30 64.5
q-19 25 -54.5 44.5t-90.5 19.5zM596 870l-147 -120h-80l107 120h120zM754 870l-147 -120h-80l107 120h120z" />
    <glyph glyph-name="ohungarumlaut" unicode="&#x151;" horiz-adv-x="618" 
d="M414 518q36 0 64.5 -7t50 -18.5t37 -26t25.5 -28.5q14 -20 24.5 -50t10.5 -75q0 -69 -30.5 -133t-78.5 -108q-40 -36 -93 -58t-117 -22q-36 0 -64.5 7t-50 18.5t-36.5 26t-25 28.5q-36 51 -36 118q0 37 9.5 73.5t24.5 68.5t35 59t41 47q39 36 92 58t117 22zM399 442
q-38 0 -73 -17t-60 -43q-34 -35 -52 -82.5t-18 -91.5q0 -11 2.5 -37t17.5 -49q14 -22 41.5 -38t65.5 -16q32 0 67 14.5t65 45.5q28 29 49 74.5t21 96.5q0 19 -4 44t-20 48q-22 32 -51 41.5t-51 9.5zM388 740h110l-157 -130h-70zM569 740h110l-157 -130h-70z" />
    <glyph glyph-name="OE" unicode="&#x152;" horiz-adv-x="944" 
d="M617 610l-30 4t-30 2q-63 0 -117 -17t-96 -49.5t-71 -80.5t-41 -111q-8 -40 -8 -71q0 -99 61 -152t165 -53q15 0 30 1t31 5zM999 612h-282l-42 -206h262l-18 -88h-262l-46 -230h289l-18 -88h-290q-39 0 -78.5 -3t-78.5 -3q-72 0 -130.5 18.5t-100.5 54t-64.5 87
t-22.5 117.5q0 40 9 87q16 79 57 143t101 109t135.5 69.5t161.5 24.5q34 0 66.5 -2t65.5 -2h13h291z" />
    <glyph glyph-name="oe" unicode="&#x153;" horiz-adv-x="970" 
d="M307 -8q-49 0 -88 14.5t-66.5 41t-42.5 62.5t-15 80q0 69 25.5 128.5t69 104t101.5 70t123 25.5q66 0 112.5 -28t71.5 -89q42 61 100.5 89t126.5 28q79 0 119.5 -37.5t40.5 -100.5q0 -39 -17 -71.5t-59 -56.5t-113.5 -38t-180.5 -16v-8q0 -54 35.5 -88t99.5 -34
q46 0 92 16.5t79 36.5l-19 -96q-17 -7 -34 -13t-36.5 -10.5t-43 -7t-53.5 -2.5q-76 0 -124.5 29t-71.5 92q-44 -61 -104 -91t-128 -30zM323 68q41 0 78 20t64.5 52t43.5 73.5t16 85.5q0 70 -34.5 106.5t-91.5 36.5q-39 0 -75.5 -17.5t-65 -49t-45.5 -74.5t-17 -93
q0 -69 34 -104.5t93 -35.5zM810 442q-64 0 -115.5 -43.5t-70.5 -124.5q84 1 136 9.5t81 22.5t39 33t10 41q0 28 -19 45t-61 17z" />
    <glyph glyph-name="Racute" unicode="&#x154;" horiz-adv-x="624" 
d="M236 700h194q108 0 160.5 -49.5t52.5 -140.5q0 -73 -38.5 -131.5t-110.5 -89.5l88 -289h-110l-71 264q-15 -2 -30 -3t-31 -1h-93l-53 -260h-100zM534 510q0 47 -30.5 74.5t-93.5 27.5h-92l-53 -264h90q86 0 132.5 44.5t46.5 117.5zM620 870l-141 -120h-100l105 120h136z
" />
    <glyph glyph-name="racute" unicode="&#x155;" horiz-adv-x="379" 
d="M271 510l-17 -83h2q29 42 71 66.5t84 24.5q7 0 24 -1.5t25 -3.5l8 -2l-17 -84q-9 4 -21 6.5t-29 2.5q-30 0 -53 -11t-45 -31q-38 -35 -56 -79t-27 -87l-46 -228h-94l103 510h88zM359 740h122l-160 -130h-80z" />
    <glyph glyph-name="Rcommaaccent" unicode="&#x156;" horiz-adv-x="624" 
d="M236 700h194q108 0 160.5 -49.5t52.5 -140.5q0 -73 -38.5 -131.5t-110.5 -89.5l88 -289h-110l-71 264q-15 -2 -30 -3t-31 -1h-93l-53 -260h-100zM534 510q0 47 -30.5 74.5t-93.5 27.5h-92l-53 -264h90q86 0 132.5 44.5t46.5 117.5zM273 -50h110l-110 -198h-80z" />
    <glyph glyph-name="rcommaaccent" unicode="&#x157;" horiz-adv-x="379" 
d="M271 510l-17 -83h2q29 42 71 66.5t84 24.5q7 0 24 -1.5t25 -3.5l8 -2l-17 -84q-9 4 -21 6.5t-29 2.5q-30 0 -53 -11t-45 -31q-38 -35 -56 -79t-27 -87l-46 -228h-94l103 510h88zM68 -50h100l-105 -170h-70z" />
    <glyph glyph-name="Rcaron" unicode="&#x158;" horiz-adv-x="624" 
d="M236 700h194q108 0 160.5 -49.5t52.5 -140.5q0 -73 -38.5 -131.5t-110.5 -89.5l88 -289h-110l-71 264q-15 -2 -30 -3t-31 -1h-93l-53 -260h-100zM534 510q0 47 -30.5 74.5t-93.5 27.5h-92l-53 -264h90q86 0 132.5 44.5t46.5 117.5zM368 750l-72 120h86l51 -70l85 70h96
l-126 -120h-120z" />
    <glyph glyph-name="rcaron" unicode="&#x159;" horiz-adv-x="379" 
d="M271 510l-17 -83h2q29 42 71 66.5t84 24.5q7 0 24 -1.5t25 -3.5l8 -2l-17 -84q-9 4 -21 6.5t-29 2.5q-30 0 -53 -11t-45 -31q-38 -35 -56 -79t-27 -87l-46 -228h-94l103 510h88zM354 610h-92l-71 130h74l48 -84l92 84h76z" />
    <glyph glyph-name="Sacute" unicode="&#x15a;" horiz-adv-x="500" 
d="M526 593q-37 18 -68.5 23.5t-56.5 5.5q-26 0 -46.5 -4.5t-36.5 -12.5q-31 -15 -46.5 -41t-15.5 -49q0 -14 6 -26t15 -23q17 -20 37 -29.5t45 -23.5l23 -13q35 -20 60.5 -39.5t41.5 -53.5q8 -17 10 -33t2 -38q0 -64 -23.5 -110t-71.5 -81q-47 -35 -97 -45t-98 -10
q-29 0 -65.5 6t-81.5 23l28 92q29 -14 67.5 -23.5t71.5 -9.5q26 0 58 8t54 25q23 17 36.5 45t13.5 57q0 35 -23 58q-11 10 -28.5 21t-54.5 32l-39 22q-35 20 -55 39.5t-28 36.5q-10 20 -11.5 39.5t-1.5 27.5q0 48 26 96t74 80q25 16 51 25t49 13.5t41 5.5t27 1q50 0 85.5 -8
t58.5 -17zM542 870l-141 -120h-100l105 120h136z" />
    <glyph glyph-name="sacute" unicode="&#x15b;" horiz-adv-x="406" 
d="M74 103q32 -20 61.5 -27.5t50.5 -7.5q47 0 80 25q15 12 23 27t8 29q0 8 -3.5 19.5t-15.5 22.5q-2 2 -12 9t-42 24l-24 13q-16 8 -36.5 23t-32.5 39q-5 9 -8.5 22.5t-3.5 33.5q0 11 2.5 25.5t9.5 30.5t19.5 32t32.5 31q32 23 70.5 33.5t76.5 10.5q20 0 49.5 -4t63.5 -16
l-24 -80q-21 13 -40 17q-11 3 -23 5t-26 2q-17 0 -35 -2.5t-34 -10.5q-27 -13 -34.5 -30.5t-7.5 -28.5q0 -21 15 -38q7 -8 20.5 -16.5t42.5 -22.5l14 -7q26 -14 42 -26t24 -23q20 -26 20 -70q0 -14 -3 -30t-11.5 -34t-23.5 -36t-38 -34q-32 -22 -66.5 -31.5t-75.5 -9.5
q-43 0 -73.5 8.5t-53.5 19.5zM373 740h122l-160 -130h-80z" />
    <glyph glyph-name="Scircumflex" unicode="&#x15c;" horiz-adv-x="500" 
d="M526 593q-37 18 -68.5 23.5t-56.5 5.5q-26 0 -46.5 -4.5t-36.5 -12.5q-31 -15 -46.5 -41t-15.5 -49q0 -14 6 -26t15 -23q17 -20 37 -29.5t45 -23.5l23 -13q35 -20 60.5 -39.5t41.5 -53.5q8 -17 10 -33t2 -38q0 -64 -23.5 -110t-71.5 -81q-47 -35 -97 -45t-98 -10
q-29 0 -65.5 6t-81.5 23l28 92q29 -14 67.5 -23.5t71.5 -9.5q26 0 58 8t54 25q23 17 36.5 45t13.5 57q0 35 -23 58q-11 10 -28.5 21t-54.5 32l-39 22q-35 20 -55 39.5t-28 36.5q-10 20 -11.5 39.5t-1.5 27.5q0 48 26 96t74 80q25 16 51 25t49 13.5t41 5.5t27 1q50 0 85.5 -8
t58.5 -17zM490 870l72 -120h-86l-51 70l-85 -70h-96l126 120h120z" />
    <glyph glyph-name="scircumflex" unicode="&#x15d;" horiz-adv-x="406" 
d="M74 103q32 -20 61.5 -27.5t50.5 -7.5q47 0 80 25q15 12 23 27t8 29q0 8 -3.5 19.5t-15.5 22.5q-2 2 -12 9t-42 24l-24 13q-16 8 -36.5 23t-32.5 39q-5 9 -8.5 22.5t-3.5 33.5q0 11 2.5 25.5t9.5 30.5t19.5 32t32.5 31q32 23 70.5 33.5t76.5 10.5q20 0 49.5 -4t63.5 -16
l-24 -80q-21 13 -40 17q-11 3 -23 5t-26 2q-17 0 -35 -2.5t-34 -10.5q-27 -13 -34.5 -30.5t-7.5 -28.5q0 -21 15 -38q7 -8 20.5 -16.5t42.5 -22.5l14 -7q26 -14 42 -26t24 -23q20 -26 20 -70q0 -14 -3 -30t-11.5 -34t-23.5 -36t-38 -34q-32 -22 -66.5 -31.5t-75.5 -9.5
q-43 0 -73.5 8.5t-53.5 19.5zM303 740h92l71 -130h-74l-48 84l-92 -84h-76z" />
    <glyph glyph-name="Scedilla" unicode="&#x15e;" horiz-adv-x="500" 
d="M526 593q-37 18 -68.5 23.5t-56.5 5.5q-17 0 -39.5 -3t-43.5 -14q-28 -14 -43 -33.5t-15 -41.5v-14q0 -11 1.5 -20.5t9.5 -20.5q17 -24 39.5 -35.5t48.5 -26.5l23 -13q26 -14 55.5 -35t46.5 -58q5 -11 8.5 -23t3.5 -25q0 -22 -3.5 -49t-14 -56t-30.5 -57.5t-54 -52.5
q-43 -31 -81.5 -40.5t-61.5 -11.5l-9 -25q13 0 26 -4t23 -12q8 -7 15.5 -20.5t7.5 -34.5q0 -24 -12 -49.5t-38 -45.5q-20 -15 -44 -21t-47 -6q-26 0 -43 9.5t-28 17.5l36 48q12 -11 24 -14.5t20 -3.5q10 0 20.5 3t18.5 10q8 6 13.5 17t5.5 22q0 10 -4 16t-9 10q-7 5 -15 7
t-16 2h-15.5t-15.5 -2l26 75q-15 1 -49.5 5t-82.5 23l28 92q36 -17 73.5 -25t65.5 -8q29 0 56.5 8t52.5 27q20 15 35.5 34.5t15.5 44.5v7q0 20 -3 38t-18 34q-10 11 -28 21.5t-55 31.5l-39 22q-29 17 -51 36.5t-32 39.5q-11 22 -11 45q0 57 26.5 113t81.5 89q36 22 78 31.5
t80 9.5q56 0 92 -9.5t52 -15.5z" />
    <glyph glyph-name="scedilla" unicode="&#x15f;" horiz-adv-x="406" 
d="M74 103q32 -20 61.5 -27.5t50.5 -7.5q47 0 80 25q15 12 23 27t8 29q0 8 -3.5 19.5t-15.5 22.5q-2 2 -12 9t-42 24l-24 13q-16 8 -36.5 23t-32.5 39q-5 9 -8.5 22.5t-3.5 33.5q0 11 2.5 25.5t9.5 30.5t19.5 32t32.5 31q32 23 70.5 33.5t76.5 10.5q20 0 49.5 -4t63.5 -16
l-24 -80q-21 13 -40 17q-11 3 -23 5t-26 2q-17 0 -35 -2.5t-34 -10.5q-27 -13 -34.5 -30.5t-7.5 -28.5q0 -21 15 -38q7 -8 20.5 -16.5t42.5 -22.5l14 -7q26 -14 42 -26t24 -23q20 -26 20 -70q0 -14 -3 -30t-11.5 -34t-23.5 -36t-38 -34q-29 -20 -56.5 -28.5t-50.5 -10.5
l-8 -25q19 0 32.5 -7.5t21.5 -16.5q5 -7 9.5 -17t4.5 -24q0 -26 -11.5 -51.5t-34.5 -42.5q-20 -15 -40.5 -20t-40.5 -5q-26 0 -43 6t-32 19l34 46q11 -11 23 -14t20 -3q18 0 35 12q12 9 15.5 19t3.5 18q0 17 -12 26q-7 5 -16 6.5t-17 1.5h-13t-13 -2l25 73q-34 2 -59.5 9.5
t-45.5 17.5z" />
    <glyph glyph-name="Scaron" unicode="&#x160;" horiz-adv-x="500" 
d="M526 593q-37 18 -68.5 23.5t-56.5 5.5q-26 0 -46.5 -4.5t-36.5 -12.5q-31 -15 -46.5 -41t-15.5 -49q0 -14 6 -26t15 -23q17 -20 37 -29.5t45 -23.5l23 -13q35 -20 60.5 -39.5t41.5 -53.5q8 -17 10 -33t2 -38q0 -64 -23.5 -110t-71.5 -81q-47 -35 -97 -45t-98 -10
q-29 0 -65.5 6t-81.5 23l28 92q29 -14 67.5 -23.5t71.5 -9.5q26 0 58 8t54 25q23 17 36.5 45t13.5 57q0 35 -23 58q-11 10 -28.5 21t-54.5 32l-39 22q-35 20 -55 39.5t-28 36.5q-10 20 -11.5 39.5t-1.5 27.5q0 48 26 96t74 80q25 16 51 25t49 13.5t41 5.5t27 1q50 0 85.5 -8
t58.5 -17zM341 750l-72 120h86l51 -70l85 70h96l-126 -120h-120z" />
    <glyph glyph-name="scaron" unicode="&#x161;" horiz-adv-x="406" 
d="M74 103q32 -20 61.5 -27.5t50.5 -7.5q47 0 80 25q15 12 23 27t8 29q0 8 -3.5 19.5t-15.5 22.5q-2 2 -12 9t-42 24l-24 13q-16 8 -36.5 23t-32.5 39q-5 9 -8.5 22.5t-3.5 33.5q0 11 2.5 25.5t9.5 30.5t19.5 32t32.5 31q32 23 70.5 33.5t76.5 10.5q20 0 49.5 -4t63.5 -16
l-24 -80q-21 13 -40 17q-11 3 -23 5t-26 2q-17 0 -35 -2.5t-34 -10.5q-27 -13 -34.5 -30.5t-7.5 -28.5q0 -21 15 -38q7 -8 20.5 -16.5t42.5 -22.5l14 -7q26 -14 42 -26t24 -23q20 -26 20 -70q0 -14 -3 -30t-11.5 -34t-23.5 -36t-38 -34q-32 -22 -66.5 -31.5t-75.5 -9.5
q-43 0 -73.5 8.5t-53.5 19.5zM368 610h-92l-71 130h74l48 -84l92 84h76z" />
    <glyph glyph-name="Tcedilla" unicode="&#x162;" horiz-adv-x="556" 
d="M352 612h-217l18 88h534l-18 -88h-217l-124 -612h-23l-12 -33h3q19 0 32.5 -7.5t21.5 -17.5q15 -18 15 -48q0 -29 -14.5 -53t-35.5 -40q-20 -15 -44 -21t-47 -6q-26 0 -43 9.5t-28 17.5l36 48q12 -11 24 -14.5t20 -3.5q10 0 20.5 3t18.5 10q5 5 12 14.5t7 25.5
q0 18 -12 26q-8 5 -16 6.5t-16 1.5h-15.5t-15.5 -2l29 84h-17z" />
    <glyph glyph-name="tcedilla" unicode="&#x163;" horiz-adv-x="375" 
d="M345 658l-30 -148h141l-15 -76h-141l-56 -275q-3 -14 -3 -26q0 -10 1.5 -23t11.5 -24q16 -18 55 -18q31 0 63 18l-16 -80q-22 -7 -44 -10.5t-47 -3.5h-9l-7 -23q18 0 32 -7t22 -17q5 -5 9 -15.5t4 -27.5q0 -26 -12.5 -50.5t-34.5 -41.5q-34 -25 -87 -25q-23 0 -38 7
t-29 18l34 46q11 -11 22 -14t19 -3q22 0 37 12q13 10 15.5 20.5t2.5 17.5q0 8 -3 13.5t-7 9.5q-6 6 -15.5 8.5t-19.5 2.5q-8 0 -14 -1t-11 -2l28 84q-17 6 -30.5 17.5t-22.5 31.5q-5 12 -7 24t-2 26q0 13 1.5 20.5t3.5 16.5l60 294h-111l15 76h111l24 118z" />
    <glyph glyph-name="Tcaron" unicode="&#x164;" horiz-adv-x="556" 
d="M352 612h-217l18 88h534l-18 -88h-217l-124 -612h-100zM368 750l-72 120h86l51 -70l85 70h96l-126 -120h-120z" />
    <glyph glyph-name="tcaron" unicode="&#x165;" horiz-adv-x="375" 
d="M345 658l-30 -148h141l-15 -76h-141l-56 -275q-1 -5 -2.5 -16.5t-1.5 -19.5q0 -22 16 -37q10 -9 24 -13.5t29 -4.5q14 0 31 4.5t32 13.5l-16 -80q-44 -14 -86 -14q-29 0 -57 8t-46 27q-26 26 -26 71q0 19 5 42l60 294h-111l15 76h111l24 118zM455 762h100l-104 -168h-70z
" />
    <glyph glyph-name="Umacron" unicode="&#x16a;" horiz-adv-x="725" 
d="M694 290q-18 -90 -52 -143.5t-67 -81.5q-38 -33 -92 -54t-121 -21q-38 0 -67 6.5t-51 17.5t-38 25t-27 28q-26 33 -31.5 66t-5.5 62q0 24 2.5 47.5t7.5 47.5l83 410h100l-81 -397q-5 -26 -8.5 -50t-3.5 -47q0 -10 1 -22t4.5 -25t10.5 -26t20 -24q20 -17 49.5 -24t52.5 -7
q40 0 77 13.5t69 48.5q34 37 48 79.5t22 83.5l81 397h100zM662 834l-12 -60h-262l12 60h262z" />
    <glyph glyph-name="umacron" unicode="&#x16b;" horiz-adv-x="611" 
d="M531 0h-94l15 73h-2q-15 -17 -34 -32t-45 -27q-20 -10 -44.5 -16t-57.5 -6q-15 0 -33 2t-36 8t-34.5 17t-28.5 29t-18 42.5t-6 44.5q0 17 3.5 39.5t5.5 32.5l61 303h94l-53 -264q-4 -18 -7.5 -42.5t-3.5 -46.5q0 -14 3 -31t16 -31q8 -8 24.5 -17.5t46.5 -9.5
q32 0 60 12.5t49 31.5q18 16 31.5 36.5t23 41.5t15.5 42.5t10 41.5l48 236h94zM296 722h296l-14 -70h-296z" />
    <glyph glyph-name="Ubreve" unicode="&#x16c;" horiz-adv-x="725" 
d="M694 290q-18 -90 -52 -143.5t-67 -81.5q-38 -33 -92 -54t-121 -21q-38 0 -67 6.5t-51 17.5t-38 25t-27 28q-26 33 -31.5 66t-5.5 62q0 24 2.5 47.5t7.5 47.5l83 410h100l-81 -397q-5 -26 -8.5 -50t-3.5 -47q0 -10 1 -22t4.5 -25t10.5 -26t20 -24q20 -17 49.5 -24t52.5 -7
q40 0 77 13.5t69 48.5q34 37 48 79.5t22 83.5l81 397h100zM441 870q1 -5 3.5 -14.5t11.5 -18.5t25.5 -16t45.5 -7q27 0 45.5 5.5t31.5 14t20.5 18t12.5 18.5h70q-26 -55 -75 -90.5t-118 -35.5q-65 0 -103 34.5t-40 91.5h70z" />
    <glyph glyph-name="ubreve" unicode="&#x16d;" horiz-adv-x="611" 
d="M531 0h-94l15 73h-2q-15 -17 -34 -32t-45 -27q-20 -10 -44.5 -16t-57.5 -6q-15 0 -33 2t-36 8t-34.5 17t-28.5 29t-18 42.5t-6 44.5q0 17 3.5 39.5t5.5 32.5l61 303h94l-53 -264q-4 -18 -7.5 -42.5t-3.5 -46.5q0 -14 3 -31t16 -31q8 -8 24.5 -17.5t46.5 -9.5
q32 0 60 12.5t49 31.5q18 16 31.5 36.5t23 41.5t15.5 42.5t10 41.5l48 236h94zM357 740q-2 -33 19 -52.5t59 -19.5q7 0 22 1.5t31.5 8.5t32 21.5t24.5 40.5h60q-19 -66 -68 -104t-113 -38q-33 0 -58.5 11t-42 30t-23.5 45t-3 56h60z" />
    <glyph glyph-name="Uring" unicode="&#x16e;" horiz-adv-x="725" 
d="M694 290q-18 -90 -52 -143.5t-67 -81.5q-38 -33 -92 -54t-121 -21q-38 0 -67 6.5t-51 17.5t-38 25t-27 28q-26 33 -31.5 66t-5.5 62q0 24 2.5 47.5t7.5 47.5l83 410h100l-81 -397q-5 -26 -8.5 -50t-3.5 -47q0 -10 1 -22t4.5 -25t10.5 -26t20 -24q20 -17 49.5 -24t52.5 -7
q40 0 77 13.5t69 48.5q34 37 48 79.5t22 83.5l81 397h100zM427 807q0 28 13.5 53t33.5 41q17 13 37 20t39 7q40 0 62 -24q9 -10 15 -24.5t6 -33.5q0 -20 -9 -43t-31 -43q-19 -17 -40.5 -25.5t-43.5 -8.5q-23 0 -38.5 7.5t-25.5 19.5t-14 26.5t-4 27.5zM473 816q0 -17 10 -29
q8 -10 18 -12.5t17 -2.5q17 0 28.5 5.5t17.5 11.5q11 10 16.5 23t5.5 26q0 18 -11 30q-13 14 -34 14q-26 0 -45 -17q-10 -8 -16.5 -21.5t-6.5 -27.5z" />
    <glyph glyph-name="uring" unicode="&#x16f;" horiz-adv-x="611" 
d="M531 0h-94l15 73h-2q-15 -17 -34 -32t-45 -27q-20 -10 -44.5 -16t-57.5 -6q-15 0 -33 2t-36 8t-34.5 17t-28.5 29t-18 42.5t-6 44.5q0 17 3.5 39.5t5.5 32.5l61 303h94l-53 -264q-4 -18 -7.5 -42.5t-3.5 -46.5q0 -14 3 -31t16 -31q8 -8 24.5 -17.5t46.5 -9.5
q32 0 60 12.5t49 31.5q18 16 31.5 36.5t23 41.5t15.5 42.5t10 41.5l48 236h94zM336 646q0 23 11.5 47t32.5 42q1 1 8 6t17.5 11t24.5 10.5t30 4.5q17 0 33.5 -6t28.5 -19q11 -11 16.5 -26t5.5 -32t-7.5 -39t-30.5 -44q-20 -20 -43 -29t-44 -9q-37 0 -60 23q-8 8 -15.5 22.5
t-7.5 37.5zM377 647q0 -6 2 -14t10 -16q7 -7 17 -10.5t21 -3.5q16 0 30 6.5t24 16.5q9 9 15.5 23t6.5 28t-4 22t-7 11q-14 17 -40 17q-12 0 -25.5 -5t-24.5 -15q-11 -11 -18 -27t-7 -33z" />
    <glyph glyph-name="Uhungarumlaut" unicode="&#x170;" horiz-adv-x="725" 
d="M694 290q-18 -90 -52 -143.5t-67 -81.5q-38 -33 -92 -54t-121 -21q-38 0 -67 6.5t-51 17.5t-38 25t-27 28q-26 33 -31.5 66t-5.5 62q0 24 2.5 47.5t7.5 47.5l83 410h100l-81 -397q-5 -26 -8.5 -50t-3.5 -47q0 -10 1 -22t4.5 -25t10.5 -26t20 -24q20 -17 49.5 -24t52.5 -7
q40 0 77 13.5t69 48.5q34 37 48 79.5t22 83.5l81 397h100zM609 870l-147 -120h-80l107 120h120zM767 870l-147 -120h-80l107 120h120z" />
    <glyph glyph-name="uhungarumlaut" unicode="&#x171;" horiz-adv-x="611" 
d="M531 0h-94l15 73h-2q-15 -17 -34 -32t-45 -27q-20 -10 -44.5 -16t-57.5 -6q-15 0 -33 2t-36 8t-34.5 17t-28.5 29t-18 42.5t-6 44.5q0 17 3.5 39.5t5.5 32.5l61 303h94l-53 -264q-4 -18 -7.5 -42.5t-3.5 -46.5q0 -14 3 -31t16 -31q8 -8 24.5 -17.5t46.5 -9.5
q32 0 60 12.5t49 31.5q18 16 31.5 36.5t23 41.5t15.5 42.5t10 41.5l48 236h94zM384 740h110l-157 -130h-70zM565 740h110l-157 -130h-70z" />
    <glyph glyph-name="Uogonek" unicode="&#x172;" horiz-adv-x="727" 
d="M696 290q-16 -80 -45 -130.5t-58 -79.5q-23 -23 -51 -40t-55 -28q-21 -16 -35 -26t-24.5 -18t-20 -17t-20.5 -22q-20 -25 -28 -43t-8 -32q0 -7 2.5 -15t7.5 -13t15.5 -8.5t18.5 -3.5q19 0 38 5.5t34 14.5l10 -43q-24 -15 -51 -23.5t-60 -8.5q-17 0 -38.5 3.5t-39.5 20.5
q-6 6 -14.5 19t-8.5 35q0 18 6 34t14 29t16 22.5t12 13.5q22 23 42.5 36.5t30.5 18.5q-5 -1 -11 -1h-11q-37 0 -66.5 6.5t-52 17t-38.5 24t-26 27.5q-20 26 -29.5 63.5t-9.5 71.5q0 20 4.5 47t7.5 43l83 410h100l-81 -397q-5 -23 -7.5 -50.5t-2.5 -46.5q0 -22 4 -45t20 -43
q12 -15 26.5 -23t29.5 -11.5t29.5 -4.5t26.5 -1q44 0 79 13.5t67 48.5q34 37 48 79.5t22 83.5l81 397h100z" />
    <glyph glyph-name="uogonek" unicode="&#x173;" horiz-adv-x="611" 
d="M531 0q-23 -14 -44 -29.5t-37 -33.5t-25.5 -38t-9.5 -43q0 -17 10.5 -27t28.5 -10q39 0 70 20l10 -42q-27 -17 -54 -24t-53 -7q-45 0 -70.5 18.5t-25.5 57.5q0 29 12 53.5t31.5 44.5t43 35t46.5 25h-27l15 73h-2q-15 -17 -34 -32t-45 -27q-20 -10 -44.5 -16t-57.5 -6
q-16 0 -34 2t-35 8t-33.5 17t-29.5 29q-15 22 -19.5 44t-4.5 46q0 26 3 40t6 29l61 303h94l-53 -264q-5 -23 -8 -45t-3 -44q0 -13 2.5 -27.5t11.5 -27.5q7 -10 24.5 -22t51.5 -12q32 0 60 12.5t49 31.5q18 16 31.5 36.5t23 41.5t15.5 42.5t10 41.5l48 236h94z" />
    <glyph glyph-name="Ydieresis" unicode="&#x178;" horiz-adv-x="667" 
d="M343 293l-190 407h117l144 -314l267 314h117l-355 -407l-59 -293h-100zM450 852l-21 -100h-106l21 100h106zM666 852l-21 -100h-106l21 100h106z" />
    <glyph glyph-name="Zacute" unicode="&#x179;" horiz-adv-x="556" 
d="M50 90l469 522h-351l18 88h465l-18 -90l-467 -522h367l-18 -88h-483zM570 870l-141 -120h-100l105 120h136z" />
    <glyph glyph-name="zacute" unicode="&#x17a;" horiz-adv-x="500" 
d="M60 82l365 352h-280l15 76h389l-16 -82l-366 -352h305l-15 -76h-414zM420 740h122l-160 -130h-80z" />
    <glyph glyph-name="Zdotaccent" unicode="&#x17b;" horiz-adv-x="556" 
d="M50 90l469 522h-351l18 88h465l-18 -90l-467 -522h367l-18 -88h-483zM502 752h-112l21 102h112z" />
    <glyph glyph-name="zdotaccent" unicode="&#x17c;" horiz-adv-x="500" 
d="M60 82l365 352h-280l15 76h389l-16 -82l-366 -352h305l-15 -76h-414zM428 614h-106l21 106h106z" />
    <glyph glyph-name="Zcaron" unicode="&#x17d;" horiz-adv-x="556" 
d="M50 90l469 522h-351l18 88h465l-18 -90l-467 -522h367l-18 -88h-483zM368 750l-72 120h86l51 -70l85 70h96l-126 -120h-120z" />
    <glyph glyph-name="zcaron" unicode="&#x17e;" horiz-adv-x="500" 
d="M60 82l365 352h-280l15 76h389l-16 -82l-366 -352h305l-15 -76h-414zM415 610h-92l-71 130h74l48 -84l92 84h76z" />
    <glyph glyph-name="uni018F" unicode="&#x18f;" horiz-adv-x="667" 
d="M584 375q4 17 5 32.5t1 32.5q0 27 -6 54.5t-20 50.5q-8 12 -20 26t-30 25t-42.5 18.5t-55.5 7.5q-52 0 -106 -20.5t-96 -49.5l23 113l18 7q29 11 74 24.5t113 13.5q54 0 104.5 -17t89.5 -64q23 -27 41.5 -73.5t18.5 -119.5q0 -44 -10 -93t-29 -97t-46.5 -91t-61.5 -75
q-16 -15 -37.5 -30.5t-49 -29t-61.5 -22t-74 -8.5q-46 0 -85 12t-71 48q-19 21 -31 44.5t-18.5 47t-8.5 46t-2 42.5q0 56 12 112l7 33h454zM222 287q-2 -12 -3.5 -24.5t-1.5 -24.5q0 -28 3 -54.5t22 -53.5q14 -20 39.5 -36t69.5 -16q34 0 72 15.5t75 60.5q24 29 41 63.5
t27 69.5h-344z" />
    <glyph glyph-name="florin" unicode="&#x192;" 
d="M130 -218q-15 0 -30.5 1.5t-29.5 6.5v78q13 -4 24.5 -6t25.5 -2q17 0 29.5 7t22 23.5t18 43.5t16.5 66l71 341h-104l13 76h104l17 93q10 58 23.5 96t31.5 60.5t42 32t56 9.5q19 0 40.5 -3.5t39.5 -8.5v-78q-17 7 -28.5 9.5t-26.5 2.5t-26 -5t-19.5 -18.5t-15 -37
t-13.5 -59.5l-17 -93h104l-13 -76h-104l-71 -341q-14 -66 -29.5 -108.5t-36 -66.5t-48.5 -33.5t-66 -9.5z" />
    <glyph glyph-name="uni01CF" unicode="&#x1cf;" horiz-adv-x="288" 
d="M236 700h100l-142 -700h-100zM235 750l-72 120h86l51 -70l85 70h96l-126 -120h-120z" />
    <glyph glyph-name="uni01D0" unicode="&#x1d0;" horiz-adv-x="254" 
d="M183 510h94l-103 -510h-94zM293 610h-92l-71 130h74l48 -84l92 84h76z" />
    <glyph glyph-name="uni01DD" unicode="&#x1dd;" horiz-adv-x="557" 
d="M466 276q2 11 2.5 21.5t0.5 21.5q0 19 -6 37t-17 33q-12 17 -39.5 35t-77.5 18q-21 0 -43 -4t-44 -11t-42 -16.5t-36 -19.5l19 94l15 5q15 5 29.5 10t32 9t39.5 6.5t52 2.5q17 0 40.5 -1.5t49 -9t50 -22t43.5 -40.5q22 -29 28.5 -62.5t6.5 -59.5q0 -77 -30.5 -149.5
t-97.5 -123.5q-41 -31 -84.5 -44.5t-91.5 -13.5q-18 0 -38.5 2.5t-40.5 10.5t-38.5 22t-32.5 37q-16 25 -21 55t-5 59q0 15 1.5 34.5t5.5 36.5l6 27h364zM188 206q-3 -12 -3.5 -23.5t-0.5 -23.5t4 -23t10 -22q9 -15 30 -30.5t62 -15.5q62 0 112 51q8 8 23.5 30t26.5 57h-264
z" />
    <glyph glyph-name="Gcaron" unicode="&#x1e6;" horiz-adv-x="731" 
d="M744 575q-17 12 -33 20t-39 14q-11 3 -38 8t-65 5q-60 0 -108 -16t-87 -44q-35 -25 -61.5 -58t-45 -69.5t-28 -75t-9.5 -74.5q0 -46 12.5 -80t34.5 -59q28 -32 73.5 -50t105.5 -18q7 0 19 0.5t25.5 2t26 2.5t19.5 3l15 3l43 212h-147l17 82h146h101l-74 -362
q-48 -15 -101.5 -23t-107.5 -8q-24 0 -55.5 3t-65.5 12t-67 27t-61 48q-38 42 -51.5 90t-13.5 92q0 48 11 97.5t33 96t55.5 88.5t79.5 76q55 41 123 65.5t153 24.5q27 0 59 -3t62 -9q23 -5 40.5 -10.5t32.5 -12.5zM516 750l-72 120h86l51 -70l85 70h96l-126 -120h-120z" />
    <glyph glyph-name="gcaron" unicode="&#x1e7;" horiz-adv-x="611" 
d="M535 22q-4 -21 -11 -44.5t-18.5 -48t-28.5 -47t-41 -42.5q-36 -29 -88.5 -46.5t-124.5 -17.5q-21 0 -67 5.5t-109 29.5l28 87q60 -32 104 -39t64 -7q45 0 79 13.5t60 40.5q20 22 36.5 52t24.5 71l10 50h-2q-23 -24 -45 -37.5t-40 -21.5q-34 -14 -62.5 -17t-39.5 -3
q-43 0 -77 14.5t-60 46.5q-22 27 -30 57t-8 65q0 66 25.5 133.5t81.5 122.5q47 46 95.5 62.5t94.5 16.5q23 0 49 -6t46 -18q19 -11 30.5 -26.5t18.5 -33.5h2l15 76h87zM303 76q25 0 59 10.5t66 45.5q15 16 27 36.5t20.5 43.5t13.5 47.5t5 47.5q0 22 -4 45t-13 39
q-4 7 -11 16t-18.5 16.5t-28.5 13t-39 5.5q-37 0 -67 -16t-52 -39q-16 -17 -28.5 -39t-21.5 -47t-14 -50.5t-5 -49.5q0 -20 5 -41.5t14 -36.5q9 -14 30 -30.5t62 -16.5zM454 610h-92l-71 130h74l48 -84l92 84h76z" />
    <glyph glyph-name="Scommaaccent" unicode="&#x218;" horiz-adv-x="500" 
d="M526 593q-37 18 -68.5 23.5t-56.5 5.5q-26 0 -46.5 -4.5t-36.5 -12.5q-31 -15 -46.5 -41t-15.5 -49q0 -14 6 -26t15 -23q17 -20 37 -29.5t45 -23.5l23 -13q35 -20 60.5 -39.5t41.5 -53.5q8 -17 10 -33t2 -38q0 -64 -23.5 -110t-71.5 -81q-47 -35 -97 -45t-98 -10
q-29 0 -65.5 6t-81.5 23l28 92q29 -14 67.5 -23.5t71.5 -9.5q26 0 58 8t54 25q23 17 36.5 45t13.5 57q0 35 -23 58q-11 10 -28.5 21t-54.5 32l-39 22q-35 20 -55 39.5t-28 36.5q-10 20 -11.5 39.5t-1.5 27.5q0 48 26 96t74 80q25 16 51 25t49 13.5t41 5.5t27 1q50 0 85.5 -8
t58.5 -17zM204 -50h110l-110 -198h-80z" />
    <glyph glyph-name="scommaaccent" unicode="&#x219;" horiz-adv-x="406" 
d="M74 103q32 -20 61.5 -27.5t50.5 -7.5q47 0 80 25q15 12 23 27t8 29q0 8 -3.5 19.5t-15.5 22.5q-2 2 -12 9t-42 24l-24 13q-16 8 -36.5 23t-32.5 39q-5 9 -8.5 22.5t-3.5 33.5q0 11 2.5 25.5t9.5 30.5t19.5 32t32.5 31q32 23 70.5 33.5t76.5 10.5q20 0 49.5 -4t63.5 -16
l-24 -80q-21 13 -40 17q-11 3 -23 5t-26 2q-17 0 -35 -2.5t-34 -10.5q-27 -13 -34.5 -30.5t-7.5 -28.5q0 -21 15 -38q7 -8 20.5 -16.5t42.5 -22.5l14 -7q26 -14 42 -26t24 -23q20 -26 20 -70q0 -14 -3 -30t-11.5 -34t-23.5 -36t-38 -34q-32 -22 -66.5 -31.5t-75.5 -9.5
q-43 0 -73.5 8.5t-53.5 19.5zM152 -50h100l-105 -170h-70z" />
    <glyph glyph-name="Tcommaaccent" unicode="&#x21a;" horiz-adv-x="556" 
d="M352 612h-217l18 88h534l-18 -88h-217l-124 -612h-100zM252 -50h110l-110 -198h-80z" />
    <glyph glyph-name="tcommaaccent" unicode="&#x21b;" horiz-adv-x="375" 
d="M345 658l-30 -148h141l-15 -76h-141l-56 -275q-1 -5 -2.5 -16.5t-1.5 -19.5q0 -22 16 -37q10 -9 24 -13.5t29 -4.5q14 0 31 4.5t32 13.5l-16 -80q-44 -14 -86 -14q-29 0 -57 8t-46 27q-26 26 -26 71q0 19 5 42l60 294h-111l15 76h111l24 118zM202 -50h100l-105 -170h-70z
" />
    <glyph glyph-name="uni0259" unicode="&#x259;" 
d="M249 -8q-80 0 -120.5 37.5t-40.5 100.5q0 39 17 71t59 56t113 38t180 16v9q0 54 -35 88t-98 34q-46 0 -92 -16.5t-79 -36.5l19 96q17 7 34 13t36.5 10.5t43 7t53.5 2.5q109 0 164 -52.5t55 -145.5q0 -72 -24 -132.5t-65.5 -104t-98 -67.5t-121.5 -24zM264 68
q63 0 113.5 43t70.5 125q-84 -2 -136 -10.5t-80.5 -22.5t-38.5 -32.5t-10 -40.5q0 -28 19.5 -45t61.5 -17z" />
    <glyph glyph-name="afii57929" unicode="&#x2bc;" horiz-adv-x="180" 
d="M195 762h100l-104 -168h-70z" />
    <glyph glyph-name="circumflex" unicode="&#x2c6;" horiz-adv-x="278" 
d="M239 740h92l71 -130h-74l-48 84l-92 -84h-76z" />
    <glyph glyph-name="caron" unicode="&#x2c7;" horiz-adv-x="278" 
d="M304 610h-92l-71 130h74l48 -84l92 84h76z" />
    <glyph glyph-name="uni02C9" unicode="&#x2c9;" horiz-adv-x="278" 
d="M130 722h296l-14 -70h-296z" />
    <glyph glyph-name="breve" unicode="&#x2d8;" horiz-adv-x="278" 
d="M191 740q-2 -33 19 -52.5t59 -19.5q7 0 22 1.5t31.5 8.5t32 21.5t24.5 40.5h60q-19 -66 -68 -104t-113 -38q-33 0 -58.5 11t-42 30t-23.5 45t-3 56h60z" />
    <glyph glyph-name="dotaccent" unicode="&#x2d9;" horiz-adv-x="278" 
d="M317 614h-106l21 106h106z" />
    <glyph glyph-name="ring" unicode="&#x2da;" horiz-adv-x="282" 
d="M172 646q0 23 11.5 47t32.5 42q1 1 8 6t17.5 11t24.5 10.5t30 4.5q17 0 33.5 -6t28.5 -19q11 -11 16.5 -26t5.5 -32t-7.5 -39t-30.5 -44q-20 -20 -43 -29t-44 -9q-37 0 -60 23q-8 8 -15.5 22.5t-7.5 37.5zM213 647q0 -6 2 -14t10 -16q7 -7 17 -10.5t21 -3.5q16 0 30 6.5
t24 16.5q9 9 15.5 23t6.5 28t-4 22t-7 11q-14 17 -40 17q-12 0 -25.5 -5t-24.5 -15q-11 -11 -18 -27t-7 -33z" />
    <glyph glyph-name="ogonek" unicode="&#x2db;" horiz-adv-x="216" 
d="M172 0q-36 -23 -55 -39.5t-30 -29.5q-10 -13 -21 -32.5t-11 -39.5q0 -17 9 -27q12 -13 31 -13q39 0 70 20l10 -42q-31 -18 -59.5 -24.5t-50.5 -6.5q-51 0 -74 23q-6 6 -13 18.5t-7 33.5q0 18 5 33.5t12 28t14.5 21.5t12.5 14q14 14 36 31t54 31h67z" />
    <glyph glyph-name="tilde" unicode="&#x2dc;" horiz-adv-x="523" 
d="M219 586q5 19 15 39t21 34q17 21 37.5 30t39.5 9q14 0 26 -4t22 -9l25 -12q16 -8 30 -14.5t32 -6.5q16 0 24.5 6t13.5 12q4 5 8.5 14t6.5 14h44q-5 -16 -14 -34.5t-18 -31.5q-20 -28 -42 -37t-39 -9q-15 0 -27 4t-22 9l-25 12q-16 8 -30 14.5t-32 6.5q-14 0 -21.5 -4
t-13.5 -11q-5 -6 -10 -14.5t-8 -16.5h-43z" />
    <glyph glyph-name="hungarumlaut" unicode="&#x2dd;" horiz-adv-x="278" 
d="M218 740h110l-157 -130h-70zM399 740h110l-157 -130h-70z" />
    <glyph glyph-name="gravecomb" unicode="&#x300;" horiz-adv-x="2" 
d="M-85 610h-76l-104 130h120z" />
    <glyph glyph-name="acutecomb" unicode="&#x301;" horiz-adv-x="2" 
d="M-90 740h122l-160 -130h-80z" />
    <glyph glyph-name="uni037E" unicode="&#x37e;" horiz-adv-x="278" 
d="M106 112h112l-135 -245h-90zM276 398h-112l22 112h112z" />
    <glyph glyph-name="uni0394" unicode="&#x394;" horiz-adv-x="712" 
d="M447 700h105l148 -700h-688zM477 606l-310 -524h409z" />
    <glyph glyph-name="uni03A9" unicode="&#x3a9;" horiz-adv-x="769" 
d="M457 164q45 5 76 22t51 35q21 19 39.5 46t31.5 57t20.5 60.5t7.5 58.5q0 26 -6.5 58t-23.5 56q-7 10 -18.5 21.5t-29 21t-42 16t-56.5 6.5q-52 0 -90.5 -15t-66.5 -36q-51 -38 -82 -102t-31 -142q0 -22 5.5 -50t24.5 -54q17 -22 43.5 -38t60.5 -21l-33 -164h-272l18 147
l80 5l-9 -72h116l9 44q-38 11 -66 31.5t-44 43.5q-18 26 -27.5 59.5t-9.5 68.5q0 37 8 78t26.5 81.5t48 78.5t72.5 70q53 40 108 57.5t129 17.5q60 0 109.5 -15.5t90.5 -55.5q36 -35 51 -77.5t15 -90.5q0 -69 -30 -142t-90 -130q-33 -31 -67 -49t-73 -26l-9 -44h117l20 72
l79 -5l-43 -147h-271z" />
    <glyph glyph-name="uni03BC" unicode="&#x3bc;" horiz-adv-x="611" 
d="M531 0h-91l16 81h-2q-14 -19 -33.5 -37t-42.5 -30q-24 -13 -52 -19.5t-57 -6.5q-14 0 -28.5 2t-30.5 9q-20 8 -31 24l-50 -247h-94l148 734h94l-53 -264q-4 -20 -8.5 -43t-4.5 -46q0 -27 9 -48q11 -24 30 -34.5t45 -10.5q36 0 70 14t61 46q17 20 35.5 55.5t30.5 94.5
l48 236h94z" />
    <glyph glyph-name="pi" unicode="&#x3c0;" horiz-adv-x="669" 
d="M257 0h-94l88 434h-9q-5 0 -16.5 -1t-26 -6t-31 -16t-31.5 -31l-33 59q20 23 41.5 37t45 21.5t49 10t53.5 2.5h464l-15 -76h-70l-88 -434h-94l88 434h-233z" />
    <glyph glyph-name="afii10023" unicode="&#x401;" horiz-adv-x="554" 
d="M236 700h98h293l-18 -88h-291l-42 -205h265l-17 -88h-265l-47 -231h291l-18 -88h-291h-100zM405 852l-21 -100h-106l21 100h106zM621 852l-21 -100h-106l21 100h106z" />
    <glyph glyph-name="afii10051" unicode="&#x402;" horiz-adv-x="799" 
d="M343 612h-204l18 88h534l-18 -88h-230l-42 -208q21 14 41 22t42 15q29 9 56.5 13t58.5 4q33 0 64 -9t58 -32q30 -26 40.5 -55t10.5 -63q0 -29 -5 -59.5t-14.5 -60t-23 -56.5t-29.5 -48q-29 -35 -75 -60t-118 -25q-43 0 -82 13l23 82q20 -8 38 -11t34 -3q58 0 95 43
q12 14 21.5 33.5t16 41.5t10 44t3.5 41t-3.5 40t-22.5 38q-12 11 -33.5 18.5t-55.5 7.5q-26 0 -48 -4.5t-46 -13.5q-21 -8 -38.5 -17t-34.5 -20l-65 -323h-100z" />
    <glyph glyph-name="afii10052" unicode="&#x403;" horiz-adv-x="475" 
d="M236 700h99h272l-18 -88h-271l-124 -612h-100zM593 870l-141 -120h-100l105 120h136z" />
    <glyph glyph-name="afii10053" unicode="&#x404;" horiz-adv-x="637" 
d="M693 583q-19 13 -52 26t-84 13q-48 0 -95 -14t-88 -42q-35 -24 -68.5 -63t-56.5 -96h268l-17 -88h-271q-3 -20 -3 -38q0 -31 9 -61t26 -56q24 -35 67 -60.5t114 -25.5q26 0 64 5.5t95 28.5l-14 -97q-47 -17 -83 -21t-68 -4q-31 0 -64 3t-65.5 12.5t-63 26t-55.5 43.5
q-23 24 -36.5 51t-21 53t-10 49t-2.5 41q0 51 12 102t36 98.5t61 89t87 74.5q62 41 130 59t131 18q57 0 90 -9.5t56 -20.5z" />
    <glyph glyph-name="afii10054" unicode="&#x405;" horiz-adv-x="500" 
d="M526 593q-37 18 -68.5 23.5t-56.5 5.5q-26 0 -46.5 -4.5t-36.5 -12.5q-31 -15 -46.5 -41t-15.5 -49q0 -14 6 -26t15 -23q17 -20 37 -29.5t45 -23.5l23 -13q35 -20 60.5 -39.5t41.5 -53.5q8 -17 10 -33t2 -38q0 -64 -23.5 -110t-71.5 -81q-47 -35 -97 -45t-98 -10
q-29 0 -65.5 6t-81.5 23l28 92q29 -14 67.5 -23.5t71.5 -9.5q26 0 58 8t54 25q23 17 36.5 45t13.5 57q0 35 -23 58q-11 10 -28.5 21t-54.5 32l-39 22q-35 20 -55 39.5t-28 36.5q-10 20 -11.5 39.5t-1.5 27.5q0 48 26 96t74 80q25 16 51 25t49 13.5t41 5.5t27 1q50 0 85.5 -8
t58.5 -17z" />
    <glyph glyph-name="afii10055" unicode="&#x406;" horiz-adv-x="288" 
d="M236 700h100l-142 -700h-100z" />
    <glyph glyph-name="afii10056" unicode="&#x407;" horiz-adv-x="288" 
d="M236 700h100l-142 -700h-100zM296 852l-21 -100h-100l21 100h100zM440 852l-21 -100h-100l21 100h100z" />
    <glyph glyph-name="afii10057" unicode="&#x408;" horiz-adv-x="389" 
d="M39 88q23 -7 37.5 -8.5t23.5 -1.5q35 0 57.5 9t36.5 23q21 20 32 49.5t16 55.5l98 485h100l-105 -517q-3 -14 -8 -32t-15 -38.5t-25 -40.5t-37 -37q-59 -45 -153 -45q-32 0 -50 4.5t-26 7.5z" />
    <glyph glyph-name="afii10058" unicode="&#x409;" horiz-adv-x="946" 
d="M58 -10q-11 0 -20 1t-15 3q-7 2 -13 4l18 87q5 -2 9 -3q10 -2 20 -2q19 0 36.5 8t35 28.5t35 56t35.5 91t37.5 133.5t40.5 183l24 120h401l-53 -260h101q104 0 153.5 -46.5t49.5 -123.5q0 -63 -20.5 -113.5t-58.5 -85t-92 -53t-121 -18.5h-200l123 612h-204l-7 -32
q-36 -180 -70 -294.5t-70.5 -180.5t-79 -90.5t-95.5 -24.5zM844 249q0 54 -27 78.5t-85 24.5h-100l-53 -264h99q76 0 121 39t45 122z" />
    <glyph glyph-name="afii10059" unicode="&#x40a;" horiz-adv-x="1003" 
d="M585 330h-324l-67 -330h-100l142 700h100l-57 -282h324l57 282h100l-57 -282h54h16q23 0 48 -1t49.5 -5.5t48 -13t42.5 -24.5q30 -26 39.5 -57.5t9.5 -64.5q0 -35 -8.5 -65t-22 -54.5t-30.5 -44t-35 -32.5q-49 -37 -105 -46.5t-111 -9.5h-79h-101zM636 88h69q15 0 33 0.5
t36.5 3.5t37 9t34.5 17q26 18 41.5 48.5t15.5 65.5q0 23 -6 38.5t-14 25.5q-11 12 -25 19t-29.5 10t-31 4t-29.5 1h-12h-71z" />
    <glyph glyph-name="afii10060" unicode="&#x40b;" horiz-adv-x="799" 
d="M343 612h-204l18 88h534l-18 -88h-230l-42 -208q26 13 46 20t43 15q26 8 50 13.5t63 5.5q15 0 32.5 -1t36 -5.5t36.5 -12.5t32 -22q17 -16 27 -39.5t10 -53.5q0 -13 -2 -25t-4 -25l-55 -274h-100l50 246q2 11 4 21.5t2 21.5q0 16 -3.5 31t-14.5 28q-18 20 -44 25t-44 5
q-30 0 -52 -5.5t-45 -13.5q-21 -7 -40.5 -14.5t-44.5 -21.5l-65 -323h-100z" />
    <glyph glyph-name="afii10061" unicode="&#x40c;" horiz-adv-x="638" 
d="M236 700h100l-63 -308l351 308h136l-393 -329l280 -371h-136l-247 349l-70 -349h-100zM611 870l-141 -120h-100l105 120h136z" />
    <glyph glyph-name="afii10062" unicode="&#x40e;" horiz-adv-x="581" 
d="M264 700l106 -404l254 404h103l-388 -602q-13 -20 -34 -44t-39 -37q-23 -16 -48.5 -21.5t-52.5 -5.5q-18 0 -37.5 4t-38.5 10l28 87q11 -5 25 -9t33 -4t31 4.5t20 9.5t20.5 18.5t18.5 23.5l35 57l-143 509h107zM440 749q-26 0 -48.5 6t-39.5 19.5t-27 33.5t-10 49
q0 6 0.5 12.5t1.5 13.5l79 8q-1 -5 -1 -9v-8q0 -28 13 -43t45 -15q37 0 57.5 19.5t31.5 55.5l75 -8q-9 -36 -27 -61t-42 -41.5t-52 -24t-56 -7.5z" />
    <glyph glyph-name="afii10145" unicode="&#x40f;" horiz-adv-x="708" 
d="M336 700l-124 -612h320l124 612h100l-142 -700h-211l-32 -156h-98l32 156h-211l142 700h100z" />
    <glyph glyph-name="afii10017" unicode="&#x410;" horiz-adv-x="584" 
d="M435 261l-28 309h-2l-154 -309h184zM379 700h110l83 -700h-106l-21 177h-238l-93 -177h-102z" />
    <glyph glyph-name="afii10018" unicode="&#x411;" horiz-adv-x="596" 
d="M236 700h101h301l-18 -88h-302l-41 -200h91q39 0 68 -4.5t48.5 -11t31.5 -13.5t17 -11q9 -7 19 -17.5t19 -25.5t14.5 -34.5t5.5 -44.5q0 -55 -24.5 -107t-70.5 -87q-50 -37 -105.5 -46.5t-110.5 -9.5h-84h-102zM212 88h75q15 0 33 0.5t36.5 3.5t37 9t34.5 17
q24 17 40.5 49t16.5 72q0 21 -8 38t-28 31q-23 16 -52.5 19t-58.5 3h-77z" />
    <glyph glyph-name="afii10019" unicode="&#x412;" horiz-adv-x="608" 
d="M236 700h99h90q16 0 38.5 -1t47 -5.5t49 -14t43.5 -27.5q20 -19 28.5 -41t8.5 -48q0 -53 -20 -89t-43 -57q-22 -20 -52.5 -36t-68.5 -24v-2q29 -2 55.5 -13.5t44.5 -29.5q19 -20 25.5 -41t6.5 -41q0 -60 -24.5 -104.5t-60.5 -70.5q-26 -18 -56 -29t-60 -17t-58 -7.5
t-49 -1.5h-86h-100zM211 82h75q15 0 35 1t40.5 5t40.5 11.5t36 21.5q19 16 32.5 42.5t13.5 58.5q0 24 -10 43.5t-33 33.5q-18 11 -45.5 15.5t-71.5 4.5h-65zM275 401h55h15q31 0 67 4.5t65 24.5q25 17 41.5 47.5t16.5 63.5q0 18 -6 31.5t-21 24.5q-17 11 -41 16t-43 5h-105z
" />
    <glyph glyph-name="afii10020" unicode="&#x413;" horiz-adv-x="475" 
d="M236 700h99h272l-18 -88h-271l-124 -612h-100z" />
    <glyph glyph-name="afii10021" unicode="&#x414;" horiz-adv-x="675" 
d="M87 88q7 9 20 26.5t29 43t33 56.5t32 67q7 16 14.5 37.5t16.5 50t19 66t21 86.5l41 179h304h100l-124 -612h80l-50 -244h-98l32 156h-449l-32 -156h-98l50 244h59zM384 612l-36 -148q-6 -26 -12.5 -50.5t-13.5 -49t-16.5 -50.5t-21.5 -56q-20 -48 -43 -88t-56 -82h308
l106 524h-215z" />
    <glyph glyph-name="afii10022" unicode="&#x415;" horiz-adv-x="554" 
d="M236 700h98h293l-18 -88h-291l-42 -205h265l-17 -88h-265l-47 -231h291l-18 -88h-291h-100z" />
    <glyph glyph-name="afii10024" unicode="&#x416;" horiz-adv-x="933" 
d="M595 392h7l314 308h118l-340 -331l223 -369h-130l-195 343h-7l-69 -343h-100l69 343h-7l-333 -343h-130l373 369l-206 331h118l188 -308h7l63 308h100z" />
    <glyph glyph-name="afii10025" unicode="&#x417;" horiz-adv-x="577" 
d="M311 401q32 0 64.5 6.5t58.5 22.5q10 6 20.5 15t19.5 21.5t15 28.5t6 36q0 26 -7.5 41t-15.5 22q-10 10 -23 15.5t-26 8.5t-25 3.5t-20 0.5q-32 0 -61.5 -5t-53.5 -11.5t-41 -12.5t-23 -9l9 92q42 14 95.5 24t101.5 10q39 0 82 -11t71 -34q29 -24 38 -53.5t9 -53.5
q0 -28 -6 -50.5t-15.5 -40t-20.5 -30.5t-21 -21q-18 -16 -43.5 -28.5t-54.5 -19.5l-1 -4q29 -4 52 -16.5t38 -30.5q16 -19 21.5 -39.5t5.5 -41.5q0 -23 -5 -48t-18 -50.5t-34 -49.5t-52 -45q-46 -30 -96.5 -41.5t-107.5 -11.5t-102 11t-88 33l29 91q52 -29 98 -38t79 -9
q32 0 62.5 6t59.5 23q43 25 56 58t13 63q0 19 -7.5 36t-25.5 30q-4 3 -11.5 7t-20.5 8t-31.5 7t-44.5 3h-63l16 82h45z" />
    <glyph glyph-name="afii10026" unicode="&#x418;" horiz-adv-x="745" 
d="M236 700h100l-97 -477l-20 -87h5q14 20 24.5 34.5t20 26.5t19 23.5t21.5 25.5l372 454h14h98l-142 -700h-100l97 477l20 87h-5q-14 -21 -25 -36t-21 -27.5t-19.5 -23.5t-19.5 -23l-372 -454h-12h-100z" />
    <glyph glyph-name="afii10027" unicode="&#x419;" horiz-adv-x="745" 
d="M236 700h100l-97 -477l-20 -87h5q14 20 24.5 34.5t20 26.5t19 23.5t21.5 25.5l372 454h14h98l-142 -700h-100l97 477l20 87h-5q-14 -21 -25 -36t-21 -27.5t-19.5 -23.5t-19.5 -23l-372 -454h-12h-100zM516 749q-26 0 -48.5 6t-39.5 19.5t-27 33.5t-10 49q0 6 0.5 12.5
t1.5 13.5l79 8q-1 -5 -1 -9v-8q0 -28 13 -43t45 -15q37 0 57.5 19.5t31.5 55.5l75 -8q-9 -36 -27 -61t-42 -41.5t-52 -24t-56 -7.5z" />
    <glyph glyph-name="afii10028" unicode="&#x41a;" horiz-adv-x="638" 
d="M236 700h100l-63 -308l351 308h136l-393 -329l280 -371h-136l-247 349l-70 -349h-100z" />
    <glyph glyph-name="afii10029" unicode="&#x41b;" horiz-adv-x="662" 
d="M58 -10q-11 0 -20 1t-15 3q-7 2 -13 4l18 87q5 -2 9 -3q10 -2 20 -2q19 0 36.5 8t35 28.5t35 56t35.5 91t37.5 133.5t40.5 183l24 120h409l-140 -700h-100l123 612h-213l-7 -32q-36 -180 -70 -294.5t-70.5 -180.5t-79 -90.5t-95.5 -24.5z" />
    <glyph glyph-name="afii10030" unicode="&#x41c;" horiz-adv-x="858" 
d="M236 700h159l96 -403l261 403h154l-142 -700h-100l121 600h-2l-263 -400h-100l-103 400h-2l-121 -600h-100z" />
    <glyph glyph-name="afii10031" unicode="&#x41d;" horiz-adv-x="722" 
d="M236 700h100l-60 -293h334l60 293h100l-142 -700h-100l65 319h-334l-65 -319h-100z" />
    <glyph glyph-name="afii10032" unicode="&#x41e;" horiz-adv-x="780" 
d="M535 710q48 0 84.5 -9.5t64.5 -24.5t47.5 -34t31.5 -38q23 -37 32.5 -86t9.5 -89q0 -42 -9 -86.5t-27 -88.5t-45.5 -84.5t-63.5 -74.5q-52 -48 -119 -76.5t-152 -28.5q-30 0 -61 4.5t-59.5 15.5t-54.5 30t-47 48q-20 29 -35 71.5t-15 101.5q0 44 10 91t29 92t46 86.5
t61 73.5q19 18 45.5 37t60 34.5t75 25t91.5 9.5zM517 622q-44 0 -93 -17.5t-94 -62.5q-50 -50 -78.5 -120.5t-28.5 -145.5q0 -26 5 -62t28 -68q17 -24 53.5 -46t97.5 -22q45 0 93.5 16.5t93.5 63.5q23 24 42.5 55t33.5 66.5t21.5 73.5t7.5 77q0 29 -7 63.5t-30 64.5
q-19 25 -54.5 44.5t-90.5 19.5z" />
    <glyph glyph-name="afii10033" unicode="&#x41f;" horiz-adv-x="709" 
d="M236 700h98h324h99l-142 -700h-100l124 612h-321l-124 -612h-100z" />
    <glyph glyph-name="afii10034" unicode="&#x420;" horiz-adv-x="570" 
d="M265 348h90q86 0 132.5 44.5t46.5 117.5q0 47 -30.5 74.5t-93.5 27.5h-92zM236 700h194q108 0 160.5 -49.5t52.5 -140.5q0 -53 -20 -98.5t-59 -79t-95.5 -53t-128.5 -19.5h-93l-53 -260h-100z" />
    <glyph glyph-name="afii10035" unicode="&#x421;" horiz-adv-x="628" 
d="M692 583q-19 13 -52 26t-84 13q-48 0 -94 -14t-88 -42q-37 -25 -65 -57.5t-46.5 -69.5t-28 -76.5t-9.5 -77.5q0 -35 9 -70t29 -61q9 -12 23.5 -25t37 -24.5t53.5 -19t72 -7.5q23 0 61.5 5.5t88.5 27.5l-13 -96q-50 -17 -87.5 -21t-69.5 -4q-27 0 -59.5 3t-66 13t-66 30
t-60.5 55q-25 31 -42 74.5t-17 101.5q0 43 10 92t33.5 98t61 95t91.5 82q63 42 130 59t130 17q57 0 90 -9.5t56 -20.5z" />
    <glyph glyph-name="afii10036" unicode="&#x422;" horiz-adv-x="556" 
d="M352 612h-217l18 88h534l-18 -88h-217l-124 -612h-100z" />
    <glyph glyph-name="afii10037" unicode="&#x423;" horiz-adv-x="581" 
d="M264 700l106 -404l254 404h103l-388 -602q-13 -20 -34 -44t-39 -37q-23 -16 -48.5 -21.5t-52.5 -5.5q-18 0 -37.5 4t-38.5 10l28 87q11 -5 25 -9t33 -4t31 4.5t20 9.5t20.5 18.5t18.5 23.5l35 57l-143 509h107z" />
    <glyph glyph-name="afii10038" unicode="&#x424;" horiz-adv-x="861" 
d="M610 638h26q47 0 94.5 -14t79.5 -41q28 -23 50 -66.5t22 -104.5q0 -36 -9 -73t-26.5 -72t-43.5 -66t-60 -55q-41 -28 -96.5 -46t-122.5 -18h-26l-19 -92h-100l19 92h-26q-38 0 -67.5 6t-52.5 15t-40 20t-28 22q-27 26 -43 63t-16 89q0 39 10 78.5t29.5 76t48.5 69
t68 57.5q12 8 31 18.5t45 19.5t57.5 15.5t69.5 6.5h26l18 90h100zM514 164h28q14 0 33 2t40 8t43.5 17.5t43.5 31.5q35 33 54.5 83.5t19.5 107.5q0 34 -11 60.5t-28 43.5t-46 27.5t-69 10.5h-28zM466 556q-11 0 -28 -1.5t-37.5 -7t-43 -17t-44.5 -30.5q-41 -36 -61.5 -87.5
t-20.5 -105.5q0 -22 5 -47t27 -49q15 -16 31.5 -25.5t33 -14t31.5 -6t27 -1.5h28l80 392h-28z" />
    <glyph glyph-name="afii10039" unicode="&#x425;" horiz-adv-x="667" 
d="M339 364l-166 336h120l131 -269l240 269h114l-303 -334l184 -366h-126l-146 297l-259 -297h-120z" />
    <glyph glyph-name="afii10040" unicode="&#x426;" horiz-adv-x="703" 
d="M336 700l-124 -612h309l124 612h100l-124 -612h80l-50 -244h-98l32 156h-390h-101l142 700h100z" />
    <glyph glyph-name="afii10041" unicode="&#x427;" horiz-adv-x="653" 
d="M518 293q-43 -11 -91 -17.5t-98 -6.5q-42 0 -72 6t-51 16t-34 21.5t-20 23.5q-16 26 -16 60q0 28 6 60l50 244h100l-43 -210q-6 -29 -6 -55q0 -13 4 -28t21 -28q9 -7 23.5 -11t30 -6.5t31 -3.5t27.5 -1q14 0 56.5 3t99.5 20l65 320h100l-142 -700h-100z" />
    <glyph glyph-name="afii10042" unicode="&#x428;" horiz-adv-x="904" 
d="M336 700l-124 -612h208l124 612h100l-124 -612h208l124 612h100l-142 -700h-98h-520h-98l142 700h100z" />
    <glyph glyph-name="afii10043" unicode="&#x429;" horiz-adv-x="910" 
d="M336 700l-124 -612h208l124 612h100l-124 -612h208l124 612h100l-124 -612h80l-50 -244h-98l32 156h-599h-99l142 700h100z" />
    <glyph glyph-name="afii10044" unicode="&#x42a;" horiz-adv-x="644" 
d="M284 612h-165l18 88h265l-53 -260h100q104 0 153.5 -46.5t49.5 -123.5q0 -63 -20.5 -113.5t-58.5 -85t-92 -53t-121 -18.5h-200zM543 249q0 54 -27 78.5t-85 24.5h-100l-54 -264h100q76 0 121 39t45 122z" />
    <glyph glyph-name="afii10045" unicode="&#x42b;" horiz-adv-x="831" 
d="M477 249q0 54 -27 78.5t-85 24.5h-100l-54 -264h100q76 0 121 39t45 122zM236 700h100l-53 -260h100q104 0 153.5 -46.5t49.5 -123.5q0 -63 -20.5 -113.5t-58.5 -85t-92 -53t-121 -18.5h-200zM779 700h100l-142 -700h-100z" />
    <glyph glyph-name="afii10046" unicode="&#x42c;" horiz-adv-x="579" 
d="M477 249q0 54 -27 78.5t-85 24.5h-100l-54 -264h100q76 0 121 39t45 122zM236 700h100l-53 -260h100q104 0 153.5 -46.5t49.5 -123.5q0 -63 -20.5 -113.5t-58.5 -85t-92 -53t-121 -18.5h-200z" />
    <glyph glyph-name="afii10047" unicode="&#x42d;" horiz-adv-x="640" 
d="M192 680q26 11 63 20.5t95 9.5q76 0 134.5 -21t96.5 -57q24 -23 39 -48t23.5 -51t11.5 -51t3 -48q0 -61 -12 -111.5t-31.5 -91.5t-44 -73t-50.5 -55q-69 -63 -151 -88t-172 -25q-31 0 -65.5 4t-75.5 21l26 97q42 -22 76 -28t62 -6q41 0 74.5 7t60.5 18.5t48 25t36 27.5
q25 23 43 48.5t29.5 48.5t18 40.5t8.5 25.5h-271l17 88h271v10q0 54 -19.5 92.5t-42.5 59.5q-8 7 -21 16t-32.5 17t-46 14t-61.5 6q-23 0 -63 -6.5t-89 -32.5z" />
    <glyph glyph-name="afii10048" unicode="&#x42e;" horiz-adv-x="1031" 
d="M396 407q17 51 46.5 103t74.5 94q34 33 70 53.5t71 32t67.5 16t59.5 4.5q69 0 123 -22.5t87 -60.5q26 -31 43.5 -78t17.5 -110q0 -97 -35.5 -186.5t-110.5 -157.5q-52 -48 -119 -76.5t-152 -28.5q-48 0 -84.5 10t-63.5 25t-46 34t-31 37q-26 38 -34 80.5t-8 89.5
q0 14 1 26.5t3 26.5h-117l-65 -319h-100l142 700h100l-60 -293h120zM767 622q-53 0 -101 -21t-86 -59q-24 -24 -43.5 -55t-33.5 -66t-21.5 -73t-7.5 -77q0 -47 10.5 -80t27.5 -53q20 -25 57 -42.5t88 -17.5q45 0 93.5 16.5t93.5 63.5q48 49 77 119.5t29 143.5q0 58 -14.5 93
t-31.5 54q-21 23 -55.5 38.5t-81.5 15.5z" />
    <glyph glyph-name="afii10049" unicode="&#x42f;" horiz-adv-x="627" 
d="M533 0h-100l57 280h-113l-203 -280h-120l231 304q-25 8 -43.5 22t-30.5 29q-11 14 -22 37.5t-11 58.5q0 25 6 51.5t19 52.5t31.5 49.5t44.5 41.5q42 29 94.5 41.5t99.5 12.5h101h101zM557 612h-108q-20 0 -52 -6.5t-63 -31.5q-24 -21 -37 -50.5t-13 -62.5q0 -25 7 -42
t18 -27q10 -11 25 -17t31.5 -9t32.5 -3.5t30 -0.5h78z" />
    <glyph glyph-name="afii10065" unicode="&#x430;" horiz-adv-x="615" 
d="M638 510l-103 -510h-90l15 72h-2q-17 -19 -33 -30t-37 -22q-28 -14 -53.5 -21t-57.5 -7q-48 0 -88.5 16t-66.5 59q-19 32 -23 66t-4 53q0 77 30 148t85 120q42 38 82.5 51t82.5 13q34 0 57.5 -5t48.5 -22q16 -11 27 -22.5t20 -28.5h2l14 70h94zM497 299q0 23 -3 43.5
t-13 39.5q-17 32 -42 46t-59 14q-35 0 -62 -13t-50 -36q-32 -32 -52.5 -83t-20.5 -111q0 -18 3.5 -41.5t17.5 -43.5q11 -16 31.5 -31t57.5 -15q28 0 58.5 11.5t58.5 39.5q31 30 53 76.5t22 103.5z" />
    <glyph glyph-name="afii10066" unicode="&#x431;" horiz-adv-x="625" 
d="M669 692q-26 -7 -44 -8.5t-38 -3.5q-24 -2 -34.5 -2.5t-16 -0.5t-9.5 -0.5t-14 -0.5q-33 -2 -52 -3.5t-28 -3.5q-23 -4 -57 -16t-66 -45q-15 -15 -28.5 -36t-25.5 -44t-21 -47t-14 -46l-6 -25h5q17 22 42 44.5t53 36.5t59.5 20.5t60.5 6.5q46 0 86.5 -14t69.5 -51
q19 -23 32 -57t13 -79q0 -72 -27.5 -133.5t-74.5 -106.5q-49 -48 -102.5 -66.5t-113.5 -18.5q-43 0 -86 12.5t-77 54.5q-29 37 -38 79.5t-9 75.5q0 59 10.5 121t24.5 109q21 72 54.5 136.5t83.5 104.5q23 19 54.5 34t69.5 24q41 10 90 13q10 1 19 1t19 1q14 1 29 1.5t29 1.5
q27 2 49 5t46 9zM410 442q-34 0 -68.5 -14t-64.5 -46t-50 -77.5t-20 -104.5q0 -22 4 -41.5t17 -38.5q14 -20 39.5 -36t66.5 -16q32 0 67.5 14t64.5 46q13 14 26 33.5t22.5 41.5t15.5 46t6 48q0 22 -4.5 47.5t-18.5 46.5q-32 51 -103 51z" />
    <glyph glyph-name="afii10067" unicode="&#x432;" horiz-adv-x="553" 
d="M386 510q31 0 67.5 -4.5t64.5 -25.5q24 -17 29.5 -36t5.5 -36q0 -31 -9.5 -55.5t-32.5 -47.5q-20 -19 -38.5 -27.5t-32.5 -12.5l-1 -3q16 -3 35 -11.5t31 -20.5q22 -22 22 -57q0 -39 -20.5 -77.5t-62.5 -63.5q-36 -21 -73.5 -26.5t-66.5 -5.5h-130h-94l103 510h94h109z
M235 300h94q22 0 43.5 2t41.5 12q21 11 32 28.5t11 34.5q0 14 -6 25t-16 18q-6 4 -21 9t-48 5h-104zM189 76h119q18 0 41.5 4t45.5 21q15 11 23.5 26.5t8.5 36.5q0 14 -4.5 27t-19.5 23q-11 8 -30.5 12t-54.5 4h-97z" />
    <glyph glyph-name="afii10068" unicode="&#x433;" horiz-adv-x="410" 
d="M366 20q-27 -11 -62 -19.5t-81 -8.5q-78 0 -115.5 33.5t-37.5 84.5q0 57 40.5 100.5t126.5 85.5q35 17 55.5 30t31 24.5t13 22t2.5 22.5q0 19 -17.5 33t-59.5 14q-26 0 -52.5 -6t-57.5 -18l16 80q11 4 45 12t76 8q76 0 113.5 -33.5t37.5 -84.5q0 -24 -8.5 -45.5t-28 -42
t-50.5 -42t-76 -45.5q-29 -15 -49.5 -28t-33 -25.5t-18 -26t-5.5 -30.5q0 -19 18 -33t62 -14q15 0 48.5 6t82.5 29z" />
    <glyph glyph-name="afii10069" unicode="&#x434;" horiz-adv-x="611" 
d="M535 22q-4 -21 -11 -44.5t-18.5 -48t-28.5 -47t-41 -42.5q-36 -29 -88.5 -46.5t-124.5 -17.5q-21 0 -67 5.5t-109 29.5l28 87q60 -32 104 -39t64 -7q45 0 79 13.5t60 40.5q20 22 36.5 52t24.5 71l10 50h-2q-23 -24 -45 -37.5t-40 -21.5q-34 -14 -62.5 -17t-39.5 -3
q-43 0 -77 14.5t-60 46.5q-22 27 -30 57t-8 65q0 66 25.5 133.5t81.5 122.5q47 46 95.5 62.5t94.5 16.5q23 0 49 -6t46 -18q19 -11 30.5 -26.5t18.5 -33.5h2l15 76h87zM303 76q25 0 59 10.5t66 45.5q15 16 27 36.5t20.5 43.5t13.5 47.5t5 47.5q0 22 -4 45t-13 39
q-4 7 -11 16t-18.5 16.5t-28.5 13t-39 5.5q-37 0 -67 -16t-52 -39q-16 -17 -28.5 -39t-21.5 -47t-14 -50.5t-5 -49.5q0 -20 5 -41.5t14 -36.5q9 -14 30 -30.5t62 -16.5z" />
    <glyph glyph-name="afii10070" unicode="&#x435;" 
d="M314 -8q-109 0 -164 52.5t-55 145.5q0 72 24 132.5t65.5 104t98 67.5t121.5 24q80 0 120.5 -37.5t40.5 -100.5q0 -39 -17 -71t-59 -56t-113 -38.5t-180 -16.5v-8q0 -54 35 -88t98 -34q46 0 92 16.5t79 36.5l-19 -96q-17 -7 -34 -13t-36.5 -10.5t-43 -7t-53.5 -2.5z
M389 442q-63 0 -114 -43.5t-70 -124.5q84 1 135.5 9.5t80.5 22.5t39 33t10 41q0 28 -19.5 45t-61.5 17z" />
    <glyph glyph-name="afii10072" unicode="&#x436;" horiz-adv-x="732" 
d="M468 286h7l212 224h115l-246 -240l170 -270h-113l-144 245h-9l-50 -245h-94l50 245h-7l-237 -245h-117l266 271l-141 239h110l123 -224h11l45 224h94z" />
    <glyph glyph-name="afii10073" unicode="&#x437;" horiz-adv-x="485" 
d="M211 300h66q21 0 42.5 5t37.5 16q19 13 26.5 30t7.5 35t-8.5 27.5t-15.5 14.5q-4 2 -20 8t-53 6q-33 0 -71 -8t-74 -23l14 78q31 10 59.5 16t50.5 9t37.5 3.5t21.5 0.5q29 0 64 -6.5t60 -24.5q14 -10 27.5 -28.5t13.5 -48.5q0 -26 -9.5 -53t-33.5 -50q-14 -13 -34 -23.5
t-43 -15.5v-2q40 -5 65 -30q11 -11 19 -27.5t8 -37.5q0 -17 -5 -36.5t-17 -39.5t-32 -39t-51 -34q-35 -17 -72.5 -23.5t-72.5 -6.5q-57 0 -100 12t-73 26l26 77q33 -17 75 -28t81 -11q27 0 53.5 6.5t45.5 20.5q17 13 27.5 32.5t10.5 42.5q0 12 -6 25t-23 22q-8 4 -18 6.5
t-21 4t-21.5 2t-17.5 0.5h-61z" />
    <glyph glyph-name="afii10074" unicode="&#x438;" horiz-adv-x="611" 
d="M531 0h-94l15 73h-2q-15 -17 -34 -32t-45 -27q-20 -10 -44.5 -16t-57.5 -6q-15 0 -33 2t-36 8t-34.5 17t-28.5 29t-18 42.5t-6 44.5q0 17 3.5 39.5t5.5 32.5l61 303h94l-53 -264q-4 -18 -7.5 -42.5t-3.5 -46.5q0 -14 3 -31t16 -31q8 -8 24.5 -17.5t46.5 -9.5
q32 0 60 12.5t49 31.5q18 16 31.5 36.5t23 41.5t15.5 42.5t10 41.5l48 236h94z" />
    <glyph glyph-name="afii10075" unicode="&#x439;" horiz-adv-x="611" 
d="M531 0h-94l15 73h-2q-15 -17 -34 -32t-45 -27q-20 -10 -44.5 -16t-57.5 -6q-15 0 -33 2t-36 8t-34.5 17t-28.5 29t-18 42.5t-6 44.5q0 17 3.5 39.5t5.5 32.5l61 303h94l-53 -264q-4 -18 -7.5 -42.5t-3.5 -46.5q0 -14 3 -31t16 -31q8 -8 24.5 -17.5t46.5 -9.5
q32 0 60 12.5t49 31.5q18 16 31.5 36.5t23 41.5t15.5 42.5t10 41.5l48 236h94zM417 588q-21 0 -41.5 4.5t-36 15t-25.5 28t-10 44.5q0 6 0.5 11.5t1.5 12.5l79 8q-1 -4 -1 -8v-7q0 -24 12 -33t35 -9q26 0 42 12t27 45l76 -8q-9 -34 -26 -56.5t-39 -35.5t-46 -18.5t-48 -5.5z
" />
    <glyph glyph-name="afii10076" unicode="&#x43a;" horiz-adv-x="537" 
d="M183 510h94l-45 -224l250 224h125l-284 -241l210 -269h-127l-181 250l-51 -250h-94z" />
    <glyph glyph-name="afii10077" unicode="&#x43b;" horiz-adv-x="554" 
d="M62 -8q-9 0 -25 2t-29 5l18 87q5 -2 9 -3q10 -2 20 -2q24 0 45 20.5t41 67t39.5 120.5t40.5 181l8 40h348l-103 -510h-94l88 434h-169l-3 -14q-23 -116 -48.5 -197.5t-54 -132.5t-61.5 -74.5t-70 -23.5z" />
    <glyph glyph-name="afii10078" unicode="&#x43c;" horiz-adv-x="720" 
d="M183 510h147l76 -290l194 290h143l-103 -510h-94l85 420h-2l-196 -290h-94l-78 290h-2l-85 -420h-94z" />
    <glyph glyph-name="afii10079" unicode="&#x43d;" horiz-adv-x="608" 
d="M235 303h260l42 207h94l-103 -510h-94l46 227h-260l-46 -227h-94l103 510h94z" />
    <glyph glyph-name="afii10080" unicode="&#x43e;" horiz-adv-x="618" 
d="M414 518q36 0 64.5 -7t50 -18.5t37 -26t25.5 -28.5q14 -20 24.5 -50t10.5 -75q0 -69 -30.5 -133t-78.5 -108q-40 -36 -93 -58t-117 -22q-36 0 -64.5 7t-50 18.5t-36.5 26t-25 28.5q-36 51 -36 118q0 37 9.5 73.5t24.5 68.5t35 59t41 47q39 36 92 58t117 22zM399 442
q-38 0 -73 -17t-60 -43q-34 -35 -52 -82.5t-18 -91.5q0 -11 2.5 -37t17.5 -49q14 -22 41.5 -38t65.5 -16q32 0 67 14.5t65 45.5q28 29 49 74.5t21 96.5q0 19 -4 44t-20 48q-22 32 -51 41.5t-51 9.5z" />
    <glyph glyph-name="afii10081" unicode="&#x43f;" horiz-adv-x="604" 
d="M183 510h94l-14 -73h2q23 26 44.5 39.5t33.5 19.5q47 22 102 22t86.5 -16.5t46.5 -39.5q13 -20 18 -41.5t5 -43.5q0 -20 -3 -38.5t-6 -35.5l-61 -303h-94l53 264q5 24 8 46t3 42q0 36 -13 56q-6 9 -23.5 21.5t-52.5 12.5q-23 0 -51.5 -9t-57.5 -35q-38 -35 -55.5 -77.5
t-25.5 -84.5l-48 -236h-94z" />
    <glyph glyph-name="afii10082" unicode="&#x440;" horiz-adv-x="613" 
d="M273 510l-14 -73h2q37 42 86 61.5t99 19.5q46 0 81 -14.5t61 -49.5q37 -51 37 -121q0 -33 -7.5 -69.5t-21 -72t-33 -68t-43.5 -56.5q-38 -38 -84 -56.5t-92 -18.5q-27 0 -56 5.5t-51 19.5q-14 9 -26.5 22.5t-20.5 27.5h-2l-59 -291h-94l148 734h90zM415 442
q-29 0 -62 -12.5t-65 -47.5q-34 -38 -51 -84.5t-17 -94.5q0 -19 3.5 -41t17.5 -44q11 -17 34 -33.5t61 -16.5q25 0 51.5 9.5t52.5 33.5q20 19 36 43.5t26.5 52t16 56.5t5.5 56q0 21 -4 41t-16 38q-11 17 -32.5 30.5t-56.5 13.5z" />
    <glyph glyph-name="afii10083" unicode="&#x441;" horiz-adv-x="446" 
d="M491 420q-21 10 -47.5 16t-49.5 6q-28 0 -57.5 -10t-55.5 -29q-47 -35 -71 -91t-24 -113q0 -20 5 -40.5t20 -40.5q17 -23 46 -36.5t67 -13.5q28 0 55.5 7.5t51.5 21.5l-10 -84q-17 -7 -47.5 -14t-75.5 -7q-37 0 -65.5 8t-49.5 20t-36 26.5t-24 27.5q-14 20 -26 50.5
t-12 75.5q0 33 7.5 68t24 69t42.5 65t62 57q40 29 87 44t97 15q22 0 50 -4t60 -16z" />
    <glyph glyph-name="afii10084" unicode="&#x442;" horiz-adv-x="468" 
d="M561 510l-15 -76h-177l-88 -434h-94l88 434h-177l15 76h448z" />
    <glyph glyph-name="afii10085" unicode="&#x443;" horiz-adv-x="488" 
d="M14 -140q1 0 11.5 -4t27.5 -4t37 6.5t37 20.5q19 18 33.5 41t22.5 38l11 22l-4 38l-80 492h103l55 -419h2l222 419h95l-298 -529q-21 -37 -37 -63.5t-28.5 -44.5t-22 -29t-17.5 -18q-26 -23 -60 -36.5t-74 -13.5q-20 0 -32.5 2t-20.5 4l-5 1z" />
    <glyph glyph-name="afii10086" unicode="&#x444;" horiz-adv-x="755" 
d="M461 -8q-17 0 -35 1h-3l-44 -217h-94l44 217h-3q-18 -1 -35 -1q-43 0 -79 14.5t-62 41t-40.5 62.5t-14.5 80q0 71 24.5 131t65.5 104t96 68.5t117 24.5q16 0 34 -1h3l50 243h94l-50 -243h3q19 1 36 1q42 0 78 -14.5t62 -41t40.5 -63t14.5 -79.5q0 -71 -24.5 -131
t-65.5 -104t-96 -68.5t-116 -24.5zM383 442q-33 0 -66 -17.5t-59.5 -49.5t-43.5 -76.5t-17 -98.5q0 -31 8.5 -55.5t23.5 -41.5t34.5 -26t41.5 -9q10 0 32 2h8l75 370q-16 2 -37 2zM441 70q18 -2 34 -2q33 0 66 17.5t59.5 49.5t43.5 76.5t17 98.5q0 31 -8.5 55.5t-23.5 41.5
t-34.5 26t-41.5 9q-14 0 -34 -2q-3 -1 -6 -1l-75 -369h3z" />
    <glyph glyph-name="afii10087" unicode="&#x445;" horiz-adv-x="500" 
d="M248 267l-117 243h117l74 -182l150 182h105l-213 -243l126 -267h-116l-85 200l-167 -200h-112z" />
    <glyph glyph-name="afii10088" unicode="&#x446;" horiz-adv-x="620" 
d="M562 154q-2 -10 -3 -18.5t-1 -15.5q0 -29 17 -36.5t49 -7.5l-44 -220h-90l29 144q-28 8 -42.5 25.5t-14.5 57.5h-2q-36 -42 -83.5 -66.5t-107.5 -24.5q-15 0 -33 2t-36 8t-34.5 17t-28.5 29t-18 42.5t-6 44.5q0 17 3.5 39.5t5.5 32.5l61 303h94l-53 -264
q-4 -18 -7.5 -42.5t-3.5 -46.5q0 -14 3 -31t16 -31q8 -8 24.5 -17.5t46.5 -9.5q32 0 60 12.5t49 31.5q18 16 31.5 36.5t23 41.5t15.5 42.5t10 41.5l48 236h94z" />
    <glyph glyph-name="afii10089" unicode="&#x447;" horiz-adv-x="536" 
d="M403 201q-26 -5 -63 -10t-67 -5t-66 6.5t-60 25.5q-17 13 -27.5 33t-10.5 45q0 8 1 19.5t2 16.5l36 178h94l-30 -150q-2 -9 -3 -17.5t-1 -21.5q0 -12 4 -25t18 -22q7 -5 22.5 -8.5t51.5 -3.5q28 0 58 3.5t56 9.5l47 235h94l-103 -510h-94z" />
    <glyph glyph-name="afii10090" unicode="&#x448;" horiz-adv-x="894" 
d="M238 -8q-27 0 -50 9t-39.5 25t-26 38t-9.5 47q0 18 1 35.5t5 36.5l66 327h94l-62 -304q-6 -29 -6 -56q0 -41 18 -61.5t44 -20.5q30 0 56 15.5t46.5 41.5t35 59t21.5 69l52 257h94l-62 -304q-6 -30 -6 -58q0 -39 18 -59.5t44 -20.5q30 0 56 15.5t46.5 41.5t35 59t21.5 69
l52 257h94l-103 -510h-88l15 74h-2q-30 -39 -72 -60.5t-93 -21.5q-46 0 -76.5 24t-42.5 75q-34 -45 -75.5 -72t-101.5 -27z" />
    <glyph glyph-name="afii10091" unicode="&#x449;" horiz-adv-x="863" 
d="M703 83q-30 -39 -74 -65t-95 -26q-46 0 -76.5 24t-42.5 75q-34 -45 -75.5 -72t-101.5 -27q-27 0 -50 9t-39.5 25t-26 38t-9.5 47q0 18 1 35.5t5 36.5l66 327h94l-62 -304q-6 -29 -6 -56q0 -41 18 -61.5t44 -20.5q30 0 56 15.5t46.5 41.5t35 59t21.5 69l52 257h94
l-62 -304q-6 -30 -6 -58q0 -39 18 -59.5t44 -20.5q30 0 56 15.5t46.5 41.5t35 59t21.5 69l52 257h94l-72 -356q-4 -17 -4 -33q0 -30 17 -37.5t49 -7.5l-44 -220h-90l29 144q-28 8 -42.5 25.5t-14.5 57.5h-2v0z" />
    <glyph glyph-name="afii10092" unicode="&#x44a;" horiz-adv-x="582" 
d="M98 510h239l-36 -180h103q95 0 138 -38t43 -102q0 -38 -16.5 -72t-48 -60.5t-77.5 -42t-105 -15.5h-197l87 434h-145zM487 190q0 29 -21.5 46.5t-76.5 17.5h-103l-36 -178h103q63 0 98.5 33t35.5 81z" />
    <glyph glyph-name="afii10093" unicode="&#x44b;" horiz-adv-x="742" 
d="M182 510h94l-36 -180h103q95 0 138 -38t43 -102q0 -38 -16.5 -72t-48 -60.5t-77.5 -42t-105 -15.5h-197zM426 190q0 29 -21.5 46.5t-76.5 17.5h-103l-36 -178h103q63 0 98.5 33t35.5 81zM671 510h94l-103 -510h-94z" />
    <glyph glyph-name="afii10094" unicode="&#x44c;" horiz-adv-x="521" 
d="M182 510h94l-36 -180h103q95 0 138 -38t43 -102q0 -38 -16.5 -72t-48 -60.5t-77.5 -42t-105 -15.5h-197zM426 190q0 29 -21.5 46.5t-76.5 17.5h-103l-36 -178h103q63 0 98.5 33t35.5 81z" />
    <glyph glyph-name="afii10095" unicode="&#x44d;" horiz-adv-x="493" 
d="M150 498q7 2 21 5.5t32 6.5t40 5.5t45 2.5q63 0 103 -18.5t61 -41.5q20 -22 33.5 -57t13.5 -88q0 -77 -27.5 -138.5t-69.5 -100.5q-40 -38 -97 -60t-134 -22q-29 0 -59 4.5t-64 16.5l23 83q38 -20 68 -24t48 -4q48 0 85 16t60 39q20 19 34 46.5t21 58.5h-193l15 74h189
q1 5 1 10.5v10.5q0 18 -3.5 36.5t-13.5 33.5q-13 20 -41 34.5t-78 14.5q-6 0 -18.5 -0.5t-29.5 -2.5t-36 -6t-37 -11z" />
    <glyph glyph-name="afii10096" unicode="&#x44e;" horiz-adv-x="824" 
d="M326 303q20 53 46.5 86t43.5 49q27 25 54.5 40.5t54.5 24.5t51.5 12t45.5 3q65 0 104 -20.5t60 -44.5q16 -18 25.5 -37.5t14 -37.5t5.5 -33t1 -25q0 -65 -26 -131t-81 -117q-40 -36 -93 -58t-117 -22q-36 0 -63.5 7t-48.5 18.5t-36 26t-25 28.5q-9 14 -22.5 44.5
t-13.5 81.5q0 8 0.5 14.5t1.5 14.5h-88l-46 -227h-94l103 510h94l-42 -207h91zM607 442q-38 0 -73 -17t-60 -43q-34 -35 -52 -83t-18 -93q0 -6 0.5 -16.5t2.5 -22.5t7 -24.5t13 -24.5q16 -23 43 -36.5t61 -13.5q33 0 67.5 14.5t64.5 45.5q33 34 51 79t18 97q0 29 -7.5 55.5
t-23.5 44.5q-17 19 -42 28.5t-52 9.5z" />
    <glyph glyph-name="afii10097" unicode="&#x44f;" horiz-adv-x="524" 
d="M444 0h-94l41 201h-93l-144 -201h-109l165 217q-20 6 -35 17t-26 23t-18.5 30t-7.5 42q0 38 20 77.5t58 65.5q27 18 62 28t74 10h210zM334 439q-11 0 -34 -4.5t-46 -24.5q-17 -15 -24.5 -35.5t-7.5 -40.5q0 -9 3 -20.5t14 -22.5q14 -14 32 -17t29 -3h105l34 168h-105z
" />
    <glyph glyph-name="afii10071" unicode="&#x451;" 
d="M314 -8q-109 0 -164 52.5t-55 145.5q0 72 24 132.5t65.5 104t98 67.5t121.5 24q80 0 120.5 -37.5t40.5 -100.5q0 -39 -17 -71t-59 -56t-113 -38.5t-180 -16.5v-8q0 -54 35 -88t98 -34q46 0 92 16.5t79 36.5l-19 -96q-17 -7 -34 -13t-36.5 -10.5t-43 -7t-53.5 -2.5z
M389 442q-63 0 -114 -43.5t-70 -124.5q84 1 135.5 9.5t80.5 22.5t39 33t10 41q0 28 -19.5 45t-61.5 17zM294 720h94l-20 -100h-94zM458 720h94l-20 -100h-94z" />
    <glyph glyph-name="afii10099" unicode="&#x452;" horiz-adv-x="604" 
d="M510 655l-11 -54h-203l-33 -164h2q23 26 44.5 39.5t33.5 19.5q47 22 102 22t86.5 -16.5t46.5 -39.5q13 -20 18 -41.5t5 -43.5q0 -21 -3 -40t-6 -34l-13 -68q-4 -20 -9.5 -44.5t-12.5 -50.5t-16 -52t-19 -48q-15 -33 -38.5 -67t-52.5 -62q-26 -26 -58 -47.5t-62 -36.5
l-44 51q29 14 57.5 34t48.5 42q5 6 25.5 31.5t38.5 70.5q8 19 15 42.5t13 48t11 47t8 39.5l6 31q5 26 8 47t3 40q0 35 -13 57q-6 9 -23.5 21.5t-52.5 12.5q-23 0 -51.5 -9t-57.5 -35q-38 -35 -55.5 -77.5t-25.5 -84.5l-48 -236h-94l122 601h-75l11 54h75l21 107h94l-21 -107
h203z" />
    <glyph glyph-name="afii10100" unicode="&#x453;" horiz-adv-x="410" 
d="M366 20q-27 -11 -62 -19.5t-81 -8.5q-78 0 -115.5 33.5t-37.5 84.5q0 57 40.5 100.5t126.5 85.5q35 17 55.5 30t31 24.5t13 22t2.5 22.5q0 19 -17.5 33t-59.5 14q-26 0 -52.5 -6t-57.5 -18l16 80q11 4 45 12t76 8q76 0 113.5 -33.5t37.5 -84.5q0 -24 -8.5 -45.5t-28 -42
t-50.5 -42t-76 -45.5q-29 -15 -49.5 -28t-33 -25.5t-18 -26t-5.5 -30.5q0 -19 18 -33t62 -14q15 0 48.5 6t82.5 29zM404 740h122l-160 -130h-80z" />
    <glyph glyph-name="afii10101" unicode="&#x454;" horiz-adv-x="492" 
d="M519 422q-31 13 -61 17t-50 4q-39 0 -73 -10t-66 -40q-26 -24 -37.5 -47.5t-16.5 -43.5h198l-15 -74h-202q-4 -16 -4 -36q0 -19 5 -40.5t18 -38.5q15 -20 45 -33t72 -13q32 0 64.5 7.5t61.5 21.5l-9 -83q-43 -14 -77 -17.5t-56 -3.5q-20 0 -43.5 2.5t-47.5 9.5t-46.5 20
t-40.5 34q-23 26 -35 63t-12 76q0 34 8 69.5t24.5 70t42 65.5t59.5 56q38 28 84.5 44t103.5 16q18 0 52.5 -3t77.5 -17z" />
    <glyph glyph-name="afii10102" unicode="&#x455;" horiz-adv-x="406" 
d="M74 103q32 -20 61.5 -27.5t50.5 -7.5q47 0 80 25q15 12 23 27t8 29q0 8 -3.5 19.5t-15.5 22.5q-2 2 -12 9t-42 24l-24 13q-16 8 -36.5 23t-32.5 39q-5 9 -8.5 22.5t-3.5 33.5q0 11 2.5 25.5t9.5 30.5t19.5 32t32.5 31q32 23 70.5 33.5t76.5 10.5q20 0 49.5 -4t63.5 -16
l-24 -80q-21 13 -40 17q-11 3 -23 5t-26 2q-17 0 -35 -2.5t-34 -10.5q-27 -13 -34.5 -30.5t-7.5 -28.5q0 -21 15 -38q7 -8 20.5 -16.5t42.5 -22.5l14 -7q26 -14 42 -26t24 -23q20 -26 20 -70q0 -14 -3 -30t-11.5 -34t-23.5 -36t-38 -34q-32 -22 -66.5 -31.5t-75.5 -9.5
q-43 0 -73.5 8.5t-53.5 19.5z" />
    <glyph glyph-name="afii10103" unicode="&#x456;" horiz-adv-x="254" 
d="M183 510h94l-103 -510h-94zM304 614h-106l21 106h106z" />
    <glyph glyph-name="afii10104" unicode="&#x457;" horiz-adv-x="254" 
d="M183 510h94l-103 -510h-94zM241 720l-20 -100h-80l20 100h80zM371 720l-20 -100h-80l20 100h80z" />
    <glyph glyph-name="afii10105" unicode="&#x458;" horiz-adv-x="278" 
d="M-41 -139q16 -3 28 -3h10q18 1 31 8t23 19q2 3 14.5 24t20.5 59l109 542h94l-107 -528q-4 -19 -9 -40t-12.5 -42t-18 -40.5t-25.5 -35.5q-32 -32 -67 -40t-67 -8q-15 0 -25 1t-18 3zM317 614h-106l21 106h106z" />
    <glyph glyph-name="afii10106" unicode="&#x459;" horiz-adv-x="804" 
d="M62 -8q-9 0 -25 2t-29 5l18 87q5 -2 9 -3q10 -2 20 -2q24 0 45 20.5t41 67t39.5 120.5t40.5 181l8 40h337l-36 -180h96q95 0 138 -38t43 -102q0 -38 -16.5 -72t-48 -60.5t-77.5 -42t-105 -15.5h-190l88 434h-159l-3 -14q-23 -116 -48.5 -197.5t-54 -132.5t-61.5 -74.5
t-70 -23.5zM709 190q0 29 -21.5 46.5t-76.5 17.5h-96l-36 -178h96q63 0 98.5 33t35.5 81z" />
    <glyph glyph-name="afii10107" unicode="&#x45a;" horiz-adv-x="860" 
d="M681 315q15 0 33.5 -1t38 -5t38 -12t34.5 -21q38 -32 38 -85q0 -40 -18 -80t-58 -69q-39 -29 -79 -35.5t-72 -6.5h-118h-95l48 239h-249l-48 -239h-94l103 510h94l-39 -195h249l39 195h94l-39 -195h100zM532 76h117q19 0 42 4.5t43 21.5q14 12 23.5 30t9.5 40
q0 17 -4.5 27.5t-10.5 16.5q-8 8 -19 12.5t-23 7t-23 3t-20 0.5h-102z" />
    <glyph glyph-name="afii10108" unicode="&#x45b;" horiz-adv-x="610" 
d="M531 0h-94l53 264q5 28 8 50t3 39q0 36 -13 55q-6 9 -23.5 21.5t-52.5 12.5q-23 0 -51.5 -9t-57.5 -35q-38 -35 -55.5 -77.5t-25.5 -84.5l-48 -236h-94l122 601h-75l11 54h75l21 107h94l-21 -107h203l-11 -54h-203l-33 -164h2q23 26 44.5 39.5t33.5 19.5q47 22 102 22
t86.5 -16.5t46.5 -39.5q13 -20 18 -41.5t5 -43.5q0 -20 -3 -38.5t-6 -35.5z" />
    <glyph glyph-name="afii10109" unicode="&#x45c;" horiz-adv-x="537" 
d="M183 510h94l-45 -224l250 224h125l-284 -241l210 -269h-127l-181 250l-51 -250h-94zM438 740h122l-160 -130h-80z" />
    <glyph glyph-name="afii10110" unicode="&#x45e;" horiz-adv-x="488" 
d="M14 -140q1 0 11.5 -4t27.5 -4t37 6.5t37 20.5q19 18 33.5 41t22.5 38l11 22l-4 38l-80 492h103l55 -419h2l222 419h95l-298 -529q-21 -37 -37 -63.5t-28.5 -44.5t-22 -29t-17.5 -18q-26 -23 -60 -36.5t-74 -13.5q-20 0 -32.5 2t-20.5 4l-5 1zM353 588q-21 0 -41.5 4.5
t-36 15t-25.5 28t-10 44.5q0 6 0.5 11.5t1.5 12.5l79 8q-1 -4 -1 -8v-7q0 -24 12 -33t35 -9q26 0 42 12t27 45l76 -8q-9 -34 -26 -56.5t-39 -35.5t-46 -18.5t-48 -5.5z" />
    <glyph glyph-name="afii10193" unicode="&#x45f;" horiz-adv-x="598" 
d="M621 510l-103 -510h-95h-79l-29 -144h-90l29 144h-80h-94l103 510h94l-88 -434h250l88 434h94z" />
    <glyph glyph-name="afii10146" unicode="&#x462;" horiz-adv-x="667" 
d="M294 550h-179l18 88h179l18 90h100l-19 -90h200l-18 -88h-200l-22 -110h100q104 0 153.5 -46.5t49.5 -123.5q0 -63 -20.5 -113.5t-58.5 -85t-92 -53t-121 -18.5h-200zM565 249q0 54 -27 78.5t-85 24.5h-100l-54 -264h100q76 0 121 39t45 122z" />
    <glyph glyph-name="afii10194" unicode="&#x463;" horiz-adv-x="587" 
d="M233 430h-145l16 80h145l39 190h94l-39 -190h170l-16 -80h-171l-20 -100h103q95 0 138 -38t43 -102q0 -38 -16.5 -72t-48 -60.5t-77.5 -42t-105 -15.5h-197zM492 190q0 29 -21.5 46.5t-76.5 17.5h-103l-36 -178h103q63 0 98.5 33t35.5 81z" />
    <glyph glyph-name="afii10147" unicode="&#x472;" horiz-adv-x="781" 
d="M535 710q44 0 80 -9t64.5 -23.5t49.5 -33.5t34 -40q11 -18 19 -39t13.5 -42.5t8 -43t2.5 -40.5q0 -45 -9 -91t-27 -91t-45.5 -86.5t-64.5 -75.5q-52 -48 -119 -76.5t-152 -28.5q-47 0 -83.5 9t-64.5 24t-47.5 34t-32.5 38q-26 39 -35 81.5t-9 84.5q0 52 11.5 101.5
t31.5 94t46.5 82t56.5 65.5q51 48 120 77t152 29zM698 407q1 8 1.5 16t0.5 16q0 27 -7 53.5t-21 49.5q-19 31 -55.5 55.5t-99.5 24.5q-53 0 -101 -21t-86 -59q-29 -29 -49.5 -64.5t-32.5 -70.5h450zM227 319q-2 -11 -3 -20.5t-1 -20.5q0 -31 6 -62t23 -58q48 -80 155 -80
q63 0 109 23.5t78 56.5q30 32 53.5 75t37.5 86h-458z" />
    <glyph glyph-name="afii10195" unicode="&#x473;" horiz-adv-x="616" 
d="M412 518q58 0 102.5 -19t74.5 -61q21 -29 28 -61t7 -66q0 -67 -30.5 -130.5t-78.5 -108.5q-40 -36 -93 -58t-117 -22q-36 0 -64.5 7t-50 18.5t-36.5 26t-25 28.5q-22 31 -28 63.5t-6 61.5q0 28 6 59.5t18.5 63t33 61.5t50.5 57q48 43 101 61.5t108 18.5zM523 300
q0 4 -0.5 13t-2 20t-4 23t-7.5 22t-14 21.5t-22.5 21t-32.5 15.5t-43 6q-32 0 -66.5 -14.5t-66.5 -45.5q-21 -21 -33 -41t-18 -41h310zM196 230q-1 -6 -1.5 -12.5t-0.5 -12.5q0 -20 4.5 -44.5t16.5 -43.5q13 -20 39.5 -34.5t66.5 -14.5q33 0 67.5 14t64.5 46q20 21 35 48
t24 54h-316z" />
    <glyph glyph-name="afii10148" unicode="&#x474;" horiz-adv-x="730" 
d="M260 700l91 -612h2l282 510q13 23 28 43.5t34.5 35.5t46 24t61.5 9q17 0 32.5 -2.5t28.5 -7.5l-21 -87q-9 5 -20.5 6.5t-22.5 1.5q-17 0 -41.5 -12t-47.5 -52l-319 -557h-125l-121 700h112z" />
    <glyph glyph-name="afii10196" unicode="&#x475;" horiz-adv-x="552" 
d="M217 510l54 -416h2l170 325q9 17 20.5 34.5t29 32t41 23.5t56.5 9q31 0 60 -8l-27 -76q-8 3 -17 4.5t-15 1.5q-15 0 -27 -5.5t-21.5 -14t-16 -18.5t-11.5 -19l-209 -383h-112l-80 510h103z" />
    <glyph glyph-name="afii10050" unicode="&#x490;" horiz-adv-x="475" 
d="M236 700h99h178l19 93h94l-37 -181h-271l-124 -612h-100z" />
    <glyph glyph-name="afii10098" unicode="&#x491;" horiz-adv-x="420" 
d="M428 510l16 78h90l-32 -158h-241l-87 -430h-94l103 510h91h154z" />
    <glyph glyph-name="uni0492" unicode="&#x492;" horiz-adv-x="475" 
d="M163 343h-68l13 64h68l60 293h371l-18 -88h-271l-42 -205h180l-13 -64h-180l-69 -343h-100z" />
    <glyph glyph-name="uni0493" unicode="&#x493;" horiz-adv-x="420" 
d="M518 510l-16 -80h-241l-31 -150h153l-11 -54h-153l-45 -226h-94l45 226h-75l11 54h75l47 230h335z" />
    <glyph glyph-name="uni0494" unicode="&#x494;" horiz-adv-x="640" 
d="M236 700h371l-18 -88h-271l-42 -208q21 14 41 22t42 15q29 9 56.5 13t58.5 4q33 0 64 -9t58 -32q30 -26 40.5 -55t10.5 -63q0 -29 -5 -59.5t-14.5 -60t-23 -56.5t-29.5 -48q-29 -35 -75 -60t-118 -25q-43 0 -82 13l23 82q20 -8 38 -11t34 -3q58 0 95 43q12 14 21.5 33.5
t16 41.5t10 44t3.5 41t-3.5 40t-22.5 38q-12 11 -33.5 18.5t-55.5 7.5q-26 0 -48 -4.5t-46 -13.5q-21 -8 -38.5 -17t-34.5 -20l-65 -323h-100z" />
    <glyph glyph-name="uni0495" unicode="&#x495;" horiz-adv-x="500" 
d="M518 510l-16 -80h-241l-27 -133h39q32 0 67 -7t64 -26t48 -52t19 -85q0 -67 -23 -123t-63.5 -97t-96 -64t-119.5 -23l15 76q46 1 81 20t58.5 49.5t35 70t11.5 83.5q0 31 -10 50.5t-26 31t-37 16t-42 4.5h-37l-44 -221h-94l103 510h335z" />
    <glyph glyph-name="uni0496" unicode="&#x496;" horiz-adv-x="935" 
d="M595 392h7l314 308h118l-340 -331l168 -281h81l-50 -244h-98l32 156h-40l-195 343h-7l-69 -343h-100l69 343h-7l-333 -343h-130l373 369l-206 331h118l188 -308h7l63 308h100z" />
    <glyph glyph-name="uni0497" unicode="&#x497;" horiz-adv-x="742" 
d="M468 286h7l212 224h115l-246 -240l122 -194h78l-44 -220h-90l29 144h-38l-144 245h-9l-50 -245h-94l50 245h-7l-237 -245h-117l266 271l-141 239h110l123 -224h11l45 224h94z" />
    <glyph glyph-name="uni0498" unicode="&#x498;" horiz-adv-x="577" 
d="M311 401q32 0 64.5 6.5t58.5 22.5q10 6 20.5 15t19.5 21.5t15 28.5t6 36q0 26 -7.5 41t-15.5 22q-10 10 -23 15.5t-26 8.5t-25 3.5t-20 0.5q-32 0 -61.5 -5t-53.5 -11.5t-41 -12.5t-23 -9l9 92q42 14 95.5 24t101.5 10q39 0 82 -11t71 -34q29 -24 38 -53.5t9 -53.5
q0 -28 -6 -50.5t-15.5 -40t-20.5 -30.5t-21 -21q-18 -16 -43.5 -28.5t-54.5 -19.5l-1 -4q29 -4 52 -16.5t38 -30.5q16 -19 21.5 -39.5t5.5 -41.5q0 -23 -5 -48t-18 -50.5t-34 -49.5t-52 -45q-34 -23 -70.5 -34.5t-76.5 -15.5l-29 -149h-98l29 148q-43 3 -78.5 13.5
t-70.5 28.5l29 91q52 -29 98 -38t79 -9q32 0 62.5 6t59.5 23q43 25 56 58t13 63q0 19 -7.5 36t-25.5 30q-4 3 -11.5 7t-20.5 8t-31.5 7t-44.5 3h-63l16 82h45z" />
    <glyph glyph-name="uni0499" unicode="&#x499;" horiz-adv-x="485" 
d="M211 300h66q21 0 42.5 5t37.5 16q19 13 26.5 30t7.5 35t-8.5 27.5t-15.5 14.5q-4 2 -20 8t-53 6q-33 0 -71 -8t-74 -23l14 78q31 10 59.5 16t50.5 9t37.5 3.5t21.5 0.5q29 0 64 -6.5t60 -24.5q14 -10 27.5 -28.5t13.5 -48.5q0 -26 -9.5 -53t-33.5 -50q-14 -13 -34 -23.5
t-43 -15.5v-2q40 -5 65 -30q11 -11 19 -27.5t8 -37.5q0 -17 -5 -36.5t-17 -39.5t-32 -39t-51 -34q-25 -12 -51 -18.5t-52 -9.5l-27 -138h-90l27 139q-40 4 -71 14t-54 21l26 77q33 -17 75 -28t81 -11q27 0 53.5 6.5t45.5 20.5q17 13 27.5 32.5t10.5 42.5q0 12 -6 25t-23 22
q-8 4 -18 6.5t-21 4t-21.5 2t-17.5 0.5h-61z" />
    <glyph glyph-name="uni049A" unicode="&#x49a;" horiz-adv-x="668" 
d="M236 700h100l-63 -308l361 308h133l-395 -331l213 -281h81l-50 -244h-98l32 156h-44l-243 343l-69 -343h-100z" />
    <glyph glyph-name="uni049B" unicode="&#x49b;" horiz-adv-x="542" 
d="M183 510h94l-45 -224l250 224h125l-284 -241l150 -193h78l-44 -220h-90l29 144h-40l-181 250l-51 -250h-94z" />
    <glyph glyph-name="uni049C" unicode="&#x49c;" horiz-adv-x="728" 
d="M236 700h100l-59 -289h88l26 129h70l-26 -129l293 289h122l-347 -332l225 -368h-130l-181 323l-29 -143h-70l29 143h-88l-65 -323h-100z" />
    <glyph glyph-name="uni049D" unicode="&#x49d;" horiz-adv-x="600" 
d="M277 510l-42 -206h56l18 86h60l-18 -86l209 206h110l-256 -243l176 -267h-120l-134 228l-18 -88h-60l18 88h-56l-46 -228h-94l103 510h94z" />
    <glyph glyph-name="uni04A0" unicode="&#x4a0;" horiz-adv-x="740" 
d="M431 700l-63 -308l361 308h133l-395 -331l279 -369h-146l-242 343l-69 -343h-100l124 612h-178l18 88h278z" />
    <glyph glyph-name="uni04A1" unicode="&#x4a1;" horiz-adv-x="613" 
d="M244 434h-146l15 76h240l-45 -224l250 224h125l-284 -241l210 -269h-127l-181 250l-51 -250h-94z" />
    <glyph glyph-name="uni04A2" unicode="&#x4a2;" horiz-adv-x="728" 
d="M236 700h100l-60 -293h334l60 293h100l-124 -612h80l-50 -244h-98l32 156h-82l65 319h-334l-65 -319h-100z" />
    <glyph glyph-name="uni04A3" unicode="&#x4a3;" horiz-adv-x="612" 
d="M235 303h260l42 207h94l-88 -434h72l-44 -220h-90l29 144h-76l46 227h-260l-46 -227h-94l103 510h94z" />
    <glyph glyph-name="uni04A4" unicode="&#x4a4;" horiz-adv-x="900" 
d="M336 700l-60 -293h324l60 293h372l-18 -88h-272l-124 -612h-100l64 319h-324l-64 -319h-100l142 700h100z" />
    <glyph glyph-name="uni04A5" unicode="&#x4a5;" horiz-adv-x="774" 
d="M235 303h260l42 207h335l-16 -80h-241l-87 -430h-94l46 227h-260l-46 -227h-94l103 510h94z" />
    <glyph glyph-name="uni04AA" unicode="&#x4aa;" horiz-adv-x="628" 
d="M692 583q-19 13 -52 26t-84 13q-48 0 -94 -14t-88 -42q-37 -25 -65 -57.5t-46.5 -69.5t-28 -76.5t-9.5 -77.5q0 -35 9 -70t29 -61q9 -12 23.5 -25t37 -24.5t53.5 -19t72 -7.5q23 0 61.5 5.5t88.5 27.5l-13 -96q-36 -13 -65.5 -17.5t-55.5 -6.5l-29 -147h-98l29 149
q-48 5 -98 25.5t-92 72.5q-25 31 -42 74.5t-17 101.5q0 43 10 92t33.5 98t61 95t91.5 82q63 42 130 59t130 17q57 0 90 -9.5t56 -20.5z" />
    <glyph glyph-name="uni04AB" unicode="&#x4ab;" horiz-adv-x="446" 
d="M491 420q-21 10 -47.5 16t-49.5 6q-28 0 -57.5 -10t-55.5 -29q-47 -35 -71 -91t-24 -113q0 -20 5 -40.5t20 -40.5q17 -23 46 -36.5t67 -13.5q28 0 55.5 7.5t51.5 21.5l-10 -84q-14 -5 -35 -11t-50 -8l-27 -138h-90l28 141q-50 9 -79.5 32t-44.5 45q-14 20 -26 50.5
t-12 75.5q0 33 7.5 68t24 69t42.5 65t62 57q40 29 87 44t97 15q22 0 50 -4t60 -16z" />
    <glyph glyph-name="uni04AE" unicode="&#x4ae;" horiz-adv-x="667" 
d="M343 293l-190 407h117l144 -314l267 314h117l-355 -407l-59 -293h-100z" />
    <glyph glyph-name="uni04AF" unicode="&#x4af;" horiz-adv-x="492" 
d="M271 103h2l219 407h95l-294 -510l-45 -224h-94l45 224l-89 510h103z" />
    <glyph glyph-name="uni04B0" unicode="&#x4b0;" horiz-adv-x="667" 
d="M330 229h-179l13 64h179l-190 407h117l144 -314l267 314h117l-355 -407h181l-13 -64h-181l-46 -229h-100z" />
    <glyph glyph-name="uni04B1" unicode="&#x4b1;" horiz-adv-x="492" 
d="M271 103h2l219 407h95l-294 -510h140l-11 -54h-140l-34 -170h-94l34 170h-140l11 54h140l-89 510h103z" />
    <glyph glyph-name="uni04B2" unicode="&#x4b2;" horiz-adv-x="679" 
d="M339 364l-166 336h120l131 -269l240 269h114l-303 -334l140 -278h80l-49 -244h-98l32 156h-46l-147 297l-259 -297h-120z" />
    <glyph glyph-name="uni04B3" unicode="&#x4b3;" horiz-adv-x="510" 
d="M248 267l-117 243h117l74 -182l150 182h105l-213 -243l89 -191h78l-44 -220h-90l29 144h-52l-86 200l-166 -200h-112z" />
    <glyph glyph-name="uni04B6" unicode="&#x4b6;" horiz-adv-x="659" 
d="M518 293q-43 -11 -91 -17.5t-98 -6.5q-42 0 -72 6t-51 16t-34 21.5t-20 23.5q-16 26 -16 60q0 28 6 60l50 244h100l-43 -210q-6 -29 -6 -55q0 -13 4 -28t21 -28q9 -7 23.5 -11t30 -6.5t31 -3.5t27.5 -1q14 0 56.5 3t99.5 20l65 320h100l-124 -612h80l-50 -244h-98l32 156
h-82z" />
    <glyph glyph-name="uni04B7" unicode="&#x4b7;" horiz-adv-x="540" 
d="M403 201q-26 -5 -63 -10t-67 -5t-66 6.5t-60 25.5q-17 13 -27.5 33t-10.5 45q0 8 1 19.5t2 16.5l36 178h94l-30 -150q-2 -9 -3 -17.5t-1 -21.5q0 -12 4 -25t18 -22q7 -5 22.5 -8.5t51.5 -3.5q28 0 58 3.5t56 9.5l47 235h94l-88 -434h72l-44 -220h-90l29 144h-76z" />
    <glyph glyph-name="uni04B8" unicode="&#x4b8;" horiz-adv-x="653" 
d="M518 293q-53 -15 -117 -21l-25 -122h-70l24 119h-1q-42 0 -72 6t-51 16t-34 21.5t-20 23.5q-16 26 -16 60q0 28 6 60l50 244h100l-43 -210q-6 -29 -6 -55q0 -13 4 -28t21 -28q13 -10 35.5 -14.5t44.5 -6.5l25 122h70l-25 -122q23 2 53 6.5t65 15.5l65 320h100l-142 -700
h-100z" />
    <glyph glyph-name="uni04B9" unicode="&#x4b9;" horiz-adv-x="536" 
d="M403 201q-17 -4 -38.5 -7.5t-44.5 -5.5l-18 -88h-60l17 86q-29 1 -60 8t-52 24q-17 13 -27.5 33t-10.5 45q0 8 1 19.5t2 16.5l36 178h94l-30 -150q-2 -9 -3 -18.5t-1 -20.5q0 -12 4 -25t18 -22q5 -4 15 -7t30 -5l20 98h60l-20 -97q21 2 42.5 4.5t40.5 7.5l47 235h94
l-103 -510h-94z" />
    <glyph glyph-name="uni04BA" unicode="&#x4ba;" horiz-adv-x="674" 
d="M236 700h100l-60 -296q26 13 46 20t43 15q26 8 52.5 13.5t60.5 5.5q15 0 32.5 -1t36 -5.5t36.5 -12.5t32 -22q17 -16 27 -39.5t10 -53.5q0 -12 -2 -24.5t-4 -25.5l-55 -274h-100l50 246q2 11 4 21.5t2 21.5q0 16 -3.5 31t-14.5 28q-18 20 -44 25t-44 5q-29 0 -51.5 -5.5
t-45.5 -13.5q-21 -7 -40.5 -14.5t-44.5 -21.5l-65 -323h-100z" />
    <glyph glyph-name="uni04BB" unicode="&#x4bb;" horiz-adv-x="610" 
d="M234 762h94l-65 -325h2q23 26 44.5 39.5t33.5 19.5q23 11 49 16.5t58 5.5q37 0 71 -11.5t57 -46.5q10 -14 16.5 -33.5t6.5 -46.5q0 -11 -1.5 -29.5t-7.5 -47.5l-61 -303h-94l53 264q5 24 8 41.5t3 43.5q0 17 -3.5 34.5t-17.5 33.5q-15 17 -34 21t-34 4q-23 0 -51.5 -9
t-57.5 -35q-38 -34 -55.5 -77t-25.5 -85l-48 -236h-94z" />
    <glyph glyph-name="uni04C0" unicode="&#x4c0;" horiz-adv-x="288" 
d="M236 700h100l-142 -700h-100z" />
    <glyph glyph-name="uni04C3" unicode="&#x4c3;" horiz-adv-x="660" 
d="M236 700h100l-63 -308l351 308h135l-368 -309q57 0 105.5 -10t83.5 -34t54.5 -64t19.5 -100q0 -30 -6.5 -69.5t-23 -81.5t-45 -83.5t-72.5 -75.5q-60 -45 -120.5 -59t-107.5 -14l18 88q4 0 13.5 0.5t22.5 2t27.5 5t28.5 8.5q28 10 56.5 33.5t51 58t36.5 78t14 93.5
q0 44 -16.5 71t-42 41.5t-56 19t-58.5 4.5h-119l-61 -303h-100z" />
    <glyph glyph-name="uni04C4" unicode="&#x4c4;" 
d="M183 510h94l-45 -224l250 224h125l-256 -217q82 0 131 -44t49 -120q0 -63 -20 -119t-58.5 -98t-95 -67t-128.5 -25l15 76q43 0 73.5 13.5t51.5 35t33 47t18 49.5t8 42.5t2 26.5q0 38 -13 60t-33.5 33.5t-45.5 14.5t-49 3h-71l-44 -221h-94z" />
    <glyph glyph-name="uni04C7" unicode="&#x4c7;" horiz-adv-x="722" 
d="M330 -101q23 -7 37.5 -8.5t23.5 -1.5q35 0 57.5 9t36.5 23q21 20 32 49.5t16 55.5l59 293h-334l-64 -319h-100l142 700h100l-60 -293h334l60 293h100l-144 -706q-3 -14 -8 -32t-15 -38.5t-25 -40.5t-37 -37q-59 -45 -153 -45q-32 0 -50 4.5t-26 7.5z" />
    <glyph glyph-name="uni04C8" unicode="&#x4c8;" horiz-adv-x="608" 
d="M305 -115q8 -2 16 -2.5t22 -0.5q18 0 31 7.5t23 19.5q2 3 14.5 24t20.5 57l48 237h-260l-46 -227h-94l103 510h94l-42 -207h260l42 207h94l-103 -506q-4 -19 -9 -40t-12.5 -41.5t-18 -39.5t-25.5 -35q-32 -32 -67 -40t-67 -8q-15 0 -25 1t-18 3z" />
    <glyph glyph-name="uni04CF" unicode="&#x4cf;" horiz-adv-x="256" 
d="M222 700h94l-142 -700h-94z" />
    <glyph glyph-name="uni04D0" unicode="&#x4d0;" horiz-adv-x="584" 
d="M435 261l-28 309h-2l-154 -309h184zM379 700h110l83 -700h-106l-21 177h-238l-93 -177h-102zM423 749q-26 0 -48.5 6t-39.5 19.5t-27 33.5t-10 49q0 6 0.5 12.5t1.5 13.5l79 8q-1 -5 -1 -9v-8q0 -28 13 -43t45 -15q37 0 57.5 19.5t31.5 55.5l75 -8q-9 -36 -27 -61
t-42 -41.5t-52 -24t-56 -7.5z" />
    <glyph glyph-name="uni04D1" unicode="&#x4d1;" horiz-adv-x="615" 
d="M638 510l-103 -510h-90l15 72h-2q-17 -19 -33 -30t-37 -22q-28 -14 -53.5 -21t-57.5 -7q-48 0 -88.5 16t-66.5 59q-19 32 -23 66t-4 53q0 77 30 148t85 120q42 38 82.5 51t82.5 13q34 0 57.5 -5t48.5 -22q16 -11 27 -22.5t20 -28.5h2l14 70h94zM497 299q0 23 -3 43.5
t-13 39.5q-17 32 -42 46t-59 14q-35 0 -62 -13t-50 -36q-32 -32 -52.5 -83t-20.5 -111q0 -18 3.5 -41.5t17.5 -43.5q11 -16 31.5 -31t57.5 -15q28 0 58.5 11.5t58.5 39.5q31 30 53 76.5t22 103.5zM396 588q-21 0 -41.5 4.5t-36 15t-25.5 28t-10 44.5q0 6 0.5 11.5t1.5 12.5
l79 8q-1 -4 -1 -8v-7q0 -24 12 -33t35 -9q26 0 42 12t27 45l76 -8q-9 -34 -26 -56.5t-39 -35.5t-46 -18.5t-48 -5.5z" />
    <glyph glyph-name="uni04D2" unicode="&#x4d2;" horiz-adv-x="584" 
d="M435 261l-28 309h-2l-154 -309h184zM379 700h110l83 -700h-106l-21 177h-238l-93 -177h-102zM411 852l-21 -100h-106l21 100h106zM627 852l-21 -100h-106l21 100h106z" />
    <glyph glyph-name="uni04D3" unicode="&#x4d3;" horiz-adv-x="615" 
d="M638 510l-103 -510h-90l15 72h-2q-17 -19 -33 -30t-37 -22q-28 -14 -53.5 -21t-57.5 -7q-48 0 -88.5 16t-66.5 59q-19 32 -23 66t-4 53q0 77 30 148t85 120q42 38 82.5 51t82.5 13q34 0 57.5 -5t48.5 -22q16 -11 27 -22.5t20 -28.5h2l14 70h94zM497 299q0 23 -3 43.5
t-13 39.5q-17 32 -42 46t-59 14q-35 0 -62 -13t-50 -36q-32 -32 -52.5 -83t-20.5 -111q0 -18 3.5 -41.5t17.5 -43.5q11 -16 31.5 -31t57.5 -15q28 0 58.5 11.5t58.5 39.5q31 30 53 76.5t22 103.5zM317 720h94l-20 -100h-94zM481 720h94l-20 -100h-94z" />
    <glyph glyph-name="uni04D4" unicode="&#x4d4;" horiz-adv-x="944" 
d="M566 700h439l-18 -88h-277l-29 -206h246l-18 -88h-241l-32 -230h255l-18 -88h-347l25 176h-297l-141 -176h-111zM615 628h-2l-295 -370h244z" />
    <glyph glyph-name="uni04D5" unicode="&#x4d5;" horiz-adv-x="895" 
d="M236 -8q-40 0 -71 10.5t-52.5 28.5t-32.5 42t-11 51q0 38 15.5 71.5t49.5 58t87.5 38.5t129.5 14q38 0 62 -0.5t43 -2.5q2 10 3 22t1 20q0 44 -30 71t-91 27q-37 0 -78 -15t-75 -36l11 78q38 20 83.5 34t95.5 14q25 0 49.5 -5t45.5 -15.5t37.5 -27t24.5 -39.5
q42 42 97 64.5t119 22.5q80 0 120.5 -37t40.5 -96q0 -37 -17 -66t-59 -50t-113 -32.5t-179 -13.5q-1 -8 -1 -16.5v-16.5q0 -54 35 -88t98 -34q46 0 92 16.5t79 36.5l-19 -96q-17 -7 -34 -13t-36.5 -10.5t-43 -7t-53.5 -2.5q-82 0 -133.5 30t-72.5 86q-14 -30 -38 -51.5
t-54 -36t-62.5 -21.5t-62.5 -7zM255 67q33 0 63.5 13.5t55.5 36t42.5 52t24.5 60.5v1q-11 1 -33 1h-55q-54 0 -89.5 -7t-56.5 -20t-29.5 -31t-8.5 -39q0 -28 22 -47.5t64 -19.5zM734 442q-58 0 -106 -37t-71 -106q78 1 128.5 7t79 17t39.5 26.5t11 35.5q0 24 -19.5 40.5
t-61.5 16.5z" />
    <glyph glyph-name="uni04D6" unicode="&#x4d6;" horiz-adv-x="554" 
d="M436 749q-26 0 -48.5 6t-39.5 19.5t-27 33.5t-10 49q0 6 0.5 12.5t1.5 13.5l79 8q-1 -5 -1 -9v-8q0 -28 13 -43t45 -15q37 0 57.5 19.5t31.5 55.5l75 -8q-9 -36 -27 -61t-42 -41.5t-52 -24t-56 -7.5z" />
    <glyph glyph-name="uni04D7" unicode="&#x4d7;" 
d="M314 -8q-109 0 -164 52.5t-55 145.5q0 72 24 132.5t65.5 104t98 67.5t121.5 24q80 0 120.5 -37.5t40.5 -100.5q0 -39 -17 -71t-59 -56t-113 -38.5t-180 -16.5v-8q0 -54 35 -88t98 -34q46 0 92 16.5t79 36.5l-19 -96q-17 -7 -34 -13t-36.5 -10.5t-43 -7t-53.5 -2.5z
M389 442q-63 0 -114 -43.5t-70 -124.5q84 1 135.5 9.5t80.5 22.5t39 33t10 41q0 28 -19.5 45t-61.5 17zM385 588q-21 0 -41.5 4.5t-36 15t-25.5 28t-10 44.5q0 6 0.5 11.5t1.5 12.5l79 8q-1 -4 -1 -8v-7q0 -24 12 -33t35 -9q26 0 42 12t27 45l76 -8q-9 -34 -26 -56.5
t-39 -35.5t-46 -18.5t-48 -5.5z" />
    <glyph glyph-name="uni04D8" unicode="&#x4d8;" horiz-adv-x="667" 
d="M584 375q4 17 5 32.5t1 32.5q0 27 -6 54.5t-20 50.5q-8 12 -20 26t-30 25t-42.5 18.5t-55.5 7.5q-52 0 -106 -20.5t-96 -49.5l23 113l18 7q29 11 74 24.5t113 13.5q54 0 104.5 -17t89.5 -64q23 -27 41.5 -73.5t18.5 -119.5q0 -44 -10 -93t-29 -97t-46.5 -91t-61.5 -75
q-16 -15 -37.5 -30.5t-49 -29t-61.5 -22t-74 -8.5q-46 0 -85 12t-71 48q-19 21 -31 44.5t-18.5 47t-8.5 46t-2 42.5q0 56 12 112l7 33h454zM222 287q-2 -12 -3.5 -24.5t-1.5 -24.5q0 -28 3 -54.5t22 -53.5q14 -20 39.5 -36t69.5 -16q34 0 72 15.5t75 60.5q24 29 41 63.5
t27 69.5h-344z" />
    <glyph glyph-name="afii10846" unicode="&#x4d9;" 
d="M249 -8q-80 0 -120.5 37.5t-40.5 100.5q0 39 17 71t59 56t113 38t180 16v9q0 54 -35 88t-98 34q-46 0 -92 -16.5t-79 -36.5l19 96q17 7 34 13t36.5 10.5t43 7t53.5 2.5q109 0 164 -52.5t55 -145.5q0 -72 -24 -132.5t-65.5 -104t-98 -67.5t-121.5 -24zM264 68
q63 0 113.5 43t70.5 125q-84 -2 -136 -10.5t-80.5 -22.5t-38.5 -32.5t-10 -40.5q0 -28 19.5 -45t61.5 -17z" />
    <glyph glyph-name="uni04DA" unicode="&#x4da;" horiz-adv-x="667" 
d="M584 375q4 17 5 32.5t1 32.5q0 27 -6 54.5t-20 50.5q-8 12 -20 26t-30 25t-42.5 18.5t-55.5 7.5q-52 0 -106 -20.5t-96 -49.5l23 113l18 7q29 11 74 24.5t113 13.5q54 0 104.5 -17t89.5 -64q23 -27 41.5 -73.5t18.5 -119.5q0 -44 -10 -93t-29 -97t-46.5 -91t-61.5 -75
q-16 -15 -37.5 -30.5t-49 -29t-61.5 -22t-74 -8.5q-46 0 -85 12t-71 48q-19 21 -31 44.5t-18.5 47t-8.5 46t-2 42.5q0 56 12 112l7 33h454zM222 287q-2 -12 -3.5 -24.5t-1.5 -24.5q0 -28 3 -54.5t22 -53.5q14 -20 39.5 -36t69.5 -16q34 0 72 15.5t75 60.5q24 29 41 63.5
t27 69.5h-344zM450 852l-21 -100h-106l21 100h106zM666 852l-21 -100h-106l21 100h106z" />
    <glyph glyph-name="uni04DB" unicode="&#x4db;" 
d="M249 -8q-80 0 -120.5 37.5t-40.5 100.5q0 39 17 71t59 56t113 38t180 16v9q0 54 -35 88t-98 34q-46 0 -92 -16.5t-79 -36.5l19 96q17 7 34 13t36.5 10.5t43 7t53.5 2.5q109 0 164 -52.5t55 -145.5q0 -72 -24 -132.5t-65.5 -104t-98 -67.5t-121.5 -24zM264 68
q63 0 113.5 43t70.5 125q-84 -2 -136 -10.5t-80.5 -22.5t-38.5 -32.5t-10 -40.5q0 -28 19.5 -45t61.5 -17zM277 720h94l-20 -100h-94zM441 720h94l-20 -100h-94z" />
    <glyph glyph-name="uni04DC" unicode="&#x4dc;" horiz-adv-x="933" 
d="M595 392h7l314 308h118l-340 -331l223 -369h-130l-195 343h-7l-69 -343h-100l69 343h-7l-333 -343h-130l373 369l-206 331h118l188 -308h7l63 308h100zM583 852l-21 -100h-106l21 100h106zM799 852l-21 -100h-106l21 100h106z" />
    <glyph glyph-name="uni04DD" unicode="&#x4dd;" horiz-adv-x="732" 
d="M468 286h7l212 224h115l-246 -240l170 -270h-113l-144 245h-9l-50 -245h-94l50 245h-7l-237 -245h-117l266 271l-141 239h110l123 -224h11l45 224h94zM376 720h94l-20 -100h-94zM540 720h94l-20 -100h-94z" />
    <glyph glyph-name="uni04DE" unicode="&#x4de;" horiz-adv-x="577" 
d="M311 401q32 0 64.5 6.5t58.5 22.5q10 6 20.5 15t19.5 21.5t15 28.5t6 36q0 26 -7.5 41t-15.5 22q-10 10 -23 15.5t-26 8.5t-25 3.5t-20 0.5q-32 0 -61.5 -5t-53.5 -11.5t-41 -12.5t-23 -9l9 92q42 14 95.5 24t101.5 10q39 0 82 -11t71 -34q29 -24 38 -53.5t9 -53.5
q0 -28 -6 -50.5t-15.5 -40t-20.5 -30.5t-21 -21q-18 -16 -43.5 -28.5t-54.5 -19.5l-1 -4q29 -4 52 -16.5t38 -30.5q16 -19 21.5 -39.5t5.5 -41.5q0 -23 -5 -48t-18 -50.5t-34 -49.5t-52 -45q-46 -30 -96.5 -41.5t-107.5 -11.5t-102 11t-88 33l29 91q52 -29 98 -38t79 -9
q32 0 62.5 6t59.5 23q43 25 56 58t13 63q0 19 -7.5 36t-25.5 30q-4 3 -11.5 7t-20.5 8t-31.5 7t-44.5 3h-63l16 82h45zM405 852l-21 -100h-106l21 100h106zM621 852l-21 -100h-106l21 100h106z" />
    <glyph glyph-name="uni04DF" unicode="&#x4df;" horiz-adv-x="485" 
d="M211 300h66q21 0 42.5 5t37.5 16q19 13 26.5 30t7.5 35t-8.5 27.5t-15.5 14.5q-4 2 -20 8t-53 6q-33 0 -71 -8t-74 -23l14 78q31 10 59.5 16t50.5 9t37.5 3.5t21.5 0.5q29 0 64 -6.5t60 -24.5q14 -10 27.5 -28.5t13.5 -48.5q0 -26 -9.5 -53t-33.5 -50q-14 -13 -34 -23.5
t-43 -15.5v-2q40 -5 65 -30q11 -11 19 -27.5t8 -37.5q0 -17 -5 -36.5t-17 -39.5t-32 -39t-51 -34q-35 -17 -72.5 -23.5t-72.5 -6.5q-57 0 -100 12t-73 26l26 77q33 -17 75 -28t81 -11q27 0 53.5 6.5t45.5 20.5q17 13 27.5 32.5t10.5 42.5q0 12 -6 25t-23 22q-8 4 -18 6.5
t-21 4t-21.5 2t-17.5 0.5h-61zM252 720h94l-20 -100h-94zM416 720h94l-20 -100h-94z" />
    <glyph glyph-name="uni04E2" unicode="&#x4e2;" horiz-adv-x="745" 
d="M236 700h100l-97 -477l-20 -87h5q14 20 24.5 34.5t20 26.5t19 23.5t21.5 25.5l372 454h14h98l-142 -700h-100l97 477l20 87h-5q-14 -21 -25 -36t-21 -27.5t-19.5 -23.5t-19.5 -23l-372 -454h-12h-100zM672 834l-12 -60h-262l12 60h262z" />
    <glyph glyph-name="uni04E3" unicode="&#x4e3;" horiz-adv-x="611" 
d="M531 0h-94l15 73h-2q-15 -17 -34 -32t-45 -27q-20 -10 -44.5 -16t-57.5 -6q-15 0 -33 2t-36 8t-34.5 17t-28.5 29t-18 42.5t-6 44.5q0 17 3.5 39.5t5.5 32.5l61 303h94l-53 -264q-4 -18 -7.5 -42.5t-3.5 -46.5q0 -14 3 -31t16 -31q8 -8 24.5 -17.5t46.5 -9.5
q32 0 60 12.5t49 31.5q18 16 31.5 36.5t23 41.5t15.5 42.5t10 41.5l48 236h94zM302 722h296l-14 -70h-296z" />
    <glyph glyph-name="uni04E4" unicode="&#x4e4;" horiz-adv-x="745" 
d="M236 700h100l-97 -477l-20 -87h5q14 20 24.5 34.5t20 26.5t19 23.5t21.5 25.5l372 454h14h98l-142 -700h-100l97 477l20 87h-5q-14 -21 -25 -36t-21 -27.5t-19.5 -23.5t-19.5 -23l-372 -454h-12h-100zM489 852l-21 -100h-106l21 100h106zM705 852l-21 -100h-106l21 100
h106z" />
    <glyph glyph-name="uni04E5" unicode="&#x4e5;" horiz-adv-x="611" 
d="M531 0h-94l15 73h-2q-15 -17 -34 -32t-45 -27q-20 -10 -44.5 -16t-57.5 -6q-15 0 -33 2t-36 8t-34.5 17t-28.5 29t-18 42.5t-6 44.5q0 17 3.5 39.5t5.5 32.5l61 303h94l-53 -264q-4 -18 -7.5 -42.5t-3.5 -46.5q0 -14 3 -31t16 -31q8 -8 24.5 -17.5t46.5 -9.5
q32 0 60 12.5t49 31.5q18 16 31.5 36.5t23 41.5t15.5 42.5t10 41.5l48 236h94zM321 720h94l-20 -100h-94zM485 720h94l-20 -100h-94z" />
    <glyph glyph-name="uni04E6" unicode="&#x4e6;" horiz-adv-x="780" 
d="M535 710q48 0 84.5 -9.5t64.5 -24.5t47.5 -34t31.5 -38q23 -37 32.5 -86t9.5 -89q0 -42 -9 -86.5t-27 -88.5t-45.5 -84.5t-63.5 -74.5q-52 -48 -119 -76.5t-152 -28.5q-30 0 -61 4.5t-59.5 15.5t-54.5 30t-47 48q-20 29 -35 71.5t-15 101.5q0 44 10 91t29 92t46 86.5
t61 73.5q19 18 45.5 37t60 34.5t75 25t91.5 9.5zM517 622q-44 0 -93 -17.5t-94 -62.5q-50 -50 -78.5 -120.5t-28.5 -145.5q0 -26 5 -62t28 -68q17 -24 53.5 -46t97.5 -22q45 0 93.5 16.5t93.5 63.5q23 24 42.5 55t33.5 66.5t21.5 73.5t7.5 77q0 29 -7 63.5t-30 64.5
q-19 25 -54.5 44.5t-90.5 19.5zM507 852l-21 -100h-106l21 100h106zM723 852l-21 -100h-106l21 100h106z" />
    <glyph glyph-name="uni04E7" unicode="&#x4e7;" horiz-adv-x="618" 
d="M414 518q36 0 64.5 -7t50 -18.5t37 -26t25.5 -28.5q14 -20 24.5 -50t10.5 -75q0 -69 -30.5 -133t-78.5 -108q-40 -36 -93 -58t-117 -22q-36 0 -64.5 7t-50 18.5t-36.5 26t-25 28.5q-36 51 -36 118q0 37 9.5 73.5t24.5 68.5t35 59t41 47q39 36 92 58t117 22zM399 442
q-38 0 -73 -17t-60 -43q-34 -35 -52 -82.5t-18 -91.5q0 -11 2.5 -37t17.5 -49q14 -22 41.5 -38t65.5 -16q32 0 67 14.5t65 45.5q28 29 49 74.5t21 96.5q0 19 -4 44t-20 48q-22 32 -51 41.5t-51 9.5zM319 720h94l-20 -100h-94zM483 720h94l-20 -100h-94z" />
    <glyph glyph-name="uni04E8" unicode="&#x4e8;" horiz-adv-x="781" 
d="M535 710q44 0 80 -9t64.5 -23.5t49.5 -33.5t34 -40q11 -18 19 -39t13.5 -42.5t8 -43t2.5 -40.5q0 -45 -9 -91t-27 -91t-45.5 -86.5t-64.5 -75.5q-52 -48 -119 -76.5t-152 -28.5q-47 0 -83.5 9t-64.5 24t-47.5 34t-32.5 38q-26 39 -35 81.5t-9 84.5q0 52 11.5 101.5
t31.5 94t46.5 82t56.5 65.5q51 48 120 77t152 29zM698 407q1 8 1.5 16t0.5 16q0 27 -7 53.5t-21 49.5q-19 31 -55.5 55.5t-99.5 24.5q-53 0 -101 -21t-86 -59q-29 -29 -49.5 -64.5t-32.5 -70.5h450zM227 319q-2 -11 -3 -20.5t-1 -20.5q0 -31 6 -62t23 -58q48 -80 155 -80
q63 0 109 23.5t78 56.5q30 32 53.5 75t37.5 86h-458z" />
    <glyph glyph-name="uni04E9" unicode="&#x4e9;" horiz-adv-x="616" 
d="M412 518q58 0 102.5 -19t74.5 -61q21 -29 28 -61t7 -66q0 -67 -30.5 -130.5t-78.5 -108.5q-40 -36 -93 -58t-117 -22q-36 0 -64.5 7t-50 18.5t-36.5 26t-25 28.5q-22 31 -28 63.5t-6 61.5q0 28 6 59.5t18.5 63t33 61.5t50.5 57q48 43 101 61.5t108 18.5zM523 300
q0 4 -0.5 13t-2 20t-4 23t-7.5 22t-14 21.5t-22.5 21t-32.5 15.5t-43 6q-32 0 -66.5 -14.5t-66.5 -45.5q-21 -21 -33 -41t-18 -41h310zM196 230q-1 -6 -1.5 -12.5t-0.5 -12.5q0 -20 4.5 -44.5t16.5 -43.5q13 -20 39.5 -34.5t66.5 -14.5q33 0 67.5 14t64.5 46q20 21 35 48
t24 54h-316z" />
    <glyph glyph-name="uni04EA" unicode="&#x4ea;" horiz-adv-x="781" 
d="M535 710q44 0 80 -9t64.5 -23.5t49.5 -33.5t34 -40q11 -18 19 -39t13.5 -42.5t8 -43t2.5 -40.5q0 -45 -9 -91t-27 -91t-45.5 -86.5t-64.5 -75.5q-52 -48 -119 -76.5t-152 -28.5q-47 0 -83.5 9t-64.5 24t-47.5 34t-32.5 38q-26 39 -35 81.5t-9 84.5q0 52 11.5 101.5
t31.5 94t46.5 82t56.5 65.5q51 48 120 77t152 29zM698 407q1 8 1.5 16t0.5 16q0 27 -7 53.5t-21 49.5q-19 31 -55.5 55.5t-99.5 24.5q-53 0 -101 -21t-86 -59q-29 -29 -49.5 -64.5t-32.5 -70.5h450zM227 319q-2 -11 -3 -20.5t-1 -20.5q0 -31 6 -62t23 -58q48 -80 155 -80
q63 0 109 23.5t78 56.5q30 32 53.5 75t37.5 86h-458zM507 852l-21 -100h-106l21 100h106zM723 852l-21 -100h-106l21 100h106z" />
    <glyph glyph-name="uni04EB" unicode="&#x4eb;" horiz-adv-x="616" 
d="M412 518q58 0 102.5 -19t74.5 -61q21 -29 28 -61t7 -66q0 -67 -30.5 -130.5t-78.5 -108.5q-40 -36 -93 -58t-117 -22q-36 0 -64.5 7t-50 18.5t-36.5 26t-25 28.5q-22 31 -28 63.5t-6 61.5q0 28 6 59.5t18.5 63t33 61.5t50.5 57q48 43 101 61.5t108 18.5zM523 300
q0 4 -0.5 13t-2 20t-4 23t-7.5 22t-14 21.5t-22.5 21t-32.5 15.5t-43 6q-32 0 -66.5 -14.5t-66.5 -45.5q-21 -21 -33 -41t-18 -41h310zM196 230q-1 -6 -1.5 -12.5t-0.5 -12.5q0 -20 4.5 -44.5t16.5 -43.5q13 -20 39.5 -34.5t66.5 -14.5q33 0 67.5 14t64.5 46q20 21 35 48
t24 54h-316zM318 720h94l-20 -100h-94zM482 720h94l-20 -100h-94z" />
    <glyph glyph-name="uni04EE" unicode="&#x4ee;" horiz-adv-x="581" 
d="M264 700l106 -404l254 404h103l-388 -602q-13 -20 -34 -44t-39 -37q-23 -16 -48.5 -21.5t-52.5 -5.5q-18 0 -37.5 4t-38.5 10l28 87q11 -5 25 -9t33 -4t31 4.5t20 9.5t20.5 18.5t18.5 23.5l35 57l-143 509h107zM590 834l-12 -60h-262l12 60h262z" />
    <glyph glyph-name="uni04EF" unicode="&#x4ef;" horiz-adv-x="488" 
d="M14 -140q1 0 11.5 -4t27.5 -4t37 6.5t37 20.5q19 18 33.5 41t22.5 38l11 22l-4 38l-80 492h103l55 -419h2l222 419h95l-298 -529q-21 -37 -37 -63.5t-28.5 -44.5t-22 -29t-17.5 -18q-26 -23 -60 -36.5t-74 -13.5q-20 0 -32.5 2t-20.5 4l-5 1zM237 722h296l-14 -70h-296z
" />
    <glyph glyph-name="uni04F0" unicode="&#x4f0;" horiz-adv-x="581" 
d="M264 700l106 -404l254 404h103l-388 -602q-13 -20 -34 -44t-39 -37q-23 -16 -48.5 -21.5t-52.5 -5.5q-18 0 -37.5 4t-38.5 10l28 87q11 -5 25 -9t33 -4t31 4.5t20 9.5t20.5 18.5t18.5 23.5l35 57l-143 509h107zM407 852l-21 -100h-106l21 100h106zM623 852l-21 -100h-106
l21 100h106z" />
    <glyph glyph-name="uni04F1" unicode="&#x4f1;" horiz-adv-x="488" 
d="M14 -140q1 0 11.5 -4t27.5 -4t37 6.5t37 20.5q19 18 33.5 41t22.5 38l11 22l-4 38l-80 492h103l55 -419h2l222 419h95l-298 -529q-21 -37 -37 -63.5t-28.5 -44.5t-22 -29t-17.5 -18q-26 -23 -60 -36.5t-74 -13.5q-20 0 -32.5 2t-20.5 4l-5 1zM256 720h94l-20 -100h-94z
M420 720h94l-20 -100h-94z" />
    <glyph glyph-name="uni04F2" unicode="&#x4f2;" horiz-adv-x="581" 
d="M264 700l106 -404l254 404h103l-388 -602q-13 -20 -34 -44t-39 -37q-23 -16 -48.5 -21.5t-52.5 -5.5q-18 0 -37.5 4t-38.5 10l28 87q11 -5 25 -9t33 -4t31 4.5t20 9.5t20.5 18.5t18.5 23.5l35 57l-143 509h107zM549 870l-147 -120h-80l107 120h120zM707 870l-147 -120
h-80l107 120h120z" />
    <glyph glyph-name="uni04F3" unicode="&#x4f3;" horiz-adv-x="488" 
d="M14 -140q1 0 11.5 -4t27.5 -4t37 6.5t37 20.5q19 18 33.5 41t22.5 38l11 22l-4 38l-80 492h103l55 -419h2l222 419h95l-298 -529q-21 -37 -37 -63.5t-28.5 -44.5t-22 -29t-17.5 -18q-26 -23 -60 -36.5t-74 -13.5q-20 0 -32.5 2t-20.5 4l-5 1zM325 740h110l-157 -130h-70z
M506 740h110l-157 -130h-70z" />
    <glyph glyph-name="uni04F4" unicode="&#x4f4;" horiz-adv-x="653" 
d="M518 293q-43 -11 -91 -17.5t-98 -6.5q-42 0 -72 6t-51 16t-34 21.5t-20 23.5q-16 26 -16 60q0 28 6 60l50 244h100l-43 -210q-6 -29 -6 -55q0 -13 4 -28t21 -28q9 -7 23.5 -11t30 -6.5t31 -3.5t27.5 -1q14 0 56.5 3t99.5 20l65 320h100l-142 -700h-100zM443 852l-21 -100
h-106l21 100h106zM659 852l-21 -100h-106l21 100h106z" />
    <glyph glyph-name="uni04F5" unicode="&#x4f5;" horiz-adv-x="536" 
d="M403 201q-26 -5 -63 -10t-67 -5t-66 6.5t-60 25.5q-17 13 -27.5 33t-10.5 45q0 8 1 19.5t2 16.5l36 178h94l-30 -150q-2 -9 -3 -17.5t-1 -21.5q0 -12 4 -25t18 -22q7 -5 22.5 -8.5t51.5 -3.5q28 0 58 3.5t56 9.5l47 235h94l-103 -510h-94zM278 720h94l-20 -100h-94z
M442 720h94l-20 -100h-94z" />
    <glyph glyph-name="uni04F8" unicode="&#x4f8;" horiz-adv-x="831" 
d="M477 249q0 54 -27 78.5t-85 24.5h-100l-54 -264h100q76 0 121 39t45 122zM236 700h100l-53 -260h100q104 0 153.5 -46.5t49.5 -123.5q0 -63 -20.5 -113.5t-58.5 -85t-92 -53t-121 -18.5h-200zM779 700h100l-142 -700h-100zM532 852l-21 -100h-106l21 100h106zM748 852
l-21 -100h-106l21 100h106z" />
    <glyph glyph-name="uni04F9" unicode="&#x4f9;" horiz-adv-x="742" 
d="M182 510h94l-36 -180h103q95 0 138 -38t43 -102q0 -38 -16.5 -72t-48 -60.5t-77.5 -42t-105 -15.5h-197zM426 190q0 29 -21.5 46.5t-76.5 17.5h-103l-36 -178h103q63 0 98.5 33t35.5 81zM671 510h94l-103 -510h-94zM381 720h94l-20 -100h-94zM545 720h94l-20 -100h-94z
" />
    <glyph glyph-name="uni058F" unicode="&#x58f;" horiz-adv-x="551" 
d="M390 167h-144l12 58h144l17 80h-144l11 58h145l20 97q7 31 7 59q0 101 -108 101q-59 0 -104.5 -39t-62.5 -121l-13 -60h-100l13 60q25 119 99 183.5t186 64.5q89 0 140 -46t51 -133q0 -29 -8 -69l-20 -97h80l-12 -58h-80l-17 -80h80l-12 -58h-80l-34 -167h-100z" />
    <glyph glyph-name="uni1E9E" unicode="&#x1e9e;" horiz-adv-x="674" 
d="M192 481q5 23 11 46t16.5 45.5t26 43t39.5 39.5q44 35 91 45t85 10q77 0 136 -23.5t104 -61.5l-190 -203q27 -3 56 -15t50 -32q19 -18 34.5 -50t15.5 -84q0 -36 -7.5 -66t-19.5 -53.5t-27 -41t-30 -29.5q-23 -19 -48.5 -30.5t-51.5 -18t-51.5 -8.5t-49.5 -2q-30 0 -57 3
t-58 11l27 88q42 -16 92 -16q43 0 74 10.5t51 27.5q22 19 36 49t14 67q0 8 -1.5 19t-6 23.5t-13 25t-23.5 23.5q-14 9 -30.5 14.5t-32.5 8.5t-29.5 3.5t-21.5 0.5h-32l10 49l177 192q-23 20 -61 29q-8 2 -16.5 3t-16.5 1q-34 0 -65.5 -10t-52.5 -28q-26 -22 -37.5 -49.5
t-16.5 -54.5l-98 -482h-100z" />
    <glyph glyph-name="uni2010" unicode="&#x2010;" horiz-adv-x="460" 
d="M144 350h300l-20 -100h-300z" />
    <glyph glyph-name="uni2011" unicode="&#x2011;" horiz-adv-x="460" 
d="M144 350h300l-20 -100h-300z" />
    <glyph glyph-name="figuredash" unicode="&#x2012;" 
d="M101 394h500l-15 -88h-500z" />
    <glyph glyph-name="endash" unicode="&#x2013;" horiz-adv-x="600" 
d="M115 344h500l-15 -88h-500z" />
    <glyph glyph-name="emdash" unicode="&#x2014;" horiz-adv-x="900" 
d="M120 344h800l-20 -88h-800z" />
    <glyph glyph-name="afii00208" unicode="&#x2015;" horiz-adv-x="900" 
d="M120 344h800l-20 -88h-800z" />
    <glyph glyph-name="quoteleft" unicode="&#x2018;" horiz-adv-x="278" 
d="M256 454h-112l136 246h88z" />
    <glyph glyph-name="quoteright" unicode="&#x2019;" horiz-adv-x="278" 
d="M256 700h112l-138 -246h-86z" />
    <glyph glyph-name="quotesinglbase" unicode="&#x201a;" horiz-adv-x="278" 
d="M138 112h111l-135 -245h-89z" />
    <glyph glyph-name="quotedblleft" unicode="&#x201c;" horiz-adv-x="556" 
d="M300 454h-112l136 246h88zM488 454h-110l134 246h90z" />
    <glyph glyph-name="quotedblright" unicode="&#x201d;" horiz-adv-x="556" 
d="M301 700h111l-135 -246h-89zM491 700h111l-135 -246h-89z" />
    <glyph glyph-name="quotedblbase" unicode="&#x201e;" horiz-adv-x="556" 
d="M182 112h111l-135 -245h-89zM372 112h111l-135 -245h-89z" />
    <glyph glyph-name="dagger" unicode="&#x2020;" 
d="M306 422h-176l18 88h176l39 190h100l-39 -190h176l-18 -88h-176l-114 -562h-100z" />
    <glyph glyph-name="daggerdbl" unicode="&#x2021;" 
d="M232 50h-172l18 88h172l59 284h-172l18 88h172l40 190h100l-40 -190h173l-18 -88h-173l-59 -284h173l-18 -88h-173l-39 -190h-100z" />
    <glyph glyph-name="bullet" unicode="&#x2022;" horiz-adv-x="490" 
d="M315 125q-36 0 -68 13.5t-56 37.5t-37.5 56t-13.5 68t13.5 68t37.5 56t56 37.5t68 13.5t68 -13.5t56 -37.5t37.5 -56t13.5 -68t-13.5 -68t-37.5 -56t-56 -37.5t-68 -13.5z" />
    <glyph glyph-name="ellipsis" unicode="&#x2026;" horiz-adv-x="1000" 
d="M134 112h112l-23 -112h-112zM467 112h112l-23 -112h-112zM800 112h112l-23 -112h-112z" />
    <glyph glyph-name="perthousand" unicode="&#x2030;" horiz-adv-x="1160" 
d="M308 366q-65 0 -100 32t-35 92q0 11 1.5 22.5t3.5 24.5q17 81 70 126t130 45q65 0 100 -32t35 -92q0 -11 -1.5 -22.5t-3.5 -24.5q-17 -81 -70 -126t-130 -45zM320 426q42 0 71.5 26.5t41.5 84.5q2 11 3.5 21t1.5 19q0 37 -19 54t-53 17q-42 0 -71.5 -26.5t-41.5 -84.5
q-2 -11 -3.5 -21t-1.5 -19q0 -37 19 -54t53 -17zM748 700h82l-618 -700h-82zM582 -8q-65 0 -100 32t-35 92q0 11 1.5 22.5t3.5 24.5q17 81 70 126t130 45q65 0 100 -32t35 -92q0 -11 -1.5 -22.5t-3.5 -24.5q-17 -81 -70 -126t-130 -45zM594 52q42 0 71.5 26.5t41.5 84.5
q4 19 4 39q0 38 -19 55t-53 17q-42 0 -71 -26.5t-41 -84.5q-2 -11 -3.5 -21t-1.5 -19q0 -37 19 -54t53 -17zM955 -8q-65 0 -100 32t-35 92q0 11 1.5 22.5t3.5 24.5q17 81 70 126t130 45q65 0 100 -32t35 -92q0 -11 -1.5 -22.5t-3.5 -24.5q-17 -81 -70 -126t-130 -45zM967 52
q42 0 71.5 26.5t41.5 84.5q4 19 4 39q0 38 -19 55t-53 17q-42 0 -71 -26.5t-41 -84.5q-2 -11 -3.5 -21t-1.5 -19q0 -37 19 -54t53 -17z" />
    <glyph glyph-name="guilsinglleft" unicode="&#x2039;" horiz-adv-x="354" 
d="M105 269l184 202h88l-171 -202l90 -202h-88z" />
    <glyph glyph-name="guilsinglright" unicode="&#x203a;" horiz-adv-x="354" 
d="M357 300l-183 -202h-88l170 202l-89 202h88z" />
    <glyph glyph-name="fraction" unicode="&#x2044;" horiz-adv-x="370" 
d="M518 700h82l-618 -700h-82z" />
    <glyph glyph-name="uni2074" unicode="&#x2074;" horiz-adv-x="360" 
d="M296 431l39 190h-2l-162 -190h125zM282 361h-211l12 61l241 278h116l-56 -269h52l-14 -70h-52l-17 -83h-88z" />
    <glyph glyph-name="franc" unicode="&#x20a3;" 
d="M140 136h-85l14 68h85l101 496h375l-18 -88h-275l-42 -205h259l-17 -88h-259l-24 -115h140l-14 -68h-140l-27 -136h-100z" />
    <glyph glyph-name="Euro" unicode="&#x20ac;" 
d="M393 -10q-128 0 -195 62t-80 199h-78l30 66h52q3 34 15 70h-69l29 66h64q25 55 63 102t86.5 81.5t106.5 54t122 19.5q57 0 91.5 -11t59.5 -25l-39 -89q-15 11 -46 24t-84 13q-41 0 -77.5 -13t-68.5 -35.5t-58.5 -53.5t-45.5 -67h323l-29 -66h-322q-5 -17 -8.5 -34
t-5.5 -36h305l-29 -66h-277q4 -46 17 -79t36.5 -54t58 -30.5t81.5 -9.5q16 0 52 5.5t84 27.5l-13 -96q-27 -10 -62.5 -17.5t-88.5 -7.5z" />
    <glyph glyph-name="uni20B4" unicode="&#x20b4;" 
d="M75 246l12 64h97q23 23 50.5 43t65.5 37l24 11h-218l13 64h314q19 19 26.5 39t7.5 45q0 21 -9 35t-23 22.5t-31.5 12t-34.5 3.5q-20 0 -52 -4.5t-76 -21.5l5 92q17 6 58 14t87 8q39 0 73 -8.5t59 -26t39.5 -43t14.5 -59.5q0 -27 -7.5 -56t-20.5 -52h70l-13 -64h-110
q-16 -13 -33.5 -24t-38.5 -21l-45 -22q-13 -6 -25.5 -12t-24.5 -12h258l-12 -64h-326q-10 -15 -16 -36t-6 -41q0 -42 30.5 -66.5t79.5 -24.5q35 0 71.5 8t71.5 22l-9 -92q-20 -8 -42 -13t-43 -8t-38 -4t-27 -1q-98 0 -151 41.5t-53 109.5q0 54 25 105h-67z" />
    <glyph glyph-name="uni20B8" unicode="&#x20b8;" 
d="M625 562l-14 -68h-188l-100 -494h-100l100 494h-188l14 68h476zM653 700l-14 -68h-476l14 68h476z" />
    <glyph glyph-name="uni20BC" unicode="&#x20bc;" 
d="M10 0q31 151 68.5 254t80 167.5t90 95.5t98.5 38l30 145h90l-31 -149q30 -8 56 -26.5t45.5 -50.5t31 -79t11.5 -112q0 -113 -34 -283h-96q20 102 29.5 176t9.5 127q0 78 -19 115t-51 49l-95 -467h-90l95 466q-29 -10 -58 -37t-57.5 -81t-55.5 -138.5t-52 -209.5h-96v0z
" />
    <glyph glyph-name="uni20BD" unicode="&#x20bd;" 
d="M145 152h-85l15 76h85l12 57h-85l15 76h85l70 339h170q93 0 143 -43t50 -113q0 -60 -20 -107.5t-56 -81.5t-87.5 -52t-114.5 -18h-70l-12 -57h140l-15 -76h-140l-31 -152h-100zM357 361q33 0 61.5 11t49.5 32.5t33 53t12 73.5q0 46 -23.5 64.5t-80.5 18.5h-70l-52 -253
h70z" />
    <glyph glyph-name="uni20BE" unicode="&#x20be;" 
d="M67 88h88q-54 54 -54 159q0 67 17.5 140.5t50.5 137t79.5 110.5t104.5 61l21 104h58l-19 -93h6q3 0 6.5 0.5t7.5 0.5t7.5 -0.5t6.5 -0.5h6l19 93h58l-22 -107q49 -22 80.5 -74t31.5 -138q0 -58 -15 -131h-96q8 39 11.5 71t3.5 58q0 47 -9 76t-26 45l-51 -250h-58l56 273
h-6q-3 0 -6 0.5t-8 0.5t-8.5 -0.5t-6.5 -0.5q-4 -1 -6 -1l-55 -272h-58l50 247q-28 -18 -52.5 -56t-42.5 -85t-28 -97.5t-10 -93.5q0 -91 44 -134t120 -43h148l-17 -88h-444z" />
    <glyph glyph-name="afii61352" unicode="&#x2116;" horiz-adv-x="1001" 
d="M230 700h129l178 -564h2l114 564h95l-142 -700h-121l-183 576h-2l-117 -576h-95zM760 410q0 42 16.5 86t45.5 72q45 45 110 45q20 0 46.5 -7.5t46.5 -37.5q8 -12 12.5 -28t4.5 -36q0 -17 -3.5 -37t-10.5 -41t-17 -40t-23 -34q-14 -15 -43 -33.5t-76 -18.5q-26 0 -47 8
t-38 28q-8 11 -16 29t-8 45zM838 457q-2 -13 -4.5 -25.5t-2.5 -26.5q0 -5 1 -17.5t8 -22.5q13 -19 38 -19q15 0 31 8t27 24q7 10 13.5 27t11.5 35t7.5 34.5t2.5 27.5q0 21 -3.5 31t-5.5 14q-5 8 -14 14t-25 6q-34 0 -57 -32q-14 -19 -19 -37.5t-9 -40.5zM722 195h255
l-12 -60h-255z" />
    <glyph glyph-name="uni2117" unicode="&#x2117;" horiz-adv-x="826" 
d="M472 -10q-75 0 -140.5 28.5t-114 78t-77 114.5t-28.5 139q0 75 28.5 140.5t77 114t114 77t140.5 28.5t140 -28.5t114 -77t77 -114t28 -140.5q0 -73 -28.5 -138.5t-77 -114.5t-114 -78t-139.5 -29zM472 56q61 0 114.5 23t93.5 63t63 93.5t23 114.5t-23 115t-63 94
t-93.5 63t-114.5 23q-60 0 -114 -23t-94 -63t-63.5 -94t-23.5 -115t23.5 -114.5t63.5 -93.5t93.5 -63t114.5 -23zM481 355q42 0 58.5 16.5t16.5 51.5t-17.5 51t-63.5 16h-41v-135h47zM362 548h113q88 0 122.5 -30.5t34.5 -94.5t-34 -94.5t-117 -30.5h-47v-146h-72v396z" />
    </font>
</defs>
</svg>
