<?xml version="1.0" standalone="no"?>
<!DOCTYPE svg PUBLIC "-//W3C//DTD SVG 1.1//EN" "http://www.w3.org/Graphics/SVG/1.1/DTD/svg11.dtd" >
<svg xmlns="http://www.w3.org/2000/svg" xmlns:xlink="http://www.w3.org/1999/xlink" version="1.1">
<metadata>
Created by FontForge 20170731 at Thu Mar 22 20:33:20 2018
 By Aleksey,,,
Copyright (c) 1992 ParaType Inc., ParaType Ltd. All rights reserved.
</metadata>
<defs>
<font id="VTBGroup-Light" horiz-adv-x="600" >
  <font-face 
    font-family="VTB Group Light"
    font-weight="300"
    font-stretch="normal"
    units-per-em="1000"
    panose-1="2 11 4 3 4 5 4 2 2 4"
    ascent="773"
    descent="-227"
    x-height="513"
    cap-height="700"
    bbox="-459 -250 1230 964"
    underline-thickness="50"
    underline-position="-150"
    unicode-range="U+000D-FEFF"
  />
<missing-glyph horiz-adv-x="500" 
d="M442 8v496h-384v-496h384zM50 512h400v-512h-400v512z" />
    <glyph glyph-name="IJ" unicode="IJ" horiz-adv-x="602" 
d="M166 700v-700h-66v700h66zM502 700v-525q0 -94 -42 -138.5t-120 -44.5q-38 0 -74 10v60q32 -13 73 -13q45 0 71 29.5t26 96.5v525h66z" />
    <glyph glyph-name="ij" unicode="ij" horiz-adv-x="440" 
d="M143 513v-513h-63v513h63zM146 720v-80h-69v80h69zM360 -74q0 -20 -3 -45t-14 -47t-34 -37t-63 -15q-15 0 -29.5 1.5t-29.5 6.5v51q12 -4 24 -5t24 -1q10 0 21 2.5t20 11t15 25.5t6 46v593h63v-587zM363 720v-80h-69v80h69z" />
    <glyph glyph-name="afii10017.var.accented" unicode="&#x410;`" horiz-adv-x="650" 
d="M475 870l-120 -120h-60l80 120h100zM282 700h86l267 -700h-72l-72 192h-335l-71 -192h-70zM469 249l-143 385h-2l-146 -385h291z" />
    <glyph glyph-name="afii10022.var.accented" unicode="&#x415;`" horiz-adv-x="509" 
d="M440 700v-57h-274v-253h261v-57h-261v-276h293v-57h-359v700h340zM337 870l-120 -120h-60l80 120h100z" />
    <glyph glyph-name="afii10026.var.accented" unicode="&#x418;`" horiz-adv-x="717" 
d="M166 700v-526l-4 -85h3l39 71l338 540h75v-700h-66v526l4 85h-3l-35 -66l-342 -545h-75v700h66zM441 870l-120 -120h-60l80 120h100z" />
    <glyph glyph-name="afii10032.var.accented" unicode="&#x41e;`" horiz-adv-x="744" 
d="M55 349q0 70 19.5 135t59 115t99 79.5t139.5 29.5t139.5 -29.5t99 -79.5t59 -115t19.5 -135q0 -87 -24.5 -153.5t-67.5 -111.5t-100.5 -68.5t-124.5 -23.5t-125 23.5t-100.5 68.5t-67 111.5t-24.5 153.5zM126 349q0 -79 21.5 -135.5t56 -93t78.5 -54t90 -17.5t90 17.5
t78.5 54t56 93t21.5 135.5t-21.5 136t-56 94t-78.5 54.5t-90 17.5t-90 -17.5t-78.5 -54.5t-56 -94t-21.5 -136zM454 870l-120 -120h-60l80 120h100z" />
    <glyph glyph-name="afii10037.var.accented" unicode="&#x423;`" horiz-adv-x="592" 
d="M94 700l217 -455l189 455h72l-248 -589q-10 -23 -20 -44.5t-24.5 -38t-36 -26.5t-53.5 -10q-18 0 -35 2.5t-35 9.5v56q15 -8 30.5 -9.5t30.5 -1.5q28 0 44.5 18.5t33.5 60.5l17 40l-256 532h74zM446 870l-120 -120h-60l80 120h100z" />
    <glyph glyph-name="afii10045.var.accented" unicode="&#x42b;`" horiz-adv-x="806" 
d="M100 700h66v-280h134q52 0 94 -16t72 -44t46 -66.5t16 -83.5t-16 -83.5t-46 -66.5t-72 -44t-94 -16h-200v700zM457 209q0 71 -42 112.5t-115 41.5h-134v-306h134q73 0 115 41.5t42 110.5zM706 700v-700h-66v700h66zM553 870l-120 -120h-60l80 120h100z" />
    <glyph glyph-name="afii10047.var.accented" unicode="&#x42d;`" horiz-adv-x="633" 
d="M228 -8q-63 0 -104.5 7t-79.5 21v65q23 -10 43 -16.5t41 -11t45 -6.5t55 -2q60 0 110 18.5t86.5 54.5t58 88.5t25.5 121.5h-370v57h370q-4 61 -26 109.5t-58.5 82.5t-86 52t-109.5 18t-105.5 -14t-87.5 -36v65q36 17 83.5 29.5t109.5 12.5q79 0 143.5 -25t110.5 -71
t71 -110t25 -142q0 -84 -26 -152t-72.5 -116t-110.5 -74t-141 -26zM409 870l-120 -120h-60l80 120h100z" />
    <glyph glyph-name="afii10048.var.accented" unicode="&#x42e;`" horiz-adv-x="973" 
d="M286 391q4 60 25 117t60 101.5t96 71.5t134 27q80 0 139.5 -29.5t99 -79.5t59 -115t19.5 -135q0 -87 -24.5 -153.5t-67.5 -111.5t-100.5 -68.5t-124.5 -23.5q-81 0 -140 29.5t-98 78t-58 110t-20 124.5h-119v-334h-66v700h66v-309h120zM356 349q0 -79 21.5 -135.5t56 -93
t78.5 -54t89 -17.5q46 0 90 17.5t78.5 54t56 93t21.5 135.5t-21.5 136t-56 94t-78.5 54.5t-90 17.5q-45 0 -89 -17.5t-78.5 -54.5t-56 -94t-21.5 -136zM569 870l-120 -120h-60l80 120h100z" />
    <glyph glyph-name="afii10049.var.accented" unicode="&#x42f;`" horiz-adv-x="590" 
d="M208 293q-66 20 -99 70t-33 127q0 100 57 155t173 55h184v-700h-66v280h-118h-16.5t-16.5 1l-146 -281h-81zM147 490q0 -79 37.5 -116t121.5 -37h118v306h-118q-84 0 -121.5 -37t-37.5 -116zM470 870l-120 -120h-60l80 120h100z" />
    <glyph glyph-name="afii10023.var.accented" unicode="&#x401;`" horiz-adv-x="509" 
d="M440 700v-57h-274v-253h261v-57h-261v-276h293v-57h-359v700h340zM184 844v-80h-66v80h66zM413 844v-80h-66v80h66zM392 964l-106 -120h-54l70 120h90z" />
    <glyph glyph-name="afii10065.var.accented" unicode="&#x430;`" horiz-adv-x="518" 
d="M414 740l-134 -130h-50l90 130h94zM215 -8q-83 0 -126.5 41t-43.5 107q0 37 15 68.5t47 54.5t83.5 36.5t124.5 13.5h57v17q0 72 -30 105t-87 33q-38 0 -78 -9t-77 -28v58q32 14 71 23t84 9q89 0 134.5 -47t45.5 -144v-330h-53v87h-2q-16 -30 -36 -48.5t-42 -29t-44 -14
t-43 -3.5zM215 45q74 0 115.5 46.5t41.5 131.5v37h-57q-58 0 -97 -9t-63 -25t-34 -38t-10 -48q0 -42 28 -68.5t76 -26.5z" />
    <glyph glyph-name="afii10070.var.accented" unicode="&#x435;`" horiz-adv-x="508" 
d="M106 238q0 -24 6 -57t24 -63t51.5 -51.5t88.5 -21.5q39 0 77 6.5t76 26.5v-58q-39 -17 -77 -22.5t-77 -5.5q-110 0 -172.5 70t-62.5 203q0 60 16.5 107.5t46 80.5t70.5 50.5t90 17.5q48 0 81.5 -13.5t56.5 -35t36 -49.5t20 -57t9 -57.5t2 -50.5v-20h-362zM402 291
q0 15 -3 45t-16.5 59t-41.5 51t-78 22q-39 0 -68 -15.5t-48.5 -40.5t-29.5 -57t-11 -64h296zM419 740l-134 -130h-50l90 130h94z" />
    <glyph glyph-name="afii10074.var.accented" unicode="&#x438;`" horiz-adv-x="594" 
d="M143 513v-376l-1 -54h3l34 55l265 375h70v-513h-63v376l1 54h-3l-34 -54l-265 -376h-70v513h63zM389 740l-134 -130h-50l90 130h94z" />
    <glyph glyph-name="afii10080.var.accented" unicode="&#x43e;`" horiz-adv-x="564" 
d="M45 256q0 60 17 109t48 83.5t74.5 53.5t97.5 19t97.5 -19t74.5 -53.5t48 -83.5t17 -109t-17 -108.5t-48 -83t-75 -53.5t-97 -19t-97 19t-75 53.5t-48 83t-17 108.5zM111 256q0 -37 10 -74.5t30.5 -68t53 -49.5t77.5 -19t77.5 19t53 49.5t30.5 68t10 74.5t-10 75
t-30.5 68.5t-53 49.5t-77.5 19t-77.5 -19t-53 -49.5t-30.5 -68.5t-10 -75zM394 740l-134 -130h-50l90 130h94z" />
    <glyph glyph-name="afii10085.var.accented" unicode="&#x443;`" horiz-adv-x="490" 
d="M60 -155q7 -3 15 -5q7 -2 16 -3t20 -1q33 0 50 22t29 58l24 70l-184 527h67l151 -439h1l146 439h65l-219 -629q-8 -22 -18.5 -41t-25 -33t-34 -22t-46.5 -8q-21 0 -38.5 4.5t-18.5 4.5v56zM404 740l-134 -130h-50l90 130h94z" />
    <glyph glyph-name="afii10093.var.accented" unicode="&#x44b;`" horiz-adv-x="699" 
d="M619 513v-513h-63v513h63zM80 513h63v-193h118q105 0 152.5 -42.5t47.5 -117.5t-47.5 -117.5t-152.5 -42.5h-181v513zM395 160q0 51 -31.5 79t-102.5 28h-118v-214h118q71 0 102.5 28t31.5 79zM508 740l-134 -130h-50l90 130h94z" />
    <glyph glyph-name="afii10095.var.accented" unicode="&#x44d;`" horiz-adv-x="459" 
d="M148 -8q-32 0 -59 4t-59 16v56q28 -11 59.5 -17t58.5 -6q91 0 141.5 45.5t57.5 138.5h-244v53h244q-8 91 -58.5 138.5t-133.5 47.5q-38 0 -70.5 -10t-53.5 -19v58q41 13 67 18.5t58 5.5q59 0 107 -18t81.5 -52.5t51.5 -84t18 -111.5q0 -61 -18 -110t-52 -83t-82.5 -52
t-108.5 -18h-5v0zM342 740l-134 -130h-50l90 130h94z" />
    <glyph glyph-name="afii10096.var.accented" unicode="&#x44e;`" horiz-adv-x="743" 
d="M224 289q3 46 20 88t46.5 74t72 51t98.5 19q31 0 61.5 -6.5t56.5 -21.5q24 -14 46 -36t38 -52t25.5 -67t9.5 -82q0 -60 -17 -108.5t-48 -83t-75 -53.5t-97 -19q-60 0 -103.5 21t-72.5 55.5t-44 78t-17 89.5h-81v-236h-63v513h63v-224h81zM290 256q0 -37 10 -74.5
t30.5 -68t53 -49.5t77.5 -19t77.5 19t53 49.5t30.5 68t10 74.5t-10 75t-30.5 68.5t-53 49.5t-77.5 19t-77.5 -19t-53 -49.5t-30.5 -68.5t-10 -75zM464 740l-134 -130h-50l90 130h94z" />
    <glyph glyph-name="afii10097.var.accented" unicode="&#x44f;`" horiz-adv-x="498" 
d="M155 207q-49 17 -72 54.5t-23 91.5q0 75 46 117.5t144 42.5h168v-513h-63v193h-105h-15.5t-15.5 1l-98 -194h-76zM126 353q0 -51 30.5 -79t93.5 -28h105v214h-105q-63 0 -93.5 -28t-30.5 -79zM415 740l-134 -130h-50l90 130h94z" />
    <glyph glyph-name="afii10071.var.accented" unicode="&#x451;`" horiz-adv-x="508" 
d="M106 238q0 -24 6 -57t24 -63t51.5 -51.5t88.5 -21.5q39 0 77 6.5t76 26.5v-58q-39 -17 -77 -22.5t-77 -5.5q-110 0 -172.5 70t-62.5 203q0 60 16.5 107.5t46 80.5t70.5 50.5t90 17.5q48 0 81.5 -13.5t56.5 -35t36 -49.5t20 -57t9 -57.5t2 -50.5v-20h-362zM402 291
q0 15 -3 45t-16.5 59t-41.5 51t-78 22q-39 0 -68 -15.5t-48.5 -40.5t-29.5 -57t-11 -64h296zM180 720v-80h-66v80h66zM393 720v-80h-66v80h66zM385 854l-114 -134h-50l80 134h84z" />
    <glyph glyph-name="fi" unicode="fi" horiz-adv-x="603" 
d="M119 460h-107v53h107v105q0 74 36.5 110.5t95.5 36.5q17 0 32 -2.5t29 -7.5v-52q-12 4 -27.5 6.5t-28.5 2.5q-28 0 -43 -11t-22 -25.5t-8 -29.5t-1 -23v-110h121v-53h-121v-460h-63v460zM523 513v-513h-63v513h63zM526 720v-80h-69v80h69z" />
    <glyph glyph-name="fl" unicode="fl" horiz-adv-x="603" 
d="M119 460h-107v53h107v105q0 74 36.5 110.5t95.5 36.5q17 0 32 -2.5t29 -7.5v-52q-12 4 -27.5 6.5t-28.5 2.5q-28 0 -43 -11t-22 -25.5t-8 -29.5t-1 -23v-110h121v-53h-121v-460h-63v460zM523 762v-762h-63v762h63z" />
    <glyph glyph-name=".notdef" horiz-adv-x="500" 
d="M442 8v496h-384v-496h384zM50 512h400v-512h-400v512z" />
    <glyph glyph-name=".null" horiz-adv-x="0" 
 />
    <glyph glyph-name=".null" horiz-adv-x="0" 
 />
    <glyph glyph-name="uni000D" unicode="&#xd;" horiz-adv-x="233" 
 />
    <glyph glyph-name="space" unicode=" " horiz-adv-x="233" 
 />
    <glyph glyph-name="exclam" unicode="!" horiz-adv-x="282" 
d="M182 700l-12 -525h-58l-12 525h82zM182 86v-86h-82v86h82z" />
    <glyph glyph-name="quotedbl" unicode="&#x22;" horiz-adv-x="330" 
d="M70 700h56v-220h-56v220zM204 700h56v-220h-56v220z" />
    <glyph glyph-name="numbersign" unicode="#" 
d="M151 207h-96v57h104l25 173h-101v57h109l29 206h62l-29 -206h133l29 206h62l-29 -206h96v-57h-104l-25 -173h101v-57h-109l-29 -207h-62l29 207h-133l-29 -207h-62zM354 264l25 173h-133l-25 -173h133z" />
    <glyph glyph-name="dollar" unicode="$" 
d="M284 -6q-44 0 -87.5 7t-88.5 24v68q38 -18 78.5 -29.5t97.5 -11.5v285q-42 18 -75.5 38t-57 43t-36 51.5t-12.5 64.5q0 41 15 72t40.5 52t58 32.5t67.5 13.5v96h44v-94q37 0 75 -5.5t78 -19.5v-66q-37 16 -74 25t-79 9v-260q48 -24 83.5 -45.5t59 -46.5t35.5 -56t12 -73
q0 -49 -20.5 -80.5t-50 -51t-62 -28t-57.5 -11.5v-97h-44v94zM447 170q0 27 -8 48t-23.5 37.5t-37.5 30.5t-50 27v-257q57 14 88 42t31 72zM174 534q0 -41 29 -68.5t81 -51.5v232q-35 -6 -56.5 -18.5t-33.5 -28t-16 -33t-4 -32.5z" />
    <glyph glyph-name="percent" unicode="%" horiz-adv-x="830" 
d="M605 -8q-34 0 -62.5 12t-49 34t-32 53.5t-11.5 70.5t11.5 70.5t32 53.5t49 34t62.5 12t62.5 -12t49 -34t32 -53.5t11.5 -70.5t-11.5 -70.5t-32 -53.5t-49 -34t-62.5 -12zM605 43q45 0 72.5 29.5t27.5 89.5t-27.5 90t-72.5 30t-72.5 -30t-27.5 -90t27.5 -89.5t72.5 -29.5z
M225 368q-34 0 -62.5 12t-49 34t-32 53.5t-11.5 70.5t11.5 70.5t32 53.5t49 34t62.5 12t62.5 -12t49 -34t32 -53.5t11.5 -70.5t-11.5 -70.5t-32 -53.5t-49 -34t-62.5 -12zM225 419q45 0 72.5 29.5t27.5 89.5t-27.5 90t-72.5 30t-72.5 -30t-27.5 -90t27.5 -89.5t72.5 -29.5z
M140 0l488 700h62l-488 -700h-62z" />
    <glyph glyph-name="ampersand" unicode="&#x26;" horiz-adv-x="731" 
d="M521 78q-43 -45 -91 -65.5t-120 -20.5q-64 0 -109.5 18t-74.5 46t-42.5 61.5t-13.5 64.5q0 27 6.5 58t25 60.5t52 54.5t87.5 41q-22 22 -40 41t-30.5 37.5t-19 38t-6.5 44.5q0 29 10 56t31.5 48t55.5 34t81 13q35 0 67 -9t56 -28t38.5 -47t14.5 -67q0 -36 -12.5 -62.5
t-35 -46.5t-52.5 -35.5t-65 -30.5l193 -200q15 22 25 48.5t16.5 54t9.5 54.5t4 50h66q-3 -56 -12.5 -98.5t-22 -75t-26 -54.5t-23.5 -35l117 -126h-90zM211 557q0 -20 10 -40.5t23.5 -39t28.5 -33.5t26 -24q75 29 104.5 65.5t29.5 71.5q0 18 -6 34.5t-19.5 30t-34.5 21.5
t-50 8q-41 0 -64 -12t-33.5 -28t-12.5 -31.5t-2 -22.5zM271 356q-46 -15 -72 -38t-39 -48t-16 -47.5t-3 -36.5q0 -28 11.5 -53t33.5 -43.5t54 -29.5t73 -11q60 0 101 22.5t72 57.5z" />
    <glyph glyph-name="quotesingle" unicode="'" horiz-adv-x="195" 
d="M70 700h56v-220h-56v220z" />
    <glyph glyph-name="parenleft" unicode="(" horiz-adv-x="422" 
d="M322 754q-73 -120 -112 -237t-39 -227q0 -17 4.5 -55t19 -92.5t42 -125.5t74.5 -155h-49q-47 71 -78 133.5t-50 116t-26.5 98.5t-7.5 80q0 61 12 119t33.5 115t52 114t67.5 116h57z" />
    <glyph glyph-name="parenright" unicode=")" horiz-adv-x="422" 
d="M157 754q37 -59 67 -116t52 -114t34 -115t12 -119q0 -35 -7.5 -80t-26.5 -98.5t-50 -116t-78 -133.5h-49q47 84 74.5 155t42 125.5t19 92.5t4.5 55q0 110 -39 227t-112 237h57v0z" />
    <glyph glyph-name="asterisk" unicode="*" horiz-adv-x="570" 
d="M140 355l108 133l-163 40l21 65l157 -60l-9 167h67l-9 -167l153 58l20 -63l-160 -40l104 -132l-55 -36l-89 141l-94 -141z" />
    <glyph glyph-name="plus" unicode="+" 
d="M272 322h-222v56h222v222h56v-222h222v-56h-222v-222h-56v222z" />
    <glyph glyph-name="comma" unicode="," horiz-adv-x="313" 
d="M228 89l-74 -218h-69l55 218h88z" />
    <glyph glyph-name="hyphen" unicode="-" horiz-adv-x="400" 
d="M80 335h240v-70h-240v70z" />
    <glyph glyph-name="period" unicode="." horiz-adv-x="282" 
d="M182 86v-86h-82v86h82z" />
    <glyph glyph-name="slash" unicode="/" horiz-adv-x="310" 
d="M260 700h60l-270 -700h-60z" />
    <glyph glyph-name="zero" unicode="0" 
d="M300 -8q-51 0 -94 19.5t-74.5 62.5t-49 111t-17.5 165t17.5 165t49 111t74.5 62.5t94 19.5t94 -19.5t74.5 -62.5t49 -111t17.5 -165t-17.5 -165t-49 -111t-74.5 -62.5t-94 -19.5zM300 52q36 0 66.5 14.5t53 49t35 92t12.5 142.5t-12.5 142.5t-35 92t-53 49t-66.5 14.5
t-66.5 -14.5t-53 -49t-35 -92t-12.5 -142.5t12.5 -142.5t35 -92t53 -49t66.5 -14.5z" />
    <glyph glyph-name="one" unicode="1" 
d="M304 623l-158 -126l-36 46l199 157h61v-700h-66v623z" />
    <glyph glyph-name="two" unicode="2" 
d="M80 60q82 74 140 129.5t97.5 96.5t63 72t35.5 56t15.5 47.5t3.5 48.5q0 64 -39 101t-116 37q-53 0 -95.5 -13.5t-74.5 -33.5v66q50 23 92.5 32t77.5 9q113 0 169 -52.5t56 -145.5q0 -45 -16 -89t-55 -96t-104.5 -115.5t-164.5 -148.5v-1h355v-60h-440v60z" />
    <glyph glyph-name="three" unicode="3" 
d="M255 -8q-47 0 -86 7t-84 24v66q36 -17 75 -27t95 -10q91 0 135.5 41t44.5 107q0 28 -11.5 52.5t-36 43t-62.5 29t-90 10.5h-70v60h70q101 0 145.5 37.5t44.5 97.5q0 51 -37 84.5t-123 33.5q-45 0 -92 -12.5t-78 -27.5v66q37 16 81 25t89 9q60 0 103.5 -13.5t71.5 -37
t41.5 -56t13.5 -71.5q0 -60 -36 -102t-104 -62v-2q72 -14 111 -59t39 -105q0 -46 -16 -84.5t-47.5 -66t-78 -42.5t-108.5 -15z" />
    <glyph glyph-name="four" unicode="4" 
d="M390 167h-340v60l318 473h88v-476h104v-57h-104v-167h-66v167zM390 224v406h-3l-273 -406h276z" />
    <glyph glyph-name="five" unicode="5" 
d="M95 84q30 -14 70 -23t85 -9q94 0 139.5 43.5t45.5 124.5q0 68 -44 109t-131 41q-45 0 -83 -7t-72 -19l20 356h355v-60h-292l-13 -220q36 10 95 10q57 0 100.5 -15t73.5 -42.5t45.5 -66.5t15.5 -86q0 -52 -16.5 -94t-49 -72t-80 -46t-109.5 -16q-45 0 -85 7t-70 19v66z
" />
    <glyph glyph-name="six" unicode="6" 
d="M318 -8q-50 0 -93.5 20t-75.5 61t-50.5 103.5t-18.5 148.5q0 98 21.5 170t60 119.5t92 70.5t116.5 23q35 0 63 -3.5t57 -13.5v-66q-29 11 -56.5 17t-63.5 6q-48 0 -89 -17t-72 -55t-49 -98.5t-20 -147.5q25 58 71.5 84t106.5 26q48 0 87 -15.5t66.5 -44t43 -69
t15.5 -91.5q0 -53 -15.5 -95t-43.5 -71.5t-67 -45.5t-86 -16zM318 52q67 0 104.5 40.5t37.5 127.5q0 80 -38 120t-104 40q-76 0 -117 -42t-41 -108q0 -42 12 -75t33 -56t50 -35t63 -12z" />
    <glyph glyph-name="seven" unicode="7" 
d="M445 643h-360v57h430v-60l-270 -640h-75z" />
    <glyph glyph-name="eight" unicode="8" 
d="M232 361q-34 16 -60.5 33.5t-44.5 38.5t-27.5 47t-9.5 60q0 33 14.5 63.5t41.5 53.5t66 37t88 14t88 -14t66 -37t41.5 -53.5t14.5 -63.5t-11.5 -60t-31.5 -49t-46.5 -40t-55.5 -31v-1q39 -12 70 -28t53.5 -37.5t34.5 -49.5t12 -64q0 -41 -15 -75t-44.5 -59.5t-73.5 -39.5
t-102 -14t-102 14t-73.5 39.5t-44.5 59.5t-15 75q0 36 12.5 64.5t35 50.5t53 38t66.5 27v1zM300 651q-67 0 -103 -32.5t-36 -78.5q0 -32 9 -54t27 -39t45 -31.5t63 -30.5q24 10 48 24.5t43 34t31 43.5t12 53q0 46 -36 78.5t-103 32.5zM286 331q-28 -8 -55 -20.5t-48 -30.5
t-34 -42.5t-13 -57.5q0 -57 41 -94t123 -37t123 37t41 94q0 31 -16.5 55t-42.5 42t-57.5 31.5t-61.5 22.5z" />
    <glyph glyph-name="nine" unicode="9" 
d="M230 -8q-35 0 -63 3.5t-57 13.5v66q29 -11 56.5 -17t63.5 -6q48 0 89 17t72 55t49 98.5t20 147.5q-25 -58 -71.5 -84t-106.5 -26q-48 0 -87 15.5t-66.5 44t-43 69t-15.5 91.5q0 53 15.5 95t43.5 71.5t67 45.5t86 16q50 0 93.5 -20t75.5 -61t50.5 -103.5t18.5 -148.5
q0 -98 -21.5 -170.5t-60 -119.5t-92 -70t-116.5 -23zM282 320q76 0 117 42t41 108q0 42 -12 75t-33 56t-50 35t-63 12q-67 0 -104.5 -40.5t-37.5 -127.5q0 -80 38 -120t104 -40z" />
    <glyph glyph-name="colon" unicode=":" horiz-adv-x="282" 
d="M182 86v-86h-82v86h82zM182 513v-86h-82v86h82z" />
    <glyph glyph-name="semicolon" unicode=";" horiz-adv-x="313" 
d="M214 513v-86h-82v86h82zM228 89l-74 -218h-69l55 218h88z" />
    <glyph glyph-name="less" unicode="&#x3c;" 
d="M50 320v60l500 225v-61l-433 -193l433 -193v-63z" />
    <glyph glyph-name="equal" unicode="=" 
d="M50 278h500v-56h-500v56zM50 478h500v-56h-500v56z" />
    <glyph glyph-name="greater" unicode="&#x3e;" 
d="M50 156l433 193l-433 193v63l500 -225v-60l-500 -225v61z" />
    <glyph glyph-name="question" unicode="?" horiz-adv-x="445" 
d="M50 687q33 11 64 16t65 5q103 0 159.5 -44.5t56.5 -122.5q0 -58 -23.5 -99.5t-58.5 -80.5q-15 -17 -32 -34.5t-31.5 -36t-23.5 -39.5t-9 -46v-30h-57v30q0 32 9.5 57.5t25 48t35 43t38.5 43.5q23 26 39.5 61.5t16.5 82.5q0 40 -19.5 62t-44.5 32.5t-48.5 13t-31.5 2.5
q-34 0 -65.5 -5.5t-64.5 -20.5v62zM229 86v-86h-82v86h82z" />
    <glyph glyph-name="at" unicode="@" horiz-adv-x="850" 
d="M620 -105q-11 -6 -28 -11t-38.5 -9.5t-45.5 -7t-48 -2.5q-94 0 -169.5 29t-129 81.5t-82.5 127t-29 166.5q0 88 29 162t81 127t122.5 82.5t153.5 29.5q81 0 148 -26t115 -70.5t74.5 -104.5t26.5 -129q0 -73 -19 -125t-48.5 -85t-65 -48.5t-67.5 -15.5q-49 0 -70 20
t-25 54q-17 -30 -52 -52t-78 -22q-32 0 -59.5 12t-47.5 34.5t-31.5 54.5t-11.5 73q0 50 15.5 91.5t42.5 71t62.5 45.5t74.5 16q45 0 75 -20t46 -54h2l12 68h60l-39 -220q-5 -25 -8.5 -47.5t-3.5 -30.5q0 -17 8 -25.5t28 -8.5q26 0 50.5 12.5t43 39t30 66.5t11.5 96
q0 57 -21.5 106.5t-60.5 85.5t-94.5 57t-123.5 21q-69 0 -128 -24.5t-101.5 -69t-66.5 -107.5t-24 -140q0 -80 23.5 -144t68 -108.5t108.5 -68t145 -23.5q49 0 91.5 10t68.5 24v-64zM390 126q59 0 94.5 48t35.5 131q0 45 -25.5 72t-74.5 27q-26 0 -49.5 -11t-41.5 -32
t-28.5 -51.5t-10.5 -69.5q0 -56 27.5 -85t72.5 -29z" />
    <glyph glyph-name="A" unicode="A" horiz-adv-x="650" 
d="M282 700h86l267 -700h-72l-72 192h-335l-71 -192h-70zM469 249l-143 385h-2l-146 -385h291z" />
    <glyph glyph-name="B" unicode="B" horiz-adv-x="577" 
d="M287 700q55 0 93.5 -14t63.5 -38t36.5 -56t11.5 -68q0 -25 -6 -48.5t-20.5 -44t-37.5 -37.5t-57 -28v-3q31 -6 57 -21t45 -37t29 -49.5t10 -58.5q0 -49 -15 -82.5t-37.5 -55.5t-50.5 -34t-53.5 -17.5t-46 -6.5t-28.5 -1h-181v700h187zM166 390h112q70 0 106.5 38t36.5 95
q0 32 -11 54.5t-30.5 37t-45 21.5t-54.5 7h-114v-253zM166 57h106q22 0 51 3.5t55.5 18t44.5 42t18 75.5q0 33 -12 58.5t-33.5 43t-51.5 26.5t-65 9h-113v-276z" />
    <glyph glyph-name="C" unicode="C" horiz-adv-x="611" 
d="M405 -8q-81 0 -145.5 24.5t-110 72t-70 116t-24.5 155.5q0 78 25 142t71 110t110.5 71t143.5 25q47 0 89.5 -6.5t80.5 -20.5v-61q-29 9 -52 15t-43 9.5t-38 5t-37 1.5q-60 0 -111 -21.5t-88.5 -60t-58.5 -92t-21 -117.5q0 -75 20 -133t56.5 -97.5t88 -60t114.5 -20.5
q48 0 92.5 7.5t83.5 23.5v-61q-31 -10 -75.5 -18.5t-100.5 -8.5z" />
    <glyph glyph-name="D" unicode="D" horiz-adv-x="688" 
d="M271 700q20 0 55 -2t75 -12.5t81.5 -32t75 -61t54.5 -99.5t21 -146q0 -80 -24.5 -144t-71 -109t-114 -69.5t-152.5 -24.5h-171v700h171zM166 57h98q63 0 117 17t94.5 52.5t63.5 91t23 132.5q0 73 -17 123t-44.5 82.5t-61.5 50.5t-67 26t-62 9.5t-46 1.5h-98v-586z" />
    <glyph glyph-name="E" unicode="E" horiz-adv-x="509" 
d="M440 700v-57h-274v-253h261v-57h-261v-276h293v-57h-359v700h340z" />
    <glyph glyph-name="F" unicode="F" horiz-adv-x="475" 
d="M435 700v-57h-269v-253h254v-57h-254v-333h-66v700h335z" />
    <glyph glyph-name="G" unicode="G" horiz-adv-x="711" 
d="M426 -8q-78 0 -145.5 23.5t-117.5 69.5t-79 112.5t-29 152.5q0 82 26 148.5t74 113t116.5 71.5t154.5 25q56 0 100 -11.5t79 -25.5v-65l-27 12t-41.5 15t-52 12.5t-58.5 5.5q-63 0 -117.5 -19t-95 -57t-64 -94.5t-23.5 -130.5q0 -64 20 -119t58.5 -95.5t94 -63.5
t127.5 -23q70 0 139 24v236h-170v57h236v-335q-102 -39 -205 -39z" />
    <glyph glyph-name="H" unicode="H" horiz-adv-x="696" 
d="M166 700v-309h364v309h66v-700h-66v334h-364v-334h-66v700h66z" />
    <glyph glyph-name="I" unicode="I" horiz-adv-x="266" 
d="M166 700v-700h-66v700h66z" />
    <glyph glyph-name="J" unicode="J" horiz-adv-x="351" 
d="M251 700v-525q0 -94 -42 -138.5t-120 -44.5q-38 0 -74 10v60q32 -13 73 -13q45 0 71 29.5t26 96.5v525h66z" />
    <glyph glyph-name="K" unicode="K" horiz-adv-x="632" 
d="M166 700v-283v-40h1l24 25l299 298h84l-340 -331l378 -369h-93l-335 335l-17 19l-1 -1v-33v-320h-66v700h66z" />
    <glyph glyph-name="L" unicode="L" horiz-adv-x="472" 
d="M166 700v-643h286v-57h-352v700h66z" />
    <glyph glyph-name="M" unicode="M" horiz-adv-x="814" 
d="M100 700h104l204 -435l203 435h103v-700h-66v640h-2l-206 -440h-66l-206 440h-2v-640h-66v700z" />
    <glyph glyph-name="N" unicode="N" horiz-adv-x="723" 
d="M185 700l341 -566l31 -64h2l-2 81v549h66v-700h-85l-336 555l-37 75h-3l4 -81v-549h-66v700h85z" />
    <glyph glyph-name="O" unicode="O" horiz-adv-x="744" 
d="M55 349q0 70 19.5 135t59 115t99 79.5t139.5 29.5t139.5 -29.5t99 -79.5t59 -115t19.5 -135q0 -87 -24.5 -153.5t-67.5 -111.5t-100.5 -68.5t-124.5 -23.5t-125 23.5t-100.5 68.5t-67 111.5t-24.5 153.5zM126 349q0 -79 21.5 -135.5t56 -93t78.5 -54t90 -17.5t90 17.5
t78.5 54t56 93t21.5 135.5t-21.5 136t-56 94t-78.5 54.5t-90 17.5t-90 -17.5t-78.5 -54.5t-56 -94t-21.5 -136z" />
    <glyph glyph-name="P" unicode="P" horiz-adv-x="532" 
d="M100 700h162q116 0 173 -55t57 -155q0 -101 -57 -155.5t-173 -54.5h-96v-280h-66v700zM421 490q0 79 -37.5 116t-121.5 37h-96v-306h96q84 0 121.5 37t37.5 116z" />
    <glyph glyph-name="Q" unicode="Q" horiz-adv-x="744" 
d="M566 -131l-141 127q-14 -2 -26.5 -3t-26.5 -1q-67 0 -125 23.5t-100.5 68.5t-67 111.5t-24.5 153.5q0 70 19.5 135t59 115t99 79.5t139.5 29.5t139.5 -29.5t99 -79.5t59 -115t19.5 -135q0 -36 -7.5 -84.5t-28.5 -96.5t-59 -89.5t-98 -62.5l162 -147h-92zM126 349
q0 -79 21.5 -135.5t56 -93t78.5 -54t90 -17.5t90 17.5t78.5 54t56 93t21.5 135.5t-21.5 136t-56 94t-78.5 54.5t-90 17.5t-90 -17.5t-78.5 -54.5t-56 -94t-21.5 -136z" />
    <glyph glyph-name="R" unicode="R" 
d="M100 700h164q116 0 173 -55t57 -155q0 -69 -27 -117t-81 -71l154 -302h-78l-138 284q-14 -2 -29 -3t-31 -1h-98v-280h-66v700zM423 490q0 79 -37.5 116t-121.5 37h-98v-306h98q84 0 121.5 37t37.5 116z" />
    <glyph glyph-name="S" unicode="S" horiz-adv-x="496" 
d="M213 -8q-85 0 -163 31v68q36 -17 81 -29.5t82 -12.5q25 0 53.5 6.5t52.5 21t40 38t16 56.5q0 31 -11 54.5t-31.5 43t-50 37t-66.5 36.5q-29 15 -57.5 31t-51.5 38t-37.5 51.5t-14.5 71.5q0 29 9.5 59.5t33.5 56t66 42t107 16.5q36 0 73.5 -5.5t78.5 -19.5v-67
q-45 20 -81 27.5t-71 7.5q-48 0 -77 -12.5t-44 -30.5t-19.5 -38t-4.5 -36q0 -24 8.5 -42.5t26.5 -35t45.5 -32.5t65.5 -36q41 -22 73.5 -42.5t55 -44.5t34 -54t11.5 -71q0 -35 -13 -68t-41 -59t-72 -41.5t-107 -15.5z" />
    <glyph glyph-name="T" unicode="T" horiz-adv-x="516" 
d="M501 700v-57h-210v-643h-66v643h-210v57h486z" />
    <glyph glyph-name="U" unicode="U" horiz-adv-x="712" 
d="M166 235q0 -55 18.5 -91t47 -57t62 -29.5t62.5 -8.5t62.5 8.5t62 29.5t47 57t18.5 91v465h66v-467q0 -56 -18 -100.5t-51.5 -75.5t-81 -48t-105.5 -17t-105.5 17t-81 48t-51.5 75.5t-18 100.5v467h66v-465z" />
    <glyph glyph-name="V" unicode="V" horiz-adv-x="651" 
d="M93 700l219 -556l21 -81h2l25 81l205 556h66l-260 -700h-74l-277 700h73z" />
    <glyph glyph-name="W" unicode="W" horiz-adv-x="967" 
d="M947 700l-196 -700h-83l-164 532l-21 78h-3l-20 -79l-141 -531h-83l-216 700h72l167 -566l18 -77h2l16 78l157 565h72l167 -566l18 -77h2l16 78l157 565h63z" />
    <glyph glyph-name="X" unicode="X" horiz-adv-x="643" 
d="M117 700l180 -253l22 -33h1l23 33l179 253h76l-237 -329l262 -371h-82l-181 257l-41 67h-2l-42 -70l-176 -254h-79l258 371l-243 329h82z" />
    <glyph glyph-name="Y" unicode="Y" horiz-adv-x="623" 
d="M87 700l195 -310l24 -41l31 48l195 303h81l-275 -408v-292h-66v292l-262 408h77z" />
    <glyph glyph-name="Z" unicode="Z" horiz-adv-x="562" 
d="M497 700v-67l-327 -508l-45 -67l1 -2l67 1h319v-57h-462v62l334 514l44 67l-1 1l-79 -1h-290v57h439z" />
    <glyph glyph-name="bracketleft" unicode="[" horiz-adv-x="330" 
d="M100 754h180v-57h-110v-805h110v-57h-180v919z" />
    <glyph glyph-name="backslash" unicode="\" horiz-adv-x="310" 
d="M-10 700h60l270 -700h-60z" />
    <glyph glyph-name="bracketright" unicode="]" horiz-adv-x="330" 
d="M50 -165v57h110v805h-110v57h180v-919h-180z" />
    <glyph glyph-name="asciicircum" unicode="^" 
d="M120 350h-70l215 350h70l215 -350h-70l-180 295z" />
    <glyph glyph-name="underscore" unicode="_" horiz-adv-x="500" 
d="M0 -75h500v-50h-500v50z" />
    <glyph glyph-name="grave" unicode="`" horiz-adv-x="344" 
d="M264 610h-50l-134 130h94z" />
    <glyph glyph-name="a" unicode="a" horiz-adv-x="518" 
d="M215 -8q-83 0 -126.5 41t-43.5 107q0 37 15 68.5t47 54.5t83.5 36.5t124.5 13.5h57v17q0 72 -30 105t-87 33q-38 0 -78 -9t-77 -28v58q32 14 71 23t84 9q89 0 134.5 -47t45.5 -144v-330h-53v87h-2q-16 -30 -36 -48.5t-42 -29t-44 -14t-43 -3.5zM215 45q74 0 115.5 46.5
t41.5 131.5v37h-57q-58 0 -97 -9t-63 -25t-34 -38t-10 -48q0 -42 28 -68.5t76 -26.5z" />
    <glyph glyph-name="b" unicode="b" horiz-adv-x="568" 
d="M147 762v-341q16 30 35 49t39 30.5t40.5 16t40.5 4.5q43 0 82.5 -14.5t70.5 -46.5t49.5 -82.5t18.5 -121.5q0 -72 -18.5 -122t-49 -81.5t-70.5 -46t-83 -14.5q-57 0 -97 33t-62 81h-3l-1 -106h-59l4 99v663h63zM147 256q0 -60 16 -100.5t39 -65t50 -35t50 -10.5
q22 0 49.5 10.5t50.5 35t39 65t16 100.5q0 61 -16 102t-39 65.5t-50.5 34.5t-49.5 10q-23 0 -50 -10t-50 -34.5t-39 -65.5t-16 -102z" />
    <glyph glyph-name="c" unicode="c" horiz-adv-x="460" 
d="M311 -8q-60 0 -109.5 19t-84 53.5t-53.5 83t-19 107.5q0 60 19 109.5t53 84t81.5 53.5t104.5 19q17 0 48.5 -3t73.5 -17v-56q-14 5 -46.5 14t-74.5 9t-77.5 -14.5t-61 -42t-40 -67t-14.5 -89.5q0 -49 14.5 -88t40.5 -66t63 -41.5t82 -14.5q27 0 59 6t60 17v-56
q-32 -12 -59.5 -16t-59.5 -4z" />
    <glyph glyph-name="d" unicode="d" horiz-adv-x="568" 
d="M266 -8q-43 0 -83 14.5t-70.5 46t-49 81.5t-18.5 122q0 71 18.5 121t49 82t70.5 47t83 15q31 0 56 -9.5t44 -24.5t32.5 -32.5t22.5 -33.5v341h63v-762h-56v106h-3q-9 -21 -23.5 -41.5t-34.5 -36.5t-45 -26t-56 -10zM266 45q22 0 49.5 10.5t50.5 35t39 65t16 100.5
q0 61 -16 102t-39 65.5t-50.5 34.5t-49.5 10q-23 0 -50 -10t-50 -34.5t-39 -65.5t-16 -102q0 -60 16 -100.5t39 -65t50 -35t50 -10.5z" />
    <glyph glyph-name="e" unicode="e" horiz-adv-x="508" 
d="M106 238q0 -24 6 -57t24 -63t51.5 -51.5t88.5 -21.5q39 0 77 6.5t76 26.5v-58q-39 -17 -77 -22.5t-77 -5.5q-110 0 -172.5 70t-62.5 203q0 60 16.5 107.5t46 80.5t70.5 50.5t90 17.5q48 0 81.5 -13.5t56.5 -35t36 -49.5t20 -57t9 -57.5t2 -50.5v-20h-362zM402 291
q0 15 -3 45t-16.5 59t-41.5 51t-78 22q-39 0 -68 -15.5t-48.5 -40.5t-29.5 -57t-11 -64h296z" />
    <glyph glyph-name="f" unicode="f" horiz-adv-x="338" 
d="M119 460h-107v53h107v105q0 74 36.5 110.5t95.5 36.5q17 0 32 -2.5t29 -7.5v-52q-12 4 -27.5 6.5t-28.5 2.5q-28 0 -43 -11t-22 -25.5t-8 -29.5t-1 -23v-110h121v-53h-121v-460h-63v460z" />
    <glyph glyph-name="g" unicode="g" horiz-adv-x="568" 
d="M231 -224q-38 0 -69.5 6.5t-66.5 21.5v58q36 -17 73.5 -25t74.5 -8q81 0 129.5 43.5t48.5 130.5v89q-16 -30 -35 -49t-39 -30.5t-41 -16t-40 -4.5q-43 0 -83 14.5t-70.5 46.5t-49 82.5t-18.5 121.5q0 72 18.5 122t49 81.5t70.5 46t83 14.5q57 0 97 -33t62 -81h3v106h56
v-516q0 -15 -2 -37t-10 -46.5t-24 -49t-44 -44t-70.5 -32t-102.5 -12.5zM421 257q0 60 -16 100.5t-39 65t-50.5 35t-49.5 10.5q-23 0 -50 -10.5t-50 -35t-39 -65t-16 -100.5q0 -61 16 -102t39 -65.5t50 -34.5t50 -10q22 0 49.5 10t50.5 34.5t39 65.5t16 102z" />
    <glyph glyph-name="h" unicode="h" horiz-adv-x="563" 
d="M143 762v-243l-5 -112h2q20 48 62 81t102 33q61 0 97 -20.5t54 -51.5t23 -66t5 -64v-319h-63v316q0 23 -2 49.5t-13.5 49.5t-37 38t-73.5 15q-30 0 -57.5 -13t-48.5 -36t-33 -53.5t-12 -66.5v-299h-63v762h63z" />
    <glyph glyph-name="i" unicode="i" horiz-adv-x="223" 
d="M143 513v-513h-63v513h63zM146 720v-80h-69v80h69z" />
    <glyph glyph-name="j" unicode="j" horiz-adv-x="223" 
d="M143 -74q0 -20 -3 -45t-14 -47t-34 -37t-63 -15q-15 0 -29.5 1.5t-29.5 6.5v51q12 -4 24 -5t24 -1q10 0 21 2.5t20 11t15 25.5t6 46v593h63v-587zM146 720v-80h-69v80h69z" />
    <glyph glyph-name="k" unicode="k" horiz-adv-x="509" 
d="M143 762v-475h5l233 226h82l-253 -237l279 -276h-89l-252 252h-5v-252h-63v762h63z" />
    <glyph glyph-name="l" unicode="l" horiz-adv-x="223" 
d="M143 762v-762h-63v762h63z" />
    <glyph glyph-name="m" unicode="m" horiz-adv-x="856" 
d="M83 416l-3 97h62v-100h2q18 45 58.5 76.5t97.5 31.5q64 0 99 -31.5t46 -76.5h1q21 47 64 77.5t103 30.5q42 0 70 -10.5t46.5 -27.5t28 -37.5t13.5 -40.5t4.5 -37t0.5 -26v-342h-63v339q0 17 -2.5 39t-13 42t-32 34t-59.5 14q-36 0 -63 -14t-45.5 -37.5t-27.5 -54
t-9 -63.5v-299h-63v339q0 10 -2 31.5t-12 43t-32 38t-62 16.5q-32 0 -58 -14t-45.5 -37t-30 -53.5t-10.5 -64.5v-299h-63v416z" />
    <glyph glyph-name="n" unicode="n" horiz-adv-x="566" 
d="M83 0v395l-3 118h56v-106h2q9 22 24 42.5t36 36.5t48 25.5t60 9.5q62 0 98 -20.5t54 -51t23 -65.5t5 -65v-319h-63v316q0 24 -2 50.5t-13.5 49t-37 37.5t-73.5 15q-33 0 -60.5 -13.5t-47.5 -37t-31.5 -54t-11.5 -64.5v-299h-63z" />
    <glyph glyph-name="o" unicode="o" horiz-adv-x="564" 
d="M45 256q0 60 17 109t48 83.5t74.5 53.5t97.5 19t97.5 -19t74.5 -53.5t48 -83.5t17 -109t-17 -108.5t-48 -83t-75 -53.5t-97 -19t-97 19t-75 53.5t-48 83t-17 108.5zM111 256q0 -37 10 -74.5t30.5 -68t53 -49.5t77.5 -19t77.5 19t53 49.5t30.5 68t10 74.5t-10 75
t-30.5 68.5t-53 49.5t-77.5 19t-77.5 -19t-53 -49.5t-30.5 -68.5t-10 -75z" />
    <glyph glyph-name="p" unicode="p" horiz-adv-x="568" 
d="M84 -219v633l-4 99h60v-106h3q6 18 18 38t30.5 37t45.5 28t65 11q53 0 94.5 -18.5t69.5 -53t42.5 -83t14.5 -109.5q0 -71 -18.5 -121t-49.5 -82t-70.5 -47t-82.5 -15q-52 0 -91.5 27.5t-62.5 72.5h-3l2 -49v-262h-63zM147 257q0 -61 16 -102t39 -65.5t50 -34.5t50 -10
q22 0 49.5 10t50.5 34.5t39 65.5t16 102q0 60 -16 100.5t-39 65t-50.5 35t-49.5 10.5q-23 0 -50 -10.5t-50 -35t-39 -65t-16 -100.5z" />
    <glyph glyph-name="q" unicode="q" horiz-adv-x="568" 
d="M421 92q-9 -16 -22.5 -33.5t-32.5 -32.5t-44 -24.5t-56 -9.5q-43 0 -83 15t-70.5 47t-49 82t-18.5 121q0 72 18.5 122t49 81.5t70.5 46t83 14.5q31 0 56 -10t45 -26t34.5 -36.5t23.5 -41.5h3l1 106h59l-4 -99v-633h-63v311zM421 257q0 60 -16 100.5t-39 65t-50.5 35
t-49.5 10.5q-23 0 -50 -10.5t-50 -35t-39 -65t-16 -100.5q0 -61 16 -102t39 -65.5t50 -34.5t50 -10q22 0 49.5 10t50.5 34.5t39 65.5t16 102z" />
    <glyph glyph-name="r" unicode="r" horiz-adv-x="352" 
d="M84 0v419l-4 94h60v-110h1q4 20 13.5 41t24.5 38t36.5 28t49.5 11t57 -9v-60q-26 10 -55 10q-32 0 -54.5 -16.5t-37 -41t-21.5 -54t-7 -55.5v-295h-63z" />
    <glyph glyph-name="s" unicode="s" horiz-adv-x="419" 
d="M185 -8q-34 0 -66.5 5t-68.5 18v62q69 -32 137 -32q53 0 84.5 24t31.5 69q0 25 -8 41t-23 28t-36 21.5t-47 20.5q-25 11 -48.5 23t-42 29t-30 40t-11.5 55q0 30 13 53t36 39t54.5 24.5t68.5 8.5q33 0 62 -6.5t60 -20.5v-58q-29 16 -59.5 24t-65.5 8q-18 0 -37 -3
t-34.5 -11t-25.5 -22t-10 -36q0 -20 6.5 -34t21.5 -26t40.5 -23.5t63.5 -27.5q18 -8 39 -19.5t38.5 -28.5t29 -41.5t11.5 -57.5q0 -26 -10 -52t-32 -47t-57 -34t-85 -13z" />
    <glyph glyph-name="t" unicode="t" horiz-adv-x="334" 
d="M176 664v-151h122v-53h-122v-315q0 -33 4 -52.5t11.5 -30t19 -14t26.5 -3.5q19 0 34 2t30 9v-53q-21 -8 -39 -9.5t-32 -1.5q-42 0 -66 15.5t-35 38t-13.5 48.5t-2.5 47v319h-105v53h105v128z" />
    <glyph glyph-name="u" unicode="u" horiz-adv-x="558" 
d="M143 513v-337q0 -16 3 -38.5t14 -43t33.5 -35t61.5 -14.5q32 0 60.5 12.5t49.5 35.5t33.5 54t12.5 69v297h63v-396l4 -117h-59v102h-1q-20 -50 -62.5 -80t-100.5 -30q-26 0 -56.5 6.5t-56.5 26.5t-44 57t-18 99v332h63z" />
    <glyph glyph-name="v" unicode="v" horiz-adv-x="469" 
d="M85 513l138 -419l10 -40h3l10 40l138 419h65l-177 -513h-75l-177 513h65z" />
    <glyph glyph-name="w" unicode="w" horiz-adv-x="791" 
d="M84 513l114 -391l16 -69h3l16 69l123 391h79l123 -391l16 -69h3l16 69l114 391h64l-154 -513h-79l-130 412l-11 48h-3l-11 -48l-130 -412h-79l-154 513h64z" />
    <glyph glyph-name="x" unicode="x" horiz-adv-x="498" 
d="M122 513l97 -149l28 -48h1l28 49l90 148h74l-157 -239l185 -274h-82l-114 185l-25 46h-1l-26 -46l-117 -185h-73l178 274l-166 239h80z" />
    <glyph glyph-name="y" unicode="y" horiz-adv-x="490" 
d="M60 -155q7 -3 15 -5q7 -2 16 -3t20 -1q33 0 50 22t29 58l24 70l-184 527h67l151 -439h1l146 439h65l-219 -629q-8 -22 -18.5 -41t-25 -33t-34 -22t-46.5 -8q-21 0 -38.5 4.5t-18.5 4.5v56z" />
    <glyph glyph-name="z" unicode="z" horiz-adv-x="474" 
d="M416 513v-60l-262 -351l-40 -49h315v-53h-384v52l264 356l41 52h-300v53h366z" />
    <glyph glyph-name="braceleft" unicode="{" horiz-adv-x="344" 
d="M294 -141q-149 0 -149 149v134q0 25 -2.5 49t-12 44t-28.5 34t-52 19v43q33 4 52 18.5t28.5 34.5t12 44t2.5 49v134q0 149 149 149v-45q-40 0 -61.5 -24t-21.5 -80v-135q0 -39 -6 -67t-18.5 -47.5t-33 -31.5t-49.5 -19v-3q29 -8 49.5 -19.5t33 -31t18.5 -47.5t6 -67v-135
q0 -56 21.5 -80t61.5 -24v-45v0z" />
    <glyph glyph-name="bar" unicode="|" horiz-adv-x="168" 
d="M56 762h56v-902h-56v902z" />
    <glyph glyph-name="braceright" unicode="}" horiz-adv-x="344" 
d="M50 -96q40 0 61.5 24t21.5 80v135q0 39 6 67t18.5 47.5t33 31t49.5 19.5v3q-29 7 -49.5 19t-33 31.5t-18.5 47.5t-6 67v135q0 56 -21.5 80t-61.5 24v45q149 0 149 -149v-134q0 -25 2.5 -49t12 -44t28.5 -34.5t52 -18.5v-43q-33 -5 -52 -19t-28.5 -34t-12 -44t-2.5 -49
v-134q0 -149 -149 -149v45z" />
    <glyph glyph-name="asciitilde" unicode="~" 
d="M50 320q23 45 59 72.5t81 27.5q34 0 62.5 -12.5t55 -27.5t51.5 -27.5t51 -12.5q24 0 55.5 17.5t54.5 62.5l30 -40q-23 -45 -59 -72.5t-81 -27.5q-34 0 -62.5 12.5t-55 27.5t-51.5 27.5t-51 12.5t-56.5 -17.5t-53.5 -62.5z" />
    <glyph glyph-name="uni00A0" unicode="&#xa0;" horiz-adv-x="233" 
 />
    <glyph glyph-name="exclamdown" unicode="&#xa1;" horiz-adv-x="282" 
d="M170 306l12 -525h-82l12 525h58zM100 481h82v-86h-82v86z" />
    <glyph glyph-name="cent" unicode="&#xa2;" 
d="M334 -3q-59 6 -97.5 31.5t-60.5 51.5q-28 33 -43 76.5t-15 99.5q0 40 7.5 72.5t20 58.5t28 45t31.5 32q22 19 54.5 34t74.5 19v93h44v-91q29 0 59 -4.5t59 -15.5v-57q-31 13 -60 18.5t-56 5.5q-45 0 -82.5 -13.5t-66.5 -47.5q-16 -19 -31.5 -54.5t-15.5 -94.5
q0 -57 16 -94t37 -60q29 -31 65.5 -43t81.5 -12q58 0 116 23v-58q-32 -10 -62.5 -14t-59.5 -4v-94h-44v97z" />
    <glyph glyph-name="sterling" unicode="&#xa3;" 
d="M95 403h103v87q0 46 13 86t40 69.5t68 46t97 16.5q35 0 60.5 -5t38.5 -9v-60q-26 9 -50.5 13t-48.5 4q-42 0 -71 -13t-47 -35t-26 -51.5t-8 -61.5v-87h168v-56h-168v-290h246v-57h-415v57h103v290h-103v56z" />
    <glyph glyph-name="currency" unicode="&#xa4;" 
d="M50 140l58 58q-25 32 -39 70t-14 82q0 43 14 81.5t39 70.5l-58 58l40 40l58 -58q32 25 70 39t82 14q43 0 81.5 -14t70.5 -39l58 58l40 -40l-58 -58q25 -32 39 -70.5t14 -81.5q0 -44 -14 -82t-39 -70l58 -58l-40 -40l-58 58q-32 -25 -70.5 -39t-81.5 -14q-44 0 -82 14
t-70 39l-58 -58zM300 165q38 0 72 14.5t59 39.5t39.5 59t14.5 72t-14.5 72t-39.5 59t-59 39.5t-72 14.5t-72 -14.5t-59 -39.5t-39.5 -59t-14.5 -72t14.5 -72t39.5 -59t59 -39.5t72 -14.5z" />
    <glyph glyph-name="yen" unicode="&#xa5;" 
d="M267 199h-212v56h212v37l-24 38h-188v56h152l-202 314h80l216 -351l214 351h80l-202 -314h152v-56h-188l-24 -38v-37h212v-56h-212v-199h-66v199z" />
    <glyph glyph-name="brokenbar" unicode="&#xa6;" horiz-adv-x="168" 
d="M56 762h56v-361h-56v361zM112 221v-361h-56v361h56z" />
    <glyph glyph-name="section" unicode="&#xa7;" horiz-adv-x="540" 
d="M470 260q0 -45 -29 -83.5t-81 -65.5q39 -24 54.5 -53t15.5 -72q0 -28 -11.5 -52.5t-34 -42.5t-56 -28.5t-78.5 -10.5q-20 0 -36.5 2t-32.5 6t-32.5 9.5t-35.5 12.5v65q19 -9 35 -16.5t31.5 -12t32.5 -7t38 -2.5q56 0 82.5 22.5t26.5 54.5q0 13 -2 25.5t-13 25.5t-33.5 27
t-62.5 31q-49 20 -83 40.5t-55 44.5t-30.5 53.5t-9.5 66.5q0 45 29 83.5t81 64.5q-39 25 -54.5 54t-15.5 72q0 28 11 52.5t33.5 42.5t56.5 28.5t79 10.5q20 0 36.5 -2t32.5 -6t32 -9.5t36 -12.5v-65q-19 9 -35 16.5t-31.5 12t-32.5 7t-38 2.5q-56 0 -82.5 -22.5t-26.5 -54.5
q0 -13 2.5 -25.5t13.5 -25.5t33.5 -27.5t61.5 -30.5q49 -20 83 -40.5t55 -44.5t30.5 -53.5t9.5 -66.5zM242 417q-44 -16 -72.5 -45t-28.5 -72q0 -27 5 -47t20 -36.5t43 -32.5t74 -36l14 -6q44 16 73 45t29 73q0 24 -4.5 44t-19.5 38.5t-43.5 35.5t-75.5 34z" />
    <glyph glyph-name="dieresis" unicode="&#xa8;" horiz-adv-x="448" 
d="M149 720v-80h-69v80h69zM368 720v-80h-69v80h69z" />
    <glyph glyph-name="copyright" unicode="&#xa9;" horiz-adv-x="938" 
d="M469 -19q-76 0 -143 29t-117.5 79.5t-79.5 117.5t-29 143t29 143t79.5 117.5t117.5 79.5t143 29t143 -29t117.5 -79.5t79.5 -117.5t29 -143t-29 -143t-79.5 -117.5t-117.5 -79.5t-143 -29zM469 31q67 0 125 25t101 68t68 101t25 125t-25 125t-68 101t-101 68t-125 25
t-125 -25t-101 -68t-68 -101t-25 -125t25 -125t68 -101t101 -68t125 -25zM490 133q-98 0 -155 58.5t-57 164.5q0 47 15.5 86t43 66.5t66.5 43t87 15.5q59 0 103 -16v-56q-17 6 -30 9.5t-24 5.5t-22.5 2.5t-26.5 0.5q-29 0 -55.5 -12t-46.5 -33t-32 -49.5t-12 -62.5
q0 -40 11 -71.5t30.5 -53t46 -33t58.5 -11.5q59 0 107 18v-56q-19 -6 -46 -11t-61 -5z" />
    <glyph glyph-name="ordfeminine" unicode="&#xaa;" horiz-adv-x="364" 
d="M145 390q-50 0 -75 26t-25 61q0 34 15.5 54.5t40 32t56 15.5t64.5 4h20v11q0 6 -1 19t-8 26t-21 23t-41 10q-22 0 -46 -6t-46 -18v40q34 14 59 17t33 3q42 0 64.5 -15t33.5 -34.5t13 -38.5t2 -27v-131l1 -67h-37v52h-1q-20 -35 -48 -46t-53 -11zM145 426q27 0 45.5 10.5
t29.5 26t16 32.5t5 30v22h-34q-15 0 -35.5 -1.5t-39 -8t-32 -20t-13.5 -37.5q0 -20 13 -37t45 -17z" />
    <glyph glyph-name="guillemotleft" unicode="&#xab;" horiz-adv-x="510" 
d="M253 100h-57l-140 207l140 207h57l-131 -207zM430 100h-57l-140 207l140 207h57l-131 -207z" />
    <glyph glyph-name="logicalnot" unicode="&#xac;" 
d="M50 378h500v-270h-60v214h-440v56z" />
    <glyph glyph-name="uni00AD" unicode="&#xad;" horiz-adv-x="400" 
d="M80 335h240v-70h-240v70z" />
    <glyph glyph-name="registered" unicode="&#xae;" horiz-adv-x="938" 
d="M469 -19q-76 0 -143 29t-117.5 79.5t-79.5 117.5t-29 143t29 143t79.5 117.5t117.5 79.5t143 29t143 -29t117.5 -79.5t79.5 -117.5t29 -143t-29 -143t-79.5 -117.5t-117.5 -79.5t-143 -29zM469 31q67 0 125 25t101 68t68 101t25 125t-25 125t-68 101t-101 68t-125 25
t-125 -25t-101 -68t-68 -101t-25 -125t25 -125t68 -101t101 -68t125 -25zM340 565h128q72 0 107 -34t35 -97q0 -89 -69 -117l89 -187h-64l-79 175q-5 -1 -9.5 -1h-9.5h-71v-174h-57v435zM550 434q0 38 -21.5 59.5t-60.5 21.5h-71v-161h71q39 0 60.5 21t21.5 59z" />
    <glyph glyph-name="macron" unicode="&#xaf;" horiz-adv-x="412" 
d="M332 714v-54h-252v54h252z" />
    <glyph glyph-name="degree" unicode="&#xb0;" horiz-adv-x="336" 
d="M56 602q0 23 9 43.5t24 35.5t35.5 24t43.5 9t43.5 -9t35.5 -24t24 -35.5t9 -43.5t-9 -43.5t-24 -35.5t-35.5 -24t-43.5 -9t-43.5 9t-35.5 24t-24 35.5t-9 43.5zM98 602q0 -29 20.5 -49.5t49.5 -20.5t49.5 20.5t20.5 49.5t-20.5 49.5t-49.5 20.5t-49.5 -20.5t-20.5 -49.5z
" />
    <glyph glyph-name="plusminus" unicode="&#xb1;" 
d="M50 105h500v-56h-500v56zM272 371h-222v56h222v222h56v-222h222v-56h-222v-222h-56v222z" />
    <glyph glyph-name="twosuperior" unicode="&#xb2;" horiz-adv-x="333" 
d="M40 320q37 42 70 78.5t58 69.5t40 63t15 59q0 10 -3 22.5t-10.5 23.5t-21.5 18t-35 7q-30 0 -56 -8t-47 -19v50q26 13 51.5 18.5t51.5 5.5q63 0 94 -29.5t31 -74.5q0 -32 -10 -60.5t-30.5 -60t-52.5 -68.5t-75 -85h183v-47h-253v37z" />
    <glyph glyph-name="threesuperior" unicode="&#xb3;" horiz-adv-x="333" 
d="M151 278q-29 0 -62 6t-59 15v51q26 -12 59 -18.5t62 -6.5q18 0 35 4t30.5 13t21.5 23t8 34q0 36 -23.5 57t-63.5 21h-69v48h70q42 0 62.5 23t20.5 52q0 23 -22 42t-64 19q-28 0 -55.5 -7t-50.5 -18v51q25 10 51 15.5t55 5.5q26 0 51.5 -6t45 -19.5t31.5 -34t12 -48.5
q0 -30 -17.5 -57t-51.5 -40v-3q35 -8 55 -35.5t20 -65.5q0 -22 -9 -43.5t-27.5 -39t-47 -28t-68.5 -10.5z" />
    <glyph glyph-name="acute" unicode="&#xb4;" horiz-adv-x="344" 
d="M264 740l-134 -130h-50l90 130h94z" />
    <glyph glyph-name="mu" unicode="&#xb5;" horiz-adv-x="554" 
d="M474 513v-513h-55v102q-5 -16 -14.5 -35.5t-25.5 -36t-40 -27.5t-58 -11q-45 0 -79.5 12t-58.5 45v-268h-63v732h63v-297q0 -23 3 -52.5t16.5 -56t41.5 -44.5t77 -18q41 0 66.5 19.5t39.5 47t19 56.5t5 48v297h63z" />
    <glyph glyph-name="paragraph" unicode="&#xb6;" horiz-adv-x="540" 
d="M244 400h-14q-31 0 -58.5 12t-47.5 32t-32 47.5t-12 58.5t12 58.5t32 47.5t47.5 32t58.5 12h210v-840h-63v787h-70v-787h-63v540z" />
    <glyph glyph-name="periodcentered" unicode="&#xb7;" horiz-adv-x="282" 
d="M182 402v-86h-82v86h82z" />
    <glyph glyph-name="cedilla" unicode="&#xb8;" horiz-adv-x="190" 
d="M90 -182q-27 0 -43 6.5t-27 14.5l20 32q17 -13 37 -13q13 0 21.5 4t13 10t6 12.5t1.5 12.5q0 13 -8 27t-34 14h-12t-12 -2l10 74h40l-4 -38q29 -1 50 -19.5t21 -55.5q0 -24 -8.5 -39.5t-21 -24t-26.5 -12t-24 -3.5z" />
    <glyph glyph-name="onesuperior" unicode="&#xb9;" horiz-adv-x="333" 
d="M185 641l-77 -64l-28 35l108 88h52v-420h-55v361z" />
    <glyph glyph-name="ordmasculine" unicode="&#xba;" horiz-adv-x="374" 
d="M187 390q-38 0 -65 14t-44 37t-25 51t-8 57q0 28 7.5 56.5t24.5 51.5t44 37t66 14t66 -14t44 -37t24.5 -51.5t7.5 -56.5q0 -29 -8 -57t-25 -51t-44 -37t-65 -14zM187 426q45 0 72.5 34t27.5 89q0 32 -9 55.5t-23.5 38.5t-32 22t-35.5 7t-35.5 -7t-32 -22t-23.5 -38.5
t-9 -55.5q0 -55 27.5 -89t72.5 -34z" />
    <glyph glyph-name="guillemotright" unicode="&#xbb;" horiz-adv-x="510" 
d="M257 514h57l140 -207l-140 -207h-57l131 207zM80 514h57l140 -207l-140 -207h-57l131 207z" />
    <glyph glyph-name="onequarter" unicode="&#xbc;" horiz-adv-x="833" 
d="M176 641l-77 -64l-28 35l108 88h52v-420h-55v361zM125 0l488 700h62l-488 -700h-62zM634 98h-198v35l184 285h69v-273h64v-47h-64v-100h-55v100zM634 145v219l-137 -219h137z" />
    <glyph glyph-name="onehalf" unicode="&#xbd;" horiz-adv-x="833" 
d="M176 641l-77 -64l-28 35l108 88h52v-420h-55v361zM105 0l488 700h62l-488 -700h-62zM487 38q37 42 70 78.5t58 69.5t40 63t15 59q0 10 -3 22.5t-10.5 23.5t-21.5 18t-35 7q-30 0 -56 -8t-47 -19v50q26 13 51.5 18.5t51.5 5.5q63 0 94 -29.5t31 -74.5q0 -32 -10 -60.5
t-30.5 -60t-52.5 -68.5t-75 -85h183v-47h-253v37z" />
    <glyph glyph-name="threequarters" unicode="&#xbe;" horiz-adv-x="833" 
d="M122 278q-29 0 -62 6t-59 15v51q26 -12 59 -18.5t62 -6.5q18 0 35 4t30.5 13t21.5 23t8 34q0 36 -23.5 57t-63.5 21h-69v48h70q42 0 62.5 23t20.5 52q0 23 -22 42t-64 19q-28 0 -55.5 -7t-50.5 -18v51q25 10 51 15.5t55 5.5q26 0 51.5 -6t45 -19.5t31.5 -34t12 -48.5
q0 -30 -17.5 -57t-51.5 -40v-3q35 -8 55 -35.5t20 -65.5q0 -22 -9 -43.5t-27.5 -39t-47 -28t-68.5 -10.5zM125 0l488 700h62l-488 -700h-62zM634 98h-198v35l184 285h69v-273h64v-47h-64v-100h-55v100zM634 145v219l-137 -219h137z" />
    <glyph glyph-name="questiondown" unicode="&#xbf;" horiz-adv-x="445" 
d="M285 276q0 -32 -9.5 -57.5t-25 -48t-35 -43.5t-38.5 -43q-22 -26 -39 -61.5t-17 -82.5q0 -39 19.5 -61t44 -32.5t48 -12.5t32.5 -2q34 0 65.5 5.5t64.5 20.5v-62q-33 -11 -64 -16t-65 -5q-103 0 -159.5 43.5t-56.5 121.5q0 57 23.5 99t58.5 81q15 17 32 34.5t31.5 36
t23.5 39.5t9 46v30h57v-30zM216 395v86h82v-86h-82z" />
    <glyph glyph-name="Agrave" unicode="&#xc0;" horiz-adv-x="650" 
d="M282 700h86l267 -700h-72l-72 192h-335l-71 -192h-70zM469 249l-143 385h-2l-146 -385h291zM355 750h-60l-120 120h100z" />
    <glyph glyph-name="Aacute" unicode="&#xc1;" horiz-adv-x="650" 
d="M282 700h86l267 -700h-72l-72 192h-335l-71 -192h-70zM469 249l-143 385h-2l-146 -385h291zM475 870l-120 -120h-60l80 120h100z" />
    <glyph glyph-name="Acircumflex" unicode="&#xc2;" horiz-adv-x="650" 
d="M282 700h86l267 -700h-72l-72 192h-335l-71 -192h-70zM469 249l-143 385h-2l-146 -385h291zM245 750h-70l102 120h96l102 -120h-70l-80 86z" />
    <glyph glyph-name="Atilde" unicode="&#xc3;" horiz-adv-x="650" 
d="M282 700h86l267 -700h-72l-72 192h-335l-71 -192h-70zM469 249l-143 385h-2l-146 -385h291zM476 848v-7q0 -14 -4.5 -28t-14 -25t-24.5 -18t-36 -7q-29 0 -46 6t-30.5 13.5t-27 13.5t-34.5 6q-8 0 -23 -7t-21 -32h-40v6q0 34 21 58t56 24q21 0 42 -5.5t44 -15.5
q17 -7 30.5 -12.5t27.5 -5.5q10 0 23.5 7.5t16.5 28.5h40z" />
    <glyph glyph-name="Adieresis" unicode="&#xc4;" horiz-adv-x="650" 
d="M282 700h86l267 -700h-72l-72 192h-335l-71 -192h-70zM469 249l-143 385h-2l-146 -385h291zM245 844v-80h-69v80h69zM474 844v-80h-69v80h69z" />
    <glyph glyph-name="Aring" unicode="&#xc5;" horiz-adv-x="651" 
d="M283 700h86l267 -700h-72l-72 192h-335l-71 -192h-70zM470 249l-143 385h-2l-146 -385h291zM230 814q0 40 28 68t68 28t68 -28t28 -68t-28 -68t-68 -28t-68 28t-28 68zM266 814q0 -25 17.5 -42.5t42.5 -17.5t42.5 17.5t17.5 42.5t-17.5 42.5t-42.5 17.5t-42.5 -17.5
t-17.5 -42.5z" />
    <glyph glyph-name="AE" unicode="&#xc6;" horiz-adv-x="854" 
d="M835 700v-57h-279l13 -253h247v-57h-243l15 -276h251v-57h-317l-10 193h-304l-118 -193h-75l427 700h393zM508 250l-21 390h-6l-237 -390h264z" />
    <glyph glyph-name="Ccedilla" unicode="&#xc7;" horiz-adv-x="611" 
d="M405 -8q-81 0 -145.5 24.5t-110 72t-70 116t-24.5 155.5q0 78 25 142t71 110t110.5 71t143.5 25q47 0 89.5 -6.5t80.5 -20.5v-61q-29 9 -52 15t-43 9.5t-38 5t-37 1.5q-60 0 -111 -21.5t-88.5 -60t-58.5 -92t-21 -117.5q0 -75 20 -133t56.5 -97.5t88 -60t114.5 -20.5
q48 0 92.5 7.5t83.5 23.5v-61q-31 -10 -75.5 -18.5t-100.5 -8.5zM402 12l-3 -42q41 1 65.5 -24t24.5 -61q0 -44 -28.5 -75t-85.5 -31q-23 0 -40.5 7.5t-32.5 18.5l25 40q13 -9 24.5 -12.5t21.5 -3.5q21 0 36.5 11.5t15.5 36.5q0 23 -14 36.5t-39 13.5h-15q-6 0 -14 -2l8 87
h51z" />
    <glyph glyph-name="Egrave" unicode="&#xc8;" horiz-adv-x="509" 
d="M440 700v-57h-274v-253h261v-57h-261v-276h293v-57h-359v700h340zM337 750h-60l-120 120h100z" />
    <glyph glyph-name="Eacute" unicode="&#xc9;" horiz-adv-x="509" 
d="M440 700v-57h-274v-253h261v-57h-261v-276h293v-57h-359v700h340zM337 870l-120 -120h-60l80 120h100z" />
    <glyph glyph-name="Ecircumflex" unicode="&#xca;" horiz-adv-x="509" 
d="M440 700v-57h-274v-253h261v-57h-261v-276h293v-57h-359v700h340zM174 750h-70l102 120h96l102 -120h-70l-80 86z" />
    <glyph glyph-name="Edieresis" unicode="&#xcb;" horiz-adv-x="509" 
d="M440 700v-57h-274v-253h261v-57h-261v-276h293v-57h-359v700h340zM174 844v-80h-69v80h69zM403 844v-80h-69v80h69z" />
    <glyph glyph-name="Igrave" unicode="&#xcc;" horiz-adv-x="266" 
d="M166 700v-700h-66v700h66zM217 750h-60l-120 120h100z" />
    <glyph glyph-name="Iacute" unicode="&#xcd;" horiz-adv-x="266" 
d="M166 700v-700h-66v700h66zM217 870l-120 -120h-60l80 120h100z" />
    <glyph glyph-name="Icircumflex" unicode="&#xce;" horiz-adv-x="266" 
d="M166 700v-700h-66v700h66zM54 750h-70l102 120h96l102 -120h-70l-80 86z" />
    <glyph glyph-name="Idieresis" unicode="&#xcf;" horiz-adv-x="266" 
d="M166 700v-700h-66v700h66zM98 844v-80h-66v80h66zM234 844v-80h-66v80h66z" />
    <glyph glyph-name="Eth" unicode="&#xd0;" horiz-adv-x="688" 
d="M271 700q20 0 55 -2t75 -12.5t81.5 -32t75 -61t54.5 -99.5t21 -146q0 -80 -24.5 -144t-71 -109t-114 -69.5t-152.5 -24.5h-171v346h-109v45h109v309h171zM166 391h199v-45h-199v-289h98q63 0 117 17t94.5 52.5t63.5 91t23 132.5q0 73 -17 123t-44.5 82.5t-61.5 50.5
t-67 26t-62 9.5t-46 1.5h-98v-252z" />
    <glyph glyph-name="Ntilde" unicode="&#xd1;" horiz-adv-x="723" 
d="M185 700l341 -566l31 -64h2l-2 81v549h66v-700h-85l-336 555l-37 75h-3l4 -81v-549h-66v700h85zM512 848v-7q0 -14 -4.5 -28t-14 -25t-24.5 -18t-36 -7q-29 0 -46 6t-30.5 13.5t-27 13.5t-34.5 6q-8 0 -23 -7t-21 -32h-40v6q0 34 21 58t56 24q21 0 42 -5.5t44 -15.5
q17 -7 30.5 -12.5t27.5 -5.5q10 0 23.5 7.5t16.5 28.5h40z" />
    <glyph glyph-name="Ograve" unicode="&#xd2;" horiz-adv-x="744" 
d="M55 349q0 70 19.5 135t59 115t99 79.5t139.5 29.5t139.5 -29.5t99 -79.5t59 -115t19.5 -135q0 -87 -24.5 -153.5t-67.5 -111.5t-100.5 -68.5t-124.5 -23.5t-125 23.5t-100.5 68.5t-67 111.5t-24.5 153.5zM126 349q0 -79 21.5 -135.5t56 -93t78.5 -54t90 -17.5t90 17.5
t78.5 54t56 93t21.5 135.5t-21.5 136t-56 94t-78.5 54.5t-90 17.5t-90 -17.5t-78.5 -54.5t-56 -94t-21.5 -136zM454 750h-60l-120 120h100z" />
    <glyph glyph-name="Oacute" unicode="&#xd3;" horiz-adv-x="744" 
d="M55 349q0 70 19.5 135t59 115t99 79.5t139.5 29.5t139.5 -29.5t99 -79.5t59 -115t19.5 -135q0 -87 -24.5 -153.5t-67.5 -111.5t-100.5 -68.5t-124.5 -23.5t-125 23.5t-100.5 68.5t-67 111.5t-24.5 153.5zM126 349q0 -79 21.5 -135.5t56 -93t78.5 -54t90 -17.5t90 17.5
t78.5 54t56 93t21.5 135.5t-21.5 136t-56 94t-78.5 54.5t-90 17.5t-90 -17.5t-78.5 -54.5t-56 -94t-21.5 -136zM454 870l-120 -120h-60l80 120h100z" />
    <glyph glyph-name="Ocircumflex" unicode="&#xd4;" horiz-adv-x="744" 
d="M55 349q0 70 19.5 135t59 115t99 79.5t139.5 29.5t139.5 -29.5t99 -79.5t59 -115t19.5 -135q0 -87 -24.5 -153.5t-67.5 -111.5t-100.5 -68.5t-124.5 -23.5t-125 23.5t-100.5 68.5t-67 111.5t-24.5 153.5zM126 349q0 -79 21.5 -135.5t56 -93t78.5 -54t90 -17.5t90 17.5
t78.5 54t56 93t21.5 135.5t-21.5 136t-56 94t-78.5 54.5t-90 17.5t-90 -17.5t-78.5 -54.5t-56 -94t-21.5 -136zM292 750h-70l102 120h96l102 -120h-70l-80 86z" />
    <glyph glyph-name="Otilde" unicode="&#xd5;" horiz-adv-x="744" 
d="M55 349q0 70 19.5 135t59 115t99 79.5t139.5 29.5t139.5 -29.5t99 -79.5t59 -115t19.5 -135q0 -87 -24.5 -153.5t-67.5 -111.5t-100.5 -68.5t-124.5 -23.5t-125 23.5t-100.5 68.5t-67 111.5t-24.5 153.5zM126 349q0 -79 21.5 -135.5t56 -93t78.5 -54t90 -17.5t90 17.5
t78.5 54t56 93t21.5 135.5t-21.5 136t-56 94t-78.5 54.5t-90 17.5t-90 -17.5t-78.5 -54.5t-56 -94t-21.5 -136zM522 848v-7q0 -14 -4.5 -28t-14 -25t-24.5 -18t-36 -7q-29 0 -46 6t-30.5 13.5t-27 13.5t-34.5 6q-8 0 -23 -7t-21 -32h-40v6q0 34 21 58t56 24q21 0 42 -5.5
t44 -15.5q17 -7 30.5 -12.5t27.5 -5.5q10 0 23.5 7.5t16.5 28.5h40z" />
    <glyph glyph-name="Odieresis" unicode="&#xd6;" horiz-adv-x="744" 
d="M55 349q0 70 19.5 135t59 115t99 79.5t139.5 29.5t139.5 -29.5t99 -79.5t59 -115t19.5 -135q0 -87 -24.5 -153.5t-67.5 -111.5t-100.5 -68.5t-124.5 -23.5t-125 23.5t-100.5 68.5t-67 111.5t-24.5 153.5zM126 349q0 -79 21.5 -135.5t56 -93t78.5 -54t90 -17.5t90 17.5
t78.5 54t56 93t21.5 135.5t-21.5 136t-56 94t-78.5 54.5t-90 17.5t-90 -17.5t-78.5 -54.5t-56 -94t-21.5 -136zM292 844v-80h-69v80h69zM521 844v-80h-69v80h69z" />
    <glyph glyph-name="multiply" unicode="&#xd7;" 
d="M540 557l-201 -201l201 -201l-39 -39l-201 201l-201 -201l-39 39l201 201l-201 201l39 39l201 -201l201 201z" />
    <glyph glyph-name="Oslash" unicode="&#xd8;" horiz-adv-x="744" 
d="M143 89q-38 49 -63 111t-25 149q0 70 19.5 135t59 115t99 79.5t139.5 29.5q37 0 66.5 -6t53.5 -15.5t42 -21t31 -21.5l59 78l39 -28l-63 -83q39 -50 64 -112.5t25 -149.5t-24.5 -153.5t-67.5 -111.5t-100.5 -68.5t-124.5 -23.5q-36 0 -66 6t-54 15.5t-42.5 21t-31.5 21.5
l-57 -75l-40 27zM526 593q-22 19 -44 30.5t-42 17.5t-37.5 8t-30.5 2q-46 0 -90 -17.5t-78.5 -54.5t-56 -94t-21.5 -136q0 -63 16 -113t42 -92zM217 108q22 -19 44.5 -30.5t43 -18t38 -8.5t29.5 -2q46 0 90.5 17.5t79 54t55.5 93t21 135.5q0 72 -19 123t-40 85z" />
    <glyph glyph-name="Ugrave" unicode="&#xd9;" horiz-adv-x="712" 
d="M166 235q0 -55 18.5 -91t47 -57t62 -29.5t62.5 -8.5t62.5 8.5t62 29.5t47 57t18.5 91v465h66v-467q0 -56 -18 -100.5t-51.5 -75.5t-81 -48t-105.5 -17t-105.5 17t-81 48t-51.5 75.5t-18 100.5v467h66v-465zM438 750h-60l-120 120h100z" />
    <glyph glyph-name="Uacute" unicode="&#xda;" horiz-adv-x="712" 
d="M166 235q0 -55 18.5 -91t47 -57t62 -29.5t62.5 -8.5t62.5 8.5t62 29.5t47 57t18.5 91v465h66v-467q0 -56 -18 -100.5t-51.5 -75.5t-81 -48t-105.5 -17t-105.5 17t-81 48t-51.5 75.5t-18 100.5v467h66v-465zM438 870l-120 -120h-60l80 120h100z" />
    <glyph glyph-name="Ucircumflex" unicode="&#xdb;" horiz-adv-x="712" 
d="M166 235q0 -55 18.5 -91t47 -57t62 -29.5t62.5 -8.5t62.5 8.5t62 29.5t47 57t18.5 91v465h66v-467q0 -56 -18 -100.5t-51.5 -75.5t-81 -48t-105.5 -17t-105.5 17t-81 48t-51.5 75.5t-18 100.5v467h66v-465zM276 750h-70l102 120h96l102 -120h-70l-80 86z" />
    <glyph glyph-name="Udieresis" unicode="&#xdc;" horiz-adv-x="712" 
d="M166 235q0 -55 18.5 -91t47 -57t62 -29.5t62.5 -8.5t62.5 8.5t62 29.5t47 57t18.5 91v465h66v-467q0 -56 -18 -100.5t-51.5 -75.5t-81 -48t-105.5 -17t-105.5 17t-81 48t-51.5 75.5t-18 100.5v467h66v-465zM276 844v-80h-69v80h69zM505 844v-80h-69v80h69z" />
    <glyph glyph-name="Yacute" unicode="&#xdd;" horiz-adv-x="623" 
d="M87 700l195 -310l24 -41l31 48l195 303h81l-275 -408v-292h-66v292l-262 408h77zM394 870l-120 -120h-60l80 120h100z" />
    <glyph glyph-name="Thorn" unicode="&#xde;" horiz-adv-x="532" 
d="M166 700v-148h116q49 0 88 -14.5t66 -41.5t41.5 -64t14.5 -82t-14.5 -82t-41.5 -64t-66 -41.5t-88 -14.5h-116v-148h-66v700h66zM166 205h103q14 0 39.5 3t50.5 17.5t43.5 43.5t18.5 81q0 54 -21 83.5t-48 43t-51.5 16t-31.5 2.5h-103v-290z" />
    <glyph glyph-name="germandbls" unicode="&#xdf;" horiz-adv-x="585" 
d="M80 538q0 70 19.5 114.5t49.5 69.5t66.5 34t70.5 9q85 0 135 -48.5t50 -132.5q0 -60 -33 -101.5t-84 -58.5v-3q35 -4 65.5 -18.5t53 -38.5t35 -57.5t12.5 -76.5q0 -55 -15.5 -99t-43.5 -75t-66 -47.5t-84 -16.5q-24 0 -48 3t-48 11v55q22 -9 45.5 -12.5t45.5 -3.5
q66 0 107 47.5t41 130.5q0 55 -21 87.5t-49.5 49.5t-58 22t-46.5 5h-35v54h34q21 0 43.5 10t41 27.5t30.5 42.5t12 55q0 28 -7 52.5t-22.5 43t-40 29.5t-59.5 11q-47 0 -73.5 -18.5t-40 -45.5t-16.5 -57t-3 -52v-539h-63v538z" />
    <glyph glyph-name="agrave" unicode="&#xe0;" horiz-adv-x="518" 
d="M215 -8q-83 0 -126.5 41t-43.5 107q0 37 15 68.5t47 54.5t83.5 36.5t124.5 13.5h57v17q0 72 -30 105t-87 33q-38 0 -78 -9t-77 -28v58q32 14 71 23t84 9q89 0 134.5 -47t45.5 -144v-330h-53v87h-2q-16 -30 -36 -48.5t-42 -29t-44 -14t-43 -3.5zM215 45q74 0 115.5 46.5
t41.5 131.5v37h-57q-58 0 -97 -9t-63 -25t-34 -38t-10 -48q0 -42 28 -68.5t76 -26.5zM280 610h-50l-134 130h94z" />
    <glyph glyph-name="aacute" unicode="&#xe1;" horiz-adv-x="518" 
d="M215 -8q-83 0 -126.5 41t-43.5 107q0 37 15 68.5t47 54.5t83.5 36.5t124.5 13.5h57v17q0 72 -30 105t-87 33q-38 0 -78 -9t-77 -28v58q32 14 71 23t84 9q89 0 134.5 -47t45.5 -144v-330h-53v87h-2q-16 -30 -36 -48.5t-42 -29t-44 -14t-43 -3.5zM215 45q74 0 115.5 46.5
t41.5 131.5v37h-57q-58 0 -97 -9t-63 -25t-34 -38t-10 -48q0 -42 28 -68.5t76 -26.5zM414 740l-134 -130h-50l90 130h94z" />
    <glyph glyph-name="acircumflex" unicode="&#xe2;" horiz-adv-x="518" 
d="M215 -8q-83 0 -126.5 41t-43.5 107q0 37 15 68.5t47 54.5t83.5 36.5t124.5 13.5h57v17q0 72 -30 105t-87 33q-38 0 -78 -9t-77 -28v58q32 14 71 23t84 9q89 0 134.5 -47t45.5 -144v-330h-53v87h-2q-16 -30 -36 -48.5t-42 -29t-44 -14t-43 -3.5zM215 45q74 0 115.5 46.5
t41.5 131.5v37h-57q-58 0 -97 -9t-63 -25t-34 -38t-10 -48q0 -42 28 -68.5t76 -26.5zM167 610h-60l110 130h76l110 -130h-60l-88 96z" />
    <glyph glyph-name="atilde" unicode="&#xe3;" horiz-adv-x="518" 
d="M215 -8q-83 0 -126.5 41t-43.5 107q0 37 15 68.5t47 54.5t83.5 36.5t124.5 13.5h57v17q0 72 -30 105t-87 33q-38 0 -78 -9t-77 -28v58q32 14 71 23t84 9q89 0 134.5 -47t45.5 -144v-330h-53v87h-2q-16 -30 -36 -48.5t-42 -29t-44 -14t-43 -3.5zM215 45q74 0 115.5 46.5
t41.5 131.5v37h-57q-58 0 -97 -9t-63 -25t-34 -38t-10 -48q0 -42 28 -68.5t76 -26.5zM399 741q2 -32 -17 -56.5t-59 -24.5q-20 0 -37.5 5t-31.5 10q-21 9 -34.5 14.5t-27.5 5.5q-11 0 -24 -7t-18 -28h-38q-2 38 21 61t58 23q19 0 37.5 -5.5t39.5 -13.5q17 -7 29 -11.5
t24 -4.5q10 0 23 6t17 26h38z" />
    <glyph glyph-name="adieresis" unicode="&#xe4;" horiz-adv-x="518" 
d="M215 -8q-83 0 -126.5 41t-43.5 107q0 37 15 68.5t47 54.5t83.5 36.5t124.5 13.5h57v17q0 72 -30 105t-87 33q-38 0 -78 -9t-77 -28v58q32 14 71 23t84 9q89 0 134.5 -47t45.5 -144v-330h-53v87h-2q-16 -30 -36 -48.5t-42 -29t-44 -14t-43 -3.5zM215 45q74 0 115.5 46.5
t41.5 131.5v37h-57q-58 0 -97 -9t-63 -25t-34 -38t-10 -48q0 -42 28 -68.5t76 -26.5zM180 720v-80h-69v80h69zM399 720v-80h-69v80h69z" />
    <glyph glyph-name="aring" unicode="&#xe5;" horiz-adv-x="518" 
d="M215 -8q-83 0 -126.5 41t-43.5 107q0 37 15 68.5t47 54.5t83.5 36.5t124.5 13.5h57v17q0 72 -30 105t-87 33q-38 0 -78 -9t-77 -28v58q32 14 71 23t84 9q89 0 134.5 -47t45.5 -144v-330h-53v87h-2q-16 -30 -36 -48.5t-42 -29t-44 -14t-43 -3.5zM215 45q74 0 115.5 46.5
t41.5 131.5v37h-57q-58 0 -97 -9t-63 -25t-34 -38t-10 -48q0 -42 28 -68.5t76 -26.5zM195 684q0 -25 17.5 -42.5t42.5 -17.5t42.5 17.5t17.5 42.5t-17.5 42.5t-42.5 17.5t-42.5 -17.5t-17.5 -42.5zM159 684q0 40 28 68t68 28t68 -28t28 -68t-28 -68t-68 -28t-68 28t-28 68z
" />
    <glyph glyph-name="ae" unicode="&#xe6;" horiz-adv-x="835" 
d="M101 487q32 15 70 24.5t83 9.5q60 0 102 -22.5t56 -73.5h3q26 48 71.5 72t102.5 24q67 0 107 -26.5t61 -66t27 -85.5t6 -85v-9h-355v-9q0 -45 13 -81.5t37 -62.5t57.5 -40t73.5 -14q31 0 65.5 9t71.5 29v-58q-35 -16 -70 -23.5t-69 -7.5q-71 0 -129.5 32t-84.5 92h-2
q-17 -41 -41 -65t-49.5 -37t-50.5 -17t-44 -4q-42 0 -73.5 11.5t-52.5 31.5t-31.5 46.5t-10.5 55.5q0 40 13 68t35 46.5t50.5 28.5t59.5 15t62.5 6t58.5 1h15h33v29q0 14 -2 37.5t-13.5 45.5t-35.5 38t-67 16q-38 0 -77 -9t-76 -32v60zM435 302h289q0 20 -4.5 48.5t-19 54.5
t-41 44.5t-70.5 18.5q-40 0 -68.5 -16.5t-47 -41.5t-27.5 -54t-11 -54zM315 249q-44 0 -81.5 -4.5t-64.5 -16.5t-42.5 -33t-15.5 -54q0 -42 29 -69t72 -27q75 0 117.5 46.5t42.5 131.5v26h-57z" />
    <glyph glyph-name="ccedilla" unicode="&#xe7;" horiz-adv-x="460" 
d="M311 -8q-60 0 -109.5 19t-84 53.5t-53.5 83t-19 107.5q0 60 19 109.5t53 84t81.5 53.5t104.5 19q17 0 48.5 -3t73.5 -17v-56q-14 5 -46.5 14t-74.5 9t-77.5 -14.5t-61 -42t-40 -67t-14.5 -89.5q0 -49 14.5 -88t40.5 -66t63 -41.5t82 -14.5q27 0 59 6t60 17v-56
q-32 -12 -59.5 -16t-59.5 -4zM285 -182q-27 0 -43 6.5t-27 14.5l20 32q17 -13 37 -13q13 0 21.5 4t13 10t6 12.5t1.5 12.5q0 13 -8 27t-34 14h-12t-12 -2l10 74h40l-4 -38q29 -1 50 -19.5t21 -55.5q0 -24 -8.5 -39.5t-21 -24t-26.5 -12t-24 -3.5z" />
    <glyph glyph-name="egrave" unicode="&#xe8;" horiz-adv-x="508" 
d="M106 238q0 -24 6 -57t24 -63t51.5 -51.5t88.5 -21.5q39 0 77 6.5t76 26.5v-58q-39 -17 -77 -22.5t-77 -5.5q-110 0 -172.5 70t-62.5 203q0 60 16.5 107.5t46 80.5t70.5 50.5t90 17.5q48 0 81.5 -13.5t56.5 -35t36 -49.5t20 -57t9 -57.5t2 -50.5v-20h-362zM402 291
q0 15 -3 45t-16.5 59t-41.5 51t-78 22q-39 0 -68 -15.5t-48.5 -40.5t-29.5 -57t-11 -64h296zM346 610h-50l-134 130h94z" />
    <glyph glyph-name="eacute" unicode="&#xe9;" horiz-adv-x="508" 
d="M106 238q0 -24 6 -57t24 -63t51.5 -51.5t88.5 -21.5q39 0 77 6.5t76 26.5v-58q-39 -17 -77 -22.5t-77 -5.5q-110 0 -172.5 70t-62.5 203q0 60 16.5 107.5t46 80.5t70.5 50.5t90 17.5q48 0 81.5 -13.5t56.5 -35t36 -49.5t20 -57t9 -57.5t2 -50.5v-20h-362zM402 291
q0 15 -3 45t-16.5 59t-41.5 51t-78 22q-39 0 -68 -15.5t-48.5 -40.5t-29.5 -57t-11 -64h296zM419 740l-134 -130h-50l90 130h94z" />
    <glyph glyph-name="ecircumflex" unicode="&#xea;" horiz-adv-x="508" 
d="M106 238q0 -24 6 -57t24 -63t51.5 -51.5t88.5 -21.5q39 0 77 6.5t76 26.5v-58q-39 -17 -77 -22.5t-77 -5.5q-110 0 -172.5 70t-62.5 203q0 60 16.5 107.5t46 80.5t70.5 50.5t90 17.5q48 0 81.5 -13.5t56.5 -35t36 -49.5t20 -57t9 -57.5t2 -50.5v-20h-362zM402 291
q0 15 -3 45t-16.5 59t-41.5 51t-78 22q-39 0 -68 -15.5t-48.5 -40.5t-29.5 -57t-11 -64h296zM175 610h-60l110 130h76l110 -130h-60l-88 96z" />
    <glyph glyph-name="edieresis" unicode="&#xeb;" horiz-adv-x="508" 
d="M106 238q0 -24 6 -57t24 -63t51.5 -51.5t88.5 -21.5q39 0 77 6.5t76 26.5v-58q-39 -17 -77 -22.5t-77 -5.5q-110 0 -172.5 70t-62.5 203q0 60 16.5 107.5t46 80.5t70.5 50.5t90 17.5q48 0 81.5 -13.5t56.5 -35t36 -49.5t20 -57t9 -57.5t2 -50.5v-20h-362zM402 291
q0 15 -3 45t-16.5 59t-41.5 51t-78 22q-39 0 -68 -15.5t-48.5 -40.5t-29.5 -57t-11 -64h296zM179 720v-80h-69v80h69zM398 720v-80h-69v80h69z" />
    <glyph glyph-name="igrave" unicode="&#xec;" horiz-adv-x="223" 
d="M143 513v-513h-63v513h63zM179 610h-50l-134 130h94z" />
    <glyph glyph-name="iacute" unicode="&#xed;" horiz-adv-x="223" 
d="M143 513v-513h-63v513h63zM245 740l-134 -130h-50l90 130h94z" />
    <glyph glyph-name="icircumflex" unicode="&#xee;" horiz-adv-x="223" 
d="M143 513v-513h-63v513h63zM25 610h-60l110 130h76l110 -130h-60l-88 96z" />
    <glyph glyph-name="idieresis" unicode="&#xef;" horiz-adv-x="223" 
d="M143 513v-513h-63v513h63zM86 720v-80h-66v80h66zM203 720v-80h-66v80h66z" />
    <glyph glyph-name="eth" unicode="&#xf0;" 
d="M46 252q0 68 21 116.5t54.5 79t76 44.5t85.5 14q61 0 98 -21t59 -46q-12 52 -35.5 87t-48 56t-44.5 30.5t-23 10.5l-72 -61l-31 38l47 40q-23 5 -47.5 8t-50.5 5l12 58q69 -1 141 -26l91 77l31 -38l-71 -60q64 -36 100.5 -91t54.5 -114t22 -113.5t4 -89.5
q0 -60 -16.5 -108.5t-47.5 -83t-75 -53.5t-98 -19q-53 0 -96.5 19t-75 53.5t-48.5 82t-17 105.5zM112 250q0 -44 12.5 -81.5t35 -65t54 -43t69.5 -15.5q45 0 77.5 19t53.5 49.5t30.5 68t9.5 74.5q0 45 -12.5 81.5t-35.5 62t-54.5 39.5t-68.5 14q-38 0 -69 -15.5t-54 -43
t-35.5 -64.5t-12.5 -80z" />
    <glyph glyph-name="ntilde" unicode="&#xf1;" horiz-adv-x="566" 
d="M83 0v395l-3 118h56v-106h2q9 22 24 42.5t36 36.5t48 25.5t60 9.5q62 0 98 -20.5t54 -51t23 -65.5t5 -65v-319h-63v316q0 24 -2 50.5t-13.5 49t-37 37.5t-73.5 15q-33 0 -60.5 -13.5t-47.5 -37t-31.5 -54t-11.5 -64.5v-299h-63zM426 741q2 -32 -17 -56.5t-59 -24.5
q-20 0 -37.5 5t-31.5 10q-21 9 -34.5 14.5t-27.5 5.5q-11 0 -24 -7t-18 -28h-38q-2 38 21 61t58 23q19 0 37.5 -5.5t39.5 -13.5q17 -7 29 -11.5t24 -4.5q10 0 23 6t17 26h38z" />
    <glyph glyph-name="ograve" unicode="&#xf2;" horiz-adv-x="564" 
d="M45 256q0 60 17 109t48 83.5t74.5 53.5t97.5 19t97.5 -19t74.5 -53.5t48 -83.5t17 -109t-17 -108.5t-48 -83t-75 -53.5t-97 -19t-97 19t-75 53.5t-48 83t-17 108.5zM111 256q0 -37 10 -74.5t30.5 -68t53 -49.5t77.5 -19t77.5 19t53 49.5t30.5 68t10 74.5t-10 75
t-30.5 68.5t-53 49.5t-77.5 19t-77.5 -19t-53 -49.5t-30.5 -68.5t-10 -75zM364 610h-50l-134 130h94z" />
    <glyph glyph-name="oacute" unicode="&#xf3;" horiz-adv-x="564" 
d="M45 256q0 60 17 109t48 83.5t74.5 53.5t97.5 19t97.5 -19t74.5 -53.5t48 -83.5t17 -109t-17 -108.5t-48 -83t-75 -53.5t-97 -19t-97 19t-75 53.5t-48 83t-17 108.5zM111 256q0 -37 10 -74.5t30.5 -68t53 -49.5t77.5 -19t77.5 19t53 49.5t30.5 68t10 74.5t-10 75
t-30.5 68.5t-53 49.5t-77.5 19t-77.5 -19t-53 -49.5t-30.5 -68.5t-10 -75zM394 740l-134 -130h-50l90 130h94z" />
    <glyph glyph-name="ocircumflex" unicode="&#xf4;" horiz-adv-x="564" 
d="M45 256q0 60 17 109t48 83.5t74.5 53.5t97.5 19t97.5 -19t74.5 -53.5t48 -83.5t17 -109t-17 -108.5t-48 -83t-75 -53.5t-97 -19t-97 19t-75 53.5t-48 83t-17 108.5zM111 256q0 -37 10 -74.5t30.5 -68t53 -49.5t77.5 -19t77.5 19t53 49.5t30.5 68t10 74.5t-10 75
t-30.5 68.5t-53 49.5t-77.5 19t-77.5 -19t-53 -49.5t-30.5 -68.5t-10 -75zM194 610h-60l110 130h76l110 -130h-60l-88 96z" />
    <glyph glyph-name="otilde" unicode="&#xf5;" horiz-adv-x="564" 
d="M45 256q0 60 17 109t48 83.5t74.5 53.5t97.5 19t97.5 -19t74.5 -53.5t48 -83.5t17 -109t-17 -108.5t-48 -83t-75 -53.5t-97 -19t-97 19t-75 53.5t-48 83t-17 108.5zM111 256q0 -37 10 -74.5t30.5 -68t53 -49.5t77.5 -19t77.5 19t53 49.5t30.5 68t10 74.5t-10 75
t-30.5 68.5t-53 49.5t-77.5 19t-77.5 -19t-53 -49.5t-30.5 -68.5t-10 -75zM425 741q2 -32 -17 -56.5t-59 -24.5q-20 0 -37.5 5t-31.5 10q-21 9 -34.5 14.5t-27.5 5.5q-11 0 -24 -7t-18 -28h-38q-2 38 21 61t58 23q19 0 37.5 -5.5t39.5 -13.5q17 -7 29 -11.5t24 -4.5
q10 0 23 6t17 26h38z" />
    <glyph glyph-name="odieresis" unicode="&#xf6;" horiz-adv-x="564" 
d="M45 256q0 60 17 109t48 83.5t74.5 53.5t97.5 19t97.5 -19t74.5 -53.5t48 -83.5t17 -109t-17 -108.5t-48 -83t-75 -53.5t-97 -19t-97 19t-75 53.5t-48 83t-17 108.5zM111 256q0 -37 10 -74.5t30.5 -68t53 -49.5t77.5 -19t77.5 19t53 49.5t30.5 68t10 74.5t-10 75
t-30.5 68.5t-53 49.5t-77.5 19t-77.5 -19t-53 -49.5t-30.5 -68.5t-10 -75zM207 720v-80h-69v80h69zM426 720v-80h-69v80h69z" />
    <glyph glyph-name="divide" unicode="&#xf7;" 
d="M50 378h500v-56h-500v56zM240 150q0 25 17.5 42.5t42.5 17.5t42.5 -17.5t17.5 -42.5t-17.5 -42.5t-42.5 -17.5t-42.5 17.5t-17.5 42.5zM240 550q0 25 17.5 42.5t42.5 17.5t42.5 -17.5t17.5 -42.5t-17.5 -42.5t-42.5 -17.5t-42.5 17.5t-17.5 42.5z" />
    <glyph glyph-name="oslash" unicode="&#xf8;" horiz-adv-x="564" 
d="M105 69q-33 43 -46.5 90t-13.5 97q0 60 17 109t48 83.5t74.5 53.5t97.5 19q57 0 91 -15.5t52 -29.5l52 65l35 -26l-55 -70q20 -24 32.5 -50t19 -51t8.5 -47.5t2 -40.5q0 -60 -17 -109t-48 -83.5t-75 -53t-97 -18.5q-57 0 -91.5 15t-55.5 32l-48 -61l-35 24zM388 428
q-19 18 -43.5 29t-62.5 11q-45 0 -77.5 -19t-53 -49.5t-30.5 -68.5t-10 -75q0 -26 7 -61.5t28 -73.5zM173 87q20 -20 46 -31t63 -11q45 0 77.5 19t53 49.5t30.5 68t10 74.5q0 32 -8.5 67.5t-28.5 70.5z" />
    <glyph glyph-name="ugrave" unicode="&#xf9;" horiz-adv-x="558" 
d="M143 513v-337q0 -16 3 -38.5t14 -43t33.5 -35t61.5 -14.5q32 0 60.5 12.5t49.5 35.5t33.5 54t12.5 69v297h63v-396l4 -117h-59v102h-1q-20 -50 -62.5 -80t-100.5 -30q-26 0 -56.5 6.5t-56.5 26.5t-44 57t-18 99v332h63zM316 610h-50l-134 130h94z" />
    <glyph glyph-name="uacute" unicode="&#xfa;" horiz-adv-x="558" 
d="M143 513v-337q0 -16 3 -38.5t14 -43t33.5 -35t61.5 -14.5q32 0 60.5 12.5t49.5 35.5t33.5 54t12.5 69v297h63v-396l4 -117h-59v102h-1q-20 -50 -62.5 -80t-100.5 -30q-26 0 -56.5 6.5t-56.5 26.5t-44 57t-18 99v332h63zM401 740l-134 -130h-50l90 130h94z" />
    <glyph glyph-name="ucircumflex" unicode="&#xfb;" horiz-adv-x="558" 
d="M143 513v-337q0 -16 3 -38.5t14 -43t33.5 -35t61.5 -14.5q32 0 60.5 12.5t49.5 35.5t33.5 54t12.5 69v297h63v-396l4 -117h-59v102h-1q-20 -50 -62.5 -80t-100.5 -30q-26 0 -56.5 6.5t-56.5 26.5t-44 57t-18 99v332h63zM191 610h-60l110 130h76l110 -130h-60l-88 96z" />
    <glyph glyph-name="udieresis" unicode="&#xfc;" horiz-adv-x="558" 
d="M143 513v-337q0 -16 3 -38.5t14 -43t33.5 -35t61.5 -14.5q32 0 60.5 12.5t49.5 35.5t33.5 54t12.5 69v297h63v-396l4 -117h-59v102h-1q-20 -50 -62.5 -80t-100.5 -30q-26 0 -56.5 6.5t-56.5 26.5t-44 57t-18 99v332h63zM204 720v-80h-69v80h69zM423 720v-80h-69v80h69z
" />
    <glyph glyph-name="yacute" unicode="&#xfd;" horiz-adv-x="490" 
d="M60 -155q7 -3 15 -5q7 -2 16 -3t20 -1q33 0 50 22t29 58l24 70l-184 527h67l151 -439h1l146 439h65l-219 -629q-8 -22 -18.5 -41t-25 -33t-34 -22t-46.5 -8q-21 0 -38.5 4.5t-18.5 4.5v56zM404 740l-134 -130h-50l90 130h94z" />
    <glyph glyph-name="thorn" unicode="&#xfe;" horiz-adv-x="564" 
d="M80 -219v919h63v-241l-7 -52h3q6 18 18 38t30.5 37t45.5 28t65 11q53 0 94.5 -18.5t69.5 -53t42.5 -83t14.5 -109.5q0 -71 -18.5 -121t-49.5 -82t-70.5 -47t-82.5 -15q-52 0 -91.5 27.5t-62.5 72.5h-3l2 -49v-262h-63zM143 257q0 -61 16 -102t39 -65.5t50 -34.5t50 -10
q22 0 49.5 10t50.5 34.5t39 65.5t16 102q0 60 -16 100.5t-39 65t-50.5 35t-49.5 10.5q-23 0 -50 -10.5t-50 -35t-39 -65t-16 -100.5z" />
    <glyph glyph-name="ydieresis" unicode="&#xff;" horiz-adv-x="490" 
d="M60 -155q7 -3 15 -5q7 -2 16 -3t20 -1q33 0 50 22t29 58l24 70l-184 527h67l151 -439h1l146 439h65l-219 -629q-8 -22 -18.5 -41t-25 -33t-34 -22t-46.5 -8q-21 0 -38.5 4.5t-18.5 4.5v56zM170 720v-80h-69v80h69zM389 720v-80h-69v80h69z" />
    <glyph glyph-name="Amacron" unicode="&#x100;" horiz-adv-x="650" 
d="M282 700h86l267 -700h-72l-72 192h-335l-71 -192h-70zM469 249l-143 385h-2l-146 -385h291zM456 834v-60h-262v60h262z" />
    <glyph glyph-name="amacron" unicode="&#x101;" horiz-adv-x="518" 
d="M215 -8q-83 0 -126.5 41t-43.5 107q0 37 15 68.5t47 54.5t83.5 36.5t124.5 13.5h57v17q0 72 -30 105t-87 33q-38 0 -78 -9t-77 -28v58q32 14 71 23t84 9q89 0 134.5 -47t45.5 -144v-330h-53v87h-2q-16 -30 -36 -48.5t-42 -29t-44 -14t-43 -3.5zM215 45q74 0 115.5 46.5
t41.5 131.5v37h-57q-58 0 -97 -9t-63 -25t-34 -38t-10 -48q0 -42 28 -68.5t76 -26.5zM381 714v-54h-252v54h252z" />
    <glyph glyph-name="Abreve" unicode="&#x102;" horiz-adv-x="650" 
d="M282 700h86l267 -700h-72l-72 192h-335l-71 -192h-70zM469 249l-143 385h-2l-146 -385h291zM224 870q6 -17 17.5 -28t25.5 -18t29 -9.5t29 -2.5q13 0 28.5 2.5t29.5 9.5t25.5 18t17.5 28h60q-20 -57 -63.5 -86.5t-97.5 -29.5t-97.5 29.5t-63.5 86.5h60z" />
    <glyph glyph-name="abreve" unicode="&#x103;" horiz-adv-x="518" 
d="M215 -8q-83 0 -126.5 41t-43.5 107q0 37 15 68.5t47 54.5t83.5 36.5t124.5 13.5h57v17q0 72 -30 105t-87 33q-38 0 -78 -9t-77 -28v58q32 14 71 23t84 9q89 0 134.5 -47t45.5 -144v-330h-53v87h-2q-16 -30 -36 -48.5t-42 -29t-44 -14t-43 -3.5zM215 45q74 0 115.5 46.5
t41.5 131.5v37h-57q-58 0 -97 -9t-63 -25t-34 -38t-10 -48q0 -42 28 -68.5t76 -26.5zM150 740q15 -32 42 -48t63 -16t63 16t42 48h56q-20 -57 -63.5 -86.5t-97.5 -29.5t-97.5 29.5t-63.5 86.5h56z" />
    <glyph glyph-name="Aogonek" unicode="&#x104;" horiz-adv-x="650" 
d="M282 700h86l267 -700h-72l-72 192h-335l-71 -192h-70zM469 249l-143 385h-2l-146 -385h291zM634 0q-39 -38 -55 -61.5t-16 -46.5q0 -12 5 -20.5t11.5 -13.5t13.5 -7t12 -2q9 0 21.5 5t23.5 13l21 -39q-19 -17 -38 -21t-33 -4q-32 0 -50 10.5t-26.5 24.5t-10.5 27t-2 18
q0 8 1.5 20.5t8.5 28t19.5 33t35.5 35.5h58z" />
    <glyph glyph-name="aogonek" unicode="&#x105;" horiz-adv-x="518" 
d="M215 -8q-83 0 -126.5 41t-43.5 107q0 37 15 68.5t47 54.5t83.5 36.5t124.5 13.5h57v17q0 72 -30 105t-87 33q-38 0 -78 -9t-77 -28v58q32 14 71 23t84 9q89 0 134.5 -47t45.5 -144v-330h-53v87h-2q-16 -30 -36 -48.5t-42 -29t-44 -14t-43 -3.5zM215 45q74 0 115.5 46.5
t41.5 131.5v37h-57q-58 0 -97 -9t-63 -25t-34 -38t-10 -48q0 -42 28 -68.5t76 -26.5zM401 -195q-32 0 -50 10.5t-26.5 24.5t-10.5 27t-2 18q0 25 15 56.5t62 68.5l46 -10q-39 -38 -55 -61.5t-16 -46.5q0 -12 5 -20t11.5 -12.5t13.5 -6.5t12 -2q9 0 21.5 5t23.5 13l21 -39
q-19 -17 -38 -21t-33 -4z" />
    <glyph glyph-name="Cacute" unicode="&#x106;" horiz-adv-x="611" 
d="M405 -8q-81 0 -145.5 24.5t-110 72t-70 116t-24.5 155.5q0 78 25 142t71 110t110.5 71t143.5 25q47 0 89.5 -6.5t80.5 -20.5v-61q-29 9 -52 15t-43 9.5t-38 5t-37 1.5q-60 0 -111 -21.5t-88.5 -60t-58.5 -92t-21 -117.5q0 -75 20 -133t56.5 -97.5t88 -60t114.5 -20.5
q48 0 92.5 7.5t83.5 23.5v-61q-31 -10 -75.5 -18.5t-100.5 -8.5zM545 870l-120 -120h-60l80 120h100z" />
    <glyph glyph-name="cacute" unicode="&#x107;" horiz-adv-x="460" 
d="M311 -8q-60 0 -109.5 19t-84 53.5t-53.5 83t-19 107.5q0 60 19 109.5t53 84t81.5 53.5t104.5 19q17 0 48.5 -3t73.5 -17v-56q-14 5 -46.5 14t-74.5 9t-77.5 -14.5t-61 -42t-40 -67t-14.5 -89.5q0 -49 14.5 -88t40.5 -66t63 -41.5t82 -14.5q27 0 59 6t60 17v-56
q-32 -12 -59.5 -16t-59.5 -4zM449 740l-134 -130h-50l90 130h94z" />
    <glyph glyph-name="Ccircumflex" unicode="&#x108;" horiz-adv-x="611" 
d="M405 -8q-81 0 -145.5 24.5t-110 72t-70 116t-24.5 155.5q0 78 25 142t71 110t110.5 71t143.5 25q47 0 89.5 -6.5t80.5 -20.5v-61q-29 9 -52 15t-43 9.5t-38 5t-37 1.5q-60 0 -111 -21.5t-88.5 -60t-58.5 -92t-21 -117.5q0 -75 20 -133t56.5 -97.5t88 -60t114.5 -20.5
q48 0 92.5 7.5t83.5 23.5v-61q-31 -10 -75.5 -18.5t-100.5 -8.5zM315 750h-70l102 120h96l102 -120h-70l-80 86z" />
    <glyph glyph-name="ccircumflex" unicode="&#x109;" horiz-adv-x="460" 
d="M311 -8q-60 0 -109.5 19t-84 53.5t-53.5 83t-19 107.5q0 60 19 109.5t53 84t81.5 53.5t104.5 19q17 0 48.5 -3t73.5 -17v-56q-14 5 -46.5 14t-74.5 9t-77.5 -14.5t-61 -42t-40 -67t-14.5 -89.5q0 -49 14.5 -88t40.5 -66t63 -41.5t82 -14.5q27 0 59 6t60 17v-56
q-32 -12 -59.5 -16t-59.5 -4zM202 610h-60l110 130h76l110 -130h-60l-88 96z" />
    <glyph glyph-name="Cdotaccent" unicode="&#x10a;" horiz-adv-x="611" 
d="M405 -8q-81 0 -145.5 24.5t-110 72t-70 116t-24.5 155.5q0 78 25 142t71 110t110.5 71t143.5 25q47 0 89.5 -6.5t80.5 -20.5v-61q-29 9 -52 15t-43 9.5t-38 5t-37 1.5q-60 0 -111 -21.5t-88.5 -60t-58.5 -92t-21 -117.5q0 -75 20 -133t56.5 -97.5t88 -60t114.5 -20.5
q48 0 92.5 7.5t83.5 23.5v-61q-31 -10 -75.5 -18.5t-100.5 -8.5zM436 846v-86h-82v86h82z" />
    <glyph glyph-name="cdotaccent" unicode="&#x10b;" horiz-adv-x="460" 
d="M311 -8q-60 0 -109.5 19t-84 53.5t-53.5 83t-19 107.5q0 60 19 109.5t53 84t81.5 53.5t104.5 19q17 0 48.5 -3t73.5 -17v-56q-14 5 -46.5 14t-74.5 9t-77.5 -14.5t-61 -42t-40 -67t-14.5 -89.5q0 -49 14.5 -88t40.5 -66t63 -41.5t82 -14.5q27 0 59 6t60 17v-56
q-32 -12 -59.5 -16t-59.5 -4zM325 720v-80h-69v80h69z" />
    <glyph glyph-name="Ccaron" unicode="&#x10c;" horiz-adv-x="611" 
d="M405 -8q-81 0 -145.5 24.5t-110 72t-70 116t-24.5 155.5q0 78 25 142t71 110t110.5 71t143.5 25q47 0 89.5 -6.5t80.5 -20.5v-61q-29 9 -52 15t-43 9.5t-38 5t-37 1.5q-60 0 -111 -21.5t-88.5 -60t-58.5 -92t-21 -117.5q0 -75 20 -133t56.5 -97.5t88 -60t114.5 -20.5
q48 0 92.5 7.5t83.5 23.5v-61q-31 -10 -75.5 -18.5t-100.5 -8.5zM475 870h70l-102 -120h-96l-102 120h70l80 -86z" />
    <glyph glyph-name="ccaron" unicode="&#x10d;" horiz-adv-x="460" 
d="M311 -8q-60 0 -109.5 19t-84 53.5t-53.5 83t-19 107.5q0 60 19 109.5t53 84t81.5 53.5t104.5 19q17 0 48.5 -3t73.5 -17v-56q-14 5 -46.5 14t-74.5 9t-77.5 -14.5t-61 -42t-40 -67t-14.5 -89.5q0 -49 14.5 -88t40.5 -66t63 -41.5t82 -14.5q27 0 59 6t60 17v-56
q-32 -12 -59.5 -16t-59.5 -4zM378 740h60l-110 -133h-76l-110 133h60l88 -99z" />
    <glyph glyph-name="Dcaron" unicode="&#x10e;" horiz-adv-x="688" 
d="M271 700q20 0 55 -2t75 -12.5t81.5 -32t75 -61t54.5 -99.5t21 -146q0 -80 -24.5 -144t-71 -109t-114 -69.5t-152.5 -24.5h-171v700h171zM166 57h98q63 0 117 17t94.5 52.5t63.5 91t23 132.5q0 73 -17 123t-44.5 82.5t-61.5 50.5t-67 26t-62 9.5t-46 1.5h-98v-586z
M346 870h70l-102 -120h-96l-102 120h70l80 -86z" />
    <glyph glyph-name="dcaron" unicode="&#x10f;" horiz-adv-x="594" 
d="M266 -8q-43 0 -83 14.5t-70.5 46t-49 81.5t-18.5 122q0 71 18.5 121t49 82t70.5 47t83 15q31 0 56 -9.5t44 -24.5t32.5 -32.5t22.5 -33.5v341h63v-762h-56v106h-3q-9 -21 -23.5 -41.5t-34.5 -36.5t-45 -26t-56 -10zM266 45q22 0 49.5 10.5t50.5 35t39 65t16 100.5
q0 61 -16 102t-39 65.5t-50.5 34.5t-49.5 10q-23 0 -50 -10t-50 -34.5t-39 -65.5t-16 -102q0 -60 16 -100.5t39 -65t50 -35t50 -10.5zM617 762l-60 -168h-50l40 168h70z" />
    <glyph glyph-name="Dcroat" unicode="&#x110;" horiz-adv-x="688" 
d="M271 700q20 0 55 -2t75 -12.5t81.5 -32t75 -61t54.5 -99.5t21 -146q0 -80 -24.5 -144t-71 -109t-114 -69.5t-152.5 -24.5h-171v346h-109v45h109v309h171zM166 391h199v-45h-199v-289h98q63 0 117 17t94.5 52.5t63.5 91t23 132.5q0 73 -17 123t-44.5 82.5t-61.5 50.5
t-67 26t-62 9.5t-46 1.5h-98v-252z" />
    <glyph glyph-name="dcroat" unicode="&#x111;" horiz-adv-x="589" 
d="M266 -8q-43 0 -83 14.5t-70.5 46t-49 81.5t-18.5 122q0 71 18.5 121t49 82t70.5 47t83 15q31 0 56 -9.5t44 -24.5t32.5 -32.5t22.5 -33.5v197h-204v45h204v99h63v-99h85v-45h-85v-618h-56v106h-3q-9 -21 -23.5 -41.5t-34.5 -36.5t-45 -26t-56 -10zM266 45q22 0 49.5 10.5
t50.5 35t39 65t16 100.5q0 61 -16 102t-39 65.5t-50.5 34.5t-49.5 10q-23 0 -50 -10t-50 -34.5t-39 -65.5t-16 -102q0 -60 16 -100.5t39 -65t50 -35t50 -10.5z" />
    <glyph glyph-name="Emacron" unicode="&#x112;" horiz-adv-x="509" 
d="M440 700v-57h-274v-253h261v-57h-261v-276h293v-57h-359v700h340zM385 834v-60h-262v60h262z" />
    <glyph glyph-name="emacron" unicode="&#x113;" horiz-adv-x="508" 
d="M106 238q0 -24 6 -57t24 -63t51.5 -51.5t88.5 -21.5q39 0 77 6.5t76 26.5v-58q-39 -17 -77 -22.5t-77 -5.5q-110 0 -172.5 70t-62.5 203q0 60 16.5 107.5t46 80.5t70.5 50.5t90 17.5q48 0 81.5 -13.5t56.5 -35t36 -49.5t20 -57t9 -57.5t2 -50.5v-20h-362zM402 291
q0 15 -3 45t-16.5 59t-41.5 51t-78 22q-39 0 -68 -15.5t-48.5 -40.5t-29.5 -57t-11 -64h296zM380 714v-54h-252v54h252z" />
    <glyph glyph-name="Edotaccent" unicode="&#x116;" horiz-adv-x="509" 
d="M440 700v-57h-274v-253h261v-57h-261v-276h293v-57h-359v700h340zM295 846v-86h-82v86h82z" />
    <glyph glyph-name="edotaccent" unicode="&#x117;" horiz-adv-x="508" 
d="M106 238q0 -24 6 -57t24 -63t51.5 -51.5t88.5 -21.5q39 0 77 6.5t76 26.5v-58q-39 -17 -77 -22.5t-77 -5.5q-110 0 -172.5 70t-62.5 203q0 60 16.5 107.5t46 80.5t70.5 50.5t90 17.5q48 0 81.5 -13.5t56.5 -35t36 -49.5t20 -57t9 -57.5t2 -50.5v-20h-362zM402 291
q0 15 -3 45t-16.5 59t-41.5 51t-78 22q-39 0 -68 -15.5t-48.5 -40.5t-29.5 -57t-11 -64h296zM288 720v-80h-69v80h69z" />
    <glyph glyph-name="Eogonek" unicode="&#x118;" horiz-adv-x="509" 
d="M440 700v-57h-274v-253h261v-57h-261v-276h293v-57h-37q-21 -21 -34.5 -36t-22 -27.5t-11.5 -23t-3 -21.5q2 -16 5.5 -22.5t10.5 -11.5t20 -5q7 -1 20.5 1.5t30.5 15.5l21 -37q-17 -15 -37.5 -21.5t-39.5 -6.5q-35 0 -58 21.5t-23 63.5q0 6 1.5 17t7.5 25t18.5 31.5
t35.5 36.5h-264v700h340z" />
    <glyph glyph-name="eogonek" unicode="&#x119;" horiz-adv-x="508" 
d="M106 238q-1 -29 4.5 -51.5t12.5 -39t13.5 -26.5t8.5 -13q26 -33 59.5 -48t71.5 -15q39 0 77 6.5t76 26.5v-58l-23 -9q-17 -14 -32 -29q-6 -5 -22 -22.5t-27 -38.5q-6 -14 -6 -27q0 -14 7 -24q5 -8 17 -13.5t20 -5.5q5 0 12.5 1.5t15 6t11 7t6.5 4.5l21 -38
q-19 -16 -38 -22t-33 -5q-12 0 -23.5 2t-22.5 7q-17 8 -30 25t-13 46q0 18 4 31q6 18 17 36q7 11 17 22t19 20q-13 -2 -25.5 -2h-25.5q-110 0 -172.5 70.5t-62.5 202.5q0 60 16.5 107.5t46 80.5t70.5 50.5t90 17.5q48 0 81.5 -13.5t56.5 -35t36 -49.5t20 -57t9 -57.5
t2 -50.5v-20h-362zM402 291q1 25 -4.5 57t-19.5 57q-14 24 -41 43.5t-74 19.5q-36 0 -66 -14t-53 -45q-21 -29 -31 -67q-3 -13 -5 -25t-2 -26h296z" />
    <glyph glyph-name="Ecaron" unicode="&#x11a;" horiz-adv-x="509" 
d="M440 700v-57h-274v-253h261v-57h-261v-276h293v-57h-359v700h340zM334 870h70l-102 -120h-96l-102 120h70l80 -86z" />
    <glyph glyph-name="ecaron" unicode="&#x11b;" horiz-adv-x="508" 
d="M106 238q0 -24 6 -57t24 -63t51.5 -51.5t88.5 -21.5q39 0 77 6.5t76 26.5v-58q-39 -17 -77 -22.5t-77 -5.5q-110 0 -172.5 70t-62.5 203q0 60 16.5 107.5t46 80.5t70.5 50.5t90 17.5q48 0 81.5 -13.5t56.5 -35t36 -49.5t20 -57t9 -57.5t2 -50.5v-20h-362zM402 291
q0 15 -3 45t-16.5 59t-41.5 51t-78 22q-39 0 -68 -15.5t-48.5 -40.5t-29.5 -57t-11 -64h296zM342 740h60l-110 -133h-76l-110 133h60l88 -99z" />
    <glyph glyph-name="Gcircumflex" unicode="&#x11c;" horiz-adv-x="711" 
d="M426 -8q-78 0 -145.5 23.5t-117.5 69.5t-79 112.5t-29 152.5q0 82 26 148.5t74 113t116.5 71.5t154.5 25q56 0 100 -11.5t79 -25.5v-65l-27 12t-41.5 15t-52 12.5t-58.5 5.5q-63 0 -117.5 -19t-95 -57t-64 -94.5t-23.5 -130.5q0 -64 20 -119t58.5 -95.5t94 -63.5
t127.5 -23q70 0 139 24v236h-170v57h236v-335q-102 -39 -205 -39zM330 750h-70l102 120h96l102 -120h-70l-80 86z" />
    <glyph glyph-name="gcircumflex" unicode="&#x11d;" horiz-adv-x="568" 
d="M231 -224q-38 0 -69.5 6.5t-66.5 21.5v58q36 -17 73.5 -25t74.5 -8q81 0 129.5 43.5t48.5 130.5v89q-16 -30 -35 -49t-39 -30.5t-41 -16t-40 -4.5q-43 0 -83 14.5t-70.5 46.5t-49 82.5t-18.5 121.5q0 72 18.5 122t49 81.5t70.5 46t83 14.5q57 0 97 -33t62 -81h3v106h56
v-516q0 -15 -2 -37t-10 -46.5t-24 -49t-44 -44t-70.5 -32t-102.5 -12.5zM421 257q0 60 -16 100.5t-39 65t-50.5 35t-49.5 10.5q-23 0 -50 -10.5t-50 -35t-39 -65t-16 -100.5q0 -61 16 -102t39 -65.5t50 -34.5t50 -10q22 0 49.5 10t50.5 34.5t39 65.5t16 102zM176 610h-60
l110 130h76l110 -130h-60l-88 96z" />
    <glyph glyph-name="Gbreve" unicode="&#x11e;" horiz-adv-x="711" 
d="M426 -8q-78 0 -145.5 23.5t-117.5 69.5t-79 112.5t-29 152.5q0 82 26 148.5t74 113t116.5 71.5t154.5 25q56 0 100 -11.5t79 -25.5v-65l-27 12t-41.5 15t-52 12.5t-58.5 5.5q-63 0 -117.5 -19t-95 -57t-64 -94.5t-23.5 -130.5q0 -64 20 -119t58.5 -95.5t94 -63.5
t127.5 -23q70 0 139 24v236h-170v57h236v-335q-102 -39 -205 -39zM309 870q6 -17 17.5 -28t25.5 -18t29 -9.5t29 -2.5q13 0 28.5 2.5t29.5 9.5t25.5 18t17.5 28h60q-20 -57 -63.5 -86.5t-97.5 -29.5t-97.5 29.5t-63.5 86.5h60z" />
    <glyph glyph-name="gbreve" unicode="&#x11f;" horiz-adv-x="568" 
d="M231 -224q-38 0 -69.5 6.5t-66.5 21.5v58q36 -17 73.5 -25t74.5 -8q81 0 129.5 43.5t48.5 130.5v89q-16 -30 -35 -49t-39 -30.5t-41 -16t-40 -4.5q-43 0 -83 14.5t-70.5 46.5t-49 82.5t-18.5 121.5q0 72 18.5 122t49 81.5t70.5 46t83 14.5q57 0 97 -33t62 -81h3v106h56
v-516q0 -15 -2 -37t-10 -46.5t-24 -49t-44 -44t-70.5 -32t-102.5 -12.5zM421 257q0 60 -16 100.5t-39 65t-50.5 35t-49.5 10.5q-23 0 -50 -10.5t-50 -35t-39 -65t-16 -100.5q0 -61 16 -102t39 -65.5t50 -34.5t50 -10q22 0 49.5 10t50.5 34.5t39 65.5t16 102zM159 740
q15 -32 42 -48t63 -16t63 16t42 48h56q-20 -57 -63.5 -86.5t-97.5 -29.5t-97.5 29.5t-63.5 86.5h56z" />
    <glyph glyph-name="Gdotaccent" unicode="&#x120;" horiz-adv-x="711" 
d="M426 -8q-78 0 -145.5 23.5t-117.5 69.5t-79 112.5t-29 152.5q0 82 26 148.5t74 113t116.5 71.5t154.5 25q56 0 100 -11.5t79 -25.5v-65l-27 12t-41.5 15t-52 12.5t-58.5 5.5q-63 0 -117.5 -19t-95 -57t-64 -94.5t-23.5 -130.5q0 -64 20 -119t58.5 -95.5t94 -63.5
t127.5 -23q70 0 139 24v236h-170v57h236v-335q-102 -39 -205 -39zM451 846v-86h-82v86h82z" />
    <glyph glyph-name="gdotaccent" unicode="&#x121;" horiz-adv-x="568" 
d="M231 -224q-38 0 -69.5 6.5t-66.5 21.5v58q36 -17 73.5 -25t74.5 -8q81 0 129.5 43.5t48.5 130.5v89q-16 -30 -35 -49t-39 -30.5t-41 -16t-40 -4.5q-43 0 -83 14.5t-70.5 46.5t-49 82.5t-18.5 121.5q0 72 18.5 122t49 81.5t70.5 46t83 14.5q57 0 97 -33t62 -81h3v106h56
v-516q0 -15 -2 -37t-10 -46.5t-24 -49t-44 -44t-70.5 -32t-102.5 -12.5zM421 257q0 60 -16 100.5t-39 65t-50.5 35t-49.5 10.5q-23 0 -50 -10.5t-50 -35t-39 -65t-16 -100.5q0 -61 16 -102t39 -65.5t50 -34.5t50 -10q22 0 49.5 10t50.5 34.5t39 65.5t16 102zM299 720v-80
h-69v80h69z" />
    <glyph glyph-name="Gcommaaccent" unicode="&#x122;" horiz-adv-x="711" 
d="M426 -8q-78 0 -145.5 23.5t-117.5 69.5t-79 112.5t-29 152.5q0 82 26 148.5t74 113t116.5 71.5t154.5 25q56 0 100 -11.5t79 -25.5v-65l-27 12t-41.5 15t-52 12.5t-58.5 5.5q-63 0 -117.5 -19t-95 -57t-64 -94.5t-23.5 -130.5q0 -64 20 -119t58.5 -95.5t94 -63.5
t127.5 -23q70 0 139 24v236h-170v57h236v-335q-102 -39 -205 -39zM445 -50l-60 -170h-50l40 170h70z" />
    <glyph glyph-name="gcommaaccent" unicode="&#x123;" horiz-adv-x="568" 
d="M231 -224q-38 0 -69.5 6.5t-66.5 21.5v58q36 -17 73.5 -25t74.5 -8q81 0 129.5 43.5t48.5 130.5v89q-16 -30 -35 -49t-39 -30.5t-41 -16t-40 -4.5q-43 0 -83 14.5t-70.5 46.5t-49 82.5t-18.5 121.5q0 72 18.5 122t49 81.5t70.5 46t83 14.5q57 0 97 -33t62 -81h3v106h56
v-516q0 -15 -2 -37t-10 -46.5t-24 -49t-44 -44t-70.5 -32t-102.5 -12.5zM421 257q0 60 -16 100.5t-39 65t-50.5 35t-49.5 10.5q-23 0 -50 -10.5t-50 -35t-39 -65t-16 -100.5q0 -61 16 -102t39 -65.5t50 -34.5t50 -10q22 0 49.5 10t50.5 34.5t39 65.5t16 102z
M229.023 591.994l59.9932 169.979h49.9941l-39.9951 -169.979h-69.9922z" />
    <glyph glyph-name="Hcircumflex" unicode="&#x124;" horiz-adv-x="696" 
d="M166 700v-309h364v309h66v-700h-66v334h-364v-334h-66v700h66zM268 750h-70l102 120h96l102 -120h-70l-80 86z" />
    <glyph glyph-name="hcircumflex" unicode="&#x125;" horiz-adv-x="563" 
d="M143 762v-243l-5 -112h2q20 48 62 81t102 33q61 0 97 -20.5t54 -51.5t23 -66t5 -64v-319h-63v316q0 23 -2 49.5t-13.5 49.5t-37 38t-73.5 15q-30 0 -57.5 -13t-48.5 -36t-33 -53.5t-12 -66.5v-299h-63v762h63zM31 790h-60l110 130h76l110 -130h-60l-88 96z" />
    <glyph glyph-name="Hbar" unicode="&#x126;" horiz-adv-x="696" 
d="M166 700v-130h364v130h66v-130h80v-45h-80v-525h-66v334h-364v-334h-66v525h-80v45h80v130h66zM166 525v-134h364v134h-364z" />
    <glyph glyph-name="hbar" unicode="&#x127;" horiz-adv-x="588" 
d="M105 618h-85v45h85v99h63v-99h226v-45h-226v-105l-4 -105h1q21 53 65 83t98 30q62 0 98 -22t54 -54.5t23 -68t5 -62.5v-314h-63v316q0 11 -1.5 36.5t-12.5 51t-36 45t-72 19.5q-36 0 -64.5 -14.5t-48 -38t-30.5 -54t-12 -62.5v-299h-63v618z" />
    <glyph glyph-name="Imacron" unicode="&#x12a;" horiz-adv-x="266" 
d="M166 700v-700h-66v700h66zM265 834v-60h-262v60h262z" />
    <glyph glyph-name="imacron" unicode="&#x12b;" horiz-adv-x="223" 
d="M143 513v-513h-63v513h63zM239 714v-54h-252v54h252z" />
    <glyph glyph-name="Iogonek" unicode="&#x12e;" horiz-adv-x="266" 
d="M166 700v-700q-13 -7 -26 -19t-23 -26.5t-16.5 -29.5t-6.5 -27q0 -5 1 -12t4.5 -13.5t9.5 -11.5t21 -8q14 0 24 3t27 15l21 -39q-17 -14 -37.5 -21t-39.5 -6q-35 0 -58 24.5t-23 66.5q0 6 1 15.5t6.5 23t17 30t31.5 35.5v700h66z" />
    <glyph glyph-name="iogonek" unicode="&#x12f;" horiz-adv-x="229" 
d="M146 513v-508q-21 -21 -34.5 -36t-22 -27.5t-11.5 -23t-3 -21.5q0 -5 1 -13t4.5 -14.5t10.5 -11.5t20 -5q7 0 20.5 3.5t30.5 15.5l21 -39q-17 -13 -37.5 -19.5t-39.5 -8.5q-35 0 -58 23t-23 67q0 8 1.5 19t7.5 24.5t17.5 29t31.5 33.5v512h63zM149 720v-80h-69v80h69z
" />
    <glyph glyph-name="Idotaccent" unicode="&#x130;" horiz-adv-x="266" 
d="M166 700v-700h-66v700h66zM174 846v-86h-82v86h82z" />
    <glyph glyph-name="dotlessi" unicode="&#x131;" horiz-adv-x="223" 
d="M143 513v-513h-63v513h63z" />
    <glyph glyph-name="Jcircumflex" unicode="&#x134;" horiz-adv-x="351" 
d="M251 700v-525q0 -94 -42 -138.5t-120 -44.5q-38 0 -74 10v60q32 -13 73 -13q45 0 71 29.5t26 96.5v525h66zM140 750h-70l102 120h96l102 -120h-70l-80 86z" />
    <glyph glyph-name="jcircumflex" unicode="&#x135;" horiz-adv-x="229" 
d="M146 -74q0 -20 -3 -45t-14 -47t-34 -37t-63 -15q-15 0 -29.5 1.5t-29.5 6.5v51q12 -4 24 -5t24 -1q10 0 21 2.5t20 11t15 25.5t6 46v593h63v-587zM32 610h-66l111 133h76l110 -133h-65l-83 99z" />
    <glyph glyph-name="Kcommaaccent" unicode="&#x136;" horiz-adv-x="632" 
d="M166 700v-283v-40h1l24 25l299 298h84l-340 -331l378 -369h-93l-335 335l-17 19l-1 -1v-33v-320h-66v700h66zM350 -50l-60 -170h-56l40 170h76z" />
    <glyph glyph-name="kcommaaccent" unicode="&#x137;" horiz-adv-x="509" 
d="M143 762v-475h5l233 226h82l-253 -237l279 -276h-89l-252 252h-5v-252h-63v762h63zM273 -50l-60 -170h-50l40 170h70z" />
    <glyph glyph-name="Lacute" unicode="&#x139;" horiz-adv-x="472" 
d="M166 700v-643h286v-57h-352v700h66zM318 870l-120 -120h-60l80 120h100z" />
    <glyph glyph-name="lacute" unicode="&#x13a;" horiz-adv-x="223" 
d="M143 762v-762h-63v762h63zM245 920l-134 -130h-50l90 130h94z" />
    <glyph glyph-name="Lcommaaccent" unicode="&#x13b;" horiz-adv-x="472" 
d="M166 700v-643h286v-57h-352v700h66zM310 -50l-60 -170h-56l40 170h76z" />
    <glyph glyph-name="lcommaaccent" unicode="&#x13c;" horiz-adv-x="223" 
d="M143 762v-762h-63v762h63zM168 -50l-60 -170h-50l40 170h70z" />
    <glyph glyph-name="Lcaron" unicode="&#x13d;" horiz-adv-x="472" 
d="M166 700v-643h286v-57h-352v700h66zM405 700l-62 -180h-54l40 180h76z" />
    <glyph glyph-name="lcaron" unicode="&#x13e;" horiz-adv-x="253" 
d="M143 762v-762h-63v762h63zM276 762l-60 -168h-50l40 168h70z" />
    <glyph glyph-name="Ldot" unicode="&#x13f;" horiz-adv-x="472" 
d="M166 700v-643h286v-57h-352v700h66zM416 414v-86h-82v86h82z" />
    <glyph glyph-name="ldot" unicode="&#x140;" horiz-adv-x="327" 
d="M143 762v-762h-63v762h63zM317 444v-86h-82v86h82z" />
    <glyph glyph-name="Lslash" unicode="&#x141;" horiz-adv-x="472" 
d="M166 700v-336l111 114l32 -32l-143 -144v-245h286v-57h-352v252l-55 -53l-32 32l87 83v386h66z" />
    <glyph glyph-name="lslash" unicode="&#x142;" horiz-adv-x="293" 
d="M178 762v-329l83 80l32 -32l-115 -110v-371h-63v323l-83 -80l-32 32l115 110v377h63z" />
    <glyph glyph-name="Nacute" unicode="&#x143;" horiz-adv-x="723" 
d="M185 700l341 -566l31 -64h2l-2 81v549h66v-700h-85l-336 555l-37 75h-3l4 -81v-549h-66v700h85zM444 870l-120 -120h-60l80 120h100z" />
    <glyph glyph-name="nacute" unicode="&#x144;" horiz-adv-x="566" 
d="M83 0v395l-3 118h56v-106h2q9 22 24 42.5t36 36.5t48 25.5t60 9.5q62 0 98 -20.5t54 -51t23 -65.5t5 -65v-319h-63v316q0 24 -2 50.5t-13.5 49t-37 37.5t-73.5 15q-33 0 -60.5 -13.5t-47.5 -37t-31.5 -54t-11.5 -64.5v-299h-63zM402 740l-134 -130h-50l90 130h94z" />
    <glyph glyph-name="Ncommaaccent" unicode="&#x145;" horiz-adv-x="723" 
d="M185 700l341 -566l31 -64h2l-2 81v549h66v-700h-85l-336 555l-37 75h-3l4 -81v-549h-66v700h85zM400 -50l-60 -170h-50l40 170h70z" />
    <glyph glyph-name="ncommaaccent" unicode="&#x146;" horiz-adv-x="566" 
d="M83 0v395l-3 118h56v-106h2q9 22 24 42.5t36 36.5t48 25.5t60 9.5q62 0 98 -20.5t54 -51t23 -65.5t5 -65v-319h-63v316q0 24 -2 50.5t-13.5 49t-37 37.5t-73.5 15q-33 0 -60.5 -13.5t-47.5 -37t-31.5 -54t-11.5 -64.5v-299h-63zM321 -50l-60 -170h-50l40 170h70z" />
    <glyph glyph-name="Ncaron" unicode="&#x147;" horiz-adv-x="723" 
d="M185 700l341 -566l31 -64h2l-2 81v549h66v-700h-85l-336 555l-37 75h-3l4 -81v-549h-66v700h85zM441 870h70l-102 -120h-96l-102 120h70l80 -86z" />
    <glyph glyph-name="ncaron" unicode="&#x148;" horiz-adv-x="566" 
d="M83 0v395l-3 118h56v-106h2q9 22 24 42.5t36 36.5t48 25.5t60 9.5q62 0 98 -20.5t54 -51t23 -65.5t5 -65v-319h-63v316q0 24 -2 50.5t-13.5 49t-37 37.5t-73.5 15q-33 0 -60.5 -13.5t-47.5 -37t-31.5 -54t-11.5 -64.5v-299h-63zM371 740h60l-110 -133h-76l-110 133h60
l88 -99z" />
    <glyph glyph-name="Omacron" unicode="&#x14c;" horiz-adv-x="744" 
d="M55 349q0 70 19.5 135t59 115t99 79.5t139.5 29.5t139.5 -29.5t99 -79.5t59 -115t19.5 -135q0 -87 -24.5 -153.5t-67.5 -111.5t-100.5 -68.5t-124.5 -23.5t-125 23.5t-100.5 68.5t-67 111.5t-24.5 153.5zM126 349q0 -79 21.5 -135.5t56 -93t78.5 -54t90 -17.5t90 17.5
t78.5 54t56 93t21.5 135.5t-21.5 136t-56 94t-78.5 54.5t-90 17.5t-90 -17.5t-78.5 -54.5t-56 -94t-21.5 -136zM503 834v-60h-262v60h262z" />
    <glyph glyph-name="omacron" unicode="&#x14d;" horiz-adv-x="564" 
d="M45 256q0 60 17 109t48 83.5t74.5 53.5t97.5 19t97.5 -19t74.5 -53.5t48 -83.5t17 -109t-17 -108.5t-48 -83t-75 -53.5t-97 -19t-97 19t-75 53.5t-48 83t-17 108.5zM111 256q0 -37 10 -74.5t30.5 -68t53 -49.5t77.5 -19t77.5 19t53 49.5t30.5 68t10 74.5t-10 75
t-30.5 68.5t-53 49.5t-77.5 19t-77.5 -19t-53 -49.5t-30.5 -68.5t-10 -75zM408 714v-54h-252v54h252z" />
    <glyph glyph-name="Obreve" unicode="&#x14e;" horiz-adv-x="744" 
d="M55 349q0 70 19.5 135t59 115t99 79.5t139.5 29.5t139.5 -29.5t99 -79.5t59 -115t19.5 -135q0 -87 -24.5 -153.5t-67.5 -111.5t-100.5 -68.5t-124.5 -23.5t-125 23.5t-100.5 68.5t-67 111.5t-24.5 153.5zM126 349q0 -79 21.5 -135.5t56 -93t78.5 -54t90 -17.5t90 17.5
t78.5 54t56 93t21.5 135.5t-21.5 136t-56 94t-78.5 54.5t-90 17.5t-90 -17.5t-78.5 -54.5t-56 -94t-21.5 -136zM271 870q6 -17 17.5 -28t25.5 -18t29 -9.5t29 -2.5q13 0 28.5 2.5t29.5 9.5t25.5 18t17.5 28h60q-20 -57 -63.5 -86.5t-97.5 -29.5t-97.5 29.5t-63.5 86.5h60z
" />
    <glyph glyph-name="obreve" unicode="&#x14f;" horiz-adv-x="564" 
d="M45 256q0 60 17 109t48 83.5t74.5 53.5t97.5 19t97.5 -19t74.5 -53.5t48 -83.5t17 -109t-17 -108.5t-48 -83t-75 -53.5t-97 -19t-97 19t-75 53.5t-48 83t-17 108.5zM111 256q0 -37 10 -74.5t30.5 -68t53 -49.5t77.5 -19t77.5 19t53 49.5t30.5 68t10 74.5t-10 75
t-30.5 68.5t-53 49.5t-77.5 19t-77.5 -19t-53 -49.5t-30.5 -68.5t-10 -75zM181 740q15 -32 42 -48t63 -16t63 16t42 48h56q-20 -57 -63.5 -86.5t-97.5 -29.5t-97.5 29.5t-63.5 86.5h56z" />
    <glyph glyph-name="Ohungarumlaut" unicode="&#x150;" horiz-adv-x="744" 
d="M55 349q0 70 19.5 135t59 115t99 79.5t139.5 29.5t139.5 -29.5t99 -79.5t59 -115t19.5 -135q0 -87 -24.5 -153.5t-67.5 -111.5t-100.5 -68.5t-124.5 -23.5t-125 23.5t-100.5 68.5t-67 111.5t-24.5 153.5zM126 349q0 -79 21.5 -135.5t56 -93t78.5 -54t90 -17.5t90 17.5
t78.5 54t56 93t21.5 135.5t-21.5 136t-56 94t-78.5 54.5t-90 17.5t-90 -17.5t-78.5 -54.5t-56 -94t-21.5 -136zM403 870l-134 -120h-60l94 120h100zM553 870l-135 -120h-60l95 120h100z" />
    <glyph glyph-name="ohungarumlaut" unicode="&#x151;" horiz-adv-x="564" 
d="M45 256q0 60 17 109t48 83.5t74.5 53.5t97.5 19t97.5 -19t74.5 -53.5t48 -83.5t17 -109t-17 -108.5t-48 -83t-75 -53.5t-97 -19t-97 19t-75 53.5t-48 83t-17 108.5zM111 256q0 -37 10 -74.5t30.5 -68t53 -49.5t77.5 -19t77.5 19t53 49.5t30.5 68t10 74.5t-10 75
t-30.5 68.5t-53 49.5t-77.5 19t-77.5 -19t-53 -49.5t-30.5 -68.5t-10 -75zM498 740l-134 -130h-50l94 130h90zM348 740l-134 -130h-50l94 130h90z" />
    <glyph glyph-name="OE" unicode="&#x152;" horiz-adv-x="1027" 
d="M618 109q-43 -57 -107 -87t-139 -30q-67 0 -125 23.5t-100.5 68.5t-67 111.5t-24.5 153.5q0 70 19.5 135t59 115t99 79.5t139.5 29.5q75 0 138.5 -30t107.5 -88v110h340v-57h-274v-253h261v-57h-261v-276h293v-57h-359v109zM126 349q0 -79 21.5 -135.5t56 -93t78.5 -54
t90 -17.5t90 17.5t78.5 54t56 93t21.5 135.5t-21.5 136t-56 94t-78.5 54.5t-90 17.5t-90 -17.5t-78.5 -54.5t-56 -94t-21.5 -136z" />
    <glyph glyph-name="oe" unicode="&#x153;" horiz-adv-x="926" 
d="M519 238q1 -44 15 -80t39 -62.5t59 -41t74 -14.5q32 0 66 9.5t70 30.5v-58q-35 -16 -71 -23.5t-72 -7.5q-35 0 -67.5 7.5t-60.5 22.5t-50 38t-35 53h-1q-25 -57 -77.5 -88.5t-125.5 -31.5q-53 0 -97 19t-75 53.5t-48 83t-17 108.5t17 109t48 83.5t74.5 53.5t97.5 19
q75 0 126 -32.5t76 -86.5h2q26 62 77.5 90.5t112.5 28.5q50 0 85 -15t58 -39t35.5 -54t18.5 -59t7 -54.5t1 -41.5v-20h-362zM111 256q0 -37 10 -74.5t30.5 -68t53 -49.5t77.5 -19t77.5 19t53 49.5t30.5 68t10 74.5t-10 75t-30.5 68.5t-53 49.5t-77.5 19t-77.5 -19t-53 -49.5
t-30.5 -68.5t-10 -75zM815 291q0 15 -3 45t-16.5 59t-41.5 51t-78 22q-39 0 -68 -15.5t-48.5 -40.5t-29.5 -57t-11 -64h296z" />
    <glyph glyph-name="Racute" unicode="&#x154;" 
d="M100 700h164q116 0 173 -55t57 -155q0 -69 -27 -117t-81 -71l154 -302h-78l-138 284q-14 -2 -29 -3t-31 -1h-98v-280h-66v700zM423 490q0 79 -37.5 116t-121.5 37h-98v-306h98q84 0 121.5 37t37.5 116zM420 870l-120 -120h-60l80 120h100z" />
    <glyph glyph-name="racute" unicode="&#x155;" horiz-adv-x="352" 
d="M84 0v419l-4 94h60v-110h1q4 20 13.5 41t24.5 38t36.5 28t49.5 11t57 -9v-60q-26 10 -55 10q-32 0 -54.5 -16.5t-37 -41t-21.5 -54t-7 -55.5v-295h-63zM298 740l-134 -130h-50l90 130h94z" />
    <glyph glyph-name="Rcommaaccent" unicode="&#x156;" 
d="M100 700h164q116 0 173 -55t57 -155q0 -69 -27 -117t-81 -71l154 -302h-78l-138 284q-14 -2 -29 -3t-31 -1h-98v-280h-66v700zM423 490q0 79 -37.5 116t-121.5 37h-98v-306h98q84 0 121.5 37t37.5 116zM355 -50l-60 -170h-50l40 170h70z" />
    <glyph glyph-name="rcommaaccent" unicode="&#x157;" horiz-adv-x="352" 
d="M84 0v419l-4 94h60v-110h1q4 20 13.5 41t24.5 38t36.5 28t49.5 11t57 -9v-60q-26 10 -55 10q-32 0 -54.5 -16.5t-37 -41t-21.5 -54t-7 -55.5v-295h-63zM153 -50l-60 -170h-50l40 170h70z" />
    <glyph glyph-name="Rcaron" unicode="&#x158;" 
d="M100 700h164q116 0 173 -55t57 -155q0 -69 -27 -117t-81 -71l154 -302h-78l-138 284q-14 -2 -29 -3t-31 -1h-98v-280h-66v700zM423 490q0 79 -37.5 116t-121.5 37h-98v-306h98q84 0 121.5 37t37.5 116zM350 870h70l-102 -120h-96l-102 120h70l80 -86z" />
    <glyph glyph-name="rcaron" unicode="&#x159;" horiz-adv-x="352" 
d="M84 0v419l-4 94h60v-110h1q4 20 13.5 41t24.5 38t36.5 28t49.5 11t57 -9v-60q-26 10 -55 10q-32 0 -54.5 -16.5t-37 -41t-21.5 -54t-7 -55.5v-295h-63zM265 740h60l-110 -133h-76l-110 133h60l88 -99z" />
    <glyph glyph-name="Sacute" unicode="&#x15a;" horiz-adv-x="496" 
d="M213 -8q-85 0 -163 31v68q36 -17 81 -29.5t82 -12.5q25 0 53.5 6.5t52.5 21t40 38t16 56.5q0 31 -11 54.5t-31.5 43t-50 37t-66.5 36.5q-29 15 -57.5 31t-51.5 38t-37.5 51.5t-14.5 71.5q0 29 9.5 59.5t33.5 56t66 42t107 16.5q36 0 73.5 -5.5t78.5 -19.5v-67
q-45 20 -81 27.5t-71 7.5q-48 0 -77 -12.5t-44 -30.5t-19.5 -38t-4.5 -36q0 -24 8.5 -42.5t26.5 -35t45.5 -32.5t65.5 -36q41 -22 73.5 -42.5t55 -44.5t34 -54t11.5 -71q0 -35 -13 -68t-41 -59t-72 -41.5t-107 -15.5zM415 870l-120 -120h-60l80 120h100z" />
    <glyph glyph-name="sacute" unicode="&#x15b;" horiz-adv-x="419" 
d="M185 -8q-34 0 -66.5 5t-68.5 18v62q69 -32 137 -32q53 0 84.5 24t31.5 69q0 25 -8 41t-23 28t-36 21.5t-47 20.5q-25 11 -48.5 23t-42 29t-30 40t-11.5 55q0 30 13 53t36 39t54.5 24.5t68.5 8.5q33 0 62 -6.5t60 -20.5v-58q-29 16 -59.5 24t-65.5 8q-18 0 -37 -3
t-34.5 -11t-25.5 -22t-10 -36q0 -20 6.5 -34t21.5 -26t40.5 -23.5t63.5 -27.5q18 -8 39 -19.5t38.5 -28.5t29 -41.5t11.5 -57.5q0 -26 -10 -52t-32 -47t-57 -34t-85 -13zM379 740l-134 -130h-50l90 130h94z" />
    <glyph glyph-name="Scircumflex" unicode="&#x15c;" horiz-adv-x="496" 
d="M213 -8q-85 0 -163 31v68q36 -17 81 -29.5t82 -12.5q25 0 53.5 6.5t52.5 21t40 38t16 56.5q0 31 -11 54.5t-31.5 43t-50 37t-66.5 36.5q-29 15 -57.5 31t-51.5 38t-37.5 51.5t-14.5 71.5q0 29 9.5 59.5t33.5 56t66 42t107 16.5q36 0 73.5 -5.5t78.5 -19.5v-67
q-45 20 -81 27.5t-71 7.5q-48 0 -77 -12.5t-44 -30.5t-19.5 -38t-4.5 -36q0 -24 8.5 -42.5t26.5 -35t45.5 -32.5t65.5 -36q41 -22 73.5 -42.5t55 -44.5t34 -54t11.5 -71q0 -35 -13 -68t-41 -59t-72 -41.5t-107 -15.5zM185 750h-70l102 120h96l102 -120h-70l-80 86z" />
    <glyph glyph-name="scircumflex" unicode="&#x15d;" horiz-adv-x="419" 
d="M185 -8q-34 0 -66.5 5t-68.5 18v62q69 -32 137 -32q53 0 84.5 24t31.5 69q0 25 -8 41t-23 28t-36 21.5t-47 20.5q-25 11 -48.5 23t-42 29t-30 40t-11.5 55q0 30 13 53t36 39t54.5 24.5t68.5 8.5q33 0 62 -6.5t60 -20.5v-58q-29 16 -59.5 24t-65.5 8q-18 0 -37 -3
t-34.5 -11t-25.5 -22t-10 -36q0 -20 6.5 -34t21.5 -26t40.5 -23.5t63.5 -27.5q18 -8 39 -19.5t38.5 -28.5t29 -41.5t11.5 -57.5q0 -26 -10 -52t-32 -47t-57 -34t-85 -13zM133 610h-60l110 130h76l110 -130h-60l-88 96z" />
    <glyph glyph-name="Scedilla" unicode="&#x15e;" horiz-adv-x="496" 
d="M213 -8q-85 0 -163 31v68q36 -17 81 -29.5t82 -12.5q25 0 53.5 6.5t52.5 21t40 38t16 56.5q0 31 -11 54.5t-31.5 43t-50 37t-66.5 36.5q-29 15 -57.5 31t-51.5 38t-37.5 51.5t-14.5 71.5q0 29 9.5 59.5t33.5 56t66 42t107 16.5q36 0 73.5 -5.5t78.5 -19.5v-67
q-45 20 -81 27.5t-71 7.5q-48 0 -77 -12.5t-44 -30.5t-19.5 -38t-4.5 -36q0 -24 8.5 -42.5t26.5 -35t45.5 -32.5t65.5 -36q41 -22 73.5 -42.5t55 -44.5t34 -54t11.5 -71q0 -35 -13 -68t-41 -59t-72 -41.5t-107 -15.5zM247 12l-3 -42q41 1 65.5 -24t24.5 -61q0 -44 -28.5 -75
t-85.5 -31q-23 0 -40.5 7.5t-32.5 18.5l25 40q13 -9 24.5 -12.5t21.5 -3.5q21 0 36.5 11.5t15.5 36.5q0 23 -14 36.5t-39 13.5h-15q-6 0 -14 -2l8 87h51z" />
    <glyph glyph-name="scedilla" unicode="&#x15f;" horiz-adv-x="419" 
d="M185 -8q-34 0 -66.5 5t-68.5 18v62q69 -32 137 -32q53 0 84.5 24t31.5 69q0 25 -8 41t-23 28t-36 21.5t-47 20.5q-25 11 -48.5 23t-42 29t-30 40t-11.5 55q0 30 13 53t36 39t54.5 24.5t68.5 8.5q33 0 62 -6.5t60 -20.5v-58q-29 16 -59.5 24t-65.5 8q-18 0 -37 -3
t-34.5 -11t-25.5 -22t-10 -36q0 -20 6.5 -34t21.5 -26t40.5 -23.5t63.5 -27.5q18 -8 39 -19.5t38.5 -28.5t29 -41.5t11.5 -57.5q0 -26 -10 -52t-32 -47t-57 -34t-85 -13zM189 -182q-27 0 -43 6.5t-27 14.5l20 32q17 -13 37 -13q13 0 21.5 4t13 10t6 12.5t1.5 12.5
q0 13 -8 27t-34 14h-12t-12 -2l10 74h40l-4 -38q29 -1 50 -19.5t21 -55.5q0 -24 -8.5 -39.5t-21 -24t-26.5 -12t-24 -3.5z" />
    <glyph glyph-name="Scaron" unicode="&#x160;" horiz-adv-x="496" 
d="M213 -8q-85 0 -163 31v68q36 -17 81 -29.5t82 -12.5q25 0 53.5 6.5t52.5 21t40 38t16 56.5q0 31 -11 54.5t-31.5 43t-50 37t-66.5 36.5q-29 15 -57.5 31t-51.5 38t-37.5 51.5t-14.5 71.5q0 29 9.5 59.5t33.5 56t66 42t107 16.5q36 0 73.5 -5.5t78.5 -19.5v-67
q-45 20 -81 27.5t-71 7.5q-48 0 -77 -12.5t-44 -30.5t-19.5 -38t-4.5 -36q0 -24 8.5 -42.5t26.5 -35t45.5 -32.5t65.5 -36q41 -22 73.5 -42.5t55 -44.5t34 -54t11.5 -71q0 -35 -13 -68t-41 -59t-72 -41.5t-107 -15.5zM345 870h70l-102 -120h-96l-102 120h70l80 -86z" />
    <glyph glyph-name="scaron" unicode="&#x161;" horiz-adv-x="419" 
d="M185 -8q-34 0 -66.5 5t-68.5 18v62q69 -32 137 -32q53 0 84.5 24t31.5 69q0 25 -8 41t-23 28t-36 21.5t-47 20.5q-25 11 -48.5 23t-42 29t-30 40t-11.5 55q0 30 13 53t36 39t54.5 24.5t68.5 8.5q33 0 62 -6.5t60 -20.5v-58q-29 16 -59.5 24t-65.5 8q-18 0 -37 -3
t-34.5 -11t-25.5 -22t-10 -36q0 -20 6.5 -34t21.5 -26t40.5 -23.5t63.5 -27.5q18 -8 39 -19.5t38.5 -28.5t29 -41.5t11.5 -57.5q0 -26 -10 -52t-32 -47t-57 -34t-85 -13zM309 740h60l-110 -133h-76l-110 133h60l88 -99z" />
    <glyph glyph-name="Tcedilla" unicode="&#x162;" horiz-adv-x="516" 
d="M501 700v-57h-210v-643h-9l-2 -30q43 1 66.5 -27t23.5 -66q0 -42 -30 -70t-84 -28q-23 1 -40.5 8.5t-32.5 18.5l25 40q13 -9 24.5 -13t21.5 -4q21 0 36.5 11.5t15.5 36.5q0 23 -14 36.5t-39 13.5h-15q-6 0 -14 -2l7 75h-6v643h-210v57h486z" />
    <glyph glyph-name="tcedilla" unicode="&#x163;" horiz-adv-x="334" 
d="M228 -8l-2 -20q29 -1 50.5 -19.5t21.5 -55.5q0 -24 -9 -39.5t-22.5 -24t-29.5 -12t-30 -3.5q-20 0 -34.5 6t-25.5 15l20 32q17 -13 37 -13q26 0 34.5 14t8.5 25q0 13 -8.5 27t-34.5 14h-12q-6 0 -12 -2l10 62q-35 12 -49.5 30t-20.5 38t-6.5 40.5t-0.5 34.5v319h-105v53
h105v128l63 23v-151h122v-53h-122v-315q0 -33 4 -52.5t11.5 -30t19 -14t26.5 -3.5q19 0 34 2t30 9v-53q-17 -6 -33.5 -8.5t-39.5 -2.5z" />
    <glyph glyph-name="Tcaron" unicode="&#x164;" horiz-adv-x="516" 
d="M501 700v-57h-210v-643h-66v643h-210v57h486zM338 870h70l-102 -120h-96l-102 120h70l80 -86z" />
    <glyph glyph-name="tcaron" unicode="&#x165;" horiz-adv-x="334" 
d="M176 664v-151h122v-53h-122v-315q0 -33 4 -52.5t11.5 -30t19 -14t26.5 -3.5q19 0 34 2t30 9v-53q-21 -8 -39 -9.5t-32 -1.5q-42 0 -66 15.5t-35 38t-13.5 48.5t-2.5 47v319h-105v53h105v128zM324 762l-60 -168h-50l40 168h70z" />
    <glyph glyph-name="Umacron" unicode="&#x16a;" horiz-adv-x="712" 
d="M166 235q0 -55 18.5 -91t47 -57t62 -29.5t62.5 -8.5t62.5 8.5t62 29.5t47 57t18.5 91v465h66v-467q0 -56 -18 -100.5t-51.5 -75.5t-81 -48t-105.5 -17t-105.5 17t-81 48t-51.5 75.5t-18 100.5v467h66v-465zM487 834v-60h-262v60h262z" />
    <glyph glyph-name="umacron" unicode="&#x16b;" horiz-adv-x="558" 
d="M143 513v-337q0 -16 3 -38.5t14 -43t33.5 -35t61.5 -14.5q32 0 60.5 12.5t49.5 35.5t33.5 54t12.5 69v297h63v-396l4 -117h-59v102h-1q-20 -50 -62.5 -80t-100.5 -30q-26 0 -56.5 6.5t-56.5 26.5t-44 57t-18 99v332h63zM405 714v-54h-252v54h252z" />
    <glyph glyph-name="Ubreve" unicode="&#x16c;" horiz-adv-x="712" 
d="M166 235q0 -55 18.5 -91t47 -57t62 -29.5t62.5 -8.5t62.5 8.5t62 29.5t47 57t18.5 91v465h66v-467q0 -56 -18 -100.5t-51.5 -75.5t-81 -48t-105.5 -17t-105.5 17t-81 48t-51.5 75.5t-18 100.5v467h66v-465zM255 870q6 -17 17.5 -28t25.5 -18t29 -9.5t29 -2.5
q13 0 28.5 2.5t29.5 9.5t25.5 18t17.5 28h60q-20 -57 -63.5 -86.5t-97.5 -29.5t-97.5 29.5t-63.5 86.5h60z" />
    <glyph glyph-name="ubreve" unicode="&#x16d;" horiz-adv-x="558" 
d="M143 513v-337q0 -16 3 -38.5t14 -43t33.5 -35t61.5 -14.5q32 0 60.5 12.5t49.5 35.5t33.5 54t12.5 69v297h63v-396l4 -117h-59v102h-1q-20 -50 -62.5 -80t-100.5 -30q-26 0 -56.5 6.5t-56.5 26.5t-44 57t-18 99v332h63zM176 740q15 -32 42 -48t63 -16t63 16t42 48h56
q-20 -57 -63.5 -86.5t-97.5 -29.5t-97.5 29.5t-63.5 86.5h56z" />
    <glyph glyph-name="Uring" unicode="&#x16e;" horiz-adv-x="712" 
d="M166 235q0 -55 18.5 -91t47 -57t62 -29.5t62.5 -8.5t62.5 8.5t62 29.5t47 57t18.5 91v465h66v-467q0 -56 -18 -100.5t-51.5 -75.5t-81 -48t-105.5 -17t-105.5 17t-81 48t-51.5 75.5t-18 100.5v467h66v-465zM260 814q0 40 28 68t68 28t68 -28t28 -68t-28 -68t-68 -28
t-68 28t-28 68zM296 814q0 -25 17.5 -42.5t42.5 -17.5t42.5 17.5t17.5 42.5t-17.5 42.5t-42.5 17.5t-42.5 -17.5t-17.5 -42.5z" />
    <glyph glyph-name="uring" unicode="&#x16f;" horiz-adv-x="558" 
d="M143 513v-337q0 -16 3 -38.5t14 -43t33.5 -35t61.5 -14.5q32 0 60.5 12.5t49.5 35.5t33.5 54t12.5 69v297h63v-396l4 -117h-59v102h-1q-20 -50 -62.5 -80t-100.5 -30q-26 0 -56.5 6.5t-56.5 26.5t-44 57t-18 99v332h63zM219 684q0 -25 17.5 -42.5t42.5 -17.5t42.5 17.5
t17.5 42.5t-17.5 42.5t-42.5 17.5t-42.5 -17.5t-17.5 -42.5zM183 684q0 40 28 68t68 28t68 -28t28 -68t-28 -68t-68 -28t-68 28t-28 68z" />
    <glyph glyph-name="Uhungarumlaut" unicode="&#x170;" horiz-adv-x="712" 
d="M166 235q0 -55 18.5 -91t47 -57t62 -29.5t62.5 -8.5t62.5 8.5t62 29.5t47 57t18.5 91v465h66v-467q0 -56 -18 -100.5t-51.5 -75.5t-81 -48t-105.5 -17t-105.5 17t-81 48t-51.5 75.5t-18 100.5v467h66v-465zM420 870l-134 -120h-60l94 120h100zM570 870l-135 -120h-60
l95 120h100z" />
    <glyph glyph-name="uhungarumlaut" unicode="&#x171;" horiz-adv-x="558" 
d="M143 513v-337q0 -16 3 -38.5t14 -43t33.5 -35t61.5 -14.5q32 0 60.5 12.5t49.5 35.5t33.5 54t12.5 69v297h63v-396l4 -117h-59v102h-1q-20 -50 -62.5 -80t-100.5 -30q-26 0 -56.5 6.5t-56.5 26.5t-44 57t-18 99v332h63zM481 740l-134 -130h-50l94 130h90zM331 740
l-134 -130h-50l94 130h90z" />
    <glyph glyph-name="Uogonek" unicode="&#x172;" horiz-adv-x="712" 
d="M166 235q0 -55 18.5 -91t47 -57t62 -29.5t62.5 -8.5t62.5 8.5t62 29.5t47 57t18.5 91v465h66v-467q0 -57 -18.5 -100.5t-49.5 -73.5t-70.5 -46.5t-82.5 -19.5q-19 -18 -31 -32.5t-19 -26t-10.5 -22t-3.5 -17.5q0 -5 1.5 -12t5 -13.5t10.5 -11.5t19 -5q7 0 20.5 2.5
t30.5 14.5l21 -38q-17 -14 -37.5 -20.5t-39.5 -6.5q-35 0 -58 23t-23 65q0 17 10.5 41.5t43.5 58.5q-41 0 -82.5 15t-74.5 44.5t-53.5 74.5t-20.5 106v467h66v-465z" />
    <glyph glyph-name="uogonek" unicode="&#x173;" horiz-adv-x="558" 
d="M143 513v-337q0 -16 3 -38.5t14 -43t33.5 -35t61.5 -14.5q32 0 60.5 12.5t49.5 35.5t33.5 54t12.5 69v297h63v-396l4 -116q-21 -20 -34.5 -35t-21.5 -27.5t-11 -23t-3 -21.5q0 -5 1 -11.5t4.5 -13t10.5 -11.5t20 -5q7 0 20.5 3t30.5 16l21 -40q-17 -15 -37.5 -21
t-39.5 -6q-35 0 -58 22.5t-23 64.5q0 6 1 17t7 25t18.5 31t34.5 35v102h-1q-20 -50 -62.5 -80t-100.5 -30q-26 0 -56.5 6.5t-56.5 26.5t-44 57t-18 99v332h63z" />
    <glyph glyph-name="Ydieresis" unicode="&#x178;" horiz-adv-x="623" 
d="M87 700l195 -310l24 -41l31 48l195 303h81l-275 -408v-292h-66v292l-262 408h77zM231 844v-80h-69v80h69zM460 844v-80h-69v80h69z" />
    <glyph glyph-name="Zacute" unicode="&#x179;" horiz-adv-x="562" 
d="M497 700v-67l-327 -508l-45 -67l1 -2l67 1h319v-57h-462v62l334 514l44 67l-1 1l-79 -1h-290v57h439zM363 870l-120 -120h-60l80 120h100z" />
    <glyph glyph-name="zacute" unicode="&#x17a;" horiz-adv-x="474" 
d="M416 513v-60l-262 -351l-40 -49h315v-53h-384v52l264 356l41 52h-300v53h366zM329 740l-134 -130h-50l90 130h94z" />
    <glyph glyph-name="Zdotaccent" unicode="&#x17b;" horiz-adv-x="562" 
d="M497 700v-67l-327 -508l-45 -67l1 -2l67 1h319v-57h-462v62l334 514l44 67l-1 1l-79 -1h-290v57h439zM322 846v-86h-82v86h82z" />
    <glyph glyph-name="zdotaccent" unicode="&#x17c;" horiz-adv-x="474" 
d="M416 513v-60l-262 -351l-40 -49h315v-53h-384v52l264 356l41 52h-300v53h366zM271 720v-80h-69v80h69z" />
    <glyph glyph-name="Zcaron" unicode="&#x17d;" horiz-adv-x="562" 
d="M497 700v-67l-327 -508l-45 -67l1 -2l67 1h319v-57h-462v62l334 514l44 67l-1 1l-79 -1h-290v57h439zM361 870h70l-102 -120h-96l-102 120h70l80 -86z" />
    <glyph glyph-name="zcaron" unicode="&#x17e;" horiz-adv-x="474" 
d="M416 513v-60l-262 -351l-40 -49h315v-53h-384v52l264 356l41 52h-300v53h366zM325 740h60l-110 -133h-76l-110 133h60l88 -99z" />
    <glyph glyph-name="uni018F" unicode="&#x18f;" horiz-adv-x="740" 
d="M368 -8q-80 0 -138.5 28.5t-97.5 77.5t-58 114t-19 137v22h559q-1 68 -23.5 120.5t-60 88t-87 53.5t-103.5 18q-51 0 -107.5 -14.5t-111.5 -46.5v66q48 25 100.5 38.5t118.5 13.5q67 0 129 -20t110 -63.5t77 -111.5t29 -164q0 -71 -19.5 -135.5t-58.5 -113.5t-98.5 -78.5
t-140.5 -29.5zM368 49q58 0 102.5 21.5t75 58.5t47 84.5t19.5 100.5h-485q0 -52 17 -100t48 -84.5t75.5 -58.5t100.5 -22z" />
    <glyph glyph-name="florin" unicode="&#x192;" 
d="M94 -227q-15 0 -34 2t-40 8l9 51q13 -4 29.5 -6t28.5 -2q40 0 60 21.5t28 66.5l77 440h-106l9 53h106l28 156q12 68 48.5 106.5t105.5 38.5q35 0 67 -9l-9 -51q-27 7 -55 7q-42 0 -64 -23.5t-30 -68.5l-27 -156h121l-9 -53h-122l-77 -440q-5 -30 -15.5 -55.5t-27.5 -44.5
t-42 -30t-59 -11z" />
    <glyph glyph-name="uni01CF" unicode="&#x1cf;" horiz-adv-x="266" 
d="M166 700v-700h-66v700h66zM214 870h70l-102 -120h-96l-102 120h70l80 -86z" />
    <glyph glyph-name="uni01D0" unicode="&#x1d0;" horiz-adv-x="223" 
d="M143 513v-513h-63v513h63zM201 740h60l-110 -133h-76l-110 133h60l88 -99z" />
    <glyph glyph-name="uni01DD" unicode="&#x1dd;" horiz-adv-x="508" 
d="M402 275q1 28 -4.5 51t-12.5 39.5t-13.5 26.5t-8.5 13q-28 37 -65 50t-75 13q-49 0 -85 -10.5t-59 -22.5v58q33 13 71.5 20.5t75.5 7.5q74 0 120 -26t72 -61q18 -24 28 -49.5t15 -50.5t6 -47t1 -39q0 -44 -12.5 -94t-51.5 -94q-61 -68 -159 -68q-19 0 -40.5 3t-43 11
t-42.5 23.5t-38 41.5q-15 22 -23 46.5t-12 49t-5 47.5t-1 41v20h362zM106 222q-1 -25 4.5 -57t19.5 -57q14 -24 41 -43.5t74 -19.5q36 0 66 14t53 45q20 26 28.5 57.5t9.5 60.5h-296z" />
    <glyph glyph-name="Gcaron" unicode="&#x1e6;" horiz-adv-x="711" 
d="M426 -8q-78 0 -145.5 23.5t-117.5 69.5t-79 112.5t-29 152.5q0 82 26 148.5t74 113t116.5 71.5t154.5 25q56 0 100 -11.5t79 -25.5v-65l-27 12t-41.5 15t-52 12.5t-58.5 5.5q-63 0 -117.5 -19t-95 -57t-64 -94.5t-23.5 -130.5q0 -64 20 -119t58.5 -95.5t94 -63.5
t127.5 -23q70 0 139 24v236h-170v57h236v-335q-102 -39 -205 -39zM480 870h70l-102 -120h-96l-102 120h70l80 -86z" />
    <glyph glyph-name="gcaron" unicode="&#x1e7;" horiz-adv-x="568" 
d="M231 -224q-38 0 -69.5 6.5t-66.5 21.5v58q36 -17 73.5 -25t74.5 -8q81 0 129.5 43.5t48.5 130.5v89q-16 -30 -35 -49t-39 -30.5t-41 -16t-40 -4.5q-43 0 -83 14.5t-70.5 46.5t-49 82.5t-18.5 121.5q0 72 18.5 122t49 81.5t70.5 46t83 14.5q57 0 97 -33t62 -81h3v106h56
v-516q0 -15 -2 -37t-10 -46.5t-24 -49t-44 -44t-70.5 -32t-102.5 -12.5zM421 257q0 60 -16 100.5t-39 65t-50.5 35t-49.5 10.5q-23 0 -50 -10.5t-50 -35t-39 -65t-16 -100.5q0 -61 16 -102t39 -65.5t50 -34.5t50 -10q22 0 49.5 10t50.5 34.5t39 65.5t16 102zM354 740h60
l-110 -133h-76l-110 133h60l88 -99z" />
    <glyph glyph-name="Scommaaccent" unicode="&#x218;" horiz-adv-x="496" 
d="M213 -8q-85 0 -163 31v68q36 -17 81 -29.5t82 -12.5q25 0 53.5 6.5t52.5 21t40 38t16 56.5q0 31 -11 54.5t-31.5 43t-50 37t-66.5 36.5q-29 15 -57.5 31t-51.5 38t-37.5 51.5t-14.5 71.5q0 29 9.5 59.5t33.5 56t66 42t107 16.5q36 0 73.5 -5.5t78.5 -19.5v-67
q-45 20 -81 27.5t-71 7.5q-48 0 -77 -12.5t-44 -30.5t-19.5 -38t-4.5 -36q0 -24 8.5 -42.5t26.5 -35t45.5 -32.5t65.5 -36q41 -22 73.5 -42.5t55 -44.5t34 -54t11.5 -71q0 -35 -13 -68t-41 -59t-72 -41.5t-107 -15.5zM258 -50l-60 -170h-56l40 170h76z" />
    <glyph glyph-name="scommaaccent" unicode="&#x219;" horiz-adv-x="419" 
d="M185 -8q-34 0 -66.5 5t-68.5 18v62q69 -32 137 -32q53 0 84.5 24t31.5 69q0 25 -8 41t-23 28t-36 21.5t-47 20.5q-25 11 -48.5 23t-42 29t-30 40t-11.5 55q0 30 13 53t36 39t54.5 24.5t68.5 8.5q33 0 62 -6.5t60 -20.5v-58q-29 16 -59.5 24t-65.5 8q-18 0 -37 -3
t-34.5 -11t-25.5 -22t-10 -36q0 -20 6.5 -34t21.5 -26t40.5 -23.5t63.5 -27.5q18 -8 39 -19.5t38.5 -28.5t29 -41.5t11.5 -57.5q0 -26 -10 -52t-32 -47t-57 -34t-85 -13zM215 -50l-60 -170h-50l40 170h70z" />
    <glyph glyph-name="Tcommaaccent" unicode="&#x21a;" horiz-adv-x="516" 
d="M501 700v-57h-210v-643h-66v643h-210v57h486zM295 -50l-60 -170h-50l40 170h70z" />
    <glyph glyph-name="tcommaaccent" unicode="&#x21b;" horiz-adv-x="334" 
d="M176 664v-151h122v-53h-122v-315q0 -33 4 -52.5t11.5 -30t19 -14t26.5 -3.5q19 0 34 2t30 9v-53q-21 -8 -39 -9.5t-32 -1.5q-42 0 -66 15.5t-35 38t-13.5 48.5t-2.5 47v319h-105v53h105v128zM270 -50l-60 -170h-50l40 170h70z" />
    <glyph glyph-name="uni0259" unicode="&#x259;" horiz-adv-x="508" 
d="M402 275q1 28 -4.5 51t-12.5 39.5t-13.5 26.5t-8.5 13q-28 37 -65 50t-75 13q-49 0 -85 -10.5t-59 -22.5v58q33 13 71.5 20.5t75.5 7.5q74 0 120 -26t72 -61q18 -24 28 -49.5t15 -50.5t6 -47t1 -39q0 -44 -12.5 -94t-51.5 -94q-61 -68 -159 -68q-19 0 -40.5 3t-43 11
t-42.5 23.5t-38 41.5q-15 22 -23 46.5t-12 49t-5 47.5t-1 41v20h362zM106 222q-1 -25 4.5 -57t19.5 -57q14 -24 41 -43.5t74 -19.5q36 0 66 14t53 45q20 26 28.5 57.5t9.5 60.5h-296z" />
    <glyph glyph-name="afii57929" unicode="&#x2bc;" horiz-adv-x="210" 
d="M160 762l-60 -168h-50l40 168h70z" />
    <glyph glyph-name="circumflex" unicode="&#x2c6;" horiz-adv-x="456" 
d="M140 610h-60l110 130h76l110 -130h-60l-88 96z" />
    <glyph glyph-name="caron" unicode="&#x2c7;" horiz-adv-x="456" 
d="M316 740h60l-110 -133h-76l-110 133h60l88 -99z" />
    <glyph glyph-name="uni02C9" unicode="&#x2c9;" horiz-adv-x="412" 
d="M332 714v-54h-252v54h252z" />
    <glyph glyph-name="breve" unicode="&#x2d8;" horiz-adv-x="482" 
d="M136 740q15 -32 42 -48t63 -16t63 16t42 48h56q-20 -57 -63.5 -86.5t-97.5 -29.5t-97.5 29.5t-63.5 86.5h56z" />
    <glyph glyph-name="dotaccent" unicode="&#x2d9;" horiz-adv-x="269" 
d="M169 720v-80h-69v80h69z" />
    <glyph glyph-name="ring" unicode="&#x2da;" horiz-adv-x="352" 
d="M116 684q0 -25 17.5 -42.5t42.5 -17.5t42.5 17.5t17.5 42.5t-17.5 42.5t-42.5 17.5t-42.5 -17.5t-17.5 -42.5zM80 684q0 40 28 68t68 28t68 -28t28 -68t-28 -68t-68 -28t-68 28t-28 68z" />
    <glyph glyph-name="ogonek" unicode="&#x2db;" horiz-adv-x="260" 
d="M139 -195q-32 0 -50 10.5t-26.5 24.5t-10.5 27t-2 18q0 25 15 56.5t62 68.5l46 -10q-39 -38 -55 -61.5t-16 -46.5q0 -12 5 -20t11.5 -12.5t13.5 -6.5t12 -2q9 0 21.5 5t23.5 13l21 -39q-19 -17 -38 -21t-33 -4z" />
    <glyph glyph-name="tilde" unicode="&#x2dc;" horiz-adv-x="447" 
d="M367 741q2 -32 -17 -56.5t-59 -24.5q-20 0 -37.5 5t-31.5 10q-21 9 -34.5 14.5t-27.5 5.5q-11 0 -24 -7t-18 -28h-38q-2 38 21 61t58 23q19 0 37.5 -5.5t39.5 -13.5q17 -7 29 -11.5t24 -4.5q10 0 23 6t17 26h38z" />
    <glyph glyph-name="hungarumlaut" unicode="&#x2dd;" horiz-adv-x="434" 
d="M384 740l-134 -130h-50l94 130h90zM234 740l-134 -130h-50l94 130h90z" />
    <glyph glyph-name="gravecomb" unicode="&#x300;" horiz-adv-x="2" 
d="M-225 610h-50l-134 130h94z" />
    <glyph glyph-name="acutecomb" unicode="&#x301;" horiz-adv-x="2" 
d="M-120 740l-134 -130h-50l90 130h94z" />
    <glyph glyph-name="uni037E" unicode="&#x37e;" horiz-adv-x="313" 
d="M214 513v-86h-82v86h82zM228 89l-74 -218h-69l55 218h88z" />
    <glyph glyph-name="uni0394" unicode="&#x394;" horiz-adv-x="668" 
d="M28 0l268 700h76l268 -700h-612zM134 70h400l-200 527z" />
    <glyph glyph-name="uni03A9" unicode="&#x3a9;" horiz-adv-x="726" 
d="M263 86q-63 18 -106 52t-69.5 76t-37.5 86.5t-11 82.5q0 60 22 118.5t64 104t102 74t136 28.5t136 -28.5t102 -74t64 -104t22 -118.5q0 -38 -11 -82.5t-37.5 -86.5t-69.5 -76t-106 -52v-29h173l11 68l55 -6l-19 -119h-277v122q48 12 87 36t66.5 57.5t42 76.5t14.5 92
q0 70 -26 120.5t-64 83t-82 48t-81 15.5t-81 -15.5t-82.5 -48t-64 -83t-25.5 -120.5q0 -49 14.5 -92t42 -76.5t66.5 -57.5t87 -36v-122h-277l-19 119l55 6l11 -68h173v29z" />
    <glyph glyph-name="uni03BC" unicode="&#x3bc;" horiz-adv-x="554" 
d="M474 513v-513h-55v102q-5 -16 -14.5 -35.5t-25.5 -36t-40 -27.5t-58 -11q-45 0 -79.5 12t-58.5 45v-268h-63v732h63v-297q0 -23 3 -52.5t16.5 -56t41.5 -44.5t77 -18q41 0 66.5 19.5t39.5 47t19 56.5t5 48v297h63z" />
    <glyph glyph-name="pi" unicode="&#x3c0;" horiz-adv-x="664" 
d="M168 460h-20q-41 0 -62 -18.5t-30 -41.5l-46 26q19 42 55.5 64.5t82.5 22.5h471v-53h-74v-350q0 -11 1.5 -21t8.5 -19t20 -16t36 -11l-14 -51q-19 1 -39 7t-37 19.5t-28 35.5t-11 56v350h-251v-460h-63v460z" />
    <glyph glyph-name="afii10023" unicode="&#x401;" horiz-adv-x="509" 
d="M440 700v-57h-274v-253h261v-57h-261v-276h293v-57h-359v700h340zM174 844v-80h-69v80h69zM403 844v-80h-69v80h69z" />
    <glyph glyph-name="afii10051" unicode="&#x402;" horiz-adv-x="771" 
d="M512 700v-57h-228v-237q40 24 93.5 41t107.5 17q69 0 110 -23.5t62 -57t27.5 -70.5t6.5 -64q0 -47 -6.5 -93t-27.5 -82.5t-59.5 -59t-102.5 -22.5q-23 0 -46.5 3t-46.5 11v59q41 -16 86 -16q47 0 73.5 18.5t39.5 47t16 64t3 70.5q0 20 -4 47.5t-19.5 52t-45.5 41.5
t-82 17q-45 0 -93.5 -15.5t-91.5 -42.5v-349h-66v643h-203v57h497z" />
    <glyph glyph-name="afii10052" unicode="&#x403;" horiz-adv-x="469" 
d="M459 700v-57h-293v-643h-66v700h359zM420 870l-120 -120h-60l80 120h100z" />
    <glyph glyph-name="afii10053" unicode="&#x404;" horiz-adv-x="603" 
d="M405 -8q-81 0 -145.5 24.5t-110 72t-70 116t-24.5 155.5q0 78 25 142t71 110t110.5 71t143.5 25q31 0 54 -1.5t42.5 -5.5t36.5 -9.5t36 -12.5v-63q-25 10 -46 17t-41 11t-40 5.5t-42 1.5q-56 0 -105 -19t-86.5 -53.5t-60.5 -83t-28 -106.5h350v-57h-350
q4 -69 25.5 -121.5t58 -88.5t86.5 -54.5t110 -18.5q53 0 94 9t84 27v-64q-31 -11 -71.5 -20t-106.5 -9z" />
    <glyph glyph-name="afii10054" unicode="&#x405;" horiz-adv-x="496" 
d="M213 -8q-85 0 -163 31v68q36 -17 81 -29.5t82 -12.5q25 0 53.5 6.5t52.5 21t40 38t16 56.5q0 31 -11 54.5t-31.5 43t-50 37t-66.5 36.5q-29 15 -57.5 31t-51.5 38t-37.5 51.5t-14.5 71.5q0 29 9.5 59.5t33.5 56t66 42t107 16.5q36 0 73.5 -5.5t78.5 -19.5v-67
q-45 20 -81 27.5t-71 7.5q-48 0 -77 -12.5t-44 -30.5t-19.5 -38t-4.5 -36q0 -24 8.5 -42.5t26.5 -35t45.5 -32.5t65.5 -36q41 -22 73.5 -42.5t55 -44.5t34 -54t11.5 -71q0 -35 -13 -68t-41 -59t-72 -41.5t-107 -15.5z" />
    <glyph glyph-name="afii10055" unicode="&#x406;" horiz-adv-x="266" 
d="M166 700v-700h-66v700h66z" />
    <glyph glyph-name="afii10056" unicode="&#x407;" horiz-adv-x="266" 
d="M166 700v-700h-66v700h66zM98 844v-80h-66v80h66zM234 844v-80h-66v80h66z" />
    <glyph glyph-name="afii10057" unicode="&#x408;" horiz-adv-x="351" 
d="M251 700v-525q0 -94 -42 -138.5t-120 -44.5q-38 0 -74 10v60q32 -13 73 -13q45 0 71 29.5t26 96.5v525h66z" />
    <glyph glyph-name="afii10058" unicode="&#x409;" horiz-adv-x="989" 
d="M60 -8q-8 0 -15.5 1t-12.5 3q-7 2 -12 4v57q5 -2 12 -4q5 -2 12.5 -3t15.5 -1q18 0 33.5 5.5t28.5 22.5t23.5 49t17.5 85.5t10.5 131.5t3.5 187v170h391v-280h134q52 0 94 -16t72 -44t46 -66.5t16 -83.5t-16 -83.5t-46 -66.5t-72 -44t-94 -16h-200v643h-259v-113
q0 -121 -4.5 -207.5t-14.5 -146.5t-24.5 -96t-35 -55.5t-46.5 -26t-58 -6.5zM859 209q0 71 -42 112.5t-115 41.5h-134v-306h134q73 0 115 41.5t42 110.5z" />
    <glyph glyph-name="afii10059" unicode="&#x40a;" horiz-adv-x="1019" 
d="M166 700v-287h365v287h66v-287h112q10 0 33 -1t50.5 -6.5t57 -18t54 -35.5t40 -58t15.5 -86q0 -41 -15 -78.5t-43 -66t-68 -46t-90 -17.5h-212v356h-365v-356h-66v700h66zM597 57h126q43 0 74 12.5t51.5 33.5t30 47.5t9.5 55.5q0 52 -20 82t-48.5 45t-59.5 19t-52 4h-111
v-299z" />
    <glyph glyph-name="afii10060" unicode="&#x40b;" horiz-adv-x="759" 
d="M501 700v-57h-220v-237q18 11 41 21.5t48 18.5t50.5 13t49.5 5q34 0 71 -7t68 -28t50.5 -59t19.5 -101v-269h-66v254q0 23 -3 50.5t-16.5 51t-42.5 39.5t-81 16q-9 0 -25 -1.5t-39.5 -7.5t-54.5 -18.5t-70 -34.5v-349h-66v643h-200v57h486z" />
    <glyph glyph-name="afii10061" unicode="&#x40c;" horiz-adv-x="632" 
d="M166 700v-283v-40h1l24 25l299 298h84l-340 -331l378 -369h-93l-335 335l-17 19l-1 -1v-33v-320h-66v700h66zM440 870l-120 -120h-60l80 120h100z" />
    <glyph glyph-name="afii10062" unicode="&#x40e;" horiz-adv-x="592" 
d="M94 700l217 -455l189 455h72l-248 -589q-10 -23 -20 -44.5t-24.5 -38t-36 -26.5t-53.5 -10q-18 0 -35 2.5t-35 9.5v56q15 -8 30.5 -9.5t30.5 -1.5q28 0 44.5 18.5t33.5 60.5l17 40l-256 532h74zM456 889q-2 -35 -15.5 -60.5t-35 -42t-50 -24t-59.5 -7.5q-32 0 -60 7.5
t-49.5 24t-35 42t-15.5 60.5l58 6q5 -48 32.5 -68t69.5 -20q44 0 71.5 20t32.5 68z" />
    <glyph glyph-name="afii10145" unicode="&#x40f;" horiz-adv-x="704" 
d="M100 700h66v-643h372v643h66v-700h-219v-152h-66v152h-219v700z" />
    <glyph glyph-name="afii10017" unicode="&#x410;" horiz-adv-x="650" 
d="M282 700h86l267 -700h-72l-72 192h-335l-71 -192h-70zM469 249l-143 385h-2l-146 -385h291z" />
    <glyph glyph-name="afii10018" unicode="&#x411;" horiz-adv-x="574" 
d="M474 700v-57h-308v-249h120q77 0 122 -22.5t68.5 -54t30.5 -65t7 -54.5q0 -48 -16.5 -85t-47.5 -62t-74 -38t-95 -13h-181v700h374zM166 57h102q54 0 88.5 13.5t53.5 34t26 45.5t7 48q0 25 -7.5 50t-27 44.5t-53.5 32t-86 12.5h-103v-280z" />
    <glyph glyph-name="afii10019" unicode="&#x412;" horiz-adv-x="577" 
d="M287 700q55 0 93.5 -14t63.5 -38t36.5 -56t11.5 -68q0 -25 -6 -48.5t-20.5 -44t-37.5 -37.5t-57 -28v-3q31 -6 57 -21t45 -37t29 -49.5t10 -58.5q0 -49 -15 -82.5t-37.5 -55.5t-50.5 -34t-53.5 -17.5t-46 -6.5t-28.5 -1h-181v700h187zM166 390h112q70 0 106.5 38t36.5 95
q0 32 -11 54.5t-30.5 37t-45 21.5t-54.5 7h-114v-253zM166 57h106q22 0 51 3.5t55.5 18t44.5 42t18 75.5q0 33 -12 58.5t-33.5 43t-51.5 26.5t-65 9h-113v-276z" />
    <glyph glyph-name="afii10020" unicode="&#x413;" horiz-adv-x="469" 
d="M459 700v-57h-293v-643h-66v700h359z" />
    <glyph glyph-name="afii10021" unicode="&#x414;" horiz-adv-x="698" 
d="M577 700v-643h81v-209h-66v152h-506v-152h-66v209h59q38 57 58 109t29 106t10 111.5t1 124.5v192h400zM243 643v-143q0 -57 -0.5 -110.5t-8.5 -107.5t-26.5 -109.5t-53.5 -115.5h357v586h-268z" />
    <glyph glyph-name="afii10022" unicode="&#x415;" horiz-adv-x="509" 
d="M440 700v-57h-274v-253h261v-57h-261v-276h293v-57h-359v700h340z" />
    <glyph glyph-name="afii10024" unicode="&#x416;" horiz-adv-x="866" 
d="M466 700v-319h3l282 319h80l-295 -328l328 -372h-95l-300 354h-3v-354h-66v354h-3l-300 -354h-95l328 372l-295 328h80l282 -319h3v319h66z" />
    <glyph glyph-name="afii10025" unicode="&#x417;" horiz-adv-x="508" 
d="M125 394h85q86 0 125 35.5t39 100.5q0 54 -39 87.5t-125 33.5q-43 0 -86.5 -10t-83.5 -27v61q43 16 83 24.5t87 8.5q121 0 178 -49.5t57 -128.5q0 -60 -29.5 -103t-84.5 -58v-2q34 -6 59.5 -22.5t43 -40t26 -52.5t8.5 -62q0 -42 -16 -78.5t-48 -63t-80.5 -41.5
t-113.5 -15q-58 0 -105 13t-85 31v61q39 -21 90.5 -34.5t99.5 -13.5q46 0 81 11.5t58.5 30.5t35.5 44.5t12 54.5q0 67 -45 107t-142 40h-85v57z" />
    <glyph glyph-name="afii10026" unicode="&#x418;" horiz-adv-x="717" 
d="M166 700v-526l-4 -85h3l39 71l338 540h75v-700h-66v526l4 85h-3l-35 -66l-342 -545h-75v700h66z" />
    <glyph glyph-name="afii10027" unicode="&#x419;" horiz-adv-x="717" 
d="M166 700v-526l-4 -85h3l39 71l338 540h75v-700h-66v526l4 85h-3l-35 -66l-342 -545h-75v700h66zM518 889q-2 -35 -15.5 -60.5t-35 -42t-50 -24t-59.5 -7.5q-32 0 -60 7.5t-49.5 24t-35 42t-15.5 60.5l58 6q5 -48 32.5 -68t69.5 -20q44 0 71.5 20t32.5 68z" />
    <glyph glyph-name="afii10028" unicode="&#x41a;" horiz-adv-x="632" 
d="M166 700v-283v-40h1l24 25l299 298h84l-340 -331l378 -369h-93l-335 335l-17 19l-1 -1v-33v-320h-66v700h66z" />
    <glyph glyph-name="afii10029" unicode="&#x41b;" horiz-adv-x="668" 
d="M568 700v-700h-66v643h-259v-113q0 -121 -4.5 -207.5t-14.5 -146.5t-24.5 -96t-35 -55.5t-46.5 -26t-58 -6.5q-8 0 -15.5 1t-12.5 3q-7 2 -12 4v57q5 -2 12 -4q5 -2 12.5 -3t15.5 -1q18 0 33.5 5.5t28.5 22.5t23.5 49t17.5 85.5t10.5 131.5t3.5 187v170h391z" />
    <glyph glyph-name="afii10030" unicode="&#x41c;" horiz-adv-x="814" 
d="M100 700h104l204 -435l203 435h103v-700h-66v640h-2l-206 -440h-66l-206 440h-2v-640h-66v700z" />
    <glyph glyph-name="afii10031" unicode="&#x41d;" horiz-adv-x="696" 
d="M166 700v-309h364v309h66v-700h-66v334h-364v-334h-66v700h66z" />
    <glyph glyph-name="afii10032" unicode="&#x41e;" horiz-adv-x="744" 
d="M55 349q0 70 19.5 135t59 115t99 79.5t139.5 29.5t139.5 -29.5t99 -79.5t59 -115t19.5 -135q0 -87 -24.5 -153.5t-67.5 -111.5t-100.5 -68.5t-124.5 -23.5t-125 23.5t-100.5 68.5t-67 111.5t-24.5 153.5zM126 349q0 -79 21.5 -135.5t56 -93t78.5 -54t90 -17.5t90 17.5
t78.5 54t56 93t21.5 135.5t-21.5 136t-56 94t-78.5 54.5t-90 17.5t-90 -17.5t-78.5 -54.5t-56 -94t-21.5 -136z" />
    <glyph glyph-name="afii10033" unicode="&#x41f;" horiz-adv-x="697" 
d="M597 700v-700h-66v643h-365v-643h-66v700h497z" />
    <glyph glyph-name="afii10034" unicode="&#x420;" horiz-adv-x="532" 
d="M100 700h162q116 0 173 -55t57 -155q0 -101 -57 -155.5t-173 -54.5h-96v-280h-66v700zM421 490q0 79 -37.5 116t-121.5 37h-96v-306h96q84 0 121.5 37t37.5 116z" />
    <glyph glyph-name="afii10035" unicode="&#x421;" horiz-adv-x="611" 
d="M405 -8q-81 0 -145.5 24.5t-110 72t-70 116t-24.5 155.5q0 78 25 142t71 110t110.5 71t143.5 25q47 0 89.5 -6.5t80.5 -20.5v-61q-29 9 -52 15t-43 9.5t-38 5t-37 1.5q-60 0 -111 -21.5t-88.5 -60t-58.5 -92t-21 -117.5q0 -75 20 -133t56.5 -97.5t88 -60t114.5 -20.5
q48 0 92.5 7.5t83.5 23.5v-61q-31 -10 -75.5 -18.5t-100.5 -8.5z" />
    <glyph glyph-name="afii10036" unicode="&#x422;" horiz-adv-x="516" 
d="M501 700v-57h-210v-643h-66v643h-210v57h486z" />
    <glyph glyph-name="afii10037" unicode="&#x423;" horiz-adv-x="592" 
d="M94 700l217 -455l189 455h72l-248 -589q-10 -23 -20 -44.5t-24.5 -38t-36 -26.5t-53.5 -10q-18 0 -35 2.5t-35 9.5v56q15 -8 30.5 -9.5t30.5 -1.5q28 0 44.5 18.5t33.5 60.5l17 40l-256 532h74z" />
    <glyph glyph-name="afii10038" unicode="&#x424;" horiz-adv-x="840" 
d="M387 83h-37q-68 0 -122.5 21t-92.5 58.5t-59 88t-21 109.5t21 109.5t59 88t92.5 58.5t122.5 21h37v91h66v-91h37q67 0 122 -21t93 -58.5t59 -88t21 -109.5t-21 -109.5t-59 -88t-93 -58.5t-122 -21h-37v-91h-66v91zM126 360q0 -49 15.5 -89.5t44.5 -69.5t70.5 -45
t93.5 -16h37v440h-37q-52 0 -93.5 -16t-70.5 -45t-44.5 -69.5t-15.5 -89.5zM714 360q0 49 -15.5 89.5t-44.5 69.5t-70.5 45t-93.5 16h-37v-440h37q52 0 93.5 16t70.5 45t44.5 69.5t15.5 89.5z" />
    <glyph glyph-name="afii10039" unicode="&#x425;" horiz-adv-x="643" 
d="M117 700l180 -253l22 -33h1l23 33l179 253h76l-237 -329l262 -371h-82l-181 257l-41 67h-2l-42 -70l-176 -254h-79l258 371l-243 329h82z" />
    <glyph glyph-name="afii10040" unicode="&#x426;" horiz-adv-x="727" 
d="M166 700v-643h372v643h66v-643h83v-209h-66v152h-521v700h66z" />
    <glyph glyph-name="afii10041" unicode="&#x427;" horiz-adv-x="634" 
d="M126 700v-232q0 -48 20.5 -73.5t48.5 -37.5t56.5 -13.5t44.5 -1.5q66 0 132 9l40 5v344h66v-700h-66v299l-40 -4q-35 -4 -70 -7t-70 -3q-79 0 -124.5 19.5t-68.5 48t-29 59.5t-6 55v233h66z" />
    <glyph glyph-name="afii10042" unicode="&#x428;" horiz-adv-x="1030" 
d="M548 700v-643h316v643h66v-700h-830v700h66v-643h316v643h66z" />
    <glyph glyph-name="afii10043" unicode="&#x429;" horiz-adv-x="1045" 
d="M548 700v-643h316v643h66v-643h75v-209h-66v152h-839v700h66v-643h316v643h66z" />
    <glyph glyph-name="afii10044" unicode="&#x42a;" horiz-adv-x="672" 
d="M184 643h-164v57h230v-280h134q52 0 94 -16t72 -44t46 -66.5t16 -83.5t-16 -83.5t-46 -66.5t-72 -44t-94 -16h-200v643zM541 209q0 71 -42 112.5t-115 41.5h-134v-306h134q73 0 115 41.5t42 110.5z" />
    <glyph glyph-name="afii10045" unicode="&#x42b;" horiz-adv-x="806" 
d="M100 700h66v-280h134q52 0 94 -16t72 -44t46 -66.5t16 -83.5t-16 -83.5t-46 -66.5t-72 -44t-94 -16h-200v700zM457 209q0 71 -42 112.5t-115 41.5h-134v-306h134q73 0 115 41.5t42 110.5zM706 700v-700h-66v700h66z" />
    <glyph glyph-name="afii10046" unicode="&#x42c;" horiz-adv-x="588" 
d="M100 700h66v-280h134q52 0 94 -16t72 -44t46 -66.5t16 -83.5t-16 -83.5t-46 -66.5t-72 -44t-94 -16h-200v700zM457 209q0 71 -42 112.5t-115 41.5h-134v-306h134q73 0 115 41.5t42 110.5z" />
    <glyph glyph-name="afii10047" unicode="&#x42d;" horiz-adv-x="633" 
d="M228 -8q-63 0 -104.5 7t-79.5 21v65q23 -10 43 -16.5t41 -11t45 -6.5t55 -2q60 0 110 18.5t86.5 54.5t58 88.5t25.5 121.5h-370v57h370q-4 61 -26 109.5t-58.5 82.5t-86 52t-109.5 18t-105.5 -14t-87.5 -36v65q36 17 83.5 29.5t109.5 12.5q79 0 143.5 -25t110.5 -71
t71 -110t25 -142q0 -84 -26 -152t-72.5 -116t-110.5 -74t-141 -26z" />
    <glyph glyph-name="afii10048" unicode="&#x42e;" horiz-adv-x="973" 
d="M286 391q4 60 25 117t60 101.5t96 71.5t134 27q80 0 139.5 -29.5t99 -79.5t59 -115t19.5 -135q0 -87 -24.5 -153.5t-67.5 -111.5t-100.5 -68.5t-124.5 -23.5q-81 0 -140 29.5t-98 78t-58 110t-20 124.5h-119v-334h-66v700h66v-309h120zM356 349q0 -79 21.5 -135.5t56 -93
t78.5 -54t89 -17.5q46 0 90 17.5t78.5 54t56 93t21.5 135.5t-21.5 136t-56 94t-78.5 54.5t-90 17.5q-45 0 -89 -17.5t-78.5 -54.5t-56 -94t-21.5 -136z" />
    <glyph glyph-name="afii10049" unicode="&#x42f;" horiz-adv-x="590" 
d="M208 293q-66 20 -99 70t-33 127q0 100 57 155t173 55h184v-700h-66v280h-118h-16.5t-16.5 1l-146 -281h-81zM147 490q0 -79 37.5 -116t121.5 -37h118v306h-118q-84 0 -121.5 -37t-37.5 -116z" />
    <glyph glyph-name="afii10065" unicode="&#x430;" horiz-adv-x="518" 
d="M215 -8q-83 0 -126.5 41t-43.5 107q0 37 15 68.5t47 54.5t83.5 36.5t124.5 13.5h57v17q0 72 -30 105t-87 33q-38 0 -78 -9t-77 -28v58q32 14 71 23t84 9q89 0 134.5 -47t45.5 -144v-330h-53v87h-2q-16 -30 -36 -48.5t-42 -29t-44 -14t-43 -3.5zM215 45q74 0 115.5 46.5
t41.5 131.5v37h-57q-58 0 -97 -9t-63 -25t-34 -38t-10 -48q0 -42 28 -68.5t76 -26.5z" />
    <glyph glyph-name="afii10066" unicode="&#x431;" horiz-adv-x="589" 
d="M500 715q-23 -4 -42 -6.5t-37 -4l-36 -3t-40 -3.5q-24 -2 -50.5 -5.5t-53 -13.5t-51 -28.5t-43 -50t-29.5 -79.5t-11 -116v-24h3q22 63 72 101.5t119 38.5q48 0 92 -16t77.5 -49.5t53.5 -84t20 -119.5q0 -70 -22 -119t-57 -80.5t-78.5 -46t-86.5 -14.5q-79 0 -128 33
t-76 87.5t-36.5 124t-9.5 142.5q0 120 25 191.5t67 111t95.5 54t110.5 19.5q21 2 38 3t34 3t36.5 5t43.5 8v-59zM126 252q0 -52 14.5 -91t38.5 -64.5t56 -38.5t67 -13t67 13t56 38.5t38.5 64.5t14.5 91q0 54 -14.5 94.5t-39 67.5t-56.5 40.5t-66 13.5q-35 0 -66.5 -13.5
t-56 -40.5t-39 -67.5t-14.5 -94.5z" />
    <glyph glyph-name="afii10067" unicode="&#x432;" horiz-adv-x="522" 
d="M283 513q40 0 70 -10.5t50 -29t29.5 -43.5t9.5 -53q0 -38 -18.5 -63.5t-52.5 -41.5v-2q43 -9 69.5 -44.5t26.5 -82.5q0 -35 -11.5 -59.5t-28.5 -40.5t-38 -24.5t-40.5 -13t-34.5 -5t-20 -0.5h-214v513h203zM143 293h136q4 0 20 1t34 8.5t32 23.5t14 46q0 13 -4 28.5
t-15 28.5t-30.5 22t-50.5 9h-136v-167zM143 53h146q30 0 51 7.5t34.5 20.5t20 29t6.5 33q0 19 -6.5 36.5t-21 31t-38 21.5t-56.5 8h-136v-187z" />
    <glyph glyph-name="afii10068" unicode="&#x433;" horiz-adv-x="395" 
d="M394 513v-53h-251v-460h-63v513h314z" />
    <glyph glyph-name="afii10069" unicode="&#x434;" horiz-adv-x="582" 
d="M477 513v-460h75v-191h-63v138h-421v-138h-63v191h56q22 33 36.5 63.5t23 62t11.5 65.5t3 73v196h342zM414 53v407h-216v-144q0 -41 -2.5 -74.5t-9.5 -64t-20 -60.5t-33 -64h281z" />
    <glyph glyph-name="afii10070" unicode="&#x435;" horiz-adv-x="508" 
d="M106 238q0 -24 6 -57t24 -63t51.5 -51.5t88.5 -21.5q39 0 77 6.5t76 26.5v-58q-39 -17 -77 -22.5t-77 -5.5q-110 0 -172.5 70t-62.5 203q0 60 16.5 107.5t46 80.5t70.5 50.5t90 17.5q48 0 81.5 -13.5t56.5 -35t36 -49.5t20 -57t9 -57.5t2 -50.5v-20h-362zM402 291
q0 15 -3 45t-16.5 59t-41.5 51t-78 22q-39 0 -68 -15.5t-48.5 -40.5t-29.5 -57t-11 -64h296z" />
    <glyph glyph-name="afii10072" unicode="&#x436;" horiz-adv-x="741" 
d="M402 513v-232h3l225 232h77l-235 -239l264 -274h-90l-241 258h-3v-258h-63v258h-3l-241 -258h-90l264 274l-235 239h77l225 -232h3v232h63z" />
    <glyph glyph-name="afii10073" unicode="&#x437;" horiz-adv-x="443" 
d="M130 293h50q64 0 92 24t28 63q0 40 -28 64t-92 24q-37 0 -70 -8.5t-60 -21.5v56q35 14 67 20.5t63 6.5q92 0 137.5 -40t45.5 -101q0 -45 -22 -70.5t-54 -36.5v-3q15 -3 33 -11t33 -23t25 -38.5t10 -57.5q0 -30 -12.5 -57t-37.5 -47.5t-62 -32t-86 -11.5q-28 0 -70.5 7
t-89.5 27v56q35 -20 77 -28.5t83 -8.5q65 0 98.5 28.5t33.5 66.5q0 49 -31 74.5t-111 25.5h-50v53z" />
    <glyph glyph-name="afii10074" unicode="&#x438;" horiz-adv-x="594" 
d="M143 513v-376l-1 -54h3l34 55l265 375h70v-513h-63v376l1 54h-3l-34 -54l-265 -376h-70v513h63z" />
    <glyph glyph-name="afii10075" unicode="&#x439;" horiz-adv-x="594" 
d="M143 513v-376l-1 -54h3l34 55l265 375h70v-513h-63v376l1 54h-3l-34 -54l-265 -376h-70v513h63zM452 724q-2 -35 -15.5 -60.5t-34.5 -42t-48 -24t-57 -7.5t-57 7.5t-48 24t-34.5 42t-15.5 60.5l56 6q5 -49 32 -69.5t67 -20.5q42 0 69 20.5t32 69.5z" />
    <glyph glyph-name="afii10076" unicode="&#x43a;" horiz-adv-x="494" 
d="M143 513v-226h3l235 226h81l-252 -239l279 -274h-89l-254 254h-3v-254h-63v513h63z" />
    <glyph glyph-name="afii10077" unicode="&#x43b;" horiz-adv-x="540" 
d="M52 -8q-10 0 -18 0.5t-14 1.5q-7 1 -13 3v55l10 -4q9 -3 25 -3q19 0 36.5 11t30.5 47t20.5 104t7.5 183v123h323v-513h-63v460h-197v-70q0 -128 -11 -206t-30.5 -120.5t-46.5 -57t-60 -14.5z" />
    <glyph glyph-name="afii10078" unicode="&#x43c;" horiz-adv-x="680" 
d="M80 513h106l155 -308l155 308h104v-513h-64v460h-2l-162 -320h-64l-162 320h-2v-460h-64v513z" />
    <glyph glyph-name="afii10079" unicode="&#x43d;" horiz-adv-x="564" 
d="M143 513v-220h278v220h63v-513h-63v240h-278v-240h-63v513h63z" />
    <glyph glyph-name="afii10080" unicode="&#x43e;" horiz-adv-x="564" 
d="M45 256q0 60 17 109t48 83.5t74.5 53.5t97.5 19t97.5 -19t74.5 -53.5t48 -83.5t17 -109t-17 -108.5t-48 -83t-75 -53.5t-97 -19t-97 19t-75 53.5t-48 83t-17 108.5zM111 256q0 -37 10 -74.5t30.5 -68t53 -49.5t77.5 -19t77.5 19t53 49.5t30.5 68t10 74.5t-10 75
t-30.5 68.5t-53 49.5t-77.5 19t-77.5 -19t-53 -49.5t-30.5 -68.5t-10 -75z" />
    <glyph glyph-name="afii10081" unicode="&#x43f;" horiz-adv-x="554" 
d="M474 513v-513h-63v460h-268v-460h-63v513h394z" />
    <glyph glyph-name="afii10082" unicode="&#x440;" horiz-adv-x="568" 
d="M84 -219v633l-4 99h60v-106h3q6 18 18 38t30.5 37t45.5 28t65 11q53 0 94.5 -18.5t69.5 -53t42.5 -83t14.5 -109.5q0 -71 -18.5 -121t-49.5 -82t-70.5 -47t-82.5 -15q-52 0 -91.5 27.5t-62.5 72.5h-3l2 -49v-262h-63zM147 257q0 -61 16 -102t39 -65.5t50 -34.5t50 -10
q22 0 49.5 10t50.5 34.5t39 65.5t16 102q0 60 -16 100.5t-39 65t-50.5 35t-49.5 10.5q-23 0 -50 -10.5t-50 -35t-39 -65t-16 -100.5z" />
    <glyph glyph-name="afii10083" unicode="&#x441;" horiz-adv-x="460" 
d="M311 -8q-60 0 -109.5 19t-84 53.5t-53.5 83t-19 107.5q0 60 19 109.5t53 84t81.5 53.5t104.5 19q17 0 48.5 -3t73.5 -17v-56q-14 5 -46.5 14t-74.5 9t-77.5 -14.5t-61 -42t-40 -67t-14.5 -89.5q0 -49 14.5 -88t40.5 -66t63 -41.5t82 -14.5q27 0 59 6t60 17v-56
q-32 -12 -59.5 -16t-59.5 -4z" />
    <glyph glyph-name="afii10084" unicode="&#x442;" horiz-adv-x="403" 
d="M393 513v-53h-160v-460h-63v460h-160v53h383z" />
    <glyph glyph-name="afii10085" unicode="&#x443;" horiz-adv-x="490" 
d="M60 -155q7 -3 15 -5q7 -2 16 -3t20 -1q33 0 50 22t29 58l24 70l-184 527h67l151 -439h1l146 439h65l-219 -629q-8 -22 -18.5 -41t-25 -33t-34 -22t-46.5 -8q-21 0 -38.5 4.5t-18.5 4.5v56z" />
    <glyph glyph-name="afii10086" unicode="&#x444;" horiz-adv-x="730" 
d="M334 -5q-11 -1 -25 -2t-29 -1q-53 0 -96 17.5t-74 51.5t-48 84t-17 115q0 60 17.5 108.5t49 82.5t74.5 52t94 18q15 0 29 -1t25 -2v244h62v-244q11 1 24.5 2t29.5 1q52 0 95.5 -17.5t74.5 -51t48 -82t17 -110.5q0 -63 -17.5 -113t-49 -84.5t-74.5 -52.5t-94 -18
q-15 0 -29 1t-25 2v-214h-62v214zM619 260q0 108 -46.5 158t-132.5 50q-11 0 -22.5 -0.5t-21.5 -2.5v-417q21 -3 54 -3q78 0 123.5 51t45.5 164zM111 260q0 -113 46.5 -164t132.5 -51q11 0 22.5 0.5t21.5 1.5v418q-11 1 -25 2t-29 1q-78 0 -123.5 -50t-45.5 -158z" />
    <glyph glyph-name="afii10087" unicode="&#x445;" horiz-adv-x="498" 
d="M122 513l97 -149l28 -48h1l28 49l90 148h74l-157 -239l185 -274h-82l-114 185l-25 46h-1l-26 -46l-117 -185h-73l178 274l-166 239h80z" />
    <glyph glyph-name="afii10088" unicode="&#x446;" horiz-adv-x="576" 
d="M143 513v-460h266v460h63v-460h79v-191h-63v138h-408v513h63z" />
    <glyph glyph-name="afii10089" unicode="&#x447;" horiz-adv-x="502" 
d="M103 359q0 -18 4 -35t17.5 -29.5t40.5 -20t74 -7.5q60 0 120 12v234h63v-513h-63v226q-65 -12 -129 -12q-59 0 -96 10.5t-58 28.5t-28.5 42.5t-7.5 53.5v164h63v-154z" />
    <glyph glyph-name="afii10090" unicode="&#x448;" horiz-adv-x="793" 
d="M143 513v-460h222v460h63v-460h222v460h63v-513h-633v513h63z" />
    <glyph glyph-name="afii10091" unicode="&#x449;" horiz-adv-x="811" 
d="M723 0h-643v513h63v-460h222v460h63v-460h222v460h63v-460h73v-191h-63v138z" />
    <glyph glyph-name="afii10092" unicode="&#x44a;" horiz-adv-x="576" 
d="M161 460h-141v53h204v-193h118q105 0 152.5 -42.5t47.5 -117.5t-47.5 -117.5t-152.5 -42.5h-181v460zM476 160q0 51 -31.5 79t-102.5 28h-118v-214h118q71 0 102.5 28t31.5 79z" />
    <glyph glyph-name="afii10093" unicode="&#x44b;" horiz-adv-x="699" 
d="M619 513v-513h-63v513h63zM80 513h63v-193h118q105 0 152.5 -42.5t47.5 -117.5t-47.5 -117.5t-152.5 -42.5h-181v513zM395 160q0 51 -31.5 79t-102.5 28h-118v-214h118q71 0 102.5 28t31.5 79z" />
    <glyph glyph-name="afii10094" unicode="&#x44c;" horiz-adv-x="495" 
d="M80 513h63v-193h118q105 0 152.5 -42.5t47.5 -117.5t-47.5 -117.5t-152.5 -42.5h-181v513zM395 160q0 51 -31.5 79t-102.5 28h-118v-214h118q71 0 102.5 28t31.5 79z" />
    <glyph glyph-name="afii10095" unicode="&#x44d;" horiz-adv-x="459" 
d="M148 -8q-32 0 -59 4t-59 16v56q28 -11 59.5 -17t58.5 -6q91 0 141.5 45.5t57.5 138.5h-244v53h244q-8 91 -58.5 138.5t-133.5 47.5q-38 0 -70.5 -10t-53.5 -19v58q41 13 67 18.5t58 5.5q59 0 107 -18t81.5 -52.5t51.5 -84t18 -111.5q0 -61 -18 -110t-52 -83t-82.5 -52
t-108.5 -18h-5v0z" />
    <glyph glyph-name="afii10096" unicode="&#x44e;" horiz-adv-x="743" 
d="M224 289q3 46 20 88t46.5 74t72 51t98.5 19q31 0 61.5 -6.5t56.5 -21.5q24 -14 46 -36t38 -52t25.5 -67t9.5 -82q0 -60 -17 -108.5t-48 -83t-75 -53.5t-97 -19q-60 0 -103.5 21t-72.5 55.5t-44 78t-17 89.5h-81v-236h-63v513h63v-224h81zM290 256q0 -37 10 -74.5
t30.5 -68t53 -49.5t77.5 -19t77.5 19t53 49.5t30.5 68t10 74.5t-10 75t-30.5 68.5t-53 49.5t-77.5 19t-77.5 -19t-53 -49.5t-30.5 -68.5t-10 -75z" />
    <glyph glyph-name="afii10097" unicode="&#x44f;" horiz-adv-x="498" 
d="M155 207q-49 17 -72 54.5t-23 91.5q0 75 46 117.5t144 42.5h168v-513h-63v193h-105h-15.5t-15.5 1l-98 -194h-76zM126 353q0 -51 30.5 -79t93.5 -28h105v214h-105q-63 0 -93.5 -28t-30.5 -79z" />
    <glyph glyph-name="afii10071" unicode="&#x451;" horiz-adv-x="508" 
d="M106 238q0 -24 6 -57t24 -63t51.5 -51.5t88.5 -21.5q39 0 77 6.5t76 26.5v-58q-39 -17 -77 -22.5t-77 -5.5q-110 0 -172.5 70t-62.5 203q0 60 16.5 107.5t46 80.5t70.5 50.5t90 17.5q48 0 81.5 -13.5t56.5 -35t36 -49.5t20 -57t9 -57.5t2 -50.5v-20h-362zM402 291
q0 15 -3 45t-16.5 59t-41.5 51t-78 22q-39 0 -68 -15.5t-48.5 -40.5t-29.5 -57t-11 -64h296zM179 720v-80h-69v80h69zM398 720v-80h-69v80h69z" />
    <glyph glyph-name="afii10099" unicode="&#x452;" horiz-adv-x="592" 
d="M104 613h-84v45h84v104h63v-104h212v-45h-212v-100l-3 -105h1q19 48 61 80.5t94 32.5q65 0 103.5 -28.5t58 -71t25 -93t5.5 -93.5q0 -74 -8 -135.5t-28.5 -112t-56.5 -90.5t-92 -70l-23 51q51 27 80 62.5t43.5 79.5t18 97t3.5 116q0 31 -2.5 71.5t-15.5 77t-42 61.5
t-81 25q-30 0 -56 -15t-44.5 -39t-29.5 -54.5t-11 -60.5v-299h-63v613z" />
    <glyph glyph-name="afii10100" unicode="&#x453;" horiz-adv-x="395" 
d="M394 513v-53h-251v-460h-63v513h314zM394 740l-134 -130h-50l90 130h94z" />
    <glyph glyph-name="afii10101" unicode="&#x454;" horiz-adv-x="442" 
d="M301 -8q-60 0 -108.5 18t-82.5 52t-52 83t-18 110q0 62 18 111.5t51.5 84t81.5 52.5t107 18q17 0 49.5 -4.5t70.5 -15.5v-57q-14 5 -45.5 14.5t-73.5 9.5q-82 0 -133 -46.5t-59 -134.5h224v-53h-225q5 -95 55.5 -142t144.5 -47q27 0 58 5t58 19v-59q-30 -9 -61 -13.5
t-55 -4.5h-5z" />
    <glyph glyph-name="afii10102" unicode="&#x455;" horiz-adv-x="419" 
d="M185 -8q-34 0 -66.5 5t-68.5 18v62q69 -32 137 -32q53 0 84.5 24t31.5 69q0 25 -8 41t-23 28t-36 21.5t-47 20.5q-25 11 -48.5 23t-42 29t-30 40t-11.5 55q0 30 13 53t36 39t54.5 24.5t68.5 8.5q33 0 62 -6.5t60 -20.5v-58q-29 16 -59.5 24t-65.5 8q-18 0 -37 -3
t-34.5 -11t-25.5 -22t-10 -36q0 -20 6.5 -34t21.5 -26t40.5 -23.5t63.5 -27.5q18 -8 39 -19.5t38.5 -28.5t29 -41.5t11.5 -57.5q0 -26 -10 -52t-32 -47t-57 -34t-85 -13z" />
    <glyph glyph-name="afii10103" unicode="&#x456;" horiz-adv-x="223" 
d="M143 513v-513h-63v513h63zM146 720v-80h-69v80h69z" />
    <glyph glyph-name="afii10104" unicode="&#x457;" horiz-adv-x="223" 
d="M143 513v-513h-63v513h63zM86 720v-80h-66v80h66zM203 720v-80h-66v80h66z" />
    <glyph glyph-name="afii10105" unicode="&#x458;" horiz-adv-x="223" 
d="M143 -74q0 -20 -3 -45t-14 -47t-34 -37t-63 -15q-15 0 -29.5 1.5t-29.5 6.5v51q12 -4 24 -5t24 -1q10 0 21 2.5t20 11t15 25.5t6 46v593h63v-587zM146 720v-80h-69v80h69z" />
    <glyph glyph-name="afii10106" unicode="&#x459;" horiz-adv-x="812" 
d="M52 -8q-10 0 -18 0.5t-14 1.5q-7 1 -13 3v55l10 -4q9 -3 25 -3q19 0 36.5 11t30.5 47t20.5 104t7.5 183v123h323v-193h118q105 0 152.5 -42.5t47.5 -117.5t-47.5 -117.5t-152.5 -42.5h-181v460h-197v-70q0 -128 -11 -206t-30.5 -120.5t-46.5 -57t-60 -14.5zM712 160
q0 51 -31.5 79t-102.5 28h-118v-214h118q71 0 102.5 28t31.5 79z" />
    <glyph glyph-name="afii10107" unicode="&#x45a;" horiz-adv-x="836" 
d="M143 513v-202h278v202h63v-202h152q38 0 69 -11.5t52.5 -31.5t33 -49t11.5 -63q0 -69 -43 -112.5t-123 -43.5h-215v258h-278v-258h-63v513h63zM484 53h133q16 0 36.5 4t39 15t31 31.5t12.5 52.5q0 15 -5 33t-18 33.5t-36 25.5t-60 10h-133v-205z" />
    <glyph glyph-name="afii10108" unicode="&#x45b;" horiz-adv-x="588" 
d="M105 618h-85v45h85v99h63v-99h226v-45h-226v-105l-4 -105h1q21 53 65 83t98 30q62 0 98 -22t54 -54.5t23 -68t5 -62.5v-314h-63v316q0 11 -1.5 36.5t-12.5 51t-36 45t-72 19.5q-36 0 -64.5 -14.5t-48 -38t-30.5 -54t-12 -62.5v-299h-63v618z" />
    <glyph glyph-name="afii10109" unicode="&#x45c;" horiz-adv-x="494" 
d="M143 513v-226h3l235 226h81l-252 -239l279 -274h-89l-254 254h-3v-254h-63v513h63zM404 740l-134 -130h-50l90 130h94z" />
    <glyph glyph-name="afii10110" unicode="&#x45e;" horiz-adv-x="490" 
d="M60 -155q7 -3 15 -5q7 -2 16 -3t20 -1q33 0 50 22t29 58l24 70l-184 527h67l151 -439h1l146 439h65l-219 -629q-8 -22 -18.5 -41t-25 -33t-34 -22t-46.5 -8q-21 0 -38.5 4.5t-18.5 4.5v56zM400 724q-2 -35 -15.5 -60.5t-34.5 -42t-48 -24t-57 -7.5t-57 7.5t-48 24
t-34.5 42t-15.5 60.5l56 6q5 -49 32 -69.5t67 -20.5q42 0 69 20.5t32 69.5z" />
    <glyph glyph-name="afii10193" unicode="&#x45f;" horiz-adv-x="555" 
d="M309 0v-148h-63v148h-166v513h63v-460h269v460h63v-513h-166z" />
    <glyph glyph-name="afii10146" unicode="&#x462;" horiz-adv-x="652" 
d="M184 572h-164v57h164v101h66v-101h200v-57h-200v-152h134q52 0 94 -16t72 -44t46 -66.5t16 -83.5t-16 -83.5t-46 -66.5t-72 -44t-94 -16h-200v572zM541 209q0 71 -42 112.5t-115 41.5h-134v-306h134q73 0 115 41.5t42 110.5z" />
    <glyph glyph-name="afii10194" unicode="&#x463;" horiz-adv-x="587" 
d="M161 460h-141v53h141v187h63v-187h160v-53h-160v-140h118q105 0 152.5 -42.5t47.5 -117.5t-47.5 -117.5t-152.5 -42.5h-181v460zM476 160q0 51 -31.5 79t-102.5 28h-118v-214h118q71 0 102.5 28t31.5 79z" />
    <glyph glyph-name="afii10147" unicode="&#x472;" horiz-adv-x="744" 
d="M55 349q0 70 19.5 135t59 115t99 79.5t139.5 29.5t139.5 -29.5t99 -79.5t59 -115t19.5 -135q0 -87 -24.5 -153.5t-67.5 -111.5t-100.5 -68.5t-124.5 -23.5t-125 23.5t-100.5 68.5t-67 111.5t-24.5 153.5zM617 391q-2 23 -8.5 51t-18.5 57t-30.5 56.5t-45 48.5t-61.5 34
t-81 13t-81 -13t-61.5 -34t-45 -48.5t-30.5 -56.5t-18.5 -57t-8.5 -51h490zM127 334q1 -78 24.5 -132.5t58.5 -88t78 -49t84 -15.5t84 15.5t78 49t58 88t25 132.5h-490z" />
    <glyph glyph-name="afii10195" unicode="&#x473;" horiz-adv-x="564" 
d="M45 256q0 60 17 109t48 83.5t74.5 53.5t97.5 19t97.5 -19t74.5 -53.5t48 -83.5t17 -109t-17 -108.5t-48 -83t-75 -53.5t-97 -19t-97 19t-75 53.5t-48 83t-17 108.5zM452 293q-3 24 -12.5 54.5t-29 57t-51 45t-77.5 18.5q-47 0 -78 -18.5t-50.5 -45t-29 -57t-12.5 -54.5
h340zM112 240q1 -36 12 -71t32 -62.5t52.5 -44.5t73.5 -17t73 17t52 44.5t32 62.5t13 71h-340z" />
    <glyph glyph-name="afii10148" unicode="&#x474;" horiz-adv-x="720" 
d="M93 700l221 -556l21 -81h2l25 81l163 444q5 15 14.5 35.5t25.5 39t39.5 32t56.5 13.5q11 0 24 -2.5t25 -5.5l-4 -55q-11 4 -20 5t-19 1q-20 0 -33.5 -6.5t-22.5 -16.5t-15 -23t-10 -25l-215 -580h-74l-277 700h73z" />
    <glyph glyph-name="afii10196" unicode="&#x475;" horiz-adv-x="508" 
d="M85 513l140 -419l10 -40h3l10 40l116 327q7 19 15 37t19.5 32t27.5 22.5t39 8.5q5 0 15 -1.5t24 -6.5v-51q-16 7 -34 7q-11 0 -19 -5t-18 -19q-6 -9 -10 -18.5t-8 -20.5l-146 -406h-72l-177 513h65z" />
    <glyph glyph-name="afii10050" unicode="&#x490;" horiz-adv-x="469" 
d="M393 700v140h66v-197h-293v-643h-66v700h293z" />
    <glyph glyph-name="afii10098" unicode="&#x491;" horiz-adv-x="391" 
d="M324 513v120h57v-173h-238v-460h-63v513h244z" />
    <glyph glyph-name="uni0492" unicode="&#x492;" horiz-adv-x="469" 
d="M459 700v-57h-293v-252h200v-45h-200v-346h-66v346h-100v45h100v309h359z" />
    <glyph glyph-name="uni0493" unicode="&#x493;" horiz-adv-x="395" 
d="M394 513v-53h-251v-180h153v-45h-153v-235h-63v235h-80v45h80v233h314z" />
    <glyph glyph-name="uni0494" unicode="&#x494;" horiz-adv-x="653" 
d="M459 700v-57h-293v-237q38 23 85.5 40.5t104.5 17.5q107 0 162 -55.5t55 -168.5q0 -132 -52.5 -190t-150.5 -58q-25 0 -46 4t-40 10v58q23 -8 41.5 -11.5t44.5 -3.5q31 0 55.5 10t41.5 33t26 59t9 89q0 88 -38 127.5t-119 39.5q-49 0 -93.5 -16.5t-85.5 -41.5v-349h-66
v700h359z" />
    <glyph glyph-name="uni0495" unicode="&#x495;" horiz-adv-x="448" 
d="M394 513v-53h-251v-163h42q22 0 42.5 -2t40.5 -8q20 -5 38.5 -14.5t34.5 -23.5q21 -18 34.5 -40t20.5 -46t9.5 -49t2.5 -49q0 -22 -2.5 -47t-10 -49.5t-21 -48.5t-35.5 -45q-34 -32 -74 -43.5t-87 -11.5v53q15 0 35 3t40 11q30 13 50 37q23 27 31 65.5t8 75.5
q0 22 -2.5 43.5t-9.5 41.5q-9 30 -30 52q-11 11 -24.5 19.5t-27.5 13.5q-15 5 -31.5 7t-33.5 2h-40v-244h-63v513h314z" />
    <glyph glyph-name="uni0496" unicode="&#x496;" horiz-adv-x="893" 
d="M466 700v-319h3l282 319h80l-295 -328l275 -315h82v-209h-66v152h-58l-300 354h-3v-354h-66v354h-3l-300 -354h-95l328 372l-295 328h80l282 -319h3v319h66z" />
    <glyph glyph-name="uni0497" unicode="&#x497;" horiz-adv-x="735" 
d="M402 513v-232h3l225 232h77l-235 -239l213 -221h50v-191h-63v138h-26l-241 258h-3v-258h-63v258h-3l-241 -258h-90l264 274l-235 239h77l225 -232h3v232h63z" />
    <glyph glyph-name="uni0498" unicode="&#x498;" horiz-adv-x="508" 
d="M192 -7q-52 2 -94.5 14t-77.5 29v61q39 -21 90.5 -34.5t99.5 -13.5q46 0 81 11.5t58.5 30.5t35.5 44.5t12 54.5q0 67 -45 107t-142 40h-85v57h85q86 0 125 35.5t39 100.5q0 54 -39 87.5t-125 33.5q-43 0 -86.5 -10t-83.5 -27v61q43 16 83 24.5t87 8.5q121 0 178 -49.5
t57 -128.5q0 -60 -29.5 -103t-84.5 -58v-2q34 -6 59.5 -22.5t43 -40t26 -52.5t8.5 -62q0 -77 -52 -130.5t-158 -64.5v-145h-66v143z" />
    <glyph glyph-name="uni0499" unicode="&#x499;" horiz-adv-x="443" 
d="M159 -7q-27 2 -60.5 9.5t-68.5 23.5v56q35 -20 77 -28.5t83 -8.5q65 0 98.5 28.5t33.5 66.5q0 49 -31 74.5t-111 25.5h-50v53h50q64 0 92 24t28 63q0 40 -28 64t-92 24q-37 0 -70 -8.5t-60 -21.5v56q35 14 67 20.5t63 6.5q92 0 137.5 -40t45.5 -101q0 -45 -22 -70.5
t-54 -36.5v-3q15 -3 33 -11t33 -23t25 -38.5t10 -57.5q0 -56 -41.5 -97.5t-124.5 -48.5v-134h-63v133z" />
    <glyph glyph-name="uni049A" unicode="&#x49a;" horiz-adv-x="635" 
d="M166 700v-283v-40h1l24 25l299 298h84l-340 -331l319 -312h82v-209h-66v152h-50l-335 335l-17 19l-1 -1v-33v-320h-66v700h66z" />
    <glyph glyph-name="uni049B" unicode="&#x49b;" horiz-adv-x="489" 
d="M143 513v-226h3l235 226h81l-252 -239l225 -221h54v-191h-63v138h-26l-254 254h-3v-254h-63v513h63z" />
    <glyph glyph-name="uni049C" unicode="&#x49c;" horiz-adv-x="700" 
d="M166 700v-307h104v147h54v-146l256 306h74l-284 -331l310 -369h-80l-276 336v-156h-54v156h-104v-336h-66v700h66z" />
    <glyph glyph-name="uni049D" unicode="&#x49d;" horiz-adv-x="540" 
d="M143 513v-216h53v83h50v-83l190 216h72l-212 -237l239 -276h-80l-209 244v-94h-50v94h-53v-244h-63v513h63z" />
    <glyph glyph-name="uni04A0" unicode="&#x4a0;" horiz-adv-x="716" 
d="M250 700v-283v-40h1l24 25l299 298h84l-340 -331l378 -369h-93l-335 335l-17 19l-1 -1v-33v-320h-66v643h-164v57h230z" />
    <glyph glyph-name="uni04A1" unicode="&#x4a1;" horiz-adv-x="575" 
d="M161 0v460h-141v53h204v-226h3l235 226h81l-252 -239l279 -274h-89l-254 254h-3v-254h-63z" />
    <glyph glyph-name="uni04A2" unicode="&#x4a2;" horiz-adv-x="719" 
d="M166 700v-309h364v309h66v-643h83v-209h-66v152h-83v334h-364v-334h-66v700h66z" />
    <glyph glyph-name="uni04A3" unicode="&#x4a3;" horiz-adv-x="588" 
d="M143 513v-220h278v220h63v-460h79v-191h-63v138h-79v240h-278v-240h-63v513h63z" />
    <glyph glyph-name="uni04A4" unicode="&#x4a4;" horiz-adv-x="899" 
d="M166 700v-309h364v309h359v-57h-293v-643h-66v334h-364v-334h-66v700h66z" />
    <glyph glyph-name="uni04A5" unicode="&#x4a5;" horiz-adv-x="736" 
d="M143 513v-220h278v220h314v-53h-251v-460h-63v240h-278v-240h-63v513h63z" />
    <glyph glyph-name="uni04AA" unicode="&#x4aa;" horiz-adv-x="611" 
d="M362 -6q-71 6 -128 33.5t-97 74.5t-61 112t-21 146q0 78 25 142t71 110t110.5 71t143.5 25q47 0 89.5 -6.5t80.5 -20.5v-61q-29 9 -52 15t-43 9.5t-38 5t-37 1.5q-60 0 -111 -21.5t-88.5 -60t-58.5 -92t-21 -117.5q0 -75 20 -133t56.5 -97.5t88 -60t114.5 -20.5
q48 0 92.5 7.5t83.5 23.5v-61q-28 -9 -66.5 -16.5t-86.5 -9.5v-143h-66v144z" />
    <glyph glyph-name="uni04AB" unicode="&#x4ab;" horiz-adv-x="460" 
d="M259 -4q-49 7 -88.5 29t-67.5 55.5t-43 77.5t-15 97q0 60 19 109.5t53 84t81.5 53.5t104.5 19q17 0 48.5 -3t73.5 -17v-56q-14 5 -46.5 14t-74.5 9t-77.5 -14.5t-61 -42t-40 -67t-14.5 -89.5q0 -49 14.5 -88t40.5 -66t63 -41.5t82 -14.5q27 0 59 6t60 17v-56
q-29 -11 -54.5 -15t-53.5 -5v-132h-63v136z" />
    <glyph glyph-name="uni04AE" unicode="&#x4ae;" horiz-adv-x="623" 
d="M87 700l195 -310l24 -41l31 48l195 303h81l-275 -408v-292h-66v292l-262 408h77z" />
    <glyph glyph-name="uni04AF" unicode="&#x4af;" horiz-adv-x="479" 
d="M93 513l126 -327l20 -72h3l21 73l126 326h60l-178 -453v-279h-63v279l-178 453h63z" />
    <glyph glyph-name="uni04B0" unicode="&#x4b0;" horiz-adv-x="623" 
d="M87 700l195 -310l24 -41l31 48l195 303h81l-275 -408h180v-45h-180v-247h-66v247h-180v45h180l-262 408h77z" />
    <glyph glyph-name="uni04B1" unicode="&#x4b1;" horiz-adv-x="479" 
d="M93 513l126 -327l20 -72h3l21 73l126 326h60l-178 -453v-60h140v-45h-140v-179h-63v179h-140v45h140v60l-178 453h63z" />
    <glyph glyph-name="uni04B2" unicode="&#x4b2;" horiz-adv-x="665" 
d="M117 700l180 -253l22 -33h1l23 33l179 253h76l-237 -329l222 -314h82v-209h-66v152h-58l-181 257l-41 67h-2l-42 -70l-176 -254h-79l258 371l-243 329h82z" />
    <glyph glyph-name="uni04B3" unicode="&#x4b3;" horiz-adv-x="473" 
d="M122 513l97 -149l28 -48h1l28 49l90 148h74l-157 -239l149 -221h41v-191h-63v138h-24l-114 185l-25 46h-1l-26 -46l-117 -185h-73l178 274l-166 239h80z" />
    <glyph glyph-name="uni04B6" unicode="&#x4b6;" horiz-adv-x="657" 
d="M126 700v-232q0 -22 3.5 -40t14.5 -32q13 -19 32 -30t40 -16t42 -6.5t38 -1.5q66 0 132 9l40 5v344h66v-643h83v-209h-66v152h-83v299l-40 -4q-35 -4 -70 -7t-70 -3q-79 0 -124.5 19.5t-68.5 48t-29 59.5t-6 55v233h66z" />
    <glyph glyph-name="uni04B7" unicode="&#x4b7;" horiz-adv-x="526" 
d="M103 359q0 -27 7.5 -46t35.5 -33q11 -5 21.5 -7t21.5 -4q13 -2 25 -2h25q60 0 120 12v234h63v-460h79v-191h-63v138h-79v226q-65 -12 -129 -12q-59 0 -96 10.5t-58 28.5t-28.5 42.5t-7.5 53.5v164h63v-154z" />
    <glyph glyph-name="uni04B8" unicode="&#x4b8;" horiz-adv-x="634" 
d="M126 700v-232q0 -38 14.5 -62.5t37 -39t48 -19.5t48.5 -5v138h54v-138q33 1 68 4t72 10v344h66v-700h-66v299q-33 -5 -68 -8.5t-72 -5.5v-125h-54v125q-30 -1 -67 5t-69.5 25.5t-55 56t-22.5 95.5v233h66z" />
    <glyph glyph-name="uni04B9" unicode="&#x4b9;" horiz-adv-x="502" 
d="M103 359q0 -11 1.5 -26.5t11.5 -30t31.5 -24.5t61.5 -11v93h50v-92q23 0 46 3q14 2 27 4t27 4v234h63v-513h-63v226q-23 -4 -48.5 -6.5t-51.5 -4.5v-85h-50v84q-55 -1 -88.5 12t-51.5 33t-23.5 44.5t-5.5 45.5v164h63v-154z" />
    <glyph glyph-name="uni04BA" unicode="&#x4ba;" horiz-adv-x="644" 
d="M166 700v-294q22 13 40 20.5t41 15.5q28 10 51.5 16t56.5 6q19 0 37.5 -1t37.5 -6t37 -12.5t34 -19.5q22 -17 34.5 -37t19 -40.5t8 -40.5t1.5 -38v-269h-66v254v41.5t-7 37.5q-10 28 -31 46q-24 21 -53 26.5t-52 5.5q-31 0 -54 -5.5t-48 -15.5l-24 -10t-23 -10
q-19 -8 -40 -21v-349h-66v700h66z" />
    <glyph glyph-name="uni04BB" unicode="&#x4bb;" horiz-adv-x="563" 
d="M143 762v-243l-5 -112h2q20 48 62 81t102 33q61 0 97 -20.5t54 -51.5t23 -66t5 -64v-319h-63v316q0 23 -2 49.5t-13.5 49.5t-37 38t-73.5 15q-30 0 -57.5 -13t-48.5 -36t-33 -53.5t-12 -66.5v-299h-63v762h63z" />
    <glyph glyph-name="uni04C0" unicode="&#x4c0;" horiz-adv-x="266" 
d="M166 700v-700h-66v700h66z" />
    <glyph glyph-name="uni04C3" unicode="&#x4c3;" horiz-adv-x="620" 
d="M166 700v-323l324 323h84l-332 -323q25 1 54.5 -1t59 -8.5t57 -17.5t50.5 -26q32 -22 52 -48.5t31 -55.5t14.5 -58.5t3.5 -56.5q0 -20 -2.5 -48t-12 -60.5t-29 -65.5t-52.5 -62q-22 -19 -48 -32.5t-54 -21.5q-35 -10 -76 -13q-9 -1 -17.5 -1.5t-17.5 -0.5l5 57
q62 -1 103 17t66 43q26 26 45.5 71t19.5 117q0 20 -2.5 42t-10 43.5t-21.5 41.5t-38 38t-51.5 28t-54 15t-49.5 6t-38 1h-63v-320h-66v700h66z" />
    <glyph glyph-name="uni04C4" unicode="&#x4c4;" horiz-adv-x="494" 
d="M143 513v-235h3l235 235h81l-243 -239q19 1 40 -1.5t41.5 -7.5t39 -13.5t33.5 -19.5q17 -13 29.5 -29.5t20.5 -35.5q11 -24 15 -49.5t4 -51.5q0 -20 -2 -44t-8.5 -50t-20 -51.5t-35.5 -47.5q-17 -16 -37 -28t-42 -17q-15 -4 -30.5 -5t-30.5 -2q-6 0 -12 -0.5t-12 -0.5v53
q37 1 70.5 8.5t58.5 39.5q3 3 8.5 12.5t11.5 26t10.5 41t4.5 59.5q0 32 -7.5 65.5t-37.5 59.5q-15 13 -34 21t-38 12t-37 5.5t-33 1.5h-46v-225h-63v513h63z" />
    <glyph glyph-name="uni04C7" unicode="&#x4c7;" horiz-adv-x="696" 
d="M166 700v-309h364v309h66v-717q0 -17 -1.5 -36.5t-6.5 -40t-16 -39.5t-29 -34q-20 -17 -47 -25t-59 -8q-11 0 -22 1t-22 3l-33 6l6 58q8 -2 16 -3.5t16 -3.5t16 -3t16 -1q12 0 24 2t23 7q19 9 32 27q14 20 17.5 43.5t3.5 46.5v351h-364v-334h-66v700h66z" />
    <glyph glyph-name="uni04C8" unicode="&#x4c8;" horiz-adv-x="564" 
d="M143 513v-220h278v220h63v-549q0 -62 -19.5 -93t-46.5 -42.5t-56.5 -9t-50.5 8.5v51q15 -5 33.5 -4.5t32.5 0.5q6 0 11 3t10 7q7 6 12 15q3 5 4.5 10.5t3.5 10.5q2 9 2.5 18t0.5 19v282h-278v-240h-63v513h63z" />
    <glyph glyph-name="uni04CF" unicode="&#x4cf;" horiz-adv-x="223" 
d="M143 700v-700h-63v700h63z" />
    <glyph glyph-name="uni04D0" unicode="&#x4d0;" horiz-adv-x="650" 
d="M282 700h86l267 -700h-72l-72 192h-335l-71 -192h-70zM469 249l-143 385h-2l-146 -385h291zM485 889q-2 -35 -15.5 -60.5t-35 -42t-50 -24t-59.5 -7.5q-32 0 -60 7.5t-49.5 24t-35 42t-15.5 60.5l58 6q5 -48 32.5 -68t69.5 -20q44 0 71.5 20t32.5 68z" />
    <glyph glyph-name="uni04D1" unicode="&#x4d1;" horiz-adv-x="518" 
d="M215 -8q-83 0 -126.5 41t-43.5 107q0 37 15 68.5t47 54.5t83.5 36.5t124.5 13.5h57v17q0 72 -30 105t-87 33q-38 0 -78 -9t-77 -28v58q32 14 71 23t84 9q89 0 134.5 -47t45.5 -144v-330h-53v87h-2q-16 -30 -36 -48.5t-42 -29t-44 -14t-43 -3.5zM215 45q74 0 115.5 46.5
t41.5 131.5v37h-57q-58 0 -97 -9t-63 -25t-34 -38t-10 -48q0 -42 28 -68.5t76 -26.5zM410 724q-2 -35 -15.5 -60.5t-34.5 -42t-48 -24t-57 -7.5t-57 7.5t-48 24t-34.5 42t-15.5 60.5l56 6q5 -49 32 -69.5t67 -20.5q42 0 69 20.5t32 69.5z" />
    <glyph glyph-name="uni04D2" unicode="&#x4d2;" horiz-adv-x="650" 
d="M282 700h86l267 -700h-72l-72 192h-335l-71 -192h-70zM469 249l-143 385h-2l-146 -385h291zM245 844v-80h-69v80h69zM474 844v-80h-69v80h69z" />
    <glyph glyph-name="uni04D3" unicode="&#x4d3;" horiz-adv-x="518" 
d="M215 -8q-83 0 -126.5 41t-43.5 107q0 37 15 68.5t47 54.5t83.5 36.5t124.5 13.5h57v17q0 72 -30 105t-87 33q-38 0 -78 -9t-77 -28v58q32 14 71 23t84 9q89 0 134.5 -47t45.5 -144v-330h-53v87h-2q-16 -30 -36 -48.5t-42 -29t-44 -14t-43 -3.5zM215 45q74 0 115.5 46.5
t41.5 131.5v37h-57q-58 0 -97 -9t-63 -25t-34 -38t-10 -48q0 -42 28 -68.5t76 -26.5zM180 720v-80h-69v80h69zM399 720v-80h-69v80h69z" />
    <glyph glyph-name="uni04D4" unicode="&#x4d4;" horiz-adv-x="854" 
d="M835 700v-57h-279l13 -253h247v-57h-243l15 -276h251v-57h-317l-10 193h-304l-118 -193h-75l427 700h393zM508 250l-21 390h-6l-237 -390h264z" />
    <glyph glyph-name="uni04D5" unicode="&#x4d5;" horiz-adv-x="835" 
d="M101 487q32 15 70 24.5t83 9.5q60 0 102 -22.5t56 -73.5h3q26 48 71.5 72t102.5 24q67 0 107 -26.5t61 -66t27 -85.5t6 -85v-9h-355v-9q0 -45 13 -81.5t37 -62.5t57.5 -40t73.5 -14q31 0 65.5 9t71.5 29v-58q-35 -16 -70 -23.5t-69 -7.5q-71 0 -129.5 32t-84.5 92h-2
q-17 -41 -41 -65t-49.5 -37t-50.5 -17t-44 -4q-42 0 -73.5 11.5t-52.5 31.5t-31.5 46.5t-10.5 55.5q0 40 13 68t35 46.5t50.5 28.5t59.5 15t62.5 6t58.5 1h15h33v29q0 14 -2 37.5t-13.5 45.5t-35.5 38t-67 16q-38 0 -77 -9t-76 -32v60zM435 302h289q0 20 -4.5 48.5t-19 54.5
t-41 44.5t-70.5 18.5q-40 0 -68.5 -16.5t-47 -41.5t-27.5 -54t-11 -54zM315 249q-44 0 -81.5 -4.5t-64.5 -16.5t-42.5 -33t-15.5 -54q0 -42 29 -69t72 -27q75 0 117.5 46.5t42.5 131.5v26h-57z" />
    <glyph glyph-name="uni04D6" unicode="&#x4d6;" horiz-adv-x="509" 
d="M440 700v-57h-274v-253h261v-57h-261v-276h293v-57h-359v700h340zM175 870q6 -17 17.5 -28t25.5 -18t29 -9.5t29 -2.5q13 0 28.5 2.5t29.5 9.5t25.5 18t17.5 28h60q-20 -57 -63.5 -86.5t-97.5 -29.5t-97.5 29.5t-63.5 86.5h60z" />
    <glyph glyph-name="uni04D7" unicode="&#x4d7;" horiz-adv-x="508" 
d="M106 238q0 -24 6 -57t24 -63t51.5 -51.5t88.5 -21.5q39 0 77 6.5t76 26.5v-58q-39 -17 -77 -22.5t-77 -5.5q-110 0 -172.5 70t-62.5 203q0 60 16.5 107.5t46 80.5t70.5 50.5t90 17.5q48 0 81.5 -13.5t56.5 -35t36 -49.5t20 -57t9 -57.5t2 -50.5v-20h-362zM402 291
q0 15 -3 45t-16.5 59t-41.5 51t-78 22q-39 0 -68 -15.5t-48.5 -40.5t-29.5 -57t-11 -64h296zM164 740q15 -32 42 -48t63 -16t63 16t42 48h56q-20 -57 -63.5 -86.5t-97.5 -29.5t-97.5 29.5t-63.5 86.5h56z" />
    <glyph glyph-name="uni04D8" unicode="&#x4d8;" horiz-adv-x="740" 
d="M368 -8q-80 0 -138.5 28.5t-97.5 77.5t-58 114t-19 137v22h559q-1 68 -23.5 120.5t-60 88t-87 53.5t-103.5 18q-51 0 -107.5 -14.5t-111.5 -46.5v66q48 25 100.5 38.5t118.5 13.5q67 0 129 -20t110 -63.5t77 -111.5t29 -164q0 -71 -19.5 -135.5t-58.5 -113.5t-98.5 -78.5
t-140.5 -29.5zM368 49q58 0 102.5 21.5t75 58.5t47 84.5t19.5 100.5h-485q0 -52 17 -100t48 -84.5t75.5 -58.5t100.5 -22z" />
    <glyph glyph-name="afii10846" unicode="&#x4d9;" horiz-adv-x="508" 
d="M402 275q1 28 -4.5 51t-12.5 39.5t-13.5 26.5t-8.5 13q-28 37 -65 50t-75 13q-49 0 -85 -10.5t-59 -22.5v58q33 13 71.5 20.5t75.5 7.5q74 0 120 -26t72 -61q18 -24 28 -49.5t15 -50.5t6 -47t1 -39q0 -44 -12.5 -94t-51.5 -94q-61 -68 -159 -68q-19 0 -40.5 3t-43 11
t-42.5 23.5t-38 41.5q-15 22 -23 46.5t-12 49t-5 47.5t-1 41v20h362zM106 222q-1 -25 4.5 -57t19.5 -57q14 -24 41 -43.5t74 -19.5q36 0 66 14t53 45q20 26 28.5 57.5t9.5 60.5h-296z" />
    <glyph glyph-name="uni04DA" unicode="&#x4da;" horiz-adv-x="740" 
d="M270 844v-80h-69v80h69zM499 844v-80h-69v80h69zM368 -8q-80 0 -138.5 28.5t-97.5 77.5t-58 114t-19 137v22h559q-1 68 -23.5 120.5t-60 88t-87 53.5t-103.5 18q-51 0 -107.5 -14.5t-111.5 -46.5v66q48 25 100.5 38.5t118.5 13.5q67 0 129 -20t110 -63.5t77 -111.5
t29 -164q0 -71 -19.5 -135.5t-58.5 -113.5t-98.5 -78.5t-140.5 -29.5zM368 49q58 0 102.5 21.5t75 58.5t47 84.5t19.5 100.5h-485q0 -52 17 -100t48 -84.5t75.5 -58.5t100.5 -22z" />
    <glyph glyph-name="uni04DB" unicode="&#x4db;" horiz-adv-x="508" 
d="M402 275q1 28 -4.5 51t-12.5 39.5t-13.5 26.5t-8.5 13q-28 37 -65 50t-75 13q-49 0 -85 -10.5t-59 -22.5v58q33 13 71.5 20.5t75.5 7.5q74 0 120 -26t72 -61q18 -24 28 -49.5t15 -50.5t6 -47t1 -39q0 -44 -12.5 -94t-51.5 -94q-61 -68 -159 -68q-19 0 -40.5 3t-43 11
t-42.5 23.5t-38 41.5q-15 22 -23 46.5t-12 49t-5 47.5t-1 41v20h362zM106 222q-1 -25 4.5 -57t19.5 -57q14 -24 41 -43.5t74 -19.5q36 0 66 14t53 45q20 26 28.5 57.5t9.5 60.5h-296zM169 720v-80h-69v80h69zM388 720v-80h-69v80h69z" />
    <glyph glyph-name="uni04DC" unicode="&#x4dc;" horiz-adv-x="866" 
d="M466 700v-319h3l282 319h80l-295 -328l328 -372h-95l-300 354h-3v-354h-66v354h-3l-300 -354h-95l328 372l-295 328h80l282 -319h3v319h66zM353 844v-80h-69v80h69zM582 844v-80h-69v80h69z" />
    <glyph glyph-name="uni04DD" unicode="&#x4dd;" horiz-adv-x="741" 
d="M402 513v-232h3l225 232h77l-235 -239l264 -274h-90l-241 258h-3v-258h-63v258h-3l-241 -258h-90l264 274l-235 239h77l225 -232h3v232h63zM295 720v-80h-69v80h69zM514 720v-80h-69v80h69z" />
    <glyph glyph-name="uni04DE" unicode="&#x4de;" horiz-adv-x="508" 
d="M125 394h85q86 0 125 35.5t39 100.5q0 54 -39 87.5t-125 33.5q-43 0 -86.5 -10t-83.5 -27v61q43 16 83 24.5t87 8.5q121 0 178 -49.5t57 -128.5q0 -60 -29.5 -103t-84.5 -58v-2q34 -6 59.5 -22.5t43 -40t26 -52.5t8.5 -62q0 -42 -16 -78.5t-48 -63t-80.5 -41.5
t-113.5 -15q-58 0 -105 13t-85 31v61q39 -21 90.5 -34.5t99.5 -13.5q46 0 81 11.5t58.5 30.5t35.5 44.5t12 54.5q0 67 -45 107t-142 40h-85v57zM174 844v-80h-69v80h69zM403 844v-80h-69v80h69z" />
    <glyph glyph-name="uni04DF" unicode="&#x4df;" horiz-adv-x="443" 
d="M130 293h50q64 0 92 24t28 63q0 40 -28 64t-92 24q-37 0 -70 -8.5t-60 -21.5v56q35 14 67 20.5t63 6.5q92 0 137.5 -40t45.5 -101q0 -45 -22 -70.5t-54 -36.5v-3q15 -3 33 -11t33 -23t25 -38.5t10 -57.5q0 -30 -12.5 -57t-37.5 -47.5t-62 -32t-86 -11.5q-28 0 -70.5 7
t-89.5 27v56q35 -20 77 -28.5t83 -8.5q65 0 98.5 28.5t33.5 66.5q0 49 -31 74.5t-111 25.5h-50v53zM127 720v-80h-69v80h69zM346 720v-80h-69v80h69z" />
    <glyph glyph-name="uni04E2" unicode="&#x4e2;" horiz-adv-x="717" 
d="M166 700v-526l-4 -85h3l39 71l338 540h75v-700h-66v526l4 85h-3l-35 -66l-342 -545h-75v700h66zM489 834v-60h-262v60h262z" />
    <glyph glyph-name="uni04E3" unicode="&#x4e3;" horiz-adv-x="594" 
d="M143 513v-376l-1 -54h3l34 55l265 375h70v-513h-63v376l1 54h-3l-34 -54l-265 -376h-70v513h63zM423 714v-54h-252v54h252z" />
    <glyph glyph-name="uni04E4" unicode="&#x4e4;" horiz-adv-x="717" 
d="M166 700v-526l-4 -85h3l39 71l338 540h75v-700h-66v526l4 85h-3l-35 -66l-342 -545h-75v700h66zM278 844v-80h-69v80h69zM507 844v-80h-69v80h69z" />
    <glyph glyph-name="uni04E5" unicode="&#x4e5;" horiz-adv-x="594" 
d="M143 513v-376l-1 -54h3l34 55l265 375h70v-513h-63v376l1 54h-3l-34 -54l-265 -376h-70v513h63zM222 720v-80h-69v80h69zM441 720v-80h-69v80h69z" />
    <glyph glyph-name="uni04E6" unicode="&#x4e6;" horiz-adv-x="744" 
d="M55 349q0 70 19.5 135t59 115t99 79.5t139.5 29.5t139.5 -29.5t99 -79.5t59 -115t19.5 -135q0 -87 -24.5 -153.5t-67.5 -111.5t-100.5 -68.5t-124.5 -23.5t-125 23.5t-100.5 68.5t-67 111.5t-24.5 153.5zM126 349q0 -79 21.5 -135.5t56 -93t78.5 -54t90 -17.5t90 17.5
t78.5 54t56 93t21.5 135.5t-21.5 136t-56 94t-78.5 54.5t-90 17.5t-90 -17.5t-78.5 -54.5t-56 -94t-21.5 -136zM292 844v-80h-69v80h69zM521 844v-80h-69v80h69z" />
    <glyph glyph-name="uni04E7" unicode="&#x4e7;" horiz-adv-x="564" 
d="M45 256q0 60 17 109t48 83.5t74.5 53.5t97.5 19t97.5 -19t74.5 -53.5t48 -83.5t17 -109t-17 -108.5t-48 -83t-75 -53.5t-97 -19t-97 19t-75 53.5t-48 83t-17 108.5zM111 256q0 -37 10 -74.5t30.5 -68t53 -49.5t77.5 -19t77.5 19t53 49.5t30.5 68t10 74.5t-10 75
t-30.5 68.5t-53 49.5t-77.5 19t-77.5 -19t-53 -49.5t-30.5 -68.5t-10 -75zM207 720v-80h-69v80h69zM426 720v-80h-69v80h69z" />
    <glyph glyph-name="uni04E8" unicode="&#x4e8;" horiz-adv-x="744" 
d="M55 349q0 70 19.5 135t59 115t99 79.5t139.5 29.5t139.5 -29.5t99 -79.5t59 -115t19.5 -135q0 -87 -24.5 -153.5t-67.5 -111.5t-100.5 -68.5t-124.5 -23.5t-125 23.5t-100.5 68.5t-67 111.5t-24.5 153.5zM617 391q-2 23 -8.5 51t-18.5 57t-30.5 56.5t-45 48.5t-61.5 34
t-81 13t-81 -13t-61.5 -34t-45 -48.5t-30.5 -56.5t-18.5 -57t-8.5 -51h490zM127 334q1 -78 24.5 -132.5t58.5 -88t78 -49t84 -15.5t84 15.5t78 49t58 88t25 132.5h-490z" />
    <glyph glyph-name="uni04E9" unicode="&#x4e9;" horiz-adv-x="564" 
d="M45 256q0 60 17 109t48 83.5t74.5 53.5t97.5 19t97.5 -19t74.5 -53.5t48 -83.5t17 -109t-17 -108.5t-48 -83t-75 -53.5t-97 -19t-97 19t-75 53.5t-48 83t-17 108.5zM452 293q-3 24 -12.5 54.5t-29 57t-51 45t-77.5 18.5q-47 0 -78 -18.5t-50.5 -45t-29 -57t-12.5 -54.5
h340zM112 240q1 -36 12 -71t32 -62.5t52.5 -44.5t73.5 -17t73 17t52 44.5t32 62.5t13 71h-340z" />
    <glyph glyph-name="uni04EA" unicode="&#x4ea;" horiz-adv-x="744" 
d="M55 349q0 70 19.5 135t59 115t99 79.5t139.5 29.5t139.5 -29.5t99 -79.5t59 -115t19.5 -135q0 -87 -24.5 -153.5t-67.5 -111.5t-100.5 -68.5t-124.5 -23.5t-125 23.5t-100.5 68.5t-67 111.5t-24.5 153.5zM617 391q-2 23 -8.5 51t-18.5 57t-30.5 56.5t-45 48.5t-61.5 34
t-81 13t-81 -13t-61.5 -34t-45 -48.5t-30.5 -56.5t-18.5 -57t-8.5 -51h490zM127 334q1 -78 24.5 -132.5t58.5 -88t78 -49t84 -15.5t84 15.5t78 49t58 88t25 132.5h-490zM292 844v-80h-69v80h69zM521 844v-80h-69v80h69z" />
    <glyph glyph-name="uni04EB" unicode="&#x4eb;" horiz-adv-x="564" 
d="M45 256q0 60 17 109t48 83.5t74.5 53.5t97.5 19t97.5 -19t74.5 -53.5t48 -83.5t17 -109t-17 -108.5t-48 -83t-75 -53.5t-97 -19t-97 19t-75 53.5t-48 83t-17 108.5zM452 293q-3 24 -12.5 54.5t-29 57t-51 45t-77.5 18.5q-47 0 -78 -18.5t-50.5 -45t-29 -57t-12.5 -54.5
h340zM112 240q1 -36 12 -71t32 -62.5t52.5 -44.5t73.5 -17t73 17t52 44.5t32 62.5t13 71h-340zM207 720v-80h-69v80h69zM426 720v-80h-69v80h69z" />
    <glyph glyph-name="uni04EE" unicode="&#x4ee;" horiz-adv-x="592" 
d="M94 700l217 -455l189 455h72l-248 -589q-10 -23 -20 -44.5t-24.5 -38t-36 -26.5t-53.5 -10q-18 0 -35 2.5t-35 9.5v56q15 -8 30.5 -9.5t30.5 -1.5q28 0 44.5 18.5t33.5 60.5l17 40l-256 532h74zM427 834v-60h-262v60h262z" />
    <glyph glyph-name="uni04EF" unicode="&#x4ef;" horiz-adv-x="490" 
d="M60 -155q7 -3 15 -5q7 -2 16 -3t20 -1q33 0 50 22t29 58l24 70l-184 527h67l151 -439h1l146 439h65l-219 -629q-8 -22 -18.5 -41t-25 -33t-34 -22t-46.5 -8q-21 0 -38.5 4.5t-18.5 4.5v56zM371 714v-54h-252v54h252z" />
    <glyph glyph-name="uni04F0" unicode="&#x4f0;" horiz-adv-x="592" 
d="M94 700l217 -455l189 455h72l-248 -589q-10 -23 -20 -44.5t-24.5 -38t-36 -26.5t-53.5 -10q-18 0 -35 2.5t-35 9.5v56q15 -8 30.5 -9.5t30.5 -1.5q28 0 44.5 18.5t33.5 60.5l17 40l-256 532h74zM216 844v-80h-69v80h69zM445 844v-80h-69v80h69z" />
    <glyph glyph-name="uni04F1" unicode="&#x4f1;" horiz-adv-x="490" 
d="M60 -155q7 -3 15 -5q7 -2 16 -3t20 -1q33 0 50 22t29 58l24 70l-184 527h67l151 -439h1l146 439h65l-219 -629q-8 -22 -18.5 -41t-25 -33t-34 -22t-46.5 -8q-21 0 -38.5 4.5t-18.5 4.5v56zM170 720v-80h-69v80h69zM389 720v-80h-69v80h69z" />
    <glyph glyph-name="uni04F2" unicode="&#x4f2;" horiz-adv-x="592" 
d="M94 700l217 -455l189 455h72l-248 -589q-10 -23 -20 -44.5t-24.5 -38t-36 -26.5t-53.5 -10q-18 0 -35 2.5t-35 9.5v56q15 -8 30.5 -9.5t30.5 -1.5q28 0 44.5 18.5t33.5 60.5l17 40l-256 532h74zM386 870l-134 -120h-60l94 120h100zM536 870l-135 -120h-60l95 120h100z
" />
    <glyph glyph-name="uni04F3" unicode="&#x4f3;" horiz-adv-x="490" 
d="M60 -155q7 -3 15 -5q7 -2 16 -3t20 -1q33 0 50 22t29 58l24 70l-184 527h67l151 -439h1l146 439h65l-219 -629q-8 -22 -18.5 -41t-25 -33t-34 -22t-46.5 -8q-21 0 -38.5 4.5t-18.5 4.5v56zM479 740l-134 -130h-50l94 130h90zM329 740l-134 -130h-50l94 130h90z" />
    <glyph glyph-name="uni04F4" unicode="&#x4f4;" horiz-adv-x="634" 
d="M126 700v-232q0 -48 20.5 -73.5t48.5 -37.5t56.5 -13.5t44.5 -1.5q66 0 132 9l40 5v344h66v-700h-66v299l-40 -4q-35 -4 -70 -7t-70 -3q-79 0 -124.5 19.5t-68.5 48t-29 59.5t-6 55v233h66zM237 844v-80h-69v80h69zM466 844v-80h-69v80h69z" />
    <glyph glyph-name="uni04F5" unicode="&#x4f5;" horiz-adv-x="502" 
d="M103 359q0 -18 4 -35t17.5 -29.5t40.5 -20t74 -7.5q60 0 120 12v234h63v-513h-63v226q-65 -12 -129 -12q-59 0 -96 10.5t-58 28.5t-28.5 42.5t-7.5 53.5v164h63v-154zM176 720v-80h-69v80h69zM395 720v-80h-69v80h69z" />
    <glyph glyph-name="uni04F8" unicode="&#x4f8;" horiz-adv-x="806" 
d="M100 700h66v-280h134q52 0 94 -16t72 -44t46 -66.5t16 -83.5t-16 -83.5t-46 -66.5t-72 -44t-94 -16h-200v700zM457 209q0 71 -42 112.5t-115 41.5h-134v-306h134q73 0 115 41.5t42 110.5zM706 700v-700h-66v700h66zM323 844v-80h-69v80h69zM552 844v-80h-69v80h69z" />
    <glyph glyph-name="uni04F9" unicode="&#x4f9;" horiz-adv-x="699" 
d="M619 513v-513h-63v513h63zM80 513h63v-193h118q105 0 152.5 -42.5t47.5 -117.5t-47.5 -117.5t-152.5 -42.5h-181v513zM395 160q0 51 -31.5 79t-102.5 28h-118v-214h118q71 0 102.5 28t31.5 79zM274 720v-80h-69v80h69zM493 720v-80h-69v80h69z" />
    <glyph glyph-name="uni0531" unicode="&#x531;" horiz-adv-x="737" 
d="M166 240q0 -19 2 -38.5t8.5 -39t18.5 -38t33 -34.5q26 -21 59.5 -31t68.5 -10t68.5 10t59.5 31q21 16 33 34.5t18.5 38t8.5 39t2 38.5v460h66v-462q0 -26 -1.5 -45t-9.5 -42l100 -75v-81l-130 95q-31 -43 -67.5 -63t-62.5 -26q-14 -4 -36.5 -7t-49.5 -3q-38 0 -82 10
t-83 39q-29 22 -46.5 46.5t-27.5 50t-13 51.5t-3 50v462h66v-460z" />
    <glyph glyph-name="uni0532" unicode="&#x532;" horiz-adv-x="683" 
d="M546 465q0 17 -2 35.5t-8.5 37.5t-18.5 37.5t-33 34.5q-26 21 -59.5 31t-68.5 10t-68.5 -10t-59.5 -31q-21 -17 -33 -35t-18.5 -37.5t-8.5 -39t-2 -38.5v-171h457v-57h-457v-232h-66v462q0 24 3.5 50t13 51.5t27 50.5t46.5 46q44 33 87 40.5t79 7.5t79 -7.5t87 -40.5
q28 -21 46 -45.5t27.5 -50t13 -50.5t3.5 -47v-32h-66v30z" />
    <glyph glyph-name="uni0533" unicode="&#x533;" horiz-adv-x="673" 
d="M530 234v-234h-66v232q-38 -11 -79 -17t-76 -6h-8q-85 2 -141.5 36.5t-84.5 91.5q-13 27 -19 57.5t-6 61.5q0 50 16 96q17 45 52 84t89 58q42 15 91 15q51 0 98.5 -16.5t78.5 -49.5q19 -21 30.5 -43t16.5 -45.5t6.5 -48t1.5 -49.5v-166h103v-57h-103zM464 471
q0 53 -11.5 84.5t-26.5 48.5q-22 25 -54 36t-66 11q-17 0 -33.5 -2.5t-32.5 -7.5q-36 -11 -63.5 -35t-43.5 -66q-8 -20 -12 -42t-4 -44q0 -42 13.5 -80t38.5 -61q17 -16 37.5 -25.5t40.5 -14t37.5 -6t29.5 -1.5q30 0 68 4.5t82 18.5v182z" />
    <glyph glyph-name="uni0534" unicode="&#x534;" horiz-adv-x="717" 
d="M552 232v-232h-66v459q0 19 -2 39t-8 39.5t-18.5 37.5t-33.5 35q-26 21 -59.5 31t-68.5 10q-34 0 -68 -10t-60 -30q-21 -16 -33 -35t-18.5 -39t-8.5 -39.5t-2 -37.5v-63h-66v65q0 24 3.5 50t13 51.5t27 50.5t46.5 46q44 33 87 40.5t79 7.5q47 0 87.5 -9.5t78.5 -38.5
q29 -22 46.5 -46.5t27.5 -51t13 -53.5t3 -54v-166h125v-57h-125z" />
    <glyph glyph-name="uni0535" unicode="&#x535;" horiz-adv-x="700" 
d="M166 513h464v-57h-464v-229q0 -32 12 -69t50 -68q26 -21 59.5 -31t68.5 -10t68.5 10t59.5 31q21 16 33 34.5t18.5 37.5t8.5 37.5t2 35.5v18h66v-20q0 -23 -3.5 -47.5t-13 -50t-27.5 -50t-46 -45.5q-44 -33 -87 -40.5t-79 -7.5t-79 7.5t-87 40.5q-29 21 -46.5 46t-27 50.5
t-13 51.5t-3.5 50v462h66v-187z" />
    <glyph glyph-name="uni0536" unicode="&#x536;" horiz-adv-x="731" 
d="M615 -11v32q0 18 -15 21t-31 3h-438v-45h-66v146h66v-44h131q49 23 95.5 57t88.5 82l-1 2q-18 -8 -39 -14t-47 -6q-42 0 -83.5 13.5t-75.5 45.5q-32 31 -52.5 77t-20.5 98q0 54 27 110q12 24 31.5 49t48 45.5t66.5 33.5t86 13q43 0 78 -10.5t63 -28.5t48.5 -41t33.5 -48
q8 -14 18 -43t10 -71q0 -47 -22 -106t-83 -126q-39 -42 -79 -74t-83 -58h230q12 0 30.5 -3.5t32.5 -17.5q13 -13 15.5 -26.5t2.5 -28.5v-6v-31h-66zM565 465q0 38 -12 70.5t-38 58.5q-33 35 -70 46t-67 11q-32 0 -62.5 -10.5t-58.5 -34.5q-31 -27 -47 -63.5t-16 -87.5
q0 -30 8.5 -59t28.5 -56q29 -38 65.5 -51.5t81.5 -13.5q32 0 61.5 5.5t55.5 15.5q40 42 55 88.5t15 80.5z" />
    <glyph glyph-name="uni0537" unicode="&#x537;" horiz-adv-x="502" 
d="M380 -79v49q0 11 -4.5 17t-11.5 9t-15 3.5t-15 0.5h-234v700h66v-187h310v-57h-310v-399h197q6 0 15 -0.5t18.5 -3.5t19 -9t16.5 -16q9 -14 11.5 -32.5t2.5 -36.5v-38h-66z" />
    <glyph glyph-name="uni0538" unicode="&#x538;" horiz-adv-x="688" 
d="M546 465q0 17 -2 35.5t-8.5 37.5t-18.5 37.5t-33 34.5q-26 21 -59.5 31t-68.5 10t-68 -10t-60 -31q-37 -29 -49.5 -64t-12.5 -80l1 -409h452v-57h-519v460q0 25 3 51t13 52t27.5 50.5t46.5 46.5q44 33 87 40.5t79 7.5t79 -7.5t87 -40.5q28 -21 46 -45.5t27.5 -50
t13 -50.5t3.5 -47v-53h-66v51z" />
    <glyph glyph-name="uni0539" unicode="&#x539;" horiz-adv-x="803" 
d="M100 0v433q0 25 2 51.5t10 53t23.5 52t43.5 49.5q46 40 103.5 55t112.5 15q35 0 65.5 -4.5t53.5 -11.5q12 -3 40.5 -14.5t58.5 -36t56 -64.5t34 -101h85v-57h-79v-82v-27q0 -35 -2.5 -69t-16.5 -67q-24 -57 -76 -88t-118 -31h-3q-49 0 -87.5 16t-65.5 45t-41 69t-14 87
q0 16 2.5 35.5t9.5 39.5t19.5 40t32.5 38t41 28.5t42 15.5t41.5 6t39.5 1h17h107q-6 62 -44 101t-87 57q-23 8 -49 12t-53 4q-53 0 -103.5 -15t-83.5 -45q-19 -18 -29.5 -36.5t-15 -37.5t-5.5 -39.5t-1 -41.5v-436h-66zM501 420q-78 0 -114 -40.5t-36 -107.5q0 -57 18 -89
t42.5 -47.5t49 -19t37.5 -3.5q31 0 53 7t36.5 17t23.5 22t14 21q10 21 14 57t4 101v82h-142z" />
    <glyph glyph-name="uni053A" unicode="&#x53a;" horiz-adv-x="656" 
d="M533 456v-226q0 -42 -8.5 -75.5t-30.5 -65.5q-11 -15 -27.5 -32.5t-40.5 -31.5t-56 -23.5t-74 -9.5q-35 0 -63 7.5t-50 19t-38 25.5t-27 27q-30 35 -46.5 83t-16.5 102q0 51 17.5 97.5t46.5 80.5q11 13 27 27t38 25.5t50.5 19t64.5 7.5h168v187h66v-187h98v-57h-98z
M302 457q-17 0 -36 -2.5t-38 -11t-37.5 -23t-33.5 -38.5q-18 -29 -27 -65t-9 -67q0 -36 9.5 -76.5t35.5 -70.5q24 -29 58.5 -41.5t70.5 -12.5q23 0 45.5 4.5t40.5 13.5q31 15 48 36t25.5 43.5t10.5 44t2 37.5v229h-165z" />
    <glyph glyph-name="uni053B" unicode="&#x53b;" horiz-adv-x="631" 
d="M100 0v700h66v-166q35 15 77 24.5t86 9.5q54 0 100 -15t78 -43q44 -39 56.5 -87.5t12.5 -106.5v-81h-66v81q0 22 -1 43t-5.5 40.5t-15 37t-28.5 33.5q-17 15 -37 23t-38.5 12t-35 5t-25.5 1q-53 0 -92.5 -12.5t-65.5 -26.5v-472h-66z" />
    <glyph glyph-name="uni053C" unicode="&#x53c;" horiz-adv-x="440" 
d="M100 0v700h66v-643h254v-57h-320z" />
    <glyph glyph-name="uni053D" unicode="&#x53d;" horiz-adv-x="800" 
d="M166 513h203v-181q0 -10 0.5 -24t4 -29t10 -30.5t18.5 -28.5q20 -22 54.5 -34.5t65.5 -12.5q37 0 74 14.5t59 41.5q20 26 24.5 52.5t4.5 49.5v182h66v-165q0 -54 -13 -95.5t-53 -77.5q-35 -31 -77.5 -45t-84.5 -14q-48 0 -91 15.5t-72 44.5q-19 18 -30 38.5t-17 41.5
t-7.5 43.5t-1.5 45.5v111h-137v-456h-66v700h66v-187z" />
    <glyph glyph-name="uni053E" unicode="&#x53e;" horiz-adv-x="768" 
d="M658 537q0 11 -4 22t-11 17q-9 8 -21 9.5t-23 1.5h-86v-3q33 -14 56.5 -36t39.5 -46t25 -46t14 -36q8 -23 12.5 -52t4.5 -61q0 -56 -18 -114t-63 -109q-36 -40 -88.5 -65.5t-126.5 -26.5h-4q-66 0 -118 22t-93 70q-43 51 -61.5 110.5t-18.5 117.5q0 29 4 56.5t12 51.5
q6 21 17.5 45t28 46.5t40 41.5t53.5 30v4h-96q-23 0 -43.5 12.5t-30.5 29.5q-8 12 -11.5 30.5t-3.5 34.5v6h66q0 -2 -0.5 -4.5t-0.5 -4.5q0 -10 2 -20t7 -17q9 -13 24.5 -15.5t23.5 -2.5h451q20 0 42 -4.5t41 -26.5q24 -29 24 -68h-66zM369 585q-25 0 -50.5 -5t-50 -17.5
t-47 -33.5t-40.5 -53q-13 -23 -20.5 -47t-11.5 -46t-5 -41t-1 -32q1 -57 13 -95.5t26 -61.5q25 -42 70 -72.5t117 -31.5h3q125 0 185 104q22 38 30 77t8 80q-1 69 -16 110.5t-23 55.5q-18 32 -40 53t-46 33.5t-50 17.5t-51 5z" />
    <glyph glyph-name="uni053F" unicode="&#x53f;" horiz-adv-x="670" 
d="M504 0v163q-48 -23 -90 -30.5t-74 -7.5h-8q-22 0 -46 3.5t-48 11t-45.5 18.5t-39.5 28q-9 9 -21 24t-22.5 38t-18 53.5t-7.5 71.5v327h66v-342q0 -19 3 -42t13 -45.5t30 -42t53 -31.5q18 -7 42.5 -11.5t52.5 -4.5q38 0 80 10t80 34v288h66v-513h-66z" />
    <glyph glyph-name="uni0540" unicode="&#x540;" horiz-adv-x="615" 
d="M18 195l355 392q5 5 8.5 10t3.5 14q0 8 -3.5 12.5t-8.5 9.5l-33 33l51 42l57 -63q5 -5 10.5 -14.5t5.5 -23.5q0 -12 -6.5 -24t-14.5 -20l-303 -330l475 -170v-71z" />
    <glyph glyph-name="uni0541" unicode="&#x541;" horiz-adv-x="672" 
d="M510 0q-43 0 -83.5 19.5t-70.5 49.5q-20 -15 -43 -29t-47 -24.5t-48 -17t-46 -6.5h-2q-38 1 -67 18.5t-43 45.5q-10 19 -10 47q0 13 2.5 26t8.5 25q5 10 13.5 21.5t22.5 22t33 17.5t45 7q25 0 50.5 -6t50 -16.5t46.5 -24t40 -28.5q15 11 31.5 25.5t33.5 30.5t32 33.5
t27 34.5q29 42 42.5 87t13.5 87q0 51 -15.5 85t-32.5 54q-31 35 -72.5 51t-85.5 16q-56 0 -104 -23q-32 -16 -52.5 -36.5t-31.5 -43t-15 -44.5t-4 -40q0 -8 0.5 -16t1.5 -14h-68q-1 6 -1 12v12q0 57 23.5 106t62.5 81q35 29 84.5 46t103.5 17q63 0 110.5 -18.5t79.5 -44.5
q15 -13 30.5 -31.5t28 -43t20 -55.5t7.5 -70q0 -58 -16 -103.5t-45 -88.5q-26 -38 -60.5 -75t-79.5 -69q33 -31 66.5 -41.5t65.5 -10.5h31v-57h-64zM311 109q-13 11 -30 21t-34.5 18t-35 12.5t-32.5 4.5q-17 0 -35.5 -7t-28.5 -29q-5 -13 -5 -24q0 -14 5.5 -25t13.5 -17
q10 -8 23 -9.5t19 -1.5q22 0 54.5 11t85.5 46z" />
    <glyph glyph-name="uni0542" unicode="&#x542;" horiz-adv-x="716" 
d="M485 457q0 20 -1.5 40.5t-7.5 40t-18.5 38t-34.5 35.5q-26 20 -59.5 30t-68.5 10q-34 0 -68 -10t-60 -30q-39 -31 -50 -70t-11 -73v-71h-66v71q0 22 3 47t13 50t27 49.5t46 45.5q38 29 79 38.5t87 9.5t87 -9.5t79 -36.5q30 -22 48 -46.5t27.5 -51.5t12 -55.5t2.5 -58.5
v-393h125v-57h-191v457z" />
    <glyph glyph-name="uni0543" unicode="&#x543;" horiz-adv-x="678" 
d="M100 0v256q0 41 6.5 81.5t25.5 82.5q13 28 32 57.5t38 52.5q-26 2 -50 1t-47 -5v57q39 6 75 5t69 -6q23 25 44.5 43t40.5 30t34 18.5t26 10.5q45 16 88.5 19t81.5 -3v-57q-28 5 -60 4.5t-61 -8.5q-28 -7 -60 -24t-62 -47q42 -11 89.5 -33.5t83.5 -54.5q28 -25 44.5 -50
t25.5 -51.5t11.5 -54t2.5 -57.5v-267h-478zM512 285q0 63 -25 105.5t-79 76.5q-33 21 -67.5 34t-66.5 20q-20 -23 -39 -49.5t-31 -49.5q-11 -20 -24.5 -58.5t-13.5 -91.5v-215h346v228z" />
    <glyph glyph-name="uni0544" unicode="&#x544;" horiz-adv-x="782" 
d="M166 235q0 -16 2 -35t8.5 -38.5t19 -38.5t32.5 -35q32 -26 65.5 -32.5t62.5 -6.5q32 0 64.5 8t63.5 33q37 29 49.5 65t12.5 80v465h196v-57h-130v-385q0 -29 -2.5 -58t-11.5 -57t-27 -54t-49 -49q-38 -29 -79 -38.5t-87 -9.5q-45 0 -87 9.5t-80 38.5q-30 23 -47.5 49
t-27 53.5t-12 55.5t-2.5 55v447h66v-465z" />
    <glyph glyph-name="uni0545" unicode="&#x545;" horiz-adv-x="619" 
d="M122 225v-6q0 -12 2.5 -31t11 -40t25 -41t44.5 -35q22 -11 48 -17t53 -6q42 0 81.5 13.5t67.5 42.5q20 21 30 46t10 50q0 34 -16 64q-10 20 -27 36t-36.5 27.5t-39.5 17.5t-38 6h-282v57h279q22 0 43.5 7.5t39.5 20.5t30.5 29t17.5 33q4 12 4 31q0 20 -7.5 41.5
t-24.5 38.5q-21 22 -53.5 31.5t-65.5 9.5q-18 0 -35.5 -2.5t-31.5 -7.5q-39 -14 -62.5 -46t-25.5 -74h-70q3 31 12.5 55t21.5 42.5t25.5 31t25.5 20.5q34 23 72 30.5t69 7.5q32 0 70.5 -5t72.5 -28q37 -24 57 -62.5t20 -82.5q0 -22 -4 -38q-8 -38 -33 -66t-62 -44
q22 -7 39.5 -18t30.5 -23.5t22 -25t14 -22.5q8 -17 12.5 -39t4.5 -46q0 -20 -3 -39.5t-10 -36.5q-15 -38 -46 -69t-71 -48q-28 -12 -59.5 -17.5t-63.5 -5.5q-35 0 -68 6.5t-59 17.5q-24 11 -47 30t-41.5 44.5t-29.5 58t-11 71.5v5h67z" />
    <glyph glyph-name="uni0546" unicode="&#x546;" horiz-adv-x="727" 
d="M236 247q0 -17 1 -36t5.5 -38.5t14.5 -38.5t29 -36q26 -24 64 -36.5t76 -12.5q35 0 68.5 10t59.5 31q21 16 33 34.5t18.5 37.5t8.5 37.5t2 35.5v81h66v-83q0 -23 -3.5 -47.5t-13 -50t-27.5 -50t-46 -45.5q-38 -29 -79 -38.5t-87 -9.5q-44 0 -87 9.5t-81 38.5
q-28 21 -45.5 46.5t-27 53.5t-12.5 56.5t-3 57.5v389h-130v57h196v-453z" />
    <glyph glyph-name="uni0547" unicode="&#x547;" horiz-adv-x="671" 
d="M616 227q-1 -52 -22.5 -95.5t-58.5 -74.5t-86.5 -48t-104.5 -17h-2q-63 0 -110.5 18.5t-81 47.5t-54.5 64.5t-30 71.5q-11 42 -11 89q0 34 6 68t19 65q16 39 43 70.5t62 54t77 34.5t88 12h13q-16 12 -36 22.5t-41.5 19t-44 14t-44.5 5.5q-26 0 -57 -6t-54 -14v63
q32 8 61 12.5t57 4.5q57 0 107 -20q25 -10 48 -24t44.5 -30l43 -32t44.5 -30t45 -23.5t49 -9.5q12 0 29 3v-57q-19 -4 -40 -4q-25 0 -48 6t-42.5 14.5t-35 17.5t-24.5 16q-21 3 -44 3q-29 0 -61 -5t-59 -17q-50 -22 -78.5 -58t-42.5 -81q-15 -47 -15 -93t14.5 -87.5
t40.5 -73.5q61 -74 166 -74h2q43 0 79.5 13.5t63.5 37.5t42.5 56.5t15.5 70.5h68z" />
    <glyph glyph-name="uni0548" unicode="&#x548;" horiz-adv-x="712" 
d="M546 457q0 19 -2 39t-8 40t-18 39t-32 35q-26 21 -61 31t-69 10q-2 0 -15.5 -0.5t-33 -4.5t-41.5 -12t-40 -23q-20 -16 -31.5 -35t-18 -39.5t-8.5 -41t-2 -38.5v-457h-66v447q0 29 3 58t12.5 56t27.5 52t47 47q38 29 78.5 38.5t87.5 9.5t87.5 -9.5t78.5 -38.5
q29 -22 47 -47t27.5 -52t12.5 -56t3 -58v-447h-66v457z" />
    <glyph glyph-name="uni0549" unicode="&#x549;" horiz-adv-x="643" 
d="M50 144l26 63l108 -44q75 5 141 31t110 64q26 23 43 47.5t26.5 49.5t13.5 49.5t4 48.5q0 45 -11.5 77.5t-29.5 54.5t-40 35t-44 20q-18 6 -37 8.5t-38 2.5q-39 0 -78 -11q-38 -11 -64.5 -30t-43.5 -52q-16 -31 -16 -71v-9q0 -3 1 -8h-66v6q0 33 7 60.5t18.5 49.5t26.5 39
t31 29q42 33 90.5 43.5t96.5 10.5q25 0 51.5 -2.5t52.5 -10.5t51 -22t47 -37q29 -30 47 -73.5t19 -105.5v-4q0 -81 -30 -139.5t-89 -101.5q-30 -22 -62.5 -37t-60 -24.5t-48 -14t-27.5 -5.5l199 -76l-27 -63z" />
    <glyph glyph-name="uni054A" unicode="&#x54a;" horiz-adv-x="703" 
d="M537 0v443q0 23 -1 44t-6 40.5t-15.5 37.5t-29.5 35q-29 26 -66.5 38.5t-72.5 12.5v-442h-64v442q-3 0 -17.5 -1.5t-34.5 -6.5t-43.5 -15t-43.5 -27t-31 -36t-16 -37t-5.5 -34.5t0.5 -27.5h-66q0 15 2 36t10 45t24 49t43 48q25 21 52 34t54.5 19.5t53.5 8.5t50 2
q27 0 54.5 -2t55 -8.5t54 -19.5t50.5 -34q27 -24 42 -49t22.5 -51.5t9 -55t1.5 -58.5v-430h-66z" />
    <glyph glyph-name="uni054B" unicode="&#x54b;" horiz-adv-x="714" 
d="M598 -12v18q0 7 -1.5 14.5t-7.5 14.5q-7 7 -14 8t-15 1h-429v-44h-66v145h66v-44h74q13 0 28 6t29 15t26 20t20 22q19 25 19 43q0 19 -20 38q-16 15 -34 21.5t-32 13.5q-16 7 -28.5 15.5t-24.5 19.5q-11 10 -23.5 24.5t-23 34t-17 44t-6.5 55.5v6q1 33 10.5 65.5t29 60.5
t48 50t66.5 36q25 9 50 13t51 4q51 0 97.5 -15.5t82.5 -47.5q42 -35 60 -81.5t18 -94.5q0 -68 -31 -127q-19 -37 -50.5 -71.5t-69.5 -65t-78.5 -57t-77.5 -47.5h251q17 0 36.5 -4.5t35.5 -24.5q12 -16 14.5 -34.5t2.5 -35.5v-14h-66zM372 193q28 19 56 42.5t52 50t42.5 53.5
t27.5 52q12 33 12 71q0 42 -16 81.5t-51 66.5q-26 20 -58 30.5t-65 10.5q-36 0 -74 -12t-64 -37q-27 -26 -38 -61t-11 -68q0 -23 5 -45q11 -44 37 -66t54 -36q22 -11 39.5 -20.5t29.5 -24.5q8 -9 14.5 -24t6.5 -34q0 -12 -5 -27z" />
    <glyph glyph-name="uni054C" unicode="&#x54c;" horiz-adv-x="754" 
d="M546 465q0 17 -2 35.5t-8.5 37.5t-18.5 37.5t-33 34.5q-26 21 -59.5 31t-68.5 10t-68.5 -10t-59.5 -31q-21 -16 -33 -34.5t-18.5 -37.5t-8.5 -37.5t-2 -35.5v-465h-66v444q0 30 3 59.5t12.5 57t27 52.5t47.5 47q38 29 78.5 38.5t87.5 9.5t87.5 -9.5t78.5 -38.5
q30 -23 47.5 -48t27 -52.5t12.5 -57.5t3 -61v-130h102v-57h-100l-2 -254h-66v465z" />
    <glyph glyph-name="uni054D" unicode="&#x54d;" horiz-adv-x="712" 
d="M166 246q0 -21 2 -41.5t8 -40.5t18.5 -38.5t33.5 -35.5q26 -21 59.5 -31t68.5 -10t68.5 10t59.5 31q42 34 52 74.5t10 83.5v452h66v-441q0 -32 -3 -61.5t-12.5 -57t-27 -53t-47.5 -47.5q-38 -29 -78.5 -38.5t-87.5 -9.5t-87.5 9.5t-78.5 38.5q-30 22 -47.5 47.5t-27 53.5
t-12.5 57.5t-3 61.5v440h66v-454z" />
    <glyph glyph-name="uni054E" unicode="&#x54e;" horiz-adv-x="711" 
d="M475 0v217q-41 -18 -94.5 -32t-103.5 -12q-59 2 -105 24t-72 54q-16 20 -25 42t-13.5 45t-5.5 46t-1 46v83h66v-94v-32t3 -36.5t10 -37.5t22 -35q7 -8 17.5 -16t26.5 -15.5t37.5 -12t50.5 -4.5q49 0 97 13.5t90 38.5v418h66v-643h130v-57h-196z" />
    <glyph glyph-name="uni054F" unicode="&#x54f;" horiz-adv-x="615" 
d="M463 534q-2 40 -20 62t-35 32q-20 11 -46.5 17t-52.5 6q-14 0 -28 -1.5t-25 -5.5q-12 -4 -27.5 -11.5t-29.5 -20t-23.5 -31t-9.5 -43.5v-3q1 -32 18.5 -56.5t46.5 -43.5t66.5 -34.5t78.5 -30.5q23 -9 48 -19t48.5 -23t43 -29.5t31.5 -37.5q18 -32 18 -75q0 -22 -5.5 -44
t-16.5 -42q-15 -26 -39 -46t-54 -34t-64.5 -21t-70.5 -7q-53 0 -103 17t-86 50q-28 26 -49.5 67t-21.5 102v13h66q-1 -5 -1 -10v-9q0 -30 12.5 -63.5t47.5 -63.5q31 -26 64 -36t74 -10q30 0 66 7t68 31q24 18 34.5 42t10.5 47q0 39 -22 67q-17 22 -49 37.5t-83 35.5
q-39 15 -76 30t-68 32.5t-54.5 39.5t-35.5 52q-5 12 -8 27.5t-3 33.5q0 32 14.5 68.5t54.5 66.5q32 24 65.5 33t74.5 9h8q16 0 34.5 -2t38 -7t38.5 -13.5t37 -23.5q21 -17 41 -49t25 -79h-66z" />
    <glyph glyph-name="uni0550" unicode="&#x550;" horiz-adv-x="652" 
d="M546 458q0 19 -2 39t-8 39.5t-18.5 38t-33.5 35.5q-26 21 -59.5 31t-68.5 10q-33 0 -69 -9.5t-62 -29.5q-20 -16 -32 -35t-18 -39.5t-7.5 -42t-1.5 -41.5v-454h-66v423q0 38 1.5 71t10.5 62t27 54.5t51 49.5q38 28 79 38t87 10t87 -9.5t79 -38.5q29 -22 46.5 -46.5
t27.5 -51t13 -53.5t3 -53v-59h-66v61z" />
    <glyph glyph-name="uni0551" unicode="&#x551;" horiz-adv-x="627" 
d="M121 209q0 -35 14 -64t39 -50.5t60 -33.5t77 -12q58 0 97 20.5t63 51.5q20 26 28 52t8 52q0 51 -17 86.5t-48 59.5q-17 14 -49.5 28.5t-81.5 14.5q-12 0 -33 -2t-46 -10t-51 -25t-47 -47l-64 19q26 42 64 68t81 37v4q-19 7 -41 23.5t-33 47.5q-6 16 -6 37q0 36 22.5 72.5
t76.5 56.5q18 6 39 9.5t43 3.5q45 0 82 -14q40 -16 65 -49t25 -74q0 -15 -5 -35q-9 -32 -29.5 -49.5t-46.5 -25.5v-4q51 -11 89 -44.5t58 -71.5q12 -23 17.5 -49t5.5 -53q0 -45 -16.5 -89t-48.5 -79q-42 -44 -93.5 -61.5t-108.5 -17.5q-22 0 -46.5 3t-50 11t-50.5 23.5
t-48 39.5q-22 23 -40 57.5t-20 82.5h66zM311 651q-20 0 -39 -4t-39 -18q-14 -11 -23 -26t-9 -40q0 -23 8.5 -38t16.5 -23q10 -10 30 -20.5t55 -10.5q42 0 63.5 13.5t30.5 25.5q8 11 12.5 24t4.5 28q0 19 -6.5 35.5t-23.5 29.5q-20 16 -41 20t-40 4z" />
    <glyph glyph-name="uni0552" unicode="&#x552;" horiz-adv-x="513" 
d="M100 0v700h66v-130q10 1 18 1h17q60 0 94 -18t53.5 -44t31.5 -59t21 -63.5t22.5 -58.5t49.5 -39v-57q-38 3 -65 20t-40.5 42.5t-22.5 53t-15 50.5q-6 21 -14.5 41.5t-24 37t-40.5 27t-65 10.5q-5 0 -10 -0.5t-10 -0.5v-513h-66z" />
    <glyph glyph-name="uni0553" unicode="&#x553;" horiz-adv-x="742" 
d="M404 0h-66v113q-29 1 -59 6.5t-58 15.5t-52.5 23.5t-43.5 30.5q-30 26 -52.5 70t-22.5 109q0 41 10 73.5t25 57t33.5 41.5t35.5 29q38 26 84.5 39t94.5 13h5v79h66v-79h5q48 0 94.5 -13t84.5 -39q17 -12 35.5 -29t33.5 -41.5t25 -57t10 -73.5q0 -65 -22.5 -109t-52.5 -70
q-19 -17 -43.5 -30.5t-52.5 -23.5t-58 -15.5t-59 -6.5v-113zM404 170h9q38 0 77 12t71 38q35 29 50 65.5t15 81.5t-15 83.5t-53 67.5q-31 23 -71 34.5t-78 11.5h-5v-394zM338 564h-5q-38 0 -78 -11.5t-71 -34.5q-38 -29 -53 -67.5t-15 -83.5t15 -81.5t50 -65.5
q32 -26 71 -38t77 -12h9v394z" />
    <glyph glyph-name="uni0554" unicode="&#x554;" horiz-adv-x="660" 
d="M117 0v101h-62v57h62v309q0 22 2 44.5t8 45t17.5 43.5t30.5 40q22 22 46 35t47 20.5t44.5 10t38.5 2.5q34 0 69.5 -6t70.5 -27q50 -30 79 -82.5t29 -115.5q0 -45 -14 -82t-37 -66q-36 -45 -86 -65t-101 -20q-36 0 -67 9q-42 12 -68 32t-43 40v-167h422v-57h-422v-101h-66
zM179 473q0 -35 9.5 -61t23 -44.5t29.5 -30.5t29 -18q40 -19 87 -19q36 0 71.5 12.5t60.5 39.5q22 24 33 55t11 64q0 41 -17 81q-6 14 -18 31t-31 32t-47.5 25.5t-67.5 10.5q-14 0 -31.5 -2t-36 -8.5t-36.5 -18t-33 -30.5q-16 -20 -26 -50t-10 -69z" />
    <glyph glyph-name="uni0555" unicode="&#x555;" horiz-adv-x="744" 
d="M55 349q0 47 10 97t32 95t58 82t89 60q61 25 128 25t128 -25q52 -23 88.5 -60t58.5 -82t32 -95t10 -97q0 -61 -12.5 -108t-28.5 -80t-31 -52.5t-20 -24.5q-41 -44 -100 -68.5t-125 -24.5q-65 0 -128 26q-66 28 -106.5 78t-61.5 116q-21 67 -21 138zM126 349
q0 -27 4 -56.5t12.5 -58t20.5 -55t29 -46.5q31 -38 78.5 -61t101.5 -23t101.5 23t78.5 61q16 20 28.5 46.5t21 55t12.5 58t4 56.5q0 56 -16.5 115.5t-49.5 101.5q-32 39 -79 62t-101 23t-101 -23t-79 -62q-33 -42 -49.5 -101.5t-16.5 -115.5z" />
    <glyph glyph-name="uni0556" unicode="&#x556;" horiz-adv-x="744" 
d="M110 218v-3q0 -30 7.5 -52.5t19.5 -39.5t26 -28t26 -18q18 -10 41.5 -15.5t45 -8.5t39 -4t23.5 -1v353q-66 11 -105.5 27t-63.5 36q-21 18 -34.5 43t-14.5 59v3q0 42 18.5 69t41.5 41q24 14 51.5 17.5t48.5 3.5h124v-252q51 -8 85 -17.5t42 -11.5q13 -4 32.5 -11.5
t40 -19.5t39.5 -29t33 -40q12 -22 18 -48t6 -52q0 -27 -5.5 -52t-15.5 -44q-12 -22 -33.5 -45.5t-58.5 -42.5t-92.5 -31t-134.5 -12h-4q-23 0 -50 1.5t-55 6.5t-56 14t-53 25q-18 12 -35.5 28t-31 38t-22.5 50t-9 63h66zM281 643q-19 0 -38.5 -1.5t-33.5 -12.5
q-8 -5 -15.5 -18t-7.5 -36v-9q2 -27 12.5 -42t27.5 -27q24 -17 55 -26.5t58 -12.5v185h-58zM404 48q36 0 71 7t63 19q31 13 50 31.5t29 37.5t13 37t3 32v5q-1 37 -20 72t-68 60q-16 8 -36.5 15t-40.5 12.5t-37 9t-27 5.5v-343z" />
    <glyph glyph-name="uni0559" unicode="&#x559;" horiz-adv-x="125" 
d="M115 720q-24 -1 -43 7t-33 22t-21.5 33.5t-7.5 41.5t7.5 41.5t21.5 33.5t33 22t43 7v-62h-6q-18 0 -30 -12t-12 -30q0 -20 12 -30.5t29 -10.5h7v-63z" />
    <glyph glyph-name="uni055A" unicode="&#x55a;" horiz-adv-x="243" 
d="M193 700l-74 -218h-69l55 218h88z" />
    <glyph glyph-name="uni055B" unicode="&#x55b;" horiz-adv-x="10" 
d="M31 900l-132 -160h-51l89 160h94z" />
    <glyph glyph-name="uni055C" unicode="&#x55c;" horiz-adv-x="10" 
d="M88 900q0 -20 -5 -40.5t-14 -34.5q-15 -23 -37 -29.5t-42 -6.5t-39 3q-10 2 -19.5 3t-19.5 1q-26 0 -42.5 -13t-20.5 -43h-38q-1 18 4 40.5t17 39.5q17 23 37 29.5t39 6.5q12 0 24 -1t24 -3q19 -3 39 -3q9 0 18.5 2t17 7.5t13 15.5t6.5 26h38z" />
    <glyph glyph-name="uni055D" unicode="&#x55d;" horiz-adv-x="73" 
d="M89 740h-51l-132 160h94z" />
    <glyph glyph-name="uni055E" unicode="&#x55e;" horiz-adv-x="10" 
d="M-240 740q6 12 13.5 25.5t15.5 26t15 24t13 18.5q29 38 58.5 52t55.5 14q40 0 63 -25t23 -60q0 -36 -23.5 -58.5t-58.5 -22.5q-8 0 -17.5 1.5t-17.5 3.5l1 40q13 -5 26 -5t21.5 8t8.5 23q0 18 -12 26.5t-26 8.5t-33 -10.5t-41 -39.5q-19 -25 -30 -50h-55z" />
    <glyph glyph-name="uni055F" unicode="&#x55f;" horiz-adv-x="311" 
d="M151 742q-21 0 -47.5 2.5t-49.5 16.5q-15 9 -29.5 29.5t-14.5 58.5q0 20 5.5 41.5t12.5 38.5l73 -22q-4 -10 -8.5 -25.5t-4.5 -29.5q0 -30 24 -43q10 -5 22 -6t26 -1h141v-60h-150z" />
    <glyph glyph-name="uni0561" unicode="&#x561;" horiz-adv-x="853" 
d="M773 0h-63v100h-2q-11 -28 -27.5 -47t-33.5 -31q-43 -30 -95 -30q-57 0 -93.5 29.5t-47.5 78.5h-1q-10 -21 -25.5 -41.5t-41.5 -37.5q-25 -17 -48.5 -23t-51.5 -6q-54 0 -84.5 16.5t-44.5 34.5q-13 16 -20 33t-10 35t-3.5 35.5t-0.5 34.5v332h63v-339q0 -24 3.5 -48.5
t20.5 -46.5q15 -19 35 -26.5t43 -7.5q29 0 56 10t48 31t33.5 52.5t12.5 75.5v299h63v-339q0 -23 3.5 -48.5t20.5 -46.5q10 -12 29.5 -23t52.5 -11q30 0 56.5 12t46.5 34.5t31.5 53.5t11.5 69v299h63v-513z" />
    <glyph glyph-name="uni0562" unicode="&#x562;" horiz-adv-x="566" 
d="M133 513v-106h2q12 28 29 47.5t34 32.5q25 19 51 26.5t56 7.5q50 0 84 -14.5t53 -35.5q16 -18 24.5 -37.5t12.5 -40.5t4 -43v-43v-95h-63v104q0 30 -3.5 63.5t-24.5 56.5q-10 11 -32 21.5t-62 10.5q-34 0 -58 -10.5t-46 -32.5q-28 -28 -39.5 -59.5t-11.5 -66.5v-246h343
v-53h-343v-219h-63v732h53z" />
    <glyph glyph-name="uni0563" unicode="&#x563;" horiz-adv-x="620" 
d="M484 53h126v-53h-126v-219h-63v311q-18 -32 -44 -55t-55 -34q-28 -11 -56 -11q-15 0 -34.5 2t-41.5 9t-44.5 21t-42.5 39q-19 23 -30.5 48t-17.5 50.5t-8 50t-2 45.5q0 64 13.5 108.5t34.5 74t45 46t45 24.5q18 6 36.5 8.5t37.5 2.5q55 0 99 -30q15 -10 35 -30.5
t34 -53.5h3v106h56v-460zM421 257q0 5 -1 21t-4.5 37t-11.5 45t-23 45q-20 29 -50.5 46t-64.5 17q-33 0 -64 -17q-28 -15 -45.5 -39t-27.5 -50.5t-14 -54t-4 -50.5t3.5 -50.5t13.5 -54.5t28 -51t46 -39q31 -17 64 -17t64 17t51 46t30 69t10 80z" />
    <glyph glyph-name="uni0564" unicode="&#x564;" horiz-adv-x="619" 
d="M133 513v-106h2q8 19 23 39.5t40 39.5q26 20 51 27.5t57 7.5q49 0 82.5 -14.5t53.5 -35.5q18 -20 26.5 -42.5t12 -45.5t3 -45t-0.5 -40v-245h126v-53h-126v-219h-63v535q0 34 -2.5 64.5t-25.5 55.5q-14 14 -37 23t-55 9q-35 0 -60.5 -11.5t-45.5 -31.5
q-32 -32 -41.5 -65.5t-9.5 -60.5v-299h-63v513h53z" />
    <glyph glyph-name="uni0565" unicode="&#x565;" horiz-adv-x="555" 
d="M143 685v-172h342v-53h-342v-284q0 -23 3 -48t26 -49q14 -14 34.5 -24t48.5 -10q31 0 58.5 10.5t51.5 36.5q26 28 36 58.5t10 65.5v53h63v-269h-55v102h-1q-15 -38 -38 -59t-45 -32q-20 -10 -41.5 -14.5t-43.5 -4.5q-29 0 -50.5 6t-37.5 14t-26 17t-15 15
q-15 17 -23 35.5t-12 36.5t-5 35t-1 30v504h63z" />
    <glyph glyph-name="uni0566" unicode="&#x566;" horiz-adv-x="574" 
d="M143 513v-337q0 -23 3 -48t26 -49q13 -14 34.5 -24t51.5 -10q65 0 107 47q17 20 31.5 50t14.5 74v297h63v-679h110v-53h-173v244l4 77h-2q-14 -37 -36 -58.5t-42 -32.5q-38 -19 -84 -19q-51 0 -82.5 17t-47.5 35q-15 17 -23 35.5t-12 36.5t-5 35t-1 30v332h63z" />
    <glyph glyph-name="uni0567" unicode="&#x567;" horiz-adv-x="422" 
d="M143 685v-172h249v-53h-249v-407h155q40 0 61 -21.5t21 -56.5q0 -14 -2.5 -28.5t-5.5 -26.5h-63q2 9 4.5 22t2.5 23q0 21 -9 28t-25 7h-202v685h63z" />
    <glyph glyph-name="uni0568" unicode="&#x568;" horiz-adv-x="573" 
d="M133 513v-106h2q12 28 29 47.5t34 32.5q25 18 51 26t57 8q56 0 88.5 -17t46.5 -33q16 -18 24.5 -38t12.5 -41.5t4.5 -45t0.5 -47.5v-299h-63v316q0 34 -3 65t-25 55q-11 11 -33 21.5t-61 10.5q-34 0 -58 -10.5t-46 -32.5q-19 -19 -35 -50t-16 -76v-465h350v-53h-413v732
h53z" />
    <glyph glyph-name="uni0569" unicode="&#x569;" horiz-adv-x="669" 
d="M143 513v-115q15 35 37 56.5t42 33.5q29 17 63 25t66 8q23 0 45 -3t44 -11q43 -15 70 -40t42 -51t20.5 -48.5t7.5 -31.5h69v-53h-69v-66q0 -21 -1.5 -44t-7 -46.5t-17 -46.5t-31.5 -42q-48 -48 -131 -48q-35 0 -68.5 11.5t-60.5 43.5q-26 29 -34 62t-8 63q0 17 2 34t8 34
q5 13 15 30t27.5 32t44 25.5t65.5 10.5h134q-3 17 -14.5 44.5t-42.5 50.5q-23 17 -56 27t-65 10q-38 0 -73 -14t-60 -35q-21 -18 -42 -51.5t-21 -79.5v-507h-63v732h63zM399 283q-15 0 -32 -2t-32 -8.5t-27 -19.5t-18 -34q-4 -12 -5 -24.5t-1 -25.5q0 -19 4.5 -45.5
t23.5 -49.5q30 -36 83 -36q37 0 60 15t34 32q10 15 15.5 32.5t8.5 35t3.5 34.5t0.5 30v66h-118z" />
    <glyph glyph-name="uni056A" unicode="&#x56a;" horiz-adv-x="588" 
d="M484 685v-172h94v-53h-94v-224q0 -23 -2.5 -56t-14.5 -67t-37.5 -64t-71.5 -46q-19 -7 -39 -9t-40 -2q-42 0 -85 10.5t-81 50.5q-11 12 -23 29.5t-22 42t-16.5 57t-6.5 74.5q0 22 1.5 43.5t6.5 43.5q17 81 71 125.5t132 44.5h165v172h63zM270 460q-17 0 -39.5 -3.5
t-44 -16.5t-40 -37.5t-27.5 -66.5q-5 -20 -6.5 -40t-1.5 -40q0 -11 1.5 -28.5t5.5 -38t12 -41.5t21 -40q20 -29 51 -46t76 -17q37 0 65 14q30 15 46 36.5t23 46t8 49t1 44.5v225h-151z" />
    <glyph glyph-name="uni056B" unicode="&#x56b;" horiz-adv-x="563" 
d="M143 685v-176l-4 -102h2q6 18 18.5 39.5t38.5 40.5q23 18 49 26t56 8q52 0 86 -15t52 -35t26.5 -42.5t12 -45.5t3.5 -45v-40v-298h-63v316q0 34 -3 65t-25 55q-11 11 -33 21.5t-62 10.5q-33 0 -57 -10.5t-46 -32.5q-19 -19 -35 -50t-16 -76v-518h-63v904h63z" />
    <glyph glyph-name="uni056C" unicode="&#x56c;" horiz-adv-x="278" 
d="M143 513v-679h160v-53h-223v732h63z" />
    <glyph glyph-name="uni056D" unicode="&#x56d;" horiz-adv-x="756" 
d="M143 685v-172h202v-337q0 -23 3 -47.5t26 -49.5q33 -34 83 -34q36 0 63 12t47 35q17 20 31.5 50t14.5 74v297h63v-513h-55v102h-1q-8 -22 -27 -47.5t-56 -43.5q-40 -19 -80 -19q-48 0 -81 14.5t-53 37.5q-14 16 -22.5 35t-13 38t-5.5 38t-1 36v269h-138v-679h-63v904h63z
" />
    <glyph glyph-name="uni056E" unicode="&#x56e;" horiz-adv-x="589" 
d="M499 458q-23 4 -44 6t-41 4q50 -56 72 -115t24 -106q2 -37 -6 -77t-26 -72q-9 -17 -24.5 -35.5t-38.5 -34t-54 -26t-71 -10.5q-36 0 -64 7.5t-49 19.5t-36.5 26.5t-25.5 28.5q-25 32 -40 78t-14 96q0 27 6 58.5t19.5 61.5t35 57.5t53.5 47.5q20 12 40.5 20t38 12.5
t30 6.5t17.5 2q-22 22 -52.5 47t-78.5 56l38 68h64l-32 -54q32 -20 62.5 -45t72.5 -68q33 -1 64 -3t60 -4v-53zM340 468q-12 -1 -27 -3t-31.5 -5.5t-32.5 -9.5t-30 -14t-30 -22.5t-30 -37t-23 -54.5t-9 -75q0 -39 9.5 -75t29.5 -63.5t50.5 -45t73.5 -18.5q51 -2 82 17.5
t47.5 50t21.5 66.5t3 68q-2 33 -8.5 60.5t-19.5 54t-31.5 52t-44.5 54.5z" />
    <glyph glyph-name="uni056F" unicode="&#x56f;" horiz-adv-x="554" 
d="M143 685v-509q0 -25 4 -49.5t25 -47.5q14 -14 35 -24t48 -10q17 0 32.5 2.5t30.5 9.5q19 9 36 24t29.5 35.5t20 45.5t7.5 54v297h63v-732h-63v223l5 98h-2q-14 -38 -36 -59t-43 -32q-20 -11 -42.5 -15t-45.5 -4q-51 0 -81 17.5t-45 34.5q-29 34 -35 72.5t-6 73.5v495h63z
" />
    <glyph glyph-name="uni0570" unicode="&#x570;" horiz-adv-x="564" 
d="M143 685v-166l-5 -112h2q8 20 23.5 41.5t41.5 40.5q23 17 47 24.5t57 7.5q32 0 68 -9t64 -41q16 -18 24.5 -38t12.5 -41t4.5 -43.5t0.5 -46.5v-302h-63v316q0 34 -3 65t-25 55q-14 15 -37 23.5t-55 8.5t-58.5 -10.5t-49.5 -35.5q-19 -20 -34 -50t-15 -73v-299h-63v685h63
z" />
    <glyph glyph-name="uni0571" unicode="&#x571;" horiz-adv-x="567" 
d="M557 0h-68l-27 59q-37 -16 -76 -29t-76.5 -21.5t-70.5 -13t-57 -3.5q-66 3 -103 35.5t-40 81.5q-1 26 3 46t12 38.5t19.5 36t23.5 36.5l168 256q3 5 7 10.5t4 10.5q0 7 -6 9.5t-11 3.5l-64 16q-10 2 -20 5.5t-17.5 9.5t-12.5 15t-4 23q1 10 4 20t8 21l9 19h60l-7 -16
q-5 -11 -9 -19t-3 -17q1 -11 10 -16t26 -9l99 -23q5 -1 11.5 -4.5t6.5 -13.5q0 -5 -3.5 -10.5t-6.5 -10.5l-25 -41zM143 232q-6 -9 -13.5 -21.5t-13.5 -26.5t-9 -30.5t-2 -32.5q1 -13 5 -27t15.5 -26t30 -19.5t49.5 -6.5q26 1 57.5 5.5t63 13t62 18.5t54.5 22l-163 343z" />
    <glyph glyph-name="uni0572" unicode="&#x572;" horiz-adv-x="583" 
d="M133 513v-106h2q12 28 29 47.5t34 32.5q25 18 51 26t57 8q20 0 39 -2.5t38 -9.5q36 -14 56.5 -36.5t30 -50t11.5 -58.5t2 -61v-469h110v-53h-173v535q0 34 -3 65t-25 55q-11 11 -33 21.5t-62 10.5q-33 0 -57 -10.5t-46 -32.5q-19 -19 -35 -50t-16 -76v-299h-63v513h53z
" />
    <glyph glyph-name="uni0573" unicode="&#x573;" horiz-adv-x="574" 
d="M461 630q-23 9 -46 9q-10 0 -22 -2t-22 -8q-13 -8 -20 -20t-14 -23l-44 -74q17 -5 33.5 -13t30.5 -19q25 -18 41.5 -43t24.5 -51l121 -386h-63l-17 55q-92 -38 -160.5 -50.5t-106.5 -12.5q-11 0 -29 2t-37.5 10t-39 23.5t-32.5 43.5q-8 16 -11 33t-3 34q0 29 9 55t22 49
l132 236q-38 6 -71 5v53q16 0 37.5 -1.5t59.5 -9.5l51 87q9 16 21.5 33t30.5 28q17 11 34 14t32 3q31 0 58 -7v-53zM141 235q-22 -40 -26.5 -63.5t-4.5 -31.5q0 -15 4.5 -31.5t17.5 -30t35.5 -21.5t57.5 -8q63 1 123.5 17.5t102.5 33.5l-87 269q-5 14 -13.5 33.5t-30.5 36.5
q-9 8 -24 14.5t-28 11.5z" />
    <glyph glyph-name="uni0574" unicode="&#x574;" horiz-adv-x="604" 
d="M143 513v-337q0 -11 0.5 -27.5t6.5 -34t20 -34t40 -26.5q21 -9 45 -9q31 0 59 10.5t51 36.5q17 20 31.5 50t14.5 74v331q0 15 -1 31.5t0.5 32t6 30t15.5 25.5q17 17 40.5 20.5t37.5 3.5q15 0 36.5 -3t47.5 -11v-56q-16 6 -39.5 12t-39.5 6q-18 0 -26.5 -6.5t-12 -17.5
t-3 -25t0.5 -30v-559h-55v102h-1q-15 -38 -38 -59t-45 -32q-38 -19 -83 -19t-78 14.5t-53 37.5q-29 34 -35 73t-6 82v314h63z" />
    <glyph glyph-name="uni0575" unicode="&#x575;" horiz-adv-x="273" 
d="M178 -127q0 -20 -3 -37.5t-18 -33.5q-17 -17 -37.5 -21.5t-36.5 -4.5q-28 0 -49 4.5t-34 8.5v56q15 -7 34.5 -11.5t35.5 -4.5q8 0 16.5 2t14.5 7q12 11 13 32t1 37v606h63v-640z" />
    <glyph glyph-name="uni0576" unicode="&#x576;" horiz-adv-x="558" 
d="M478 513v-513h-55v102h-1q-15 -38 -38 -59t-45 -32q-20 -10 -41.5 -14.5t-43.5 -4.5q-29 0 -50.5 6t-37.5 14t-26 17t-15 15q-29 33 -35.5 73t-6.5 78v437h-123v53h186v-509q0 -11 0.5 -23t3.5 -24.5t9 -25t17 -24.5q14 -14 34.5 -24t48.5 -10q31 0 59 10.5t51 36.5
q17 20 31.5 50t14.5 74v297h63z" />
    <glyph glyph-name="uni0577" unicode="&#x577;" horiz-adv-x="465" 
d="M41 448q17 18 43.5 35.5t64.5 28.5q33 9 67 9q39 0 73 -10q60 -19 86.5 -61t26.5 -88q0 -26 -6 -46t-15.5 -38t-22.5 -34.5t-27 -34.5l-224 -280q-20 -26 -20 -49q0 -20 13 -33t30 -13h285v-53h-280q-31 0 -53 7.5t-35.5 20.5t-20 29.5t-6.5 33.5q0 18 5.5 35t13.5 32
t18 28t18 23l218 265q21 26 32 54t11 51q0 17 -7.5 38t-30.5 41q-20 17 -40.5 23t-43.5 6q-15 0 -29.5 -2.5t-28.5 -7.5q-20 -6 -50.5 -23t-64.5 -57v70z" />
    <glyph glyph-name="uni0578" unicode="&#x578;" horiz-adv-x="563" 
d="M133 513v-106h2q18 42 48 67.5t60 36.5q29 10 64 10q55 0 87 -17t47 -33q17 -18 25.5 -38.5t12.5 -41t4 -40.5v-36v-315h-63v327q0 25 -2.5 55t-25.5 54q-11 11 -33 21.5t-61 10.5q-34 0 -58 -10.5t-46 -32.5q-19 -19 -35 -50t-16 -76v-299h-63v513h53z" />
    <glyph glyph-name="uni0579" unicode="&#x579;" horiz-adv-x="369" 
d="M159 403l-14 -26t-7 -27q0 -19 13.5 -34.5t27.5 -27.5l104 -89q16 -12 17 -26q1 -8 -6 -21l-178 -229q-8 -11 -17 -23t-10 -27v-5q0 -11 4.5 -18t12 -10.5t15.5 -4.5t15 -1h255v-53h-274q-19 0 -45.5 7t-43.5 31q-13 18 -11 40q1 12 5 25.5t15 28.5l175 233q9 12 9 22
q-1 5 -5 10t-11 11l-71 62q-9 7 -20 17t-20 22t-15.5 26.5t-6.5 30.5q1 17 10 38t28 54l41 74h68z" />
    <glyph glyph-name="uni057A" unicode="&#x57a;" horiz-adv-x="853" 
d="M773 -219h-63v319h-2q-11 -26 -27 -46t-32 -32q-25 -19 -50 -24.5t-45 -5.5q-35 0 -59 9.5t-40 23.5q-15 13 -27 32t-17 43h-1q-10 -21 -25.5 -41.5t-41.5 -37.5q-25 -17 -48.5 -23t-51.5 -6q-54 0 -84.5 16.5t-44.5 34.5q-24 29 -29 65t-5 69v336h63v-339
q0 -23 3.5 -48.5t20.5 -46.5q17 -22 40 -28t43 -6q30 0 53.5 9.5t46.5 33.5q29 30 37 59t8 67v299h63v-339q0 -25 3 -48t21 -46q16 -20 36.5 -27.5t45.5 -7.5q28 0 57 13q13 6 28.5 18.5t29 31.5t22.5 45.5t9 60.5v299h63v-732z" />
    <glyph glyph-name="uni057B" unicode="&#x57b;" horiz-adv-x="539" 
d="M466 -219h-273q-18 0 -38 1t-38 15q-9 7 -17 20t-9 35q-1 29 11 48t24 30l90 86q11 11 14 21.5t3 25.5q0 14 -4.5 29.5t-18.5 29.5q-6 6 -11.5 9.5t-12.5 7.5t-16.5 10.5t-24.5 18.5q-32 26 -48.5 56t-16.5 72q0 57 24.5 105t64.5 77q29 22 64.5 32.5t70.5 10.5
q40 0 81.5 -16.5t73.5 -55.5q20 -26 32.5 -59t12.5 -71q0 -73 -37 -129.5t-95 -109.5l-186 -169q-11 -10 -20.5 -20.5t-10.5 -25.5q0 -12 5 -18.5t13 -9t16 -3t14 -0.5h263v-53zM279 65q23 20 49 47t48 54q22 28 42 65.5t20 88.5q0 35 -11.5 61t-27.5 43q-19 20 -46 32
t-60 12q-29 0 -59 -11.5t-53 -37.5q-13 -15 -24.5 -39t-11.5 -58q0 -29 8 -50.5t22 -38.5q13 -16 28 -27.5t33 -25.5q15 -12 29.5 -29.5t14.5 -49.5q0 -17 -6 -33z" />
    <glyph glyph-name="uni057C" unicode="&#x57c;" horiz-adv-x="581" 
d="M133 513v-106h2q12 28 29 47.5t34 32.5q25 18 51.5 26t58.5 8q48 0 80.5 -14.5t52.5 -34.5q3 -3 12 -14t18 -30t16.5 -46.5t7.5 -63.5q0 -29 -6 -62t-17 -65q-10 -27 -22.5 -50t-24.5 -41.5t-21.5 -30.5t-12.5 -16h120v-53h-182v52q24 26 46 60t33 63q5 14 13 46.5
t8 86.5q0 25 -5 60t-30 64q-22 25 -46 30.5t-45 5.5q-35 0 -61.5 -10.5t-48.5 -32.5q-18 -18 -34 -49t-16 -77v-299h-63v513h53z" />
    <glyph glyph-name="uni057D" unicode="&#x57d;" horiz-adv-x="554" 
d="M143 513v-337q0 -23 3 -48t26 -49q14 -14 34.5 -24t48.5 -10q31 0 59 10.5t51 36.5q17 20 31.5 50t14.5 74v297h63v-513h-55v102h-1q-15 -38 -38 -59t-45 -32q-39 -19 -86 -19q-28 0 -49.5 6t-37.5 14t-26 17t-15 15q-15 17 -23 35.5t-12 36.5t-5 35t-1 30v332h63z" />
    <glyph glyph-name="uni057E" unicode="&#x57e;" horiz-adv-x="584" 
d="M143 513v-337q0 -16 1.5 -33.5t8 -34t20 -31t37.5 -23.5q11 -4 22.5 -6.5t22.5 -2.5q24 0 53.5 8.5t56.5 38.5q17 20 31.5 50t14.5 74v469h63v-851h120v-53h-183v321h-2q-7 -21 -23.5 -47t-53.5 -44q-40 -19 -80 -19q-54 0 -85 17.5t-46 34.5t-23 35.5t-12 37t-5 36
t-1 32.5v328h63z" />
    <glyph glyph-name="uni057F" unicode="&#x57f;" horiz-adv-x="853" 
d="M143 513v-339q0 -24 3.5 -47t20.5 -47q18 -23 41 -29t42 -6q30 0 55.5 12.5t45.5 34.5t32 53.5t12 68.5v299h53v-103h2q19 45 62.5 78.5t107.5 32.5q30 -2 52 -10t43 -25q32 -29 45 -61t13 -97v-328h-63v339q0 25 -4 48t-21 46q-16 18 -33 26.5t-41 8.5
q-33 1 -60.5 -11.5t-47.5 -35t-32.5 -54t-12.5 -68.5v-299l-55 1v101h-1q-19 -46 -61 -77t-100 -33q-51 0 -82 20t-48 43q-23 31 -27 64t-4 66v328h63z" />
    <glyph glyph-name="uni0580" unicode="&#x580;" horiz-adv-x="564" 
d="M133 513v-106h2q12 28 29 47.5t34 32.5q25 19 50.5 26.5t54.5 7.5q52 0 86 -15t52 -35q16 -18 24.5 -38t12.5 -41t4.5 -42t0.5 -41v-309h-63v316q0 34 -3 65t-25 55q-11 12 -32.5 22t-58.5 10q-31 0 -56.5 -9t-50.5 -34q-19 -19 -35 -50t-16 -76v-518h-63v732h53z" />
    <glyph glyph-name="uni0581" unicode="&#x581;" horiz-adv-x="569" 
d="M426 92q-32 -57 -73 -78.5t-88 -21.5q-54 0 -92.5 19.5t-64.5 51.5q-19 23 -30.5 48t-17.5 50.5t-8 50t-2 45.5q0 18 1.5 43t8 52.5t19.5 55.5t35 52q34 37 72 49t73 12q37 0 66 -10.5t57 -36.5q15 -14 27 -30.5t21 -36.5h3v106h56v-512q0 -25 -4.5 -55.5t-19 -60
t-42 -54.5t-72.5 -40q-27 -9 -54.5 -12t-56.5 -3q-38 0 -72 6t-70 22v62q36 -17 74.5 -27t76.5 -10q22 0 44 3t42 12q51 22 71 64.5t20 98.5v85zM426 257q0 5 -1 21t-4.5 37t-11.5 45t-23 45q-20 29 -50.5 46t-64.5 17t-64.5 -17t-50.5 -46q-15 -21 -23 -45t-11.5 -45
t-4.5 -37t-1 -21q0 -40 10 -80t30 -69t51 -46t64 -17t64 17t51 46t30 69t10 80z" />
    <glyph glyph-name="uni0582" unicode="&#x582;" horiz-adv-x="275" 
d="M143 513v-460h117v-53h-180v513h63z" />
    <glyph glyph-name="uni0583" unicode="&#x583;" horiz-adv-x="853" 
d="M458 685v-193l-2 -79h3q7 17 19 36t30.5 35t44 26.5t59.5 10.5q14 0 30.5 -2.5t33.5 -9t33.5 -19t31.5 -32.5q23 -32 27.5 -62.5t4.5 -61.5v-334h-63v339q0 11 -2 32.5t-12 43t-31.5 37.5t-60.5 16q-32 0 -59 -14t-46.5 -37t-30 -54t-10.5 -64v-518h-63l1 319h-3
q-4 -10 -13.5 -28t-27.5 -36t-46 -31t-69 -13q-12 0 -27.5 2t-32 9t-33.5 19t-32 33q-23 32 -27.5 62.5t-4.5 61.5v334h63v-339q0 -16 2.5 -38t13 -42.5t31.5 -34.5t58 -14q30 0 56.5 12.5t46.5 35t32 53.5t12 68v471h63z" />
    <glyph glyph-name="uni0584" unicode="&#x584;" horiz-adv-x="570" 
d="M140 513v-101h2q17 38 41.5 59.5t49.5 32.5t47.5 14t35.5 3q48 0 81.5 -14.5t60.5 -43.5q11 -12 22 -29.5t19.5 -40t14 -51t5.5 -64.5q0 -40 -9.5 -82t-38.5 -82q-59 -84 -162 -84q-54 0 -94.5 23t-63.5 68l-3 -1v-160h377v-52h-377v-127h-66v127h-82v52h82v553h58z
M142 281q0 -45 11 -79.5t36 -64.5q20 -25 47.5 -39.5t69.5 -14.5q41 0 69.5 16.5t47.5 48.5q15 26 22.5 60.5t7.5 69.5q0 48 -13 86t-36 63q-38 41 -101 41q-39 0 -70 -15t-55 -49q-23 -32 -29.5 -64t-6.5 -59z" />
    <glyph glyph-name="uni0585" unicode="&#x585;" horiz-adv-x="564" 
d="M45 256q0 60 15.5 103.5t38.5 75.5q31 42 75.5 64t107.5 22t107.5 -22t75.5 -64q23 -32 38.5 -75.5t15.5 -103.5q0 -42 -11 -88.5t-43 -89.5q-31 -42 -75.5 -64t-107.5 -22t-107.5 22t-75.5 64q-32 43 -43 89.5t-11 88.5zM111 256q0 -35 10 -74.5t33 -71.5t53.5 -48.5
t74.5 -16.5t74.5 16.5t53.5 48.5t33 71.5t10 74.5q0 34 -10 74.5t-33 72.5t-53.5 48.5t-74.5 16.5t-74.5 -16.5t-53.5 -48.5t-33 -72.5t-10 -74.5z" />
    <glyph glyph-name="uni0586" unicode="&#x586;" horiz-adv-x="645" 
d="M338 458q58 -16 106.5 -35t83 -46.5t53.5 -66t19 -92.5q0 -67 -28 -111t-73 -70q-35 -20 -80.5 -31.5t-80.5 -13.5v-211h-66v212q-42 2 -89 14.5t-80 35.5q-23 16 -47.5 46.5t-35.5 79.5h67q5 -28 19 -50.5t43 -40.5q27 -17 60 -25t63 -8v372q-15 4 -33.5 10t-38 13.5
t-37.5 15.5t-31 16q-26 16 -40 37.5t-17 44t4 45t24 41.5q15 17 33 26t37 13.5t37.5 5t34.5 0.5h93v-227zM225 632q-30 0 -47.5 -8t-26 -19.5t-10.5 -23.5t-2 -19q0 -20 11.5 -34t31 -24.5t43.5 -17.5t50 -13v159h-50zM338 45q35 1 72 11.5t63 29.5q38 27 49.5 60t11.5 66
q0 44 -14 76.5t-58 61.5q-19 13 -39 22t-37.5 15.5t-30.5 10t-17 4.5v-357z" />
    <glyph glyph-name="uni0587" unicode="&#x587;" horiz-adv-x="614" 
d="M143 685v-509v-11q0 -21 4.5 -43t24.5 -43q17 -18 40 -26t47 -8q33 0 59 12q38 18 65.5 59.5t27.5 99.5v297h63v-460h130v-53h-185v102h-1q-3 -6 -12.5 -24t-28.5 -37t-49.5 -34t-76.5 -15q-19 0 -48 5t-56.5 24t-47 56.5t-19.5 103.5v504h63z" />
    <glyph glyph-name="uni0589" unicode="&#x589;" horiz-adv-x="282" 
d="M182 86v-86h-82v86h82zM182 513v-86h-82v86h82z" />
    <glyph glyph-name="uni058A" unicode="&#x58a;" horiz-adv-x="472" 
d="M135 70q10 -23 25 -36.5t30.5 -20t30 -8t23.5 -1.5q24 0 45.5 4.5t39 10.5t30 12t19.5 10l14 -28q-60 -34 -102.5 -44t-72.5 -10q-55 0 -87.5 22t-49.5 54z" />
    <glyph glyph-name="uni058D" unicode="&#x58d;" horiz-adv-x="774" 
d="M454 215q0 47 -26 96q28 -5 50.5 -19.5t38.5 -35.5t24.5 -46.5t8.5 -52.5q0 -31 -12.5 -60.5t-34.5 -53t-52 -37.5t-64 -14q-23 0 -48 7t-43 20q33 8 62 26.5t50 44.5t33.5 58t12.5 67zM321 485q0 -24 5.5 -47.5t19.5 -48.5q-53 12 -87 54t-34 99q0 31 12 61t34 53
t52 37.5t66 14.5q24 0 47.5 -7t41.5 -20q-35 -7 -64 -25t-49.5 -44t-32 -58.5t-11.5 -68.5zM200 147q27 0 55.5 8t54 25.5t46.5 45.5t33 67q12 -19 17.5 -42t5.5 -44q0 -29 -11.5 -57t-33.5 -49.5t-52.5 -34.5t-68.5 -13q-35 0 -61.5 10.5t-46 28t-31 40t-16.5 46.5
q20 -14 48.5 -22.5t60.5 -8.5zM589 162q0 27 -8 55.5t-25 54.5t-45 47t-68 33q20 10 43 15.5t43 5.5q29 0 57 -11.5t49.5 -33t34.5 -52.5t13 -69q0 -36 -10.5 -63t-27.5 -46t-39 -31t-46 -16q11 20 20 49.5t9 61.5zM186 537q0 -26 7.5 -54.5t25 -54.5t45 -47.5t66.5 -33.5
q-20 -10 -42.5 -15.5t-41.5 -5.5q-30 0 -57.5 11.5t-49.5 33t-35 52.5t-13 69q0 34 11 60.5t28.5 45.5t40 31t45.5 17q-11 -19 -20.5 -48t-9.5 -61zM576 552q-27 0 -55.5 -8t-55 -25.5t-48 -45.5t-33.5 -68q-10 20 -15.5 43.5t-5.5 43.5q0 29 11.5 57t33.5 49.5t52.5 34.5
t68.5 13q35 0 61.5 -11t45.5 -28.5t30.5 -40t16.5 -45.5q-19 12 -47 21.5t-60 9.5zM247 284q23 0 49 5t52 20q-6 -26 -20 -48t-34.5 -38t-45.5 -25t-52 -9q-31 0 -61 13t-53 35.5t-37.5 51t-14.5 60.5q0 26 6 49t18 40q7 -29 24 -56.5t41.5 -49t56.5 -35t71 -13.5zM522 417
q-23 0 -47 -5.5t-49 -20.5q6 26 20 48t34.5 38t45.5 25t53 9q35 0 65.5 -13.5t52.5 -36t34.5 -51.5t12.5 -61q0 -24 -6.5 -48.5t-18.5 -41.5q-7 31 -22 59.5t-39.5 50.5t-58 35t-77.5 13z" />
    <glyph glyph-name="uni058E" unicode="&#x58e;" horiz-adv-x="758" 
d="M558 640v-136q0 -13 7.5 -29.5t27.5 -16.5q23 0 36 18.5t13 43.5v137q0 34 14 42.5t34 8.5q7 0 17.5 -1t25.5 -6v-35q-11 5 -19 7.5t-16 2.5q-12 0 -12 -17v-228h-37v30q-19 -33 -60 -33q-42 0 -58.5 24t-16.5 61v127h44zM18 195l345 392q11 11 11 23q0 10 -11 23l-33 33
l51 42l57 -63q14 -16 14 -33q0 -29 -19 -49l-293 -330l475 -170v-71zM497 380h236v-45h-236v45z" />
    <glyph glyph-name="uni058F" unicode="&#x58f;" 
d="M260 362h149v98q0 101 -39.5 145.5t-109.5 44.5q-71 0 -110 -44.5t-39 -145.5v-50h-66v50q0 61 15.5 107.5t43.5 77.5t67.5 47t88.5 16t88.5 -16t67.5 -47t43.5 -77.5t15.5 -107.5v-98h90v-56h-90v-82h90v-56h-90v-168h-66v168h-149v56h149v82h-149v56z" />
    <glyph glyph-name="uni1E9E" unicode="&#x1e9e;" horiz-adv-x="620" 
d="M100 480q0 118 53 173t157 55q52 0 104 -18t97 -65l-149 -203q58 -3 95.5 -23t59.5 -49.5t30 -64t8 -65.5q0 -52 -16 -94t-45.5 -72t-71 -46t-92.5 -16q-24 0 -45 3t-45 11v59q20 -8 45.5 -12t44.5 -4q67 0 110.5 45.5t43.5 125.5q0 72 -43 111t-139 39h-30v29l156 212
q-24 20 -54 30t-64 10q-73 0 -108.5 -39t-35.5 -132v-480h-66v480z" />
    <glyph glyph-name="uni2010" unicode="&#x2010;" horiz-adv-x="400" 
d="M80 335h240v-70h-240v70z" />
    <glyph glyph-name="uni2011" unicode="&#x2011;" horiz-adv-x="400" 
d="M80 335h240v-70h-240v70z" />
    <glyph glyph-name="figuredash" unicode="&#x2012;" horiz-adv-x="601" 
d="M86 382h429v-56h-429v56z" />
    <glyph glyph-name="endash" unicode="&#x2013;" horiz-adv-x="700" 
d="M100 328h500v-56h-500v56z" />
    <glyph glyph-name="emdash" unicode="&#x2014;" horiz-adv-x="1000" 
d="M100 328h800v-56h-800v56z" />
    </font>
</defs>
</svg>
