<?xml version="1.0" standalone="no"?>
<!DOCTYPE svg PUBLIC "-//W3C//DTD SVG 1.1//EN" "http://www.w3.org/Graphics/SVG/1.1/DTD/svg11.dtd" >
<svg xmlns="http://www.w3.org/2000/svg" xmlns:xlink="http://www.w3.org/1999/xlink" version="1.1">
<metadata>
Created by FontForge 20170731 at Thu Mar 22 20:32:23 2018
 By Aleksey,,,
Copyright (c) 1992 ParaType Inc., ParaType Ltd. All rights reserved.
</metadata>
<defs>
<font id="VTBGroup-DemiBold" horiz-adv-x="600" >
  <font-face 
    font-family="VTB Group Demi Bold"
    font-weight="600"
    font-stretch="normal"
    units-per-em="1000"
    panose-1="2 11 7 3 5 5 4 2 2 4"
    ascent="773"
    descent="-227"
    x-height="518"
    cap-height="700"
    bbox="-499 -270 1395 1000"
    underline-thickness="50"
    underline-position="-150"
    unicode-range="U+000D-FEFF"
  />
<missing-glyph horiz-adv-x="500" 
d="M442 8v496h-384v-496h384zM50 512h400v-512h-400v512z" />
    <glyph glyph-name="IJ" unicode="IJ" horiz-adv-x="661" 
d="M70 700h142v-700h-142v700zM591 700v-497q0 -35 -5 -72.5t-24 -68.5t-55 -50.5t-97 -19.5q-25 0 -53 3.5t-55 9.5v114q17 -4 35.5 -6.5t32.5 -2.5q47 0 63 28t16 75v487h142z" />
    <glyph glyph-name="ij" unicode="ij" horiz-adv-x="530" 
d="M203 518v-518h-136v518h136zM205 596h-140v140h140v-140zM468 -41q0 -31 -3.5 -63t-19.5 -58.5t-47.5 -43t-87.5 -16.5q-15 0 -29 1t-31 6v96q8 -2 17.5 -3t17.5 -1q16 0 25.5 6t14 16.5t6 24.5t1.5 30v564h136v-559zM470 736v-140h-140v140h140z" />
    <glyph glyph-name="afii10017.var.accented" unicode="&#x410;`" horiz-adv-x="730" 
d="M285 700h160l270 -700h-160l-54 158h-282l-54 -158h-150zM462 273l-101 298h-2l-101 -298h204zM392 880h160l-132 -140h-110z" />
    <glyph glyph-name="afii10022.var.accented" unicode="&#x415;`" horiz-adv-x="538" 
d="M488 700v-124h-276v-158h251v-115h-251v-179h276v-124h-418v700h418zM247 880h160l-132 -140h-110z" />
    <glyph glyph-name="afii10026.var.accented" unicode="&#x418;`" horiz-adv-x="747" 
d="M212 700v-360l-3 -170h3l50 102l245 428h170v-700h-142v361l3 169h-3l-48 -106l-247 -424h-170v700h142zM351 880h160l-132 -140h-110z" />
    <glyph glyph-name="afii10032.var.accented" unicode="&#x41e;`" horiz-adv-x="776" 
d="M388 708q65 0 126.5 -20t109.5 -63.5t77.5 -111.5t29.5 -163t-29.5 -163t-77.5 -111.5t-109.5 -63.5t-126.5 -20t-126.5 20t-109.5 63.5t-77.5 111.5t-29.5 163t29.5 163t77.5 111.5t109.5 63.5t126.5 20zM388 608q-20 0 -52.5 -7t-64 -33t-54 -77.5t-22.5 -140.5
t22.5 -140.5t54 -77.5t64 -33t52.5 -7t52.5 7t64 33t54 77.5t22.5 140.5t-22.5 140.5t-54 77.5t-64 33t-52.5 7zM366 880h160l-132 -140h-110z" />
    <glyph glyph-name="afii10037.var.accented" unicode="&#x423;`" horiz-adv-x="644" 
d="M198 -8q-25 0 -48.5 3.5t-49.5 14.5v110q15 -8 33 -11.5t35 -3.5q33 0 50.5 11t28.5 36l20 47l-257 501h159l139 -298l30 -74h3l30 75l133 297h140l-280 -595q-29 -63 -69.5 -88t-96.5 -25zM363 880h160l-132 -140h-110z" />
    <glyph glyph-name="afii10045.var.accented" unicode="&#x42b;`" horiz-adv-x="880" 
d="M70 700h142v-250h86q142 0 206 -58t64 -167q0 -51 -17 -92.5t-50.5 -71t-84.5 -45.5t-118 -16h-228v700zM418 225q0 115 -120 115h-86v-230h86q120 0 120 115zM668 700h142v-700h-142v700zM466 880h160l-132 -140h-110z" />
    <glyph glyph-name="afii10047.var.accented" unicode="&#x42d;`" horiz-adv-x="640" 
d="M222 -8q-46 0 -92 8t-95 25v124q56 -24 102.5 -33t89.5 -9q54 0 94.5 15.5t67.5 42t41 62t15 76.5h-294v115h294q-4 25 -16 56t-38.5 57t-69.5 44t-109 18q-46 0 -85.5 -8t-76.5 -22v115q41 14 88.5 22t104.5 8q79 0 143.5 -23.5t111 -68.5t72 -109.5t25.5 -145.5
q0 -84 -25 -152t-72.5 -116t-117 -74.5t-158.5 -26.5zM307 880h160l-132 -140h-110z" />
    <glyph glyph-name="afii10048.var.accented" unicode="&#x42e;`" horiz-adv-x="1045" 
d="M316 414q6 67 35 121.5t74.5 93t105 59t126.5 20.5q65 0 126.5 -20t109.5 -63.5t77.5 -111.5t29.5 -163t-29.5 -163t-77.5 -111.5t-109.5 -63.5t-126.5 -20q-75 0 -136.5 24t-105.5 65t-69.5 97t-29.5 121h-104v-299h-142v700h142v-286h104zM657 608q-20 0 -52.5 -7
t-64 -33t-54 -77.5t-22.5 -140.5t22.5 -140.5t54 -77.5t64 -33t52.5 -7t52.5 7t64 33t54 77.5t22.5 140.5t-22.5 140.5t-54 77.5t-64 33t-52.5 7zM500 880h160l-132 -140h-110z" />
    <glyph glyph-name="afii10049.var.accented" unicode="&#x42f;`" horiz-adv-x="638" 
d="M190 277q-66 25 -95.5 75.5t-29.5 124.5q0 50 17 91t51 70.5t85 45.5t120 16h230v-700h-142v254h-96l-126 -254h-169zM215 477q0 -55 30 -84t93 -29h88v226h-88q-63 0 -93 -29t-30 -84zM377 880h160l-132 -140h-110z" />
    <glyph glyph-name="afii10023.var.accented" unicode="&#x401;`" horiz-adv-x="538" 
d="M488 700v-124h-276v-158h251v-115h-251v-179h276v-124h-418v700h418zM186 867v-115h-115v115h115zM457 867v-115h-115v115h115zM286 1000h144l-132 -150h-95z" />
    <glyph glyph-name="afii10065.var.accented" unicode="&#x430;`" horiz-adv-x="581" 
d="M97 492q47 19 92 26.5t98 7.5q79 0 124.5 -20t68.5 -50t29.5 -65t6.5 -64v-327h-133v76h-2q-4 -8 -14 -22.5t-29 -28t-48 -23.5t-71 -10q-49 0 -84 13.5t-57 35.5t-32.5 50.5t-10.5 58.5q0 27 9 57t37 55.5t78 42t133 16.5q19 0 38 -0.5t38 -0.5h12v22q0 21 -9.5 38
t-25.5 28t-37.5 17t-44.5 6q-34 0 -74 -8.5t-92 -37.5v107zM357 235q-28 0 -60.5 -1.5t-60 -9.5t-45.5 -25t-18 -48q0 -28 19 -47.5t64 -19.5q21 0 43 6t40 21t29.5 42t11.5 69v13h-23zM293 590h-83l88 160h140z" />
    <glyph glyph-name="afii10070.var.accented" unicode="&#x435;`" horiz-adv-x="565" 
d="M177 218q1 -25 11 -48t29 -41t47.5 -28.5t66.5 -10.5q45 0 85 9.5t77 26.5v-102q-40 -15 -86 -23.5t-93 -8.5q-58 0 -109 16t-88.5 49t-59.5 83t-22 119q0 63 20.5 112.5t55.5 84t81.5 52.5t98.5 18q59 0 99.5 -17.5t67 -44.5t41 -59.5t21.5 -63.5t8.5 -56t1.5 -36v-31
h-353zM390 311q1 33 -8.5 56t-25.5 37.5t-35 21t-38 6.5q-23 0 -42 -9.5t-33 -25.5t-22.5 -38.5t-8.5 -47.5h213zM293 590h-83l88 160h140z" />
    <glyph glyph-name="afii10074.var.accented" unicode="&#x438;`" horiz-adv-x="639" 
d="M201 518v-272l-4 -93h2l223 365h152v-518h-136v268l4 97h-3l-229 -365h-145v518h136zM323 590h-83l88 160h140z" />
    <glyph glyph-name="afii10080.var.accented" unicode="&#x43e;`" horiz-adv-x="604" 
d="M35 259q0 65 20 115t55.5 83.5t84.5 51t107 17.5t107 -17.5t84.5 -51t55.5 -83.5t20 -115t-20 -115t-55.5 -83.5t-84.5 -51t-107 -17.5t-107 17.5t-84.5 51t-55.5 83.5t-20 115zM177 259q0 -45 11 -77t29 -52.5t40 -30t45 -9.5q22 0 44.5 9.5t40.5 30t29 52.5t11 77
t-11 77t-29 52.5t-40.5 30t-44.5 9.5q-23 0 -45 -9.5t-40 -30t-29 -52.5t-11 -77zM301 590h-83l88 160h140z" />
    <glyph glyph-name="afii10085.var.accented" unicode="&#x443;`" horiz-adv-x="551" 
d="M117 -222q-19 0 -40 4.5t-39 10.5v104q12 -5 26 -9.5t37 -4.5q35 0 57.5 12t36.5 46l12 30l-204 547h150l97 -286l29 -99h5l32 103l94 282h138l-219 -581q-11 -29 -25.5 -57.5t-37.5 -51t-59 -36.5t-90 -14zM323 590h-83l88 160h140z" />
    <glyph glyph-name="afii10093.var.accented" unicode="&#x44b;`" horiz-adv-x="805" 
d="M64 518h136v-168h104q112 0 165.5 -48t53.5 -127t-53.5 -127t-165.5 -48h-240v518zM381 175q0 38 -23 59t-74 21h-84v-160h84q51 0 74 21t23 59zM604 518h136v-518h-136v518zM444 590h-83l88 160h140z" />
    <glyph glyph-name="afii10095.var.accented" unicode="&#x44d;`" horiz-adv-x="488" 
d="M183 -8q-38 0 -67.5 4.5t-49.5 9.5q-24 6 -41 15v102q20 -9 43 -16q20 -6 44.5 -10.5t50.5 -4.5q63 0 103 30.5t48 99.5h-203v94h200q-12 59 -50.5 84.5t-107.5 25.5q-24 0 -45 -4t-37 -9q-18 -6 -34 -13v102q17 7 38 12q18 5 43 8.5t55 3.5q66 0 118 -19t88 -54.5
t55 -85.5t19 -112q0 -59 -19 -107.5t-54 -83t-85 -53.5t-112 -19zM242 590h-83l88 160h140z" />
    <glyph glyph-name="afii10096.var.accented" unicode="&#x44e;`" horiz-adv-x="848" 
d="M281 310q6 52 29 92.5t59 68t81.5 41.5t95.5 14q58 0 107 -17.5t84.5 -51.5t55.5 -84t20 -114t-20 -114t-55.5 -84t-84.5 -51.5t-107 -17.5q-56 0 -102.5 16.5t-81.5 46t-56 70.5t-25 91h-80v-216h-136v518h136v-208h80zM420 259q0 -45 11 -77t29 -52.5t40.5 -30
t45.5 -9.5q57 0 91 46t34 123t-34 123t-91 46q-23 0 -45.5 -9.5t-40.5 -30t-29 -52.5t-11 -77zM403 590h-83l88 160h140z" />
    <glyph glyph-name="afii10097.var.accented" unicode="&#x44f;`" horiz-adv-x="561" 
d="M151 195q-53 20 -78.5 59.5t-25.5 90.5q0 77 53.5 125t165.5 48h230v-518h-136v177h-76l-89 -177h-160zM189 345q0 -36 23 -57t74 -21h74v156h-74q-51 0 -74 -21t-23 -57zM332 590h-83l88 160h140z" />
    <glyph glyph-name="afii10071.var.accented" unicode="&#x451;`" horiz-adv-x="565" 
d="M177 218q1 -25 11 -48t29 -41t47.5 -28.5t66.5 -10.5q45 0 85 9.5t77 26.5v-102q-40 -15 -86 -23.5t-93 -8.5q-58 0 -109 16t-88.5 49t-59.5 83t-22 119q0 63 20.5 112.5t55.5 84t81.5 52.5t98.5 18q59 0 99.5 -17.5t67 -44.5t41 -59.5t21.5 -63.5t8.5 -56t1.5 -36v-31
h-353zM390 311q1 33 -8.5 56t-25.5 37.5t-35 21t-38 6.5q-23 0 -42 -9.5t-33 -25.5t-22.5 -38.5t-8.5 -47.5h213zM218 698v-116h-121v116h121zM469 698v-116h-121v116h121zM314 698h-83l88 160h140z" />
    <glyph glyph-name="fi" unicode="fi" horiz-adv-x="675" 
d="M120 418h-100v100h100v37q0 29 3 64.5t19.5 66t50 51.5t95.5 21q23 0 48.5 -3.5t48.5 -8.5v-96q-4 1 -21 4.5t-35 3.5q-24 0 -38.5 -7t-22 -20.5t-10 -34t-2.5 -48.5v-30h122v-100h-122v-418h-136v418zM608 518v-518h-136v518h136zM610 596h-140v140h140v-140z" />
    <glyph glyph-name="fl" unicode="fl" horiz-adv-x="671" 
d="M120 418h-100v100h100v37q0 29 3 64.5t19.5 66t50 51.5t95.5 21q23 0 48.5 -3.5t48.5 -8.5v-96q-4 1 -21 4.5t-35 3.5q-24 0 -38.5 -7t-22 -20.5t-10 -34t-2.5 -48.5v-30h122v-100h-122v-418h-136v418zM606 750v-750h-136v750h136z" />
    <glyph glyph-name=".notdef" horiz-adv-x="500" 
d="M442 8v496h-384v-496h384zM50 512h400v-512h-400v512z" />
    <glyph glyph-name=".null" horiz-adv-x="0" 
 />
    <glyph glyph-name=".null" horiz-adv-x="0" 
 />
    <glyph glyph-name="uni000D" unicode="&#xd;" horiz-adv-x="233" 
 />
    <glyph glyph-name="space" unicode=" " horiz-adv-x="233" 
 />
    <glyph glyph-name="exclam" unicode="!" horiz-adv-x="283" 
d="M213 134v-134h-142v134h142zM213 700l-16 -491h-111l-16 491h143z" />
    <glyph glyph-name="quotedbl" unicode="&#x22;" horiz-adv-x="470" 
d="M70 700h115v-260h-115v260zM285 700h115v-260h-115v260z" />
    <glyph glyph-name="numbersign" unicode="#" 
d="M328 185h-102l-26 -185h-110l26 185h-76v100h90l18 130h-78v100h92l26 185h110l-26 -185h102l26 185h110l-26 -185h76v-100h-90l-18 -130h78v-100h-92l-26 -185h-110zM240 285h102l18 130h-102z" />
    <glyph glyph-name="dollar" unicode="$" 
d="M259 -8q-48 1 -96 9.5t-97 25.5v127q52 -23 100 -33t93 -11v195l-23 11q-38 18 -70 36t-56 40.5t-37.5 51t-13.5 67.5q0 38 14 72.5t39.5 60.5t62.5 42t84 18v70h80v-66q86 -2 164 -28v-117q-44 20 -85 28t-79 8v-178l29 -12q31 -13 62 -29.5t56 -40t40.5 -56t15.5 -75.5
q0 -50 -18 -87.5t-47 -63t-65.5 -40t-72.5 -19.5v-70h-80v64zM397 191q0 6 -1.5 15.5t-7.5 20t-19 21.5t-35 20v-145q29 10 46 29t17 39zM201 526q0 -15 6 -27.5t15.5 -22t20.5 -16t21 -9.5v140q-27 -6 -45 -24t-18 -41z" />
    <glyph glyph-name="percent" unicode="%" horiz-adv-x="890" 
d="M240 354q-78 0 -124 47t-46 131t46 131t124 47t124 -47t46 -131t-46 -131t-124 -47zM240 437q32 0 51 22t19 73t-19 73t-51 22t-51 -22t-19 -73t19 -73t51 -22zM650 -10q-78 0 -124 47t-46 131t46 131t124 47t124 -47t46 -131t-46 -131t-124 -47zM650 73q32 0 51 22
t19 73t-19 73t-51 22t-51 -22t-19 -73t19 -73t51 -22zM633 700h112l-488 -700h-112z" />
    <glyph glyph-name="ampersand" unicode="&#x26;" horiz-adv-x="742" 
d="M496 46q-48 -30 -97 -43t-109 -13q-62 0 -108 18t-76.5 48.5t-45.5 67.5t-15 81q0 32 11 60.5t30.5 52.5t46.5 42.5t60 29.5q-39 37 -62.5 73.5t-23.5 82.5q0 23 8.5 51.5t31 53.5t61.5 42t99 17q57 0 97 -14t65.5 -36.5t37 -51t11.5 -57.5q0 -40 -15.5 -71t-38 -51.5
t-46.5 -35t-40 -21.5l133 -149q29 42 36.5 84.5t6.5 71.5h123q-1 -27 -5 -58t-14.5 -63.5t-27.5 -65t-43 -61.5l115 -131h-164zM265 309q-12 -5 -26.5 -14.5t-27 -23t-21 -31.5t-8.5 -41q0 -22 8.5 -42t23.5 -33t36.5 -22t47.5 -9q38 0 70.5 12.5t55.5 27.5zM309 447
q15 6 30 16t27 23t19.5 28.5t7.5 33.5q0 27 -22 46t-54 19q-27 0 -50.5 -15t-23.5 -45q0 -15 7.5 -33.5t36.5 -49.5z" />
    <glyph glyph-name="quotesingle" unicode="'" horiz-adv-x="255" 
d="M70 700h115v-260h-115v260z" />
    <glyph glyph-name="parenleft" unicode="(" horiz-adv-x="377" 
d="M40 310q0 51 7 96t26 95.5t52 112t84 146.5h128q-33 -57 -61.5 -108.5t-48.5 -104t-31.5 -110t-11.5 -127.5t11.5 -128t31.5 -110.5t48.5 -103.5t61.5 -108h-128q-51 85 -84 146.5t-52 111.5t-26 95t-7 97z" />
    <glyph glyph-name="parenright" unicode=")" horiz-adv-x="377" 
d="M337 310q0 -51 -7 -96t-26 -95.5t-52 -112t-84 -146.5h-128q33 57 61.5 108.5t48.5 104t31.5 110t11.5 127.5t-11.5 128t-31.5 110.5t-48.5 103.5t-61.5 108h128q51 -85 84 -146.5t52 -111.5t26 -95t7 -97z" />
    <glyph glyph-name="asterisk" unicode="*" horiz-adv-x="482" 
d="M196 306l10 136l-111 -77l-45 77l123 60l-123 60l45 77l111 -77l-10 136h90l-10 -136l111 77l45 -77l-123 -60l123 -60l-45 -77l-111 77l10 -136h-90z" />
    <glyph glyph-name="plus" unicode="+" 
d="M233 285h-183v130h183v185h134v-185h183v-130h-183v-185h-134v185z" />
    <glyph glyph-name="comma" unicode="," horiz-adv-x="287" 
d="M237 135l-69 -250h-118l47 250h140z" />
    <glyph glyph-name="hyphen" unicode="-" horiz-adv-x="400" 
d="M60 360h280v-120h-280v120z" />
    <glyph glyph-name="period" unicode="." horiz-adv-x="260" 
d="M200 0h-140v142h140v-142z" />
    <glyph glyph-name="slash" unicode="/" horiz-adv-x="360" 
d="M250 700h130l-270 -700h-130z" />
    <glyph glyph-name="zero" unicode="0" 
d="M300 -8q-41 0 -85 12t-81 49.5t-60.5 108t-23.5 188.5t23.5 188.5t60.5 108t81 49.5t85 12t85 -12t81 -49.5t60.5 -108t23.5 -188.5t-23.5 -188.5t-60.5 -108t-81 -49.5t-85 -12zM300 112q36 0 58 21.5t33.5 55.5t15 76.5t3.5 84.5t-3.5 84.5t-15 76.5t-33.5 55.5
t-58 21.5t-58 -21.5t-33.5 -55.5t-15 -76.5t-3.5 -84.5t3.5 -84.5t15 -76.5t33.5 -55.5t58 -21.5z" />
    <glyph glyph-name="one" unicode="1" 
d="M278 547l-119 -109l-69 87l202 175h128v-700h-142v547z" />
    <glyph glyph-name="two" unicode="2" 
d="M75 116q94 86 154 144t94.5 100.5t47 74.5t12.5 67q0 41 -29 67.5t-83 26.5q-48 0 -96.5 -18.5t-89.5 -42.5v122q70 32 123 41.5t89 9.5q57 0 100 -14t72 -39.5t44 -60t15 -74.5q0 -49 -17.5 -94.5t-53 -93t-90 -99.5t-127.5 -115l1 -3h304v-115h-470v116z" />
    <glyph glyph-name="three" unicode="3" 
d="M250 -8q-42 0 -89.5 6t-100.5 23v121q36 -16 80.5 -28t90.5 -12q75 0 109.5 30t34.5 75q0 46 -35 73.5t-123 27.5h-72v110h65q90 0 125 27.5t35 73.5q0 33 -29 56t-99 23q-44 0 -87 -10t-81 -24v117q42 11 91.5 19t98.5 8q66 0 113.5 -13.5t78 -37t45 -56.5t14.5 -72
q0 -63 -35 -106.5t-95 -51.5v-3q60 -11 97.5 -56t37.5 -109q0 -44 -17.5 -82t-52 -67t-84.5 -45.5t-116 -16.5z" />
    <glyph glyph-name="four" unicode="4" 
d="M338 145h-303v114l260 441h183v-445h87v-110h-87v-145h-140v145zM338 255v306h-2l-174 -306h176z" />
    <glyph glyph-name="five" unicode="5" 
d="M245 -8q-53 0 -94 7t-76 19v123q48 -20 87.5 -27.5t62.5 -7.5q83 0 119 31.5t36 87.5t-36 87.5t-119 31.5q-25 0 -61.5 -3.5t-76.5 -16.5l20 376h393v-110h-261l-10 -139q24 3 48 3q57 0 103 -16t78.5 -46t49.5 -72.5t17 -94.5q0 -107 -69 -170t-211 -63z" />
    <glyph glyph-name="six" unicode="6" 
d="M305 -8q-51 0 -96 18.5t-79.5 59t-54.5 104.5t-20 156q0 95 22 166t61.5 118t93.5 70.5t118 23.5q46 0 79.5 -5t70.5 -18v-118q-29 12 -65.5 21.5t-74.5 9.5q-36 0 -67 -14.5t-54 -40.5t-38 -62.5t-19 -81.5h3q29 38 66 53.5t80 15.5q49 0 88.5 -17t67.5 -47t43 -72
t15 -93q0 -52 -16.5 -97t-47.5 -78.5t-75.5 -52.5t-100.5 -19zM301 102q19 0 37 6.5t32 21.5t22 39.5t8 60.5t-8 60.5t-22 39.5t-32 21.5t-37 6.5q-20 0 -37.5 -6.5t-31.5 -21.5t-22 -39.5t-8 -60.5t8 -60.5t22 -39.5t31.5 -21.5t37.5 -6.5z" />
    <glyph glyph-name="seven" unicode="7" 
d="M380 590h-315v110h460v-105l-256 -595h-159z" />
    <glyph glyph-name="eight" unicode="8" 
d="M175 367q-51 22 -77.5 62.5t-26.5 91.5q0 45 16.5 78t49.5 59q35 28 75.5 39t87.5 11t92.5 -13t77.5 -39q23 -19 41 -48.5t18 -73.5q0 -51 -27.5 -94t-81.5 -63q59 -20 94 -65.5t35 -111.5q0 -105 -86 -163q-33 -23 -75.5 -34t-87.5 -11q-44 0 -90.5 12t-78.5 34
q-34 23 -57 63t-23 97q0 61 33.5 105.5t90.5 63.5zM310 422q11 4 28.5 14.5t34.5 31.5q11 14 16 27t5 24q0 16 -7 33.5t-26 30.5q-26 18 -61 18q-17 0 -33.5 -4.5t-30.5 -15.5q-18 -14 -24 -29.5t-6 -29.5q0 -20 10 -36t24 -27q11 -9 33 -20t37 -17zM287 309
q-18 -8 -35.5 -20t-29.5 -26q-14 -16 -20 -32t-6 -36q0 -23 7 -38t17 -25q14 -14 37 -22t46 -8q31 0 50 10t29 21q11 12 16.5 28.5t5.5 33.5q0 26 -12 42.5t-26 27.5q-16 13 -37.5 24.5t-41.5 19.5z" />
    <glyph glyph-name="nine" unicode="9" 
d="M295 708q51 0 96 -18.5t79.5 -59t54.5 -105t20 -155.5q0 -95 -22 -166t-61.5 -118t-93.5 -70.5t-118 -23.5q-46 0 -79.5 5t-70.5 18v118q29 -12 65.5 -21.5t74.5 -9.5q36 0 67 14.5t54 40.5t37.5 62.5t19.5 81.5h-3q-29 -38 -66 -53.5t-80 -15.5q-49 0 -88.5 17t-67.5 47
t-43 72t-15 93q0 52 16.5 97t47.5 78.5t75.5 52.5t100.5 19zM299 598q-20 0 -37.5 -6.5t-31.5 -21.5t-22 -39.5t-8 -60.5t8 -60.5t22 -39.5t31.5 -21.5t37.5 -6.5q19 0 37 6.5t32 21.5t22 39.5t8 60.5t-8 60.5t-22 39.5t-32 21.5t-37 6.5z" />
    <glyph glyph-name="colon" unicode=":" horiz-adv-x="260" 
d="M200 376h-140v142h140v-142zM200 0h-140v142h140v-142z" />
    <glyph glyph-name="semicolon" unicode=";" horiz-adv-x="287" 
d="M228 376h-140v142h140v-142zM237 135l-69 -250h-118l47 250h140z" />
    <glyph glyph-name="less" unicode="&#x3c;" 
d="M50 281v138l500 216v-135l-355 -147l355 -147v-141z" />
    <glyph glyph-name="equal" unicode="=" 
d="M50 315h500v-130h-500v130zM50 515h500v-130h-500v130z" />
    <glyph glyph-name="greater" unicode="&#x3e;" 
d="M50 200l355 147l-355 147v141l500 -216v-138l-500 -216v135z" />
    <glyph glyph-name="question" unicode="?" horiz-adv-x="528" 
d="M180 219q0 25 4 46t14 42t28 45t45 56q8 9 18 21t18.5 25.5t14.5 29t6 32.5q0 35 -21.5 59.5t-76.5 24.5q-46 0 -92 -9.5t-88 -30.5v117q48 16 95.5 24t99.5 8q66 0 110.5 -15.5t71.5 -40.5t39 -55t12 -58q0 -33 -9 -61t-23 -52t-31.5 -44t-34.5 -38q-14 -14 -26.5 -27.5
t-22.5 -28t-15.5 -32t-5.5 -38.5v-20h-130v20zM175 124h140v-124h-140v124z" />
    <glyph glyph-name="at" unicode="@" horiz-adv-x="850" 
d="M450 -135q-88 0 -161.5 29.5t-126.5 82t-82.5 125t-29.5 158.5q0 92 29 167.5t81 129.5t122 83.5t153 29.5q82 0 149.5 -25.5t115.5 -70.5t74 -105t26 -129q0 -71 -18 -122.5t-47 -85.5t-66 -50t-74 -16q-49 0 -73 18t-32 46q-22 -32 -49.5 -48t-70.5 -16q-29 0 -55 12
t-45.5 34.5t-31 54t-11.5 71.5q0 50 16 91.5t43 71.5t62 46.5t73 16.5q29 0 59 -11.5t45 -34.5h2l7 42h91l-40 -222q-9 -50 -9 -63q0 -10 7 -18.5t24 -8.5q15 0 33 11.5t33.5 35t26 59.5t10.5 86q0 52 -18.5 96.5t-53.5 76t-86 49.5t-117 18q-64 0 -117 -22t-91.5 -63
t-60 -100.5t-21.5 -134.5q0 -69 21.5 -125.5t61.5 -96.5t96.5 -61.5t125.5 -21.5q57 0 98 10t73 26v-95q-29 -13 -72 -22t-99 -9zM400 158q41 0 70.5 35.5t29.5 112.5q0 30 -18.5 48t-51.5 18q-45 0 -74 -36.5t-29 -97.5q0 -38 20.5 -59t52.5 -21z" />
    <glyph glyph-name="A" unicode="A" horiz-adv-x="730" 
d="M285 700h160l270 -700h-160l-54 158h-282l-54 -158h-150zM462 273l-101 298h-2l-101 -298h204z" />
    <glyph glyph-name="B" unicode="B" horiz-adv-x="613" 
d="M300 700q51 0 94 -10.5t73.5 -32t48 -54t17.5 -76.5q0 -39 -11 -67t-27.5 -47t-36.5 -30t-39 -17v-2q68 -11 107.5 -56t39.5 -111q0 -33 -11.5 -67.5t-42 -63.5t-84 -47.5t-137.5 -18.5h-221v700h230zM212 416h69q34 0 55.5 9t33.5 22.5t16 28.5t4 27q0 7 -2.5 22t-14 29
t-34.5 25t-64 11h-63v-174zM212 110h79q33 0 57 8.5t39 22t22 31t7 36.5t-6 36.5t-20 31t-38 22t-61 8.5h-79v-196z" />
    <glyph glyph-name="C" unicode="C" horiz-adv-x="630" 
d="M409 -8q-65 0 -130 19.5t-117 62t-84.5 109.5t-32.5 163q0 90 30 158t82.5 113.5t123.5 68t154 22.5q42 0 78.5 -5.5t76.5 -18.5v-122q-31 12 -65.5 20t-79.5 8q-59 0 -105.5 -17.5t-78.5 -49.5t-49 -76.5t-17 -98.5q0 -63 20 -108.5t53 -74t76.5 -42t90.5 -13.5
q54 0 91.5 11.5t63.5 23.5v-123q-47 -16 -93 -23t-88 -7z" />
    <glyph glyph-name="D" unicode="D" horiz-adv-x="717" 
d="M291 700q31 0 71.5 -3.5t82.5 -15.5t83 -35t73 -62t51.5 -96t19.5 -138q0 -38 -6 -79t-21.5 -80t-42.5 -73.5t-69 -60.5t-102 -41.5t-140 -15.5h-221v700h221zM212 118h81q11 0 32 1.5t46.5 8.5t52 22t48.5 40.5t36 64.5t14 95t-14 95t-36 64.5t-48.5 40.5t-52 22
t-46.5 8.5t-32 1.5h-81v-464z" />
    <glyph glyph-name="E" unicode="E" horiz-adv-x="538" 
d="M488 700v-124h-276v-158h251v-115h-251v-179h276v-124h-418v700h418z" />
    <glyph glyph-name="F" unicode="F" horiz-adv-x="492" 
d="M462 700v-118h-250v-170h238v-115h-238v-297h-142v700h392z" />
    <glyph glyph-name="G" unicode="G" horiz-adv-x="729" 
d="M414 -8q-83 0 -151 24t-116.5 69.5t-75 112t-26.5 152.5q0 87 27.5 153.5t78 112t122 69t159.5 23.5q55 0 103 -6t102 -24v-128q-54 25 -106.5 34.5t-101.5 9.5q-53 0 -96.5 -17t-74 -48.5t-47 -76.5t-16.5 -102q0 -56 16 -100.5t46 -75.5t72 -47.5t94 -16.5q26 0 48 2.5
t46 11.5v167h-143v110h285v-371q-12 -3 -37 -9.5t-58 -13t-71.5 -11t-78.5 -4.5z" />
    <glyph glyph-name="H" unicode="H" horiz-adv-x="708" 
d="M212 700v-282h284v282h142v-700h-142v303h-284v-303h-142v700h142z" />
    <glyph glyph-name="I" unicode="I" horiz-adv-x="282" 
d="M70 700h142v-700h-142v700z" />
    <glyph glyph-name="J" unicode="J" horiz-adv-x="379" 
d="M309 700v-497q0 -35 -5 -72.5t-24 -68.5t-55 -50.5t-97 -19.5q-25 0 -53 3.5t-55 9.5v114q17 -4 35.5 -6.5t32.5 -2.5q47 0 63 28t16 75v487h142z" />
    <glyph glyph-name="K" unicode="K" horiz-adv-x="662" 
d="M212 700v-299h3l253 299h169l-292 -317l310 -383h-180l-260 348h-3v-348h-142v700h142z" />
    <glyph glyph-name="L" unicode="L" horiz-adv-x="510" 
d="M212 700v-582h278v-118h-420v700h142z" />
    <glyph glyph-name="M" unicode="M" horiz-adv-x="870" 
d="M70 700h217l153 -360l153 360h207v-700h-142v550h-2l-155 -360h-132l-155 360h-2v-550h-142v700z" />
    <glyph glyph-name="N" unicode="N" horiz-adv-x="745" 
d="M254 700l242 -441l37 -95h3l-3 124v412h142v-700h-184l-244 458l-35 78h-3l3 -124v-412h-142v700h184z" />
    <glyph glyph-name="O" unicode="O" horiz-adv-x="776" 
d="M388 708q65 0 126.5 -20t109.5 -63.5t77.5 -111.5t29.5 -163t-29.5 -163t-77.5 -111.5t-109.5 -63.5t-126.5 -20t-126.5 20t-109.5 63.5t-77.5 111.5t-29.5 163t29.5 163t77.5 111.5t109.5 63.5t126.5 20zM388 608q-20 0 -52.5 -7t-64 -33t-54 -77.5t-22.5 -140.5
t22.5 -140.5t54 -77.5t64 -33t52.5 -7t52.5 7t64 33t54 77.5t22.5 140.5t-22.5 140.5t-54 77.5t-64 33t-52.5 7z" />
    <glyph glyph-name="P" unicode="P" horiz-adv-x="586" 
d="M276 700q67 0 118 -16t84.5 -45.5t50.5 -71t17 -92.5q0 -109 -64 -167t-206 -58h-64v-250h-142v700h206zM276 360q120 0 120 115t-120 115h-64v-230h64z" />
    <glyph glyph-name="Q" unicode="Q" horiz-adv-x="776" 
d="M398 -8h-10q-81 1 -144.5 26.5t-107.5 72t-67.5 112.5t-23.5 147q0 95 29.5 163t77.5 111.5t109.5 63.5t126.5 20t126.5 -20t109.5 -63.5t77.5 -111.5t29.5 -163q0 -36 -6.5 -82t-27 -92t-60 -88t-105.5 -69l163 -151h-168zM388 608q-20 0 -52.5 -7t-64 -33t-54 -77.5
t-22.5 -140.5t22.5 -140.5t54 -77.5t64 -33t52.5 -7t52.5 7t64 33t54 77.5t22.5 140.5t-22.5 140.5t-54 77.5t-64 33t-52.5 7z" />
    <glyph glyph-name="R" unicode="R" horiz-adv-x="630" 
d="M70 700h210q69 0 120 -16t85 -45.5t51 -70.5t17 -91q0 -69 -25.5 -117t-80.5 -75l148 -285h-159l-117 255q-9 -1 -18.5 -1h-20.5h-68v-254h-142v700zM403 477q0 55 -30 84t-93 29h-68v-226h68q63 0 93 29t30 84z" />
    <glyph glyph-name="S" unicode="S" horiz-adv-x="552" 
d="M53 155q42 -20 91.5 -34t96.5 -14q28 0 49.5 7.5t35 19.5t20.5 27t7 30q0 27 -13 45.5t-33.5 32t-45.5 24.5t-49 23q-39 19 -69.5 38t-51 41.5t-31 50.5t-10.5 65q0 26 9 60t33 64.5t67 51.5t111 21q50 0 101 -6.5t99 -23.5v-118q-31 13 -74 26.5t-94 13.5
q-33 0 -53.5 -7.5t-32 -18.5t-15.5 -24t-4 -24q0 -21 8.5 -36.5t21.5 -27.5t29.5 -20.5t33.5 -15.5q44 -19 82.5 -37.5t67.5 -44t45.5 -61t16.5 -87.5q0 -42 -16.5 -79t-49.5 -64.5t-83 -44t-118 -16.5q-51 0 -96.5 10t-85.5 25v128z" />
    <glyph glyph-name="T" unicode="T" horiz-adv-x="576" 
d="M561 700v-124h-202v-576h-142v576h-202v124h546z" />
    <glyph glyph-name="U" unicode="U" horiz-adv-x="724" 
d="M654 266q0 -25 -3.5 -55t-13.5 -60.5t-29.5 -59t-52 -50.5t-79.5 -35.5t-112 -13.5q-22 0 -52.5 2.5t-63 11t-64.5 26t-57.5 48t-41 76t-15.5 110.5v434h142v-434q0 -19 3.5 -47t18.5 -54t45 -44.5t83 -18.5t83 18.5t45 44.5t18.5 54t3.5 47v434h142v-434z" />
    <glyph glyph-name="V" unicode="V" horiz-adv-x="671" 
d="M157 700l151 -455l31 -108h2l30 108l153 455h142l-242 -700h-175l-244 700h152z" />
    <glyph glyph-name="W" unicode="W" horiz-adv-x="1043" 
d="M1023 700l-189 -700h-180l-107 455l-24 134h-2l-22 -134l-103 -455h-183l-193 700h149l104 -418l30 -158h2l28 158l94 418h192l99 -418l29 -158h2l29 158l102 418h143z" />
    <glyph glyph-name="X" unicode="X" horiz-adv-x="669" 
d="M194 700l112 -195l32 -59h3l32 59l115 195h155l-213 -334l234 -366h-168l-134 222l-30 54h-3l-30 -54l-139 -222h-155l234 366l-213 334h168z" />
    <glyph glyph-name="Y" unicode="Y" horiz-adv-x="642" 
d="M159 700l144 -246l22 -48h3l24 48l145 246h150l-252 -416v-284h-142v286l-258 414h164z" />
    <glyph glyph-name="Z" unicode="Z" horiz-adv-x="591" 
d="M207 124h334v-124h-491v119l326 459l-81 -2h-236v124h471v-122z" />
    <glyph glyph-name="bracketleft" unicode="[" horiz-adv-x="361" 
d="M60 750h251v-99h-116v-692h116v-99h-251v890z" />
    <glyph glyph-name="backslash" unicode="\" horiz-adv-x="360" 
d="M-20 700h130l270 -700h-130z" />
    <glyph glyph-name="bracketright" unicode="]" horiz-adv-x="361" 
d="M50 -41h116v692h-116v99h251v-890h-251v99z" />
    <glyph glyph-name="asciicircum" unicode="^" 
d="M234 700h132l204 -350h-132l-138 240l-138 -240h-132z" />
    <glyph glyph-name="underscore" unicode="_" horiz-adv-x="500" 
d="M0 -75h500v-50h-500v50z" />
    <glyph glyph-name="grave" unicode="`" horiz-adv-x="343" 
d="M194 750l88 -160h-83l-145 160h140z" />
    <glyph glyph-name="a" unicode="a" horiz-adv-x="581" 
d="M97 492q47 19 92 26.5t98 7.5q79 0 124.5 -20t68.5 -50t29.5 -65t6.5 -64v-327h-133v76h-2q-4 -8 -14 -22.5t-29 -28t-48 -23.5t-71 -10q-49 0 -84 13.5t-57 35.5t-32.5 50.5t-10.5 58.5q0 27 9 57t37 55.5t78 42t133 16.5q19 0 38 -0.5t38 -0.5h12v22q0 21 -9.5 38
t-25.5 28t-37.5 17t-44.5 6q-34 0 -74 -8.5t-92 -37.5v107zM357 235q-28 0 -60.5 -1.5t-60 -9.5t-45.5 -25t-18 -48q0 -28 19 -47.5t64 -19.5q21 0 43 6t40 21t29.5 42t11.5 69v13h-23z" />
    <glyph glyph-name="b" unicode="b" horiz-adv-x="608" 
d="M201 750v-217l-3 -85h2q20 35 57 56.5t92 21.5q54 0 95.5 -20t70 -55.5t43.5 -84.5t15 -107q0 -67 -18.5 -117t-48.5 -83.5t-69.5 -50t-81.5 -16.5q-19 0 -42 4t-46.5 14.5t-44.5 29.5t-36 50h-2v-90h-119v750h136zM201 259q0 -41 10 -71t26.5 -49.5t37 -29t41.5 -9.5
t41.5 9.5t37 29t26.5 49.5t10 71t-10 71t-26.5 49.5t-37 29t-41.5 9.5t-41.5 -9.5t-37 -29t-26.5 -49.5t-10 -71z" />
    <glyph glyph-name="c" unicode="c" horiz-adv-x="463" 
d="M305 -8q-69 0 -120 23t-84.5 61.5t-49.5 87.5t-16 100q0 52 18 99.5t53 83.5t87.5 57.5t121.5 21.5q26 0 56 -3t59 -11v-101q-19 8 -40.5 12.5t-51.5 4.5q-34 0 -63.5 -12t-51 -34.5t-34 -54t-12.5 -70.5q0 -35 10.5 -65.5t30 -53t47.5 -35.5t64 -13q55 0 109 23v-101
q-19 -6 -53.5 -13t-79.5 -7z" />
    <glyph glyph-name="d" unicode="d" horiz-adv-x="605" 
d="M543 750v-750h-119v90h-2q-9 -16 -22.5 -33.5t-33.5 -31.5t-48 -23.5t-65 -9.5q-50 0 -90 18.5t-68.5 53.5t-44 84t-15.5 111q0 71 20 121.5t52.5 83t72.5 47.5t79 15q57 0 93 -23t56 -55h2l-3 85v217h136zM407 259q0 41 -10 71t-26.5 49.5t-37 29t-41.5 9.5t-41.5 -9.5
t-37 -29t-26.5 -49.5t-10 -71t10 -71t26.5 -49.5t37 -29t41.5 -9.5t41.5 9.5t37 29t26.5 49.5t10 71z" />
    <glyph glyph-name="e" unicode="e" horiz-adv-x="565" 
d="M177 218q1 -25 11 -48t29 -41t47.5 -28.5t66.5 -10.5q45 0 85 9.5t77 26.5v-102q-40 -15 -86 -23.5t-93 -8.5q-58 0 -109 16t-88.5 49t-59.5 83t-22 119q0 63 20.5 112.5t55.5 84t81.5 52.5t98.5 18q59 0 99.5 -17.5t67 -44.5t41 -59.5t21.5 -63.5t8.5 -56t1.5 -36v-31
h-353zM390 311q1 33 -8.5 56t-25.5 37.5t-35 21t-38 6.5q-23 0 -42 -9.5t-33 -25.5t-22.5 -38.5t-8.5 -47.5h213z" />
    <glyph glyph-name="f" unicode="f" horiz-adv-x="405" 
d="M120 418h-100v100h100v37q0 29 3 64.5t19.5 66t50 51.5t95.5 21q23 0 48.5 -3.5t48.5 -8.5v-96q-4 1 -21 4.5t-35 3.5q-24 0 -38.5 -7t-22 -20.5t-10 -34t-2.5 -48.5v-30h122v-100h-122v-418h-136v418z" />
    <glyph glyph-name="g" unicode="g" horiz-adv-x="612" 
d="M283 -222q-37 0 -86.5 6.5t-106.5 29.5v119q42 -21 85.5 -34.5t85.5 -13.5q73 0 111.5 37t38.5 102v68h-3q-4 -9 -14 -25t-28.5 -31.5t-46.5 -26.5t-69 -11q-59 0 -100 23.5t-66.5 61t-37 83.5t-11.5 91q0 61 16 110.5t44 85t67 54.5t86 19q8 0 29 -1t46 -10t50.5 -28.5
t42.5 -55.5h3v87h128v-477q0 -15 -1.5 -40.5t-9 -54.5t-23.5 -59t-45.5 -54t-74.5 -39.5t-110 -15.5zM287 411q-29 0 -49.5 -12.5t-34 -33.5t-20 -48.5t-6.5 -56.5q0 -49 12.5 -79t30.5 -46.5t39 -22.5t38 -6q22 0 42.5 10t36.5 30.5t25.5 51t9.5 72.5q0 66 -33.5 103.5
t-90.5 37.5z" />
    <glyph glyph-name="h" unicode="h" horiz-adv-x="612" 
d="M65 750h136v-233l-5 -80h3q6 8 18 23t31.5 29.5t48 25.5t67.5 11q45 0 76.5 -12t51.5 -30.5t31.5 -41t16.5 -43t6 -36t1 -20.5v-343h-136v298q0 15 -1.5 35.5t-10 38.5t-26 30.5t-50.5 12.5q-21 0 -42.5 -9t-39.5 -27.5t-29 -48.5t-11 -72v-258h-136v750z" />
    <glyph glyph-name="i" unicode="i" horiz-adv-x="270" 
d="M203 518v-518h-136v518h136zM205 596h-140v140h140v-140z" />
    <glyph glyph-name="j" unicode="j" horiz-adv-x="260" 
d="M198 -41q0 -31 -3.5 -63t-19.5 -58.5t-47.5 -43t-87.5 -16.5q-15 0 -29 1t-31 6v96q8 -2 17.5 -3t17.5 -1q16 0 25.5 6t14 16.5t6 24.5t1.5 30v564h136v-559zM200 736v-140h-140v140h140z" />
    <glyph glyph-name="k" unicode="k" horiz-adv-x="552" 
d="M201 750v-447h5l162 215h156l-190 -235l208 -283h-166l-170 263h-5v-263h-136v750h136z" />
    <glyph glyph-name="l" unicode="l" horiz-adv-x="266" 
d="M201 750v-750h-136v750h136z" />
    <glyph glyph-name="m" unicode="m" horiz-adv-x="902" 
d="M65 0v518h129v-88h3q23 50 66 73t93 23q35 0 59.5 -9t41.5 -23t26.5 -31t14.5 -34h3q28 52 74 74.5t96 22.5q17 0 45 -4.5t55 -22.5t46.5 -54t19.5 -100v-345h-136v291q0 18 -1 39.5t-8 40.5t-23 31.5t-45 12.5q-20 0 -38.5 -8t-33.5 -24t-24 -40t-9 -57v-286h-136v291
q0 23 -2 45.5t-10 40t-23 28t-40 10.5q-18 0 -37 -7t-34.5 -22.5t-25.5 -40t-10 -59.5v-286h-136z" />
    <glyph glyph-name="n" unicode="n" horiz-adv-x="612" 
d="M65 0v518h131v-81h3q19 28 41 45.5t44.5 27.5t43 13t35.5 3q40 0 74 -11t58.5 -31.5t38 -51t13.5 -69.5v-363h-136v313q0 19 -5 37t-15.5 32.5t-27 23.5t-40.5 9q-32 0 -55 -13.5t-38 -33.5t-22 -44t-7 -45v-279h-136z" />
    <glyph glyph-name="o" unicode="o" horiz-adv-x="604" 
d="M35 259q0 65 20 115t55.5 83.5t84.5 51t107 17.5t107 -17.5t84.5 -51t55.5 -83.5t20 -115t-20 -115t-55.5 -83.5t-84.5 -51t-107 -17.5t-107 17.5t-84.5 51t-55.5 83.5t-20 115zM177 259q0 -45 11 -77t29 -52.5t40 -30t45 -9.5q22 0 44.5 9.5t40.5 30t29 52.5t11 77
t-11 77t-29 52.5t-40.5 30t-44.5 9.5q-23 0 -45 -9.5t-40 -30t-29 -52.5t-11 -77z" />
    <glyph glyph-name="p" unicode="p" horiz-adv-x="608" 
d="M65 -214v732h119v-90h2q20 35 45.5 55t50.5 29.5t45 11.5t28 2q44 0 83.5 -14.5t69.5 -47t47.5 -83t17.5 -122.5t-19 -122.5t-50.5 -82.5t-72 -47t-82.5 -15q-57 0 -92.5 23t-56.5 55h-2l3 -85v-199h-136zM201 259q0 -41 10 -71t26.5 -49.5t37 -29t41.5 -9.5t41.5 9.5
t37 29t26.5 49.5t10 71t-10 71t-26.5 49.5t-37 29t-41.5 9.5t-41.5 -9.5t-37 -29t-26.5 -49.5t-10 -71z" />
    <glyph glyph-name="q" unicode="q" horiz-adv-x="608" 
d="M407 -14l3 85h-2q-52 -79 -149 -79q-43 0 -83 15t-71.5 47.5t-50.5 83.5t-19 122q0 67 17.5 117t47.5 83t69.5 49.5t83.5 16.5q63 0 105 -27.5t64 -69.5h2v89h119v-732h-136v200zM407 259q0 41 -10 71t-26.5 49.5t-37 29t-41.5 9.5t-41.5 -9.5t-37 -29t-26.5 -49.5
t-10 -71t10 -71t26.5 -49.5t37 -29t41.5 -9.5t41.5 9.5t37 29t26.5 49.5t10 71z" />
    <glyph glyph-name="r" unicode="r" horiz-adv-x="396" 
d="M65 518h124v-112h3q4 24 15.5 45.5t28.5 38t41 26.5t54 10q10 0 22 -2t23 -4v-100q-11 2 -24.5 3t-24.5 1q-18 0 -40 -7t-41 -26t-32 -53.5t-13 -88.5v-249h-136v518z" />
    <glyph glyph-name="s" unicode="s" horiz-adv-x="454" 
d="M212 -8q-39 0 -86 8t-86 22v108q3 -1 16 -7t34 -12.5t47 -12t55 -5.5q26 0 43 6t26.5 14.5t13 18t3.5 17.5q0 16 -7 27t-19.5 19t-29 14t-34.5 13q-31 11 -56.5 23.5t-44 30t-28.5 41t-10 56.5q0 22 8 48.5t29 50t58 39t94 15.5q11 0 29.5 -0.5t41 -2.5t47 -6.5
t48.5 -12.5v-102q-14 5 -46.5 17t-83.5 12q-32 0 -50.5 -6.5t-27.5 -15.5t-11 -18t-2 -14q0 -17 8.5 -27.5t22 -18t29.5 -12.5l32 -10q22 -7 46.5 -18t45 -29t34 -45t13.5 -65q0 -31 -12 -59.5t-37 -51t-63 -36t-90 -13.5z" />
    <glyph glyph-name="t" unicode="t" horiz-adv-x="396" 
d="M10 418v100h102v103l136 43v-146h120v-100h-120v-235q0 -17 1 -33.5t7.5 -29t20 -20.5t38.5 -8q14 0 27.5 2.5t25.5 6.5v-96q-3 -1 -13 -3t-24.5 -4.5t-32 -4t-35.5 -1.5q-56 0 -87 20t-45 47t-16.5 53.5t-2.5 39.5v266h-102z" />
    <glyph glyph-name="u" unicode="u" horiz-adv-x="612" 
d="M547 518v-518h-131v81h-3q-19 -29 -41 -46t-44.5 -27t-43 -13t-35.5 -3q-23 0 -55 5t-60.5 24t-48.5 57t-20 105v335h136v-313q0 -13 2 -30.5t10.5 -33.5t26 -27t49.5 -11q30 0 52.5 12t38 32t23.5 45.5t8 51.5v274h136z" />
    <glyph glyph-name="v" unicode="v" horiz-adv-x="565" 
d="M159 518l109 -320l21 -76h3l19 76l105 320h139l-191 -518h-160l-194 518h149z" />
    <glyph glyph-name="w" unicode="w" horiz-adv-x="909" 
d="M155 518l86 -287l26 -106h2l24 109l85 284h161l88 -287l26 -107h2l25 108l82 286h137l-170 -518h-161l-95 322l-20 86h-3l-18 -85l-90 -323h-161l-171 518h145z" />
    <glyph glyph-name="x" unicode="x" horiz-adv-x="567" 
d="M187 518l72 -121l30 -59h3l31 61l68 119h151l-159 -251l174 -267h-162l-86 138l-31 58h-3l-32 -60l-82 -136h-151l174 267l-159 251h162z" />
    <glyph glyph-name="y" unicode="y" horiz-adv-x="551" 
d="M117 -222q-19 0 -40 4.5t-39 10.5v104q12 -5 26 -9.5t37 -4.5q35 0 57.5 12t36.5 46l12 30l-204 547h150l97 -286l29 -99h5l32 103l94 282h138l-219 -581q-11 -29 -25.5 -57.5t-37.5 -51t-59 -36.5t-90 -14z" />
    <glyph glyph-name="z" unicode="z" horiz-adv-x="537" 
d="M477 518v-100l-221 -265l-46 -50v-3h277v-100h-437v103l230 264l45 48v3h-262v100h414z" />
    <glyph glyph-name="braceleft" unicode="{" horiz-adv-x="444" 
d="M358 -140q-76 0 -120 17t-66 44.5t-28 61.5t-6 68v98q0 13 -2 31t-10.5 35t-26 29t-47.5 12h-22v99h22q30 0 47.5 12t26 29t10.5 35t2 31v97q0 34 6 68t28 61.5t66 44.5t120 17h26v-99h-11q-19 0 -38 -2t-34 -13t-24 -34t-9 -64v-57q0 -20 -1.5 -44.5t-9.5 -48
t-25.5 -43.5t-49.5 -31l-18 -6v-5l18 -6q32 -11 49.5 -31t25.5 -43.5t9.5 -48t1.5 -44.5v-58q0 -41 9 -64t24 -34t34 -13t38 -2h11v-99h-26v0z" />
    <glyph glyph-name="bar" unicode="|" horiz-adv-x="280" 
d="M70 750h140v-890h-140v890z" />
    <glyph glyph-name="braceright" unicode="}" horiz-adv-x="444" 
d="M60 -41h11q19 0 38 2t34 13t24 34t9 64v58q0 20 1.5 44.5t9.5 48t25.5 43.5t49.5 31l18 6v5l-18 6q-32 11 -49.5 31t-25.5 43.5t-9.5 48t-1.5 44.5v57q0 41 -9 64t-24 34t-34 13t-38 2h-11v99h26q76 0 120 -17t66 -44.5t28 -61.5t6 -68v-97q0 -13 2 -31t10.5 -35t26 -29
t47.5 -12h22v-99h-22q-30 0 -47.5 -12t-26 -29t-10.5 -35t-2 -31v-98q0 -34 -6 -68t-28 -61.5t-66 -44.5t-120 -17h-26v99z" />
    <glyph glyph-name="asciitilde" unicode="~" 
d="M50 357q26 37 64 62.5t81 25.5q37 0 65.5 -12t52.5 -27t46 -27t46 -12q34 0 58 17t47 51l40 -92q-26 -37 -64 -62.5t-81 -25.5q-38 0 -66 12t-52 27t-46 27t-46 12q-34 0 -58 -17t-47 -51z" />
    <glyph glyph-name="uni00A0" unicode="&#xa0;" horiz-adv-x="233" 
 />
    <glyph glyph-name="exclamdown" unicode="&#xa1;" horiz-adv-x="302" 
d="M80 518h142v-134h-142v134zM95 309h112l25 -523h-162z" />
    <glyph glyph-name="cent" unicode="&#xa2;" 
d="M290 1q-49 12 -84.5 38.5t-59 62t-35 77t-11.5 85.5q0 42 12 82t36 73t59.5 58t82.5 37v104h130v-94q38 -3 75 -12v-101q-19 8 -40.5 12.5t-51.5 4.5q-34 0 -63.5 -12t-51 -34.5t-34 -54t-12.5 -70.5q0 -35 10.5 -65.5t30 -53t47.5 -35.5t64 -13q55 0 109 23v-101
q-14 -5 -35 -9.5t-48 -7.5v-95h-130v101z" />
    <glyph glyph-name="sterling" unicode="&#xa3;" 
d="M50 118h73v197h-73v90h74v55q0 125 67 186.5t195 61.5q39 0 65 -4t59 -14v-104q-34 11 -60 16.5t-57 5.5q-63 0 -95 -39.5t-32 -108.5v-55h171v-90h-172v-197h245v-118h-460v118z" />
    <glyph glyph-name="currency" unicode="&#xa4;" 
d="M60 161l57 57q-20 28 -31 61.5t-11 70.5t11 70t31 61l-57 58l51 51l57 -58q28 20 61.5 31.5t70.5 11.5t70 -11.5t61 -31.5l58 58l51 -51l-58 -58q20 -28 31.5 -61t11.5 -70t-11.5 -70.5t-31.5 -61.5l58 -57l-51 -51l-58 57q-28 -20 -61 -31t-70 -11t-70.5 11t-61.5 31
l-57 -57zM300 222q27 0 50 10t40.5 27.5t27.5 40.5t10 50t-10 50t-27.5 40.5t-40.5 27.5t-50 10t-50 -10t-40.5 -27.5t-27.5 -40.5t-10 -50t10 -50t27.5 -40.5t40.5 -27.5t50 -10z" />
    <glyph glyph-name="yen" unicode="&#xa5;" 
d="M229 140h-141v90h141v58h-141v90h109l-202 322h147l163 -281l163 281h137l-200 -322h107v-90h-141v-58h141v-90h-141v-140h-142v140z" />
    <glyph glyph-name="brokenbar" unicode="&#xa6;" horiz-adv-x="280" 
d="M70 232h140v-372h-140v372zM70 750h140v-338h-140v338z" />
    <glyph glyph-name="section" unicode="&#xa7;" horiz-adv-x="540" 
d="M244 -158q-57 0 -101 13.5t-63 23.5v102q14 -7 32 -15.5t38.5 -15.5t42 -11.5t43.5 -4.5q49 0 72 19.5t23 47.5q0 20 -11.5 36.5t-29 30.5t-38.5 26.5t-41 25.5q-26 17 -51.5 34.5t-45.5 37.5t-32 44.5t-12 54.5q0 23 9 44.5t22.5 39.5t30 32.5t30.5 23.5q-12 11 -25 24
t-23.5 28.5t-17 34.5t-6.5 42q0 29 13 56t37 47.5t59 32.5t80 12q57 0 95.5 -10.5t55.5 -18.5v-102q-27 14 -60.5 26.5t-78.5 12.5q-39 0 -58 -16.5t-19 -39.5q0 -17 10.5 -32.5t27 -29.5t36.5 -27t40 -24q25 -14 50 -29.5t45.5 -35t33.5 -44t13 -55.5q0 -22 -7 -43.5
t-18 -41.5t-25 -37.5t-28 -31.5q23 -20 43 -49.5t20 -78.5q0 -33 -13 -62t-39.5 -50.5t-66 -34t-92.5 -12.5zM234 381q-18 -17 -31 -35t-13 -44q0 -18 13 -35t32.5 -32.5t41.5 -29t39 -24.5q14 17 24 34t10 46q0 17 -5 29t-18 25t-35.5 28t-57.5 38z" />
    <glyph glyph-name="dieresis" unicode="&#xa8;" horiz-adv-x="390" 
d="M160 726v-116h-120v116h120zM350 726v-116h-120v116h120z" />
    <glyph glyph-name="copyright" unicode="&#xa9;" horiz-adv-x="836" 
d="M418 -8q-74 0 -139 28t-114 77t-77 114t-28 139t28 139t77 114t114 77t139 28t139 -28t114 -77t77 -114t28 -139t-28 -139t-77 -114t-114 -77t-139 -28zM418 66q58 0 108 22.5t87 61t58 90t21 110.5t-21 110.5t-58 90t-87 61t-108 22.5t-108 -22.5t-87 -61t-58 -90
t-21 -110.5t21 -110.5t58 -90t87 -61t108 -22.5zM439 132q-49 0 -86.5 16.5t-62.5 45.5t-38 68.5t-13 85.5t13 86t37.5 69.5t61.5 46t85 16.5q32 0 58 -6.5t37 -11.5v-75q-11 6 -33.5 14.5t-51.5 8.5q-24 0 -45.5 -8t-37 -25.5t-25 -46t-9.5 -68.5t9.5 -68t25 -45t37 -25
t45.5 -8q28 0 50 6t35 16v-77q-11 -6 -37 -10.5t-55 -4.5z" />
    <glyph glyph-name="ordfeminine" unicode="&#xaa;" horiz-adv-x="447" 
d="M107 687q23 11 55.5 16t58.5 5q42 0 69 -10t42.5 -26.5t21 -38.5t5.5 -45v-196h-80v46h-1q-1 -2 -6.5 -10.5t-17 -17.5t-29.5 -16t-44 -7q-39 0 -61 12t-33 27.5t-14 31.5t-3 24q0 18 6.5 36.5t24 33.5t47 24t76.5 9q11 0 23 -0.5t23 -0.5h7v13q0 26 -22 40t-48 14
q-29 0 -51.5 -7t-48.5 -21v64zM263 533q-18 0 -37.5 -1t-35.5 -6t-26.5 -15t-10.5 -28q0 -6 2 -13t7.5 -13.5t15 -10.5t25.5 -4q9 0 21.5 2.5t24 10.5t20 24.5t8.5 45.5v8h-14z" />
    <glyph glyph-name="guillemotleft" unicode="&#xab;" horiz-adv-x="588" 
d="M302 104h-141l-121 211l121 203h141l-121 -203zM548 104h-141l-121 211l121 203h141l-121 -203z" />
    <glyph glyph-name="logicalnot" unicode="&#xac;" horiz-adv-x="638" 
d="M50 415h500v-325h-134v195h-366v130z" />
    <glyph glyph-name="uni00AD" unicode="&#xad;" horiz-adv-x="400" 
d="M60 360h280v-120h-280v120z" />
    <glyph glyph-name="registered" unicode="&#xae;" horiz-adv-x="836" 
d="M418 -8q-74 0 -139 28t-114 77t-77 114t-28 139t28 139t77 114t114 77t139 28t139 -28t114 -77t77 -114t28 -139t-28 -139t-77 -114t-114 -77t-139 -28zM418 66q58 0 108 22.5t87 61t58 90t21 110.5t-21 110.5t-58 90t-87 61t-108 22.5t-108 -22.5t-87 -61t-58 -90
t-21 -110.5t21 -110.5t58 -90t87 -61t108 -22.5zM278 556h141q77 0 113 -34t36 -97q0 -91 -72 -119l72 -157h-88l-58 145h-66v-145h-78v407zM489 426q0 36 -16 52t-54 16h-63v-138h63q38 0 54 16.5t16 53.5z" />
    <glyph glyph-name="macron" unicode="&#xaf;" horiz-adv-x="381" 
d="M321 685v-74h-261v74h261z" />
    <glyph glyph-name="degree" unicode="&#xb0;" horiz-adv-x="400" 
d="M200 424q-30 0 -56 11t-45.5 30.5t-30.5 45.5t-11 56t11 56t30.5 45.5t45.5 30.5t56 11t56 -11t45.5 -30.5t30.5 -45.5t11 -56t-11 -56t-30.5 -45.5t-45.5 -30.5t-56 -11zM200 494q30 0 51.5 21.5t21.5 51.5t-21.5 51.5t-51.5 21.5t-51.5 -21.5t-21.5 -51.5t21.5 -51.5
t51.5 -21.5z" />
    <glyph glyph-name="plusminus" unicode="&#xb1;" horiz-adv-x="638" 
d="M69 205h500v-130h-500v130zM252 380h-183v130h183v135h134v-135h183v-130h-183v-135h-134v135z" />
    <glyph glyph-name="twosuperior" unicode="&#xb2;" horiz-adv-x="434" 
d="M77 360q50 44 82.5 77.5t51.5 58t26.5 42t7.5 30.5q0 22 -15 38t-49 16q-12 0 -27 -3t-29.5 -8t-28 -11t-23.5 -12v92q33 13 67.5 20.5t69.5 7.5q48 0 77.5 -13t46 -32.5t22 -41.5t5.5 -39q0 -28 -11.5 -54t-33.5 -52t-53.5 -53t-71.5 -57h169v-86h-283v80z" />
    <glyph glyph-name="threesuperior" unicode="&#xb3;" horiz-adv-x="434" 
d="M202 272q-48 0 -84 7.5t-53 12.5v91q25 -9 54 -17t63 -8q38 0 54.5 14t16.5 38q0 23 -16.5 37t-55.5 14h-39v76h36q41 0 56.5 12.5t15.5 34.5q0 17 -13.5 27.5t-48.5 10.5q-38 0 -66.5 -7.5t-45.5 -13.5v87q66 20 134 20q42 0 72 -8.5t48.5 -22.5t27 -33t8.5 -40
q0 -36 -20 -64t-58 -36v-2q38 -8 59.5 -36.5t21.5 -64.5q0 -25 -10 -48t-30 -41t-52 -29t-75 -11z" />
    <glyph glyph-name="acute" unicode="&#xb4;" horiz-adv-x="328" 
d="M143 590h-83l88 160h140z" />
    <glyph glyph-name="mu" unicode="&#xb5;" horiz-adv-x="612" 
d="M65 518h136v-313q0 -32 8 -52t21 -31t28.5 -15t30.5 -4q24 0 46 9t39 27t27 44.5t10 60.5v274h136v-518h-131v81h-3q-8 -15 -19.5 -31t-28 -29t-38 -21t-48.5 -8q-38 0 -59 16t-32 48h-4v-270h-119v732z" />
    <glyph glyph-name="paragraph" unicode="&#xb6;" horiz-adv-x="680" 
d="M240 350h-45q-36 0 -68 14t-56 37.5t-37.5 55.5t-13.5 68t13.5 68t37.5 56t56 37.5t68 13.5h415v-840h-137v725h-91v-725h-142v490z" />
    <glyph glyph-name="periodcentered" unicode="&#xb7;" horiz-adv-x="260" 
d="M60 371h140v-142h-140v142z" />
    <glyph glyph-name="cedilla" unicode="&#xb8;" horiz-adv-x="183" 
d="M113 -7l-5 -25q19 0 33.5 -8.5t23.5 -21t13.5 -28t4.5 -30.5q0 -17 -6.5 -32.5t-20 -28.5t-34.5 -20.5t-49 -7.5q-26 0 -44 8.5t-29 16.5l25 51q8 -6 21 -11.5t24 -5.5t25 5.5t14 24.5q0 20 -12.5 29t-31.5 9q-8 0 -15 -0.5t-15 -2.5l18 87z" />
    <glyph glyph-name="onesuperior" unicode="&#xb9;" horiz-adv-x="434" 
d="M331 700v-420h-116v318l-72 -63l-40 60l120 105h108z" />
    <glyph glyph-name="ordmasculine" unicode="&#xba;" horiz-adv-x="460" 
d="M70 547q0 78 45 119.5t115 41.5t115 -41.5t45 -119.5q0 -77 -45 -118.5t-115 -41.5t-115 41.5t-45 118.5zM155 547q0 -54 23.5 -77.5t51.5 -23.5t51.5 23.5t23.5 77.5q0 27 -6.5 46.5t-17 32t-24 18t-27.5 5.5t-27.5 -5.5t-24 -18t-17 -32t-6.5 -46.5z" />
    <glyph glyph-name="guillemotright" unicode="&#xbb;" horiz-adv-x="588" 
d="M40 518h141l121 -203l-121 -211h-141l121 211zM286 518h141l121 -203l-121 -211h-141l121 211z" />
    <glyph glyph-name="onequarter" unicode="&#xbc;" horiz-adv-x="960" 
d="M268 700v-420h-116v318l-72 -63l-40 60l120 105h108zM668 700h112l-488 -700h-112zM734 84h-191v72l178 265h129v-251h54v-86h-54v-83h-116v83zM744 159v140h-4l-94 -140h98z" />
    <glyph glyph-name="onehalf" unicode="&#xbd;" horiz-adv-x="960" 
d="M268 700v-420h-116v318l-72 -63l-40 60l120 105h108zM668 700h112l-488 -700h-112zM607 81q50 44 82.5 77.5t51.5 58t26.5 42t7.5 30.5q0 22 -15 38t-49 16q-12 0 -27 -3t-29.5 -8t-28 -11t-23.5 -12v92q33 13 67.5 20.5t69.5 7.5q48 0 77.5 -13t46 -32.5t22 -41.5
t5.5 -39q0 -28 -11.5 -54t-33.5 -52t-53.5 -53t-71.5 -57h169v-86h-283v80z" />
    <glyph glyph-name="threequarters" unicode="&#xbe;" horiz-adv-x="960" 
d="M177 272q-48 0 -84 7.5t-53 12.5v91q25 -9 54 -17t63 -8q38 0 54.5 14t16.5 38q0 23 -16.5 37t-55.5 14h-39v76h36q41 0 56.5 12.5t15.5 34.5q0 17 -13.5 27.5t-48.5 10.5q-38 0 -66.5 -7.5t-45.5 -13.5v87q66 20 134 20q42 0 72 -8.5t48.5 -22.5t27 -33t8.5 -40
q0 -36 -20 -64t-58 -36v-2q38 -8 59.5 -36.5t21.5 -64.5q0 -25 -10 -48t-30 -41t-52 -29t-75 -11zM668 700h112l-488 -700h-112zM734 84h-191v72l178 265h129v-251h54v-86h-54v-83h-116v83zM744 159v140h-4l-94 -140h98z" />
    <glyph glyph-name="questiondown" unicode="&#xbf;" horiz-adv-x="508" 
d="M203 518h140v-124h-140v124zM273 -223q-66 0 -110.5 15.5t-72 40t-39 54.5t-11.5 59q0 37 9 68t23 57.5t31.5 48.5t34.5 40q14 15 27 30t22.5 31.5t15 35.5t5.5 42v20h130v-20q0 -32 -5.5 -57t-16.5 -48.5t-28 -48t-41 -55.5q-21 -28 -39 -57t-18 -63q0 -42 25.5 -63
t72.5 -21q46 0 92 10.5t88 31.5v-119q-48 -17 -94.5 -24.5t-100.5 -7.5z" />
    <glyph glyph-name="Agrave" unicode="&#xc0;" horiz-adv-x="730" 
d="M285 700h160l270 -700h-160l-54 158h-282l-54 -158h-150zM462 273l-101 298h-2l-101 -298h204zM310 740l-132 140h160l82 -140h-110z" />
    <glyph glyph-name="Aacute" unicode="&#xc1;" horiz-adv-x="730" 
d="M285 700h160l270 -700h-160l-54 158h-282l-54 -158h-150zM462 273l-101 298h-2l-101 -298h204zM392 880h160l-132 -140h-110z" />
    <glyph glyph-name="Acircumflex" unicode="&#xc2;" horiz-adv-x="730" 
d="M285 700h160l270 -700h-160l-54 158h-282l-54 -158h-150zM462 273l-101 298h-2l-101 -298h204zM310 740h-114l113 140h112l113 -140h-114l-55 64z" />
    <glyph glyph-name="Atilde" unicode="&#xc3;" horiz-adv-x="730" 
d="M285 700h160l270 -700h-160l-54 158h-282l-54 -158h-150zM462 273l-101 298h-2l-101 -298h204zM185 732q1 13 7 34.5t18.5 42.5t34.5 36t56 15q9 0 26.5 -2.5t46.5 -13.5q19 -7 34 -12.5t36 -5.5q14 0 22.5 5t14 12.5t7.5 15.5t2 14h55q-5 -37 -17 -62t-28.5 -40
t-35.5 -21t-36 -6t-34.5 5.5t-37.5 12.5q-28 10 -43 14t-26 4q-15 0 -24 -5.5t-14 -13t-7 -16t-2 -13.5h-55z" />
    <glyph glyph-name="Adieresis" unicode="&#xc4;" horiz-adv-x="730" 
d="M285 700h160l270 -700h-160l-54 158h-282l-54 -158h-150zM462 273l-101 298h-2l-101 -298h204zM308 867v-115h-115v115h115zM537 867v-115h-115v115h115z" />
    <glyph glyph-name="Aring" unicode="&#xc5;" horiz-adv-x="730" 
d="M285 700h160l270 -700h-160l-54 158h-282l-54 -158h-150zM462 273l-101 298h-2l-101 -298h204zM259 830q0 45 30.5 75.5t75.5 30.5t75.5 -30.5t30.5 -75.5t-30.5 -75.5t-75.5 -30.5t-75.5 30.5t-30.5 75.5zM309 830q0 -23 16.5 -39.5t39.5 -16.5t39.5 16.5t16.5 39.5
t-16.5 39.5t-39.5 16.5t-39.5 -16.5t-16.5 -39.5z" />
    <glyph glyph-name="AE" unicode="&#xc6;" horiz-adv-x="946" 
d="M909 700v-121h-270l14 -160h235v-123h-222l15 -175h235v-121h-376l-13 159h-267l-88 -159h-165l396 700h506zM492 593h-4l-60 -117l-110 -199h200z" />
    <glyph glyph-name="Ccedilla" unicode="&#xc7;" horiz-adv-x="630" 
d="M409 -8q-65 0 -130 19.5t-117 62t-84.5 109.5t-32.5 163q0 90 30 158t82.5 113.5t123.5 68t154 22.5q42 0 78.5 -5.5t76.5 -18.5v-122q-31 12 -65.5 20t-79.5 8q-59 0 -105.5 -17.5t-78.5 -49.5t-49 -76.5t-17 -98.5q0 -63 20 -108.5t53 -74t76.5 -42t90.5 -13.5
q54 0 91.5 11.5t63.5 23.5v-123q-47 -16 -93 -23t-88 -7zM415 18l-14 -83q21 0 40 -6.5t33.5 -19t23 -31.5t8.5 -45q0 -45 -33 -73.5t-105 -28.5q-28 0 -49.5 5.5t-44.5 19.5l25 57q9 -6 21.5 -10.5t29.5 -4.5q29 0 41.5 9.5t12.5 26.5q0 23 -15.5 36.5t-41.5 13.5
q-8 0 -15.5 -1t-15.5 -4l27 143z" />
    <glyph glyph-name="Egrave" unicode="&#xc8;" horiz-adv-x="538" 
d="M488 700v-124h-276v-158h251v-115h-251v-179h276v-124h-418v700h418zM262 740l-132 140h160l82 -140h-110z" />
    <glyph glyph-name="Eacute" unicode="&#xc9;" horiz-adv-x="538" 
d="M488 700v-124h-276v-158h251v-115h-251v-179h276v-124h-418v700h418zM247 880h160l-132 -140h-110z" />
    <glyph glyph-name="Ecircumflex" unicode="&#xca;" horiz-adv-x="538" 
d="M488 700v-124h-276v-158h251v-115h-251v-179h276v-124h-418v700h418zM214 740h-114l113 140h112l113 -140h-114l-55 64z" />
    <glyph glyph-name="Edieresis" unicode="&#xcb;" horiz-adv-x="538" 
d="M488 700v-124h-276v-158h251v-115h-251v-179h276v-124h-418v700h418zM212 867v-115h-115v115h115zM441 867v-115h-115v115h115z" />
    <glyph glyph-name="Igrave" unicode="&#xcc;" horiz-adv-x="282" 
d="M70 700h142v-700h-142v700zM136 740l-132 140h160l82 -140h-110z" />
    <glyph glyph-name="Iacute" unicode="&#xcd;" horiz-adv-x="282" 
d="M70 700h142v-700h-142v700zM120 880h160l-132 -140h-110z" />
    <glyph glyph-name="Icircumflex" unicode="&#xce;" horiz-adv-x="282" 
d="M70 700h142v-700h-142v700zM87 740h-114l113 140h112l113 -140h-114l-55 64z" />
    <glyph glyph-name="Idieresis" unicode="&#xcf;" horiz-adv-x="282" 
d="M70 700h142v-700h-142v700zM85 867v-115h-115v115h115zM314 867v-115h-115v115h115z" />
    <glyph glyph-name="Eth" unicode="&#xd0;" horiz-adv-x="748" 
d="M322 700q31 0 71.5 -3.5t82.5 -15.5t83 -35t73 -62t51.5 -96t19.5 -138q0 -38 -6 -79t-21.5 -80t-42.5 -73.5t-69 -60.5t-102 -41.5t-140 -15.5h-221v302h-91v90h91v308h221zM243 392h181v-90h-181v-184h81q11 0 32 1.5t46.5 8.5t52 22t48.5 40.5t36 64.5t14 95t-14 95
t-36 64.5t-48.5 40.5t-52 22t-46.5 8.5t-32 1.5h-81v-190z" />
    <glyph glyph-name="Ntilde" unicode="&#xd1;" horiz-adv-x="745" 
d="M254 700l242 -441l37 -95h3l-3 124v412h142v-700h-184l-244 458l-35 78h-3l3 -124v-412h-142v700h184zM192 732q1 13 7 34.5t18.5 42.5t34.5 36t56 15q9 0 26.5 -2.5t46.5 -13.5q19 -7 34 -12.5t36 -5.5q14 0 22.5 5t14 12.5t7.5 15.5t2 14h55q-5 -37 -17 -62t-28.5 -40
t-35.5 -21t-36 -6t-34.5 5.5t-37.5 12.5q-28 10 -43 14t-26 4q-15 0 -24 -5.5t-14 -13t-7 -16t-2 -13.5h-55z" />
    <glyph glyph-name="Ograve" unicode="&#xd2;" horiz-adv-x="776" 
d="M388 708q65 0 126.5 -20t109.5 -63.5t77.5 -111.5t29.5 -163t-29.5 -163t-77.5 -111.5t-109.5 -63.5t-126.5 -20t-126.5 20t-109.5 63.5t-77.5 111.5t-29.5 163t29.5 163t77.5 111.5t109.5 63.5t126.5 20zM388 608q-20 0 -52.5 -7t-64 -33t-54 -77.5t-22.5 -140.5
t22.5 -140.5t54 -77.5t64 -33t52.5 -7t52.5 7t64 33t54 77.5t22.5 140.5t-22.5 140.5t-54 77.5t-64 33t-52.5 7zM381 740l-132 140h160l82 -140h-110z" />
    <glyph glyph-name="Oacute" unicode="&#xd3;" horiz-adv-x="776" 
d="M388 708q65 0 126.5 -20t109.5 -63.5t77.5 -111.5t29.5 -163t-29.5 -163t-77.5 -111.5t-109.5 -63.5t-126.5 -20t-126.5 20t-109.5 63.5t-77.5 111.5t-29.5 163t29.5 163t77.5 111.5t109.5 63.5t126.5 20zM388 608q-20 0 -52.5 -7t-64 -33t-54 -77.5t-22.5 -140.5
t22.5 -140.5t54 -77.5t64 -33t52.5 -7t52.5 7t64 33t54 77.5t22.5 140.5t-22.5 140.5t-54 77.5t-64 33t-52.5 7zM366 880h160l-132 -140h-110z" />
    <glyph glyph-name="Ocircumflex" unicode="&#xd4;" horiz-adv-x="776" 
d="M388 708q65 0 126.5 -20t109.5 -63.5t77.5 -111.5t29.5 -163t-29.5 -163t-77.5 -111.5t-109.5 -63.5t-126.5 -20t-126.5 20t-109.5 63.5t-77.5 111.5t-29.5 163t29.5 163t77.5 111.5t109.5 63.5t126.5 20zM388 608q-20 0 -52.5 -7t-64 -33t-54 -77.5t-22.5 -140.5
t22.5 -140.5t54 -77.5t64 -33t52.5 -7t52.5 7t64 33t54 77.5t22.5 140.5t-22.5 140.5t-54 77.5t-64 33t-52.5 7zM333 740h-114l113 140h112l113 -140h-114l-55 64z" />
    <glyph glyph-name="Otilde" unicode="&#xd5;" horiz-adv-x="776" 
d="M388 708q65 0 126.5 -20t109.5 -63.5t77.5 -111.5t29.5 -163t-29.5 -163t-77.5 -111.5t-109.5 -63.5t-126.5 -20t-126.5 20t-109.5 63.5t-77.5 111.5t-29.5 163t29.5 163t77.5 111.5t109.5 63.5t126.5 20zM388 608q-20 0 -52.5 -7t-64 -33t-54 -77.5t-22.5 -140.5
t22.5 -140.5t54 -77.5t64 -33t52.5 -7t52.5 7t64 33t54 77.5t22.5 140.5t-22.5 140.5t-54 77.5t-64 33t-52.5 7zM208 732q1 13 7 34.5t18.5 42.5t34.5 36t56 15q9 0 26.5 -2.5t46.5 -13.5q19 -7 34 -12.5t36 -5.5q14 0 22.5 5t14 12.5t7.5 15.5t2 14h55q-5 -37 -17 -62
t-28.5 -40t-35.5 -21t-36 -6t-34.5 5.5t-37.5 12.5q-28 10 -43 14t-26 4q-15 0 -24 -5.5t-14 -13t-7 -16t-2 -13.5h-55z" />
    <glyph glyph-name="Odieresis" unicode="&#xd6;" horiz-adv-x="776" 
d="M388 708q65 0 126.5 -20t109.5 -63.5t77.5 -111.5t29.5 -163t-29.5 -163t-77.5 -111.5t-109.5 -63.5t-126.5 -20t-126.5 20t-109.5 63.5t-77.5 111.5t-29.5 163t29.5 163t77.5 111.5t109.5 63.5t126.5 20zM388 608q-20 0 -52.5 -7t-64 -33t-54 -77.5t-22.5 -140.5
t22.5 -140.5t54 -77.5t64 -33t52.5 -7t52.5 7t64 33t54 77.5t22.5 140.5t-22.5 140.5t-54 77.5t-64 33t-52.5 7zM331 867v-115h-115v115h115zM560 867v-115h-115v115h115z" />
    <glyph glyph-name="multiply" unicode="&#xd7;" 
d="M70 201l147 147l-147 147l85 85l147 -147l147 147l81 -81l-147 -147l147 -147l-85 -85l-147 147l-147 -147z" />
    <glyph glyph-name="Oslash" unicode="&#xd8;" horiz-adv-x="776" 
d="M138 89q-30 30 -48.5 63t-28 67t-13 67.5t-3.5 63.5q0 95 29.5 163t77.5 111.5t109.5 63.5t126.5 20q69 0 119.5 -17.5t90.5 -45.5l63 76l51 -42l-65 -78q25 -30 41.5 -59.5t26 -60t13 -63t3.5 -68.5q0 -95 -29.5 -163t-77.5 -111.5t-109.5 -63.5t-126.5 -20
q-67 0 -115 16t-86 41l-73 -87l-50 38zM521 552q-32 33 -67 44.5t-66 11.5q-21 0 -53.5 -7t-63.5 -33t-53.5 -77.5t-22.5 -140.5q0 -45 6.5 -81.5t23.5 -74.5zM263 141q7 -7 18 -15.5t26.5 -16t35.5 -12.5t45 -5q20 0 53 7t64 33t53.5 77.5t22.5 140.5q0 44 -6 77.5
t-18 65.5z" />
    <glyph glyph-name="Ugrave" unicode="&#xd9;" horiz-adv-x="724" 
d="M654 266q0 -25 -3.5 -55t-13.5 -60.5t-29.5 -59t-52 -50.5t-79.5 -35.5t-112 -13.5q-22 0 -52.5 2.5t-63 11t-64.5 26t-57.5 48t-41 76t-15.5 110.5v434h142v-434q0 -19 3.5 -47t18.5 -54t45 -44.5t83 -18.5t83 18.5t45 44.5t18.5 54t3.5 47v434h142v-434zM355 740
l-132 140h160l82 -140h-110z" />
    <glyph glyph-name="Uacute" unicode="&#xda;" horiz-adv-x="724" 
d="M654 266q0 -25 -3.5 -55t-13.5 -60.5t-29.5 -59t-52 -50.5t-79.5 -35.5t-112 -13.5q-22 0 -52.5 2.5t-63 11t-64.5 26t-57.5 48t-41 76t-15.5 110.5v434h142v-434q0 -19 3.5 -47t18.5 -54t45 -44.5t83 -18.5t83 18.5t45 44.5t18.5 54t3.5 47v434h142v-434zM340 880h160
l-132 -140h-110z" />
    <glyph glyph-name="Ucircumflex" unicode="&#xdb;" horiz-adv-x="724" 
d="M654 266q0 -25 -3.5 -55t-13.5 -60.5t-29.5 -59t-52 -50.5t-79.5 -35.5t-112 -13.5q-22 0 -52.5 2.5t-63 11t-64.5 26t-57.5 48t-41 76t-15.5 110.5v434h142v-434q0 -19 3.5 -47t18.5 -54t45 -44.5t83 -18.5t83 18.5t45 44.5t18.5 54t3.5 47v434h142v-434zM307 740h-114
l113 140h112l113 -140h-114l-55 64z" />
    <glyph glyph-name="Udieresis" unicode="&#xdc;" horiz-adv-x="724" 
d="M654 266q0 -25 -3.5 -55t-13.5 -60.5t-29.5 -59t-52 -50.5t-79.5 -35.5t-112 -13.5q-22 0 -52.5 2.5t-63 11t-64.5 26t-57.5 48t-41 76t-15.5 110.5v434h142v-434q0 -19 3.5 -47t18.5 -54t45 -44.5t83 -18.5t83 18.5t45 44.5t18.5 54t3.5 47v434h142v-434zM305 867v-115
h-115v115h115zM534 867v-115h-115v115h115z" />
    <glyph glyph-name="Yacute" unicode="&#xdd;" horiz-adv-x="642" 
d="M159 700l144 -246l22 -48h3l24 48l145 246h150l-252 -416v-284h-142v286l-258 414h164zM313 880h160l-132 -140h-110z" />
    <glyph glyph-name="Thorn" unicode="&#xde;" horiz-adv-x="586" 
d="M212 700v-131h65q63 0 108 -13t75 -34t47 -46t25.5 -49.5t11 -45t2.5 -31.5q0 -35 -13 -73t-41.5 -70.5t-75 -53.5t-113.5 -21h-91v-132h-142v700h142zM277 242q32 0 54.5 10t37 26t21 36t6.5 40q0 44 -28.5 74.5t-90.5 30.5h-65v-217h65z" />
    <glyph glyph-name="germandbls" unicode="&#xdf;" horiz-adv-x="609" 
d="M60 510q0 61 18 109t50.5 81t78.5 50.5t102 17.5q63 0 108.5 -16t74.5 -43.5t43 -63t14 -74.5q0 -27 -7 -54.5t-23 -50.5t-41.5 -39.5t-61.5 -20.5v-3q36 -3 65.5 -17.5t50 -38.5t31.5 -56.5t11 -69.5q0 -45 -12 -87t-39 -74.5t-70 -52t-105 -19.5q-12 0 -36.5 2
t-56.5 10v111q20 -8 40.5 -11t38.5 -3q28 0 47.5 10.5t31.5 28t17.5 40t5.5 47.5q0 57 -30 92.5t-87 35.5h-36v102h36q16 0 32 5.5t29 19t21 34.5t8 53q0 30 -9 50.5t-23.5 33t-32.5 18.5t-36 6t-38 -6.5t-36.5 -24.5t-27 -49.5t-10.5 -82.5v-510h-136v510z" />
    <glyph glyph-name="agrave" unicode="&#xe0;" horiz-adv-x="581" 
d="M97 492q47 19 92 26.5t98 7.5q79 0 124.5 -20t68.5 -50t29.5 -65t6.5 -64v-327h-133v76h-2q-4 -8 -14 -22.5t-29 -28t-48 -23.5t-71 -10q-49 0 -84 13.5t-57 35.5t-32.5 50.5t-10.5 58.5q0 27 9 57t37 55.5t78 42t133 16.5q19 0 38 -0.5t38 -0.5h12v22q0 21 -9.5 38
t-25.5 28t-37.5 17t-44.5 6q-34 0 -74 -8.5t-92 -37.5v107zM357 235q-28 0 -60.5 -1.5t-60 -9.5t-45.5 -25t-18 -48q0 -28 19 -47.5t64 -19.5q21 0 43 6t40 21t29.5 42t11.5 69v13h-23zM313 750l88 -160h-83l-145 160h140z" />
    <glyph glyph-name="aacute" unicode="&#xe1;" horiz-adv-x="581" 
d="M97 492q47 19 92 26.5t98 7.5q79 0 124.5 -20t68.5 -50t29.5 -65t6.5 -64v-327h-133v76h-2q-4 -8 -14 -22.5t-29 -28t-48 -23.5t-71 -10q-49 0 -84 13.5t-57 35.5t-32.5 50.5t-10.5 58.5q0 27 9 57t37 55.5t78 42t133 16.5q19 0 38 -0.5t38 -0.5h12v22q0 21 -9.5 38
t-25.5 28t-37.5 17t-44.5 6q-34 0 -74 -8.5t-92 -37.5v107zM357 235q-28 0 -60.5 -1.5t-60 -9.5t-45.5 -25t-18 -48q0 -28 19 -47.5t64 -19.5q21 0 43 6t40 21t29.5 42t11.5 69v13h-23zM293 590h-83l88 160h140z" />
    <glyph glyph-name="acircumflex" unicode="&#xe2;" horiz-adv-x="581" 
d="M97 492q47 19 92 26.5t98 7.5q79 0 124.5 -20t68.5 -50t29.5 -65t6.5 -64v-327h-133v76h-2q-4 -8 -14 -22.5t-29 -28t-48 -23.5t-71 -10q-49 0 -84 13.5t-57 35.5t-32.5 50.5t-10.5 58.5q0 27 9 57t37 55.5t78 42t133 16.5q19 0 38 -0.5t38 -0.5h12v22q0 21 -9.5 38
t-25.5 28t-37.5 17t-44.5 6q-34 0 -74 -8.5t-92 -37.5v107zM357 235q-28 0 -60.5 -1.5t-60 -9.5t-45.5 -25t-18 -48q0 -28 19 -47.5t64 -19.5q21 0 43 6t40 21t29.5 42t11.5 69v13h-23zM224 590h-100l116 160h100l116 -160h-100l-66 93z" />
    <glyph glyph-name="atilde" unicode="&#xe3;" horiz-adv-x="581" 
d="M97 492q47 19 92 26.5t98 7.5q79 0 124.5 -20t68.5 -50t29.5 -65t6.5 -64v-327h-133v76h-2q-4 -8 -14 -22.5t-29 -28t-48 -23.5t-71 -10q-49 0 -84 13.5t-57 35.5t-32.5 50.5t-10.5 58.5q0 27 9 57t37 55.5t78 42t133 16.5q19 0 38 -0.5t38 -0.5h12v22q0 21 -9.5 38
t-25.5 28t-37.5 17t-44.5 6q-34 0 -74 -8.5t-92 -37.5v107zM357 235q-28 0 -60.5 -1.5t-60 -9.5t-45.5 -25t-18 -48q0 -28 19 -47.5t64 -19.5q21 0 43 6t40 21t29.5 42t11.5 69v13h-23zM110 596q1 13 6.5 34.5t18.5 42.5t35 36t57 15q28 0 72 -16q20 -8 37 -13.5t34 -5.5
q15 0 23.5 6t13 14t6.5 16t2 12h55q-5 -37 -17.5 -62t-29 -40t-35 -21t-34.5 -6t-36 5.5t-37 11.5q-16 5 -34 12t-35 7q-15 0 -24 -5.5t-14 -13t-7 -16t-2 -13.5h-55z" />
    <glyph glyph-name="adieresis" unicode="&#xe4;" horiz-adv-x="581" 
d="M97 492q47 19 92 26.5t98 7.5q79 0 124.5 -20t68.5 -50t29.5 -65t6.5 -64v-327h-133v76h-2q-4 -8 -14 -22.5t-29 -28t-48 -23.5t-71 -10q-49 0 -84 13.5t-57 35.5t-32.5 50.5t-10.5 58.5q0 27 9 57t37 55.5t78 42t133 16.5q19 0 38 -0.5t38 -0.5h12v22q0 21 -9.5 38
t-25.5 28t-37.5 17t-44.5 6q-34 0 -74 -8.5t-92 -37.5v107zM357 235q-28 0 -60.5 -1.5t-60 -9.5t-45.5 -25t-18 -48q0 -28 19 -47.5t64 -19.5q21 0 43 6t40 21t29.5 42t11.5 69v13h-23zM254 726v-116h-120v116h120zM444 726v-116h-120v116h120z" />
    <glyph glyph-name="aring" unicode="&#xe5;" horiz-adv-x="581" 
d="M97 492q47 19 92 26.5t98 7.5q79 0 124.5 -20t68.5 -50t29.5 -65t6.5 -64v-327h-133v76h-2q-4 -8 -14 -22.5t-29 -28t-48 -23.5t-71 -10q-49 0 -84 13.5t-57 35.5t-32.5 50.5t-10.5 58.5q0 27 9 57t37 55.5t78 42t133 16.5q19 0 38 -0.5t38 -0.5h12v22q0 21 -9.5 38
t-25.5 28t-37.5 17t-44.5 6q-34 0 -74 -8.5t-92 -37.5v107zM357 235q-28 0 -60.5 -1.5t-60 -9.5t-45.5 -25t-18 -48q0 -28 19 -47.5t64 -19.5q21 0 43 6t40 21t29.5 42t11.5 69v13h-23zM184 676q0 45 30.5 75.5t75.5 30.5t75.5 -30.5t30.5 -75.5t-30.5 -75.5t-75.5 -30.5
t-75.5 30.5t-30.5 75.5zM234 676q0 -23 16.5 -39.5t39.5 -16.5t39.5 16.5t16.5 39.5t-16.5 39.5t-39.5 16.5t-39.5 -16.5t-16.5 -39.5z" />
    <glyph glyph-name="ae" unicode="&#xe6;" horiz-adv-x="898" 
d="M97 492q52 20 95.5 27t83.5 7q28 0 52 -2.5t45 -9t40.5 -18t39.5 -29.5q32 26 72.5 42.5t98.5 16.5q59 0 99.5 -16.5t67 -42.5t41 -58t21.5 -63t8.5 -57t1.5 -40v-31h-358q0 -33 12.5 -57.5t34.5 -41.5t50.5 -25.5t61.5 -8.5q57 0 97 15.5t65 31.5v-102
q-39 -17 -83 -27.5t-96 -10.5q-69 0 -129 20.5t-97 66.5q-37 -43 -86.5 -65t-115.5 -22q-34 0 -67 8t-59 27t-42 49t-16 74t15 73.5t40 48t58 28.5t68.5 14.5t72 5t68.5 0.5h23v8q0 10 -2.5 27.5t-14 34.5t-35 29t-65.5 12q-46 0 -85 -10t-81 -36v107zM337 235
q-23 0 -51.5 -2t-53.5 -10t-42 -25t-17 -47q0 -18 7.5 -30.5t19 -20.5t26.5 -11.5t30 -3.5q53 0 88.5 36t35.5 101v13h-43zM733 311q-1 31 -11.5 54t-27 38t-36.5 22t-39 7q-25 0 -45.5 -9.5t-35.5 -26t-23.5 -38.5t-9.5 -47h228z" />
    <glyph glyph-name="ccedilla" unicode="&#xe7;" horiz-adv-x="463" 
d="M305 -8q-69 0 -120 23t-84.5 61.5t-49.5 87.5t-16 100q0 52 18 99.5t53 83.5t87.5 57.5t121.5 21.5q26 0 56 -3t59 -11v-101q-19 8 -40.5 12.5t-51.5 4.5q-34 0 -63.5 -12t-51 -34.5t-34 -54t-12.5 -70.5q0 -35 10.5 -65.5t30 -53t47.5 -35.5t64 -13q55 0 109 23v-101
q-19 -6 -53.5 -13t-79.5 -7zM312 -7l-5 -25q19 0 33.5 -8.5t23.5 -21t13.5 -28t4.5 -30.5q0 -17 -6.5 -32.5t-20 -28.5t-34.5 -20.5t-49 -7.5q-26 0 -44 8.5t-29 16.5l25 51q8 -6 21 -11.5t24 -5.5t25 5.5t14 24.5q0 20 -12.5 29t-31.5 9q-8 0 -15 -0.5t-15 -2.5l18 87z" />
    <glyph glyph-name="egrave" unicode="&#xe8;" horiz-adv-x="565" 
d="M177 218q1 -25 11 -48t29 -41t47.5 -28.5t66.5 -10.5q45 0 85 9.5t77 26.5v-102q-40 -15 -86 -23.5t-93 -8.5q-58 0 -109 16t-88.5 49t-59.5 83t-22 119q0 63 20.5 112.5t55.5 84t81.5 52.5t98.5 18q59 0 99.5 -17.5t67 -44.5t41 -59.5t21.5 -63.5t8.5 -56t1.5 -36v-31
h-353zM390 311q1 33 -8.5 56t-25.5 37.5t-35 21t-38 6.5q-23 0 -42 -9.5t-33 -25.5t-22.5 -38.5t-8.5 -47.5h213zM294 750l88 -160h-83l-145 160h140z" />
    <glyph glyph-name="eacute" unicode="&#xe9;" horiz-adv-x="565" 
d="M177 218q1 -25 11 -48t29 -41t47.5 -28.5t66.5 -10.5q45 0 85 9.5t77 26.5v-102q-40 -15 -86 -23.5t-93 -8.5q-58 0 -109 16t-88.5 49t-59.5 83t-22 119q0 63 20.5 112.5t55.5 84t81.5 52.5t98.5 18q59 0 99.5 -17.5t67 -44.5t41 -59.5t21.5 -63.5t8.5 -56t1.5 -36v-31
h-353zM390 311q1 33 -8.5 56t-25.5 37.5t-35 21t-38 6.5q-23 0 -42 -9.5t-33 -25.5t-22.5 -38.5t-8.5 -47.5h213zM293 590h-83l88 160h140z" />
    <glyph glyph-name="ecircumflex" unicode="&#xea;" horiz-adv-x="565" 
d="M177 218q1 -25 11 -48t29 -41t47.5 -28.5t66.5 -10.5q45 0 85 9.5t77 26.5v-102q-40 -15 -86 -23.5t-93 -8.5q-58 0 -109 16t-88.5 49t-59.5 83t-22 119q0 63 20.5 112.5t55.5 84t81.5 52.5t98.5 18q59 0 99.5 -17.5t67 -44.5t41 -59.5t21.5 -63.5t8.5 -56t1.5 -36v-31
h-353zM390 311q1 33 -8.5 56t-25.5 37.5t-35 21t-38 6.5q-23 0 -42 -9.5t-33 -25.5t-22.5 -38.5t-8.5 -47.5h213zM216 590h-100l116 160h100l116 -160h-100l-66 93z" />
    <glyph glyph-name="edieresis" unicode="&#xeb;" horiz-adv-x="565" 
d="M177 218q1 -25 11 -48t29 -41t47.5 -28.5t66.5 -10.5q45 0 85 9.5t77 26.5v-102q-40 -15 -86 -23.5t-93 -8.5q-58 0 -109 16t-88.5 49t-59.5 83t-22 119q0 63 20.5 112.5t55.5 84t81.5 52.5t98.5 18q59 0 99.5 -17.5t67 -44.5t41 -59.5t21.5 -63.5t8.5 -56t1.5 -36v-31
h-353zM390 311q1 33 -8.5 56t-25.5 37.5t-35 21t-38 6.5q-23 0 -42 -9.5t-33 -25.5t-22.5 -38.5t-8.5 -47.5h213zM246 726v-116h-120v116h120zM436 726v-116h-120v116h120z" />
    <glyph glyph-name="igrave" unicode="&#xec;" horiz-adv-x="270" 
d="M203 518v-518h-136v518h136zM147 750l88 -160h-83l-145 160h140z" />
    <glyph glyph-name="iacute" unicode="&#xed;" horiz-adv-x="270" 
d="M203 518v-518h-136v518h136zM136 590h-83l88 160h140z" />
    <glyph glyph-name="icircumflex" unicode="&#xee;" horiz-adv-x="270" 
d="M203 518v-518h-136v518h136zM70 590h-100l116 160h100l116 -160h-100l-66 93z" />
    <glyph glyph-name="idieresis" unicode="&#xef;" horiz-adv-x="270" 
d="M203 518v-518h-136v518h136zM121 726v-116h-100v116h100zM249 726v-116h-100v116h100z" />
    <glyph glyph-name="eth" unicode="&#xf0;" horiz-adv-x="604" 
d="M45 243q0 76 25.5 125.5t62.5 79t79 41.5t75 12q26 0 52.5 -9.5t50.5 -25.5q-13 26 -31.5 46t-37.5 34.5t-36.5 23.5t-29.5 14l-67 -66l-52 52l40 40q-50 12 -94 15l41 99q72 -9 138 -30l60 60l52 -52l-38 -38q112 -63 168 -152.5t56 -223.5q0 -58 -15.5 -111.5
t-47 -94.5t-79.5 -65.5t-112 -24.5q-56 0 -104 18.5t-82.5 52t-54 79.5t-19.5 101zM417 259q0 41 -10 71t-26.5 49.5t-37 29t-41.5 9.5t-41.5 -9.5t-37 -29t-26.5 -49.5t-10 -71t10 -71t26.5 -49.5t37 -29t41.5 -9.5t41.5 9.5t37 29t26.5 49.5t10 71z" />
    <glyph glyph-name="ntilde" unicode="&#xf1;" horiz-adv-x="612" 
d="M65 0v518h131v-81h3q19 28 41 45.5t44.5 27.5t43 13t35.5 3q40 0 74 -11t58.5 -31.5t38 -51t13.5 -69.5v-363h-136v313q0 19 -5 37t-15.5 32.5t-27 23.5t-40.5 9q-32 0 -55 -13.5t-38 -33.5t-22 -44t-7 -45v-279h-136zM126 596q1 13 6.5 34.5t18.5 42.5t35 36t57 15
q28 0 72 -16q20 -8 37 -13.5t34 -5.5q15 0 23.5 6t13 14t6.5 16t2 12h55q-5 -37 -17.5 -62t-29 -40t-35 -21t-34.5 -6t-36 5.5t-37 11.5q-16 5 -34 12t-35 7q-15 0 -24 -5.5t-14 -13t-7 -16t-2 -13.5h-55z" />
    <glyph glyph-name="ograve" unicode="&#xf2;" horiz-adv-x="604" 
d="M35 259q0 65 20 115t55.5 83.5t84.5 51t107 17.5t107 -17.5t84.5 -51t55.5 -83.5t20 -115t-20 -115t-55.5 -83.5t-84.5 -51t-107 -17.5t-107 17.5t-84.5 51t-55.5 83.5t-20 115zM177 259q0 -45 11 -77t29 -52.5t40 -30t45 -9.5q22 0 44.5 9.5t40.5 30t29 52.5t11 77
t-11 77t-29 52.5t-40.5 30t-44.5 9.5q-23 0 -45 -9.5t-40 -30t-29 -52.5t-11 -77zM289 750l88 -160h-83l-145 160h140z" />
    <glyph glyph-name="oacute" unicode="&#xf3;" horiz-adv-x="604" 
d="M35 259q0 65 20 115t55.5 83.5t84.5 51t107 17.5t107 -17.5t84.5 -51t55.5 -83.5t20 -115t-20 -115t-55.5 -83.5t-84.5 -51t-107 -17.5t-107 17.5t-84.5 51t-55.5 83.5t-20 115zM177 259q0 -45 11 -77t29 -52.5t40 -30t45 -9.5q22 0 44.5 9.5t40.5 30t29 52.5t11 77
t-11 77t-29 52.5t-40.5 30t-44.5 9.5q-23 0 -45 -9.5t-40 -30t-29 -52.5t-11 -77zM308 590h-83l88 160h140z" />
    <glyph glyph-name="ocircumflex" unicode="&#xf4;" horiz-adv-x="604" 
d="M35 259q0 65 20 115t55.5 83.5t84.5 51t107 17.5t107 -17.5t84.5 -51t55.5 -83.5t20 -115t-20 -115t-55.5 -83.5t-84.5 -51t-107 -17.5t-107 17.5t-84.5 51t-55.5 83.5t-20 115zM177 259q0 -45 11 -77t29 -52.5t40 -30t45 -9.5q22 0 44.5 9.5t40.5 30t29 52.5t11 77
t-11 77t-29 52.5t-40.5 30t-44.5 9.5q-23 0 -45 -9.5t-40 -30t-29 -52.5t-11 -77zM236 590h-100l116 160h100l116 -160h-100l-66 93z" />
    <glyph glyph-name="otilde" unicode="&#xf5;" horiz-adv-x="604" 
d="M35 259q0 65 20 115t55.5 83.5t84.5 51t107 17.5t107 -17.5t84.5 -51t55.5 -83.5t20 -115t-20 -115t-55.5 -83.5t-84.5 -51t-107 -17.5t-107 17.5t-84.5 51t-55.5 83.5t-20 115zM177 259q0 -45 11 -77t29 -52.5t40 -30t45 -9.5q22 0 44.5 9.5t40.5 30t29 52.5t11 77
t-11 77t-29 52.5t-40.5 30t-44.5 9.5q-23 0 -45 -9.5t-40 -30t-29 -52.5t-11 -77zM122 596q1 13 6.5 34.5t18.5 42.5t35 36t57 15q28 0 72 -16q20 -8 37 -13.5t34 -5.5q15 0 23.5 6t13 14t6.5 16t2 12h55q-5 -37 -17.5 -62t-29 -40t-35 -21t-34.5 -6t-36 5.5t-37 11.5
q-16 5 -34 12t-35 7q-15 0 -24 -5.5t-14 -13t-7 -16t-2 -13.5h-55z" />
    <glyph glyph-name="odieresis" unicode="&#xf6;" horiz-adv-x="604" 
d="M35 259q0 65 20 115t55.5 83.5t84.5 51t107 17.5t107 -17.5t84.5 -51t55.5 -83.5t20 -115t-20 -115t-55.5 -83.5t-84.5 -51t-107 -17.5t-107 17.5t-84.5 51t-55.5 83.5t-20 115zM177 259q0 -45 11 -77t29 -52.5t40 -30t45 -9.5q22 0 44.5 9.5t40.5 30t29 52.5t11 77
t-11 77t-29 52.5t-40.5 30t-44.5 9.5q-23 0 -45 -9.5t-40 -30t-29 -52.5t-11 -77zM266 726v-116h-120v116h120zM456 726v-116h-120v116h120z" />
    <glyph glyph-name="divide" unicode="&#xf7;" 
d="M50 415h500v-130h-500v130zM300 73q-32 0 -54.5 22.5t-22.5 54.5t22.5 54.5t54.5 22.5t54.5 -22.5t22.5 -54.5t-22.5 -54.5t-54.5 -22.5zM300 473q-32 0 -54.5 22.5t-22.5 54.5t22.5 54.5t54.5 22.5t54.5 -22.5t22.5 -54.5t-22.5 -54.5t-54.5 -22.5z" />
    <glyph glyph-name="oslash" unicode="&#xf8;" horiz-adv-x="609" 
d="M91 86q-25 32 -39.5 71.5t-14.5 101.5q0 65 20 115t56 83.5t85 51t107 17.5q48 0 81 -8t68 -28l75 84l66 -57l-76 -85q24 -32 38.5 -72t14.5 -101q0 -65 -20 -115t-55.5 -83.5t-84.5 -51t-107 -17.5q-45 0 -78 7t-68 26l-77 -87l-68 62zM375 403q-9 8 -26 16.5t-44 8.5
q-24 0 -46.5 -9.5t-40 -30t-28.5 -52.5t-11 -77q0 -26 2.5 -41t5.5 -25zM237 113q7 -6 23 -14.5t45 -8.5q57 0 91 46t34 123q0 19 -2.5 35t-4.5 29z" />
    <glyph glyph-name="ugrave" unicode="&#xf9;" horiz-adv-x="612" 
d="M547 518v-518h-131v81h-3q-19 -29 -41 -46t-44.5 -27t-43 -13t-35.5 -3q-23 0 -55 5t-60.5 24t-48.5 57t-20 105v335h136v-313q0 -13 2 -30.5t10.5 -33.5t26 -27t49.5 -11q30 0 52.5 12t38 32t23.5 45.5t8 51.5v274h136zM314 750l88 -160h-83l-145 160h140z" />
    <glyph glyph-name="uacute" unicode="&#xfa;" horiz-adv-x="612" 
d="M547 518v-518h-131v81h-3q-19 -29 -41 -46t-44.5 -27t-43 -13t-35.5 -3q-23 0 -55 5t-60.5 24t-48.5 57t-20 105v335h136v-313q0 -13 2 -30.5t10.5 -33.5t26 -27t49.5 -11q30 0 52.5 12t38 32t23.5 45.5t8 51.5v274h136zM285 590h-83l88 160h140z" />
    <glyph glyph-name="ucircumflex" unicode="&#xfb;" horiz-adv-x="612" 
d="M547 518v-518h-131v81h-3q-19 -29 -41 -46t-44.5 -27t-43 -13t-35.5 -3q-23 0 -55 5t-60.5 24t-48.5 57t-20 105v335h136v-313q0 -13 2 -30.5t10.5 -33.5t26 -27t49.5 -11q30 0 52.5 12t38 32t23.5 45.5t8 51.5v274h136zM240 590h-100l116 160h100l116 -160h-100l-66 93z
" />
    <glyph glyph-name="udieresis" unicode="&#xfc;" horiz-adv-x="612" 
d="M547 518v-518h-131v81h-3q-19 -29 -41 -46t-44.5 -27t-43 -13t-35.5 -3q-23 0 -55 5t-60.5 24t-48.5 57t-20 105v335h136v-313q0 -13 2 -30.5t10.5 -33.5t26 -27t49.5 -11q30 0 52.5 12t38 32t23.5 45.5t8 51.5v274h136zM270 726v-116h-120v116h120zM460 726v-116h-120
v116h120z" />
    <glyph glyph-name="yacute" unicode="&#xfd;" horiz-adv-x="551" 
d="M117 -222q-19 0 -40 4.5t-39 10.5v104q12 -5 26 -9.5t37 -4.5q35 0 57.5 12t36.5 46l12 30l-204 547h150l97 -286l29 -99h5l32 103l94 282h138l-219 -581q-11 -29 -25.5 -57.5t-37.5 -51t-59 -36.5t-90 -14zM323 590h-83l88 160h140z" />
    <glyph glyph-name="thorn" unicode="&#xfe;" horiz-adv-x="608" 
d="M65 -214v914h136v-180l-3 -92h2q19 49 61 73.5t94 24.5q54 0 95 -19t68 -54t41 -84t14 -110q0 -72 -19 -122.5t-50.5 -82.5t-72 -47t-82.5 -15q-57 0 -92.5 23t-56.5 55h-2l3 -85v-199h-136zM201 259q0 -41 10 -71t26.5 -49.5t37 -29t41.5 -9.5t41.5 9.5t37 29t26.5 49.5
t10 71t-10 71t-26.5 49.5t-37 29t-41.5 9.5t-41.5 -9.5t-37 -29t-26.5 -49.5t-10 -71z" />
    <glyph glyph-name="ydieresis" unicode="&#xff;" horiz-adv-x="551" 
d="M117 -222q-19 0 -40 4.5t-39 10.5v104q12 -5 26 -9.5t37 -4.5q35 0 57.5 12t36.5 46l12 30l-204 547h150l97 -286l29 -99h5l32 103l94 282h138l-219 -581q-11 -29 -25.5 -57.5t-37.5 -51t-59 -36.5t-90 -14zM246 726v-116h-120v116h120zM436 726v-116h-120v116h120z" />
    <glyph glyph-name="Amacron" unicode="&#x100;" horiz-adv-x="730" 
d="M285 700h160l270 -700h-160l-54 158h-282l-54 -158h-150zM462 273l-101 298h-2l-101 -298h204zM230 824h271v-79h-271v79z" />
    <glyph glyph-name="amacron" unicode="&#x101;" horiz-adv-x="581" 
d="M97 492q47 19 92 26.5t98 7.5q79 0 124.5 -20t68.5 -50t29.5 -65t6.5 -64v-327h-133v76h-2q-4 -8 -14 -22.5t-29 -28t-48 -23.5t-71 -10q-49 0 -84 13.5t-57 35.5t-32.5 50.5t-10.5 58.5q0 27 9 57t37 55.5t78 42t133 16.5q19 0 38 -0.5t38 -0.5h12v22q0 21 -9.5 38
t-25.5 28t-37.5 17t-44.5 6q-34 0 -74 -8.5t-92 -37.5v107zM357 235q-28 0 -60.5 -1.5t-60 -9.5t-45.5 -25t-18 -48q0 -28 19 -47.5t64 -19.5q21 0 43 6t40 21t29.5 42t11.5 69v13h-23zM421 685v-74h-261v74h261z" />
    <glyph glyph-name="Abreve" unicode="&#x102;" horiz-adv-x="730" 
d="M285 700h160l270 -700h-160l-54 158h-282l-54 -158h-150zM462 273l-101 298h-2l-101 -298h204zM528 880q-2 -51 -22.5 -79.5t-47.5 -42t-53.5 -16t-39.5 -2.5t-39.5 2.5t-53.5 16t-48 42t-22 79.5h64q0 -7 3 -17t13 -19.5t29.5 -16.5t53.5 -7t53.5 7t29.5 16.5t13 19.5
t3 17h64z" />
    <glyph glyph-name="abreve" unicode="&#x103;" horiz-adv-x="581" 
d="M97 492q47 19 92 26.5t98 7.5q79 0 124.5 -20t68.5 -50t29.5 -65t6.5 -64v-327h-133v76h-2q-4 -8 -14 -22.5t-29 -28t-48 -23.5t-71 -10q-49 0 -84 13.5t-57 35.5t-32.5 50.5t-10.5 58.5q0 27 9 57t37 55.5t78 42t133 16.5q19 0 38 -0.5t38 -0.5h12v22q0 21 -9.5 38
t-25.5 28t-37.5 17t-44.5 6q-34 0 -74 -8.5t-92 -37.5v107zM357 235q-28 0 -60.5 -1.5t-60 -9.5t-45.5 -25t-18 -48q0 -28 19 -47.5t64 -19.5q21 0 43 6t40 21t29.5 42t11.5 69v13h-23zM443 740q0 -51 -20 -79.5t-46 -42t-51 -16t-36 -2.5t-36 2.5t-51 16t-46 42t-20 79.5
h54q0 -7 3 -17t13 -19.5t29.5 -16.5t53.5 -7t53.5 7t29.5 16.5t13 19.5t3 17h54z" />
    <glyph glyph-name="Aogonek" unicode="&#x104;" horiz-adv-x="730" 
d="M285 700h160l270 -700h-160l-54 158h-282l-54 -158h-150zM462 273l-101 298h-2l-101 -298h204zM715 0q-38 -20 -60 -40.5t-34 -39.5t-15.5 -36t-3.5 -30q0 -8 1 -18.5t6.5 -20t16 -16t30.5 -6.5q17 0 42 6t45 17l17 -50q-29 -17 -59.5 -26.5t-72.5 -9.5q-5 0 -18 0.5
t-28.5 3t-32 8.5t-30 17.5t-22.5 29.5t-9 44q0 30 11.5 56.5t30.5 47.5t44 37t52 26h89z" />
    <glyph glyph-name="aogonek" unicode="&#x105;" horiz-adv-x="581" 
d="M97 492q47 19 92 26.5t98 7.5q79 0 124.5 -20t68.5 -50t29.5 -65t6.5 -64v-327q-40 -23 -62 -46t-32 -44t-11.5 -38t-1.5 -27q0 -26 16 -40.5t40 -14.5q19 0 42.5 6t43.5 16l16 -46q-28 -17 -58.5 -26t-71.5 -9q-48 0 -76 12.5t-41.5 28.5t-17 32t-3.5 24q0 22 7 47
t23.5 48t42 43t63.5 34h-52v76h-2q-4 -8 -14 -22.5t-29 -28t-48 -23.5t-71 -10q-49 0 -84 13.5t-57 35.5t-32.5 50.5t-10.5 58.5q0 45 16 75t43 49t61.5 28.5t71.5 13.5t73.5 4h67.5h12v22q0 13 -5.5 29t-19 29t-36 22t-56.5 9q-41 0 -80.5 -10t-85.5 -36v107zM357 235
q-28 0 -60.5 -1.5t-60 -9.5t-45.5 -25t-18 -48q0 -28 19 -47.5t64 -19.5q21 0 43 6t40 21t29.5 42t11.5 69v13h-23z" />
    <glyph glyph-name="Cacute" unicode="&#x106;" horiz-adv-x="630" 
d="M409 -8q-65 0 -130 19.5t-117 62t-84.5 109.5t-32.5 163q0 90 30 158t82.5 113.5t123.5 68t154 22.5q42 0 78.5 -5.5t76.5 -18.5v-122q-31 12 -65.5 20t-79.5 8q-59 0 -105.5 -17.5t-78.5 -49.5t-49 -76.5t-17 -98.5q0 -63 20 -108.5t53 -74t76.5 -42t90.5 -13.5
q54 0 91.5 11.5t63.5 23.5v-123q-47 -16 -93 -23t-88 -7zM427 880h160l-132 -140h-110z" />
    <glyph glyph-name="cacute" unicode="&#x107;" horiz-adv-x="463" 
d="M305 -8q-69 0 -120 23t-84.5 61.5t-49.5 87.5t-16 100q0 52 18 99.5t53 83.5t87.5 57.5t121.5 21.5q26 0 56 -3t59 -11v-101q-19 8 -40.5 12.5t-51.5 4.5q-34 0 -63.5 -12t-51 -34.5t-34 -54t-12.5 -70.5q0 -35 10.5 -65.5t30 -53t47.5 -35.5t64 -13q55 0 109 23v-101
q-19 -6 -53.5 -13t-79.5 -7zM332 590h-83l88 160h140z" />
    <glyph glyph-name="Ccircumflex" unicode="&#x108;" horiz-adv-x="630" 
d="M409 -8q-65 0 -130 19.5t-117 62t-84.5 109.5t-32.5 163q0 90 30 158t82.5 113.5t123.5 68t154 22.5q42 0 78.5 -5.5t76.5 -18.5v-122q-31 12 -65.5 20t-79.5 8q-59 0 -105.5 -17.5t-78.5 -49.5t-49 -76.5t-17 -98.5q0 -63 20 -108.5t53 -74t76.5 -42t90.5 -13.5
q54 0 91.5 11.5t63.5 23.5v-123q-47 -16 -93 -23t-88 -7zM345 740h-114l113 140h112l113 -140h-114l-55 64z" />
    <glyph glyph-name="ccircumflex" unicode="&#x109;" horiz-adv-x="463" 
d="M305 -8q-69 0 -120 23t-84.5 61.5t-49.5 87.5t-16 100q0 52 18 99.5t53 83.5t87.5 57.5t121.5 21.5q26 0 56 -3t59 -11v-101q-19 8 -40.5 12.5t-51.5 4.5q-34 0 -63.5 -12t-51 -34.5t-34 -54t-12.5 -70.5q0 -35 10.5 -65.5t30 -53t47.5 -35.5t64 -13q55 0 109 23v-101
q-19 -6 -53.5 -13t-79.5 -7zM224 590h-100l116 160h100l116 -160h-100l-66 93z" />
    <glyph glyph-name="Cdotaccent" unicode="&#x10a;" horiz-adv-x="630" 
d="M409 -8q-65 0 -130 19.5t-117 62t-84.5 109.5t-32.5 163q0 90 30 158t82.5 113.5t123.5 68t154 22.5q42 0 78.5 -5.5t76.5 -18.5v-122q-31 12 -65.5 20t-79.5 8q-59 0 -105.5 -17.5t-78.5 -49.5t-49 -76.5t-17 -98.5q0 -63 20 -108.5t53 -74t76.5 -42t90.5 -13.5
q54 0 91.5 11.5t63.5 23.5v-123q-47 -16 -93 -23t-88 -7zM471 876v-126h-142v126h142z" />
    <glyph glyph-name="cdotaccent" unicode="&#x10b;" horiz-adv-x="463" 
d="M305 -8q-69 0 -120 23t-84.5 61.5t-49.5 87.5t-16 100q0 52 18 99.5t53 83.5t87.5 57.5t121.5 21.5q26 0 56 -3t59 -11v-101q-19 8 -40.5 12.5t-51.5 4.5q-34 0 -63.5 -12t-51 -34.5t-34 -54t-12.5 -70.5q0 -35 10.5 -65.5t30 -53t47.5 -35.5t64 -13q55 0 109 23v-101
q-19 -6 -53.5 -13t-79.5 -7zM360 736v-140h-140v140h140z" />
    <glyph glyph-name="Ccaron" unicode="&#x10c;" horiz-adv-x="630" 
d="M409 -8q-65 0 -130 19.5t-117 62t-84.5 109.5t-32.5 163q0 90 30 158t82.5 113.5t123.5 68t154 22.5q42 0 78.5 -5.5t76.5 -18.5v-122q-31 12 -65.5 20t-79.5 8q-59 0 -105.5 -17.5t-78.5 -49.5t-49 -76.5t-17 -98.5q0 -63 20 -108.5t53 -74t76.5 -42t90.5 -13.5
q54 0 91.5 11.5t63.5 23.5v-123q-47 -16 -93 -23t-88 -7zM455 880h114l-113 -140h-112l-113 140h114l55 -64z" />
    <glyph glyph-name="ccaron" unicode="&#x10d;" horiz-adv-x="463" 
d="M305 -8q-69 0 -120 23t-84.5 61.5t-49.5 87.5t-16 100q0 52 18 99.5t53 83.5t87.5 57.5t121.5 21.5q26 0 56 -3t59 -11v-101q-19 8 -40.5 12.5t-51.5 4.5q-34 0 -63.5 -12t-51 -34.5t-34 -54t-12.5 -70.5q0 -35 10.5 -65.5t30 -53t47.5 -35.5t64 -13q55 0 109 23v-101
q-19 -6 -53.5 -13t-79.5 -7zM356 750h100l-116 -160h-100l-116 160h100l66 -93z" />
    <glyph glyph-name="Dcaron" unicode="&#x10e;" horiz-adv-x="717" 
d="M291 700q31 0 71.5 -3.5t82.5 -15.5t83 -35t73 -62t51.5 -96t19.5 -138q0 -38 -6 -79t-21.5 -80t-42.5 -73.5t-69 -60.5t-102 -41.5t-140 -15.5h-221v700h221zM212 118h81q11 0 32 1.5t46.5 8.5t52 22t48.5 40.5t36 64.5t14 95t-14 95t-36 64.5t-48.5 40.5t-52 22
t-46.5 8.5t-32 1.5h-81v-464zM310 880h114l-113 -140h-112l-113 140h114l55 -64z" />
    <glyph glyph-name="dcaron" unicode="&#x10f;" horiz-adv-x="747" 
d="M543 750v-750h-119v90h-2q-9 -16 -22.5 -33.5t-33.5 -31.5t-48 -23.5t-65 -9.5q-50 0 -90 18.5t-68.5 53.5t-44 84t-15.5 111q0 71 20 121.5t52.5 83t72.5 47.5t79 15q57 0 93 -23t56 -55h2l-3 85v217h136zM407 259q0 41 -10 71t-26.5 49.5t-37 29t-41.5 9.5t-41.5 -9.5
t-37 -29t-26.5 -49.5t-10 -71t10 -71t26.5 -49.5t37 -29t41.5 -9.5t41.5 9.5t37 29t26.5 49.5t10 71zM767 750l-66 -190h-110l36 190h140z" />
    <glyph glyph-name="Dcroat" unicode="&#x110;" horiz-adv-x="748" 
d="M322 700q31 0 71.5 -3.5t82.5 -15.5t83 -35t73 -62t51.5 -96t19.5 -138q0 -38 -6 -79t-21.5 -80t-42.5 -73.5t-69 -60.5t-102 -41.5t-140 -15.5h-221v302h-91v90h91v308h221zM243 392h181v-90h-181v-184h81q11 0 32 1.5t46.5 8.5t52 22t48.5 40.5t36 64.5t14 95t-14 95
t-36 64.5t-48.5 40.5t-52 22t-46.5 8.5t-32 1.5h-81v-190z" />
    <glyph glyph-name="dcroat" unicode="&#x111;" horiz-adv-x="605" 
d="M543 750v-75h61v-90h-61v-585h-119v90h-2q-9 -16 -22.5 -33.5t-33.5 -31.5t-48 -23.5t-65 -9.5q-50 0 -90 18.5t-68.5 53.5t-44 84t-15.5 111q0 71 20 121.5t52.5 83t72.5 47.5t79 15q57 0 93 -23t56 -55h2l-3 85v52h-231v90h231v75h136zM407 259q0 41 -10 71t-26.5 49.5
t-37 29t-41.5 9.5t-41.5 -9.5t-37 -29t-26.5 -49.5t-10 -71t10 -71t26.5 -49.5t37 -29t41.5 -9.5t41.5 9.5t37 29t26.5 49.5t10 71z" />
    <glyph glyph-name="Emacron" unicode="&#x112;" horiz-adv-x="538" 
d="M488 700v-124h-276v-158h251v-115h-251v-179h276v-124h-418v700h418zM133 824h271v-79h-271v79z" />
    <glyph glyph-name="emacron" unicode="&#x113;" horiz-adv-x="565" 
d="M177 218q1 -25 11 -48t29 -41t47.5 -28.5t66.5 -10.5q45 0 85 9.5t77 26.5v-102q-40 -15 -86 -23.5t-93 -8.5q-58 0 -109 16t-88.5 49t-59.5 83t-22 119q0 63 20.5 112.5t55.5 84t81.5 52.5t98.5 18q59 0 99.5 -17.5t67 -44.5t41 -59.5t21.5 -63.5t8.5 -56t1.5 -36v-31
h-353zM390 311q1 33 -8.5 56t-25.5 37.5t-35 21t-38 6.5q-23 0 -42 -9.5t-33 -25.5t-22.5 -38.5t-8.5 -47.5h213zM413 685v-74h-261v74h261z" />
    <glyph glyph-name="Edotaccent" unicode="&#x116;" horiz-adv-x="538" 
d="M488 700v-124h-276v-158h251v-115h-251v-179h276v-124h-418v700h418zM340 876v-126h-142v126h142z" />
    <glyph glyph-name="edotaccent" unicode="&#x117;" horiz-adv-x="565" 
d="M177 218q1 -25 11 -48t29 -41t47.5 -28.5t66.5 -10.5q45 0 85 9.5t77 26.5v-102q-40 -15 -86 -23.5t-93 -8.5q-58 0 -109 16t-88.5 49t-59.5 83t-22 119q0 63 20.5 112.5t55.5 84t81.5 52.5t98.5 18q59 0 99.5 -17.5t67 -44.5t41 -59.5t21.5 -63.5t8.5 -56t1.5 -36v-31
h-353zM390 311q1 33 -8.5 56t-25.5 37.5t-35 21t-38 6.5q-23 0 -42 -9.5t-33 -25.5t-22.5 -38.5t-8.5 -47.5h213zM352 736v-140h-140v140h140z" />
    <glyph glyph-name="Eogonek" unicode="&#x118;" horiz-adv-x="538" 
d="M488 700v-124h-276v-158h251v-115h-251v-179h276v-124h-45q-42 -23 -64.5 -46t-33.5 -44.5t-13 -39t-2 -25.5q0 -7 2 -16t8 -16.5t16.5 -13t27.5 -5.5t42 6t45 17l17 -50q-29 -17 -59.5 -26.5t-72.5 -9.5q-10 0 -33 1.5t-47 11t-42 29.5t-18 57q0 53 36 100t102 70h-284
v700h418z" />
    <glyph glyph-name="eogonek" unicode="&#x119;" horiz-adv-x="565" 
d="M177 218q1 -25 11 -48t29 -41t47.5 -28.5t66.5 -10.5q45 0 85 9.5t77 26.5v-102q-22 -7 -51.5 -20.5t-56.5 -35t-45.5 -52t-18.5 -71.5q0 -26 16 -40.5t40 -14.5q19 0 42.5 6t43.5 16l16 -46q-28 -17 -58.5 -26t-71.5 -9q-48 0 -76 12.5t-41.5 28.5t-17 32t-3.5 24
q0 19 5.5 41t18.5 44t35.5 42.5t57.5 36.5h-14q-58 1 -109 17t-88.5 48.5t-59.5 82.5t-22 119q0 63 20.5 112.5t55.5 84t81.5 52.5t98.5 18q59 0 99.5 -17.5t67 -44.5t41 -59.5t21.5 -63.5t8.5 -56t1.5 -36v-31h-353zM390 311q1 33 -8.5 56t-25.5 37.5t-35 21t-38 6.5
q-23 0 -42 -9.5t-33 -25.5t-22.5 -38.5t-8.5 -47.5h213z" />
    <glyph glyph-name="Ecaron" unicode="&#x11a;" horiz-adv-x="538" 
d="M488 700v-124h-276v-158h251v-115h-251v-179h276v-124h-418v700h418zM324 880h114l-113 -140h-112l-113 140h114l55 -64z" />
    <glyph glyph-name="ecaron" unicode="&#x11b;" horiz-adv-x="565" 
d="M177 218q1 -25 11 -48t29 -41t47.5 -28.5t66.5 -10.5q45 0 85 9.5t77 26.5v-102q-40 -15 -86 -23.5t-93 -8.5q-58 0 -109 16t-88.5 49t-59.5 83t-22 119q0 63 20.5 112.5t55.5 84t81.5 52.5t98.5 18q59 0 99.5 -17.5t67 -44.5t41 -59.5t21.5 -63.5t8.5 -56t1.5 -36v-31
h-353zM390 311q1 33 -8.5 56t-25.5 37.5t-35 21t-38 6.5q-23 0 -42 -9.5t-33 -25.5t-22.5 -38.5t-8.5 -47.5h213zM348 750h100l-116 -160h-100l-116 160h100l66 -93z" />
    <glyph glyph-name="Gcircumflex" unicode="&#x11c;" horiz-adv-x="729" 
d="M414 -8q-83 0 -151 24t-116.5 69.5t-75 112t-26.5 152.5q0 87 27.5 153.5t78 112t122 69t159.5 23.5q55 0 103 -6t102 -24v-128q-54 25 -106.5 34.5t-101.5 9.5q-53 0 -96.5 -17t-74 -48.5t-47 -76.5t-16.5 -102q0 -56 16 -100.5t46 -75.5t72 -47.5t94 -16.5q26 0 48 2.5
t46 11.5v167h-143v110h285v-371q-12 -3 -37 -9.5t-58 -13t-71.5 -11t-78.5 -4.5zM355 740h-114l113 140h112l113 -140h-114l-55 64z" />
    <glyph glyph-name="gcircumflex" unicode="&#x11d;" horiz-adv-x="612" 
d="M283 -222q-37 0 -86.5 6.5t-106.5 29.5v119q42 -21 85.5 -34.5t85.5 -13.5q73 0 111.5 37t38.5 102v68h-3q-4 -9 -14 -25t-28.5 -31.5t-46.5 -26.5t-69 -11q-59 0 -100 23.5t-66.5 61t-37 83.5t-11.5 91q0 61 16 110.5t44 85t67 54.5t86 19q8 0 29 -1t46 -10t50.5 -28.5
t42.5 -55.5h3v87h128v-477q0 -15 -1.5 -40.5t-9 -54.5t-23.5 -59t-45.5 -54t-74.5 -39.5t-110 -15.5zM287 411q-29 0 -49.5 -12.5t-34 -33.5t-20 -48.5t-6.5 -56.5q0 -49 12.5 -79t30.5 -46.5t39 -22.5t38 -6q22 0 42.5 10t36.5 30.5t25.5 51t9.5 72.5q0 66 -33.5 103.5
t-90.5 37.5zM244 590h-100l116 160h100l116 -160h-100l-66 93z" />
    <glyph glyph-name="Gbreve" unicode="&#x11e;" horiz-adv-x="729" 
d="M414 -8q-83 0 -151 24t-116.5 69.5t-75 112t-26.5 152.5q0 87 27.5 153.5t78 112t122 69t159.5 23.5q55 0 103 -6t102 -24v-128q-54 25 -106.5 34.5t-101.5 9.5q-53 0 -96.5 -17t-74 -48.5t-47 -76.5t-16.5 -102q0 -56 16 -100.5t46 -75.5t72 -47.5t94 -16.5q26 0 48 2.5
t46 11.5v167h-143v110h285v-371q-12 -3 -37 -9.5t-58 -13t-71.5 -11t-78.5 -4.5zM573 880q-2 -51 -22.5 -79.5t-47.5 -42t-53.5 -16t-39.5 -2.5t-39.5 2.5t-53.5 16t-48 42t-22 79.5h64q0 -7 3 -17t13 -19.5t29.5 -16.5t53.5 -7t53.5 7t29.5 16.5t13 19.5t3 17h64z" />
    <glyph glyph-name="gbreve" unicode="&#x11f;" horiz-adv-x="612" 
d="M283 -222q-37 0 -86.5 6.5t-106.5 29.5v119q42 -21 85.5 -34.5t85.5 -13.5q73 0 111.5 37t38.5 102v68h-3q-4 -9 -14 -25t-28.5 -31.5t-46.5 -26.5t-69 -11q-59 0 -100 23.5t-66.5 61t-37 83.5t-11.5 91q0 61 16 110.5t44 85t67 54.5t86 19q8 0 29 -1t46 -10t50.5 -28.5
t42.5 -55.5h3v87h128v-477q0 -15 -1.5 -40.5t-9 -54.5t-23.5 -59t-45.5 -54t-74.5 -39.5t-110 -15.5zM287 411q-29 0 -49.5 -12.5t-34 -33.5t-20 -48.5t-6.5 -56.5q0 -49 12.5 -79t30.5 -46.5t39 -22.5t38 -6q22 0 42.5 10t36.5 30.5t25.5 51t9.5 72.5q0 66 -33.5 103.5
t-90.5 37.5zM463 740q0 -51 -20 -79.5t-46 -42t-51 -16t-36 -2.5t-36 2.5t-51 16t-46 42t-20 79.5h54q0 -7 3 -17t13 -19.5t29.5 -16.5t53.5 -7t53.5 7t29.5 16.5t13 19.5t3 17h54z" />
    <glyph glyph-name="Gdotaccent" unicode="&#x120;" horiz-adv-x="729" 
d="M414 -8q-83 0 -151 24t-116.5 69.5t-75 112t-26.5 152.5q0 87 27.5 153.5t78 112t122 69t159.5 23.5q55 0 103 -6t102 -24v-128q-54 25 -106.5 34.5t-101.5 9.5q-53 0 -96.5 -17t-74 -48.5t-47 -76.5t-16.5 -102q0 -56 16 -100.5t46 -75.5t72 -47.5t94 -16.5q26 0 48 2.5
t46 11.5v167h-143v110h285v-371q-12 -3 -37 -9.5t-58 -13t-71.5 -11t-78.5 -4.5zM481 876v-126h-142v126h142z" />
    <glyph glyph-name="gdotaccent" unicode="&#x121;" horiz-adv-x="612" 
d="M283 -222q-37 0 -86.5 6.5t-106.5 29.5v119q42 -21 85.5 -34.5t85.5 -13.5q73 0 111.5 37t38.5 102v68h-3q-4 -9 -14 -25t-28.5 -31.5t-46.5 -26.5t-69 -11q-59 0 -100 23.5t-66.5 61t-37 83.5t-11.5 91q0 61 16 110.5t44 85t67 54.5t86 19q8 0 29 -1t46 -10t50.5 -28.5
t42.5 -55.5h3v87h128v-477q0 -15 -1.5 -40.5t-9 -54.5t-23.5 -59t-45.5 -54t-74.5 -39.5t-110 -15.5zM287 411q-29 0 -49.5 -12.5t-34 -33.5t-20 -48.5t-6.5 -56.5q0 -49 12.5 -79t30.5 -46.5t39 -22.5t38 -6q22 0 42.5 10t36.5 30.5t25.5 51t9.5 72.5q0 66 -33.5 103.5
t-90.5 37.5zM380 736v-140h-140v140h140z" />
    <glyph glyph-name="Gcommaaccent" unicode="&#x122;" horiz-adv-x="729" 
d="M414 -8q-83 0 -151 24t-116.5 69.5t-75 112t-26.5 152.5q0 87 27.5 153.5t78 112t122 69t159.5 23.5q55 0 103 -6t102 -24v-128q-54 25 -106.5 34.5t-101.5 9.5q-53 0 -96.5 -17t-74 -48.5t-47 -76.5t-16.5 -102q0 -56 16 -100.5t46 -75.5t72 -47.5t94 -16.5q26 0 48 2.5
t46 11.5v167h-143v110h285v-371q-12 -3 -37 -9.5t-58 -13t-71.5 -11t-78.5 -4.5zM480 -50l-56 -190h-120l36 190h140z" />
    <glyph glyph-name="gcommaaccent" unicode="&#x123;" horiz-adv-x="612" 
d="M283 -222q-37 0 -86.5 6.5t-106.5 29.5v119q42 -21 85.5 -34.5t85.5 -13.5q73 0 111.5 37t38.5 102v68h-3q-4 -9 -14 -25t-28.5 -31.5t-46.5 -26.5t-69 -11q-59 0 -100 23.5t-66.5 61t-37 83.5t-11.5 91q0 61 16 110.5t44 85t67 54.5t86 19q8 0 29 -1t46 -10t50.5 -28.5
t42.5 -55.5h3v87h128v-477q0 -15 -1.5 -40.5t-9 -54.5t-23.5 -59t-45.5 -54t-74.5 -39.5t-110 -15.5zM287 411q-29 0 -49.5 -12.5t-34 -33.5t-20 -48.5t-6.5 -56.5q0 -49 12.5 -79t30.5 -46.5t39 -22.5t38 -6q22 0 42.5 10t36.5 30.5t25.5 51t9.5 72.5q0 66 -33.5 103.5
t-90.5 37.5zM240.027 589.994l65.9922 189.977h109.986l-35.9951 -189.977h-139.983z" />
    <glyph glyph-name="Hcircumflex" unicode="&#x124;" horiz-adv-x="708" 
d="M212 700v-282h284v282h142v-700h-142v303h-284v-303h-142v700h142zM299 740h-114l113 140h112l113 -140h-114l-55 64z" />
    <glyph glyph-name="hcircumflex" unicode="&#x125;" horiz-adv-x="612" 
d="M65 750h136v-233l-5 -80h3q6 8 18 23t31.5 29.5t48 25.5t67.5 11q45 0 76.5 -12t51.5 -30.5t31.5 -41t16.5 -43t6 -36t1 -20.5v-343h-136v298q0 15 -1.5 35.5t-10 38.5t-26 30.5t-50.5 12.5q-21 0 -42.5 -9t-39.5 -27.5t-29 -48.5t-11 -72v-258h-136v750zM71 790h-100
l116 160h100l116 -160h-100l-66 93z" />
    <glyph glyph-name="Hbar" unicode="&#x126;" horiz-adv-x="716" 
d="M216 700v-99h284v99h142v-99h66v-90h-66v-511h-142v303h-284v-303h-142v511h-66v90h66v99h142zM500 418v93h-284v-93h284z" />
    <glyph glyph-name="hbar" unicode="&#x127;" horiz-adv-x="660" 
d="M113 592h-83v85h83v73h136v-73h218v-85h-218v-75l-5 -80h3q19 28 41 45.5t44.5 27.5t43 13t35.5 3q40 0 74 -11t58.5 -31.5t38 -51t13.5 -69.5v-363h-136v313q0 54 -28 78t-66 24q-21 0 -42 -8.5t-37.5 -25.5t-26.5 -42.5t-10 -59.5v-279h-136v592z" />
    <glyph glyph-name="Imacron" unicode="&#x12a;" horiz-adv-x="282" 
d="M70 700h142v-700h-142v700zM7 824h271v-79h-271v79z" />
    <glyph glyph-name="imacron" unicode="&#x12b;" horiz-adv-x="270" 
d="M203 518v-518h-136v518h136zM267 685v-74h-261v74h261z" />
    <glyph glyph-name="Iogonek" unicode="&#x12e;" horiz-adv-x="282" 
d="M70 700h142v-700q-42 -23 -64.5 -46t-33.5 -44.5t-13 -37t-2 -27.5q0 -7 2 -16t8 -16.5t16.5 -13t27.5 -5.5t42 6t45 17l17 -50q-29 -17 -59.5 -26.5t-72.5 -9.5q-10 0 -33 1.5t-47 11t-42 29.5t-18 57q0 53 36 100t102 70h-53v700z" />
    <glyph glyph-name="iogonek" unicode="&#x12f;" horiz-adv-x="270" 
d="M203 518v-518q-40 -23 -62 -46t-32 -44t-11.5 -38t-1.5 -27q0 -26 16 -40.5t40 -14.5q19 0 42.5 6t43.5 16l16 -46q-28 -17 -58.5 -26t-71.5 -9q-48 0 -76 12.5t-41.5 28.5t-17 32t-3.5 24q0 22 7 47t23.5 48t42 43t63.5 34h-55v518h136zM205 736v-140h-140v140h140z" />
    <glyph glyph-name="Idotaccent" unicode="&#x130;" horiz-adv-x="282" 
d="M70 700h142v-700h-142v700zM212 876v-126h-142v126h142z" />
    <glyph glyph-name="dotlessi" unicode="&#x131;" horiz-adv-x="270" 
d="M203 518v-518h-136v518h136z" />
    <glyph glyph-name="Jcircumflex" unicode="&#x134;" horiz-adv-x="379" 
d="M309 700v-497q0 -35 -5 -72.5t-24 -68.5t-55 -50.5t-97 -19.5q-25 0 -53 3.5t-55 9.5v114q17 -4 35.5 -6.5t32.5 -2.5q47 0 63 28t16 75v487h142zM178 740h-114l113 140h112l113 -140h-114l-55 64z" />
    <glyph glyph-name="jcircumflex" unicode="&#x135;" horiz-adv-x="260" 
d="M198 -41q0 -31 -3.5 -63t-19.5 -58.5t-47.5 -43t-87.5 -16.5q-15 0 -29 1t-31 6v96q8 -2 17.5 -3t17.5 -1q16 0 25.5 6t14 16.5t6 24.5t1.5 30v564h136v-559zM64 590h-100l116 160h100l116 -160h-100l-66 93z" />
    <glyph glyph-name="Kcommaaccent" unicode="&#x136;" horiz-adv-x="662" 
d="M212 700v-299h3l253 299h169l-292 -317l310 -383h-180l-260 348h-3v-348h-142v700h142zM413 -50l-56 -190h-120l36 190h140z" />
    <glyph glyph-name="kcommaaccent" unicode="&#x137;" horiz-adv-x="552" 
d="M201 750v-447h5l162 215h156l-190 -235l208 -283h-166l-170 263h-5v-263h-136v750h136zM358 -50l-66 -190h-110l36 190h140z" />
    <glyph glyph-name="Lacute" unicode="&#x139;" horiz-adv-x="510" 
d="M212 700v-582h278v-118h-420v700h142zM177 880h160l-132 -140h-110z" />
    <glyph glyph-name="lacute" unicode="&#x13a;" horiz-adv-x="266" 
d="M201 750v-750h-136v750h136zM127 790h-83l88 160h140z" />
    <glyph glyph-name="Lcommaaccent" unicode="&#x13b;" horiz-adv-x="510" 
d="M212 700v-582h278v-118h-420v700h142zM367 -50l-56 -190h-120l36 190h140z" />
    <glyph glyph-name="lcommaaccent" unicode="&#x13c;" horiz-adv-x="266" 
d="M201 750v-750h-136v750h136zM217 -50l-66 -190h-110l36 190h140z" />
    <glyph glyph-name="Lcaron" unicode="&#x13d;" horiz-adv-x="510" 
d="M212 700v-582h278v-118h-420v700h142zM493 703l-69 -250h-118l47 250h140z" />
    <glyph glyph-name="lcaron" unicode="&#x13e;" horiz-adv-x="392" 
d="M201 750v-750h-136v750h136zM412 750l-66 -190h-110l36 190h140z" />
    <glyph glyph-name="Ldot" unicode="&#x13f;" horiz-adv-x="510" 
d="M212 700v-582h278v-118h-420v700h142zM462 298h-140v142h140v-142z" />
    <glyph glyph-name="ldot" unicode="&#x140;" horiz-adv-x="406" 
d="M201 750v-750h-136v750h136zM406 298h-140v142h140v-142z" />
    <glyph glyph-name="Lslash" unicode="&#x141;" horiz-adv-x="535" 
d="M237 700v-274l112 112l48 -48l-160 -160v-212h278v-118h-420v187l-51 -51l-48 48l99 99v417h142z" />
    <glyph glyph-name="lslash" unicode="&#x142;" horiz-adv-x="306" 
d="M221 750v-258l73 72l47 -47l-120 -120v-397h-136v260l-73 -72l-47 47l120 120v395h136z" />
    <glyph glyph-name="Nacute" unicode="&#x143;" horiz-adv-x="745" 
d="M254 700l242 -441l37 -95h3l-3 124v412h142v-700h-184l-244 458l-35 78h-3l3 -124v-412h-142v700h184zM350 880h160l-132 -140h-110z" />
    <glyph glyph-name="nacute" unicode="&#x144;" horiz-adv-x="612" 
d="M65 0v518h131v-81h3q19 28 41 45.5t44.5 27.5t43 13t35.5 3q40 0 74 -11t58.5 -31.5t38 -51t13.5 -69.5v-363h-136v313q0 19 -5 37t-15.5 32.5t-27 23.5t-40.5 9q-32 0 -55 -13.5t-38 -33.5t-22 -44t-7 -45v-279h-136zM296 590h-83l88 160h140z" />
    <glyph glyph-name="Ncommaaccent" unicode="&#x145;" horiz-adv-x="745" 
d="M254 700l242 -441l37 -95h3l-3 124v412h142v-700h-184l-244 458l-35 78h-3l3 -124v-412h-142v700h184zM455 -50l-56 -190h-120l36 190h140z" />
    <glyph glyph-name="ncommaaccent" unicode="&#x146;" horiz-adv-x="612" 
d="M65 0v518h131v-81h3q19 28 41 45.5t44.5 27.5t43 13t35.5 3q40 0 74 -11t58.5 -31.5t38 -51t13.5 -69.5v-363h-136v313q0 19 -5 37t-15.5 32.5t-27 23.5t-40.5 9q-32 0 -55 -13.5t-38 -33.5t-22 -44t-7 -45v-279h-136zM388 -50l-66 -190h-110l36 190h140z" />
    <glyph glyph-name="Ncaron" unicode="&#x147;" horiz-adv-x="745" 
d="M254 700l242 -441l37 -95h3l-3 124v412h142v-700h-184l-244 458l-35 78h-3l3 -124v-412h-142v700h184zM427 880h114l-113 -140h-112l-113 140h114l55 -64z" />
    <glyph glyph-name="ncaron" unicode="&#x148;" horiz-adv-x="612" 
d="M65 0v518h131v-81h3q19 28 41 45.5t44.5 27.5t43 13t35.5 3q40 0 74 -11t58.5 -31.5t38 -51t13.5 -69.5v-363h-136v313q0 19 -5 37t-15.5 32.5t-27 23.5t-40.5 9q-32 0 -55 -13.5t-38 -33.5t-22 -44t-7 -45v-279h-136zM372 750h100l-116 -160h-100l-116 160h100l66 -93z
" />
    <glyph glyph-name="Omacron" unicode="&#x14c;" horiz-adv-x="776" 
d="M388 708q65 0 126.5 -20t109.5 -63.5t77.5 -111.5t29.5 -163t-29.5 -163t-77.5 -111.5t-109.5 -63.5t-126.5 -20t-126.5 20t-109.5 63.5t-77.5 111.5t-29.5 163t29.5 163t77.5 111.5t109.5 63.5t126.5 20zM388 608q-20 0 -52.5 -7t-64 -33t-54 -77.5t-22.5 -140.5
t22.5 -140.5t54 -77.5t64 -33t52.5 -7t52.5 7t64 33t54 77.5t22.5 140.5t-22.5 140.5t-54 77.5t-64 33t-52.5 7zM252 824h271v-79h-271v79z" />
    <glyph glyph-name="omacron" unicode="&#x14d;" horiz-adv-x="604" 
d="M35 259q0 65 20 115t55.5 83.5t84.5 51t107 17.5t107 -17.5t84.5 -51t55.5 -83.5t20 -115t-20 -115t-55.5 -83.5t-84.5 -51t-107 -17.5t-107 17.5t-84.5 51t-55.5 83.5t-20 115zM177 259q0 -45 11 -77t29 -52.5t40 -30t45 -9.5q22 0 44.5 9.5t40.5 30t29 52.5t11 77
t-11 77t-29 52.5t-40.5 30t-44.5 9.5q-23 0 -45 -9.5t-40 -30t-29 -52.5t-11 -77zM432 685v-74h-261v74h261z" />
    <glyph glyph-name="Obreve" unicode="&#x14e;" horiz-adv-x="776" 
d="M388 708q65 0 126.5 -20t109.5 -63.5t77.5 -111.5t29.5 -163t-29.5 -163t-77.5 -111.5t-109.5 -63.5t-126.5 -20t-126.5 20t-109.5 63.5t-77.5 111.5t-29.5 163t29.5 163t77.5 111.5t109.5 63.5t126.5 20zM388 608q-20 0 -52.5 -7t-64 -33t-54 -77.5t-22.5 -140.5
t22.5 -140.5t54 -77.5t64 -33t52.5 -7t52.5 7t64 33t54 77.5t22.5 140.5t-22.5 140.5t-54 77.5t-64 33t-52.5 7zM553 880q-2 -51 -22.5 -79.5t-47.5 -42t-53.5 -16t-39.5 -2.5t-39.5 2.5t-53.5 16t-48 42t-22 79.5h64q0 -7 3 -17t13 -19.5t29.5 -16.5t53.5 -7t53.5 7
t29.5 16.5t13 19.5t3 17h64z" />
    <glyph glyph-name="obreve" unicode="&#x14f;" horiz-adv-x="604" 
d="M35 259q0 65 20 115t55.5 83.5t84.5 51t107 17.5t107 -17.5t84.5 -51t55.5 -83.5t20 -115t-20 -115t-55.5 -83.5t-84.5 -51t-107 -17.5t-107 17.5t-84.5 51t-55.5 83.5t-20 115zM177 259q0 -45 11 -77t29 -52.5t40 -30t45 -9.5q22 0 44.5 9.5t40.5 30t29 52.5t11 77
t-11 77t-29 52.5t-40.5 30t-44.5 9.5q-23 0 -45 -9.5t-40 -30t-29 -52.5t-11 -77zM455 740q0 -51 -20 -79.5t-46 -42t-51 -16t-36 -2.5t-36 2.5t-51 16t-46 42t-20 79.5h54q0 -7 3 -17t13 -19.5t29.5 -16.5t53.5 -7t53.5 7t29.5 16.5t13 19.5t3 17h54z" />
    <glyph glyph-name="Ohungarumlaut" unicode="&#x150;" horiz-adv-x="776" 
d="M388 708q65 0 126.5 -20t109.5 -63.5t77.5 -111.5t29.5 -163t-29.5 -163t-77.5 -111.5t-109.5 -63.5t-126.5 -20t-126.5 20t-109.5 63.5t-77.5 111.5t-29.5 163t29.5 163t77.5 111.5t109.5 63.5t126.5 20zM388 608q-20 0 -52.5 -7t-64 -33t-54 -77.5t-22.5 -140.5
t22.5 -140.5t54 -77.5t64 -33t52.5 -7t52.5 7t64 33t54 77.5t22.5 140.5t-22.5 140.5t-54 77.5t-64 33t-52.5 7zM302 880h150l-132 -140h-100zM521 880h150l-132 -140h-100z" />
    <glyph glyph-name="ohungarumlaut" unicode="&#x151;" horiz-adv-x="604" 
d="M35 259q0 65 20 115t55.5 83.5t84.5 51t107 17.5t107 -17.5t84.5 -51t55.5 -83.5t20 -115t-20 -115t-55.5 -83.5t-84.5 -51t-107 -17.5t-107 17.5t-84.5 51t-55.5 83.5t-20 115zM177 259q0 -45 11 -77t29 -52.5t40 -30t45 -9.5q22 0 44.5 9.5t40.5 30t29 52.5t11 77
t-11 77t-29 52.5t-40.5 30t-44.5 9.5q-23 0 -45 -9.5t-40 -30t-29 -52.5t-11 -77zM240 590h-80l94 160h134zM450 590h-80l94 160h134z" />
    <glyph glyph-name="OE" unicode="&#x152;" horiz-adv-x="1059" 
d="M974 418v-115h-251v-179h276v-124h-418v48q-34 -24 -78.5 -40t-114.5 -16q-81 0 -144.5 25.5t-107.5 72.5t-67.5 113t-23.5 147q0 80 23.5 146t67.5 113t107.5 73t144.5 26q70 0 115 -16t78 -39v47h418v-124h-276v-158h251zM388 608q-20 0 -52.5 -7t-64 -33t-54 -77.5
t-22.5 -140.5t22.5 -140.5t54 -77.5t64 -33t52.5 -7t52.5 7t64 33t54 77.5t22.5 140.5t-22.5 140.5t-54 77.5t-64 33t-52.5 7z" />
    <glyph glyph-name="oe" unicode="&#x153;" horiz-adv-x="962" 
d="M887 30q-41 -18 -83.5 -28t-95.5 -10q-23 0 -48 2t-52 9.5t-54 22.5t-53 41q-6 -8 -18.5 -20.5t-35.5 -24.5t-57.5 -21t-83.5 -9q-58 0 -107 17.5t-85 51.5t-56 83.5t-20 114.5t20 115t56 83.5t85 51t107 17.5q22 0 47 -2.5t50.5 -10t50.5 -22.5t48 -39q31 32 73 53
t110 21q59 0 99.5 -16.5t67 -42.5t41 -58t21.5 -62.5t8.5 -57t1.5 -40.5v-31h-358q0 -33 12.5 -57.5t34.5 -41.5t50.5 -25.5t61.5 -8.5q57 0 97 15.5t65 31.5v-102zM180 259q0 -45 11 -77t29 -52.5t40.5 -30t45.5 -9.5q57 0 91 46t34 123t-34 123t-91 46q-23 0 -45.5 -9.5
t-40.5 -30t-29 -52.5t-11 -77zM794 311q-1 31 -11.5 54t-27 38t-36.5 22t-39 7q-25 0 -45.5 -9.5t-35.5 -26t-23.5 -38.5t-9.5 -47h228z" />
    <glyph glyph-name="Racute" unicode="&#x154;" horiz-adv-x="630" 
d="M70 700h210q69 0 120 -16t85 -45.5t51 -70.5t17 -91q0 -69 -25.5 -117t-80.5 -75l148 -285h-159l-117 255q-9 -1 -18.5 -1h-20.5h-68v-254h-142v700zM403 477q0 55 -30 84t-93 29h-68v-226h68q63 0 93 29t30 84zM317 880h160l-132 -140h-110z" />
    <glyph glyph-name="racute" unicode="&#x155;" horiz-adv-x="396" 
d="M65 518h124v-112h3q4 24 15.5 45.5t28.5 38t41 26.5t54 10q10 0 22 -2t23 -4v-100q-11 2 -24.5 3t-24.5 1q-18 0 -40 -7t-41 -26t-32 -53.5t-13 -88.5v-249h-136v518zM208 590h-83l88 160h140z" />
    <glyph glyph-name="Rcommaaccent" unicode="&#x156;" horiz-adv-x="630" 
d="M70 700h210q69 0 120 -16t85 -45.5t51 -70.5t17 -91q0 -69 -25.5 -117t-80.5 -75l148 -285h-159l-117 255q-9 -1 -18.5 -1h-20.5h-68v-254h-142v700zM403 477q0 55 -30 84t-93 29h-68v-226h68q63 0 93 29t30 84zM394 -50l-66 -190h-110l36 190h140z" />
    <glyph glyph-name="rcommaaccent" unicode="&#x157;" horiz-adv-x="396" 
d="M65 518h124v-112h3q4 24 15.5 45.5t28.5 38t41 26.5t54 10q10 0 22 -2t23 -4v-100q-11 2 -24.5 3t-24.5 1q-18 0 -40 -7t-41 -26t-32 -53.5t-13 -88.5v-249h-136v518zM204 -50l-66 -190h-110l36 190h140z" />
    <glyph glyph-name="Rcaron" unicode="&#x158;" horiz-adv-x="630" 
d="M70 700h210q69 0 120 -16t85 -45.5t51 -70.5t17 -91q0 -69 -25.5 -117t-80.5 -75l148 -285h-159l-117 255q-9 -1 -18.5 -1h-20.5h-68v-254h-142v700zM403 477q0 55 -30 84t-93 29h-68v-226h68q63 0 93 29t30 84zM345 880h114l-113 -140h-112l-113 140h114l55 -64z" />
    <glyph glyph-name="rcaron" unicode="&#x159;" horiz-adv-x="396" 
d="M65 518h124v-112h3q4 24 15.5 45.5t28.5 38t41 26.5t54 10q10 0 22 -2t23 -4v-100q-11 2 -24.5 3t-24.5 1q-18 0 -40 -7t-41 -26t-32 -53.5t-13 -88.5v-249h-136v518zM268 750h100l-116 -160h-100l-116 160h100l66 -93z" />
    <glyph glyph-name="Sacute" unicode="&#x15a;" horiz-adv-x="552" 
d="M53 155q42 -20 91.5 -34t96.5 -14q28 0 49.5 7.5t35 19.5t20.5 27t7 30q0 27 -13 45.5t-33.5 32t-45.5 24.5t-49 23q-39 19 -69.5 38t-51 41.5t-31 50.5t-10.5 65q0 26 9 60t33 64.5t67 51.5t111 21q50 0 101 -6.5t99 -23.5v-118q-31 13 -74 26.5t-94 13.5
q-33 0 -53.5 -7.5t-32 -18.5t-15.5 -24t-4 -24q0 -21 8.5 -36.5t21.5 -27.5t29.5 -20.5t33.5 -15.5q44 -19 82.5 -37.5t67.5 -44t45.5 -61t16.5 -87.5q0 -42 -16.5 -79t-49.5 -64.5t-83 -44t-118 -16.5q-51 0 -96.5 10t-85.5 25v128zM307 880h160l-132 -140h-110z" />
    <glyph glyph-name="sacute" unicode="&#x15b;" horiz-adv-x="454" 
d="M212 -8q-39 0 -86 8t-86 22v108q3 -1 16 -7t34 -12.5t47 -12t55 -5.5q26 0 43 6t26.5 14.5t13 18t3.5 17.5q0 16 -7 27t-19.5 19t-29 14t-34.5 13q-31 11 -56.5 23.5t-44 30t-28.5 41t-10 56.5q0 22 8 48.5t29 50t58 39t94 15.5q11 0 29.5 -0.5t41 -2.5t47 -6.5
t48.5 -12.5v-102q-14 5 -46.5 17t-83.5 12q-32 0 -50.5 -6.5t-27.5 -15.5t-11 -18t-2 -14q0 -17 8.5 -27.5t22 -18t29.5 -12.5l32 -10q22 -7 46.5 -18t45 -29t34 -45t13.5 -65q0 -31 -12 -59.5t-37 -51t-63 -36t-90 -13.5zM282 590h-83l88 160h140z" />
    <glyph glyph-name="Scircumflex" unicode="&#x15c;" horiz-adv-x="552" 
d="M53 155q42 -20 91.5 -34t96.5 -14q28 0 49.5 7.5t35 19.5t20.5 27t7 30q0 27 -13 45.5t-33.5 32t-45.5 24.5t-49 23q-39 19 -69.5 38t-51 41.5t-31 50.5t-10.5 65q0 26 9 60t33 64.5t67 51.5t111 21q50 0 101 -6.5t99 -23.5v-118q-31 13 -74 26.5t-94 13.5
q-33 0 -53.5 -7.5t-32 -18.5t-15.5 -24t-4 -24q0 -21 8.5 -36.5t21.5 -27.5t29.5 -20.5t33.5 -15.5q44 -19 82.5 -37.5t67.5 -44t45.5 -61t16.5 -87.5q0 -42 -16.5 -79t-49.5 -64.5t-83 -44t-118 -16.5q-51 0 -96.5 10t-85.5 25v128zM225 740h-114l113 140h112l113 -140
h-114l-55 64z" />
    <glyph glyph-name="scircumflex" unicode="&#x15d;" horiz-adv-x="454" 
d="M212 -8q-39 0 -86 8t-86 22v108q3 -1 16 -7t34 -12.5t47 -12t55 -5.5q26 0 43 6t26.5 14.5t13 18t3.5 17.5q0 16 -7 27t-19.5 19t-29 14t-34.5 13q-31 11 -56.5 23.5t-44 30t-28.5 41t-10 56.5q0 22 8 48.5t29 50t58 39t94 15.5q11 0 29.5 -0.5t41 -2.5t47 -6.5
t48.5 -12.5v-102q-14 5 -46.5 17t-83.5 12q-32 0 -50.5 -6.5t-27.5 -15.5t-11 -18t-2 -14q0 -17 8.5 -27.5t22 -18t29.5 -12.5l32 -10q22 -7 46.5 -18t45 -29t34 -45t13.5 -65q0 -31 -12 -59.5t-37 -51t-63 -36t-90 -13.5zM174 590h-100l116 160h100l116 -160h-100l-66 93z
" />
    <glyph glyph-name="Scedilla" unicode="&#x15e;" horiz-adv-x="552" 
d="M53 155q42 -20 91.5 -34t96.5 -14q28 0 49.5 7.5t35 19.5t20.5 27t7 30q0 27 -13 45.5t-33.5 32t-45.5 24.5t-49 23q-39 19 -69.5 38t-51 41.5t-31 50.5t-10.5 65q0 26 9 60t33 64.5t67 51.5t111 21q50 0 101 -6.5t99 -23.5v-118q-31 13 -74 26.5t-94 13.5
q-33 0 -53.5 -7.5t-32 -18.5t-15.5 -24t-4 -24q0 -21 8.5 -36.5t21.5 -27.5t29.5 -20.5t33.5 -15.5q44 -19 82.5 -37.5t67.5 -44t45.5 -61t16.5 -87.5q0 -42 -16.5 -79t-49.5 -64.5t-83 -44t-118 -16.5q-51 0 -96.5 10t-85.5 25v128zM295 18l-14 -83q21 0 40 -6.5t33.5 -19
t23 -31.5t8.5 -45q0 -45 -33 -73.5t-105 -28.5q-28 0 -49.5 5.5t-44.5 19.5l25 57q9 -6 21.5 -10.5t29.5 -4.5q29 0 41.5 9.5t12.5 26.5q0 23 -15.5 36.5t-41.5 13.5q-8 0 -15.5 -1t-15.5 -4l27 143z" />
    <glyph glyph-name="scedilla" unicode="&#x15f;" horiz-adv-x="454" 
d="M212 -8q-39 0 -86 8t-86 22v108q3 -1 16 -7t34 -12.5t47 -12t55 -5.5q26 0 43 6t26.5 14.5t13 18t3.5 17.5q0 16 -7 27t-19.5 19t-29 14t-34.5 13q-31 11 -56.5 23.5t-44 30t-28.5 41t-10 56.5q0 22 8 48.5t29 50t58 39t94 15.5q11 0 29.5 -0.5t41 -2.5t47 -6.5
t48.5 -12.5v-102q-14 5 -46.5 17t-83.5 12q-32 0 -50.5 -6.5t-27.5 -15.5t-11 -18t-2 -14q0 -17 8.5 -27.5t22 -18t29.5 -12.5l32 -10q22 -7 46.5 -18t45 -29t34 -45t13.5 -65q0 -31 -12 -59.5t-37 -51t-63 -36t-90 -13.5zM252 -7l-5 -25q19 0 33.5 -8.5t23.5 -21t13.5 -28
t4.5 -30.5q0 -17 -6.5 -32.5t-20 -28.5t-34.5 -20.5t-49 -7.5q-26 0 -44 8.5t-29 16.5l25 51q8 -6 21 -11.5t24 -5.5t25 5.5t14 24.5q0 20 -12.5 29t-31.5 9q-8 0 -15 -0.5t-15 -2.5l18 87z" />
    <glyph glyph-name="Scaron" unicode="&#x160;" horiz-adv-x="552" 
d="M53 155q42 -20 91.5 -34t96.5 -14q28 0 49.5 7.5t35 19.5t20.5 27t7 30q0 27 -13 45.5t-33.5 32t-45.5 24.5t-49 23q-39 19 -69.5 38t-51 41.5t-31 50.5t-10.5 65q0 26 9 60t33 64.5t67 51.5t111 21q50 0 101 -6.5t99 -23.5v-118q-31 13 -74 26.5t-94 13.5
q-33 0 -53.5 -7.5t-32 -18.5t-15.5 -24t-4 -24q0 -21 8.5 -36.5t21.5 -27.5t29.5 -20.5t33.5 -15.5q44 -19 82.5 -37.5t67.5 -44t45.5 -61t16.5 -87.5q0 -42 -16.5 -79t-49.5 -64.5t-83 -44t-118 -16.5q-51 0 -96.5 10t-85.5 25v128zM335 880h114l-113 -140h-112l-113 140
h114l55 -64z" />
    <glyph glyph-name="scaron" unicode="&#x161;" horiz-adv-x="454" 
d="M212 -8q-39 0 -86 8t-86 22v108q3 -1 16 -7t34 -12.5t47 -12t55 -5.5q26 0 43 6t26.5 14.5t13 18t3.5 17.5q0 16 -7 27t-19.5 19t-29 14t-34.5 13q-31 11 -56.5 23.5t-44 30t-28.5 41t-10 56.5q0 22 8 48.5t29 50t58 39t94 15.5q11 0 29.5 -0.5t41 -2.5t47 -6.5
t48.5 -12.5v-102q-14 5 -46.5 17t-83.5 12q-32 0 -50.5 -6.5t-27.5 -15.5t-11 -18t-2 -14q0 -17 8.5 -27.5t22 -18t29.5 -12.5l32 -10q22 -7 46.5 -18t45 -29t34 -45t13.5 -65q0 -31 -12 -59.5t-37 -51t-63 -36t-90 -13.5zM306 750h100l-116 -160h-100l-116 160h100l66 -93z
" />
    <glyph glyph-name="Tcedilla" unicode="&#x162;" horiz-adv-x="576" 
d="M561 700v-124h-202v-576h-39l-11 -65q21 0 40 -6.5t33.5 -19t23 -31.5t8.5 -45q0 -45 -33 -73.5t-105 -28.5q-28 0 -49.5 5.5t-44.5 19.5l25 57q9 -6 21.5 -10.5t29.5 -4.5q29 0 41.5 9.5t12.5 26.5q0 23 -15.5 36.5t-41.5 13.5q-8 0 -15.5 -1t-15.5 -4l23 121h-30v576
h-202v124h546z" />
    <glyph glyph-name="tcedilla" unicode="&#x163;" horiz-adv-x="396" 
d="M10 418v100h102v103l136 43v-146h120v-100h-120v-235q0 -17 1 -33.5t7.5 -29t20 -20.5t38.5 -8q14 0 27.5 2.5t25.5 6.5v-96q-22 -5 -48.5 -9t-56.5 -4h-3l-5 -24q19 0 33.5 -8.5t23.5 -21t13.5 -28t4.5 -30.5q0 -17 -6.5 -32.5t-20 -28.5t-34.5 -20.5t-49 -7.5
q-26 0 -44 8.5t-29 16.5l25 51q8 -6 21 -11.5t24 -5.5t25 5.5t14 24.5q0 20 -12.5 29t-31.5 9q-8 0 -15 -0.5t-15 -2.5l18 87q-32 12 -49.5 31t-26 40.5t-10.5 42.5t-2 36v266h-102z" />
    <glyph glyph-name="Tcaron" unicode="&#x164;" horiz-adv-x="576" 
d="M561 700v-124h-202v-576h-142v576h-202v124h546zM343 880h114l-113 -140h-112l-113 140h114l55 -64z" />
    <glyph glyph-name="tcaron" unicode="&#x165;" horiz-adv-x="446" 
d="M10 418v100h102v103l136 43v-146h120v-100h-120v-235q0 -17 1 -33.5t7.5 -29t20 -20.5t38.5 -8q14 0 27.5 2.5t25.5 6.5v-96q-3 -1 -13 -3t-24.5 -4.5t-32 -4t-35.5 -1.5q-56 0 -87 20t-45 47t-16.5 53.5t-2.5 39.5v266h-102zM466 750l-66 -190h-110l36 190h140z" />
    <glyph glyph-name="Umacron" unicode="&#x16a;" horiz-adv-x="724" 
d="M654 266q0 -25 -3.5 -55t-13.5 -60.5t-29.5 -59t-52 -50.5t-79.5 -35.5t-112 -13.5q-22 0 -52.5 2.5t-63 11t-64.5 26t-57.5 48t-41 76t-15.5 110.5v434h142v-434q0 -19 3.5 -47t18.5 -54t45 -44.5t83 -18.5t83 18.5t45 44.5t18.5 54t3.5 47v434h142v-434zM226 824h271
v-79h-271v79z" />
    <glyph glyph-name="umacron" unicode="&#x16b;" horiz-adv-x="612" 
d="M547 518v-518h-131v81h-3q-19 -29 -41 -46t-44.5 -27t-43 -13t-35.5 -3q-23 0 -55 5t-60.5 24t-48.5 57t-20 105v335h136v-313q0 -13 2 -30.5t10.5 -33.5t26 -27t49.5 -11q30 0 52.5 12t38 32t23.5 45.5t8 51.5v274h136zM436 685v-74h-261v74h261z" />
    <glyph glyph-name="Ubreve" unicode="&#x16c;" horiz-adv-x="724" 
d="M654 266q0 -25 -3.5 -55t-13.5 -60.5t-29.5 -59t-52 -50.5t-79.5 -35.5t-112 -13.5q-22 0 -52.5 2.5t-63 11t-64.5 26t-57.5 48t-41 76t-15.5 110.5v434h142v-434q0 -19 3.5 -47t18.5 -54t45 -44.5t83 -18.5t83 18.5t45 44.5t18.5 54t3.5 47v434h142v-434zM527 880
q-2 -51 -22.5 -79.5t-47.5 -42t-53.5 -16t-39.5 -2.5t-39.5 2.5t-53.5 16t-48 42t-22 79.5h64q0 -7 3 -17t13 -19.5t29.5 -16.5t53.5 -7t53.5 7t29.5 16.5t13 19.5t3 17h64z" />
    <glyph glyph-name="ubreve" unicode="&#x16d;" horiz-adv-x="612" 
d="M547 518v-518h-131v81h-3q-19 -29 -41 -46t-44.5 -27t-43 -13t-35.5 -3q-23 0 -55 5t-60.5 24t-48.5 57t-20 105v335h136v-313q0 -13 2 -30.5t10.5 -33.5t26 -27t49.5 -11q30 0 52.5 12t38 32t23.5 45.5t8 51.5v274h136zM459 740q0 -51 -20 -79.5t-46 -42t-51 -16
t-36 -2.5t-36 2.5t-51 16t-46 42t-20 79.5h54q0 -7 3 -17t13 -19.5t29.5 -16.5t53.5 -7t53.5 7t29.5 16.5t13 19.5t3 17h54z" />
    <glyph glyph-name="Uring" unicode="&#x16e;" horiz-adv-x="724" 
d="M654 266q0 -25 -3.5 -55t-13.5 -60.5t-29.5 -59t-52 -50.5t-79.5 -35.5t-112 -13.5q-22 0 -52.5 2.5t-63 11t-64.5 26t-57.5 48t-41 76t-15.5 110.5v434h142v-434q0 -19 3.5 -47t18.5 -54t45 -44.5t83 -18.5t83 18.5t45 44.5t18.5 54t3.5 47v434h142v-434zM256 830
q0 45 30.5 75.5t75.5 30.5t75.5 -30.5t30.5 -75.5t-30.5 -75.5t-75.5 -30.5t-75.5 30.5t-30.5 75.5zM306 830q0 -23 16.5 -39.5t39.5 -16.5t39.5 16.5t16.5 39.5t-16.5 39.5t-39.5 16.5t-39.5 -16.5t-16.5 -39.5z" />
    <glyph glyph-name="uring" unicode="&#x16f;" horiz-adv-x="612" 
d="M547 518v-518h-131v81h-3q-19 -29 -41 -46t-44.5 -27t-43 -13t-35.5 -3q-23 0 -55 5t-60.5 24t-48.5 57t-20 105v335h136v-313q0 -13 2 -30.5t10.5 -33.5t26 -27t49.5 -11q30 0 52.5 12t38 32t23.5 45.5t8 51.5v274h136zM200 676q0 45 30.5 75.5t75.5 30.5t75.5 -30.5
t30.5 -75.5t-30.5 -75.5t-75.5 -30.5t-75.5 30.5t-30.5 75.5zM250 676q0 -23 16.5 -39.5t39.5 -16.5t39.5 16.5t16.5 39.5t-16.5 39.5t-39.5 16.5t-39.5 -16.5t-16.5 -39.5z" />
    <glyph glyph-name="Uhungarumlaut" unicode="&#x170;" horiz-adv-x="724" 
d="M654 266q0 -25 -3.5 -55t-13.5 -60.5t-29.5 -59t-52 -50.5t-79.5 -35.5t-112 -13.5q-22 0 -52.5 2.5t-63 11t-64.5 26t-57.5 48t-41 76t-15.5 110.5v434h142v-434q0 -19 3.5 -47t18.5 -54t45 -44.5t83 -18.5t83 18.5t45 44.5t18.5 54t3.5 47v434h142v-434zM282 880h150
l-132 -140h-100zM501 880h150l-132 -140h-100z" />
    <glyph glyph-name="uhungarumlaut" unicode="&#x171;" horiz-adv-x="612" 
d="M547 518v-518h-131v81h-3q-19 -29 -41 -46t-44.5 -27t-43 -13t-35.5 -3q-23 0 -55 5t-60.5 24t-48.5 57t-20 105v335h136v-313q0 -13 2 -30.5t10.5 -33.5t26 -27t49.5 -11q30 0 52.5 12t38 32t23.5 45.5t8 51.5v274h136zM213 590h-80l94 160h134zM423 590h-80l94 160h134
z" />
    <glyph glyph-name="Uogonek" unicode="&#x172;" horiz-adv-x="724" 
d="M212 700v-434q0 -19 3.5 -47t18.5 -54t45 -44.5t83 -18.5t83 18.5t45 44.5t18.5 54t3.5 47v434h142v-434q0 -74 -17.5 -119.5t-45 -73.5t-60.5 -43.5t-64 -28.5q-24 -10 -47 -24.5t-40.5 -34.5t-28.5 -45t-11 -52q0 -7 2 -16t8 -16.5t16.5 -13t27.5 -5.5t42 6t45 17
l17 -50q-29 -17 -59.5 -26.5t-72.5 -9.5q-10 0 -33 1.5t-47 11t-42 29.5t-18 57q0 50 32 94t87 68q-42 -1 -90 10t-89 41t-68.5 83.5t-27.5 139.5v434h142z" />
    <glyph glyph-name="uogonek" unicode="&#x173;" horiz-adv-x="612" 
d="M547 518v-518q-40 -23 -62 -46t-32 -44t-11.5 -38t-1.5 -27q0 -26 16 -40.5t40 -14.5q19 0 42.5 6t43.5 16l16 -46q-28 -17 -58.5 -26t-71.5 -9q-48 0 -76 12.5t-41.5 28.5t-17 32t-3.5 24q0 22 7 47t23.5 48t42 43t63.5 34h-50v81h-3q-19 -29 -41 -46t-44.5 -27t-43 -13
t-35.5 -3q-23 0 -55 5t-60.5 24t-48.5 57t-20 105v335h136v-313q0 -13 2 -30.5t10.5 -33.5t26 -27t49.5 -11q30 0 52.5 12t38 32t23.5 45.5t8 51.5v274h136z" />
    <glyph glyph-name="Ydieresis" unicode="&#x178;" horiz-adv-x="642" 
d="M159 700l144 -246l22 -48h3l24 48l145 246h150l-252 -416v-284h-142v286l-258 414h164zM271 867v-115h-115v115h115zM500 867v-115h-115v115h115z" />
    <glyph glyph-name="Zacute" unicode="&#x179;" horiz-adv-x="591" 
d="M207 124h334v-124h-491v119l326 459l-81 -2h-236v124h471v-122zM273 880h160l-132 -140h-110z" />
    <glyph glyph-name="zacute" unicode="&#x17a;" horiz-adv-x="537" 
d="M477 518v-100l-221 -265l-46 -50v-3h277v-100h-437v103l230 264l45 48v3h-262v100h414zM257 590h-83l88 160h140z" />
    <glyph glyph-name="Zdotaccent" unicode="&#x17b;" horiz-adv-x="591" 
d="M207 124h334v-124h-491v119l326 459l-81 -2h-236v124h471v-122zM366 876v-126h-142v126h142z" />
    <glyph glyph-name="zdotaccent" unicode="&#x17c;" horiz-adv-x="537" 
d="M477 518v-100l-221 -265l-46 -50v-3h277v-100h-437v103l230 264l45 48v3h-262v100h414zM338 736v-140h-140v140h140z" />
    <glyph glyph-name="Zcaron" unicode="&#x17d;" horiz-adv-x="591" 
d="M207 124h334v-124h-491v119l326 459l-81 -2h-236v124h471v-122zM350 880h114l-113 -140h-112l-113 140h114l55 -64z" />
    <glyph glyph-name="zcaron" unicode="&#x17e;" horiz-adv-x="537" 
d="M477 518v-100l-221 -265l-46 -50v-3h277v-100h-437v103l230 264l45 48v3h-262v100h414zM334 750h100l-116 -160h-100l-116 160h100l66 -93z" />
    <glyph glyph-name="uni018F" unicode="&#x18f;" horiz-adv-x="762" 
d="M374 -8q-67 0 -126.5 20t-104.5 63t-71.5 111t-26.5 164v68h515q-12 85 -71 130.5t-156 45.5q-51 0 -100 -8.5t-108 -31.5v128q56 14 108 20t97 6q88 0 159.5 -23.5t122 -69t78 -112t27.5 -153.5q0 -95 -29.5 -163t-77.5 -111.5t-109.5 -63.5t-126.5 -20zM374 92
q18 0 48 6t60 28t53.5 65t29.5 117h-382q4 -49 16 -84.5t29 -59.5t37.5 -38.5t40.5 -21.5t37.5 -9.5t30.5 -2.5z" />
    <glyph glyph-name="florin" unicode="&#x192;" 
d="M124 -218q-28 0 -54 4.5t-40 10.5v95q12 -7 31.5 -9t40.5 -2q17 0 28.5 8.5t20 23t13.5 33.5t9 40l62 346h-92l16 94h93l17 91q7 39 18.5 73.5t30 61t46 41.5t66.5 15q36 0 62.5 -4.5t37.5 -9.5v-94q-30 12 -65 12q-15 0 -26.5 -4t-19.5 -14.5t-14.5 -29t-11.5 -47.5
l-16 -91h92l-15 -94h-95l-62 -347q-10 -55 -24 -93.5t-34 -63t-48.5 -35.5t-66.5 -11z" />
    <glyph glyph-name="uni01CF" unicode="&#x1cf;" horiz-adv-x="282" 
d="M70 700h142v-700h-142v700zM197 880h114l-113 -140h-112l-113 140h114l55 -64z" />
    <glyph glyph-name="uni01D0" unicode="&#x1d0;" horiz-adv-x="270" 
d="M203 518v-518h-136v518h136zM202 750h100l-116 -160h-100l-116 160h100l66 -93z" />
    <glyph glyph-name="uni01DD" unicode="&#x1dd;" horiz-adv-x="565" 
d="M388 311q-2 22 -12 43t-29 37.5t-47 26.5t-66 10q-45 0 -85 -9.5t-77 -26.5v102q40 15 86 23.5t93 8.5q58 0 109 -16t88.5 -49t59.5 -83t22 -119q0 -63 -20.5 -112.5t-55.5 -84t-81.5 -52.5t-98.5 -18q-59 0 -99.5 17.5t-67 44.5t-41 59.5t-21.5 63.5t-8.5 55.5
t-1.5 36.5v42h353zM175 218q0 -69 29.5 -100.5t77.5 -31.5q27 0 46.5 10.5t33 28.5t20 42t6.5 51h-213z" />
    <glyph glyph-name="Gcaron" unicode="&#x1e6;" horiz-adv-x="729" 
d="M414 -8q-83 0 -151 24t-116.5 69.5t-75 112t-26.5 152.5q0 87 27.5 153.5t78 112t122 69t159.5 23.5q55 0 103 -6t102 -24v-128q-54 25 -106.5 34.5t-101.5 9.5q-53 0 -96.5 -17t-74 -48.5t-47 -76.5t-16.5 -102q0 -56 16 -100.5t46 -75.5t72 -47.5t94 -16.5q26 0 48 2.5
t46 11.5v167h-143v110h285v-371q-12 -3 -37 -9.5t-58 -13t-71.5 -11t-78.5 -4.5zM465 880h114l-113 -140h-112l-113 140h114l55 -64z" />
    <glyph glyph-name="gcaron" unicode="&#x1e7;" horiz-adv-x="612" 
d="M283 -222q-37 0 -86.5 6.5t-106.5 29.5v119q42 -21 85.5 -34.5t85.5 -13.5q73 0 111.5 37t38.5 102v68h-3q-4 -9 -14 -25t-28.5 -31.5t-46.5 -26.5t-69 -11q-59 0 -100 23.5t-66.5 61t-37 83.5t-11.5 91q0 61 16 110.5t44 85t67 54.5t86 19q8 0 29 -1t46 -10t50.5 -28.5
t42.5 -55.5h3v87h128v-477q0 -15 -1.5 -40.5t-9 -54.5t-23.5 -59t-45.5 -54t-74.5 -39.5t-110 -15.5zM287 411q-29 0 -49.5 -12.5t-34 -33.5t-20 -48.5t-6.5 -56.5q0 -49 12.5 -79t30.5 -46.5t39 -22.5t38 -6q22 0 42.5 10t36.5 30.5t25.5 51t9.5 72.5q0 66 -33.5 103.5
t-90.5 37.5zM376 750h100l-116 -160h-100l-116 160h100l66 -93z" />
    <glyph glyph-name="Scommaaccent" unicode="&#x218;" horiz-adv-x="552" 
d="M53 155q42 -20 91.5 -34t96.5 -14q28 0 49.5 7.5t35 19.5t20.5 27t7 30q0 27 -13 45.5t-33.5 32t-45.5 24.5t-49 23q-39 19 -69.5 38t-51 41.5t-31 50.5t-10.5 65q0 26 9 60t33 64.5t67 51.5t111 21q50 0 101 -6.5t99 -23.5v-118q-31 13 -74 26.5t-94 13.5
q-33 0 -53.5 -7.5t-32 -18.5t-15.5 -24t-4 -24q0 -21 8.5 -36.5t21.5 -27.5t29.5 -20.5t33.5 -15.5q44 -19 82.5 -37.5t67.5 -44t45.5 -61t16.5 -87.5q0 -42 -16.5 -79t-49.5 -64.5t-83 -44t-118 -16.5q-51 0 -96.5 10t-85.5 25v128zM340 -50l-56 -190h-120l36 190h140z" />
    <glyph glyph-name="scommaaccent" unicode="&#x219;" horiz-adv-x="454" 
d="M212 -8q-39 0 -86 8t-86 22v108q3 -1 16 -7t34 -12.5t47 -12t55 -5.5q26 0 43 6t26.5 14.5t13 18t3.5 17.5q0 16 -7 27t-19.5 19t-29 14t-34.5 13q-31 11 -56.5 23.5t-44 30t-28.5 41t-10 56.5q0 22 8 48.5t29 50t58 39t94 15.5q11 0 29.5 -0.5t41 -2.5t47 -6.5
t48.5 -12.5v-102q-14 5 -46.5 17t-83.5 12q-32 0 -50.5 -6.5t-27.5 -15.5t-11 -18t-2 -14q0 -17 8.5 -27.5t22 -18t29.5 -12.5l32 -10q22 -7 46.5 -18t45 -29t34 -45t13.5 -65q0 -31 -12 -59.5t-37 -51t-63 -36t-90 -13.5zM300 -50l-66 -190h-110l36 190h140z" />
    <glyph glyph-name="Tcommaaccent" unicode="&#x21a;" horiz-adv-x="576" 
d="M561 700v-124h-202v-576h-142v576h-202v124h546zM358 -50l-56 -190h-120l36 190h140z" />
    <glyph glyph-name="tcommaaccent" unicode="&#x21b;" horiz-adv-x="396" 
d="M10 418v100h102v103l136 43v-146h120v-100h-120v-235q0 -17 1 -33.5t7.5 -29t20 -20.5t38.5 -8q14 0 27.5 2.5t25.5 6.5v-96q-3 -1 -13 -3t-24.5 -4.5t-32 -4t-35.5 -1.5q-56 0 -87 20t-45 47t-16.5 53.5t-2.5 39.5v266h-102zM280 -50l-66 -190h-110l36 190h140z" />
    <glyph glyph-name="uni0259" unicode="&#x259;" horiz-adv-x="565" 
d="M388 311q-2 22 -12 43t-29 37.5t-47 26.5t-66 10q-45 0 -85 -9.5t-77 -26.5v102q40 15 86 23.5t93 8.5q58 0 109 -16t88.5 -49t59.5 -83t22 -119q0 -63 -20.5 -112.5t-55.5 -84t-81.5 -52.5t-98.5 -18q-59 0 -99.5 17.5t-67 44.5t-41 59.5t-21.5 63.5t-8.5 55.5
t-1.5 36.5v42h353zM175 218q0 -69 29.5 -100.5t77.5 -31.5q27 0 46.5 10.5t33 28.5t20 42t6.5 51h-213z" />
    <glyph glyph-name="afii57929" unicode="&#x2bc;" horiz-adv-x="276" 
d="M226 750l-66 -190h-110l36 190h140z" />
    <glyph glyph-name="circumflex" unicode="&#x2c6;" horiz-adv-x="452" 
d="M160 590h-100l116 160h100l116 -160h-100l-66 93z" />
    <glyph glyph-name="caron" unicode="&#x2c7;" horiz-adv-x="452" 
d="M292 750h100l-116 -160h-100l-116 160h100l66 -93z" />
    <glyph glyph-name="uni02C9" unicode="&#x2c9;" horiz-adv-x="381" 
d="M321 685v-74h-261v74h261z" />
    <glyph glyph-name="breve" unicode="&#x2d8;" horiz-adv-x="426" 
d="M366 740q0 -51 -20 -79.5t-46 -42t-51 -16t-36 -2.5t-36 2.5t-51 16t-46 42t-20 79.5h54q0 -7 3 -17t13 -19.5t29.5 -16.5t53.5 -7t53.5 7t29.5 16.5t13 19.5t3 17h54z" />
    <glyph glyph-name="dotaccent" unicode="&#x2d9;" horiz-adv-x="380" 
d="M260 736v-140h-140v140h140z" />
    <glyph glyph-name="ring" unicode="&#x2da;" horiz-adv-x="332" 
d="M60 676q0 45 30.5 75.5t75.5 30.5t75.5 -30.5t30.5 -75.5t-30.5 -75.5t-75.5 -30.5t-75.5 30.5t-30.5 75.5zM110 676q0 -23 16.5 -39.5t39.5 -16.5t39.5 16.5t16.5 39.5t-16.5 39.5t-39.5 16.5t-39.5 -16.5t-16.5 -39.5z" />
    <glyph glyph-name="ogonek" unicode="&#x2db;" horiz-adv-x="268" 
d="M217 0q-38 -22 -59.5 -43.5t-32 -41t-13 -35.5t-2.5 -25q0 -7 1.5 -18t7 -21.5t16.5 -18t31 -7.5q19 0 42.5 6t43.5 16l16 -46q-28 -17 -58.5 -26t-71.5 -9q-48 0 -76 12.5t-41.5 28.5t-17 32t-3.5 24q0 22 7 47t23.5 48t42 43t63.5 34h81z" />
    <glyph glyph-name="tilde" unicode="&#x2dc;" horiz-adv-x="420" 
d="M30 596q1 13 6.5 34.5t18.5 42.5t35 36t57 15q28 0 72 -16q20 -8 37 -13.5t34 -5.5q15 0 23.5 6t13 14t6.5 16t2 12h55q-5 -37 -17.5 -62t-29 -40t-35 -21t-34.5 -6t-36 5.5t-37 11.5q-16 5 -34 12t-35 7q-15 0 -24 -5.5t-14 -13t-7 -16t-2 -13.5h-55z" />
    <glyph glyph-name="hungarumlaut" unicode="&#x2dd;" horiz-adv-x="538" 
d="M140 590h-80l94 160h134zM350 590h-80l94 160h134z" />
    <glyph glyph-name="gravecomb" unicode="&#x300;" horiz-adv-x="2" 
d="M-305 750l88 -160h-83l-145 160h140z" />
    <glyph glyph-name="acutecomb" unicode="&#x301;" horiz-adv-x="2" 
d="M-266 590h-83l88 160h140z" />
    <glyph glyph-name="uni037E" unicode="&#x37e;" horiz-adv-x="287" 
d="M228 376h-140v142h140v-142zM237 135l-69 -250h-118l47 250h140z" />
    <glyph glyph-name="uni0394" unicode="&#x394;" horiz-adv-x="666" 
d="M18 0l257 700h116l257 -700h-630zM194 115h278l-139 419z" />
    <glyph glyph-name="uni03A9" unicode="&#x3a9;" horiz-adv-x="776" 
d="M388 608q-45 0 -77 -12.5t-53.5 -32.5t-34 -44t-19 -47t-8 -42.5t-1.5 -29.5q0 -54 11.5 -91.5t32 -61.5t47.5 -36.5t59 -16.5v-194h-281l-17 145l104 4l6 -49h80v47q-64 12 -102 45.5t-58 73t-26 79t-6 63.5q0 57 20 111t61.5 96t106.5 67.5t155 25.5t155 -25.5
t106.5 -67.5t61.5 -96t20 -111q0 -24 -6 -63.5t-26 -79t-58 -73t-102 -45.5v-47h80l6 49l104 -4l-17 -145h-281v194q31 4 58.5 16.5t48 36.5t32 61.5t11.5 91.5q0 10 -1.5 29.5t-8 42.5t-19 47t-34 44t-53.5 32.5t-77 12.5z" />
    <glyph glyph-name="uni03BC" unicode="&#x3bc;" horiz-adv-x="577" 
d="M61 518h136v-313q0 -32 8 -52t21 -31t28.5 -15t30.5 -4q24 0 46 9t39 27t27 44.5t10 60.5v274h136v-518h-131v81h-3q-8 -15 -19.5 -31t-28 -29t-38 -21t-48.5 -8q-38 0 -59 16t-32 48h-4v-270h-119v732z" />
    <glyph glyph-name="pi" unicode="&#x3c0;" horiz-adv-x="756" 
d="M316 418v-418h-136v418h-14q-6 0 -15 -1.5t-19 -5.5t-19.5 -11.5t-16.5 -19.5l-86 62q27 43 69 59.5t87 16.5h545v-100h-73v-418h-136v418h-186z" />
    <glyph glyph-name="afii10023" unicode="&#x401;" horiz-adv-x="538" 
d="M488 700v-124h-276v-158h251v-115h-251v-179h276v-124h-418v700h418zM226 867v-115h-115v115h115zM455 867v-115h-115v115h115z" />
    <glyph glyph-name="afii10051" unicode="&#x402;" horiz-adv-x="785" 
d="M520 -8q-26 0 -47.5 2t-42.5 6v107q18 -6 36 -8t43 -2q13 0 27.5 4.5t27.5 18t21.5 38.5t8.5 66q0 39 -11.5 62t-28 34.5t-36 15t-35.5 3.5q-26 0 -50 -6t-43 -13.5t-32.5 -15t-18.5 -10.5v-294h-142v576h-177v124h552v-124h-233v-176q41 25 84.5 37t96.5 12t90 -13
t61.5 -33t38.5 -45t20.5 -49.5t8 -46t1.5 -33.5q0 -70 -15.5 -116t-44 -73t-69 -37.5t-91.5 -10.5z" />
    <glyph glyph-name="afii10052" unicode="&#x403;" horiz-adv-x="510" 
d="M500 700v-124h-288v-576h-142v700h430zM302 880h160l-132 -140h-110z" />
    <glyph glyph-name="afii10053" unicode="&#x404;" horiz-adv-x="635" 
d="M409 -8q-65 0 -130 19.5t-117 62t-84.5 109.5t-32.5 163q0 86 29.5 153.5t81.5 114t123.5 70.5t155.5 24q42 0 78.5 -5t76.5 -19v-122q-31 12 -66 20t-79 8q-53 0 -94 -13.5t-71 -37t-49 -55t-28 -66.5h284v-115h-289q4 -37 19.5 -71.5t45 -61.5t72 -43.5t100.5 -16.5
q49 0 85.5 10t69.5 25v-123q-47 -16 -93 -23t-88 -7z" />
    <glyph glyph-name="afii10054" unicode="&#x405;" horiz-adv-x="552" 
d="M53 155q42 -20 91.5 -34t96.5 -14q28 0 49.5 7.5t35 19.5t20.5 27t7 30q0 27 -13 45.5t-33.5 32t-45.5 24.5t-49 23q-39 19 -69.5 38t-51 41.5t-31 50.5t-10.5 65q0 26 9 60t33 64.5t67 51.5t111 21q50 0 101 -6.5t99 -23.5v-118q-31 13 -74 26.5t-94 13.5
q-33 0 -53.5 -7.5t-32 -18.5t-15.5 -24t-4 -24q0 -21 8.5 -36.5t21.5 -27.5t29.5 -20.5t33.5 -15.5q44 -19 82.5 -37.5t67.5 -44t45.5 -61t16.5 -87.5q0 -42 -16.5 -79t-49.5 -64.5t-83 -44t-118 -16.5q-51 0 -96.5 10t-85.5 25v128z" />
    <glyph glyph-name="afii10055" unicode="&#x406;" horiz-adv-x="282" 
d="M70 700h142v-700h-142v700z" />
    <glyph glyph-name="afii10056" unicode="&#x407;" horiz-adv-x="282" 
d="M70 700h142v-700h-142v700zM121 867v-115h-100v115h100zM261 867v-115h-100v115h100z" />
    <glyph glyph-name="afii10057" unicode="&#x408;" horiz-adv-x="379" 
d="M309 700v-497q0 -35 -5 -72.5t-24 -68.5t-55 -50.5t-97 -19.5q-25 0 -53 3.5t-55 9.5v114q17 -4 35.5 -6.5t32.5 -2.5q47 0 63 28t16 75v487h142z" />
    <glyph glyph-name="afii10058" unicode="&#x409;" horiz-adv-x="1010" 
d="M70 -8q-28 0 -60 8v111q13 -3 23.5 -4t21.5 -1q15 0 27.5 4.5t23 18.5t18.5 40t13.5 70t8.5 107.5t3 153.5v200h460v-250h86q142 0 206 -58t64 -167q0 -51 -17 -92.5t-50.5 -71t-84.5 -45.5t-118 -16h-228v576h-185v-76q0 -164 -13 -264t-39.5 -154t-66.5 -72t-93 -18z
M815 225q0 115 -120 115h-86v-230h86q120 0 120 115z" />
    <glyph glyph-name="afii10059" unicode="&#x40a;" horiz-adv-x="1039" 
d="M638 428h98q73 0 122.5 -18t79.5 -47t43 -65t13 -72q0 -41 -12.5 -81t-43 -72.5t-81 -52.5t-125.5 -20h-236v313h-284v-313h-142v700h142v-272h284v272h142v-272zM638 110h94q30 0 52 9.5t36.5 24.5t21.5 34.5t7 40.5q0 15 -5 32.5t-19 32.5t-39 24.5t-65 9.5h-83v-208z
" />
    <glyph glyph-name="afii10060" unicode="&#x40b;" horiz-adv-x="792" 
d="M570 700v-124h-232v-174q48 25 97 38.5t100 13.5q97 0 152 -46t55 -130v-278h-142v238q0 6 -1.5 23.5t-12 36t-33 32.5t-64.5 14q-31 0 -70.5 -11.5t-80.5 -35.5v-297h-142v576h-176v124h550z" />
    <glyph glyph-name="afii10061" unicode="&#x40c;" horiz-adv-x="662" 
d="M212 700v-299h3l253 299h169l-292 -317l310 -383h-180l-260 348h-3v-348h-142v700h142zM322 880h160l-132 -140h-110z" />
    <glyph glyph-name="afii10062" unicode="&#x40e;" horiz-adv-x="644" 
d="M198 -8q-25 0 -48.5 3.5t-49.5 14.5v110q15 -8 33 -11.5t35 -3.5q33 0 50.5 11t28.5 36l20 47l-257 501h159l139 -298l30 -74h3l30 75l133 297h140l-280 -595q-29 -63 -69.5 -88t-96.5 -25zM336 745q-32 0 -60 8.5t-49.5 25.5t-35 44t-15.5 64l85 8q4 -36 20.5 -55.5
t54.5 -19.5t54.5 19.5t20.5 55.5l85 -8q-2 -37 -15.5 -64t-35 -44t-50 -25.5t-59.5 -8.5z" />
    <glyph glyph-name="afii10145" unicode="&#x40f;" horiz-adv-x="701" 
d="M70 700h142v-585h277v585h142v-700h-210v-135h-141v135h-210v700z" />
    <glyph glyph-name="afii10017" unicode="&#x410;" horiz-adv-x="730" 
d="M285 700h160l270 -700h-160l-54 158h-282l-54 -158h-150zM462 273l-101 298h-2l-101 -298h204z" />
    <glyph glyph-name="afii10018" unicode="&#x411;" horiz-adv-x="622" 
d="M518 700v-124h-306v-146h114q77 0 125.5 -22.5t76 -56.5t37.5 -73.5t10 -73.5q0 -28 -11 -63t-38.5 -66.5t-76 -53t-123.5 -21.5h-256v700h448zM212 110h88q60 0 92.5 25.5t32.5 79.5t-32.5 79.5t-92.5 25.5h-88v-210z" />
    <glyph glyph-name="afii10019" unicode="&#x412;" horiz-adv-x="613" 
d="M300 700q51 0 94 -10.5t73.5 -32t48 -54t17.5 -76.5q0 -39 -11 -67t-27.5 -47t-36.5 -30t-39 -17v-2q68 -11 107.5 -56t39.5 -111q0 -33 -11.5 -67.5t-42 -63.5t-84 -47.5t-137.5 -18.5h-221v700h230zM212 416h69q34 0 55.5 9t33.5 22.5t16 28.5t4 27q0 7 -2.5 22t-14 29
t-34.5 25t-64 11h-63v-174zM212 110h79q33 0 57 8.5t39 22t22 31t7 36.5t-6 36.5t-20 31t-38 22t-61 8.5h-79v-196z" />
    <glyph glyph-name="afii10020" unicode="&#x413;" horiz-adv-x="510" 
d="M500 700v-124h-288v-576h-142v700h430z" />
    <glyph glyph-name="afii10021" unicode="&#x414;" horiz-adv-x="741" 
d="M100 124q27 45 43.5 87.5t25.5 85.5t12.5 87t3.5 92v224h456v-576h80v-271h-140v147h-421v-147h-140v271h80zM320 576v-100q0 -52 -2.5 -97.5t-10 -88t-21.5 -83.5t-38 -83h251v452h-179z" />
    <glyph glyph-name="afii10022" unicode="&#x415;" horiz-adv-x="538" 
d="M488 700v-124h-276v-158h251v-115h-251v-179h276v-124h-418v700h418z" />
    <glyph glyph-name="afii10024" unicode="&#x416;" horiz-adv-x="978" 
d="M560 700v-299h3l235 299h169l-272 -317l276 -383h-180l-228 348h-3v-348h-142v348h-3l-228 -348h-180l276 383l-272 317h169l235 -299h3v299h142z" />
    <glyph glyph-name="afii10025" unicode="&#x417;" horiz-adv-x="569" 
d="M243 -8q-31 0 -57 3t-50.5 8.5t-48 13.5t-49.5 18v123q72 -32 120 -41.5t78 -9.5q40 0 67 9.5t42.5 23.5t22 30t6.5 30q0 40 -17.5 61.5t-40.5 31.5t-45.5 12t-32.5 2h-85v115h85q54 0 83 24t29 66q0 14 -5.5 28.5t-18.5 26t-34.5 19t-54.5 7.5q-53 0 -92.5 -12
t-82.5 -32v124q26 9 50 15.5t48.5 11t50.5 6.5t56 2q60 0 105 -13t74.5 -36.5t44 -56t14.5 -70.5q0 -54 -28.5 -98t-87.5 -60v-3q28 -5 53 -17.5t44.5 -33t31 -49.5t11.5 -68q0 -50 -16.5 -85t-42 -58.5t-58 -37t-64 -20t-59.5 -8.5t-46 -2z" />
    <glyph glyph-name="afii10026" unicode="&#x418;" horiz-adv-x="747" 
d="M212 700v-360l-3 -170h3l50 102l245 428h170v-700h-142v361l3 169h-3l-48 -106l-247 -424h-170v700h142z" />
    <glyph glyph-name="afii10027" unicode="&#x419;" horiz-adv-x="747" 
d="M212 700v-360l-3 -170h3l50 102l245 428h170v-700h-142v361l3 169h-3l-48 -106l-247 -424h-170v700h142zM373 745q-32 0 -60 8.5t-49.5 25.5t-35 44t-15.5 64l85 8q4 -36 20.5 -55.5t54.5 -19.5t54.5 19.5t20.5 55.5l85 -8q-2 -37 -15.5 -64t-35 -44t-50 -25.5
t-59.5 -8.5z" />
    <glyph glyph-name="afii10028" unicode="&#x41a;" horiz-adv-x="662" 
d="M212 700v-299h3l253 299h169l-292 -317l310 -383h-180l-260 348h-3v-348h-142v700h142z" />
    <glyph glyph-name="afii10029" unicode="&#x41b;" horiz-adv-x="679" 
d="M70 -8q-28 0 -60 8v111q13 -3 23.5 -4t21.5 -1q15 0 27.5 4.5t23 18.5t18.5 40t13.5 70t8.5 107.5t3 153.5v200h460v-700h-142v576h-185v-76q0 -164 -13 -264t-39.5 -154t-66.5 -72t-93 -18z" />
    <glyph glyph-name="afii10030" unicode="&#x41c;" horiz-adv-x="870" 
d="M70 700h217l153 -360l153 360h207v-700h-142v550h-2l-155 -360h-132l-155 360h-2v-550h-142v700z" />
    <glyph glyph-name="afii10031" unicode="&#x41d;" horiz-adv-x="708" 
d="M212 700v-282h284v282h142v-700h-142v303h-284v-303h-142v700h142z" />
    <glyph glyph-name="afii10032" unicode="&#x41e;" horiz-adv-x="776" 
d="M388 708q65 0 126.5 -20t109.5 -63.5t77.5 -111.5t29.5 -163t-29.5 -163t-77.5 -111.5t-109.5 -63.5t-126.5 -20t-126.5 20t-109.5 63.5t-77.5 111.5t-29.5 163t29.5 163t77.5 111.5t109.5 63.5t126.5 20zM388 608q-20 0 -52.5 -7t-64 -33t-54 -77.5t-22.5 -140.5
t22.5 -140.5t54 -77.5t64 -33t52.5 -7t52.5 7t64 33t54 77.5t22.5 140.5t-22.5 140.5t-54 77.5t-64 33t-52.5 7z" />
    <glyph glyph-name="afii10033" unicode="&#x41f;" horiz-adv-x="701" 
d="M631 700v-700h-142v585h-277v-585h-142v700h561z" />
    <glyph glyph-name="afii10034" unicode="&#x420;" horiz-adv-x="586" 
d="M276 700q67 0 118 -16t84.5 -45.5t50.5 -71t17 -92.5q0 -109 -64 -167t-206 -58h-64v-250h-142v700h206zM276 360q120 0 120 115t-120 115h-64v-230h64z" />
    <glyph glyph-name="afii10035" unicode="&#x421;" horiz-adv-x="630" 
d="M409 -8q-65 0 -130 19.5t-117 62t-84.5 109.5t-32.5 163q0 90 30 158t82.5 113.5t123.5 68t154 22.5q42 0 78.5 -5.5t76.5 -18.5v-122q-31 12 -65.5 20t-79.5 8q-59 0 -105.5 -17.5t-78.5 -49.5t-49 -76.5t-17 -98.5q0 -63 20 -108.5t53 -74t76.5 -42t90.5 -13.5
q54 0 91.5 11.5t63.5 23.5v-123q-47 -16 -93 -23t-88 -7z" />
    <glyph glyph-name="afii10036" unicode="&#x422;" horiz-adv-x="576" 
d="M561 700v-124h-202v-576h-142v576h-202v124h546z" />
    <glyph glyph-name="afii10037" unicode="&#x423;" horiz-adv-x="644" 
d="M198 -8q-25 0 -48.5 3.5t-49.5 14.5v110q15 -8 33 -11.5t35 -3.5q33 0 50.5 11t28.5 36l20 47l-257 501h159l139 -298l30 -74h3l30 75l133 297h140l-280 -595q-29 -63 -69.5 -88t-96.5 -25z" />
    <glyph glyph-name="afii10038" unicode="&#x424;" horiz-adv-x="900" 
d="M379 80h-44q-64 0 -117 21t-91.5 58.5t-60 89t-21.5 111.5t21.5 111t60 88.5t91.5 59t117 21.5h44v88h142v-88h44q64 0 117 -21.5t91.5 -59t60 -88.5t21.5 -111t-21.5 -111.5t-60 -89t-91.5 -58.5t-117 -21h-44v-88h-142v88zM705 360q0 83 -41 126.5t-109 43.5h-34v-340
h34q68 0 109 43.5t41 126.5zM195 360q0 -83 41 -126.5t109 -43.5h34v340h-34q-68 0 -109 -43t-41 -127z" />
    <glyph glyph-name="afii10039" unicode="&#x425;" horiz-adv-x="669" 
d="M194 700l112 -195l32 -59h3l32 59l115 195h155l-213 -334l234 -366h-168l-134 222l-30 54h-3l-30 -54l-139 -222h-155l234 366l-213 334h168z" />
    <glyph glyph-name="afii10040" unicode="&#x426;" horiz-adv-x="739" 
d="M212 700v-576h284v576h142v-576h81v-268h-129v144h-520v700h142z" />
    <glyph glyph-name="afii10041" unicode="&#x427;" horiz-adv-x="671" 
d="M192 700v-239q0 -18 2 -37.5t15 -36t40.5 -27t78.5 -10.5q35 0 67 4.5t64 12.5v333h142v-700h-142v249q-29 -6 -59 -10t-72 -4q-90 0 -144.5 18t-84.5 47t-39.5 66t-9.5 76v258h142z" />
    <glyph glyph-name="afii10042" unicode="&#x428;" horiz-adv-x="1038" 
d="M212 700v-576h236v576h142v-576h236v576h142v-700h-898v700h142z" />
    <glyph glyph-name="afii10043" unicode="&#x429;" horiz-adv-x="1067" 
d="M212 700v-576h236v576h142v-576h236v576h142v-576h79v-274h-133v150h-844v700h142z" />
    <glyph glyph-name="afii10044" unicode="&#x42a;" horiz-adv-x="704" 
d="M161 576h-151v124h293v-250h86q142 0 206 -58t64 -167q0 -51 -17 -92.5t-50.5 -71t-84.5 -45.5t-118 -16h-228v576zM509 225q0 115 -120 115h-86v-230h86q120 0 120 115z" />
    <glyph glyph-name="afii10045" unicode="&#x42b;" horiz-adv-x="880" 
d="M70 700h142v-250h86q142 0 206 -58t64 -167q0 -51 -17 -92.5t-50.5 -71t-84.5 -45.5t-118 -16h-228v700zM418 225q0 115 -120 115h-86v-230h86q120 0 120 115zM668 700h142v-700h-142v700z" />
    <glyph glyph-name="afii10046" unicode="&#x42c;" horiz-adv-x="613" 
d="M70 700h142v-250h86q142 0 206 -58t64 -167q0 -51 -17 -92.5t-50.5 -71t-84.5 -45.5t-118 -16h-228v700zM418 225q0 115 -120 115h-86v-230h86q120 0 120 115z" />
    <glyph glyph-name="afii10047" unicode="&#x42d;" horiz-adv-x="640" 
d="M222 -8q-46 0 -92 8t-95 25v124q56 -24 102.5 -33t89.5 -9q54 0 94.5 15.5t67.5 42t41 62t15 76.5h-294v115h294q-4 25 -16 56t-38.5 57t-69.5 44t-109 18q-46 0 -85.5 -8t-76.5 -22v115q41 14 88.5 22t104.5 8q79 0 143.5 -23.5t111 -68.5t72 -109.5t25.5 -145.5
q0 -84 -25 -152t-72.5 -116t-117 -74.5t-158.5 -26.5z" />
    <glyph glyph-name="afii10048" unicode="&#x42e;" horiz-adv-x="1045" 
d="M316 414q6 67 35 121.5t74.5 93t105 59t126.5 20.5q65 0 126.5 -20t109.5 -63.5t77.5 -111.5t29.5 -163t-29.5 -163t-77.5 -111.5t-109.5 -63.5t-126.5 -20q-75 0 -136.5 24t-105.5 65t-69.5 97t-29.5 121h-104v-299h-142v700h142v-286h104zM657 608q-20 0 -52.5 -7
t-64 -33t-54 -77.5t-22.5 -140.5t22.5 -140.5t54 -77.5t64 -33t52.5 -7t52.5 7t64 33t54 77.5t22.5 140.5t-22.5 140.5t-54 77.5t-64 33t-52.5 7z" />
    <glyph glyph-name="afii10049" unicode="&#x42f;" horiz-adv-x="638" 
d="M190 277q-66 25 -95.5 75.5t-29.5 124.5q0 50 17 91t51 70.5t85 45.5t120 16h230v-700h-142v254h-96l-126 -254h-169zM215 477q0 -55 30 -84t93 -29h88v226h-88q-63 0 -93 -29t-30 -84z" />
    <glyph glyph-name="afii10065" unicode="&#x430;" horiz-adv-x="581" 
d="M97 492q47 19 92 26.5t98 7.5q79 0 124.5 -20t68.5 -50t29.5 -65t6.5 -64v-327h-133v76h-2q-4 -8 -14 -22.5t-29 -28t-48 -23.5t-71 -10q-49 0 -84 13.5t-57 35.5t-32.5 50.5t-10.5 58.5q0 27 9 57t37 55.5t78 42t133 16.5q19 0 38 -0.5t38 -0.5h12v22q0 21 -9.5 38
t-25.5 28t-37.5 17t-44.5 6q-34 0 -74 -8.5t-92 -37.5v107zM357 235q-28 0 -60.5 -1.5t-60 -9.5t-45.5 -25t-18 -48q0 -28 19 -47.5t64 -19.5q21 0 43 6t40 21t29.5 42t11.5 69v13h-23z" />
    <glyph glyph-name="afii10066" unicode="&#x431;" horiz-adv-x="619" 
d="M542 658q-31 -7 -56.5 -10t-47.5 -4.5t-41 -2t-37 -1.5q-66 -4 -108 -21t-66 -43.5t-33 -61.5t-9 -75v-45h4q7 18 20 40t35.5 40.5t56.5 31t82 12.5q54 0 99 -17.5t76.5 -51t49 -81.5t17.5 -109q0 -70 -21 -120.5t-57 -83t-84 -48t-102 -15.5q-90 0 -146 33t-86.5 88
t-41.5 126.5t-11 147.5q0 59 8 119t36.5 111t83 87.5t147.5 48.5q27 3 53.5 4.5t54.5 3.5t58.5 6t65.5 12v-121zM194 255q0 -31 6.5 -60.5t21.5 -53t38.5 -37.5t57.5 -14t57.5 14t38.5 37.5t21.5 53t6.5 60.5t-6.5 60.5t-21.5 52.5t-38.5 37.5t-57.5 14.5t-57.5 -14.5
t-38.5 -37.5t-21.5 -52.5t-6.5 -60.5z" />
    <glyph glyph-name="afii10067" unicode="&#x432;" horiz-adv-x="565" 
d="M319 518q56 0 90.5 -12t54 -31t26.5 -41t7 -43q0 -49 -27.5 -78.5t-68.5 -37.5v-3q22 -2 43.5 -9.5t38 -23t27 -39t10.5 -55.5q0 -70 -52.5 -107.5t-140.5 -37.5h-262v518h254zM201 316h84q10 0 23.5 1t25.5 6.5t20 16.5t8 32q0 20 -8.5 31t-20.5 16.5t-25 7t-23 1.5h-84
v-112zM201 90h87q9 0 24.5 1t30 7t25 20t10.5 40q0 24 -9.5 37.5t-24 20.5t-30 8.5t-27.5 1.5h-86v-136z" />
    <glyph glyph-name="afii10068" unicode="&#x433;" horiz-adv-x="436" 
d="M426 518v-100h-225v-418h-136v518h361z" />
    <glyph glyph-name="afii10069" unicode="&#x434;" horiz-adv-x="640" 
d="M543 518v-418h85v-235h-125v135h-366v-135h-125v235h58q23 27 36.5 55t20 59t8.5 64.5t2 71.5v168h406zM407 100v318h-150v-77q0 -30 -0.5 -61t-6 -61t-16.5 -60t-32 -59h205z" />
    <glyph glyph-name="afii10070" unicode="&#x435;" horiz-adv-x="565" 
d="M177 218q1 -25 11 -48t29 -41t47.5 -28.5t66.5 -10.5q45 0 85 9.5t77 26.5v-102q-40 -15 -86 -23.5t-93 -8.5q-58 0 -109 16t-88.5 49t-59.5 83t-22 119q0 63 20.5 112.5t55.5 84t81.5 52.5t98.5 18q59 0 99.5 -17.5t67 -44.5t41 -59.5t21.5 -63.5t8.5 -56t1.5 -36v-31
h-353zM390 311q1 33 -8.5 56t-25.5 37.5t-35 21t-38 6.5q-23 0 -42 -9.5t-33 -25.5t-22.5 -38.5t-8.5 -47.5h213z" />
    <glyph glyph-name="afii10072" unicode="&#x436;" horiz-adv-x="810" 
d="M473 518v-231h5l155 231h155l-183 -237l200 -281h-172l-155 251h-5v-251h-136v251h-5l-155 -251h-172l200 281l-183 237h155l155 -231h5v231h136z" />
    <glyph glyph-name="afii10073" unicode="&#x437;" horiz-adv-x="494" 
d="M220 -8q-28 0 -80.5 7.5t-114.5 34.5v102q55 -26 105 -36t85 -10q42 0 69.5 18t27.5 52q0 27 -21.5 45t-75.5 18h-71v95h70q24 0 39 5.5t23 13.5t11 17t3 17q0 23 -20 40t-68 17q-11 0 -27.5 -1.5t-37 -5t-43 -10.5t-43.5 -17v99q44 16 83.5 24.5t90.5 8.5
q60 0 99.5 -12.5t62.5 -32t32 -44t9 -47.5q0 -32 -10.5 -53t-24.5 -34.5t-29.5 -20t-24.5 -8.5v-2q16 -3 36.5 -10t37.5 -20.5t29 -35.5t12 -54q0 -34 -15.5 -63.5t-45.5 -51t-73.5 -33.5t-99.5 -12z" />
    <glyph glyph-name="afii10074" unicode="&#x438;" horiz-adv-x="639" 
d="M201 518v-272l-4 -93h2l223 365h152v-518h-136v268l4 97h-3l-229 -365h-145v518h136z" />
    <glyph glyph-name="afii10075" unicode="&#x439;" horiz-adv-x="639" 
d="M201 518v-272l-4 -93h2l223 365h152v-518h-136v268l4 97h-3l-229 -365h-145v518h136zM319 580q-27 0 -52.5 7t-45.5 22.5t-32.5 41t-14.5 61.5l85 8q4 -35 17.5 -50t42.5 -15t42.5 15t17.5 50l85 -8q-2 -36 -14.5 -61.5t-32.5 -41t-45.5 -22.5t-52.5 -7z" />
    <glyph glyph-name="afii10076" unicode="&#x43a;" horiz-adv-x="556" 
d="M201 518v-235h5l166 235h152l-192 -245l219 -273h-171l-174 248h-5v-248h-136v518h136z" />
    <glyph glyph-name="afii10077" unicode="&#x43b;" horiz-adv-x="585" 
d="M60 -8q-14 0 -29 2.5t-26 5.5v104q8 -2 16 -3t14 -1q14 0 26.5 9t21.5 40t14.5 90.5t5.5 160.5v118h417v-518h-136v418h-160v-18q0 -131 -11 -211t-32 -123.5t-51.5 -58.5t-69.5 -15z" />
    <glyph glyph-name="afii10078" unicode="&#x43c;" horiz-adv-x="750" 
d="M65 518h198l115 -280l115 280h192v-518h-136v378h-2l-104 -250h-136l-104 250h-2v-378h-136v518z" />
    <glyph glyph-name="afii10079" unicode="&#x43d;" horiz-adv-x="620" 
d="M201 518v-196h218v196h136v-518h-136v222h-218v-222h-136v518h136z" />
    <glyph glyph-name="afii10080" unicode="&#x43e;" horiz-adv-x="604" 
d="M35 259q0 65 20 115t55.5 83.5t84.5 51t107 17.5t107 -17.5t84.5 -51t55.5 -83.5t20 -115t-20 -115t-55.5 -83.5t-84.5 -51t-107 -17.5t-107 17.5t-84.5 51t-55.5 83.5t-20 115zM177 259q0 -45 11 -77t29 -52.5t40 -30t45 -9.5q22 0 44.5 9.5t40.5 30t29 52.5t11 77
t-11 77t-29 52.5t-40.5 30t-44.5 9.5q-23 0 -45 -9.5t-40 -30t-29 -52.5t-11 -77z" />
    <glyph glyph-name="afii10081" unicode="&#x43f;" horiz-adv-x="612" 
d="M547 518v-518h-136v418h-210v-418h-136v518h482z" />
    <glyph glyph-name="afii10082" unicode="&#x440;" horiz-adv-x="608" 
d="M65 -214v732h119v-90h2q20 35 45.5 55t50.5 29.5t45 11.5t28 2q44 0 83.5 -14.5t69.5 -47t47.5 -83t17.5 -122.5t-19 -122.5t-50.5 -82.5t-72 -47t-82.5 -15q-57 0 -92.5 23t-56.5 55h-2l3 -85v-199h-136zM201 259q0 -41 10 -71t26.5 -49.5t37 -29t41.5 -9.5t41.5 9.5
t37 29t26.5 49.5t10 71t-10 71t-26.5 49.5t-37 29t-41.5 9.5t-41.5 -9.5t-37 -29t-26.5 -49.5t-10 -71z" />
    <glyph glyph-name="afii10083" unicode="&#x441;" horiz-adv-x="463" 
d="M305 -8q-69 0 -120 23t-84.5 61.5t-49.5 87.5t-16 100q0 52 18 99.5t53 83.5t87.5 57.5t121.5 21.5q26 0 56 -3t59 -11v-101q-19 8 -40.5 12.5t-51.5 4.5q-34 0 -63.5 -12t-51 -34.5t-34 -54t-12.5 -70.5q0 -35 10.5 -65.5t30 -53t47.5 -35.5t64 -13q55 0 109 23v-101
q-19 -6 -53.5 -13t-79.5 -7z" />
    <glyph glyph-name="afii10084" unicode="&#x442;" horiz-adv-x="480" 
d="M470 518v-100h-162v-418h-136v418h-162v100h460z" />
    <glyph glyph-name="afii10085" unicode="&#x443;" horiz-adv-x="551" 
d="M117 -222q-19 0 -40 4.5t-39 10.5v104q12 -5 26 -9.5t37 -4.5q35 0 57.5 12t36.5 46l12 30l-204 547h150l97 -286l29 -99h5l32 103l94 282h138l-219 -581q-11 -29 -25.5 -57.5t-37.5 -51t-59 -36.5t-90 -14z" />
    <glyph glyph-name="afii10086" unicode="&#x444;" horiz-adv-x="770" 
d="M317 -7q-5 -1 -8.5 -1h-7.5q-61 0 -110.5 18.5t-84 53t-53 83t-18.5 108.5q0 63 18.5 113t53 85.5t84 54t110.5 18.5h8t8 -1v225h136v-225q5 1 16 1q61 0 110.5 -18.5t84 -54t53 -85.5t18.5 -113q0 -60 -18.5 -108.5t-53 -83t-84 -53t-110.5 -18.5q-11 0 -16 1v-207h-136
v207zM603 255q0 93 -35.5 133t-98.5 40q-11 0 -16 -1v-337h16q63 0 98.5 39t35.5 126zM167 255q0 -87 35.5 -126t98.5 -39h16v337q-5 1 -8.5 1h-7.5q-63 0 -98.5 -40t-35.5 -133z" />
    <glyph glyph-name="afii10087" unicode="&#x445;" horiz-adv-x="567" 
d="M187 518l72 -121l30 -59h3l31 61l68 119h151l-159 -251l174 -267h-162l-86 138l-31 58h-3l-32 -60l-82 -136h-151l174 267l-159 251h162z" />
    <glyph glyph-name="afii10088" unicode="&#x446;" horiz-adv-x="654" 
d="M201 518v-418h217v418h136v-418h85v-235h-125v135h-449v518h136z" />
    <glyph glyph-name="afii10089" unicode="&#x447;" horiz-adv-x="570" 
d="M181 518v-165q0 -14 2.5 -27.5t11.5 -24t25.5 -17t43.5 -6.5q23 0 51 3t54 10v227h136v-518h-136v191q-45 -8 -78.5 -10.5t-50.5 -2.5q-65 0 -103.5 14t-59 36.5t-26.5 50.5t-6 57v182h136z" />
    <glyph glyph-name="afii10090" unicode="&#x448;" horiz-adv-x="872" 
d="M201 518v-418h167v418h136v-418h167v418h136v-518h-742v518h136z" />
    <glyph glyph-name="afii10091" unicode="&#x449;" horiz-adv-x="909" 
d="M201 518v-418h167v418h136v-418h167v418h136v-418h87v-235h-125v135h-704v518h136z" />
    <glyph glyph-name="afii10092" unicode="&#x44a;" horiz-adv-x="617" 
d="M138 418h-133v100h269v-168h104q112 0 165.5 -48t53.5 -127t-53.5 -127t-165.5 -48h-240v418zM455 175q0 38 -23 59t-74 21h-84v-160h84q51 0 74 21t23 59z" />
    <glyph glyph-name="afii10093" unicode="&#x44b;" horiz-adv-x="805" 
d="M64 518h136v-168h104q112 0 165.5 -48t53.5 -127t-53.5 -127t-165.5 -48h-240v518zM381 175q0 38 -23 59t-74 21h-84v-160h84q51 0 74 21t23 59zM604 518h136v-518h-136v518z" />
    <glyph glyph-name="afii10094" unicode="&#x44c;" horiz-adv-x="543" 
d="M64 518h136v-168h104q112 0 165.5 -48t53.5 -127t-53.5 -127t-165.5 -48h-240v518zM381 175q0 38 -23 59t-74 21h-84v-160h84q51 0 74 21t23 59z" />
    <glyph glyph-name="afii10095" unicode="&#x44d;" horiz-adv-x="488" 
d="M183 -8q-38 0 -67.5 4.5t-49.5 9.5q-24 6 -41 15v102q20 -9 43 -16q20 -6 44.5 -10.5t50.5 -4.5q63 0 103 30.5t48 99.5h-203v94h200q-12 59 -50.5 84.5t-107.5 25.5q-24 0 -45 -4t-37 -9q-18 -6 -34 -13v102q17 7 38 12q18 5 43 8.5t55 3.5q66 0 118 -19t88 -54.5
t55 -85.5t19 -112q0 -59 -19 -107.5t-54 -83t-85 -53.5t-112 -19z" />
    <glyph glyph-name="afii10096" unicode="&#x44e;" horiz-adv-x="848" 
d="M281 310q6 52 29 92.5t59 68t81.5 41.5t95.5 14q58 0 107 -17.5t84.5 -51.5t55.5 -84t20 -114t-20 -114t-55.5 -84t-84.5 -51.5t-107 -17.5q-56 0 -102.5 16.5t-81.5 46t-56 70.5t-25 91h-80v-216h-136v518h136v-208h80zM420 259q0 -45 11 -77t29 -52.5t40.5 -30
t45.5 -9.5q57 0 91 46t34 123t-34 123t-91 46q-23 0 -45.5 -9.5t-40.5 -30t-29 -52.5t-11 -77z" />
    <glyph glyph-name="afii10097" unicode="&#x44f;" horiz-adv-x="561" 
d="M151 195q-53 20 -78.5 59.5t-25.5 90.5q0 77 53.5 125t165.5 48h230v-518h-136v177h-76l-89 -177h-160zM189 345q0 -36 23 -57t74 -21h74v156h-74q-51 0 -74 -21t-23 -57z" />
    <glyph glyph-name="afii10071" unicode="&#x451;" horiz-adv-x="565" 
d="M177 218q1 -25 11 -48t29 -41t47.5 -28.5t66.5 -10.5q45 0 85 9.5t77 26.5v-102q-40 -15 -86 -23.5t-93 -8.5q-58 0 -109 16t-88.5 49t-59.5 83t-22 119q0 63 20.5 112.5t55.5 84t81.5 52.5t98.5 18q59 0 99.5 -17.5t67 -44.5t41 -59.5t21.5 -63.5t8.5 -56t1.5 -36v-31
h-353zM390 311q1 33 -8.5 56t-25.5 37.5t-35 21t-38 6.5q-23 0 -42 -9.5t-33 -25.5t-22.5 -38.5t-8.5 -47.5h213zM248 726v-116h-120v116h120zM438 726v-116h-120v116h120z" />
    <glyph glyph-name="afii10099" unicode="&#x452;" horiz-adv-x="666" 
d="M249 748v-71h218v-85h-218v-68l-2 -82h3q18 28 39 45t42 25.5t40.5 11t33.5 2.5q69 0 109 -28t60.5 -71.5t26 -95.5t5.5 -101q0 -84 -9 -152.5t-32.5 -124t-65 -98t-105.5 -73.5l-58 105q48 20 74.5 53t39 76t14.5 95.5t2 112.5q0 27 -2 60.5t-12 63t-31 49.5t-58 20
q-50 0 -82 -37.5t-32 -97.5v-282h-136v592h-83v85h83v71h136z" />
    <glyph glyph-name="afii10100" unicode="&#x453;" horiz-adv-x="436" 
d="M426 518v-100h-225v-418h-136v518h361zM263 590h-83l88 160h140z" />
    <glyph glyph-name="afii10101" unicode="&#x454;" horiz-adv-x="477" 
d="M298 -8q-71 0 -121 22.5t-81.5 60.5t-46 87t-14.5 103q0 62 18.5 110.5t51.5 82t79 51t101 17.5q38 0 76.5 -5.5t72.5 -16.5v-104q-23 11 -52.5 19.5t-64.5 8.5q-59 0 -97 -31.5t-43 -82.5h173v-90h-173q1 -29 11.5 -53.5t29 -42.5t44.5 -28t58 -10q60 0 119 27v-105
q-32 -10 -66.5 -15t-74.5 -5z" />
    <glyph glyph-name="afii10102" unicode="&#x455;" horiz-adv-x="454" 
d="M212 -8q-39 0 -86 8t-86 22v108q3 -1 16 -7t34 -12.5t47 -12t55 -5.5q26 0 43 6t26.5 14.5t13 18t3.5 17.5q0 16 -7 27t-19.5 19t-29 14t-34.5 13q-31 11 -56.5 23.5t-44 30t-28.5 41t-10 56.5q0 22 8 48.5t29 50t58 39t94 15.5q11 0 29.5 -0.5t41 -2.5t47 -6.5
t48.5 -12.5v-102q-14 5 -46.5 17t-83.5 12q-32 0 -50.5 -6.5t-27.5 -15.5t-11 -18t-2 -14q0 -17 8.5 -27.5t22 -18t29.5 -12.5l32 -10q22 -7 46.5 -18t45 -29t34 -45t13.5 -65q0 -31 -12 -59.5t-37 -51t-63 -36t-90 -13.5z" />
    <glyph glyph-name="afii10103" unicode="&#x456;" horiz-adv-x="270" 
d="M203 518v-518h-136v518h136zM205 596h-140v140h140v-140z" />
    <glyph glyph-name="afii10104" unicode="&#x457;" horiz-adv-x="270" 
d="M203 518v-518h-136v518h136zM121 726v-116h-100v116h100zM249 726v-116h-100v116h100z" />
    <glyph glyph-name="afii10105" unicode="&#x458;" horiz-adv-x="260" 
d="M198 -41q0 -31 -3.5 -63t-19.5 -58.5t-47.5 -43t-87.5 -16.5q-15 0 -29 1t-31 6v96q8 -2 17.5 -3t17.5 -1q16 0 25.5 6t14 16.5t6 24.5t1.5 30v564h136v-559zM200 736v-140h-140v140h140z" />
    <glyph glyph-name="afii10106" unicode="&#x459;" horiz-adv-x="863" 
d="M60 -8q-14 0 -29 2.5t-26 5.5v104q8 -2 16 -3t14 -1q14 0 26.5 9t21.5 40t14.5 90.5t5.5 160.5v118h417v-168h104q112 0 165.5 -48t53.5 -127t-53.5 -127t-165.5 -48h-240v418h-160v-18q0 -131 -11 -211t-32 -123.5t-51.5 -58.5t-69.5 -15zM701 175q0 38 -23 59t-74 21
h-84v-160h84q51 0 74 21t23 59z" />
    <glyph glyph-name="afii10107" unicode="&#x45a;" horiz-adv-x="889" 
d="M553 518v-184h117q56 0 94 -15t61.5 -39t33.5 -54t10 -59q0 -26 -9 -55t-31.5 -54t-60.5 -41.5t-97 -16.5h-254v234h-216v-234h-136v518h136v-184h216v184h136zM553 90h86q32 0 51 8.5t28.5 20.5t12.5 25.5t3 22.5q0 12 -4 26t-14.5 25t-29.5 18.5t-49 7.5h-84v-154z" />
    <glyph glyph-name="afii10108" unicode="&#x45b;" horiz-adv-x="660" 
d="M113 592h-83v85h83v73h136v-73h218v-85h-218v-75l-5 -80h3q19 28 41 45.5t44.5 27.5t43 13t35.5 3q40 0 74 -11t58.5 -31.5t38 -51t13.5 -69.5v-363h-136v313q0 54 -28 78t-66 24q-21 0 -42 -8.5t-37.5 -25.5t-26.5 -42.5t-10 -59.5v-279h-136v592z" />
    <glyph glyph-name="afii10109" unicode="&#x45c;" horiz-adv-x="556" 
d="M201 518v-235h5l166 235h152l-192 -245l219 -273h-171l-174 248h-5v-248h-136v518h136zM303 590h-83l88 160h140z" />
    <glyph glyph-name="afii10110" unicode="&#x45e;" horiz-adv-x="551" 
d="M117 -222q-19 0 -40 4.5t-39 10.5v104q12 -5 26 -9.5t37 -4.5q35 0 57.5 12t36.5 46l12 30l-204 547h150l97 -286l29 -99h5l32 103l94 282h138l-219 -581q-11 -29 -25.5 -57.5t-37.5 -51t-59 -36.5t-90 -14zM281 580q-27 0 -52.5 7t-45.5 22.5t-32.5 41t-14.5 61.5l85 8
q4 -35 17.5 -50t42.5 -15t42.5 15t17.5 50l85 -8q-2 -36 -14.5 -61.5t-32.5 -41t-45.5 -22.5t-52.5 -7z" />
    <glyph glyph-name="afii10193" unicode="&#x45f;" horiz-adv-x="615" 
d="M65 518h136v-418h213v418h136v-518h-174v-135h-137v135h-174v518z" />
    <glyph glyph-name="afii10146" unicode="&#x462;" horiz-adv-x="728" 
d="M185 513h-170v115h170v97h142v-97h187v-115h-187v-83h86q71 0 122 -14.5t84 -42.5t48.5 -67.5t15.5 -90.5q0 -47 -17 -86.5t-50.5 -68t-84.5 -44.5t-118 -16h-228v513zM533 215q0 49 -30 77t-90 28h-86v-210h86q60 0 90 28t30 77z" />
    <glyph glyph-name="afii10194" unicode="&#x463;" horiz-adv-x="638" 
d="M159 418h-149v100h149v182h136v-182h166v-100h-166v-68h104q112 0 165.5 -48t53.5 -127t-53.5 -127t-165.5 -48h-240v418zM476 175q0 38 -23 59t-74 21h-84v-160h84q51 0 74 21t23 59z" />
    <glyph glyph-name="afii10147" unicode="&#x472;" horiz-adv-x="776" 
d="M388 708q65 0 126.5 -20t109.5 -63.5t77.5 -111.5t29.5 -163t-29.5 -163t-77.5 -111.5t-109.5 -63.5t-126.5 -20t-126.5 20t-109.5 63.5t-77.5 111.5t-29.5 163t29.5 163t77.5 111.5t109.5 63.5t126.5 20zM576 418q-3 22 -12 54.5t-30 62.5t-56.5 51.5t-89.5 21.5
t-89.5 -21.5t-56.5 -51.5t-30 -62.5t-12 -54.5h376zM197 303q2 -25 10.5 -61t29.5 -69.5t57 -57t94 -23.5t94 23.5t57 57t29.5 69.5t10.5 61h-382z" />
    <glyph glyph-name="afii10195" unicode="&#x473;" horiz-adv-x="604" 
d="M35 259q0 65 20 115t55.5 83.5t84.5 51t107 17.5t107 -17.5t84.5 -51t55.5 -83.5t20 -115t-20 -115t-55.5 -83.5t-84.5 -51t-107 -17.5t-107 17.5t-84.5 51t-55.5 83.5t-20 115zM420 322q-5 21 -15 40t-25 33.5t-34.5 23.5t-43.5 9t-44 -9t-35 -23.5t-25 -33.5t-14 -40
h236zM179 222q3 -23 11.5 -46.5t23.5 -42.5t37 -31t51 -12t51 12t37 31t23.5 42.5t11.5 46.5h-246z" />
    <glyph glyph-name="afii10148" unicode="&#x474;" horiz-adv-x="739" 
d="M676 600q-10 0 -19.5 -3t-18.5 -11t-17.5 -24t-17.5 -41l-183 -521h-175l-240 700h152l147 -455l31 -108h2l30 108l110 315q16 47 36 76t42.5 45t47.5 21.5t51 5.5t43.5 -3t41.5 -10v-108q-36 13 -63 13z" />
    <glyph glyph-name="afii10196" unicode="&#x475;" horiz-adv-x="618" 
d="M10 518h149l107 -320l21 -76h3l19 76l72 216q6 20 17 40t28 36t41.5 26t58.5 10q22 0 42.5 -3t39.5 -8v-98q-15 5 -28 7t-27 2q-20 0 -30 -11.5t-20 -38.5l-141 -376h-160z" />
    <glyph glyph-name="afii10050" unicode="&#x490;" horiz-adv-x="510" 
d="M358 700v139h142v-263h-288v-576h-142v700h288z" />
    <glyph glyph-name="afii10098" unicode="&#x491;" horiz-adv-x="446" 
d="M301 518v122h129l1 -222h-230v-418h-136v518h236z" />
    <glyph glyph-name="uni0492" unicode="&#x492;" horiz-adv-x="535" 
d="M95 409v291h430v-118h-288v-173h253v-112h-253v-297h-142v297h-95v112h95z" />
    <glyph glyph-name="uni0493" unicode="&#x493;" horiz-adv-x="456" 
d="M85 301v217h361v-100h-225v-117h202v-100h-202v-201h-136v201h-85v100h85z" />
    <glyph glyph-name="uni0494" unicode="&#x494;" horiz-adv-x="658" 
d="M393 -8q-26 0 -47.5 2t-42.5 6v107q18 -6 37 -8t42 -2q13 0 27.5 4.5t27.5 18t21.5 38.5t8.5 66q0 39 -11.5 62t-28 34.5t-36 15t-35.5 3.5q-26 0 -50 -6t-43 -13.5t-32.5 -15t-18.5 -10.5v-294h-142v700h430v-124h-288v-176q41 25 84.5 37t96.5 12t90 -13t61.5 -33
t38.5 -45t20.5 -49.5t8 -46t1.5 -33.5q0 -70 -15.5 -116t-44 -73t-69 -37.5t-91.5 -10.5z" />
    <glyph glyph-name="uni0495" unicode="&#x495;" horiz-adv-x="529" 
d="M499 81q0 -123 -70 -192t-202 -69v98q62 0 96 34.5t34 118.5q0 75 -29.5 108t-86.5 33h-40v-212h-136v518h361v-100h-225v-108h56q121 0 181.5 -59.5t60.5 -169.5z" />
    <glyph glyph-name="uni0496" unicode="&#x496;" horiz-adv-x="1002" 
d="M560 700v-299h3l235 299h169l-272 -317l186 -259h111v-268h-129v144h-72l-228 348h-3v-348h-142v348h-3l-228 -348h-180l276 383l-272 317h169l235 -299h3v299h142z" />
    <glyph glyph-name="uni0497" unicode="&#x497;" horiz-adv-x="838" 
d="M633 0l-155 251h-5v-251h-136v251h-5l-155 -251h-172l200 281l-183 237h155l155 -231h5v231h136v-231h5l155 231h155l-183 -237l129 -181h94v-235h-125v135h-70z" />
    <glyph glyph-name="uni0498" unicode="&#x498;" horiz-adv-x="569" 
d="M196 -6q-44 5 -80 15t-78 26v123q72 -32 120 -41.5t78 -9.5q40 0 67 9.5t42.5 23.5t22 30t6.5 30q0 40 -17.5 61.5t-40.5 31.5t-45.5 12t-32.5 2h-85v115h85q54 0 83 24t29 66q0 14 -5.5 28.5t-18.5 26t-34.5 19t-54.5 7.5q-53 0 -92.5 -12t-82.5 -32v124q26 9 50 15.5
t48.5 11t50.5 6.5t56 2q60 0 105 -13t74.5 -36.5t44 -56t14.5 -70.5q0 -54 -28.5 -98t-87.5 -60v-3q28 -5 53 -17.5t44.5 -33t31 -49.5t11.5 -68q0 -55 -19.5 -92t-49.5 -60t-66 -35.5t-69 -17.5v-148h-129v144z" />
    <glyph glyph-name="uni0499" unicode="&#x499;" horiz-adv-x="494" 
d="M158 -3q-29 3 -62.5 11.5t-70.5 25.5v102q55 -26 105 -36t85 -10q42 0 69.5 18t27.5 52q0 27 -21.5 45t-75.5 18h-71v95h70q24 0 39 5.5t23 13.5t11 17t3 17q0 23 -20 40t-68 17q-11 0 -27.5 -1.5t-37 -5t-43 -10.5t-43.5 -17v99q44 16 83.5 24.5t90.5 8.5
q60 0 99.5 -12.5t62.5 -32t32 -44t9 -47.5q0 -32 -10.5 -53t-24.5 -34.5t-29.5 -20t-24.5 -8.5v-2q16 -3 36.5 -10t37.5 -20.5t29 -35.5t12 -54q0 -58 -44.5 -100.5t-126.5 -54.5v-137h-125v137z" />
    <glyph glyph-name="uni049A" unicode="&#x49a;" horiz-adv-x="676" 
d="M666 124v-268h-129v144h-62l-259 348h-4v-348h-142v700h142v-299h4l252 299h169l-292 -317l210 -259h111z" />
    <glyph glyph-name="uni049B" unicode="&#x49b;" horiz-adv-x="576" 
d="M201 518v-235h5l166 235h152l-192 -245l139 -173h95v-235h-125v135h-61l-174 248h-5v-248h-136v518h136z" />
    <glyph glyph-name="uni049C" unicode="&#x49c;" horiz-adv-x="765" 
d="M274 305h-62v-305h-142v700h142v-284h62v124h100v-118l197 278h169l-263 -332l281 -368h-180l-204 300v-120h-100v125z" />
    <glyph glyph-name="uni049D" unicode="&#x49d;" horiz-adv-x="641" 
d="M249 216h-48v-216h-136v518h136v-204h48v85h83v-85l125 204h152l-176 -247l203 -271h-171l-133 215v-84h-83v85z" />
    <glyph glyph-name="uni04A0" unicode="&#x4a0;" horiz-adv-x="775" 
d="M183 0v576h-163v124h305v-299h3l253 299h169l-292 -317l310 -383h-180l-260 348h-3v-348h-142z" />
    <glyph glyph-name="uni04A1" unicode="&#x4a1;" horiz-adv-x="633" 
d="M278 518v-235h5l166 235h152l-192 -245l219 -273h-171l-174 248h-5v-248h-136v418h-132v100h268z" />
    <glyph glyph-name="uni04A2" unicode="&#x4a2;" horiz-adv-x="739" 
d="M212 700v-282h284v282h142v-576h81v-268h-129v144h-94v303h-284v-303h-142v700h142z" />
    <glyph glyph-name="uni04A3" unicode="&#x4a3;" horiz-adv-x="655" 
d="M201 518v-196h218v196h136v-418h85v-235h-125v135h-96v222h-218v-222h-136v518h136z" />
    <glyph glyph-name="uni04A4" unicode="&#x4a4;" horiz-adv-x="936" 
d="M212 700v-282h284v282h430v-124h-288v-576h-142v303h-284v-303h-142v700h142z" />
    <glyph glyph-name="uni04A5" unicode="&#x4a5;" horiz-adv-x="790" 
d="M201 518v-196h218v196h361v-100h-225v-418h-136v222h-218v-222h-136v518h136z" />
    <glyph glyph-name="uni04AA" unicode="&#x4aa;" horiz-adv-x="630" 
d="M326 0q-55 10 -106 35t-90 67.5t-62 102.5t-23 141q0 90 30 158t82.5 113.5t123.5 68t154 22.5q42 0 78.5 -5.5t76.5 -18.5v-122q-31 12 -65.5 20t-79.5 8q-59 0 -105.5 -17.5t-78.5 -49.5t-49 -76.5t-17 -98.5q0 -63 20 -108.5t53 -74t76.5 -42t90.5 -13.5
q54 0 91.5 11.5t63.5 23.5v-123q-35 -12 -69 -18.5t-66 -9.5v-144h-129v150z" />
    <glyph glyph-name="uni04AB" unicode="&#x4ab;" horiz-adv-x="463" 
d="M228 0q-50 12 -86 38.5t-60 62t-35.5 77.5t-11.5 86q0 52 18 99.5t53 83.5t87.5 57.5t121.5 21.5q26 0 56 -3t59 -11v-101q-19 8 -40.5 12.5t-51.5 4.5q-34 0 -63.5 -12t-51 -34.5t-34 -54t-12.5 -70.5q0 -35 10.5 -65.5t30 -53t47.5 -35.5t64 -13q55 0 109 23v-101
q-14 -5 -35.5 -9.5t-49.5 -7.5v-135h-125v140z" />
    <glyph glyph-name="uni04AE" unicode="&#x4ae;" horiz-adv-x="642" 
d="M159 700l144 -246l22 -48h3l24 48l145 246h150l-252 -416v-284h-142v286l-258 414h164z" />
    <glyph glyph-name="uni04AF" unicode="&#x4af;" horiz-adv-x="565" 
d="M159 518l109 -313l21 -83h3l19 76l105 320h139l-203 -532v-200h-136v200l-206 532h149z" />
    <glyph glyph-name="uni04B0" unicode="&#x4b0;" horiz-adv-x="642" 
d="M159 700l144 -246l22 -48h4l23 48l145 246h150l-236 -389h124v-118h-140v-193h-142v193h-140v118h124l-242 389h164z" />
    <glyph glyph-name="uni04B1" unicode="&#x4b1;" horiz-adv-x="565" 
d="M159 518l109 -283l21 -73h4l18 68l105 288h139l-193 -468h110v-100h-120v-164h-136v164h-120v100h110l-196 468h149z" />
    <glyph glyph-name="uni04B2" unicode="&#x4b2;" horiz-adv-x="710" 
d="M194 700l112 -195l32 -59h3l32 59l115 195h155l-213 -334l154 -242h111v-268h-129v144h-70l-134 222l-30 54h-3l-30 -54l-139 -222h-155l234 366l-213 334h168z" />
    <glyph glyph-name="uni04B3" unicode="&#x4b3;" horiz-adv-x="596" 
d="M395 0l-86 138l-31 58h-3l-32 -60l-82 -136h-151l174 267l-159 251h162l72 -121l30 -59h3l31 61l68 119h151l-159 -251l109 -167h94v-235h-125v135h-66z" />
    <glyph glyph-name="uni04B6" unicode="&#x4b6;" horiz-adv-x="702" 
d="M459 0v249q-29 -6 -59 -10t-72 -4q-90 0 -144.5 18t-84.5 47t-39.5 66t-9.5 76v258h142v-239q0 -18 2 -37.5t15 -36t40.5 -27t78.5 -10.5q35 0 67 4.5t64 12.5v333h142v-576h81v-268h-129v144h-94z" />
    <glyph glyph-name="uni04B7" unicode="&#x4b7;" horiz-adv-x="605" 
d="M369 0v191q-45 -8 -78.5 -10.5t-50.5 -2.5q-65 0 -103.5 14t-59 36.5t-26.5 50.5t-6 57v182h136v-165q0 -14 2.5 -27.5t11.5 -24t25.5 -17t43.5 -6.5q23 0 51 3t54 10v227h136v-418h85v-235h-125v135h-96z" />
    <glyph glyph-name="uni04B8" unicode="&#x4b8;" horiz-adv-x="679" 
d="M386 353q20 2 40.5 5.5t40.5 8.5v333h142v-700h-142v249q-19 -4 -38.5 -7t-42.5 -5v-108h-110v108q-71 6 -115.5 25.5t-69 47.5t-33 62.5t-8.5 69.5v258h142v-239q0 -15 2 -32t10 -32t25 -27t47 -16v113h110v-114z" />
    <glyph glyph-name="uni04B9" unicode="&#x4b9;" horiz-adv-x="580" 
d="M329 282l26 4t24 5v227h136v-518h-136v191q-14 -3 -26 -4.5t-24 -3.5v-84h-93v79q-62 1 -99.5 15.5t-58 36.5t-27 50t-6.5 56v182h136v-165q0 -27 9.5 -47t45.5 -26v83h93v-81z" />
    <glyph glyph-name="uni04BA" unicode="&#x4ba;" horiz-adv-x="666" 
d="M212 700v-298q48 25 97 38.5t100 13.5q97 0 152 -46t55 -130v-278h-142v238q0 6 -1.5 23.5t-12 36t-33 32.5t-64.5 14q-31 0 -70.5 -11.5t-80.5 -35.5v-297h-142v700h142z" />
    <glyph glyph-name="uni04BB" unicode="&#x4bb;" horiz-adv-x="612" 
d="M65 750h136v-233l-5 -80h3q6 8 18 23t31.5 29.5t48 25.5t67.5 11q45 0 76.5 -12t51.5 -30.5t31.5 -41t16.5 -43t6 -36t1 -20.5v-343h-136v298q0 15 -1.5 35.5t-10 38.5t-26 30.5t-50.5 12.5q-21 0 -42.5 -9t-39.5 -27.5t-29 -48.5t-11 -72v-258h-136v750z" />
    <glyph glyph-name="uni04C0" unicode="&#x4c0;" horiz-adv-x="282" 
d="M70 700h142v-700h-142v700z" />
    <glyph glyph-name="uni04C3" unicode="&#x4c3;" horiz-adv-x="672" 
d="M212 700v-299h3l253 299h169l-277 -304q63 -2 113 -18.5t84.5 -51.5t53 -90t18.5 -134q0 -81 -25.5 -138t-71 -93.5t-108.5 -53.5t-138 -17v100q33 0 67 5.5t62 25.5t46 60.5t18 110.5q0 64 -15 103.5t-39.5 60.5t-56 28t-65.5 7h-91v-301h-142v700h142z" />
    <glyph glyph-name="uni04C4" unicode="&#x4c4;" horiz-adv-x="554" 
d="M516 75q0 -123 -69.5 -189t-201.5 -66v98q64 0 96.5 34t32.5 118q0 74 -30 104.5t-86 30.5h-57v-205h-136v518h136v-216h23l148 216h152l-174 -229q82 -15 124 -69t42 -145z" />
    <glyph glyph-name="uni04C7" unicode="&#x4c7;" horiz-adv-x="708" 
d="M638 700v-711q0 -35 -5 -72.5t-24 -68.5t-55 -50.5t-97 -19.5q-25 0 -53 3.5t-55 9.5v114q17 -4 35.5 -6.5t32.5 -2.5q47 0 63 28t16 75v304h-284v-303h-142v700h142v-282h284v282h142z" />
    <glyph glyph-name="uni04C8" unicode="&#x4c8;" horiz-adv-x="620" 
d="M201 518v-196h218v196h136v-559q0 -31 -3.5 -63t-19.5 -58.5t-47.5 -43t-87.5 -16.5q-15 0 -29 1t-31 6v96q8 -2 17.5 -3t17.5 -1q16 0 25.5 6t14 16.5t6 24.5t1.5 30v268h-218v-222h-136v518h136z" />
    <glyph glyph-name="uni04CF" unicode="&#x4cf;" horiz-adv-x="266" 
d="M201 700v-700h-136v700h136z" />
    <glyph glyph-name="uni04D0" unicode="&#x4d0;" horiz-adv-x="730" 
d="M285 700h160l270 -700h-160l-54 158h-282l-54 -158h-150zM462 273l-101 298h-2l-101 -298h204zM365 745q-32 0 -60 8.5t-49.5 25.5t-35 44t-15.5 64l85 8q4 -36 20.5 -55.5t54.5 -19.5t54.5 19.5t20.5 55.5l85 -8q-2 -37 -15.5 -64t-35 -44t-50 -25.5t-59.5 -8.5z" />
    <glyph glyph-name="uni04D1" unicode="&#x4d1;" horiz-adv-x="581" 
d="M97 492q47 19 92 26.5t98 7.5q79 0 124.5 -20t68.5 -50t29.5 -65t6.5 -64v-327h-133v76h-2q-4 -8 -14 -22.5t-29 -28t-48 -23.5t-71 -10q-49 0 -84 13.5t-57 35.5t-32.5 50.5t-10.5 58.5q0 27 9 57t37 55.5t78 42t133 16.5q19 0 38 -0.5t38 -0.5h12v22q0 21 -9.5 38
t-25.5 28t-37.5 17t-44.5 6q-34 0 -74 -8.5t-92 -37.5v107zM357 235q-28 0 -60.5 -1.5t-60 -9.5t-45.5 -25t-18 -48q0 -28 19 -47.5t64 -19.5q21 0 43 6t40 21t29.5 42t11.5 69v13h-23zM290 580q-27 0 -52.5 7t-45.5 22.5t-32.5 41t-14.5 61.5l85 8q4 -35 17.5 -50t42.5 -15
t42.5 15t17.5 50l85 -8q-2 -36 -14.5 -61.5t-32.5 -41t-45.5 -22.5t-52.5 -7z" />
    <glyph glyph-name="uni04D2" unicode="&#x4d2;" horiz-adv-x="730" 
d="M285 700h160l270 -700h-160l-54 158h-282l-54 -158h-150zM462 273l-101 298h-2l-101 -298h204zM308 867v-115h-115v115h115zM537 867v-115h-115v115h115z" />
    <glyph glyph-name="uni04D3" unicode="&#x4d3;" horiz-adv-x="581" 
d="M97 492q47 19 92 26.5t98 7.5q79 0 124.5 -20t68.5 -50t29.5 -65t6.5 -64v-327h-133v76h-2q-4 -8 -14 -22.5t-29 -28t-48 -23.5t-71 -10q-49 0 -84 13.5t-57 35.5t-32.5 50.5t-10.5 58.5q0 27 9 57t37 55.5t78 42t133 16.5q19 0 38 -0.5t38 -0.5h12v22q0 21 -9.5 38
t-25.5 28t-37.5 17t-44.5 6q-34 0 -74 -8.5t-92 -37.5v107zM357 235q-28 0 -60.5 -1.5t-60 -9.5t-45.5 -25t-18 -48q0 -28 19 -47.5t64 -19.5q21 0 43 6t40 21t29.5 42t11.5 69v13h-23zM254 726v-116h-120v116h120zM444 726v-116h-120v116h120z" />
    <glyph glyph-name="uni04D4" unicode="&#x4d4;" horiz-adv-x="946" 
d="M909 700v-121h-270l14 -160h235v-123h-222l15 -175h235v-121h-376l-13 159h-267l-88 -159h-165l396 700h506zM492 593h-4l-60 -117l-110 -199h200z" />
    <glyph glyph-name="uni04D5" unicode="&#x4d5;" horiz-adv-x="898" 
d="M97 492q52 20 95.5 27t83.5 7q28 0 52 -2.5t45 -9t40.5 -18t39.5 -29.5q32 26 72.5 42.5t98.5 16.5q59 0 99.5 -16.5t67 -42.5t41 -58t21.5 -63t8.5 -57t1.5 -40v-31h-358q0 -33 12.5 -57.5t34.5 -41.5t50.5 -25.5t61.5 -8.5q57 0 97 15.5t65 31.5v-102
q-39 -17 -83 -27.5t-96 -10.5q-69 0 -129 20.5t-97 66.5q-37 -43 -86.5 -65t-115.5 -22q-34 0 -67 8t-59 27t-42 49t-16 74t15 73.5t40 48t58 28.5t68.5 14.5t72 5t68.5 0.5h23v8q0 10 -2.5 27.5t-14 34.5t-35 29t-65.5 12q-46 0 -85 -10t-81 -36v107zM337 235
q-23 0 -51.5 -2t-53.5 -10t-42 -25t-17 -47q0 -18 7.5 -30.5t19 -20.5t26.5 -11.5t30 -3.5q53 0 88.5 36t35.5 101v13h-43zM733 311q-1 31 -11.5 54t-27 38t-36.5 22t-39 7q-25 0 -45.5 -9.5t-35.5 -26t-23.5 -38.5t-9.5 -47h228z" />
    <glyph glyph-name="uni04D6" unicode="&#x4d6;" horiz-adv-x="538" 
d="M488 700v-124h-276v-158h251v-115h-251v-179h276v-124h-418v700h418zM279 745q-32 0 -60 8.5t-49.5 25.5t-35 44t-15.5 64l85 8q4 -36 20.5 -55.5t54.5 -19.5t54.5 19.5t20.5 55.5l85 -8q-2 -37 -15.5 -64t-35 -44t-50 -25.5t-59.5 -8.5z" />
    <glyph glyph-name="uni04D7" unicode="&#x4d7;" horiz-adv-x="565" 
d="M177 218q1 -25 11 -48t29 -41t47.5 -28.5t66.5 -10.5q45 0 85 9.5t77 26.5v-102q-40 -15 -86 -23.5t-93 -8.5q-58 0 -109 16t-88.5 49t-59.5 83t-22 119q0 63 20.5 112.5t55.5 84t81.5 52.5t98.5 18q59 0 99.5 -17.5t67 -44.5t41 -59.5t21.5 -63.5t8.5 -56t1.5 -36v-31
h-353zM390 311q1 33 -8.5 56t-25.5 37.5t-35 21t-38 6.5q-23 0 -42 -9.5t-33 -25.5t-22.5 -38.5t-8.5 -47.5h213zM290 580q-27 0 -52.5 7t-45.5 22.5t-32.5 41t-14.5 61.5l85 8q4 -35 17.5 -50t42.5 -15t42.5 15t17.5 50l85 -8q-2 -36 -14.5 -61.5t-32.5 -41t-45.5 -22.5
t-52.5 -7z" />
    <glyph glyph-name="uni04D8" unicode="&#x4d8;" horiz-adv-x="762" 
d="M374 -8q-67 0 -126.5 20t-104.5 63t-71.5 111t-26.5 164v68h515q-12 85 -71 130.5t-156 45.5q-51 0 -100 -8.5t-108 -31.5v128q56 14 108 20t97 6q88 0 159.5 -23.5t122 -69t78 -112t27.5 -153.5q0 -95 -29.5 -163t-77.5 -111.5t-109.5 -63.5t-126.5 -20zM374 92
q18 0 48 6t60 28t53.5 65t29.5 117h-382q4 -49 16 -84.5t29 -59.5t37.5 -38.5t40.5 -21.5t37.5 -9.5t30.5 -2.5z" />
    <glyph glyph-name="afii10846" unicode="&#x4d9;" horiz-adv-x="565" 
d="M388 311q-2 22 -12 43t-29 37.5t-47 26.5t-66 10q-45 0 -85 -9.5t-77 -26.5v102q40 15 86 23.5t93 8.5q58 0 109 -16t88.5 -49t59.5 -83t22 -119q0 -63 -20.5 -112.5t-55.5 -84t-81.5 -52.5t-98.5 -18q-59 0 -99.5 17.5t-67 44.5t-41 59.5t-21.5 63.5t-8.5 55.5
t-1.5 36.5v42h353zM175 218q0 -69 29.5 -100.5t77.5 -31.5q27 0 46.5 10.5t33 28.5t20 42t6.5 51h-213z" />
    <glyph glyph-name="uni04DA" unicode="&#x4da;" horiz-adv-x="762" 
d="M374 -8q-67 0 -126.5 20t-104.5 63t-71.5 111t-26.5 164v68h515q-12 85 -71 130.5t-156 45.5q-51 0 -100 -8.5t-108 -31.5v128q56 14 108 20t97 6q88 0 159.5 -23.5t122 -69t78 -112t27.5 -153.5q0 -95 -29.5 -163t-77.5 -111.5t-109.5 -63.5t-126.5 -20zM374 92
q18 0 48 6t60 28t53.5 65t29.5 117h-382q4 -49 16 -84.5t29 -59.5t37.5 -38.5t40.5 -21.5t37.5 -9.5t30.5 -2.5zM303 867v-115h-115v115h115zM532 867v-115h-115v115h115z" />
    <glyph glyph-name="uni04DB" unicode="&#x4db;" horiz-adv-x="565" 
d="M388 311q-2 22 -12 43t-29 37.5t-47 26.5t-66 10q-45 0 -85 -9.5t-77 -26.5v102q40 15 86 23.5t93 8.5q58 0 109 -16t88.5 -49t59.5 -83t22 -119q0 -63 -20.5 -112.5t-55.5 -84t-81.5 -52.5t-98.5 -18q-59 0 -99.5 17.5t-67 44.5t-41 59.5t-21.5 63.5t-8.5 55.5
t-1.5 36.5v42h353zM175 218q0 -69 29.5 -100.5t77.5 -31.5q27 0 46.5 10.5t33 28.5t20 42t6.5 51h-213zM240 726v-116h-120v116h120zM430 726v-116h-120v116h120z" />
    <glyph glyph-name="uni04DC" unicode="&#x4dc;" horiz-adv-x="978" 
d="M560 700v-299h3l235 299h169l-272 -317l276 -383h-180l-228 348h-3v-348h-142v348h-3l-228 -348h-180l276 383l-272 317h169l235 -299h3v299h142zM432 867v-115h-115v115h115zM661 867v-115h-115v115h115z" />
    <glyph glyph-name="uni04DD" unicode="&#x4dd;" horiz-adv-x="810" 
d="M473 518v-231h5l155 231h155l-183 -237l200 -281h-172l-155 251h-5v-251h-136v251h-5l-155 -251h-172l200 281l-183 237h155l155 -231h5v231h136zM369 726v-116h-120v116h120zM559 726v-116h-120v116h120z" />
    <glyph glyph-name="uni04DE" unicode="&#x4de;" horiz-adv-x="569" 
d="M243 -8q-31 0 -57 3t-50.5 8.5t-48 13.5t-49.5 18v123q72 -32 120 -41.5t78 -9.5q40 0 67 9.5t42.5 23.5t22 30t6.5 30q0 40 -17.5 61.5t-40.5 31.5t-45.5 12t-32.5 2h-85v115h85q54 0 83 24t29 66q0 14 -5.5 28.5t-18.5 26t-34.5 19t-54.5 7.5q-53 0 -92.5 -12
t-82.5 -32v124q26 9 50 15.5t48.5 11t50.5 6.5t56 2q60 0 105 -13t74.5 -36.5t44 -56t14.5 -70.5q0 -54 -28.5 -98t-87.5 -60v-3q28 -5 53 -17.5t44.5 -33t31 -49.5t11.5 -68q0 -50 -16.5 -85t-42 -58.5t-58 -37t-64 -20t-59.5 -8.5t-46 -2zM223 867v-115h-115v115h115z
M452 867v-115h-115v115h115z" />
    <glyph glyph-name="uni04DF" unicode="&#x4df;" horiz-adv-x="494" 
d="M220 -8q-28 0 -80.5 7.5t-114.5 34.5v102q55 -26 105 -36t85 -10q42 0 69.5 18t27.5 52q0 27 -21.5 45t-75.5 18h-71v95h70q24 0 39 5.5t23 13.5t11 17t3 17q0 23 -20 40t-68 17q-11 0 -27.5 -1.5t-37 -5t-43 -10.5t-43.5 -17v99q44 16 83.5 24.5t90.5 8.5
q60 0 99.5 -12.5t62.5 -32t32 -44t9 -47.5q0 -32 -10.5 -53t-24.5 -34.5t-29.5 -20t-24.5 -8.5v-2q16 -3 36.5 -10t37.5 -20.5t29 -35.5t12 -54q0 -34 -15.5 -63.5t-45.5 -51t-73.5 -33.5t-99.5 -12zM205 726v-116h-120v116h120zM395 726v-116h-120v116h120z" />
    <glyph glyph-name="uni04E2" unicode="&#x4e2;" horiz-adv-x="747" 
d="M212 700v-360l-3 -170h3l50 102l245 428h170v-700h-142v361l3 169h-3l-48 -106l-247 -424h-170v700h142zM238 824h271v-79h-271v79z" />
    <glyph glyph-name="uni04E3" unicode="&#x4e3;" horiz-adv-x="639" 
d="M201 518v-272l-4 -93h2l223 365h152v-518h-136v268l4 97h-3l-229 -365h-145v518h136zM450 685v-74h-261v74h261z" />
    <glyph glyph-name="uni04E4" unicode="&#x4e4;" horiz-adv-x="747" 
d="M212 700v-360l-3 -170h3l50 102l245 428h170v-700h-142v361l3 169h-3l-48 -106l-247 -424h-170v700h142zM316 867v-115h-115v115h115zM545 867v-115h-115v115h115z" />
    <glyph glyph-name="uni04E5" unicode="&#x4e5;" horiz-adv-x="639" 
d="M201 518v-272l-4 -93h2l223 365h152v-518h-136v268l4 97h-3l-229 -365h-145v518h136zM283 726v-116h-120v116h120zM473 726v-116h-120v116h120z" />
    <glyph glyph-name="uni04E6" unicode="&#x4e6;" horiz-adv-x="776" 
d="M388 708q65 0 126.5 -20t109.5 -63.5t77.5 -111.5t29.5 -163t-29.5 -163t-77.5 -111.5t-109.5 -63.5t-126.5 -20t-126.5 20t-109.5 63.5t-77.5 111.5t-29.5 163t29.5 163t77.5 111.5t109.5 63.5t126.5 20zM388 608q-20 0 -52.5 -7t-64 -33t-54 -77.5t-22.5 -140.5
t22.5 -140.5t54 -77.5t64 -33t52.5 -7t52.5 7t64 33t54 77.5t22.5 140.5t-22.5 140.5t-54 77.5t-64 33t-52.5 7zM331 867v-115h-115v115h115zM560 867v-115h-115v115h115z" />
    <glyph glyph-name="uni04E7" unicode="&#x4e7;" horiz-adv-x="604" 
d="M35 259q0 65 20 115t55.5 83.5t84.5 51t107 17.5t107 -17.5t84.5 -51t55.5 -83.5t20 -115t-20 -115t-55.5 -83.5t-84.5 -51t-107 -17.5t-107 17.5t-84.5 51t-55.5 83.5t-20 115zM177 259q0 -45 11 -77t29 -52.5t40 -30t45 -9.5q22 0 44.5 9.5t40.5 30t29 52.5t11 77
t-11 77t-29 52.5t-40.5 30t-44.5 9.5q-23 0 -45 -9.5t-40 -30t-29 -52.5t-11 -77zM266 726v-116h-120v116h120zM456 726v-116h-120v116h120z" />
    <glyph glyph-name="uni04E8" unicode="&#x4e8;" horiz-adv-x="776" 
d="M388 708q65 0 126.5 -20t109.5 -63.5t77.5 -111.5t29.5 -163t-29.5 -163t-77.5 -111.5t-109.5 -63.5t-126.5 -20t-126.5 20t-109.5 63.5t-77.5 111.5t-29.5 163t29.5 163t77.5 111.5t109.5 63.5t126.5 20zM576 418q-3 22 -12 54.5t-30 62.5t-56.5 51.5t-89.5 21.5
t-89.5 -21.5t-56.5 -51.5t-30 -62.5t-12 -54.5h376zM197 303q2 -25 10.5 -61t29.5 -69.5t57 -57t94 -23.5t94 23.5t57 57t29.5 69.5t10.5 61h-382z" />
    <glyph glyph-name="uni04E9" unicode="&#x4e9;" horiz-adv-x="604" 
d="M35 259q0 65 20 115t55.5 83.5t84.5 51t107 17.5t107 -17.5t84.5 -51t55.5 -83.5t20 -115t-20 -115t-55.5 -83.5t-84.5 -51t-107 -17.5t-107 17.5t-84.5 51t-55.5 83.5t-20 115zM420 322q-5 21 -15 40t-25 33.5t-34.5 23.5t-43.5 9t-44 -9t-35 -23.5t-25 -33.5t-14 -40
h236zM179 222q3 -23 11.5 -46.5t23.5 -42.5t37 -31t51 -12t51 12t37 31t23.5 42.5t11.5 46.5h-246z" />
    <glyph glyph-name="uni04EA" unicode="&#x4ea;" horiz-adv-x="776" 
d="M388 708q65 0 126.5 -20t109.5 -63.5t77.5 -111.5t29.5 -163t-29.5 -163t-77.5 -111.5t-109.5 -63.5t-126.5 -20t-126.5 20t-109.5 63.5t-77.5 111.5t-29.5 163t29.5 163t77.5 111.5t109.5 63.5t126.5 20zM576 418q-3 22 -12 54.5t-30 62.5t-56.5 51.5t-89.5 21.5
t-89.5 -21.5t-56.5 -51.5t-30 -62.5t-12 -54.5h376zM197 303q2 -25 10.5 -61t29.5 -69.5t57 -57t94 -23.5t94 23.5t57 57t29.5 69.5t10.5 61h-382zM331 867v-115h-115v115h115zM560 867v-115h-115v115h115z" />
    <glyph glyph-name="uni04EB" unicode="&#x4eb;" horiz-adv-x="604" 
d="M35 259q0 65 20 115t55.5 83.5t84.5 51t107 17.5t107 -17.5t84.5 -51t55.5 -83.5t20 -115t-20 -115t-55.5 -83.5t-84.5 -51t-107 -17.5t-107 17.5t-84.5 51t-55.5 83.5t-20 115zM420 322q-5 21 -15 40t-25 33.5t-34.5 23.5t-43.5 9t-44 -9t-35 -23.5t-25 -33.5t-14 -40
h236zM179 222q3 -23 11.5 -46.5t23.5 -42.5t37 -31t51 -12t51 12t37 31t23.5 42.5t11.5 46.5h-246zM266 726v-116h-120v116h120zM456 726v-116h-120v116h120z" />
    <glyph glyph-name="uni04EE" unicode="&#x4ee;" horiz-adv-x="644" 
d="M198 -8q-25 0 -48.5 3.5t-49.5 14.5v110q15 -8 33 -11.5t35 -3.5q33 0 50.5 11t28.5 36l20 47l-257 501h159l139 -298l30 -74h3l30 75l133 297h140l-280 -595q-29 -63 -69.5 -88t-96.5 -25zM201 824h271v-79h-271v79z" />
    <glyph glyph-name="uni04EF" unicode="&#x4ef;" horiz-adv-x="551" 
d="M117 -222q-19 0 -40 4.5t-39 10.5v104q12 -5 26 -9.5t37 -4.5q35 0 57.5 12t36.5 46l12 30l-204 547h150l97 -286l29 -99h5l32 103l94 282h138l-219 -581q-11 -29 -25.5 -57.5t-37.5 -51t-59 -36.5t-90 -14zM412 685v-74h-261v74h261z" />
    <glyph glyph-name="uni04F0" unicode="&#x4f0;" horiz-adv-x="644" 
d="M198 -8q-25 0 -48.5 3.5t-49.5 14.5v110q15 -8 33 -11.5t35 -3.5q33 0 50.5 11t28.5 36l20 47l-257 501h159l139 -298l30 -74h3l30 75l133 297h140l-280 -595q-29 -63 -69.5 -88t-96.5 -25zM279 867v-115h-115v115h115zM508 867v-115h-115v115h115z" />
    <glyph glyph-name="uni04F1" unicode="&#x4f1;" horiz-adv-x="551" 
d="M117 -222q-19 0 -40 4.5t-39 10.5v104q12 -5 26 -9.5t37 -4.5q35 0 57.5 12t36.5 46l12 30l-204 547h150l97 -286l29 -99h5l32 103l94 282h138l-219 -581q-11 -29 -25.5 -57.5t-37.5 -51t-59 -36.5t-90 -14zM246 726v-116h-120v116h120zM436 726v-116h-120v116h120z" />
    <glyph glyph-name="uni04F2" unicode="&#x4f2;" horiz-adv-x="644" 
d="M198 -8q-25 0 -48.5 3.5t-49.5 14.5v110q15 -8 33 -11.5t35 -3.5q33 0 50.5 11t28.5 36l20 47l-257 501h159l139 -298l30 -74h3l30 75l133 297h140l-280 -595q-29 -63 -69.5 -88t-96.5 -25zM259 880h150l-132 -140h-100zM478 880h150l-132 -140h-100z" />
    <glyph glyph-name="uni04F3" unicode="&#x4f3;" horiz-adv-x="551" 
d="M117 -222q-19 0 -40 4.5t-39 10.5v104q12 -5 26 -9.5t37 -4.5q35 0 57.5 12t36.5 46l12 30l-204 547h150l97 -286l29 -99h5l32 103l94 282h138l-219 -581q-11 -29 -25.5 -57.5t-37.5 -51t-59 -36.5t-90 -14zM216 590h-80l94 160h134zM426 590h-80l94 160h134z" />
    <glyph glyph-name="uni04F4" unicode="&#x4f4;" horiz-adv-x="671" 
d="M192 700v-239q0 -18 2 -37.5t15 -36t40.5 -27t78.5 -10.5q35 0 67 4.5t64 12.5v333h142v-700h-142v249q-29 -6 -59 -10t-72 -4q-90 0 -144.5 18t-84.5 47t-39.5 66t-9.5 76v258h142zM278 867v-115h-115v115h115zM507 867v-115h-115v115h115z" />
    <glyph glyph-name="uni04F5" unicode="&#x4f5;" horiz-adv-x="570" 
d="M181 518v-165q0 -14 2.5 -27.5t11.5 -24t25.5 -17t43.5 -6.5q23 0 51 3t54 10v227h136v-518h-136v191q-45 -8 -78.5 -10.5t-50.5 -2.5q-65 0 -103.5 14t-59 36.5t-26.5 50.5t-6 57v182h136zM249 726v-116h-120v116h120zM439 726v-116h-120v116h120z" />
    <glyph glyph-name="uni04F8" unicode="&#x4f8;" horiz-adv-x="880" 
d="M70 700h142v-250h86q142 0 206 -58t64 -167q0 -51 -17 -92.5t-50.5 -71t-84.5 -45.5t-118 -16h-228v700zM418 225q0 115 -120 115h-86v-230h86q120 0 120 115zM668 700h142v-700h-142v700zM383 867v-115h-115v115h115zM612 867v-115h-115v115h115z" />
    <glyph glyph-name="uni04F9" unicode="&#x4f9;" horiz-adv-x="805" 
d="M64 518h136v-168h104q112 0 165.5 -48t53.5 -127t-53.5 -127t-165.5 -48h-240v518zM381 175q0 38 -23 59t-74 21h-84v-160h84q51 0 74 21t23 59zM604 518h136v-518h-136v518zM367 726v-116h-120v116h120zM557 726v-116h-120v116h120z" />
    <glyph glyph-name="uni0531" unicode="&#x531;" horiz-adv-x="795" 
d="M654 266q0 -17 -2 -34.5t-7 -36.5l110 -67v-136l-154 92q-27 -28 -54 -45.5t-56.5 -28t-61 -14.5t-67.5 -4q-20 0 -51 2.5t-65 12t-67 28t-58 51.5q-18 24 -28.5 51t-15.5 52t-6 45.5t-1 31.5v434h142v-434q0 -8 0.5 -21t3 -28t8 -30.5t14.5 -28.5q17 -24 48 -40t76 -16
t76 16t48 40q9 13 14.5 28.5t8 30.5t3 28t0.5 21v434h142v-434z" />
    <glyph glyph-name="uni0532" unicode="&#x532;" horiz-adv-x="714" 
d="M70 434q0 12 1 32.5t6.5 45.5t15.5 51.5t28 50.5q25 33 58 51.5t67 28t64.5 12t50.5 2.5q22 0 53 -2.5t64.5 -12t66 -28t58.5 -51.5q19 -23 35 -62.5t16 -96.5v-20h-142v21q0 16 -4.5 39t-21.5 47q-7 9 -17.5 19t-25.5 18.5t-35 13.5t-46 5q-52 0 -81.5 -18.5
t-42.5 -37.5q-9 -14 -14 -29.5t-8 -30t-3.5 -27t-0.5 -21.5v-129h442v-110h-442v-195h-142v434z" />
    <glyph glyph-name="uni0533" unicode="&#x533;" horiz-adv-x="791" 
d="M628 195v-195h-142v194q-42 -12 -82 -17t-77 -5q-26 0 -53.5 3t-56 11.5t-55.5 25t-51 43.5q-28 31 -47 78t-19 110q0 36 7 65.5t18 52.5t25.5 41.5t28.5 32.5q48 45 100.5 59t115.5 14q26 0 54.5 -2t57 -9t55 -19.5t49.5 -33.5q25 -23 39.5 -50.5t21.5 -55t9 -53
t2 -45.5v-135h133v-110h-133zM486 440q0 48 -14.5 77t-29.5 43q-19 18 -48 28t-60 10q-39 0 -65.5 -14t-42.5 -34q-21 -26 -27.5 -56t-6.5 -56q0 -28 7 -59t35 -58q26 -25 56.5 -32t64.5 -7q72 0 131 22v136z" />
    <glyph glyph-name="uni0534" unicode="&#x534;" horiz-adv-x="783" 
d="M39 434q0 12 1 32.5t6.5 45.5t15.5 51.5t28 50.5q25 33 58 51.5t66.5 28t64 12t50.5 2.5q52 0 92 -8.5t69 -22t49 -30.5t33 -33q18 -24 28 -50.5t15.5 -51.5t6.5 -45.5t1 -32.5v-129h130v-110h-130v-195h-142v434q0 18 -4 48.5t-22 59.5q-24 35 -59 45.5t-65 10.5
t-65 -10.5t-59 -45.5q-18 -29 -22 -59.5t-4 -48.5v-61h-142v61z" />
    <glyph glyph-name="uni0535" unicode="&#x535;" horiz-adv-x="720" 
d="M654 231q0 -23 -13.5 -68.5t-37.5 -76.5q-25 -33 -58 -51.5t-67 -28t-64.5 -12t-49.5 -2.5q-52 0 -92 8.5t-69 22t-49 30t-33 33.5q-18 24 -28 50.5t-15.5 51.5t-6.5 45.5t-1 32.5v434h142v-174h448v-110h-448v-150q0 -9 0.5 -21.5t3 -27.5t8 -30.5t14.5 -28.5
q24 -35 59 -45.5t65 -10.5q31 0 65.5 10.5t58.5 45.5q14 20 20 31t6 33v25h142v-16z" />
    <glyph glyph-name="uni0536" unicode="&#x536;" horiz-adv-x="830" 
d="M628 -16v18v2q0 6 -1 13.5t-6 14.5t-15 11.5t-29 4.5h-365v-48h-142v201h142v-48h76q19 0 40 11.5t40 26.5t34 30t21 22l-2 4q-17 -4 -45 -4q-45 0 -82.5 15.5t-63.5 42.5q-7 7 -17 20t-19.5 32.5t-16 46t-6.5 60.5q0 38 8 68t20.5 53t27 39t27.5 27q26 21 73 41t122 20
q29 0 66.5 -6t79.5 -27q18 -10 37.5 -25t36 -38.5t27.5 -57.5t12 -82q0 -32 -7.5 -63.5t-24.5 -63.5q-13 -23 -33 -47.5t-45 -48.5t-53.5 -47t-58.5 -46v-3h164q16 0 37 -2.5t39.5 -13.5t31 -34.5t12.5 -62.5v-56h-142zM440 601q-67 0 -101 -45q-29 -38 -29 -94
q0 -26 7.5 -48.5t21.5 -36.5q18 -19 47.5 -28.5t58.5 -9.5q14 0 31.5 2.5t29.5 4.5q9 9 20 22.5t20.5 30t16 35.5t6.5 40t-7.5 45t-22.5 42q-14 17 -37.5 28.5t-61.5 11.5z" />
    <glyph glyph-name="uni0537" unicode="&#x537;" horiz-adv-x="592" 
d="M379 -83v36q0 17 -5 26.5t-13.5 14t-18.5 5.5t-19 1h-253v700h142v-171h346v-110h-346v-309h180q63 0 96 -29.5t33 -101.5v-62h-142z" />
    <glyph glyph-name="uni0538" unicode="&#x538;" horiz-adv-x="729" 
d="M70 434q0 12 1 32.5t6.5 45.5t15.5 51.5t28 50.5q25 33 58 51.5t66.5 28t64 12t50.5 2.5q52 0 92 -8.5t69 -22t49 -30.5t33 -33q18 -24 28 -50.5t15.5 -51.5t6.5 -45.5t1 -32.5v-53h-142v53q0 9 -0.5 21.5t-3.5 27t-8 30t-14 29.5q-17 24 -48 40t-76 16t-76 -16t-48 -40
q-9 -14 -14 -29.5t-8 -30t-3.5 -27t-0.5 -21.5v-324h447v-110h-589v434z" />
    <glyph glyph-name="uni0539" unicode="&#x539;" horiz-adv-x="829" 
d="M740 365v-49q0 -17 -1.5 -40.5t-7 -49.5t-17 -52.5t-31.5 -49.5q-18 -21 -39 -34t-44 -20.5t-46.5 -10.5t-45.5 -3q-18 0 -39 2t-42.5 8t-42.5 17.5t-40 30.5q-38 38 -48.5 81.5t-10.5 81.5t8.5 72.5t34.5 64.5q18 20 38.5 32t41 18.5t40.5 8.5t38 2h97q-1 9 -7 29
t-23 41t-48.5 37t-83.5 16q-51 0 -90 -15t-65 -39q-22 -21 -38 -54.5t-16 -76.5v-413h-142v415q0 24 3.5 51.5t13 56.5t28 57.5t48.5 54.5q30 25 63.5 39.5t67 22t66 9.5t59.5 2q24 0 54.5 -2t62.5 -9t64 -22t59 -40q26 -24 48 -63.5t25 -96.5h77v-110h-69zM503 365
q-28 0 -41.5 -10.5t-18.5 -17.5q-9 -14 -11.5 -33.5t-2.5 -34.5q0 -32 4 -47.5t9 -23.5q13 -21 32.5 -26.5t34.5 -5.5q16 0 33.5 5.5t30.5 22.5q4 6 7.5 14t6 22t4 35t1.5 51v49h-89z" />
    <glyph glyph-name="uni053A" unicode="&#x53a;" horiz-adv-x="770" 
d="M633 419v-170q0 -20 -2.5 -43t-10.5 -47.5t-22 -49t-37 -46.5q-48 -45 -103.5 -58t-115.5 -13q-25 0 -53 2t-56.5 9.5t-56 21t-52.5 37.5q-14 13 -28 31.5t-25.5 43.5t-18.5 57t-7 71q0 48 12.5 90.5t41.5 79.5q24 31 51 49.5t56 28.5t58 13t58 3h169v171h142v-171h127
v-110h-127zM491 419h-156q-17 0 -41 -4t-46.5 -19.5t-38.5 -47t-16 -86.5q0 -13 1 -28.5t5 -32t12 -32.5t22 -30q24 -23 53 -30t53 -7q34 0 61.5 8.5t50.5 32.5q24 26 32 54.5t8 56.5v165z" />
    <glyph glyph-name="uni053B" unicode="&#x53b;" horiz-adv-x="623" 
d="M70 0v700h142v-153q32 9 62.5 13t62.5 4q76 0 122 -21t71 -47q18 -20 28.5 -41t16.5 -41.5t7.5 -38.5t1.5 -33v-100h-142v99q0 23 -7 48.5t-34 44.5q-18 12 -39 15.5t-40 3.5q-33 0 -60.5 -5t-50.5 -13v-435h-141z" />
    <glyph glyph-name="uni053C" unicode="&#x53c;" horiz-adv-x="467" 
d="M70 700h142v-590h230v-110h-372v700z" />
    <glyph glyph-name="uni053D" unicode="&#x53d;" horiz-adv-x="877" 
d="M70 0v700h142v-176h258v-213q0 -20 3 -44.5t17 -41.5q11 -14 31.5 -23.5t49.5 -9.5q31 0 51 10t32 27q15 20 18 42.5t3 43.5v209h142v-208q0 -17 -2 -38.5t-9 -44.5t-21 -46.5t-37 -44.5q-26 -24 -69 -42t-109 -18q-54 0 -98 13.5t-75 39.5q-23 19 -36.5 41t-21 44.5
t-9.5 44.5t-2 41v108h-116v-414h-142z" />
    <glyph glyph-name="uni053E" unicode="&#x53e;" horiz-adv-x="870" 
d="M716 472v14q0 5 -1.5 12.5t-6.5 14.5t-14 12t-24 5h-59l-1 -3q13 -9 31 -25t34.5 -42t28 -63.5t11.5 -89.5q0 -41 -7 -75t-17.5 -61.5t-23.5 -48t-26 -35.5q-25 -29 -53 -47.5t-57 -29t-59 -14.5t-58 -4t-58.5 4t-61 15.5t-60 32.5t-55.5 55q-24 32 -44 82t-20 122
q0 19 3 46t13.5 57t31.5 61t57 57v3h-76q-39 0 -60.5 16t-31.5 36.5t-11.5 40t-1.5 26.5v54h138v-22q0 -30 14 -36.5t31 -6.5h476q43 0 70 -12t42.5 -30t21 -39.5t5.5 -40.5v-41h-121zM415 525q-35 0 -63.5 -13.5t-49.5 -46.5q-3 -5 -9 -17t-12.5 -32t-11 -48.5t-4.5 -66.5
q0 -35 6.5 -72t29.5 -69q26 -35 57 -46.5t57 -11.5q47 0 76.5 22t43.5 46q18 29 24 64.5t6 66.5q0 21 -2 44t-6.5 46t-12.5 44t-20 37q-38 53 -109 53z" />
    <glyph glyph-name="uni053F" unicode="&#x53f;" horiz-adv-x="661" 
d="M449 0v166q-18 -6 -55.5 -14.5t-85.5 -8.5q-11 0 -30.5 1t-42.5 5.5t-47 13.5t-45 25q-25 19 -39.5 41t-22 45.5t-9.5 46.5t-2 45v334h142v-328q0 -21 4 -46t24 -45q10 -10 22.5 -15.5t24.5 -8.5t23 -3.5t19 -0.5q23 0 54 4.5t66 18.5v240h142v-516h-142z" />
    <glyph glyph-name="uni0540" unicode="&#x540;" horiz-adv-x="732" 
d="M27 227l343 329q3 3 6.5 7.5t3.5 9.5t-8 13l-45 40l82 79l84 -85q10 -10 20 -22t10 -29q0 -25 -23 -48l-245 -235l445 -166v-128z" />
    <glyph glyph-name="uni0541" unicode="&#x541;" horiz-adv-x="702" 
d="M530 0q-45 0 -80.5 16.5t-61.5 41.5q-35 -29 -81 -47.5t-97 -18.5q-77 0 -119 36q-46 40 -46 106q0 23 11 51.5t41 54.5q27 23 62 29t60 6q39 0 78 -15q19 -8 43 -22t43 -29q27 29 45.5 60.5t30.5 63t17.5 62.5t5.5 59q0 33 -9.5 66.5t-43.5 56.5q-21 14 -41.5 17.5
t-37.5 3.5q-25 0 -51 -5.5t-49 -31.5q-30 -32 -30 -82v-46h-142v50q0 56 21 94t46 62q43 42 93.5 55.5t107.5 13.5q21 0 48.5 -2t56.5 -9.5t59 -22.5t56 -40q28 -28 47 -71.5t19 -101.5q0 -38 -9.5 -80t-26.5 -78q-20 -45 -52.5 -87.5t-67.5 -74.5q13 -11 32 -20.5t39 -9.5
h87v-111h-104zM310 132q-18 16 -43.5 29t-52.5 13q-25 0 -38 -13q-18 -9 -18 -28q0 -11 8 -18.5t15 -12.5q23 -10 39 -10q23 0 46.5 9.5t43.5 30.5z" />
    <glyph glyph-name="uni0542" unicode="&#x542;" horiz-adv-x="783" 
d="M39 434q0 12 1 32.5t6.5 45.5t15.5 51.5t28 50.5q25 33 58 51.5t66.5 28t64 12t50.5 2.5q52 0 92 -8.5t69 -22t49 -30.5t33 -33q18 -24 28 -50.5t15.5 -51.5t6.5 -45.5t1 -32.5v-324h130v-110h-272v434q0 9 -0.5 21.5t-3.5 27t-8 30t-14 29.5q-17 24 -48 40t-76 16
t-76 -16t-48 -40q-9 -14 -14 -29.5t-8 -30t-3.5 -27t-0.5 -21.5v-56h-142v56z" />
    <glyph glyph-name="uni0543" unicode="&#x543;" horiz-adv-x="707" 
d="M70 266q0 40 8 74.5t21 64t28 53t30 41.5q-39 3 -76 -3v109q37 3 78 3q20 0 41.5 -1.5t44.5 -3.5q59 53 130 77q38 13 80 19t84 6q20 0 40 -1.5t39 -5.5v-110q-18 3 -35 4.5t-37 1.5q-35 0 -68.5 -6t-71.5 -25q38 -11 81.5 -33t74.5 -55q29 -30 52 -80.5t23 -129.5v-265
h-567v266zM495 110v148q0 54 -19 95t-46 67q-18 18 -39.5 29t-40.5 18t-33 9.5t-17 2.5q-28 -30 -45.5 -60t-27 -58t-12.5 -53.5t-3 -47.5v-150h283z" />
    <glyph glyph-name="uni0544" unicode="&#x544;" horiz-adv-x="815" 
d="M789 700v-110h-135v-324q0 -12 -1 -32.5t-6.5 -45.5t-15.5 -51.5t-28 -50.5q-25 -33 -58 -51.5t-67 -28t-65.5 -12t-52.5 -2.5q-20 0 -50.5 2t-64 11.5t-66.5 28.5t-58 52q-7 9 -16 24t-16.5 37t-13 51.5t-5.5 67.5v434h142v-434q0 -8 0.5 -21t3 -28t8 -30.5t14.5 -28.5
q17 -24 48 -40t76 -16t76 16t48 40q9 13 14.5 28.5t8 30.5t3 28t0.5 21v434h277z" />
    <glyph glyph-name="uni0545" unicode="&#x545;" horiz-adv-x="707" 
d="M204 235q-2 -35 9 -57t25 -36t40.5 -27t68.5 -13q4 0 16.5 0.5t29 4t34.5 11t33 20.5q22 20 28.5 42t6.5 40q0 17 -5 38t-25 41q-12 12 -33 22t-53 10h-314v100h314q16 0 37.5 6t35.5 19q8 8 14 22.5t6 38.5q0 18 -6.5 34.5t-25.5 28.5q-8 5 -26.5 11.5t-54.5 6.5
q-10 0 -23 -1t-26.5 -4t-27 -9t-24.5 -16q-15 -15 -18.5 -28t-5.5 -24h-142q5 34 15.5 58t24 43t28.5 31.5t26 19.5q38 23 87.5 31.5t91.5 8.5q48 0 94.5 -9t79.5 -29q24 -14 39 -31t23.5 -35.5t11.5 -36.5t3 -33q0 -25 -6 -45.5t-15 -37.5q-15 -27 -34.5 -41.5t-35.5 -22.5
v-3q6 -1 25.5 -7.5t40.5 -23t37.5 -47t16.5 -79.5q0 -48 -18 -93.5t-67 -82.5q-27 -20 -56.5 -31.5t-59 -17.5t-57 -8t-48.5 -2q-25 0 -52 2.5t-54 10t-53.5 21.5t-50.5 38q-9 9 -21.5 24.5t-23 38t-17.5 48t-5 60.5h142z" />
    <glyph glyph-name="uni0546" unicode="&#x546;" horiz-adv-x="778" 
d="M739 264q0 -11 -1 -30.5t-6 -44.5t-15.5 -52t-28.5 -51q-13 -17 -33 -33.5t-49 -30t-68.5 -22t-90.5 -8.5q-20 0 -51 2.5t-65 12t-67 28t-58 51.5q-18 24 -28 50.5t-15.5 51.5t-6.5 45.5t-1 32.5v324h-135v110h277v-434q0 -8 0.5 -21t3 -28t8 -30.5t14.5 -28.5
q17 -24 48 -40t76 -16t76 16t48 40q9 13 14.5 28.5t8 30.5t3 28t0.5 21v38h142v-40z" />
    <glyph glyph-name="uni0547" unicode="&#x547;" horiz-adv-x="714" 
d="M652 264q3 -51 -12 -98.5t-45 -83.5q-12 -14 -31 -30t-46 -29.5t-63.5 -22t-84.5 -8.5q-27 0 -56.5 3.5t-59.5 13.5t-59 28t-55 47q-38 42 -55 92t-17 110q0 76 25 128.5t57 83.5q32 30 72.5 48t82.5 24q-26 17 -50 22.5t-55 5.5q-39 0 -69 -6.5t-59 -21.5v112
q33 11 70 18.5t79 7.5q34 0 59 -5.5t48 -16t48 -27t58 -38.5q21 -14 43 -28t47.5 -25t55 -18.5t65.5 -8.5v-113q-42 0 -76.5 6t-62.5 15.5t-50 21.5t-38 23q-54 2 -90.5 -13t-58.5 -38q-33 -35 -42 -80.5t-9 -86.5q0 -31 5.5 -65t27.5 -61q26 -32 59 -40t61 -8q30 0 51 6
t35 15.5t23 20.5t14 20q10 19 13.5 48.5t2.5 51.5h142z" />
    <glyph glyph-name="uni0548" unicode="&#x548;" horiz-adv-x="724" 
d="M70 434q0 75 19.5 121t39.5 69q30 34 86 59t146 25q52 0 91.5 -8.5t68.5 -22t49 -30.5t33 -33q18 -24 28 -50.5t15.5 -51.5t6.5 -45.5t1 -32.5v-434h-142v434q0 25 -4.5 54t-21.5 54q-16 23 -46 39.5t-78 16.5q-52 0 -81.5 -18.5t-42.5 -37.5q-17 -25 -21.5 -54t-4.5 -54
v-434h-142v434z" />
    <glyph glyph-name="uni0549" unicode="&#x549;" horiz-adv-x="693" 
d="M229 203q48 12 95.5 34.5t82.5 51.5q50 42 67.5 87t17.5 85t-13.5 67t-32.5 42q-22 18 -46 23t-44 5q-31 0 -60 -8.5t-54 -34.5q-21 -23 -27.5 -46t-6.5 -49v-24h-142v20q0 19 2.5 41.5t11.5 47t25 49.5t43 48q48 39 102.5 52.5t109.5 13.5q27 0 55.5 -3t55.5 -11
t53 -22.5t49 -37.5q22 -23 35.5 -47t21 -47t10 -44t2.5 -39q0 -51 -16 -99t-59 -93q-17 -18 -39 -33.5t-46 -28.5t-48.5 -23.5t-46.5 -17.5v-3l168 -47l-37 -120l-462 126l37 122z" />
    <glyph glyph-name="uni054A" unicode="&#x54a;" horiz-adv-x="807" 
d="M595 432q0 13 -1 29t-5.5 33t-13 33.5t-22.5 30.5q-17 17 -44.5 28.5t-59.5 11.5v-388h-130v388q-29 0 -51 -7t-37 -17t-24.5 -21t-13.5 -19q-16 -26 -20 -57t-4 -61v-28h-142v27q0 28 3.5 58.5t15 61t33 60t57.5 54.5q29 20 62.5 32t67 18t65 7.5t57.5 1.5q28 0 60 -1.5
t65 -7.5t65 -17t59 -30q33 -23 52.5 -49t30 -54t14 -57t3.5 -57v-435h-142v432z" />
    <glyph glyph-name="uni054B" unicode="&#x54b;" horiz-adv-x="804" 
d="M70 0v201h142v-48h41q17 0 32 6t26.5 15.5t18 22t6.5 25.5q0 25 -17.5 37t-33.5 18q-12 5 -25 9.5t-26.5 11t-27.5 16t-27 24.5q-29 35 -36.5 70.5t-7.5 57.5q0 37 8.5 67t22 53t29.5 39.5t31 27.5q29 21 74 38t114 17q66 0 115 -17t81 -46q13 -11 25.5 -27.5t23 -38
t17 -48.5t6.5 -60q0 -57 -18.5 -100.5t-53.5 -82.5q-22 -25 -48.5 -47t-51.5 -39.5t-45.5 -29.5t-29.5 -17h187q41 0 65.5 -11t37 -28t16 -37.5t3.5 -38.5v-56h-137v22q0 14 -8 26.5t-41 12.5h-346v-45h-142zM416 238q19 16 39.5 38t37 49.5t27.5 60.5t11 71q0 62 -30 98
q-17 20 -41.5 31.5t-53.5 11.5q-30 0 -52.5 -11t-36.5 -25q-16 -17 -24.5 -41t-8.5 -58q0 -16 4 -34t16 -35q13 -18 31.5 -30.5t35.5 -23.5q26 -17 34 -38t8 -38q0 -8 -1 -13.5t-2 -10.5z" />
    <glyph glyph-name="uni054C" unicode="&#x54c;" horiz-adv-x="805" 
d="M76 434q0 12 1 32.5t6.5 45.5t15.5 51.5t28 50.5q25 33 58 51.5t67 28t65 12t51 2.5t51 -2.5t65 -12t67 -28t58 -51.5q18 -24 28 -50.5t15.5 -51.5t6.5 -45.5t1 -32.5v-129h115v-110h-115v-195h-142v434q0 9 -0.5 21.5t-3.5 27t-8 30t-14 29.5q-17 24 -48 40t-76 16
t-76 -16t-48 -40q-9 -14 -14 -29.5t-8 -30t-3.5 -27t-0.5 -21.5v-434h-142v434z" />
    <glyph glyph-name="uni054D" unicode="&#x54d;" horiz-adv-x="724" 
d="M654 266q0 -25 -3.5 -55t-13.5 -60.5t-29.5 -59t-52 -50.5t-79.5 -35.5t-112 -13.5q-22 0 -52.5 2.5t-63 11t-64.5 26t-57.5 48t-41 76t-15.5 110.5v434h142v-434q0 -19 3.5 -47t18.5 -54t45 -44.5t83 -18.5t83 18.5t45 44.5t18.5 54t3.5 47v434h142v-434z" />
    <glyph glyph-name="uni054E" unicode="&#x54e;" horiz-adv-x="768" 
d="M466 0v168q-68 -15 -135 -15q-25 0 -53 2.5t-56 9t-54.5 19.5t-48.5 34q-21 19 -34 40.5t-20 43.5t-9.5 42.5t-2.5 38.5v141h142v-130q0 -40 12.5 -63.5t25.5 -35.5q13 -11 29 -17.5t31.5 -9.5t28.5 -4t21 -1q30 0 62.5 4.5t60.5 12.5v420h142v-590h130v-110h-272z" />
    <glyph glyph-name="uni054F" unicode="&#x54f;" horiz-adv-x="686" 
d="M198 249q-1 -23 6 -51.5t25 -49.5q17 -19 47 -32.5t75 -13.5q23 0 50.5 5.5t46.5 19.5q17 12 24 27t7 35q0 14 -4.5 26.5t-15.5 24.5q-22 23 -57.5 37.5t-70.5 27.5q-48 17 -85.5 33t-60 29t-34 23t-19.5 16q-25 29 -33.5 57.5t-9.5 53.5q1 30 7.5 53t16.5 41t22 31
t24 22q21 15 42 23.5t49 13t47.5 6t30.5 1.5q44 0 71 -5t47 -11.5t33.5 -14.5t21.5 -14q27 -21 51.5 -61t26.5 -100h-141q2 23 -5.5 41.5t-18.5 29.5q-17 18 -44 22t-41 4q-15 0 -34 -3t-36 -18q-20 -20 -20 -47q0 -17 5 -28t16 -22q20 -20 50.5 -33t66.5 -23
q53 -20 89.5 -36.5t60 -30t36.5 -23.5t20 -17q26 -26 36.5 -55.5t10.5 -61.5q0 -29 -6.5 -52.5t-16 -41.5t-21 -31t-21.5 -22q-24 -20 -51 -32.5t-55 -19t-55.5 -8.5t-52.5 -2q-28 0 -57.5 2.5t-58.5 10.5t-57 22.5t-52 37.5q-10 9 -23 25t-24 39t-18 53t-5 67h142z" />
    <glyph glyph-name="uni0550" unicode="&#x550;" horiz-adv-x="693" 
d="M70 434q0 12 1 32.5t6.5 45.5t15.5 51.5t28 50.5q25 33 58 51.5t66.5 28t64 12t50.5 2.5q52 0 92 -8.5t69 -22t49 -30.5t33 -33q18 -24 28 -50.5t15.5 -51.5t6.5 -45.5t1 -32.5v-49h-142v49q0 9 -0.5 21.5t-3.5 27t-8 30t-14 29.5q-17 24 -48 40t-76 16t-76 -16t-48 -40
q-9 -14 -14 -29.5t-8 -30t-3.5 -27t-0.5 -21.5v-434h-142v434z" />
    <glyph glyph-name="uni0551" unicode="&#x551;" horiz-adv-x="715" 
d="M65 310q12 36 31.5 57.5t36.5 33.5q43 30 96 36v5q-34 11 -55 40.5t-21 64.5q0 36 14.5 68t43.5 53t69.5 30.5t77.5 9.5q35 0 72.5 -8t63.5 -24q29 -18 46.5 -49.5t17.5 -73.5q0 -19 -6.5 -39t-18.5 -35q-9 -12 -23.5 -22t-34.5 -15v-5q29 -2 60 -14t55 -32
q20 -17 32.5 -36.5t19 -40t9 -41t2.5 -38.5q0 -116 -81 -182q-24 -20 -51 -32t-55 -18.5t-56 -8.5t-55 -2q-25 0 -51.5 1.5t-52.5 7t-51.5 16t-49.5 27.5q-29 21 -55.5 59t-32.5 98h147q2 -14 9 -33.5t30 -36.5q25 -19 53.5 -23.5t51.5 -4.5q29 0 58.5 5.5t52.5 25.5
t30.5 43.5t7.5 49.5q0 29 -10 58.5t-49 51.5q-19 11 -41.5 15.5t-45.5 4.5q-24 0 -50 -4.5t-46 -14.5q-15 -8 -25.5 -17.5t-18.5 -26.5zM357 606q-36 0 -59 -14q-26 -17 -26 -48q0 -36 24 -54q22 -18 59 -18q38 0 60.5 19.5t22.5 51.5q0 14 -6 27t-21 23q-14 9 -29 11t-25 2
z" />
    <glyph glyph-name="uni0552" unicode="&#x552;" horiz-adv-x="563" 
d="M70 0v700h142v-132h34q18 0 37.5 -3.5t39 -11.5t42 -23.5t34.5 -37.5q12 -20 17.5 -41.5t11 -42t12.5 -38t21 -29.5q11 -10 26.5 -16t35.5 -6v-111q-38 -2 -76.5 7.5t-70.5 32.5q-17 13 -28.5 28.5t-19.5 31.5t-12.5 31.5t-7.5 27.5q-5 21 -10 37t-14 28q-8 10 -20 17.5
t-26 7.5h-26v-457h-142z" />
    <glyph glyph-name="uni0553" unicode="&#x553;" horiz-adv-x="820" 
d="M481 0h-142v90q-52 0 -105.5 15t-91.5 43q-19 14 -36.5 33.5t-31 45.5t-21.5 59.5t-8 74.5q0 69 24 122t84 91q4 3 18.5 11t38.5 17t56.5 16.5t72.5 8.5v73h142v-73q40 -1 72.5 -8.5t56.5 -16.5t38.5 -17t18.5 -11q60 -38 84 -91t24 -122q0 -41 -8 -74.5t-21.5 -59.5
t-31 -45.5t-36.5 -33.5q-38 -28 -91.5 -43t-105.5 -15v-90zM481 201q27 0 51 8.5t41 22.5q31 25 41.5 59.5t10.5 70.5q0 29 -6.5 55.5t-28.5 50.5q-5 6 -14 13.5t-22.5 15t-31.5 13t-41 6.5v-315zM339 516q-23 -1 -41 -6.5t-31.5 -13t-22.5 -15t-14 -13.5
q-22 -24 -28.5 -50.5t-6.5 -55.5q0 -36 10.5 -70.5t41.5 -59.5q17 -14 41 -22.5t51 -8.5v315z" />
    <glyph glyph-name="uni0554" unicode="&#x554;" horiz-adv-x="765" 
d="M155 0v88h-110v100h110v276q0 35 5 72t31 75q13 19 32 36.5t46.5 31t64.5 21.5t85 8q15 0 37.5 -1.5t48 -7t52 -16.5t49.5 -30q28 -24 51.5 -66.5t23.5 -111.5q0 -57 -18.5 -99.5t-57.5 -75.5q-38 -31 -77.5 -42t-87.5 -11q-37 0 -73 8.5t-70 37.5v-103h411v-111h-411
v-79h-142zM298 483q0 -22 5.5 -47t25.5 -46q20 -20 44 -26t49 -6q16 0 35.5 3.5t37.5 15.5q27 19 34.5 44.5t7.5 53.5q0 23 -5.5 48.5t-29.5 47.5q-18 17 -39.5 22.5t-44.5 5.5q-25 0 -46 -6t-40 -23q-21 -19 -27.5 -40t-6.5 -47z" />
    <glyph glyph-name="uni0555" unicode="&#x555;" horiz-adv-x="776" 
d="M388 708q47 0 86 -9t70 -23t55 -31.5t41 -35.5q29 -30 47 -62.5t27.5 -65.5t13 -66.5t3.5 -64.5q0 -32 -3.5 -65t-13 -66t-27.5 -65.5t-47 -62.5q-17 -18 -41 -35.5t-55 -31.5t-70 -23t-86 -9t-86 9t-70 23t-55 31.5t-41 35.5q-29 30 -47 62.5t-28 65.5t-13 66t-3 65
q0 31 3.5 64.5t13 66.5t27.5 65.5t47 62.5q17 18 41 35.5t55 31.5t70 23t86 9zM388 102q48 0 85.5 20t60.5 52q25 34 36 82.5t11 93.5t-11 93.5t-36 82.5q-23 32 -60.5 52t-85.5 20t-85.5 -20t-60.5 -52q-25 -34 -36 -82.5t-11 -93.5t11 -93.5t36 -82.5q23 -32 60.5 -52
t85.5 -20z" />
    <glyph glyph-name="uni0556" unicode="&#x556;" horiz-adv-x="845" 
d="M202 250q-2 -35 9.5 -62t27.5 -44q18 -19 48.5 -31.5t67.5 -10.5v280q-69 3 -113 16.5t-71 37.5q-26 23 -36.5 50.5t-10.5 60.5q0 40 12.5 67t29.5 43q22 21 53.5 32t63.5 11h214v-216l53 -5q52 -5 101.5 -22.5t82.5 -47.5q22 -20 35 -42t20 -44t9 -43.5t2 -39.5
q0 -66 -23.5 -114t-75.5 -82q-29 -19 -61 -29.5t-66.5 -15.5t-71.5 -6t-75 -1t-77.5 1.5t-78 9t-74.5 23t-65 44.5q-10 10 -22.5 26t-23.5 38.5t-18 51.5t-5 64h139zM359 594h-47q-32 0 -43.5 -16t-11.5 -35q0 -8 3 -17t13.5 -17t30.5 -13t55 -4v102zM497 102q31 -2 64 7.5
t55 29.5q25 23 29.5 49.5t4.5 47.5q0 24 -5.5 48t-27.5 46q-15 15 -37 25t-45 13l-38 5v-271z" />
    <glyph glyph-name="uni0559" unicode="&#x559;" horiz-adv-x="161" 
d="M151 877h-7q-26 0 -35 -13t-9 -27q0 -7 2 -13t4 -10q4 -6 12.5 -11.5t25.5 -5.5h7v-69h-19q-22 0 -42.5 4t-40.5 20q-17 14 -28 36t-11 49q0 29 11 50t28 35q20 16 40.5 20t42.5 4h19v-69z" />
    <glyph glyph-name="uni055A" unicode="&#x55a;" horiz-adv-x="289" 
d="M239 700l-69 -250h-120l47 250h142z" />
    <glyph glyph-name="uni055B" unicode="&#x55b;" horiz-adv-x="10" 
d="M-121 740h-83l88 160h140z" />
    <glyph glyph-name="uni055C" unicode="&#x55c;" horiz-adv-x="10" 
d="M32 900q-2 -20 -9.5 -44t-20.5 -40q-13 -17 -36 -28.5t-59 -11.5q-8 0 -17 0.5t-17 1.5q-11 1 -22.5 2t-22.5 1t-23 -2t-23 -10q-5 -4 -10.5 -11t-7.5 -18h-54q2 22 9 45t21 40q20 24 44 31.5t50 7.5q20 0 41 -2t41 -2q11 0 22.5 2t22.5 10q9 7 12.5 14.5t4.5 13.5h54z
" />
    <glyph glyph-name="uni055D" unicode="&#x55d;" horiz-adv-x="20" 
d="M-68 900l88 -160h-83l-145 160h140z" />
    <glyph glyph-name="uni055E" unicode="&#x55e;" horiz-adv-x="10" 
d="M-266 734q17 28 37 57.5t44 53.5t52.5 39.5t63.5 15.5q42 0 65.5 -22t23.5 -58q0 -17 -5 -33.5t-16.5 -29.5t-29 -21.5t-41.5 -8.5q-20 0 -34.5 4.5t-24.5 10.5l17 34q14 -8 27 -8q10 0 17.5 6.5t7.5 18.5q0 8 -4.5 17.5t-21.5 9.5q-35 0 -62 -25.5t-52 -60.5h-64z" />
    <glyph glyph-name="uni055F" unicode="&#x55f;" horiz-adv-x="331" 
d="M321 728h-159q-21 0 -50 4t-53 20q-25 17 -37 42.5t-12 51.5q0 18 6 38.5t19 39.5l85 -30q-6 -11 -11.5 -26.5t-5.5 -28.5t5 -20.5t11 -11.5q9 -6 19 -7.5t15 -1.5h168v-70z" />
    <glyph glyph-name="uni0561" unicode="&#x561;" horiz-adv-x="902" 
d="M837 518v-518h-129v88h-3q-10 -22 -25.5 -40t-40.5 -33q-23 -14 -44 -18.5t-48 -4.5q-23 0 -46.5 4t-46.5 21q-14 10 -28 27t-22 45h-3q-11 -21 -28 -39t-42 -33t-48 -20t-52 -5q-32 0 -63 8t-58 36q-16 16 -25 33.5t-13.5 35t-5.5 35t-1 33.5v345h136v-291q0 -20 1 -46
t14 -46q8 -12 22.5 -22t39.5 -10q26 0 46.5 12t33.5 30q17 23 21 48t4 39v286h136v-291q0 -32 2 -49t7 -29q6 -15 21.5 -30.5t44.5 -15.5q50 0 80 38q10 12 18.5 34t8.5 57v286h136z" />
    <glyph glyph-name="uni0562" unicode="&#x562;" horiz-adv-x="615" 
d="M65 -214v732h131v-81h3q8 12 21.5 27.5t34.5 29t49.5 23t66.5 9.5q24 0 57.5 -7.5t66.5 -33.5q33 -28 42.5 -61t9.5 -71v-128h-136v88q0 17 -4 34t-12 30t-25 25.5t-47 12.5q-18 0 -44.5 -9t-49.5 -40q-10 -14 -19 -35.5t-9 -51.5v-181h349v-98h-349v-214h-136z" />
    <glyph glyph-name="uni0563" unicode="&#x563;" horiz-adv-x="688" 
d="M407 -14l3 85h-2q-52 -79 -149 -79q-20 0 -42.5 4t-46 14t-45.5 27t-41 44q-32 46 -40.5 97t-8.5 94q0 39 9.5 85.5t44.5 91.5q11 14 26.5 27.5t35.5 24.5t45.5 18t56.5 7q63 0 105 -27.5t64 -69.5h2v89h119v-420h135v-98h-135v-214h-136v200zM407 259q0 39 -8.5 64
t-14.5 36q-11 19 -23.5 31t-25 18t-23.5 8t-20 2q-8 0 -19.5 -2t-24.5 -8t-25.5 -18t-22.5 -31q-6 -11 -14.5 -36t-8.5 -64t8.5 -64t14.5 -36q10 -20 22.5 -31.5t25.5 -17.5t24.5 -8t19.5 -2t19.5 2t24 8t25 17.5t23.5 31.5q6 11 14.5 36t8.5 64z" />
    <glyph glyph-name="uni0564" unicode="&#x564;" horiz-adv-x="692" 
d="M65 0v518h131v-81h3q8 12 21.5 27.5t34.5 29t49.5 23t66.5 9.5q24 0 57.5 -7.5t66.5 -33.5q32 -28 42 -60t10 -62v-265h135v-98h-135v-214h-136v527q0 17 -4 34t-12 30t-25 25.5t-47 12.5q-29 0 -53 -13t-41 -36q-12 -17 -20 -41t-8 -46v-279h-136z" />
    <glyph glyph-name="uni0565" unicode="&#x565;" horiz-adv-x="612" 
d="M547 262v-262h-131v81h-3q-8 -12 -21.5 -27.5t-34.5 -29t-49.5 -23t-66.5 -9.5q-31 0 -63.5 8.5t-60.5 33.5q-19 17 -29.5 35t-15.5 37t-6 38t-1 39v502h136v-167h356v-98h-356v-215q0 -17 2.5 -35.5t12.5 -33.5q8 -13 25 -23t46 -10q25 0 48 10t39.5 28.5t26.5 44.5
t10 58v18h136z" />
    <glyph glyph-name="uni0566" unicode="&#x566;" horiz-adv-x="627" 
d="M547 518v-634h126v-98h-262v295h-3q-20 -30 -43.5 -48t-46.5 -27t-44 -11.5t-36 -2.5q-29 0 -60.5 8t-60.5 34q-19 17 -29.5 35t-15.5 37t-6 38t-1 39v335h136v-313q0 -17 2.5 -35.5t12.5 -33.5q8 -13 25 -23t46 -10q33 0 57 14t41 38q16 23 21 44.5t5 44.5v274h136z" />
    <glyph glyph-name="uni0567" unicode="&#x567;" horiz-adv-x="514" 
d="M321 -47q0 17 -4 26t-9 13q-7 5 -22.5 6.5t-21.5 1.5h-199v685h136v-167h291v-98h-291v-322h129q24 0 53 -5.5t50 -31.5q16 -20 20 -44.5t4 -47.5v-57h-136v41z" />
    <glyph glyph-name="uni0568" unicode="&#x568;" horiz-adv-x="624" 
d="M65 -214v732h131v-81h3q28 42 71 65.5t100 23.5q24 0 58.5 -7t66.5 -34q32 -28 42 -60t10 -62v-363h-136v313q0 17 -4 34t-12 30t-25 25.5t-47 12.5q-29 0 -53 -13t-41 -36q-12 -17 -20 -41t-8 -46v-395h358v-98h-494z" />
    <glyph glyph-name="uni0569" unicode="&#x569;" horiz-adv-x="720" 
d="M65 -214v732h122v-96h3q17 22 38 41t41 31q35 21 69.5 26.5t67.5 5.5q38 0 77 -7.5t78 -38.5q25 -20 40.5 -42t24 -43t11.5 -40t3 -32h70v-98h-67l-1 -25q-2 -35 -9 -69t-35 -69q-32 -42 -71 -56t-87 -14q-11 0 -25 1.5t-30 5.5t-32 11.5t-31 20.5q-17 13 -35 45.5
t-18 86.5q0 18 6 50t33 62q29 32 62 40t59 8h69l-1 16q-1 16 -12 31t-22 23q-16 12 -39 17t-47 5q-49 0 -80 -17.5t-48 -34.5q-31 -31 -39.5 -64.5t-8.5 -65.5v-447h-136zM433 225q-31 0 -44.5 -20t-13.5 -50q0 -11 2.5 -24t12.5 -24q16 -18 47 -18q24 0 37 9.5t19 22
t7.5 24.5t1.5 18v62h-69z" />
    <glyph glyph-name="uni056A" unicode="&#x56a;" horiz-adv-x="661" 
d="M543 420v-186q0 -21 -1 -42t-6 -42t-15.5 -42t-29.5 -42q-13 -14 -31 -27t-42 -23.5t-55 -17t-70 -6.5q-55 0 -100.5 15t-83.5 54q-26 26 -40.5 55.5t-22 58t-9.5 54.5t-2 45q0 20 2.5 43.5t10 48.5t20.5 49t35 45q21 21 43.5 32.5t46 17.5t48.5 7t52 1h114v167h136v-167
h108v-98h-108zM293 420q-18 0 -39.5 -5t-39.5 -21t-30 -46t-12 -79q0 -27 4.5 -56.5t18 -54t37 -40.5t62.5 -16q34 0 55.5 12t34.5 30t18 39.5t5 40.5v196h-114z" />
    <glyph glyph-name="uni056B" unicode="&#x56b;" horiz-adv-x="612" 
d="M65 -214v899h136v-166l-4 -82h2q28 42 71 65.5t100 23.5q24 0 58.5 -7t66.5 -34q32 -28 42 -60t10 -62v-363h-136v313q0 17 -4 34t-12 30t-25 25.5t-47 12.5q-29 0 -53 -13t-41 -36q-12 -17 -20 -41t-8 -46v-493h-136z" />
    <glyph glyph-name="uni056C" unicode="&#x56c;" horiz-adv-x="297" 
d="M65 -214v732h136v-634h176v-98h-312z" />
    <glyph glyph-name="uni056D" unicode="&#x56d;" horiz-adv-x="843" 
d="M65 -214v899h136v-167h251v-250q0 -38 0.5 -68.5t9.5 -50.5q3 -7 8.5 -15t14.5 -15t21.5 -11.5t30.5 -4.5q35 0 55 14.5t28 27.5q17 26 19.5 56t2.5 54v263h136v-518h-122v83h-3q-19 -31 -42 -49t-45.5 -27.5t-43.5 -12t-36 -2.5q-32 0 -60.5 8t-52.5 31
q-22 21 -39.5 58.5t-17.5 92.5v238h-115v-634h-136z" />
    <glyph glyph-name="uni056E" unicode="&#x56e;" horiz-adv-x="582" 
d="M524 418q-13 2 -27 3t-29 1q41 -48 54 -95t13 -85q0 -43 -14 -88t-41 -79q-22 -28 -47.5 -44.5t-51 -25t-49 -11t-41.5 -2.5q-55 0 -104 18t-89 64q-38 43 -50.5 90.5t-12.5 93.5q0 54 15.5 97.5t49.5 78.5q20 21 54 43t86 32q-23 21 -45.5 40t-44.5 36l50 100h121
l-35 -74q27 -23 51.5 -45t47.5 -44q64 0 139 -6v-98zM316 418q-32 -1 -54 -9.5t-36 -21.5t-22.5 -28t-13.5 -28q-5 -15 -8 -29.5t-4.5 -26.5t-2 -20t-0.5 -11q0 -26 6.5 -58t23.5 -53q18 -23 41 -30.5t43 -7.5q19 0 42.5 7t40.5 33q14 21 17.5 46.5t3.5 38.5
q0 48 -17.5 100.5t-59.5 97.5z" />
    <glyph glyph-name="uni056F" unicode="&#x56f;" horiz-adv-x="612" 
d="M547 518v-732h-136v214l5 81h-3q-8 -12 -21.5 -27.5t-34.5 -29t-49.5 -23t-66.5 -9.5q-31 0 -63.5 8.5t-60.5 33.5q-19 17 -29.5 35t-15.5 37t-6 38t-1 39v502h136v-480q0 -17 2.5 -35.5t12.5 -33.5q8 -12 25 -22.5t48 -10.5q32 0 55.5 13.5t40.5 38.5q16 23 21 44.5
t5 44.5v274h136z" />
    <glyph glyph-name="uni0570" unicode="&#x570;" horiz-adv-x="612" 
d="M65 685h136v-168l-5 -80h3q64 89 179 89q27 0 58.5 -8.5t60.5 -35.5q32 -30 41 -64.5t9 -74.5v-343h-136v298q0 20 -2 42t-12 39q-6 11 -23 23.5t-51 12.5q-23 0 -48 -11.5t-45 -39.5q-19 -26 -24 -51.5t-5 -54.5v-258h-136v685z" />
    <glyph glyph-name="uni0571" unicode="&#x571;" horiz-adv-x="625" 
d="M444 44q-46 -20 -106.5 -36t-123.5 -16q-13 0 -29.5 1t-33.5 5t-34.5 11t-32.5 19q-24 19 -34 44t-10 56q0 35 11.5 63t31.5 54l200 271q4 5 5 9t1 6q0 5 -3 6t-5 2l-66 15q-17 3 -17 23q0 10 5 18l47 90h135l-38 -62q-2 -4 -2 -7q0 -8 11 -11l63 -12q23 -5 23 -24
q0 -9 -6 -18l-39 -59l203 -492h-137zM202 216q-6 -8 -13 -22.5t-7 -34.5t8 -31.5t18 -16.5q2 -2 15 -6.5t39 -4.5q34 0 76 10t73 22l-96 241z" />
    <glyph glyph-name="uni0572" unicode="&#x572;" horiz-adv-x="627" 
d="M65 0v518h131v-81h3q28 42 71 65.5t100 23.5q24 0 58.5 -7t66.5 -34q32 -28 42 -60t10 -62v-479h125v-98h-261v527q0 17 -4 34t-12 30t-25 25.5t-47 12.5q-29 0 -53 -13t-41 -36q-12 -17 -20 -41t-8 -46v-279h-136z" />
    <glyph glyph-name="uni0573" unicode="&#x573;" horiz-adv-x="618" 
d="M434 49q-58 -30 -120 -43.5t-108 -13.5q-27 0 -59.5 8t-60.5 35q-23 21 -32 47.5t-9 55.5q0 36 9.5 61.5t24.5 48.5l115 179q-45 5 -83 -1v107q42 4 79 3.5t72 -5.5l62 94q19 28 47 46.5t80 18.5q26 0 47.5 -3t29.5 -5v-104q-14 5 -30 7.5t-29 2.5q-23 0 -36 -9.5
t-18 -17.5l-43 -60q30 -16 50.5 -42.5t36.5 -74.5l129 -384h-138zM341 332q-11 32 -22.5 44.5t-18.5 17.5l-100 -168q-5 -10 -11 -23t-6 -30q0 -14 6 -28.5t18 -25.5q13 -11 27 -15t31 -4q29 0 68 10.5t74 27.5z" />
    <glyph glyph-name="uni0574" unicode="&#x574;" horiz-adv-x="664" 
d="M201 205q0 -17 2.5 -35.5t12.5 -33.5q8 -13 24 -23t44 -10q30 0 55.5 12t45.5 40q16 23 21 44.5t5 44.5v315q0 24 2.5 51t23.5 50q20 21 44 25.5t42 4.5q3 0 43 -1.5t106 -14.5v-100q-20 6 -41.5 9.5t-38.5 3.5q-11 0 -22 -2.5t-18 -15.5q-5 -10 -5 -23v-40v-506h-131v81
h-3q-20 -31 -44 -48.5t-48 -26.5t-45.5 -11.5t-36.5 -2.5q-29 0 -61 8t-61 34q-19 17 -29.5 35t-15.5 37t-6 38t-1 39v335h136v-313z" />
    <glyph glyph-name="uni0575" unicode="&#x575;" horiz-adv-x="301" 
d="M-30 -103q20 -5 42.5 -9t39.5 -4q11 0 19 2t13 9t7.5 21.5t2.5 40.5v561h136v-568q0 -30 -1 -64.5t-20 -62.5q-10 -15 -23 -23.5t-26.5 -12.5t-27.5 -5t-26 -1q-22 0 -56.5 2.5t-79.5 13.5v100z" />
    <glyph glyph-name="uni0576" unicode="&#x576;" horiz-adv-x="622" 
d="M557 518v-518h-131v81h-3q-8 -12 -21.5 -27.5t-34.5 -29t-49.5 -23t-66.5 -9.5q-31 0 -63.5 8.5t-60.5 33.5q-19 17 -29.5 35t-15.5 37t-6 38t-1 39v404h-135v98h271v-480q0 -17 2.5 -35.5t12.5 -33.5q8 -13 24 -23t44 -10q35 0 60.5 14t40.5 36q18 26 22 51.5t4 39.5
v274h136z" />
    <glyph glyph-name="uni0577" unicode="&#x577;" horiz-adv-x="471" 
d="M142 -214q-51 0 -83 28.5t-32 79.5q0 37 13 63t30 51l181 253q23 32 30.5 51t7.5 36q0 38 -22.5 54.5t-64.5 16.5q-31 0 -69 -8t-66 -19v106q33 11 75 19.5t80 8.5q57 0 95.5 -16t62.5 -40.5t34 -54t10 -57.5q0 -23 -6 -43.5t-17 -41t-26.5 -42.5t-34.5 -48l-153 -209
q-5 -7 -12 -21t-7 -28q0 -19 13.5 -30t36.5 -11h210v-98h-286z" />
    <glyph glyph-name="uni0578" unicode="&#x578;" horiz-adv-x="612" 
d="M65 0v518h131v-81h3q19 28 41 45.5t44.5 27.5t43 13t35.5 3q40 0 74 -11t58.5 -31.5t38 -51t13.5 -69.5v-363h-136v313q0 19 -5 37t-15.5 32.5t-27 23.5t-40.5 9q-32 0 -55 -13.5t-38 -33.5t-22 -44t-7 -45v-279h-136z" />
    <glyph glyph-name="uni0579" unicode="&#x579;" horiz-adv-x="412" 
d="M100 -214q-39 0 -67 25.5t-28 67.5q0 27 8 43l10 20l166 237q11 13 11 31q0 13 -10 23l-99 93q-6 6 -11 16.5t-5 21.5q0 8 2.5 18.5t6.5 17.5l68 118h146l-67 -107q-4 -7 -8.5 -17.5t-4.5 -16.5q0 -12 6 -19t11 -12l88 -85q10 -10 15 -23t5 -25q0 -22 -10.5 -37
t-18.5 -28l-148 -202q-5 -8 -9 -15.5t-4 -17.5q0 -11 4.5 -16.5t11 -8.5t14 -3.5t13.5 -0.5h211v-98h-307z" />
    <glyph glyph-name="uni057A" unicode="&#x57a;" horiz-adv-x="902" 
d="M837 518v-732h-136v205l4 97h-2q-9 -22 -24.5 -40.5t-39.5 -32.5q-23 -14 -44.5 -18.5t-47.5 -4.5q-23 0 -46.5 4t-46.5 21q-14 10 -28 27t-22 45h-3q-11 -21 -28 -39t-42 -33q-26 -15 -48 -20t-50 -5q-34 0 -65 8.5t-58 35.5q-16 16 -25 33.5t-13.5 35t-5.5 35t-1 33.5
v345h136v-291q0 -20 1 -46t14 -46q8 -12 22.5 -22t39.5 -10q26 0 46.5 12t33.5 30q17 23 21 48t4 39v286h136v-291q0 -32 2 -49t7 -29q5 -14 21 -30t49 -16q46 0 76 38q10 12 18.5 34t8.5 57v286h136z" />
    <glyph glyph-name="uni057B" unicode="&#x57b;" horiz-adv-x="547" 
d="M145 -214q-18 0 -36 3.5t-35 21.5q-21 22 -21 53q0 37 23 60l71 76q20 21 28 34t8 35q0 27 -13.5 42.5t-49.5 35.5q-12 7 -26 17.5t-26 25.5q-14 18 -23.5 43t-9.5 57q0 38 15 82t57 86q38 37 81 52.5t94 15.5q36 0 64 -7t50.5 -18t38.5 -25t28 -27q31 -37 40 -74.5
t9 -66.5q0 -37 -9.5 -71.5t-33.5 -68.5q-27 -38 -69.5 -74t-84.5 -71q-38 -32 -59.5 -52t-32.5 -32.5t-14 -19t-3 -10.5q0 -5 4 -15t24 -10h241v-98h-330zM260 109q24 23 47 50t37 53q14 25 20 47t6 49q0 21 -5.5 42t-22.5 40q-16 17 -32 22.5t-36 5.5q-23 0 -42 -8t-33 -28
q-14 -18 -18.5 -40t-4.5 -42q0 -31 14 -54q8 -13 18 -23t21 -22q9 -10 18.5 -30.5t8.5 -60.5z" />
    <glyph glyph-name="uni057C" unicode="&#x57c;" horiz-adv-x="619" 
d="M65 0v518h131v-81h3q20 31 44.5 48.5t48.5 26.5t46 11.5t37 2.5q29 0 62.5 -8.5t63.5 -37.5q17 -17 27.5 -35.5t16 -37t7 -36t1.5 -32.5q0 -16 -2.5 -40.5t-12.5 -56t-29 -68t-52 -76.5h127v-98h-256v94q47 45 68.5 99.5t21.5 101.5t-23 82q-14 20 -31 29t-41 9
q-29 0 -53 -13t-41 -36q-12 -17 -20 -41t-8 -46v-279h-136z" />
    <glyph glyph-name="uni057D" unicode="&#x57d;" horiz-adv-x="612" 
d="M547 518v-518h-131v81h-3q-19 -29 -41 -46t-44.5 -27t-43 -13t-35.5 -3q-23 0 -55 5t-60.5 24t-48.5 57t-20 105v335h136v-313q0 -13 2 -30.5t10.5 -33.5t26 -27t49.5 -11q30 0 52.5 12t38 32t23.5 45.5t8 51.5v274h136z" />
    <glyph glyph-name="uni057E" unicode="&#x57e;" horiz-adv-x="628" 
d="M547 685v-810h126v-89h-262v214l5 81h-3q-7 -10 -20 -25t-33.5 -29.5t-50 -24.5t-69.5 -10q-36 0 -67 10t-53 28q-21 18 -32 40t-16.5 44.5t-6 42.5t-0.5 35v326h136v-313q0 -19 2.5 -35t12.5 -33q13 -20 30 -27t38 -7q30 0 55.5 11.5t45.5 39.5q16 23 21 46t5 44v441
h136z" />
    <glyph glyph-name="uni057F" unicode="&#x57f;" horiz-adv-x="902" 
d="M383 518h129v-88h3q10 22 25.5 40t40.5 33q23 14 44 18.5t47 4.5q23 0 55 -5.5t59 -28.5q19 -17 29.5 -37.5t15 -42t5.5 -42.5t1 -39v-331h-136v313q0 16 -3.5 40.5t-17.5 40.5q-8 9 -22.5 15t-33.5 6q-29 0 -48 -12t-30 -26q-19 -24 -23 -50.5t-4 -40.5v-286h-129v88h-3
q-10 -22 -25.5 -40t-40.5 -33q-23 -14 -44 -18.5t-47 -4.5q-23 0 -55 5.5t-59 28.5q-19 16 -29.5 37t-15 42.5t-5.5 43t-1 38.5v331h136v-313q0 -16 3.5 -40.5t17.5 -40.5q8 -9 22 -15t32 -6q30 0 49.5 12t30.5 26q19 24 23 50.5t4 40.5v286z" />
    <glyph glyph-name="uni0580" unicode="&#x580;" horiz-adv-x="612" 
d="M65 -214v732h131v-81h3q28 42 71 65.5t100 23.5q24 0 58.5 -7t66.5 -34q32 -28 42 -60t10 -62v-363h-136v313q0 17 -4 34t-12 30t-25 25.5t-47 12.5q-19 0 -45 -9t-49 -40q-17 -22 -22.5 -43.5t-5.5 -43.5v-493h-136z" />
    <glyph glyph-name="uni0581" unicode="&#x581;" horiz-adv-x="612" 
d="M101 -72q34 -17 76 -30t84 -13q73 0 111.5 37t38.5 102v68h-3q-4 -9 -14 -25t-28.5 -31.5t-46.5 -26.5t-69 -11q-59 0 -100 23.5t-66.5 61t-37 83.5t-11.5 91q0 61 16 110.5t44 85t67 54.5t86 19q8 0 29 -1t46 -10t50.5 -28.5t42.5 -55.5h3v87h128v-477q0 -15 -1.5 -40.5
t-9 -54.5t-23.5 -59t-45.5 -54t-74.5 -39.5t-110 -15.5q-37 0 -86.5 6.5t-106.5 29.5zM287 411q-29 0 -49.5 -12.5t-34 -33.5t-20 -48.5t-6.5 -56.5q0 -49 12.5 -79t30.5 -46.5t39 -22.5t38 -6q22 0 42.5 10t36.5 30.5t25.5 51t9.5 72.5q0 66 -33.5 103.5t-90.5 37.5z" />
    <glyph glyph-name="uni0582" unicode="&#x582;" horiz-adv-x="361" 
d="M65 0v518h136v-420h150v-98h-286z" />
    <glyph glyph-name="uni0583" unicode="&#x583;" horiz-adv-x="902" 
d="M383 685h136v-167l-6 -87h3q16 35 39 54t46.5 28t43 11t27.5 2q23 0 55 -5.5t59 -28.5q19 -17 29.5 -37.5t15 -42t5.5 -42.5t1 -39v-331h-136v313q0 16 -3.5 40.5t-17.5 40.5q-8 9 -22.5 15t-33.5 6q-23 0 -44 -10t-35 -27q-13 -17 -19.5 -42t-6.5 -50v-500h-136v214
l6 87h-3q-17 -35 -40.5 -54t-46.5 -28t-42 -11t-27 -2q-23 0 -55 5.5t-59 28.5q-19 16 -29.5 37t-15 42.5t-5.5 43t-1 38.5v331h136v-313q0 -16 3.5 -40.5t17.5 -40.5q8 -9 22.5 -15t32.5 -6q46 0 76 34.5t30 94.5v453z" />
    <glyph glyph-name="uni0584" unicode="&#x584;" horiz-adv-x="655" 
d="M101 -214v93h-101v98h101v541h121v-69h3q6 9 16.5 22.5t28.5 25.5t44.5 20.5t64.5 8.5q66 0 107.5 -24.5t66.5 -66.5q23 -38 29.5 -79t6.5 -71q0 -67 -16.5 -113t-40.5 -74q-35 -41 -78 -55t-83 -14q-29 0 -50.5 4.5t-37 12t-26 16.5t-17.5 18h-3v-103h363v-98h-363v-93
h-136zM344 418q-29 0 -48.5 -11t-31.5 -26q-17 -23 -21.5 -52t-4.5 -46q0 -26 5 -54t15 -45q8 -15 27.5 -30t56.5 -15q26 0 44 9t32 28q19 26 24 52.5t5 52.5q0 23 -4 48t-18 46q-27 43 -81 43z" />
    <glyph glyph-name="uni0585" unicode="&#x585;" horiz-adv-x="604" 
d="M35 259q0 65 20 115t55.5 83.5t84.5 51t107 17.5t107 -17.5t84.5 -51t55.5 -83.5t20 -115t-20 -115t-55.5 -83.5t-84.5 -51t-107 -17.5t-107 17.5t-84.5 51t-55.5 83.5t-20 115zM177 259q0 -45 11 -77t29 -52.5t40 -30t45 -9.5q22 0 44.5 9.5t40.5 30t29 52.5t11 77
t-11 77t-29 52.5t-40.5 30t-44.5 9.5q-23 0 -45 -9.5t-40 -30t-29 -52.5t-11 -77z" />
    <glyph glyph-name="uni0586" unicode="&#x586;" horiz-adv-x="773" 
d="M311 -10q-42 0 -90.5 11t-87.5 35q-29 18 -47.5 38t-29.5 41t-15.5 41t-5.5 43h139q2 -34 17 -52t36 -28.5t44 -14.5t40 -4v278q-41 7 -69.5 14.5t-52.5 18.5t-35 20t-17 15q-21 20 -30 48.5t-9 55.5q5 61 48 98t115 37h186v-219q48 -10 84.5 -20t63 -21t43 -21t24.5 -17
q37 -32 51.5 -70t14.5 -89q0 -19 -3 -41.5t-12.5 -46.5t-28 -48t-49.5 -46q-42 -29 -90.5 -43t-97.5 -13v-204h-136v204zM447 100q24 1 50 8.5t46 21.5q16 11 29.5 34t13.5 60q0 32 -11.5 55t-31 38t-44.5 24t-52 14v-255zM282 591q-9 -1 -16 -3t-15 -6t-13.5 -11.5
t-7.5 -19.5q0 -24 4.5 -32.5t14 -16.5t26.5 -14t45 -9v112h-38z" />
    <glyph glyph-name="uni0587" unicode="&#x587;" horiz-adv-x="692" 
d="M547 518v-420h135v-98h-266v81h-3q-20 -30 -44 -48t-48 -27t-45.5 -11.5t-36.5 -2.5q-48 0 -77 13.5t-45 27.5q-19 16 -29.5 34.5t-15.5 38t-6 39t-1 38.5v502h136v-480q0 -17 2.5 -35.5t12.5 -33.5q8 -12 24.5 -22.5t45.5 -10.5q34 0 58 14t41 38q16 23 21 44.5t5 44.5
v274h136z" />
    <glyph glyph-name="uni0589" unicode="&#x589;" horiz-adv-x="260" 
d="M200 376h-140v142h140v-142zM200 0h-140v142h140v-142z" />
    <glyph glyph-name="uni058A" unicode="&#x58a;" horiz-adv-x="502" 
d="M135 87q16 -24 33.5 -37t34.5 -20t31.5 -8.5t24.5 -1.5q38 0 76.5 12t68.5 29l18 -59q-17 -10 -38.5 -20t-46.5 -18.5t-51 -14t-52 -5.5q-30 0 -54.5 7.5t-43.5 19t-33 25t-23 26.5z" />
    </font>
</defs>
</svg>
