<?xml version="1.0" standalone="no"?>
<!DOCTYPE svg PUBLIC "-//W3C//DTD SVG 1.1//EN" "http://www.w3.org/Graphics/SVG/1.1/DTD/svg11.dtd" >
<svg xmlns="http://www.w3.org/2000/svg" xmlns:xlink="http://www.w3.org/1999/xlink" version="1.1">
<metadata>
Created by FontForge 20170731 at Thu Mar 22 20:32:42 2018
 By Aleksey,,,
Copyright (c) 1992 ParaType Inc., ParaType Ltd. All rights reserved.
</metadata>
<defs>
<font id="VTBGroup-Bold" horiz-adv-x="650" >
  <font-face 
    font-family="VTB Group Bold"
    font-weight="700"
    font-stretch="normal"
    units-per-em="1000"
    panose-1="2 11 8 3 5 5 4 2 2 4"
    ascent="773"
    descent="-227"
    x-height="521"
    cap-height="700"
    bbox="-509 -252 1335 1000"
    underline-thickness="50"
    underline-position="-150"
    unicode-range="U+000D-FEFF"
  />
<missing-glyph horiz-adv-x="500" 
d="M442 8v496h-384v-496h384zM50 512h400v-512h-400v512z" />
    <glyph glyph-name="IJ" unicode="IJ" horiz-adv-x="760" 
d="M65 700h186v-700h-186v700zM330 161q26 -12 49.5 -14.5t34.5 -2.5t26.5 3.5t30.5 17.5q20 19 29 53.5t9 79.5v402h186v-458q0 -22 -2 -47t-8.5 -50.5t-18.5 -49.5t-32 -44q-26 -26 -69 -44.5t-103 -18.5q-32 0 -58.5 4t-56.5 11l-17 4v154z" />
    <glyph glyph-name="ij" unicode="ij" horiz-adv-x="647" 
d="M257 606h-180v132h180v-132zM77 521h180v-521h-180v521zM401 -222q-15 0 -37 1.5t-55 7.5v117q2 -1 13.5 -3.5t28.5 -2.5q37 0 50 30q6 14 8 34.5t2 37.5v521h180v-526q0 -31 -5 -70.5t-24 -72.5q-26 -45 -67.5 -59.5t-93.5 -14.5zM591 606h-180v132h180v-132z" />
    <glyph glyph-name="afii10017.var.accented" unicode="&#x410;`" horiz-adv-x="710" 
d="M240 700h230l250 -700h-200l-47 148h-247l-46 -148h-190zM431 283l-80 267h-2l-81 -267h163zM360 880h196l-134 -140h-134z" />
    <glyph glyph-name="afii10022.var.accented" unicode="&#x415;`" horiz-adv-x="616" 
d="M65 700h492v-132h-306v-145h289v-132h-289v-159h317v-132h-503v700zM304 880h196l-134 -140h-134z" />
    <glyph glyph-name="afii10026.var.accented" unicode="&#x418;`" horiz-adv-x="755" 
d="M65 700h186v-300l-6 -172h6l216 472h223v-700h-186v300l6 172h-6l-216 -472h-223v700zM382 880h196l-134 -140h-134z" />
    <glyph glyph-name="afii10032.var.accented" unicode="&#x41e;`" horiz-adv-x="778" 
d="M389 574q-42 0 -70 -17t-45 -40q-14 -19 -22.5 -41t-13 -44.5t-6 -43.5t-1.5 -38t1.5 -38t6 -43.5t13 -44.5t22.5 -41q17 -23 45 -40t70 -17t70 17t45 40q14 19 22.5 41t13 44.5t6 43.5t1.5 38t-1.5 38t-6 43.5t-13 44.5t-22.5 41q-17 23 -45 40t-70 17zM389 712
q22 0 53.5 -2.5t66.5 -12t70.5 -28t67.5 -50.5q31 -31 49 -67.5t27.5 -72.5t12.5 -69.5t3 -59.5t-3 -59.5t-12.5 -69.5t-27.5 -72.5t-49 -67.5q-32 -32 -67.5 -50.5t-70.5 -28t-66.5 -12t-53.5 -2.5t-53.5 2.5t-66.5 12t-71 28t-67 50.5q-31 31 -49 67.5t-27.5 72.5
t-12.5 69.5t-3 59.5t3 59.5t12.5 69.5t27.5 72.5t49 67.5q31 32 67 50.5t71 28t66.5 12t53.5 2.5zM394 880h196l-134 -140h-134z" />
    <glyph glyph-name="afii10037.var.accented" unicode="&#x423;`" horiz-adv-x="692" 
d="M226 -12q-23 0 -51.5 4t-64.5 18v130q20 -9 41.5 -14t38.5 -5q22 0 42.5 10t31.5 33l12 27l-278 509h214l154 -340l142 340h194l-274 -580q-30 -63 -75.5 -97.5t-126.5 -34.5zM365 880h196l-134 -140h-134z" />
    <glyph glyph-name="afii10045.var.accented" unicode="&#x42b;`" horiz-adv-x="960" 
d="M65 700h186v-240h86q76 0 130 -15t88 -44t49.5 -72t15.5 -99q0 -105 -69 -167.5t-214 -62.5h-272v700zM434 230q0 48 -25 73t-72 25h-86v-196h86q47 0 72 25t25 73zM709 700h186v-700h-186v700zM485 880h196l-134 -140h-134z" />
    <glyph glyph-name="afii10047.var.accented" unicode="&#x42d;`" horiz-adv-x="680" 
d="M234 -12q-53 0 -97 6t-99 23v142q45 -18 91.5 -28t84.5 -10q46 0 85.5 10t69.5 31.5t48.5 55t24.5 80.5h-266v128h263q-12 76 -69 114.5t-142 38.5q-51 0 -97 -14.5t-94 -44.5v153q40 16 90.5 27.5t116.5 11.5q96 0 169.5 -25.5t123.5 -72.5t76 -114t26 -151
q0 -83 -26 -149.5t-77 -113.5t-127 -72.5t-175 -25.5zM277 880h196l-134 -140h-134z" />
    <glyph glyph-name="afii10048.var.accented" unicode="&#x42e;`" horiz-adv-x="1058" 
d="M674 574q-35 0 -61 -13t-45 -36q-15 -19 -24 -41.5t-14.5 -45.5t-7 -46t-1.5 -42q0 -18 1 -39t5.5 -43t13 -44.5t22.5 -41.5q23 -32 52 -44t59 -12q11 0 25 2t28.5 8t29.5 17t28 28q14 19 22.5 41.5t13 45t5.5 44t1 38.5q0 16 -1 37t-5.5 43.5t-13 45t-22.5 42.5
q-40 56 -111 56zM344 432q6 48 26.5 99t55.5 88q30 32 65 50.5t69 28t64 12t50 2.5q22 0 52.5 -2.5t65 -12t70 -28t66.5 -50.5q30 -31 48 -67.5t27.5 -72.5t12.5 -69.5t3 -59.5t-3 -59.5t-12.5 -69.5t-27.5 -72.5t-48 -67.5q-31 -32 -66.5 -50.5t-70 -28t-65 -12t-52.5 -2.5
q-20 0 -50 2.5t-64 12t-69 28t-65 50.5q-20 21 -35 47t-25.5 54.5t-17 58.5t-8.5 59h-89v-300h-186v700h186v-268h93zM466 880h196l-134 -140h-134z" />
    <glyph glyph-name="afii10049.var.accented" unicode="&#x42f;`" horiz-adv-x="667" 
d="M177 272q-59 26 -85.5 76.5t-26.5 123.5q0 52 17 94t51 72t85 46t120 16h264v-700h-186v244h-62l-121 -244h-208zM251 472q0 -46 24 -71t63 -25h78v192h-78q-39 0 -63 -25t-24 -71zM358 880h196l-134 -140h-134z" />
    <glyph glyph-name="afii10023.var.accented" unicode="&#x401;`" horiz-adv-x="616" 
d="M65 700h492v-132h-306v-145h289v-132h-289v-159h317v-132h-503v700zM222 872v-132h-132v132h132zM532 872v-132h-132v132h132zM307 1000h187l-129 -144h-126z" />
    <glyph glyph-name="afii10065.var.accented" unicode="&#x430;`" horiz-adv-x="607" 
d="M226 -12q-39 0 -74.5 10t-62 30t-42.5 50.5t-16 71.5q0 55 22.5 90t60 54.5t86 26.5t100.5 7h84q1 24 -9.5 40t-28 26t-39.5 14.5t-44 4.5q-38 0 -79 -8.5t-88 -32.5v124q41 17 91.5 27t113.5 10q51 0 97 -12t80 -38t54 -67t20 -99v-317h-159v82h-2q-26 -45 -68.5 -69.5
t-96.5 -24.5zM272 108q25 0 45 10t34 27t22 40t11 49h-70q-57 0 -86 -15t-29 -54q0 -29 23 -43t50 -14zM317 750h186l-130 -160h-126z" />
    <glyph glyph-name="afii10070.var.accented" unicode="&#x435;`" horiz-adv-x="611" 
d="M411 310q1 18 -2.5 32t-8.5 24.5t-9.5 16t-5.5 7.5q-14 17 -33 23t-39 6t-38.5 -6.5t-34.5 -23.5q-12 -14 -20.5 -34t-8.5 -45h200zM213 208q4 -32 18.5 -49.5t23.5 -23.5q13 -9 28 -14.5t30 -8t29.5 -3.5t26.5 -1q22 0 62 6.5t94 33.5v-127q-27 -11 -72.5 -22
t-114.5 -11q-75 0 -130 20t-93 55q-15 13 -30 32t-27 43.5t-19.5 55.5t-7.5 69q0 18 2.5 42.5t11.5 52.5t26 56.5t45 52.5q29 25 76.5 45.5t118.5 20.5q16 0 39.5 -2t50.5 -10t54 -23.5t51 -42.5q30 -35 48.5 -89t18.5 -125v-33h-360zM275 750h186l-130 -160h-126z" />
    <glyph glyph-name="afii10074.var.accented" unicode="&#x438;`" horiz-adv-x="696" 
d="M236 521v-157l-5 -164h3l203 321h203v-521h-180v155l5 166h-3l-203 -321h-203v521h180zM317 750h186l-130 -160h-126z" />
    <glyph glyph-name="afii10080.var.accented" unicode="&#x43e;`" horiz-adv-x="668" 
d="M334 407q-50 0 -81 -34q-23 -26 -29.5 -56.5t-6.5 -56.5t6.5 -56.5t29.5 -56.5q31 -34 81 -34t81 34q23 26 29.5 56.5t6.5 56.5t-6.5 56.5t-29.5 56.5q-31 34 -81 34zM334 533q63 0 116 -17t91 -47q16 -12 33 -30.5t31 -44t23 -59t9 -75.5t-9 -75.5t-23 -59t-31 -44
t-33 -30.5q-26 -21 -54 -33t-55 -19t-52.5 -9t-45.5 -2t-45.5 2t-52.5 9t-55 19t-54 33q-16 12 -33 30.5t-31 44t-23 59t-9 75.5t9 75.5t23 59t31 44t33 30.5q38 30 91 47t116 17zM303 750h186l-130 -160h-126z" />
    <glyph glyph-name="afii10085.var.accented" unicode="&#x443;`" horiz-adv-x="605" 
d="M144 -222q-17 0 -40 2t-59 10v140q18 -7 36 -10.5t41 -3.5q25 0 41 6.5t25 14.5q12 10 19.5 24.5t11.5 26.5l-211 533h194l112 -340h2l107 340h180l-200 -507l-17 -42.5t-18 -42.5q-10 -22 -29.5 -55t-54.5 -59q-33 -24 -66 -30.5t-74 -6.5zM319 750h186l-130 -160h-126z
" />
    <glyph glyph-name="afii10093.var.accented" unicode="&#x44b;`" horiz-adv-x="887" 
d="M651 521h180v-521h-180v521zM56 521h180v-151h94q63 0 110 -14t78 -39t46 -59t15 -73t-15 -73t-46 -59t-78 -39t-110 -14h-274v521zM393 185q0 30 -19.5 47.5t-63.5 17.5h-74v-130h74q44 0 63.5 17.5t19.5 47.5zM450 750h186l-130 -160h-126z" />
    <glyph glyph-name="afii10095.var.accented" unicode="&#x44d;`" horiz-adv-x="514" 
d="M180 -12q-67 0 -106.5 11t-53.5 16v116q28 -12 63.5 -20.5t70.5 -8.5q63 0 101 27.5t42 89.5h-193v104h193q-10 50 -43.5 73t-93.5 23q-40 0 -71 -7.5t-64 -21.5v116q14 5 51 16t102 11q64 0 119.5 -15.5t97 -48.5t65 -83.5t23.5 -120.5q0 -66 -21 -118t-60 -87
t-95.5 -53.5t-126.5 -18.5zM226 750h186l-130 -160h-126z" />
    <glyph glyph-name="afii10096.var.accented" unicode="&#x44e;`" horiz-adv-x="919" 
d="M589 407q-49 0 -78 -34q-13 -15 -24 -42t-11 -71t11 -71t24 -42q29 -34 78 -34t78 34q13 15 24 42t11 71t-11 71t-24 42q-29 34 -78 34zM311 336q2 10 6.5 25t13.5 33t23 37.5t36 37.5q47 40 100 52t99 12q72 0 122 -19.5t82 -44.5q15 -12 32 -31t31 -44.5t23 -58.5
t9 -75t-9 -75t-23 -58.5t-31 -44.5t-32 -31q-38 -30 -90 -46.5t-114 -16.5q-63 0 -113.5 16.5t-85.5 46.5q-23 20 -49.5 58.5t-34.5 100.5h-70v-210h-180v521h180v-185h75zM429 750h186l-130 -160h-126z" />
    <glyph glyph-name="afii10097.var.accented" unicode="&#x44f;`" horiz-adv-x="609" 
d="M126 187q-54 23 -78 62.5t-24 90.5q0 40 13.5 73t43 57t76 37.5t111.5 13.5h285v-521h-180v164h-81l-83 -164h-194zM210 340q0 -29 18 -45t60 -16h85v122h-85q-42 0 -60 -16t-18 -45zM312 750h186l-130 -160h-126z" />
    <glyph glyph-name="afii10071.var.accented" unicode="&#x451;`" horiz-adv-x="611" 
d="M411 310q1 18 -2.5 32t-8.5 24.5t-9.5 16t-5.5 7.5q-14 17 -33 23t-39 6t-38.5 -6.5t-34.5 -23.5q-12 -14 -20.5 -34t-8.5 -45h200zM213 208q4 -32 18.5 -49.5t23.5 -23.5q13 -9 28 -14.5t30 -8t29.5 -3.5t26.5 -1q22 0 62 6.5t94 33.5v-127q-27 -11 -72.5 -22
t-114.5 -11q-75 0 -130 20t-93 55q-15 13 -30 32t-27 43.5t-19.5 55.5t-7.5 69q0 18 2.5 42.5t11.5 52.5t26 56.5t45 52.5q29 25 76.5 45.5t118.5 20.5q16 0 39.5 -2t50.5 -10t54 -23.5t51 -42.5q30 -35 48.5 -89t18.5 -125v-33h-360zM388 729h124v-144h-124v144zM80 729
h124v-144h-124v144zM294 857h187l-129 -144h-126z" />
    <glyph glyph-name="fi" unicode="fi" horiz-adv-x="778" 
d="M119 395h-106v126h106v32q0 16 1 35.5t6 40t15.5 41.5t28.5 39q17 17 37.5 27.5t41.5 16t42.5 7.5t40.5 2q36 0 59 -3.5t40 -6.5v-126q-17 5 -30 7.5t-32 2.5q-11 0 -25.5 -2.5t-25.5 -14.5q-13 -14 -16 -32t-3 -34v-32h128v-126h-128v-395h-180v395zM701 606h-180v132
h180v-132zM521 521h180v-521h-180v521z" />
    <glyph glyph-name="fl" unicode="fl" horiz-adv-x="756" 
d="M119 395h-106v126h106v32q0 16 1 35.5t6 40t15.5 41.5t28.5 39q17 17 37.5 27.5t41.5 16t42.5 7.5t40.5 2q36 0 59 -3.5t40 -6.5v-126q-17 5 -30 7.5t-32 2.5q-11 0 -25.5 -2.5t-25.5 -14.5q-13 -14 -16 -32t-3 -34v-32h128v-126h-128v-395h-180v395zM520 750h180v-750
h-180v750z" />
    <glyph glyph-name=".notdef" horiz-adv-x="500" 
d="M442 8v496h-384v-496h384zM50 512h400v-512h-400v512z" />
    <glyph glyph-name=".null" horiz-adv-x="0" 
 />
    <glyph glyph-name=".null" horiz-adv-x="0" 
 />
    <glyph glyph-name="uni000D" unicode="&#xd;" horiz-adv-x="233" 
 />
    <glyph glyph-name="space" unicode=" " horiz-adv-x="233" 
 />
    <glyph glyph-name="exclam" unicode="!" horiz-adv-x="444" 
d="M138 162h168v-162h-168v162zM289 238h-134l-26 462h186z" />
    <glyph glyph-name="quotedbl" unicode="&#x22;" horiz-adv-x="611" 
d="M142 700h132v-272h-132v272zM337 700h132v-272h-132v272z" />
    <glyph glyph-name="numbersign" unicode="#" 
d="M351 175h-102l-24 -175h-130l24 175h-64v120h81l16 110h-67v120h83l25 175h130l-25 -175h102l25 175h130l-25 -175h65v-120h-81l-16 -110h67v-120h-84l-24 -175h-130zM266 295h102l16 110h-102z" />
    <glyph glyph-name="dollar" unicode="$" 
d="M271 -11q-55 2 -103.5 8.5t-96.5 20.5v160q21 -11 45.5 -19t51 -14t53 -10.5t50.5 -6.5v166q-47 9 -87 29t-68.5 48t-44.5 62.5t-16 71.5q0 86 51 139.5t165 64.5v91h110v-89q42 -2 84 -7.5t83 -17.5v-148q-31 15 -73.5 24t-93.5 11v-144q51 -11 91 -27.5t67 -41
t41.5 -59t14.5 -82.5q0 -103 -50.5 -160t-163.5 -68v-91h-110v89zM433 195q0 24 -14 41t-38 29v-132q28 8 40 24.5t12 37.5zM217 518q0 -37 54 -59v108q-32 -7 -43 -20t-11 -29z" />
    <glyph glyph-name="percent" unicode="%" horiz-adv-x="960" 
d="M235 342q-43 0 -78 13.5t-60 38t-38.5 58.5t-13.5 75t13.5 75t38.5 58.5t60 38t78 13.5t78 -13.5t60 -38t38.5 -58.5t13.5 -75t-13.5 -75t-38.5 -58.5t-60 -38t-78 -13.5zM235 442q26 0 40.5 18t14.5 67t-14.5 67t-40.5 18t-40.5 -18t-14.5 -67t14.5 -67t40.5 -18z
M725 -12q-43 0 -78 13.5t-60 38t-38.5 58.5t-13.5 75t13.5 75t38.5 58.5t60 38t78 13.5t78 -13.5t60 -38t38.5 -58.5t13.5 -75t-13.5 -75t-38.5 -58.5t-60 -38t-78 -13.5zM725 88q26 0 40.5 18t14.5 67t-14.5 67t-40.5 18t-40.5 -18t-14.5 -67t14.5 -67t40.5 -18zM658 700
h132l-488 -700h-132z" />
    <glyph glyph-name="ampersand" unicode="&#x26;" horiz-adv-x="778" 
d="M257 536q2 -32 24 -54q11 -12 21.5 -22.5t21.5 -18.5l14 8t15 9q13 9 27 21q27 22 29 57q0 32 -22 47q-23 15 -56 15q-32 0 -52 -17q-22 -16 -22 -45zM214 205q2 -46 35 -71q34 -26 77 -26q57 0 106 38q-38 42 -76.5 80.5t-78.5 74.5q-30 -14 -46 -36q-17 -23 -17 -60z
M749 378q-7 -137 -107 -240l124 -138h-199q-21 30 -42 53q-47 -38 -102 -51q-59 -14 -115 -14q-104 0 -181 52q-82 53 -83 161q0 74 37 117q35 44 100 73q-84 64 -84 154q0 47 22 79q19 31 53 51q70 37 157 37q95 1 167 -37q73 -39 75 -135q0 -34 -12 -59q-7 -13 -15.5 -24
t-19.5 -22q-22 -20 -47 -38q-14 -9 -28 -17.5t-28 -16.5q61 -54 120 -111q25 28 35 60q5 16 7.5 32.5t3.5 33.5h162z" />
    <glyph glyph-name="quotesingle" unicode="'" horiz-adv-x="333" 
d="M101 700h132v-272h-132v272z" />
    <glyph glyph-name="parenleft" unicode="(" horiz-adv-x="389" 
d="M375 758q-141 -204 -144 -449q5 -244 142 -449h-147q-156 201 -157 449q5 248 159 449h147z" />
    <glyph glyph-name="parenright" unicode=")" horiz-adv-x="389" 
d="M14 -140q140 206 144 449q-5 245 -144 449h147q156 -198 159 -449q-4 -248 -159 -449h-147z" />
    <glyph glyph-name="asterisk" unicode="*" horiz-adv-x="611" 
d="M238 476l-142 28l38 116l133 -66l-21 146h122l-20 -144l130 64l37 -117l-144 -26l102 -104l-101 -71l-67 128l-72 -128l-98 71z" />
    <glyph glyph-name="plus" unicode="+" 
d="M50 425h200v200h150v-200h200v-150h-200v-200h-150v200h-200v150z" />
    <glyph glyph-name="comma" unicode="," horiz-adv-x="373" 
d="M69 162h168l-98 -271h-137z" />
    <glyph glyph-name="hyphen" unicode="-" horiz-adv-x="480" 
d="M400 354v-140h-320v140h320z" />
    <glyph glyph-name="period" unicode="." horiz-adv-x="306" 
d="M69 162h168v-162h-168v162z" />
    <glyph glyph-name="slash" unicode="/" horiz-adv-x="280" 
d="M168 700h142l-198 -700h-142z" />
    <glyph glyph-name="zero" unicode="0" 
d="M325 -12q-66 0 -116 19t-84.5 62t-52 112t-17.5 169t17.5 169t52 112t84.5 62t116 19t116 -19t84.5 -62t52 -112t17.5 -169t-17.5 -169t-52 -112t-84.5 -62t-116 -19zM325 118q22 0 40.5 9t32 34.5t20.5 71t7 117.5t-7 117t-20.5 70.5t-32 35t-40.5 9.5q-23 0 -41 -9.5
t-31.5 -35t-20.5 -70.5t-7 -117t7 -117.5t20.5 -71t31.5 -34.5t41 -9z" />
    <glyph glyph-name="one" unicode="1" 
d="M294 514l-141 -119l-83 127l246 178h164v-700h-186v514z" />
    <glyph glyph-name="two" unicode="2" 
d="M70 133q147 118 228 206t81 151q0 37 -25.5 60.5t-73.5 23.5q-52 0 -102.5 -14t-90.5 -37v148q49 18 98 29.5t105 11.5q71 0 123 -15t85.5 -43t50 -67t16.5 -87q0 -47 -18 -90t-52.5 -87t-84 -90.5t-111.5 -100.5h281v-132h-510v133z" />
    <glyph glyph-name="three" unicode="3" 
d="M281 -12q-62 0 -116 6t-95 18v151q18 -11 43 -18t52.5 -11.5t55 -6t50.5 -1.5q63 0 93 25.5t30 59.5q0 42 -26.5 63.5t-96.5 21.5h-82v120h82q62 0 87 21t25 58t-25 58t-87 21q-57 0 -102 -9t-77 -23v141q46 14 89.5 21.5t99.5 7.5q78 0 132.5 -14.5t89 -40t50.5 -60.5
t16 -77q0 -62 -32.5 -99.5t-95.5 -53.5v-2q69 -14 104 -56.5t35 -108.5q0 -42 -18.5 -80.5t-56 -67.5t-93.5 -46.5t-131 -17.5z" />
    <glyph glyph-name="four" unicode="4" 
d="M342 135h-312v150l270 415h212v-435h98v-130h-98v-135h-170v135zM342 265v257h-2l-167 -257h169z" />
    <glyph glyph-name="five" unicode="5" 
d="M275 -12q-51 1 -99 7t-91 18v151q82 -38 170 -38q75 0 107.5 28t32.5 76q0 50 -34 80.5t-106 30.5q-38 0 -78 -5.5t-85 -21.5l22 386h431v-126h-280l-8 -117q19 2 33 3t22 1q138 0 200.5 -58.5t62.5 -172.5q0 -53 -19 -97.5t-56.5 -76.5t-93.5 -50t-131 -18z" />
    <glyph glyph-name="six" unicode="6" 
d="M330 -12q-56 0 -105.5 22t-86 65.5t-57.5 107.5t-21 147q0 95 22.5 166.5t64.5 119.5t102.5 72t135.5 24q30 0 51.5 -2t39.5 -6t34.5 -9.5t34.5 -12.5v-134q-29 12 -68 23t-92 11q-66 0 -107.5 -41.5t-50.5 -116.5h3q26 23 59.5 36t75.5 13q106 0 165.5 -60.5
t59.5 -172.5q0 -57 -18 -103.5t-52 -79.5t-82 -51t-108 -18zM325 118q42 0 68.5 29t26.5 83q0 57 -26.5 82.5t-68.5 25.5t-68.5 -28.5t-26.5 -79.5q0 -54 26.5 -83t68.5 -29z" />
    <glyph glyph-name="seven" unicode="7" 
d="M390 568h-330v132h520v-151l-250 -549h-200z" />
    <glyph glyph-name="eight" unicode="8" 
d="M325 -12q-69 0 -121 16t-86 43t-51 64t-17 79q0 53 36 100t104 69v2q-53 26 -86.5 62.5t-33.5 96.5q0 42 15 77t46.5 60.5t79.5 40t114 14.5q63 0 109 -14.5t77 -40t46 -60.5t15 -77q0 -53 -33.5 -90t-78.5 -59v-2q75 -29 107.5 -74t32.5 -105q0 -42 -17 -79t-51 -64
t-86 -43t-121 -16zM325 114q39 0 67 21.5t28 64.5q0 22 -9 39t-23.5 30t-33.5 22t-39 15q-33 -14 -59 -40.5t-26 -65.5q0 -17 8 -32.5t21 -27.5t30.5 -19t35.5 -7zM325 592q-34 0 -60.5 -18t-26.5 -54q0 -18 9 -34t23 -29t31 -23t34 -17q29 17 49 41t20 62q0 34 -21.5 53
t-57.5 19z" />
    <glyph glyph-name="nine" unicode="9" 
d="M265 -12q-30 0 -51.5 2t-39.5 6t-34.5 9.5t-34.5 12.5v134q29 -12 68 -23t92 -11q66 0 107.5 41.5t50.5 116.5h-3q-26 -23 -59.5 -36t-75.5 -13q-106 0 -165.5 60.5t-59.5 172.5q0 57 18 103.5t52 79.5t82 51t108 18q56 0 105.5 -22t86 -65.5t57.5 -107.5t21 -147
q0 -95 -22.5 -166.5t-64.5 -119.5t-102.5 -72t-135.5 -24zM325 362q42 0 68.5 28.5t26.5 79.5q0 54 -26.5 83t-68.5 29t-68.5 -29t-26.5 -83q0 -57 26.5 -82.5t68.5 -25.5z" />
    <glyph glyph-name="colon" unicode=":" horiz-adv-x="306" 
d="M69 162h168v-162h-168v162zM69 521h168v-162h-168v162z" />
    <glyph glyph-name="semicolon" unicode=";" horiz-adv-x="373" 
d="M69 521h168v-162h-168v162zM69 162h168l-98 -271h-137z" />
    <glyph glyph-name="less" unicode="&#x3c;" 
d="M50 271v158l550 236v-154l-385 -157l385 -157v-162z" />
    <glyph glyph-name="equal" unicode="=" 
d="M50 315h550v-150h-550v150zM50 535h550v-150h-550v150z" />
    <glyph glyph-name="greater" unicode="&#x3e;" 
d="M50 189l385 157l-385 157v162l550 -236v-158l-550 -236v154z" />
    <glyph glyph-name="question" unicode="?" horiz-adv-x="556" 
d="M207 238q1 42 17 75.5t48 74.5q15 19 26.5 34t20 28.5t13 27t4.5 30.5q0 21 -10.5 34.5t-26.5 22t-35.5 12t-37.5 3.5q-45 0 -84.5 -10t-76.5 -29v142q105 29 210 29q48 0 91.5 -8t76.5 -27.5t53 -52t20 -80.5q0 -45 -17.5 -79t-59.5 -75q-32 -32 -56.5 -68.5
t-29.5 -83.5h-146zM196 162h168v-162h-168v162z" />
    <glyph glyph-name="at" unicode="@" horiz-adv-x="850" 
d="M450 -135q-92 0 -167.5 29.5t-129.5 82t-83.5 125t-29.5 158.5q0 92 29.5 167.5t82 129.5t125 83.5t158.5 29.5t155.5 -25.5t118 -70.5t75 -105t26.5 -129q0 -71 -18 -122.5t-48 -85.5t-69 -50t-80 -16q-49 0 -73 18t-32 46q-22 -32 -49.5 -48t-70.5 -16q-29 0 -55 12
t-45.5 34.5t-31 54t-11.5 71.5q0 50 16 91.5t43 71.5t62 46.5t73 16.5q29 0 54 -11.5t40 -34.5h2l7 42h101l-40 -222q-5 -25 -6 -35t-1 -18q0 -10 6 -18.5t23 -8.5q15 0 32 9.5t32 31.5t24.5 56.5t9.5 84.5q0 49 -17.5 90t-52 71t-84.5 47t-116 17q-64 0 -117 -21.5
t-91.5 -61.5t-60 -96.5t-21.5 -125.5q0 -66 21 -119.5t60.5 -91.5t96 -58.5t127.5 -20.5q57 0 103 10t78 26v-110q-29 -13 -77 -22t-104 -9zM400 161q36 0 63 34t27 111q0 63 -60 63q-38 0 -65.5 -36t-27.5 -95q0 -39 17 -58t46 -19z" />
    <glyph glyph-name="A" unicode="A" horiz-adv-x="710" 
d="M240 700h230l250 -700h-200l-47 148h-247l-46 -148h-190zM431 283l-80 267h-2l-81 -267h163z" />
    <glyph glyph-name="B" unicode="B" horiz-adv-x="672" 
d="M251 423h52q21 0 48 3t47 17q16 11 22.5 24t6.5 30q0 14 -4.5 26.5t-15.5 22.5t-32.5 16t-58.5 6h-65v-145zM251 132h63q23 0 52 4t48 17q20 14 25.5 30t5.5 30q0 24 -10 42t-34 29q-8 3 -28 8t-65 5h-57v-165zM65 700h321q13 0 34.5 -1.5t46 -7t50.5 -16.5t47 -31
q49 -46 49 -124q0 -37 -9.5 -60.5t-19.5 -37.5q-17 -23 -42.5 -39t-51.5 -24v-2q21 -3 46 -12t46 -27t35 -47t14 -72q0 -32 -7.5 -56.5t-18.5 -43t-24 -31.5t-25 -21q-22 -15 -48 -24.5t-52.5 -14.5t-52 -6.5t-44.5 -1.5h-294v700z" />
    <glyph glyph-name="C" unicode="C" horiz-adv-x="667" 
d="M450 -12q-107 0 -184.5 27.5t-127.5 76.5t-74.5 114.5t-24.5 142.5q0 93 30 161.5t83.5 113t126.5 66.5t160 22q29 0 81 -6t126 -30v-151q-16 9 -38.5 17.5t-48.5 15.5t-54 11.5t-55 4.5q-53 0 -93.5 -16.5t-68.5 -46.5t-42.5 -71.5t-14.5 -92.5q0 -53 17.5 -94t48 -69.5
t73.5 -43t94 -14.5q39 0 89 10.5t93 27.5v-148q-56 -15 -100.5 -21.5t-95.5 -6.5z" />
    <glyph glyph-name="D" unicode="D" horiz-adv-x="778" 
d="M251 138h72q21 0 42.5 2t43.5 9t43 19t39 32q32 35 40.5 75t8.5 75q0 16 -2 36.5t-8.5 42t-18 42.5t-30.5 39q-20 19 -58 35.5t-100 16.5h-72v-424zM65 700h254q39 0 83.5 -3t88.5 -13.5t85.5 -31.5t75.5 -56q26 -27 41.5 -57t24 -61.5t11.5 -63t3 -61.5t-3.5 -63.5
t-14 -67.5t-30 -67.5t-52.5 -62.5q-35 -31 -76.5 -49.5t-83 -28t-81.5 -12t-72 -2.5h-254v700z" />
    <glyph glyph-name="E" unicode="E" horiz-adv-x="616" 
d="M65 700h492v-132h-306v-145h289v-132h-289v-159h317v-132h-503v700z" />
    <glyph glyph-name="F" unicode="F" horiz-adv-x="561" 
d="M65 700h467v-132h-281v-154h269v-132h-269v-282h-186v700z" />
    <glyph glyph-name="G" unicode="G" horiz-adv-x="778" 
d="M710 20q-55 -14 -120.5 -23t-134.5 -9q-31 0 -67 3t-73.5 11.5t-75 24.5t-71.5 42q-24 18 -47 44t-41.5 61.5t-29.5 80t-11 100.5q0 84 30 155t106 125q67 47 141.5 62t154.5 15q43 0 77.5 -3t61 -7.5t46.5 -10t35 -10.5v-157q-38 19 -84.5 34.5t-114.5 15.5
q-46 0 -95 -11t-93 -47q-73 -61 -73 -169q0 -59 19 -96.5t37 -56.5q32 -33 81 -50.5t97 -17.5q20 0 36 3.5t29 8.5v139h-109v132h289v-389z" />
    <glyph glyph-name="H" unicode="H" horiz-adv-x="722" 
d="M65 700h186v-268h220v268h186v-700h-186v300h-220v-300h-186v700z" />
    <glyph glyph-name="I" unicode="I" horiz-adv-x="316" 
d="M65 700h186v-700h-186v700z" />
    <glyph glyph-name="J" unicode="J" horiz-adv-x="444" 
d="M14 161q26 -12 49.5 -14.5t34.5 -2.5t26.5 3.5t30.5 17.5q20 19 29 53.5t9 79.5v402h186v-458q0 -22 -2 -47t-8.5 -50.5t-18.5 -49.5t-32 -44q-26 -26 -69 -44.5t-103 -18.5q-32 0 -58.5 4t-56.5 11l-17 4v154z" />
    <glyph glyph-name="K" unicode="K" horiz-adv-x="722" 
d="M65 700h186v-286h2l210 286h224l-258 -326l278 -374h-237l-217 318h-2v-318h-186v700z" />
    <glyph glyph-name="L" unicode="L" horiz-adv-x="556" 
d="M65 700h186v-562h288v-138h-474v700z" />
    <glyph glyph-name="M" unicode="M" horiz-adv-x="900" 
d="M65 700h270l120 -330l120 330h260v-700h-180v510h-2l-123 -330h-160l-123 330h-2v-510h-180v700z" />
    <glyph glyph-name="N" unicode="N" horiz-adv-x="772" 
d="M65 700h237l236 -475h2l-3 475h170v-700h-231l-244 478h-2l6 -478h-171v700z" />
    <glyph glyph-name="O" unicode="O" horiz-adv-x="778" 
d="M389 574q-42 0 -70 -17t-45 -40q-14 -19 -22.5 -41t-13 -44.5t-6 -43.5t-1.5 -38t1.5 -38t6 -43.5t13 -44.5t22.5 -41q17 -23 45 -40t70 -17t70 17t45 40q14 19 22.5 41t13 44.5t6 43.5t1.5 38t-1.5 38t-6 43.5t-13 44.5t-22.5 41q-17 23 -45 40t-70 17zM389 712
q22 0 53.5 -2.5t66.5 -12t70.5 -28t67.5 -50.5q31 -31 49 -67.5t27.5 -72.5t12.5 -69.5t3 -59.5t-3 -59.5t-12.5 -69.5t-27.5 -72.5t-49 -67.5q-32 -32 -67.5 -50.5t-70.5 -28t-66.5 -12t-53.5 -2.5t-53.5 2.5t-66.5 12t-71 28t-67 50.5q-31 31 -49 67.5t-27.5 72.5
t-12.5 69.5t-3 59.5t3 59.5t12.5 69.5t27.5 72.5t49 67.5q31 32 67 50.5t71 28t66.5 12t53.5 2.5z" />
    <glyph glyph-name="P" unicode="P" horiz-adv-x="621" 
d="M65 700h250q146 0 215.5 -62.5t69.5 -167.5q0 -56 -15.5 -99t-50 -72t-88.5 -44t-131 -15h-64v-240h-186v700zM315 372q45 0 72 27t27 71t-27 71t-72 27h-64v-196h64z" />
    <glyph glyph-name="Q" unicode="Q" horiz-adv-x="778" 
d="M389 574q-42 0 -70 -17t-45 -40q-14 -19 -22.5 -41t-13 -44.5t-6 -43.5t-1.5 -38t1.5 -38t6 -43.5t13 -44.5t22.5 -41q17 -23 45 -40t70 -17t70 17t45 40q14 19 22.5 41t13 44.5t6 43.5t1.5 38t-1.5 38t-6 43.5t-13 44.5t-22.5 41q-17 23 -45 40t-70 17zM399 -12
q-36 0 -71.5 3.5t-70 14t-66.5 29t-60 46.5q-31 31 -49 67.5t-27.5 72.5t-12.5 69.5t-3 59.5t3 59.5t12.5 69.5t27.5 72.5t49 67.5q31 32 67 50.5t71 28t66.5 12t53.5 2.5t53.5 -2.5t66.5 -12t70.5 -28t67.5 -50.5q31 -31 49 -67.5t27.5 -72.5t12.5 -69.5t3 -59.5
q0 -59 -11 -112t-41 -104q-24 -41 -54.5 -67.5t-71.5 -43.5l165 -155h-210z" />
    <glyph glyph-name="R" unicode="R" horiz-adv-x="662" 
d="M332 244h-81v-244h-186v700h262q73 0 126.5 -16t89 -46t52.5 -72t17 -94q0 -74 -27.5 -124t-89.5 -76l150 -272h-194zM426 472q0 42 -27 69t-72 27h-76v-192h76q45 0 72 27t27 69z" />
    <glyph glyph-name="S" unicode="S" horiz-adv-x="611" 
d="M51 178q54 -28 107 -40t101 -12q22 0 49 4t43 16q8 7 15.5 19t7.5 30t-7 30t-20 22q-20 16 -49.5 25t-67.5 21l-29 9q-42 13 -81 39.5t-59 68.5q-8 19 -12.5 42t-4.5 43q0 58 26 104t86 76q41 20 90.5 28.5t98.5 8.5q31 0 80 -4.5t103 -21.5v-148q-35 17 -78 26.5
t-89 9.5q-18 0 -44.5 -2.5t-44.5 -10.5q-21 -9 -28.5 -23t-7.5 -30q0 -18 10 -30q11 -14 37 -25t70 -23l11 -3q13 -3 31 -9t37.5 -13.5t38 -17.5t32.5 -21q38 -31 50.5 -70t12.5 -77q0 -68 -25 -110t-55 -64q-23 -17 -52 -28t-59 -17.5t-60 -9t-56 -2.5q-42 0 -95.5 6.5
t-112.5 23.5v160z" />
    <glyph glyph-name="T" unicode="T" horiz-adv-x="556" 
d="M185 562h-172v138h530v-138h-172v-562h-186v562z" />
    <glyph glyph-name="U" unicode="U" horiz-adv-x="738" 
d="M675 266q0 -20 -2 -43.5t-8.5 -48t-19 -50t-33.5 -48.5q-27 -30 -59.5 -47.5t-65.5 -26.5t-64 -11.5t-54 -2.5t-54 2.5t-64 11.5t-65.5 26.5t-59.5 47.5q-21 23 -33.5 48.5t-19 50t-8.5 48t-2 43.5v434h186v-403q0 -9 0.5 -22.5t2.5 -29.5t6 -32t11 -29q9 -17 20.5 -28.5
t25 -18t27.5 -9t27 -2.5t27 2.5t27.5 9t25 18t20.5 28.5q7 13 11 29t6 32t2.5 29.5t0.5 22.5v403h186v-434z" />
    <glyph glyph-name="V" unicode="V" horiz-adv-x="682" 
d="M-10 700h198l155 -550h2l156 550h191l-238 -700h-230z" />
    <glyph glyph-name="W" unicode="W" horiz-adv-x="1000" 
d="M8 700h190l90 -538h2l94 538h236l98 -538h2l91 538h181l-156 -700h-239l-99 538h-2l-92 -538h-241z" />
    <glyph glyph-name="X" unicode="X" horiz-adv-x="708" 
d="M229 368l-202 332h217l117 -231l120 231h204l-204 -332l224 -368h-222l-135 258l-134 -258h-211z" />
    <glyph glyph-name="Y" unicode="Y" horiz-adv-x="678" 
d="M247 264l-258 436h214l137 -281l135 281h214l-256 -436v-264h-186v264z" />
    <glyph glyph-name="Z" unicode="Z" horiz-adv-x="620" 
d="M579 552l-342 -414h344v-138h-546v148l332 414h-323v138h535v-148z" />
    <glyph glyph-name="bracketleft" unicode="[" horiz-adv-x="389" 
d="M352 644h-114v-670h114v-114h-264v898h264v-114z" />
    <glyph glyph-name="backslash" unicode="\" horiz-adv-x="280" 
d="M-30 700h146l194 -700h-146z" />
    <glyph glyph-name="bracketright" unicode="]" horiz-adv-x="389" 
d="M37 -26h114v670h-114v114h264v-898h-264v114z" />
    <glyph glyph-name="asciicircum" unicode="^" 
d="M244 700h162l194 -350h-152l-123 230l-123 -230h-152z" />
    <glyph glyph-name="underscore" unicode="_" horiz-adv-x="500" 
d="M0 -75h500v-50h-500v50z" />
    <glyph glyph-name="grave" unicode="`" horiz-adv-x="400" 
d="M174 590l-130 160h186l70 -160h-126z" />
    <glyph glyph-name="a" unicode="a" horiz-adv-x="607" 
d="M226 -12q-39 0 -74.5 10t-62 30t-42.5 50.5t-16 71.5q0 55 22.5 90t60 54.5t86 26.5t100.5 7h84q1 24 -9.5 40t-28 26t-39.5 14.5t-44 4.5q-38 0 -79 -8.5t-88 -32.5v124q41 17 91.5 27t113.5 10q51 0 97 -12t80 -38t54 -67t20 -99v-317h-159v82h-2q-26 -45 -68.5 -69.5
t-96.5 -24.5zM272 108q25 0 45 10t34 27t22 40t11 49h-70q-57 0 -86 -15t-29 -54q0 -29 23 -43t50 -14z" />
    <glyph glyph-name="b" unicode="b" horiz-adv-x="667" 
d="M450 262q0 37 -10.5 62.5t-26 41t-35 22.5t-37.5 7q-22 0 -42 -9.5t-35 -26.5t-24 -41.5t-9 -55.5q0 -29 8 -53.5t23 -43t35 -29t44 -10.5q18 0 37.5 7.5t35.5 23.5t26 42t10 63zM52 750h180v-296h2q21 25 44.5 41t46.5 24t44 11t38 3q47 0 88.5 -17t76.5 -59
q30 -36 47 -86t17 -106q0 -49 -13 -97t-40 -86q-12 -16 -28.5 -33t-39 -30.5t-51 -22t-63.5 -8.5q-27 0 -53.5 6t-51 18.5t-44.5 32.5t-33 48h-2v-93h-165v750z" />
    <glyph glyph-name="c" unicode="c" horiz-adv-x="501" 
d="M339 -12q-68 0 -124.5 19t-97.5 54.5t-63.5 86t-22.5 112.5q0 61 22 111.5t62.5 86.5t97.5 55.5t128 19.5q32 0 66 -6t70 -23v-132q-32 19 -65.5 24t-50.5 5q-30 0 -56.5 -10t-45.5 -28.5t-30 -44.5t-11 -58q0 -38 14 -64.5t36 -43t49 -24.5t54 -8q17 0 46.5 4t64.5 21
v-134q-19 -6 -54.5 -14.5t-88.5 -8.5z" />
    <glyph glyph-name="d" unicode="d" horiz-adv-x="666" 
d="M216 262q0 -37 10 -63t26 -42t35.5 -23.5t37.5 -7.5q24 0 44 10.5t35 29t23 43t8 53.5q0 31 -9 55.5t-24 41.5t-35 26.5t-42 9.5q-18 0 -37.5 -7t-35 -22.5t-26 -41t-10.5 -62.5zM449 0v93h-2q-13 -28 -33 -48t-44.5 -32.5t-51 -18.5t-53.5 -6q-35 0 -63.5 8.5t-51 22
t-39 30.5t-28.5 33q-27 38 -40 86t-13 97q0 57 17 106t47 86q35 42 75.5 59t89.5 17q17 0 38.5 -2.5t44.5 -11t46 -24t44 -41.5h2v296h180v-750h-165z" />
    <glyph glyph-name="e" unicode="e" horiz-adv-x="611" 
d="M411 310q1 18 -2.5 32t-8.5 24.5t-9.5 16t-5.5 7.5q-14 17 -33 23t-39 6t-38.5 -6.5t-34.5 -23.5q-12 -14 -20.5 -34t-8.5 -45h200zM213 208q4 -32 18.5 -49.5t23.5 -23.5q13 -9 28 -14.5t30 -8t29.5 -3.5t26.5 -1q22 0 62 6.5t94 33.5v-127q-27 -11 -72.5 -22
t-114.5 -11q-75 0 -130 20t-93 55q-15 13 -30 32t-27 43.5t-19.5 55.5t-7.5 69q0 18 2.5 42.5t11.5 52.5t26 56.5t45 52.5q29 25 76.5 45.5t118.5 20.5q16 0 39.5 -2t50.5 -10t54 -23.5t51 -42.5q30 -35 48.5 -89t18.5 -125v-33h-360z" />
    <glyph glyph-name="f" unicode="f" horiz-adv-x="444" 
d="M119 395h-106v126h106v32q0 16 1 35.5t6 40t15.5 41.5t28.5 39q17 17 37.5 27.5t41.5 16t42.5 7.5t40.5 2q36 0 59 -3.5t40 -6.5v-126q-17 5 -30 7.5t-32 2.5q-11 0 -25.5 -2.5t-25.5 -14.5q-13 -14 -16 -32t-3 -34v-32h128v-126h-128v-395h-180v395z" />
    <glyph glyph-name="g" unicode="g" horiz-adv-x="668" 
d="M309 -222q-61 0 -113 8t-101 25v146q49 -26 94 -36.5t91 -10.5q13 0 29 1.5t32.5 5.5t32 12t29.5 22q25 26 31 56t6 54v28h-2q-11 -18 -27.5 -33.5t-39.5 -28.5q-28 -15 -55.5 -21t-53.5 -6q-33 0 -60 7t-48 18t-36.5 24.5t-25.5 25.5q-23 27 -42 73.5t-19 120.5
q0 39 6.5 70.5t16 56t22 42.5t24.5 31q10 11 25 22.5t34.5 20.5t44.5 15t55 6q40 0 67.5 -9.5t44.5 -20.5q18 -11 37 -30t35 -46h2v94h163v-460q0 -22 -2 -49t-9 -55.5t-20.5 -56.5t-36.5 -51q-24 -24 -55 -38t-63 -21.5t-61.5 -9.5t-51.5 -2zM217 265q0 -25 7 -49t21 -42
q16 -20 35.5 -28t38.5 -8q14 0 36 6t44 30q22 23 28.5 49.5t6.5 47.5q0 32 -9.5 53t-18.5 32q-21 26 -45.5 32.5t-38.5 6.5q-26 0 -43.5 -9.5t-28.5 -20.5q-17 -18 -25 -45t-8 -55z" />
    <glyph glyph-name="h" unicode="h" horiz-adv-x="667" 
d="M56 750h180v-306h2q22 30 43.5 45t29.5 20q20 11 44.5 17.5t56.5 6.5q48 0 83.5 -14t60.5 -40q9 -9 18.5 -22.5t17.5 -32t13.5 -43.5t5.5 -56v-325h-180v252q0 9 -1 24t-4 31.5t-9.5 31.5t-18.5 26q-13 12 -26.5 15t-23.5 3q-31 0 -52 -11.5t-35 -33.5q-10 -16 -17.5 -43
t-7.5 -75v-220h-180v750z" />
    <glyph glyph-name="i" unicode="i" horiz-adv-x="334" 
d="M257 606h-180v132h180v-132zM77 521h180v-521h-180v521z" />
    <glyph glyph-name="j" unicode="j" horiz-adv-x="313" 
d="M67 -222q-15 0 -37 1.5t-55 7.5v117q2 -1 13.5 -3.5t28.5 -2.5q37 0 50 30q6 14 8 34.5t2 37.5v521h180v-526q0 -31 -5 -70.5t-24 -72.5q-26 -45 -67.5 -59.5t-93.5 -14.5zM257 606h-180v132h180v-132z" />
    <glyph glyph-name="k" unicode="k" horiz-adv-x="611" 
d="M56 750h180v-448h2l150 219h197l-181 -239l196 -282h-218l-144 258h-2v-258h-180v750z" />
    <glyph glyph-name="l" unicode="l" horiz-adv-x="292" 
d="M56 750h180v-750h-180v750z" />
    <glyph glyph-name="m" unicode="m" horiz-adv-x="1000" 
d="M56 521h164v-96h2q10 20 28.5 43t51.5 40q26 13 55 19t55 6t54.5 -6.5t51.5 -22.5q10 -6 27.5 -23t29.5 -48q21 34 46 54t51.5 30t51 13t43.5 3q32 0 68 -9.5t65 -41.5q17 -20 26 -43t13 -46.5t4.5 -46t0.5 -39.5v-307h-180v280q0 56 -23 82q-13 14 -27 17.5t-25 3.5
q-25 0 -42.5 -11t-31.5 -32q-11 -17 -18 -45t-7 -75v-220h-180v280q0 29 -6 49.5t-17 32.5q-13 14 -27 17.5t-25 3.5q-25 0 -42.5 -11t-31.5 -32q-11 -17 -18 -45t-7 -75v-220h-180v521z" />
    <glyph glyph-name="n" unicode="n" horiz-adv-x="667" 
d="M56 521h164v-96h2q14 30 35 50.5t47 33.5q32 16 63 20t45 4q43 0 79 -12t64 -41q18 -18 37 -56t19 -99v-325h-180v252q0 11 -1 26t-4 30.5t-9.5 30.5t-18.5 26t-25 14.5t-26 3.5q-16 0 -37 -5.5t-40 -26.5q-12 -13 -18.5 -30.5t-10 -35.5t-4.5 -35t-1 -30v-220h-180v521z
" />
    <glyph glyph-name="o" unicode="o" horiz-adv-x="668" 
d="M334 407q-50 0 -81 -34q-23 -26 -29.5 -56.5t-6.5 -56.5t6.5 -56.5t29.5 -56.5q31 -34 81 -34t81 34q23 26 29.5 56.5t6.5 56.5t-6.5 56.5t-29.5 56.5q-31 34 -81 34zM334 533q63 0 116 -17t91 -47q16 -12 33 -30.5t31 -44t23 -59t9 -75.5t-9 -75.5t-23 -59t-31 -44
t-33 -30.5q-26 -21 -54 -33t-55 -19t-52.5 -9t-45.5 -2t-45.5 2t-52.5 9t-55 19t-54 33q-16 12 -33 30.5t-31 44t-23 59t-9 75.5t9 75.5t23 59t31 44t33 30.5q38 30 91 47t116 17z" />
    <glyph glyph-name="p" unicode="p" horiz-adv-x="672" 
d="M455 260q0 32 -7.5 56t-21.5 41q-18 23 -39 30.5t-41 7.5q-29 0 -47.5 -11.5t-27.5 -21.5q-35 -38 -35 -103q0 -39 12 -62t20 -33q18 -22 39.5 -30t38.5 -8q19 0 41 8t40 33q6 8 17 31.5t11 61.5zM56 521h166v-94h2q14 27 34 47t50 35q25 13 52 18.5t55 5.5
q59 0 101.5 -24.5t70.5 -63.5t41 -87t13 -95q0 -54 -15 -102t-41 -83q-20 -27 -43.5 -44.5t-47.5 -27.5t-47.5 -14t-43.5 -4q-26 0 -51 5.5t-45 15.5q-15 8 -34 23t-35 41h-2v-283h-180v731z" />
    <glyph glyph-name="q" unicode="q" horiz-adv-x="671" 
d="M325 395q-20 0 -41 -7.5t-39 -30.5q-14 -17 -21.5 -41t-7.5 -56q0 -38 11 -61.5t17 -31.5q18 -25 40 -33t41 -8q17 0 38.5 8t39.5 30q8 10 20 33t12 62q0 65 -35 103q-9 10 -27.5 21.5t-47.5 11.5zM615 521v-731h-180v283h-2q-16 -26 -35 -41t-34 -23q-20 -10 -45 -15.5
t-51 -5.5q-20 0 -43.5 4t-47.5 14t-47.5 27.5t-43.5 44.5q-26 35 -41 83t-15 102q0 47 13 95t41 87t70.5 63.5t101.5 24.5q28 0 55 -5.5t52 -18.5q30 -15 50 -35t34 -47h2v94h166z" />
    <glyph glyph-name="r" unicode="r" horiz-adv-x="444" 
d="M56 521h164v-96h2q21 48 58 78t100 30q11 0 25.5 -1t31.5 -5v-150q-12 3 -27 4.5t-29 1.5q-78 0 -111.5 -44t-33.5 -119v-220h-180v521z" />
    <glyph glyph-name="s" unicode="s" horiz-adv-x="500" 
d="M211 -12q-53 0 -94.5 6.5t-80.5 18.5v134q16 -6 38.5 -13t39.5 -12q24 -6 51 -10t56 -4q16 0 30 2.5t23 9.5q6 5 10.5 12t4.5 17q0 8 -4.5 17.5t-15.5 17.5q-8 5 -23 11t-50 15l-26 7q-24 7 -54.5 18.5t-54.5 40.5q-29 35 -29 85q0 44 19 79.5t61 58.5q20 11 41.5 18
t41 10.5t36 4.5t27.5 1q72 0 116 -11t63 -19v-128q-34 17 -74.5 27.5t-79.5 10.5q-30 0 -44.5 -3.5t-17.5 -5.5q-21 -9 -21 -29q0 -9 6 -17q6 -7 16 -12.5t22.5 -9.5t26 -7t25.5 -6l16 -4q31 -8 52 -15.5t38 -17.5q10 -6 22 -16t21.5 -24.5t16 -35t6.5 -48.5
q0 -49 -18 -79.5t-40 -47.5t-49.5 -26.5t-55.5 -14t-53 -5.5t-41 -1z" />
    <glyph glyph-name="t" unicode="t" horiz-adv-x="444" 
d="M316 -12q-108 0 -155.5 46.5t-47.5 148.5v212h-103v126h103v117l180 55v-172h126v-126h-126v-192q0 -55 17 -75t55 -20q19 0 34 2.5t27 6.5v-119q-29 -5 -58 -7.5t-52 -2.5z" />
    <glyph glyph-name="u" unicode="u" horiz-adv-x="667" 
d="M611 0h-164v96h-2q-14 -30 -35 -50.5t-47 -33.5q-16 -8 -32.5 -13t-30.5 -7.5t-26 -3t-19 -0.5q-43 0 -79 12t-64 41q-18 18 -37 56t-19 99v325h180v-252q0 -11 1 -26t4 -30.5t9.5 -30.5t18.5 -26t25 -14.5t26 -3.5q16 0 37 5.5t40 26.5q12 13 18.5 30t10 35t4.5 35.5
t1 30.5v220h180v-521z" />
    <glyph glyph-name="v" unicode="v" horiz-adv-x="611" 
d="M10 521h193l108 -371h2l109 371h179l-193 -521h-205z" />
    <glyph glyph-name="w" unicode="w" horiz-adv-x="944" 
d="M9 521h188l84 -375h2l90 375h216l88 -375h2l82 375h174l-159 -521h-209l-88 377h-2l-99 -377h-209z" />
    <glyph glyph-name="x" unicode="x" horiz-adv-x="593" 
d="M177 265l-163 256h213l77 -156l81 156h197l-163 -254l174 -267h-217l-87 162l-86 -162h-203z" />
    <glyph glyph-name="y" unicode="y" horiz-adv-x="605" 
d="M144 -222q-17 0 -40 2t-59 10v140q18 -7 36 -10.5t41 -3.5q25 0 41 6.5t25 14.5q12 10 19.5 24.5t11.5 26.5l-211 533h194l112 -340h2l107 340h180l-200 -507l-17 -42.5t-18 -42.5q-10 -22 -29.5 -55t-54.5 -59q-33 -24 -66 -30.5t-74 -6.5z" />
    <glyph glyph-name="z" unicode="z" horiz-adv-x="513" 
d="M30 144l238 245h-233v132h439v-144l-238 -245h242v-132h-448v144z" />
    <glyph glyph-name="braceleft" unicode="{" horiz-adv-x="389" 
d="M359 668h-47q-18 0 -31 -5q-12 -6 -18 -16q-10 -21 -9 -43v-184q0 -32 -11 -54q-12 -21 -30 -33q-37 -21 -75 -23v-2q17 0 37 -3q20 -5 38 -15t30 -35q11 -25 11 -64v-177q0 -5 0.5 -10t1.5 -10q2 -13 7 -21t18 -16q11 -5 31 -7h47v-90h-100q-57 0 -98 34q-44 33 -45 103
v194q-2 49 -33 62q-33 12 -53 11v90q20 -1 53 11q32 12 33 55v201q1 70 45 105q43 32 98 32h100v-90z" />
    <glyph glyph-name="bar" unicode="|" horiz-adv-x="280" 
d="M70 750h140v-890h-140v890z" />
    <glyph glyph-name="braceright" unicode="}" horiz-adv-x="389" 
d="M30 -50h47q40 2 50 23q8 21 8 41v184q1 32 14 56q11 21 29 32q37 22 73 22v2q-16 2 -35 6q-20 5 -38 15q-18 12 -29 35q-13 24 -14 61v177q0 21 -8 43q-10 19 -50 21h-47v90h100q55 0 99 -32q42 -34 44 -105v-194q0 -23 11 -39q10 -14 24 -22q31 -14 51 -12v-90h-10
q-5 0 -12 -1q-14 -2 -29 -9q-33 -12 -35 -56v-201q-2 -71 -44 -103q-43 -34 -99 -34h-100v90z" />
    <glyph glyph-name="asciitilde" unicode="~" 
d="M45 376q13 18 31.5 35t40 30t44.5 20.5t44 7.5q41 0 73 -14t60 -30.5t53.5 -30t53.5 -13.5q34 0 65.5 19.5t54.5 53.5l40 -130q-13 -18 -31.5 -35t-40 -30t-44.5 -20.5t-44 -7.5q-41 0 -73 13.5t-60 30t-53.5 30.5t-53.5 14q-34 0 -65.5 -19.5t-54.5 -53.5z" />
    <glyph glyph-name="uni00A0" unicode="&#xa0;" horiz-adv-x="233" 
 />
    <glyph glyph-name="exclamdown" unicode="&#xa1;" horiz-adv-x="444" 
d="M306 359h-168v162h168v-162zM155 284h134l26 -461h-186z" />
    <glyph glyph-name="cent" unicode="&#xa2;" 
d="M274 5q-87 28 -138 93.5t-51 161.5q0 94 50 160.5t139 94.5v106h180v-93q36 -6 77 -24v-132q-32 19 -65.5 24t-50.5 5q-30 0 -56.5 -10t-45.5 -28.5t-30 -44.5t-11 -58q0 -38 14 -64.5t36 -43t49 -24.5t54 -8q17 0 46.5 4t64.5 21v-134q-13 -5 -33.5 -10t-48.5 -9v-92
h-180v105z" />
    <glyph glyph-name="sterling" unicode="&#xa3;" 
d="M60 132h92v173h-91v110h91v45q0 122 69 187t215 65q35 0 68 -4.5t66 -12.5v-140q-19 6 -43 12.5t-47 6.5q-77 0 -109.5 -29t-32.5 -85v-45h152v-110h-152v-173h222v-132h-500v132z" />
    <glyph glyph-name="currency" unicode="&#xa4;" 
d="M83 163l53 53q-42 63 -42 134q0 35 11 69t31 65l-53 53l55 55l53 -53q31 21 65 31.5t69 10.5t69 -11t65 -31l53 53l55 -55l-53 -53q42 -62 42 -134q0 -69 -42 -134l53 -53l-55 -55l-53 53q-31 -20 -65 -31t-69 -11t-69 11t-65 31l-53 -53zM325 215q26 0 49 10.5t40.5 29
t27.5 43t10 52.5t-10 52.5t-27.5 43t-40.5 29t-49 10.5t-49.5 -10.5t-40.5 -29t-27 -43t-10 -52.5t10 -52.5t27 -43t40.5 -29t49.5 -10.5z" />
    <glyph glyph-name="yen" unicode="&#xa5;" 
d="M233 120h-152v110h152v38h-152v110h85l-181 322h204l137 -281l135 281h204l-179 -322h85v-110h-152v-38h152v-110h-152v-120h-186v120z" />
    <glyph glyph-name="brokenbar" unicode="&#xa6;" horiz-adv-x="280" 
d="M70 232h140v-372h-140v372zM70 750h140v-338h-140v338z" />
    <glyph glyph-name="section" unicode="&#xa7;" horiz-adv-x="611" 
d="M243 383q-6 -7 -11.5 -15t-10.5 -17q-11 -19 -11 -38q0 -24 17 -41q28 -26 66 -39q19 -8 38.5 -15.5t39.5 -15.5q29 33 30 76q0 18 -10 29q-10 12 -22 17q-29 16 -60 30.5t-66 28.5zM93 22q43 -19 87.5 -29t90.5 -11q36 0 63 11q25 10 25 41q0 16 -12 30q-12 11 -34 22
q-22 10 -48 20.5t-55 21.5q-59 22 -102 60q-47 38 -48 100q0 49 25 80q12 16 28.5 29.5t36.5 26.5q-33 16 -56 48t-23 69q0 54 25 88q22 33 61 52q82 32 174 31q84 -2 162 -25l-8 -124q-75 29 -155 29q-30 0 -54 -8q-25 -10 -25 -38q0 -14 14 -25q13 -11 34 -22
q22 -9 47.5 -19t54.5 -21q61 -23 104 -60q45 -39 46 -109q0 -42 -22 -76t-60 -61q33 -16 52 -50q18 -35 18 -71q-2 -47 -24 -78q-25 -33 -64 -53q-84 -39 -173 -39q-122 3 -194 29z" />
    <glyph glyph-name="dieresis" unicode="&#xa8;" horiz-adv-x="462" 
d="M273 738h144v-132h-144v132zM45 738h144v-132h-144v132z" />
    <glyph glyph-name="copyright" unicode="&#xa9;" horiz-adv-x="820" 
d="M430 144q-48 0 -87 14.5t-66.5 41.5t-42 65t-14.5 85t14.5 85t42 65t66.5 41.5t87 14.5q32 0 57.5 -7t42.5 -15v-98q-17 11 -40 20.5t-52 9.5q-55 0 -86.5 -31t-31.5 -85t31.5 -85t86.5 -31q58 0 92 30v-98q-14 -7 -42.5 -14.5t-57.5 -7.5zM410 -12q-75 0 -140.5 28.5
t-114 77.5t-77 115t-28.5 141t28.5 141t77 115t114 77.5t140.5 28.5t140.5 -28.5t114 -77.5t77 -115t28.5 -141t-28.5 -141t-77 -115t-114 -77.5t-140.5 -28.5zM410 82q55 0 102.5 20.5t82.5 56.5t55 85t20 106t-20 106t-55 85t-82.5 56.5t-102.5 20.5t-102.5 -20.5
t-82.5 -56.5t-55 -85t-20 -106t20 -106t55 -85t82.5 -56.5t102.5 -20.5z" />
    <glyph glyph-name="ordfeminine" unicode="&#xaa;" horiz-adv-x="397" 
d="M147 381q-22 0 -44 5.5t-40 17.5t-29.5 31t-12.5 46q0 29 14 50t36.5 34.5t50.5 19.5t57 5q25 -1 42.5 -1.5t28.5 -2.5q0 33 -18.5 44.5t-58.5 11.5q-59 0 -110 -25v73q60 22 135 22q36 0 67.5 -3.5t54.5 -16t36.5 -35.5t13.5 -62v-206h-118v47h-2q-31 -55 -103 -55z
M184 451q30 0 47 23t19 52h-43q-65 2 -66 -37q2 -38 43 -38z" />
    <glyph glyph-name="guillemotleft" unicode="&#xab;" horiz-adv-x="611" 
d="M47 300l119 204h148l-110 -204l110 -205h-148zM285 300l119 204h148l-110 -204l110 -205h-148z" />
    <glyph glyph-name="logicalnot" unicode="&#xac;" 
d="M450 275h-400v150h550v-335h-150v185z" />
    <glyph glyph-name="uni00AD" unicode="&#xad;" horiz-adv-x="480" 
d="M400 354v-140h-320v140h320z" />
    <glyph glyph-name="registered" unicode="&#xae;" horiz-adv-x="820" 
d="M410 -12q-75 0 -140.5 28.5t-114 77.5t-77 115t-28.5 141t28.5 141t77 115t114 77.5t140.5 28.5t140.5 -28.5t114 -77.5t77 -115t28.5 -141t-28.5 -141t-77 -115t-114 -77.5t-140.5 -28.5zM405 82q55 0 103.5 20.5t84.5 56.5t56.5 85t20.5 106t-20 106t-55 85t-82.5 56.5
t-102.5 20.5t-102.5 -20.5t-82.5 -56.5t-55 -85t-20 -106t19 -106t53 -85t81 -56.5t102 -20.5zM275 550h141q77 0 113 -34.5t36 -100.5q0 -93 -69 -123l68 -142h-95l-54 128h-50v-128h-90v400zM471 415q0 29 -13 42t-42 13h-51v-112h51q29 0 42 13.5t13 43.5z" />
    <glyph glyph-name="macron" unicode="&#xaf;" horiz-adv-x="465" 
d="M45 707h375v-84h-375v84z" />
    <glyph glyph-name="degree" unicode="&#xb0;" horiz-adv-x="400" 
d="M129 565q0 -29 21 -50q21 -22 50 -22q32 0 51 22q18 20 20 50q-2 33 -20 51t-51 20q-30 -2 -50 -20q-21 -20 -21 -51zM53 565q2 64 44 105q40 40 103 42q63 -2 105 -42q40 -42 42 -105q-2 -64 -42 -104q-41 -42 -105 -44q-63 2 -103 44q-42 40 -44 104z" />
    <glyph glyph-name="plusminus" unicode="&#xb1;" 
d="M50 520h200v130h150v-130h200v-150h-200v-130h-150v130h-200v150zM50 210h550v-150h-550v150z" />
    <glyph glyph-name="twosuperior" unicode="&#xb2;" horiz-adv-x="398" 
d="M30 370q52 37 89 66t61 52t35 41t11 33q0 26 -15.5 40t-47.5 14q-29 0 -60.5 -7t-60.5 -19v98q35 11 76.5 17.5t90.5 6.5q82 0 121.5 -34.5t39.5 -88.5q0 -30 -14.5 -58.5t-38 -55.5t-54 -53.5t-63.5 -51.5h160v-90h-330v90z" />
    <glyph glyph-name="threesuperior" unicode="&#xb3;" horiz-adv-x="398" 
d="M170 268q-45 0 -80.5 3t-61.5 11v106q24 -11 53 -17.5t63 -6.5q9 0 24 1.5t29.5 6t24.5 13t10 22.5q-1 13 -8.5 21t-19 12.5t-25.5 5.5t-26 1h-51v84h55q68 0 68 46q0 12 -7.5 20t-19 12t-24.5 5.5t-24 1.5q-32 -1 -58.5 -6.5t-48.5 -15.5v100q58 18 140 18q31 0 63 -5
t58 -18t42.5 -36t16.5 -59q0 -74 -85 -94v-2q92 -15 92 -97q0 -38 -18.5 -63.5t-48 -41t-65 -22t-68.5 -6.5z" />
    <glyph glyph-name="acute" unicode="&#xb4;" horiz-adv-x="400" 
d="M170 750h186l-130 -160h-126z" />
    <glyph glyph-name="mu" unicode="&#xb5;" horiz-adv-x="667" 
d="M611 0h-164v96h-2q-29 -56 -77 -81q-50 -27 -113 -27h-17v-198h-182v731h180v-252q0 -73 24 -101q22 -31 59 -30q112 -1 112 163v220h180v-521z" />
    <glyph glyph-name="paragraph" unicode="&#xb6;" horiz-adv-x="765" 
d="M240 350h-45q-36 0 -68 14t-56 37.5t-37.5 55.5t-13.5 68t13.5 68t37.5 56t56 37.5t68 13.5h505v-840h-186v708h-88v-708h-186v490z" />
    <glyph glyph-name="periodcentered" unicode="&#xb7;" horiz-adv-x="306" 
d="M69 381h168v-162h-168v162z" />
    <glyph glyph-name="cedilla" unicode="&#xb8;" horiz-adv-x="240" 
d="M105 -222q-26 0 -49 9.5t-36 19.5l25 57q25 -20 55 -20q17 0 26.5 9.5t9.5 23.5t-10.5 23.5t-30.5 9.5q-11 0 -18.5 -1t-16.5 -4l25 95h70l-10 -42q13 0 26.5 -5t24 -15t17.5 -25t7 -36q0 -44 -29.5 -71.5t-85.5 -27.5z" />
    <glyph glyph-name="onesuperior" unicode="&#xb9;" horiz-adv-x="398" 
d="M163 568l-81 -49l-52 88l152 93h113v-420h-132v288z" />
    <glyph glyph-name="ordmasculine" unicode="&#xba;" horiz-adv-x="434" 
d="M143 547q0 -31 18 -56q18 -26 56 -26q39 0 57 26q17 26 17 56q0 31 -17 56q-18 23 -57 25q-38 -2 -56 -25q-18 -24 -18 -56zM17 547q1 79 58 122q55 43 142 43q89 0 144 -43t56 -122q-1 -79 -56 -122q-56 -44 -144 -44q-86 0 -142 44q-57 43 -58 122z" />
    <glyph glyph-name="guillemotright" unicode="&#xbb;" horiz-adv-x="611" 
d="M326 300l-119 -205h-148l110 205l-110 204h148zM564 300l-119 -205h-148l110 205l-110 204h148z" />
    <glyph glyph-name="onequarter" unicode="&#xbc;" horiz-adv-x="916" 
d="M163 568l-81 -49l-52 88l152 93h113v-420h-132v288zM636 700h132l-488 -700h-132zM714 71h-200v102l169 248h151v-260h50v-90h-50v-70h-120v70zM714 161v153h-2l-101 -153h103z" />
    <glyph glyph-name="onehalf" unicode="&#xbd;" horiz-adv-x="916" 
d="M154 568l-81 -49l-52 88l152 93h113v-420h-132v288zM616 700h132l-488 -700h-132zM566 91q52 37 89 66t61 52t35 41t11 33q0 26 -15.5 40t-47.5 14q-29 0 -60.5 -7t-60.5 -19v98q35 11 76.5 17.5t90.5 6.5q82 0 121.5 -34.5t39.5 -88.5q0 -30 -14.5 -58.5t-38 -55.5
t-54 -53.5t-63.5 -51.5h160v-90h-330v90z" />
    <glyph glyph-name="threequarters" unicode="&#xbe;" horiz-adv-x="916" 
d="M172 268q-45 0 -80.5 3t-61.5 11v106q24 -11 53 -17.5t63 -6.5q9 0 24 1.5t29.5 6t24.5 13t10 22.5q-1 13 -8.5 21t-19 12.5t-25.5 5.5t-26 1h-51v84h55q68 0 68 46q0 12 -7.5 20t-19 12t-24.5 5.5t-24 1.5q-32 -1 -58.5 -6.5t-48.5 -15.5v100q58 18 140 18q31 0 63 -5
t58 -18t42.5 -36t16.5 -59q0 -74 -85 -94v-2q92 -15 92 -97q0 -38 -18.5 -63.5t-48 -41t-65 -22t-68.5 -6.5zM638 700h132l-488 -700h-132zM716 71h-200v102l169 248h151v-260h50v-90h-50v-70h-120v70zM716 161v153h-2l-101 -153h103z" />
    <glyph glyph-name="questiondown" unicode="&#xbf;" horiz-adv-x="556" 
d="M281 -191q-48 0 -91.5 8t-76.5 27.5t-53 52t-20 80.5q0 45 17.5 79t59.5 75q32 32 56.5 68.5t29.5 83.5h146q-2 -42 -17.5 -75.5t-47.5 -74.5q-15 -19 -26.5 -34t-20 -28.5t-13 -27.5t-4.5 -30q0 -21 10.5 -34.5t26.5 -22t35.5 -12t37.5 -3.5q45 0 84.5 10t76.5 29v-142
q-105 -29 -210 -29zM192 521h168v-162h-168v162z" />
    <glyph glyph-name="Agrave" unicode="&#xc0;" horiz-adv-x="710" 
d="M240 700h230l250 -700h-200l-47 148h-247l-46 -148h-190zM431 283l-80 267h-2l-81 -267h163zM288 740l-134 140h196l72 -140h-134z" />
    <glyph glyph-name="Aacute" unicode="&#xc1;" horiz-adv-x="710" 
d="M240 700h230l250 -700h-200l-47 148h-247l-46 -148h-190zM431 283l-80 267h-2l-81 -267h163zM360 880h196l-134 -140h-134z" />
    <glyph glyph-name="Acircumflex" unicode="&#xc2;" horiz-adv-x="710" 
d="M240 700h230l250 -700h-200l-47 148h-247l-46 -148h-190zM431 283l-80 267h-2l-81 -267h163zM272 880h170l115 -140h-132l-68 74l-72 -74h-132z" />
    <glyph glyph-name="Atilde" unicode="&#xc3;" horiz-adv-x="710" 
d="M240 700h230l250 -700h-200l-47 148h-247l-46 -148h-190zM431 283l-80 267h-2l-81 -267h163zM561 879q-5 -38 -16 -61t-23 -37q-11 -13 -33.5 -28t-63.5 -15q-11 0 -26.5 3t-25.5 6l-21 7q-24 8 -40.5 14t-35.5 6q-28 0 -40 -14q-9 -11 -11 -25h-76q2 18 10.5 45.5
t28.5 52.5q10 13 32 28t63 15q33 0 69 -13l14 -5q13 -5 29 -11.5t38 -6.5q3 0 10.5 0.5t16 4t16 11.5t9.5 23h76z" />
    <glyph glyph-name="Adieresis" unicode="&#xc4;" horiz-adv-x="710" 
d="M240 700h230l250 -700h-200l-47 148h-247l-46 -148h-190zM431 283l-80 267h-2l-81 -267h163zM400 880h150v-140h-150v140zM160 880h150v-140h-150v140z" />
    <glyph glyph-name="Aring" unicode="&#xc5;" horiz-adv-x="710" 
d="M240 700h230l250 -700h-200l-47 148h-247l-46 -148h-190zM431 283l-80 267h-2l-81 -267h163zM305 828q0 -20 14 -34t36 -14t36 14t14 34t-14 34t-36 14t-36 -14t-14 -34zM237 828q0 23 9.5 43.5t26 35.5t37.5 24t45 9q25 0 46.5 -9t37.5 -24.5t25 -36t9 -42.5
q0 -23 -9 -43t-25 -35.5t-37.5 -24.5t-46.5 -9q-24 0 -45 9t-37.5 24t-26 35.5t-9.5 43.5z" />
    <glyph glyph-name="AE" unicode="&#xc6;" horiz-adv-x="1003" 
d="M471 568h-9l-139 -286h148v286zM355 700h588v-132h-286v-145h268v-132h-268v-159h298v-132h-484v149h-213l-73 -149h-195z" />
    <glyph glyph-name="Ccedilla" unicode="&#xc7;" horiz-adv-x="667" 
d="M450 -12q-107 0 -184.5 27.5t-127.5 76.5t-74.5 114.5t-24.5 142.5q0 93 30 161.5t83.5 113t126.5 66.5t160 22q29 0 81 -6t126 -30v-151q-16 9 -38.5 17.5t-48.5 15.5t-54 11.5t-55 4.5q-53 0 -93.5 -16.5t-68.5 -46.5t-42.5 -71.5t-14.5 -92.5q0 -53 17.5 -94t48 -69.5
t73.5 -43t94 -14.5q39 0 89 10.5t93 27.5v-148q-56 -15 -100.5 -21.5t-95.5 -6.5zM405 -222q-26 0 -49 9.5t-36 19.5l25 57q25 -20 55 -20q17 0 26.5 9.5t9.5 23.5t-10.5 23.5t-30.5 9.5q-11 0 -18.5 -1t-16.5 -4l25 95h70l-10 -42q13 0 26.5 -5t24 -15t17.5 -25t7 -36
q0 -44 -29.5 -71.5t-85.5 -27.5z" />
    <glyph glyph-name="Egrave" unicode="&#xc8;" horiz-adv-x="616" 
d="M65 700h492v-132h-306v-145h289v-132h-289v-159h317v-132h-503v700zM280 740l-134 140h196l72 -140h-134z" />
    <glyph glyph-name="Eacute" unicode="&#xc9;" horiz-adv-x="616" 
d="M65 700h492v-132h-306v-145h289v-132h-289v-159h317v-132h-503v700zM304 880h196l-134 -140h-134z" />
    <glyph glyph-name="Ecircumflex" unicode="&#xca;" horiz-adv-x="616" 
d="M65 700h492v-132h-306v-145h289v-132h-289v-159h317v-132h-503v700zM229 880h170l115 -140h-132l-68 74l-72 -74h-132z" />
    <glyph glyph-name="Edieresis" unicode="&#xcb;" horiz-adv-x="616" 
d="M65 700h492v-132h-306v-145h289v-132h-289v-159h317v-132h-503v700zM356 880h150v-140h-150v140zM116 880h150v-140h-150v140z" />
    <glyph glyph-name="Igrave" unicode="&#xcc;" horiz-adv-x="316" 
d="M65 700h186v-700h-186v700zM133 740l-134 140h196l72 -140h-134z" />
    <glyph glyph-name="Iacute" unicode="&#xcd;" horiz-adv-x="316" 
d="M65 700h186v-700h-186v700zM123 880h196l-134 -140h-134z" />
    <glyph glyph-name="Icircumflex" unicode="&#xce;" horiz-adv-x="316" 
d="M65 700h186v-700h-186v700zM76 880h170l115 -140h-132l-68 74l-72 -74h-132z" />
    <glyph glyph-name="Idieresis" unicode="&#xcf;" horiz-adv-x="340" 
d="M77 700h186v-700h-186v700zM145 880v-140h-120v140h120zM315 880v-140h-120v140h120z" />
    <glyph glyph-name="Eth" unicode="&#xd0;" horiz-adv-x="778" 
d="M65 313h-67v102h67v285h254q187 2 298 -71q114 -77 115 -276q-2 -194 -116 -274q-117 -80 -297 -79h-254v313zM251 415h167v-102h-167v-175h72q215 0 217 212q-3 211 -217 212h-72v-147z" />
    <glyph glyph-name="Ntilde" unicode="&#xd1;" horiz-adv-x="772" 
d="M65 700h237l236 -475h2l-3 475h170v-700h-231l-244 478h-2l6 -478h-171v700zM594 879q-5 -38 -16 -61t-23 -37q-11 -13 -33.5 -28t-63.5 -15q-11 0 -26.5 3t-25.5 6l-21 7q-24 8 -40.5 14t-35.5 6q-28 0 -40 -14q-9 -11 -11 -25h-76q2 18 10.5 45.5t28.5 52.5
q10 13 32 28t63 15q33 0 69 -13l14 -5q13 -5 29 -11.5t38 -6.5q3 0 10.5 0.5t16 4t16 11.5t9.5 23h76z" />
    <glyph glyph-name="Ograve" unicode="&#xd2;" horiz-adv-x="778" 
d="M389 574q-42 0 -70 -17t-45 -40q-14 -19 -22.5 -41t-13 -44.5t-6 -43.5t-1.5 -38t1.5 -38t6 -43.5t13 -44.5t22.5 -41q17 -23 45 -40t70 -17t70 17t45 40q14 19 22.5 41t13 44.5t6 43.5t1.5 38t-1.5 38t-6 43.5t-13 44.5t-22.5 41q-17 23 -45 40t-70 17zM389 712
q22 0 53.5 -2.5t66.5 -12t70.5 -28t67.5 -50.5q31 -31 49 -67.5t27.5 -72.5t12.5 -69.5t3 -59.5t-3 -59.5t-12.5 -69.5t-27.5 -72.5t-49 -67.5q-32 -32 -67.5 -50.5t-70.5 -28t-66.5 -12t-53.5 -2.5t-53.5 2.5t-66.5 12t-71 28t-67 50.5q-31 31 -49 67.5t-27.5 72.5
t-12.5 69.5t-3 59.5t3 59.5t12.5 69.5t27.5 72.5t49 67.5q31 32 67 50.5t71 28t66.5 12t53.5 2.5zM322 740l-134 140h196l72 -140h-134z" />
    <glyph glyph-name="Oacute" unicode="&#xd3;" horiz-adv-x="778" 
d="M389 574q-42 0 -70 -17t-45 -40q-14 -19 -22.5 -41t-13 -44.5t-6 -43.5t-1.5 -38t1.5 -38t6 -43.5t13 -44.5t22.5 -41q17 -23 45 -40t70 -17t70 17t45 40q14 19 22.5 41t13 44.5t6 43.5t1.5 38t-1.5 38t-6 43.5t-13 44.5t-22.5 41q-17 23 -45 40t-70 17zM389 712
q22 0 53.5 -2.5t66.5 -12t70.5 -28t67.5 -50.5q31 -31 49 -67.5t27.5 -72.5t12.5 -69.5t3 -59.5t-3 -59.5t-12.5 -69.5t-27.5 -72.5t-49 -67.5q-32 -32 -67.5 -50.5t-70.5 -28t-66.5 -12t-53.5 -2.5t-53.5 2.5t-66.5 12t-71 28t-67 50.5q-31 31 -49 67.5t-27.5 72.5
t-12.5 69.5t-3 59.5t3 59.5t12.5 69.5t27.5 72.5t49 67.5q31 32 67 50.5t71 28t66.5 12t53.5 2.5zM394 880h196l-134 -140h-134z" />
    <glyph glyph-name="Ocircumflex" unicode="&#xd4;" horiz-adv-x="778" 
d="M389 574q-42 0 -70 -17t-45 -40q-14 -19 -22.5 -41t-13 -44.5t-6 -43.5t-1.5 -38t1.5 -38t6 -43.5t13 -44.5t22.5 -41q17 -23 45 -40t70 -17t70 17t45 40q14 19 22.5 41t13 44.5t6 43.5t1.5 38t-1.5 38t-6 43.5t-13 44.5t-22.5 41q-17 23 -45 40t-70 17zM389 712
q22 0 53.5 -2.5t66.5 -12t70.5 -28t67.5 -50.5q31 -31 49 -67.5t27.5 -72.5t12.5 -69.5t3 -59.5t-3 -59.5t-12.5 -69.5t-27.5 -72.5t-49 -67.5q-32 -32 -67.5 -50.5t-70.5 -28t-66.5 -12t-53.5 -2.5t-53.5 2.5t-66.5 12t-71 28t-67 50.5q-31 31 -49 67.5t-27.5 72.5
t-12.5 69.5t-3 59.5t3 59.5t12.5 69.5t27.5 72.5t49 67.5q31 32 67 50.5t71 28t66.5 12t53.5 2.5zM298 880h170l115 -140h-132l-68 74l-72 -74h-132z" />
    <glyph glyph-name="Otilde" unicode="&#xd5;" horiz-adv-x="778" 
d="M389 574q-42 0 -70 -17t-45 -40q-14 -19 -22.5 -41t-13 -44.5t-6 -43.5t-1.5 -38t1.5 -38t6 -43.5t13 -44.5t22.5 -41q17 -23 45 -40t70 -17t70 17t45 40q14 19 22.5 41t13 44.5t6 43.5t1.5 38t-1.5 38t-6 43.5t-13 44.5t-22.5 41q-17 23 -45 40t-70 17zM389 712
q22 0 53.5 -2.5t66.5 -12t70.5 -28t67.5 -50.5q31 -31 49 -67.5t27.5 -72.5t12.5 -69.5t3 -59.5t-3 -59.5t-12.5 -69.5t-27.5 -72.5t-49 -67.5q-32 -32 -67.5 -50.5t-70.5 -28t-66.5 -12t-53.5 -2.5t-53.5 2.5t-66.5 12t-71 28t-67 50.5q-31 31 -49 67.5t-27.5 72.5
t-12.5 69.5t-3 59.5t3 59.5t12.5 69.5t27.5 72.5t49 67.5q31 32 67 50.5t71 28t66.5 12t53.5 2.5zM595 879q-5 -38 -16 -61t-23 -37q-11 -13 -33.5 -28t-63.5 -15q-11 0 -26.5 3t-25.5 6l-21 7q-24 8 -40.5 14t-35.5 6q-28 0 -40 -14q-9 -11 -11 -25h-76q2 18 10.5 45.5
t28.5 52.5q10 13 32 28t63 15q33 0 69 -13l14 -5q13 -5 29 -11.5t38 -6.5q3 0 10.5 0.5t16 4t16 11.5t9.5 23h76z" />
    <glyph glyph-name="Odieresis" unicode="&#xd6;" horiz-adv-x="778" 
d="M389 574q-42 0 -70 -17t-45 -40q-14 -19 -22.5 -41t-13 -44.5t-6 -43.5t-1.5 -38t1.5 -38t6 -43.5t13 -44.5t22.5 -41q17 -23 45 -40t70 -17t70 17t45 40q14 19 22.5 41t13 44.5t6 43.5t1.5 38t-1.5 38t-6 43.5t-13 44.5t-22.5 41q-17 23 -45 40t-70 17zM389 712
q22 0 53.5 -2.5t66.5 -12t70.5 -28t67.5 -50.5q31 -31 49 -67.5t27.5 -72.5t12.5 -69.5t3 -59.5t-3 -59.5t-12.5 -69.5t-27.5 -72.5t-49 -67.5q-32 -32 -67.5 -50.5t-70.5 -28t-66.5 -12t-53.5 -2.5t-53.5 2.5t-66.5 12t-71 28t-67 50.5q-31 31 -49 67.5t-27.5 72.5
t-12.5 69.5t-3 59.5t3 59.5t12.5 69.5t27.5 72.5t49 67.5q31 32 67 50.5t71 28t66.5 12t53.5 2.5zM434 880h150v-140h-150v140zM194 880h150v-140h-150v140z" />
    <glyph glyph-name="multiply" unicode="&#xd7;" 
d="M80 196l152 152l-152 152l95 95l152 -152l152 152l91 -91l-153 -152l153 -152l-95 -95l-152 152l-152 -152z" />
    <glyph glyph-name="Oslash" unicode="&#xd8;" horiz-adv-x="778" 
d="M106 114q-67 91 -67 236q1 356 350 362q135 -2 216 -59l84 91l64 -60l-84 -91q70 -91 70 -243q-1 -354 -350 -362q-139 2 -222 64l-88 -95l-64 60zM282 176q35 -48 107 -50q85 1 122 70q36 64 36 154q0 54 -12 98zM492 531q-37 42 -103 43q-83 -2 -120 -65
q-38 -67 -38 -159q0 -45 11 -89z" />
    <glyph glyph-name="Ugrave" unicode="&#xd9;" horiz-adv-x="738" 
d="M675 266q0 -20 -2 -43.5t-8.5 -48t-19 -50t-33.5 -48.5q-27 -30 -59.5 -47.5t-65.5 -26.5t-64 -11.5t-54 -2.5t-54 2.5t-64 11.5t-65.5 26.5t-59.5 47.5q-21 23 -33.5 48.5t-19 50t-8.5 48t-2 43.5v434h186v-403q0 -9 0.5 -22.5t2.5 -29.5t6 -32t11 -29q9 -17 20.5 -28.5
t25 -18t27.5 -9t27 -2.5t27 2.5t27.5 9t25 18t20.5 28.5q7 13 11 29t6 32t2.5 29.5t0.5 22.5v403h186v-434zM335 740l-134 140h196l72 -140h-134z" />
    <glyph glyph-name="Uacute" unicode="&#xda;" horiz-adv-x="738" 
d="M675 266q0 -20 -2 -43.5t-8.5 -48t-19 -50t-33.5 -48.5q-27 -30 -59.5 -47.5t-65.5 -26.5t-64 -11.5t-54 -2.5t-54 2.5t-64 11.5t-65.5 26.5t-59.5 47.5q-21 23 -33.5 48.5t-19 50t-8.5 48t-2 43.5v434h186v-403q0 -9 0.5 -22.5t2.5 -29.5t6 -32t11 -29q9 -17 20.5 -28.5
t25 -18t27.5 -9t27 -2.5t27 2.5t27.5 9t25 18t20.5 28.5q7 13 11 29t6 32t2.5 29.5t0.5 22.5v403h186v-434zM344 880h196l-134 -140h-134z" />
    <glyph glyph-name="Ucircumflex" unicode="&#xdb;" horiz-adv-x="738" 
d="M675 266q0 -20 -2 -43.5t-8.5 -48t-19 -50t-33.5 -48.5q-27 -30 -59.5 -47.5t-65.5 -26.5t-64 -11.5t-54 -2.5t-54 2.5t-64 11.5t-65.5 26.5t-59.5 47.5q-21 23 -33.5 48.5t-19 50t-8.5 48t-2 43.5v434h186v-403q0 -9 0.5 -22.5t2.5 -29.5t6 -32t11 -29q9 -17 20.5 -28.5
t25 -18t27.5 -9t27 -2.5t27 2.5t27.5 9t25 18t20.5 28.5q7 13 11 29t6 32t2.5 29.5t0.5 22.5v403h186v-434zM289 880h170l115 -140h-132l-68 74l-72 -74h-132z" />
    <glyph glyph-name="Udieresis" unicode="&#xdc;" horiz-adv-x="738" 
d="M675 266q0 -20 -2 -43.5t-8.5 -48t-19 -50t-33.5 -48.5q-27 -30 -59.5 -47.5t-65.5 -26.5t-64 -11.5t-54 -2.5t-54 2.5t-64 11.5t-65.5 26.5t-59.5 47.5q-21 23 -33.5 48.5t-19 50t-8.5 48t-2 43.5v434h186v-403q0 -9 0.5 -22.5t2.5 -29.5t6 -32t11 -29q9 -17 20.5 -28.5
t25 -18t27.5 -9t27 -2.5t27 2.5t27.5 9t25 18t20.5 28.5q7 13 11 29t6 32t2.5 29.5t0.5 22.5v403h186v-434zM410 880h150v-140h-150v140zM170 880h150v-140h-150v140z" />
    <glyph glyph-name="Yacute" unicode="&#xdd;" horiz-adv-x="678" 
d="M247 264l-258 436h214l137 -281l135 281h214l-256 -436v-264h-186v264zM324 880h196l-134 -140h-134z" />
    <glyph glyph-name="Thorn" unicode="&#xde;" horiz-adv-x="621" 
d="M251 290h48q49 -1 82 21q31 22 33 75q-2 52 -33 75q-32 19 -82 19h-48v-190zM65 700h186v-87h36q314 6 313 -230q-5 -227 -277 -226h-72v-157h-186v700z" />
    <glyph glyph-name="germandbls" unicode="&#xdf;" horiz-adv-x="667" 
d="M56 494q0 85 27 138q27 52 68 81q22 14 45 24.5t48 15.5q49 9 96 9q101 1 179 -43q37 -24 60 -63q22 -40 22 -100q0 -68 -31 -108q-31 -39 -94 -61v-2q155 -30 152 -174q0 -65 -22 -106q-23 -43 -59 -66q-9 -6 -18.5 -10.5t-19.5 -8.5q-20 -9 -44 -15q-49 -11 -93 -11
q-56 2 -89 6v132q15 -2 33 -4t37 -2q20 0 38 6q18 5 29 16q13 12 21 33q7 18 7 48q-2 50 -26 74q-26 24 -65 24h-24q-7 0 -13 -0.5t-12 -1.5v128h25q37 0 63 27q25 25 25 68q-1 94 -86 94q-57 -2 -77 -41q-23 -41 -22 -94v-507h-180v494z" />
    <glyph glyph-name="agrave" unicode="&#xe0;" horiz-adv-x="607" 
d="M226 -12q-39 0 -74.5 10t-62 30t-42.5 50.5t-16 71.5q0 55 22.5 90t60 54.5t86 26.5t100.5 7h84q1 24 -9.5 40t-28 26t-39.5 14.5t-44 4.5q-38 0 -79 -8.5t-88 -32.5v124q41 17 91.5 27t113.5 10q51 0 97 -12t80 -38t54 -67t20 -99v-317h-159v82h-2q-26 -45 -68.5 -69.5
t-96.5 -24.5zM272 108q25 0 45 10t34 27t22 40t11 49h-70q-57 0 -86 -15t-29 -54q0 -29 23 -43t50 -14zM274 590l-130 160h186l70 -160h-126z" />
    <glyph glyph-name="aacute" unicode="&#xe1;" horiz-adv-x="607" 
d="M226 -12q-39 0 -74.5 10t-62 30t-42.5 50.5t-16 71.5q0 55 22.5 90t60 54.5t86 26.5t100.5 7h84q1 24 -9.5 40t-28 26t-39.5 14.5t-44 4.5q-38 0 -79 -8.5t-88 -32.5v124q41 17 91.5 27t113.5 10q51 0 97 -12t80 -38t54 -67t20 -99v-317h-159v82h-2q-26 -45 -68.5 -69.5
t-96.5 -24.5zM272 108q25 0 45 10t34 27t22 40t11 49h-70q-57 0 -86 -15t-29 -54q0 -29 23 -43t50 -14zM290 750h186l-130 -160h-126z" />
    <glyph glyph-name="acircumflex" unicode="&#xe2;" horiz-adv-x="607" 
d="M226 -12q-39 0 -74.5 10t-62 30t-42.5 50.5t-16 71.5q0 55 22.5 90t60 54.5t86 26.5t100.5 7h84q1 24 -9.5 40t-28 26t-39.5 14.5t-44 4.5q-38 0 -79 -8.5t-88 -32.5v124q41 17 91.5 27t113.5 10q51 0 97 -12t80 -38t54 -67t20 -99v-317h-159v82h-2q-26 -45 -68.5 -69.5
t-96.5 -24.5zM272 108q25 0 45 10t34 27t22 40t11 49h-70q-57 0 -86 -15t-29 -54q0 -29 23 -43t50 -14zM224 750h162l109 -160h-120l-70 90l-74 -90h-120z" />
    <glyph glyph-name="atilde" unicode="&#xe3;" horiz-adv-x="607" 
d="M226 -12q-39 0 -74.5 10t-62 30t-42.5 50.5t-16 71.5q0 55 22.5 90t60 54.5t86 26.5t100.5 7h84q1 24 -9.5 40t-28 26t-39.5 14.5t-44 4.5q-38 0 -79 -8.5t-88 -32.5v124q41 17 91.5 27t113.5 10q51 0 97 -12t80 -38t54 -67t20 -99v-317h-159v82h-2q-26 -45 -68.5 -69.5
t-96.5 -24.5zM272 108q25 0 45 10t34 27t22 40t11 49h-70q-57 0 -86 -15t-29 -54q0 -29 23 -43t50 -14zM500 729q-2 -18 -9 -45t-28 -53q-5 -6 -12 -13t-18.5 -14t-26.5 -11.5t-35 -4.5q-10 0 -24.5 2.5t-25.5 6.5l-20 7q-23 8 -38.5 14t-33.5 6q-9 0 -19.5 -2.5
t-18.5 -11.5q-9 -11 -11 -25h-72q3 30 13.5 55.5t23.5 42.5t34 30t56 13q22 0 38.5 -4t27.5 -9l13 -5q12 -5 28 -11.5t36 -6.5q3 0 10 0.5t15 4t15 11.5t10 23h72z" />
    <glyph glyph-name="adieresis" unicode="&#xe4;" horiz-adv-x="607" 
d="M226 -12q-39 0 -74.5 10t-62 30t-42.5 50.5t-16 71.5q0 55 22.5 90t60 54.5t86 26.5t100.5 7h84q1 24 -9.5 40t-28 26t-39.5 14.5t-44 4.5q-38 0 -79 -8.5t-88 -32.5v124q41 17 91.5 27t113.5 10q51 0 97 -12t80 -38t54 -67t20 -99v-317h-159v82h-2q-26 -45 -68.5 -69.5
t-96.5 -24.5zM272 108q25 0 45 10t34 27t22 40t11 49h-70q-57 0 -86 -15t-29 -54q0 -29 23 -43t50 -14zM345 738h144v-132h-144v132zM117 738h144v-132h-144v132z" />
    <glyph glyph-name="aring" unicode="&#xe5;" horiz-adv-x="607" 
d="M226 -12q-39 0 -74.5 10t-62 30t-42.5 50.5t-16 71.5q0 55 22.5 90t60 54.5t86 26.5t100.5 7h84q1 24 -9.5 40t-28 26t-39.5 14.5t-44 4.5q-38 0 -79 -8.5t-88 -32.5v124q41 17 91.5 27t113.5 10q51 0 97 -12t80 -38t54 -67t20 -99v-317h-159v82h-2q-26 -45 -68.5 -69.5
t-96.5 -24.5zM272 108q25 0 45 10t34 27t22 40t11 49h-70q-57 0 -86 -15t-29 -54q0 -29 23 -43t50 -14zM255 678q0 -20 14 -34t34 -14t34 14t14 34t-14 34t-34 14t-34 -14t-14 -34zM191 678q0 22 9 42.5t24.5 36t35.5 24.5t43 9q24 0 44.5 -9t35.5 -24.5t23.5 -36t8.5 -42.5
q0 -23 -8.5 -43t-23.5 -35.5t-35.5 -24.5t-44.5 -9q-23 0 -43 9t-35.5 24.5t-24.5 35.5t-9 43z" />
    <glyph glyph-name="ae" unicode="&#xe6;" horiz-adv-x="944" 
d="M217 -12q-37 0 -72 9t-62.5 28.5t-44 51t-16.5 76.5q0 55 24.5 89t63 52.5t86.5 24.5t95 6h84q0 50 -31 69t-88 19q-45 0 -88 -10t-81 -30v124q94 36 208 36q48 0 94.5 -13t80.5 -51q35 31 80 47.5t103 16.5q133 0 198.5 -77.5t65.5 -214.5v-33h-360q18 -100 153 -100
q78 0 159 40v-127q-89 -33 -191 -33q-35 0 -68 4.5t-63 17t-57 35.5t-49 60q-36 -65 -93.5 -91t-130.5 -26zM264 108q25 0 45.5 10.5t34.5 27.5t22 40t9 48h-69q-65 0 -90.5 -20t-25.5 -48q0 -25 18.5 -41.5t55.5 -16.5zM655 419q-45 0 -69.5 -29t-30.5 -80h200q0 53 -25 81
t-75 28z" />
    <glyph glyph-name="ccedilla" unicode="&#xe7;" horiz-adv-x="501" 
d="M339 -12q-68 0 -124.5 19t-97.5 54.5t-63.5 86t-22.5 112.5q0 61 22 111.5t62.5 86.5t97.5 55.5t128 19.5q32 0 66 -6t70 -23v-132q-32 19 -65.5 24t-50.5 5q-30 0 -56.5 -10t-45.5 -28.5t-30 -44.5t-11 -58q0 -38 14 -64.5t36 -43t49 -24.5t54 -8q17 0 46.5 4t64.5 21
v-134q-19 -6 -54.5 -14.5t-88.5 -8.5zM295 -222q-26 0 -49 9.5t-36 19.5l25 57q25 -20 55 -20q17 0 26.5 9.5t9.5 23.5t-10.5 23.5t-30.5 9.5q-11 0 -18.5 -1t-16.5 -4l25 95h70l-10 -42q13 0 26.5 -5t24 -15t17.5 -25t7 -36q0 -44 -29.5 -71.5t-85.5 -27.5z" />
    <glyph glyph-name="egrave" unicode="&#xe8;" horiz-adv-x="611" 
d="M411 310q1 18 -2.5 32t-8.5 24.5t-9.5 16t-5.5 7.5q-14 17 -33 23t-39 6t-38.5 -6.5t-34.5 -23.5q-12 -14 -20.5 -34t-8.5 -45h200zM213 208q4 -32 18.5 -49.5t23.5 -23.5q13 -9 28 -14.5t30 -8t29.5 -3.5t26.5 -1q22 0 62 6.5t94 33.5v-127q-27 -11 -72.5 -22
t-114.5 -11q-75 0 -130 20t-93 55q-15 13 -30 32t-27 43.5t-19.5 55.5t-7.5 69q0 18 2.5 42.5t11.5 52.5t26 56.5t45 52.5q29 25 76.5 45.5t118.5 20.5q16 0 39.5 -2t50.5 -10t54 -23.5t51 -42.5q30 -35 48.5 -89t18.5 -125v-33h-360zM294 590l-130 160h186l70 -160h-126z
" />
    <glyph glyph-name="eacute" unicode="&#xe9;" horiz-adv-x="611" 
d="M411 310q1 18 -2.5 32t-8.5 24.5t-9.5 16t-5.5 7.5q-14 17 -33 23t-39 6t-38.5 -6.5t-34.5 -23.5q-12 -14 -20.5 -34t-8.5 -45h200zM213 208q4 -32 18.5 -49.5t23.5 -23.5q13 -9 28 -14.5t30 -8t29.5 -3.5t26.5 -1q22 0 62 6.5t94 33.5v-127q-27 -11 -72.5 -22
t-114.5 -11q-75 0 -130 20t-93 55q-15 13 -30 32t-27 43.5t-19.5 55.5t-7.5 69q0 18 2.5 42.5t11.5 52.5t26 56.5t45 52.5q29 25 76.5 45.5t118.5 20.5q16 0 39.5 -2t50.5 -10t54 -23.5t51 -42.5q30 -35 48.5 -89t18.5 -125v-33h-360zM310 750h186l-130 -160h-126z" />
    <glyph glyph-name="ecircumflex" unicode="&#xea;" horiz-adv-x="611" 
d="M411 310q1 18 -2.5 32t-8.5 24.5t-9.5 16t-5.5 7.5q-14 17 -33 23t-39 6t-38.5 -6.5t-34.5 -23.5q-12 -14 -20.5 -34t-8.5 -45h200zM213 208q4 -32 18.5 -49.5t23.5 -23.5q13 -9 28 -14.5t30 -8t29.5 -3.5t26.5 -1q22 0 62 6.5t94 33.5v-127q-27 -11 -72.5 -22
t-114.5 -11q-75 0 -130 20t-93 55q-15 13 -30 32t-27 43.5t-19.5 55.5t-7.5 69q0 18 2.5 42.5t11.5 52.5t26 56.5t45 52.5q29 25 76.5 45.5t118.5 20.5q16 0 39.5 -2t50.5 -10t54 -23.5t51 -42.5q30 -35 48.5 -89t18.5 -125v-33h-360zM238 750h162l109 -160h-120l-70 90
l-74 -90h-120z" />
    <glyph glyph-name="edieresis" unicode="&#xeb;" horiz-adv-x="611" 
d="M411 310q1 18 -2.5 32t-8.5 24.5t-9.5 16t-5.5 7.5q-14 17 -33 23t-39 6t-38.5 -6.5t-34.5 -23.5q-12 -14 -20.5 -34t-8.5 -45h200zM213 208q4 -32 18.5 -49.5t23.5 -23.5q13 -9 28 -14.5t30 -8t29.5 -3.5t26.5 -1q22 0 62 6.5t94 33.5v-127q-27 -11 -72.5 -22
t-114.5 -11q-75 0 -130 20t-93 55q-15 13 -30 32t-27 43.5t-19.5 55.5t-7.5 69q0 18 2.5 42.5t11.5 52.5t26 56.5t45 52.5q29 25 76.5 45.5t118.5 20.5q16 0 39.5 -2t50.5 -10t54 -23.5t51 -42.5q30 -35 48.5 -89t18.5 -125v-33h-360zM348 738h144v-132h-144v132zM120 738
h144v-132h-144v132z" />
    <glyph glyph-name="igrave" unicode="&#xec;" horiz-adv-x="334" 
d="M77 521h180v-521h-180v521zM142 590l-130 160h186l70 -160h-126z" />
    <glyph glyph-name="iacute" unicode="&#xed;" horiz-adv-x="334" 
d="M77 521h180v-521h-180v521zM138 750h186l-130 -160h-126z" />
    <glyph glyph-name="icircumflex" unicode="&#xee;" horiz-adv-x="334" 
d="M77 521h180v-521h-180v521zM89 750h162l109 -160h-120l-70 90l-74 -90h-120z" />
    <glyph glyph-name="idieresis" unicode="&#xef;" horiz-adv-x="334" 
d="M77 521h180v-521h-180v521zM143 738v-132h-120v132h120zM311 738v-132h-120v132h120z" />
    <glyph glyph-name="eth" unicode="&#xf0;" horiz-adv-x="668" 
d="M188 643q-23 10 -45.5 18t-43.5 16l104 109q84 -29 155 -66l146 66l62 -64l-120 -54q87 -57 139 -148q50 -88 52 -218q-3 -308 -311 -314q-291 -1 -295 261q2 109 69 182q68 75 175 76q49 0 95 -17q44 -18 65 -64l2 2q-18 56 -58 97q-20 20 -44 37.5t-50 32.5l-144 -66
l-60 65zM217 249q0 -26 7 -47q6 -26 19 -44q25 -42 87 -44q66 2 94 44q27 40 27 92t-27 91q-28 38 -94 40q-62 -2 -87 -40q-26 -40 -26 -92z" />
    <glyph glyph-name="ntilde" unicode="&#xf1;" horiz-adv-x="667" 
d="M56 521h164v-96h2q14 30 35 50.5t47 33.5q32 16 63 20t45 4q43 0 79 -12t64 -41q18 -18 37 -56t19 -99v-325h-180v252q0 11 -1 26t-4 30.5t-9.5 30.5t-18.5 26t-25 14.5t-26 3.5q-16 0 -37 -5.5t-40 -26.5q-12 -13 -18.5 -30.5t-10 -35.5t-4.5 -35t-1 -30v-220h-180v521z
M529 729q-2 -18 -9 -45t-28 -53q-5 -6 -12 -13t-18.5 -14t-26.5 -11.5t-35 -4.5q-10 0 -24.5 2.5t-25.5 6.5l-20 7q-23 8 -38.5 14t-33.5 6q-9 0 -19.5 -2.5t-18.5 -11.5q-9 -11 -11 -25h-72q3 30 13.5 55.5t23.5 42.5t34 30t56 13q22 0 38.5 -4t27.5 -9l13 -5
q12 -5 28 -11.5t36 -6.5q3 0 10 0.5t15 4t15 11.5t10 23h72z" />
    <glyph glyph-name="ograve" unicode="&#xf2;" horiz-adv-x="668" 
d="M334 407q-50 0 -81 -34q-23 -26 -29.5 -56.5t-6.5 -56.5t6.5 -56.5t29.5 -56.5q31 -34 81 -34t81 34q23 26 29.5 56.5t6.5 56.5t-6.5 56.5t-29.5 56.5q-31 34 -81 34zM334 533q63 0 116 -17t91 -47q16 -12 33 -30.5t31 -44t23 -59t9 -75.5t-9 -75.5t-23 -59t-31 -44
t-33 -30.5q-26 -21 -54 -33t-55 -19t-52.5 -9t-45.5 -2t-45.5 2t-52.5 9t-55 19t-54 33q-16 12 -33 30.5t-31 44t-23 59t-9 75.5t9 75.5t23 59t31 44t33 30.5q38 30 91 47t116 17zM271 590l-130 160h186l70 -160h-126z" />
    <glyph glyph-name="oacute" unicode="&#xf3;" horiz-adv-x="668" 
d="M334 407q-50 0 -81 -34q-23 -26 -29.5 -56.5t-6.5 -56.5t6.5 -56.5t29.5 -56.5q31 -34 81 -34t81 34q23 26 29.5 56.5t6.5 56.5t-6.5 56.5t-29.5 56.5q-31 34 -81 34zM334 533q63 0 116 -17t91 -47q16 -12 33 -30.5t31 -44t23 -59t9 -75.5t-9 -75.5t-23 -59t-31 -44
t-33 -30.5q-26 -21 -54 -33t-55 -19t-52.5 -9t-45.5 -2t-45.5 2t-52.5 9t-55 19t-54 33q-16 12 -33 30.5t-31 44t-23 59t-9 75.5t9 75.5t23 59t31 44t33 30.5q38 30 91 47t116 17zM310 750h186l-130 -160h-126z" />
    <glyph glyph-name="ocircumflex" unicode="&#xf4;" horiz-adv-x="668" 
d="M334 407q-50 0 -81 -34q-23 -26 -29.5 -56.5t-6.5 -56.5t6.5 -56.5t29.5 -56.5q31 -34 81 -34t81 34q23 26 29.5 56.5t6.5 56.5t-6.5 56.5t-29.5 56.5q-31 34 -81 34zM334 533q63 0 116 -17t91 -47q16 -12 33 -30.5t31 -44t23 -59t9 -75.5t-9 -75.5t-23 -59t-31 -44
t-33 -30.5q-26 -21 -54 -33t-55 -19t-52.5 -9t-45.5 -2t-45.5 2t-52.5 9t-55 19t-54 33q-16 12 -33 30.5t-31 44t-23 59t-9 75.5t9 75.5t23 59t31 44t33 30.5q38 30 91 47t116 17zM255 750h162l109 -160h-120l-70 90l-74 -90h-120z" />
    <glyph glyph-name="otilde" unicode="&#xf5;" horiz-adv-x="668" 
d="M334 407q-50 0 -81 -34q-23 -26 -29.5 -56.5t-6.5 -56.5t6.5 -56.5t29.5 -56.5q31 -34 81 -34t81 34q23 26 29.5 56.5t6.5 56.5t-6.5 56.5t-29.5 56.5q-31 34 -81 34zM334 533q63 0 116 -17t91 -47q16 -12 33 -30.5t31 -44t23 -59t9 -75.5t-9 -75.5t-23 -59t-31 -44
t-33 -30.5q-26 -21 -54 -33t-55 -19t-52.5 -9t-45.5 -2t-45.5 2t-52.5 9t-55 19t-54 33q-16 12 -33 30.5t-31 44t-23 59t-9 75.5t9 75.5t23 59t31 44t33 30.5q38 30 91 47t116 17zM530 729q-2 -18 -9 -45t-28 -53q-5 -6 -12 -13t-18.5 -14t-26.5 -11.5t-35 -4.5
q-10 0 -24.5 2.5t-25.5 6.5l-20 7q-23 8 -38.5 14t-33.5 6q-9 0 -19.5 -2.5t-18.5 -11.5q-9 -11 -11 -25h-72q3 30 13.5 55.5t23.5 42.5t34 30t56 13q22 0 38.5 -4t27.5 -9l13 -5q12 -5 28 -11.5t36 -6.5q3 0 10 0.5t15 4t15 11.5t10 23h72z" />
    <glyph glyph-name="odieresis" unicode="&#xf6;" horiz-adv-x="668" 
d="M334 407q-50 0 -81 -34q-23 -26 -29.5 -56.5t-6.5 -56.5t6.5 -56.5t29.5 -56.5q31 -34 81 -34t81 34q23 26 29.5 56.5t6.5 56.5t-6.5 56.5t-29.5 56.5q-31 34 -81 34zM334 533q63 0 116 -17t91 -47q16 -12 33 -30.5t31 -44t23 -59t9 -75.5t-9 -75.5t-23 -59t-31 -44
t-33 -30.5q-26 -21 -54 -33t-55 -19t-52.5 -9t-45.5 -2t-45.5 2t-52.5 9t-55 19t-54 33q-16 12 -33 30.5t-31 44t-23 59t-9 75.5t9 75.5t23 59t31 44t33 30.5q38 30 91 47t116 17zM376 738h144v-132h-144v132zM148 738h144v-132h-144v132z" />
    <glyph glyph-name="divide" unicode="&#xf7;" 
d="M50 425h550v-150h-550v150zM325 57q-19 0 -36 7.5t-29.5 20t-20 29.5t-7.5 36t7.5 36t20 29.5t29.5 20t36 7.5t36 -7.5t29.5 -20t20 -29.5t7.5 -36t-7.5 -36t-20 -29.5t-29.5 -20t-36 -7.5zM325 457q-19 0 -36 7.5t-29.5 20t-20 29.5t-7.5 36t7.5 36t20 29.5t29.5 20
t36 7.5t36 -7.5t29.5 -20t20 -29.5t7.5 -36t-7.5 -36t-20 -29.5t-29.5 -20t-36 -7.5z" />
    <glyph glyph-name="oslash" unicode="&#xf8;" horiz-adv-x="668" 
d="M100 77q-68 67 -69 183q2 132 88 202q83 69 215 71q95 0 167 -39l75 78l61 -58l-68 -71q66 -68 68 -183q-1 -130 -86 -200q-86 -71 -217 -72q-93 0 -166 39l-75 -78l-61 58zM399 388q-25 19 -65 19q-61 -1 -89 -44q-28 -41 -28 -103q0 -30 6 -55zM270 133q25 -19 64 -19
q61 1 90 45q27 42 27 101q0 28 -6 54z" />
    <glyph glyph-name="ugrave" unicode="&#xf9;" horiz-adv-x="667" 
d="M611 0h-164v96h-2q-14 -30 -35 -50.5t-47 -33.5q-16 -8 -32.5 -13t-30.5 -7.5t-26 -3t-19 -0.5q-43 0 -79 12t-64 41q-18 18 -37 56t-19 99v325h180v-252q0 -11 1 -26t4 -30.5t9.5 -30.5t18.5 -26t25 -14.5t26 -3.5q16 0 37 5.5t40 26.5q12 13 18.5 30t10 35t4.5 35.5
t1 30.5v220h180v-521zM314 590l-130 160h186l70 -160h-126z" />
    <glyph glyph-name="uacute" unicode="&#xfa;" horiz-adv-x="667" 
d="M611 0h-164v96h-2q-14 -30 -35 -50.5t-47 -33.5q-16 -8 -32.5 -13t-30.5 -7.5t-26 -3t-19 -0.5q-43 0 -79 12t-64 41q-18 18 -37 56t-19 99v325h180v-252q0 -11 1 -26t4 -30.5t9.5 -30.5t18.5 -26t25 -14.5t26 -3.5q16 0 37 5.5t40 26.5q12 13 18.5 30t10 35t4.5 35.5
t1 30.5v220h180v-521zM310 750h186l-130 -160h-126z" />
    <glyph glyph-name="ucircumflex" unicode="&#xfb;" horiz-adv-x="667" 
d="M611 0h-164v96h-2q-14 -30 -35 -50.5t-47 -33.5q-16 -8 -32.5 -13t-30.5 -7.5t-26 -3t-19 -0.5q-43 0 -79 12t-64 41q-18 18 -37 56t-19 99v325h180v-252q0 -11 1 -26t4 -30.5t9.5 -30.5t18.5 -26t25 -14.5t26 -3.5q16 0 37 5.5t40 26.5q12 13 18.5 30t10 35t4.5 35.5
t1 30.5v220h180v-521zM254 750h162l109 -160h-120l-70 90l-74 -90h-120z" />
    <glyph glyph-name="udieresis" unicode="&#xfc;" horiz-adv-x="667" 
d="M611 0h-164v96h-2q-14 -30 -35 -50.5t-47 -33.5q-16 -8 -32.5 -13t-30.5 -7.5t-26 -3t-19 -0.5q-43 0 -79 12t-64 41q-18 18 -37 56t-19 99v325h180v-252q0 -11 1 -26t4 -30.5t9.5 -30.5t18.5 -26t25 -14.5t26 -3.5q16 0 37 5.5t40 26.5q12 13 18.5 30t10 35t4.5 35.5
t1 30.5v220h180v-521zM375 738h144v-132h-144v132zM147 738h144v-132h-144v132z" />
    <glyph glyph-name="yacute" unicode="&#xfd;" horiz-adv-x="605" 
d="M144 -222q-17 0 -40 2t-59 10v140q18 -7 36 -10.5t41 -3.5q25 0 41 6.5t25 14.5q12 10 19.5 24.5t11.5 26.5l-211 533h194l112 -340h2l107 340h180l-200 -507l-17 -42.5t-18 -42.5q-10 -22 -29.5 -55t-54.5 -59q-33 -24 -66 -30.5t-74 -6.5zM319 750h186l-130 -160h-126z
" />
    <glyph glyph-name="thorn" unicode="&#xfe;" horiz-adv-x="668" 
d="M451 266q0 53 -27 91q-28 36 -82 38q-51 -2 -79 -38q-31 -37 -31 -98q1 -58 33 -94q32 -38 77 -39q53 0 81 40q28 37 28 100zM52 750h181v-296h2q70 80 179 79t166 -84q57 -80 57 -179q0 -119 -60 -198q-60 -83 -178 -84q-47 0 -93 20t-72 65h-2v-283h-180v960z" />
    <glyph glyph-name="ydieresis" unicode="&#xff;" horiz-adv-x="605" 
d="M144 -222q-17 0 -40 2t-59 10v140q18 -7 36 -10.5t41 -3.5q25 0 41 6.5t25 14.5q12 10 19.5 24.5t11.5 26.5l-211 533h194l112 -340h2l107 340h180l-200 -507l-17 -42.5t-18 -42.5q-10 -22 -29.5 -55t-54.5 -59q-33 -24 -66 -30.5t-74 -6.5zM354 738h144v-132h-144v132z
M126 738h144v-132h-144v132z" />
    <glyph glyph-name="Amacron" unicode="&#x100;" horiz-adv-x="710" 
d="M240 700h230l250 -700h-200l-47 148h-247l-46 -148h-190zM431 283l-80 267h-2l-81 -267h163zM168 857h375v-84h-375v84z" />
    <glyph glyph-name="amacron" unicode="&#x101;" horiz-adv-x="607" 
d="M226 -12q-39 0 -74.5 10t-62 30t-42.5 50.5t-16 71.5q0 55 22.5 90t60 54.5t86 26.5t100.5 7h84q1 24 -9.5 40t-28 26t-39.5 14.5t-44 4.5q-38 0 -79 -8.5t-88 -32.5v124q41 17 91.5 27t113.5 10q51 0 97 -12t80 -38t54 -67t20 -99v-317h-159v82h-2q-26 -45 -68.5 -69.5
t-96.5 -24.5zM272 108q25 0 45 10t34 27t22 40t11 49h-70q-57 0 -86 -15t-29 -54q0 -29 23 -43t50 -14zM123 707h375v-84h-375v84z" />
    <glyph glyph-name="Abreve" unicode="&#x102;" horiz-adv-x="710" 
d="M240 700h230l250 -700h-200l-47 148h-247l-46 -148h-190zM431 283l-80 267h-2l-81 -267h163zM355 830q40 0 57 4t24 7q15 8 22 18t9 21h90q-2 -25 -14.5 -52t-44.5 -51q-35 -26 -69 -31.5t-74 -5.5t-74 5.5t-69 31.5q-32 24 -44.5 51t-14.5 52h90q2 -11 9 -21t22 -18
q7 -3 24 -7t57 -4z" />
    <glyph glyph-name="abreve" unicode="&#x103;" horiz-adv-x="607" 
d="M226 -12q-39 0 -74.5 10t-62 30t-42.5 50.5t-16 71.5q0 55 22.5 90t60 54.5t86 26.5t100.5 7h84q1 24 -9.5 40t-28 26t-39.5 14.5t-44 4.5q-38 0 -79 -8.5t-88 -32.5v124q41 17 91.5 27t113.5 10q51 0 97 -12t80 -38t54 -67t20 -99v-317h-159v82h-2q-26 -45 -68.5 -69.5
t-96.5 -24.5zM272 108q25 0 45 10t34 27t22 40t11 49h-70q-57 0 -86 -15t-29 -54q0 -29 23 -43t50 -14zM500 750q-2 -38 -18 -68.5t-39 -50.5q-29 -26 -64.5 -33.5t-68.5 -7.5t-68.5 7.5t-64.5 33.5q-23 20 -39 50.5t-18 68.5h90q4 -19 13.5 -32.5t21.5 -21.5t29.5 -12
t35.5 -4t35.5 4t29.5 12t21.5 21.5t13.5 32.5h90z" />
    <glyph glyph-name="Aogonek" unicode="&#x104;" horiz-adv-x="710" 
d="M240 700h230l250 -700h-200l-47 148h-247l-46 -148h-190zM431 283l-80 267h-2l-81 -267h163zM625 -222q-45 0 -70 23.5t-25 58.5q0 80 90 140h100q-58 -36 -79 -62.5t-21 -47.5q0 -32 35 -32q24 0 49 14l16 -69q-19 -11 -41.5 -18t-53.5 -7z" />
    <glyph glyph-name="aogonek" unicode="&#x105;" horiz-adv-x="607" 
d="M226 -12q-39 0 -74.5 10t-62 30t-42.5 50.5t-16 71.5q0 55 22.5 90t60 54.5t86 26.5t100.5 7h84q1 24 -9.5 40t-28 26t-39.5 14.5t-44 4.5q-38 0 -79 -8.5t-88 -32.5v124q41 17 91.5 27t113.5 10q51 0 97 -12t80 -38t54 -67t20 -99v-317h-159v82h-2q-26 -45 -68.5 -69.5
t-96.5 -24.5zM272 108q25 0 45 10t34 27t22 40t11 49h-70q-57 0 -86 -15t-29 -54q0 -29 23 -43t50 -14zM462 -222q-42 0 -66 23.5t-24 58.5q0 42 21.5 76t63.5 64h95q-29 -18 -47.5 -33.5t-29 -29t-14.5 -25.5t-4 -22q0 -32 35 -32q13 0 22.5 3.5t21.5 10.5l16 -69
q-19 -11 -39 -18t-51 -7z" />
    <glyph glyph-name="Cacute" unicode="&#x106;" horiz-adv-x="667" 
d="M450 -12q-107 0 -184.5 27.5t-127.5 76.5t-74.5 114.5t-24.5 142.5q0 93 30 161.5t83.5 113t126.5 66.5t160 22q29 0 81 -6t126 -30v-151q-16 9 -38.5 17.5t-48.5 15.5t-54 11.5t-55 4.5q-53 0 -93.5 -16.5t-68.5 -46.5t-42.5 -71.5t-14.5 -92.5q0 -53 17.5 -94t48 -69.5
t73.5 -43t94 -14.5q39 0 89 10.5t93 27.5v-148q-56 -15 -100.5 -21.5t-95.5 -6.5zM425 880h196l-134 -140h-134z" />
    <glyph glyph-name="cacute" unicode="&#x107;" horiz-adv-x="501" 
d="M339 -12q-68 0 -124.5 19t-97.5 54.5t-63.5 86t-22.5 112.5q0 61 22 111.5t62.5 86.5t97.5 55.5t128 19.5q32 0 66 -6t70 -23v-132q-32 19 -65.5 24t-50.5 5q-30 0 -56.5 -10t-45.5 -28.5t-30 -44.5t-11 -58q0 -38 14 -64.5t36 -43t49 -24.5t54 -8q17 0 46.5 4t64.5 21
v-134q-19 -6 -54.5 -14.5t-88.5 -8.5zM317 750h186l-130 -160h-126z" />
    <glyph glyph-name="Ccircumflex" unicode="&#x108;" horiz-adv-x="667" 
d="M450 -12q-107 0 -184.5 27.5t-127.5 76.5t-74.5 114.5t-24.5 142.5q0 93 30 161.5t83.5 113t126.5 66.5t160 22q29 0 81 -6t126 -30v-151q-16 9 -38.5 17.5t-48.5 15.5t-54 11.5t-55 4.5q-53 0 -93.5 -16.5t-68.5 -46.5t-42.5 -71.5t-14.5 -92.5q0 -53 17.5 -94t48 -69.5
t73.5 -43t94 -14.5q39 0 89 10.5t93 27.5v-148q-56 -15 -100.5 -21.5t-95.5 -6.5zM337 880h170l115 -140h-132l-68 74l-72 -74h-132z" />
    <glyph glyph-name="ccircumflex" unicode="&#x109;" horiz-adv-x="501" 
d="M339 -12q-68 0 -124.5 19t-97.5 54.5t-63.5 86t-22.5 112.5q0 61 22 111.5t62.5 86.5t97.5 55.5t128 19.5q32 0 66 -6t70 -23v-132q-32 19 -65.5 24t-50.5 5q-30 0 -56.5 -10t-45.5 -28.5t-30 -44.5t-11 -58q0 -38 14 -64.5t36 -43t49 -24.5t54 -8q17 0 46.5 4t64.5 21
v-134q-19 -6 -54.5 -14.5t-88.5 -8.5zM231 750h162l109 -160h-120l-70 90l-74 -90h-120z" />
    <glyph glyph-name="Cdotaccent" unicode="&#x10a;" horiz-adv-x="667" 
d="M450 -12q-107 0 -184.5 27.5t-127.5 76.5t-74.5 114.5t-24.5 142.5q0 93 30 161.5t83.5 113t126.5 66.5t160 22q29 0 81 -6t126 -30v-151q-16 9 -38.5 17.5t-48.5 15.5t-54 11.5t-55 4.5q-53 0 -93.5 -16.5t-68.5 -46.5t-42.5 -71.5t-14.5 -92.5q0 -53 17.5 -94t48 -69.5
t73.5 -43t94 -14.5q39 0 89 10.5t93 27.5v-148q-56 -15 -100.5 -21.5t-95.5 -6.5zM513 880v-140h-186v140h186z" />
    <glyph glyph-name="cdotaccent" unicode="&#x10b;" horiz-adv-x="501" 
d="M339 -12q-68 0 -124.5 19t-97.5 54.5t-63.5 86t-22.5 112.5q0 61 22 111.5t62.5 86.5t97.5 55.5t128 19.5q32 0 66 -6t70 -23v-132q-32 19 -65.5 24t-50.5 5q-30 0 -56.5 -10t-45.5 -28.5t-30 -44.5t-11 -58q0 -38 14 -64.5t36 -43t49 -24.5t54 -8q17 0 46.5 4t64.5 21
v-134q-19 -6 -54.5 -14.5t-88.5 -8.5zM403 738v-132h-186v132h186z" />
    <glyph glyph-name="Ccaron" unicode="&#x10c;" horiz-adv-x="667" 
d="M450 -12q-107 0 -184.5 27.5t-127.5 76.5t-74.5 114.5t-24.5 142.5q0 93 30 161.5t83.5 113t126.5 66.5t160 22q29 0 81 -6t126 -30v-151q-16 9 -38.5 17.5t-48.5 15.5t-54 11.5t-55 4.5q-53 0 -93.5 -16.5t-68.5 -46.5t-42.5 -71.5t-14.5 -92.5q0 -53 17.5 -94t48 -69.5
t73.5 -43t94 -14.5q39 0 89 10.5t93 27.5v-148q-56 -15 -100.5 -21.5t-95.5 -6.5zM503 740h-170l-115 140h132l68 -74l72 74h132z" />
    <glyph glyph-name="ccaron" unicode="&#x10d;" horiz-adv-x="501" 
d="M339 -12q-68 0 -124.5 19t-97.5 54.5t-63.5 86t-22.5 112.5q0 61 22 111.5t62.5 86.5t97.5 55.5t128 19.5q32 0 66 -6t70 -23v-132q-32 19 -65.5 24t-50.5 5q-30 0 -56.5 -10t-45.5 -28.5t-30 -44.5t-11 -58q0 -38 14 -64.5t36 -43t49 -24.5t54 -8q17 0 46.5 4t64.5 21
v-134q-19 -6 -54.5 -14.5t-88.5 -8.5zM389 590h-162l-109 160h120l70 -90l74 90h120z" />
    <glyph glyph-name="Dcaron" unicode="&#x10e;" horiz-adv-x="778" 
d="M251 138h72q21 0 42.5 2t43.5 9t43 19t39 32q32 35 40.5 75t8.5 75q0 16 -2 36.5t-8.5 42t-18 42.5t-30.5 39q-20 19 -58 35.5t-100 16.5h-72v-424zM65 700h254q39 0 83.5 -3t88.5 -13.5t85.5 -31.5t75.5 -56q26 -27 41.5 -57t24 -61.5t11.5 -63t3 -61.5t-3.5 -63.5
t-14 -67.5t-30 -67.5t-52.5 -62.5q-35 -31 -76.5 -49.5t-83 -28t-81.5 -12t-72 -2.5h-254v700zM401 740h-170l-115 140h132l68 -74l72 74h132z" />
    <glyph glyph-name="dcaron" unicode="&#x10f;" horiz-adv-x="845" 
d="M216 262q0 -37 10 -63t26 -42t35.5 -23.5t37.5 -7.5q24 0 44 10.5t35 29t23 43t8 53.5q0 31 -9 55.5t-24 41.5t-35 26.5t-42 9.5q-18 0 -37.5 -7t-35 -22.5t-26 -41t-10.5 -62.5zM449 0v93h-2q-13 -28 -33 -48t-44.5 -32.5t-51 -18.5t-53.5 -6q-35 0 -63.5 8.5t-51 22
t-39 30.5t-28.5 33q-27 38 -40 86t-13 97q0 57 17 106t47 86q35 42 75.5 59t89.5 17q17 0 38.5 -2.5t44.5 -11t46 -24t44 -41.5h2v296h180v-750h-165zM695 750h170l-76 -190h-140z" />
    <glyph glyph-name="Dcroat" unicode="&#x110;" horiz-adv-x="778" 
d="M65 313h-67v102h67v285h254q187 2 298 -71q114 -77 115 -276q-2 -194 -116 -274q-117 -80 -297 -79h-254v313zM251 415h167v-102h-167v-175h72q215 0 217 212q-3 211 -217 212h-72v-147z" />
    <glyph glyph-name="dcroat" unicode="&#x111;" horiz-adv-x="696" 
d="M216 262q0 -37 10 -63t26 -42t35.5 -23.5t37.5 -7.5q24 0 44 10.5t35 29t23 43t8 53.5q0 31 -9 55.5t-24 41.5t-35 26.5t-42 9.5q-18 0 -37.5 -7t-35 -22.5t-26 -41t-10.5 -62.5zM30 265q0 57 17 106t47 86q35 42 75.5 59t89.5 17q17 0 38.5 -2.5t44.5 -11t46 -24
t44 -41.5h2v140h-212v70h212v86h180v-86h72v-70h-72v-594h-165v93h-2q-13 -28 -33 -48t-44.5 -32.5t-51 -18.5t-53.5 -6q-35 0 -63.5 8.5t-51 22t-39 30.5t-28.5 33q-27 38 -40 86t-13 97z" />
    <glyph glyph-name="Emacron" unicode="&#x112;" horiz-adv-x="616" 
d="M65 700h492v-132h-306v-145h289v-132h-289v-159h317v-132h-503v700zM118 857h375v-84h-375v84z" />
    <glyph glyph-name="emacron" unicode="&#x113;" horiz-adv-x="611" 
d="M411 310q1 18 -2.5 32t-8.5 24.5t-9.5 16t-5.5 7.5q-14 17 -33 23t-39 6t-38.5 -6.5t-34.5 -23.5q-12 -14 -20.5 -34t-8.5 -45h200zM213 208q4 -32 18.5 -49.5t23.5 -23.5q13 -9 28 -14.5t30 -8t29.5 -3.5t26.5 -1q22 0 62 6.5t94 33.5v-127q-27 -11 -72.5 -22
t-114.5 -11q-75 0 -130 20t-93 55q-15 13 -30 32t-27 43.5t-19.5 55.5t-7.5 69q0 18 2.5 42.5t11.5 52.5t26 56.5t45 52.5q29 25 76.5 45.5t118.5 20.5q16 0 39.5 -2t50.5 -10t54 -23.5t51 -42.5q30 -35 48.5 -89t18.5 -125v-33h-360zM117 707h375v-84h-375v84z" />
    <glyph glyph-name="Edotaccent" unicode="&#x116;" horiz-adv-x="616" 
d="M65 700h492v-132h-306v-145h289v-132h-289v-159h317v-132h-503v700zM418 880v-140h-186v140h186z" />
    <glyph glyph-name="edotaccent" unicode="&#x117;" horiz-adv-x="611" 
d="M411 310q1 18 -2.5 32t-8.5 24.5t-9.5 16t-5.5 7.5q-14 17 -33 23t-39 6t-38.5 -6.5t-34.5 -23.5q-12 -14 -20.5 -34t-8.5 -45h200zM213 208q4 -32 18.5 -49.5t23.5 -23.5q13 -9 28 -14.5t30 -8t29.5 -3.5t26.5 -1q22 0 62 6.5t94 33.5v-127q-27 -11 -72.5 -22
t-114.5 -11q-75 0 -130 20t-93 55q-15 13 -30 32t-27 43.5t-19.5 55.5t-7.5 69q0 18 2.5 42.5t11.5 52.5t26 56.5t45 52.5q29 25 76.5 45.5t118.5 20.5q16 0 39.5 -2t50.5 -10t54 -23.5t51 -42.5q30 -35 48.5 -89t18.5 -125v-33h-360zM398 738v-132h-186v132h186z" />
    <glyph glyph-name="Eogonek" unicode="&#x118;" horiz-adv-x="616" 
d="M65 700h492v-132h-306v-145h289v-132h-289v-159h317v-132h-503v700zM473 -222q-45 0 -70 23.5t-25 58.5q0 80 90 140h100q-58 -36 -79 -62.5t-21 -47.5q0 -32 35 -32q24 0 49 14l16 -69q-19 -11 -41.5 -18t-53.5 -7z" />
    <glyph glyph-name="eogonek" unicode="&#x119;" horiz-adv-x="611" 
d="M379 -222q-42 0 -66 23.5t-24 58.5q0 42 22 73t60 56q-8 0 -16.5 -0.5t-16.5 -0.5q-64 0 -120 17.5t-97.5 52t-65.5 86t-24 119.5q0 61 20 111t56.5 85t88.5 54.5t115 19.5q129 0 195.5 -78t66.5 -214v-33h-360q4 -29 17 -48t33.5 -30.5t47.5 -16.5t58 -5q22 0 62 6.5
t94 33.5v-127q-73 -36 -112 -65.5t-39 -65.5q0 -32 35 -32q13 0 22.5 3.5t21.5 10.5l16 -69q-19 -11 -39 -18t-51 -7zM313 419q-46 0 -73 -31.5t-29 -77.5h200q0 22 -6.5 42t-19 35t-30.5 23.5t-42 8.5z" />
    <glyph glyph-name="Ecaron" unicode="&#x11a;" horiz-adv-x="616" 
d="M65 700h492v-132h-306v-145h289v-132h-289v-159h317v-132h-503v700zM395 740h-170l-115 140h132l68 -74l72 74h132z" />
    <glyph glyph-name="ecaron" unicode="&#x11b;" horiz-adv-x="611" 
d="M411 310q1 18 -2.5 32t-8.5 24.5t-9.5 16t-5.5 7.5q-14 17 -33 23t-39 6t-38.5 -6.5t-34.5 -23.5q-12 -14 -20.5 -34t-8.5 -45h200zM213 208q4 -32 18.5 -49.5t23.5 -23.5q13 -9 28 -14.5t30 -8t29.5 -3.5t26.5 -1q22 0 62 6.5t94 33.5v-127q-27 -11 -72.5 -22
t-114.5 -11q-75 0 -130 20t-93 55q-15 13 -30 32t-27 43.5t-19.5 55.5t-7.5 69q0 18 2.5 42.5t11.5 52.5t26 56.5t45 52.5q29 25 76.5 45.5t118.5 20.5q16 0 39.5 -2t50.5 -10t54 -23.5t51 -42.5q30 -35 48.5 -89t18.5 -125v-33h-360zM396 590h-162l-109 160h120l70 -90
l74 90h120z" />
    <glyph glyph-name="Gcircumflex" unicode="&#x11c;" horiz-adv-x="778" 
d="M710 20q-55 -14 -120.5 -23t-134.5 -9q-31 0 -67 3t-73.5 11.5t-75 24.5t-71.5 42q-24 18 -47 44t-41.5 61.5t-29.5 80t-11 100.5q0 84 30 155t106 125q67 47 141.5 62t154.5 15q43 0 77.5 -3t61 -7.5t46.5 -10t35 -10.5v-157q-38 19 -84.5 34.5t-114.5 15.5
q-46 0 -95 -11t-93 -47q-73 -61 -73 -169q0 -59 19 -96.5t37 -56.5q32 -33 81 -50.5t97 -17.5q20 0 36 3.5t29 8.5v139h-109v132h289v-389zM357 880h170l115 -140h-132l-68 74l-72 -74h-132z" />
    <glyph glyph-name="gcircumflex" unicode="&#x11d;" horiz-adv-x="668" 
d="M309 -222q-61 0 -113 8t-101 25v146q49 -26 94 -36.5t91 -10.5q13 0 29 1.5t32.5 5.5t32 12t29.5 22q25 26 31 56t6 54v28h-2q-11 -18 -27.5 -33.5t-39.5 -28.5q-28 -15 -55.5 -21t-53.5 -6q-33 0 -60 7t-48 18t-36.5 24.5t-25.5 25.5q-23 27 -42 73.5t-19 120.5
q0 39 6.5 70.5t16 56t22 42.5t24.5 31q10 11 25 22.5t34.5 20.5t44.5 15t55 6q40 0 67.5 -9.5t44.5 -20.5q18 -11 37 -30t35 -46h2v94h163v-460q0 -22 -2 -49t-9 -55.5t-20.5 -56.5t-36.5 -51q-24 -24 -55 -38t-63 -21.5t-61.5 -9.5t-51.5 -2zM217 265q0 -25 7 -49t21 -42
q16 -20 35.5 -28t38.5 -8q14 0 36 6t44 30q22 23 28.5 49.5t6.5 47.5q0 32 -9.5 53t-18.5 32q-21 26 -45.5 32.5t-38.5 6.5q-26 0 -43.5 -9.5t-28.5 -20.5q-17 -18 -25 -45t-8 -55zM241 750h162l109 -160h-120l-70 90l-74 -90h-120z" />
    <glyph glyph-name="Gbreve" unicode="&#x11e;" horiz-adv-x="778" 
d="M710 20q-55 -14 -120.5 -23t-134.5 -9q-31 0 -67 3t-73.5 11.5t-75 24.5t-71.5 42q-24 18 -47 44t-41.5 61.5t-29.5 80t-11 100.5q0 84 30 155t106 125q67 47 141.5 62t154.5 15q43 0 77.5 -3t61 -7.5t46.5 -10t35 -10.5v-157q-38 19 -84.5 34.5t-114.5 15.5
q-46 0 -95 -11t-93 -47q-73 -61 -73 -169q0 -59 19 -96.5t37 -56.5q32 -33 81 -50.5t97 -17.5q20 0 36 3.5t29 8.5v139h-109v132h289v-389zM440 830q40 0 57 4t24 7q15 8 22 18t9 21h90q-2 -25 -14.5 -52t-44.5 -51q-35 -26 -69 -31.5t-74 -5.5t-74 5.5t-69 31.5
q-32 24 -44.5 51t-14.5 52h90q2 -11 9 -21t22 -18q7 -3 24 -7t57 -4z" />
    <glyph glyph-name="gbreve" unicode="&#x11f;" horiz-adv-x="668" 
d="M309 -222q-61 0 -113 8t-101 25v146q49 -26 94 -36.5t91 -10.5q13 0 29 1.5t32.5 5.5t32 12t29.5 22q25 26 31 56t6 54v28h-2q-11 -18 -27.5 -33.5t-39.5 -28.5q-28 -15 -55.5 -21t-53.5 -6q-33 0 -60 7t-48 18t-36.5 24.5t-25.5 25.5q-23 27 -42 73.5t-19 120.5
q0 39 6.5 70.5t16 56t22 42.5t24.5 31q10 11 25 22.5t34.5 20.5t44.5 15t55 6q40 0 67.5 -9.5t44.5 -20.5q18 -11 37 -30t35 -46h2v94h163v-460q0 -22 -2 -49t-9 -55.5t-20.5 -56.5t-36.5 -51q-24 -24 -55 -38t-63 -21.5t-61.5 -9.5t-51.5 -2zM217 265q0 -25 7 -49t21 -42
q16 -20 35.5 -28t38.5 -8q14 0 36 6t44 30q22 23 28.5 49.5t6.5 47.5q0 32 -9.5 53t-18.5 32q-21 26 -45.5 32.5t-38.5 6.5q-26 0 -43.5 -9.5t-28.5 -20.5q-17 -18 -25 -45t-8 -55zM510 750q-2 -38 -18 -68.5t-39 -50.5q-29 -26 -64.5 -33.5t-68.5 -7.5t-68.5 7.5
t-64.5 33.5q-23 20 -39 50.5t-18 68.5h90q4 -19 13.5 -32.5t21.5 -21.5t29.5 -12t35.5 -4t35.5 4t29.5 12t21.5 21.5t13.5 32.5h90z" />
    <glyph glyph-name="Gdotaccent" unicode="&#x120;" horiz-adv-x="778" 
d="M710 20q-55 -14 -120.5 -23t-134.5 -9q-31 0 -67 3t-73.5 11.5t-75 24.5t-71.5 42q-24 18 -47 44t-41.5 61.5t-29.5 80t-11 100.5q0 84 30 155t106 125q67 47 141.5 62t154.5 15q43 0 77.5 -3t61 -7.5t46.5 -10t35 -10.5v-157q-38 19 -84.5 34.5t-114.5 15.5
q-46 0 -95 -11t-93 -47q-73 -61 -73 -169q0 -59 19 -96.5t37 -56.5q32 -33 81 -50.5t97 -17.5q20 0 36 3.5t29 8.5v139h-109v132h289v-389zM533 880v-140h-186v140h186z" />
    <glyph glyph-name="gdotaccent" unicode="&#x121;" horiz-adv-x="668" 
d="M309 -222q-61 0 -113 8t-101 25v146q49 -26 94 -36.5t91 -10.5q13 0 29 1.5t32.5 5.5t32 12t29.5 22q25 26 31 56t6 54v28h-2q-11 -18 -27.5 -33.5t-39.5 -28.5q-28 -15 -55.5 -21t-53.5 -6q-33 0 -60 7t-48 18t-36.5 24.5t-25.5 25.5q-23 27 -42 73.5t-19 120.5
q0 39 6.5 70.5t16 56t22 42.5t24.5 31q10 11 25 22.5t34.5 20.5t44.5 15t55 6q40 0 67.5 -9.5t44.5 -20.5q18 -11 37 -30t35 -46h2v94h163v-460q0 -22 -2 -49t-9 -55.5t-20.5 -56.5t-36.5 -51q-24 -24 -55 -38t-63 -21.5t-61.5 -9.5t-51.5 -2zM217 265q0 -25 7 -49t21 -42
q16 -20 35.5 -28t38.5 -8q14 0 36 6t44 30q22 23 28.5 49.5t6.5 47.5q0 32 -9.5 53t-18.5 32q-21 26 -45.5 32.5t-38.5 6.5q-26 0 -43.5 -9.5t-28.5 -20.5q-17 -18 -25 -45t-8 -55zM413 738v-132h-186v132h186z" />
    <glyph glyph-name="Gcommaaccent" unicode="&#x122;" horiz-adv-x="778" 
d="M710 20q-55 -14 -120.5 -23t-134.5 -9q-31 0 -67 3t-73.5 11.5t-75 24.5t-71.5 42q-24 18 -47 44t-41.5 61.5t-29.5 80t-11 100.5q0 84 30 155t106 125q67 47 141.5 62t154.5 15q43 0 77.5 -3t61 -7.5t46.5 -10t35 -10.5v-157q-38 19 -84.5 34.5t-114.5 15.5
q-46 0 -95 -11t-93 -47q-73 -61 -73 -169q0 -59 19 -96.5t37 -56.5q32 -33 81 -50.5t97 -17.5q20 0 36 3.5t29 8.5v139h-109v132h289v-389zM349 -50h182l-70 -200h-160z" />
    <glyph glyph-name="gcommaaccent" unicode="&#x123;" horiz-adv-x="668" 
d="M309 -222q-61 0 -113 8t-101 25v146q49 -26 94 -36.5t91 -10.5q13 0 29 1.5t32.5 5.5t32 12t29.5 22q25 26 31 56t6 54v28h-2q-11 -18 -27.5 -33.5t-39.5 -28.5q-28 -15 -55.5 -21t-53.5 -6q-33 0 -60 7t-48 18t-36.5 24.5t-25.5 25.5q-23 27 -42 73.5t-19 120.5
q0 39 6.5 70.5t16 56t22 42.5t24.5 31q10 11 25 22.5t34.5 20.5t44.5 15t55 6q40 0 67.5 -9.5t44.5 -20.5q18 -11 37 -30t35 -46h2v94h163v-460q0 -22 -2 -49t-9 -55.5t-20.5 -56.5t-36.5 -51q-24 -24 -55 -38t-63 -21.5t-61.5 -9.5t-51.5 -2zM217 265q0 -25 7 -49t21 -42
q16 -20 35.5 -28t38.5 -8q14 0 36 6t44 30q22 23 28.5 49.5t6.5 47.5q0 32 -9.5 53t-18.5 32q-21 26 -45.5 32.5t-38.5 6.5q-26 0 -43.5 -9.5t-28.5 -20.5q-17 -18 -25 -45t-8 -55zM405.012 589.994h-169.979l75.9912 199.976h139.982z" />
    <glyph glyph-name="Hcircumflex" unicode="&#x124;" horiz-adv-x="722" 
d="M65 700h186v-268h220v268h186v-700h-186v300h-220v-300h-186v700zM279 880h170l115 -140h-132l-68 74l-72 -74h-132z" />
    <glyph glyph-name="hcircumflex" unicode="&#x125;" horiz-adv-x="667" 
d="M56 750h180v-306h2q22 30 43.5 45t29.5 20q20 11 44.5 17.5t56.5 6.5q48 0 83.5 -14t60.5 -40q9 -9 18.5 -22.5t17.5 -32t13.5 -43.5t5.5 -56v-325h-180v252q0 9 -1 24t-4 31.5t-9.5 31.5t-18.5 26q-13 12 -26.5 15t-23.5 3q-31 0 -52 -11.5t-35 -33.5q-10 -16 -17.5 -43
t-7.5 -75v-220h-180v750zM69 950h162l109 -160h-120l-70 90l-74 -90h-120z" />
    <glyph glyph-name="Hbar" unicode="&#x126;" horiz-adv-x="734" 
d="M663 512v-512h-186v300h-220v-300h-186v512h-57v102h57v86h186v-86h220v86h186v-86h57v-102h-57zM477 432v80h-220v-80h220z" />
    <glyph glyph-name="hbar" unicode="&#x127;" horiz-adv-x="673" 
d="M62 594h-72v70h72v86h180v-86h212v-70h-212v-150h2q22 30 43.5 45t29.5 20q20 11 44.5 17.5t56.5 6.5q48 0 83.5 -14t60.5 -40q9 -9 18.5 -22.5t17.5 -32t13.5 -43.5t5.5 -56v-325h-180v252q0 9 -1 24t-4 31.5t-9.5 31.5t-18.5 26q-13 12 -26.5 15t-23.5 3
q-31 0 -52 -11.5t-35 -33.5q-10 -16 -17.5 -43t-7.5 -75v-220h-180v594z" />
    <glyph glyph-name="Imacron" unicode="&#x12a;" horiz-adv-x="316" 
d="M65 700h186v-700h-186v700zM-28 857h375v-84h-375v84z" />
    <glyph glyph-name="imacron" unicode="&#x12b;" horiz-adv-x="334" 
d="M77 521h180v-521h-180v521zM-19 707h375v-84h-375v84z" />
    <glyph glyph-name="Iogonek" unicode="&#x12e;" horiz-adv-x="316" 
d="M65 700h186v-700h-186v700zM156 -222q-45 0 -70 23.5t-25 58.5q0 80 90 140h100q-58 -36 -79 -62.5t-21 -47.5q0 -32 35 -32q24 0 49 14l16 -69q-19 -11 -41.5 -18t-53.5 -7z" />
    <glyph glyph-name="iogonek" unicode="&#x12f;" horiz-adv-x="334" 
d="M257 606h-180v132h180v-132zM77 521h180v-521h-180v521zM167 -222q-42 0 -66 23.5t-24 58.5q0 42 21.5 76t63.5 64h95q-29 -18 -47.5 -33.5t-29 -29t-14.5 -25.5t-4 -22q0 -32 35 -32q13 0 22.5 3.5t21.5 10.5l16 -69q-19 -11 -39 -18t-51 -7z" />
    <glyph glyph-name="Idotaccent" unicode="&#x130;" horiz-adv-x="316" 
d="M65 700h186v-700h-186v700zM252 880v-140h-186v140h186z" />
    <glyph glyph-name="dotlessi" unicode="&#x131;" horiz-adv-x="334" 
d="M77 521h180v-521h-180v521z" />
    <glyph glyph-name="Jcircumflex" unicode="&#x134;" horiz-adv-x="444" 
d="M14 161q26 -12 49.5 -14.5t34.5 -2.5t26.5 3.5t30.5 17.5q20 19 29 53.5t9 79.5v402h186v-458q0 -22 -2 -47t-8.5 -50.5t-18.5 -49.5t-32 -44q-26 -26 -69 -44.5t-103 -18.5q-32 0 -58.5 4t-56.5 11l-17 4v154zM198 880h170l115 -140h-132l-68 74l-72 -74h-132z" />
    <glyph glyph-name="jcircumflex" unicode="&#x135;" horiz-adv-x="313" 
d="M-21 -97q2 -1 11.5 -3t26.5 -2q37 0 50 30q6 14 8 34.5t2 37.5v521h180v-526q0 -31 -5 -70.5t-24 -72.5q-26 -45 -67.5 -59.5t-93.5 -14.5q-15 0 -37 1.5t-55 7.5zM78 750h162l109 -160h-120l-70 90l-74 -90h-121z" />
    <glyph glyph-name="Kcommaaccent" unicode="&#x136;" horiz-adv-x="722" 
d="M65 700h186v-286h2l210 286h224l-258 -326l278 -374h-237l-217 318h-2v-318h-186v700zM275 -50h182l-70 -200h-160z" />
    <glyph glyph-name="kcommaaccent" unicode="&#x137;" horiz-adv-x="611" 
d="M56 750h180v-448h2l150 219h197l-181 -239l196 -282h-218l-144 258h-2v-258h-180v750zM236 -50h170l-76 -200h-140z" />
    <glyph glyph-name="Lacute" unicode="&#x139;" horiz-adv-x="556" 
d="M65 700h186v-562h288v-138h-474v700zM147 880h196l-134 -140h-134z" />
    <glyph glyph-name="lacute" unicode="&#x13a;" horiz-adv-x="292" 
d="M56 750h180v-750h-180v750zM117 950h186l-130 -160h-126z" />
    <glyph glyph-name="Lcommaaccent" unicode="&#x13b;" horiz-adv-x="556" 
d="M65 700h186v-562h288v-138h-474v700zM206 -50h182l-70 -200h-160z" />
    <glyph glyph-name="lcommaaccent" unicode="&#x13c;" horiz-adv-x="292" 
d="M56 750h180v-750h-180v750zM77 -50h170l-76 -200h-140z" />
    <glyph glyph-name="Lcaron" unicode="&#x13d;" horiz-adv-x="556" 
d="M65 700h186v-562h288v-138h-474v700zM411 700h170l-90 -250h-140z" />
    <glyph glyph-name="lcaron" unicode="&#x13e;" horiz-adv-x="465" 
d="M56 750h180v-750h-180v750zM315 750h170l-76 -190h-140z" />
    <glyph glyph-name="Ldot" unicode="&#x13f;" horiz-adv-x="556" 
d="M65 700h186v-562h288v-138h-474v700zM352 455h168v-162h-168v162z" />
    <glyph glyph-name="ldot" unicode="&#x140;" horiz-adv-x="460" 
d="M56 750h180v-750h-180v750zM292 456h168v-162h-168v162z" />
    <glyph glyph-name="Lslash" unicode="&#x141;" horiz-adv-x="556" 
d="M0 171v109l65 38v382h186v-272l183 109v-110l-183 -108v-181h288v-138h-474v209z" />
    <glyph glyph-name="lslash" unicode="&#x142;" horiz-adv-x="334" 
d="M0 230v100l77 46v374h180v-268l77 45v-100l-77 -45v-382h-180v276z" />
    <glyph glyph-name="Nacute" unicode="&#x143;" horiz-adv-x="772" 
d="M65 700h237l236 -475h2l-3 475h170v-700h-231l-244 478h-2l6 -478h-171v700zM384 880h196l-134 -140h-134z" />
    <glyph glyph-name="nacute" unicode="&#x144;" horiz-adv-x="667" 
d="M56 521h164v-96h2q14 30 35 50.5t47 33.5q32 16 63 20t45 4q43 0 79 -12t64 -41q18 -18 37 -56t19 -99v-325h-180v252q0 11 -1 26t-4 30.5t-9.5 30.5t-18.5 26t-25 14.5t-26 3.5q-16 0 -37 -5.5t-40 -26.5q-12 -13 -18.5 -30.5t-10 -35.5t-4.5 -35t-1 -30v-220h-180v521z
M303 750h186l-130 -160h-126z" />
    <glyph glyph-name="Ncommaaccent" unicode="&#x145;" horiz-adv-x="772" 
d="M65 700h237l236 -475h2l-3 475h170v-700h-231l-244 478h-2l6 -478h-171v700zM287 -50h182l-70 -200h-160z" />
    <glyph glyph-name="ncommaaccent" unicode="&#x146;" horiz-adv-x="667" 
d="M56 521h164v-96h2q14 30 35 50.5t47 33.5q32 16 63 20t45 4q43 0 79 -12t64 -41q18 -18 37 -56t19 -99v-325h-180v252q0 11 -1 26t-4 30.5t-9.5 30.5t-18.5 26t-25 14.5t-26 3.5q-16 0 -37 -5.5t-40 -26.5q-12 -13 -18.5 -30.5t-10 -35.5t-4.5 -35t-1 -30v-220h-180v521z
M264 -50h170l-76 -200h-140z" />
    <glyph glyph-name="Ncaron" unicode="&#x147;" horiz-adv-x="772" 
d="M65 700h237l236 -475h2l-3 475h170v-700h-231l-244 478h-2l6 -478h-171v700zM485 740h-170l-115 140h132l68 -74l72 74h132z" />
    <glyph glyph-name="ncaron" unicode="&#x148;" horiz-adv-x="667" 
d="M56 521h164v-96h2q14 30 35 50.5t47 33.5q32 16 63 20t45 4q43 0 79 -12t64 -41q18 -18 37 -56t19 -99v-325h-180v252q0 11 -1 26t-4 30.5t-9.5 30.5t-18.5 26t-25 14.5t-26 3.5q-16 0 -37 -5.5t-40 -26.5q-12 -13 -18.5 -30.5t-10 -35.5t-4.5 -35t-1 -30v-220h-180v521z
M412 590h-162l-109 160h120l70 -90l74 90h120z" />
    <glyph glyph-name="Omacron" unicode="&#x14c;" horiz-adv-x="778" 
d="M389 574q-42 0 -70 -17t-45 -40q-14 -19 -22.5 -41t-13 -44.5t-6 -43.5t-1.5 -38t1.5 -38t6 -43.5t13 -44.5t22.5 -41q17 -23 45 -40t70 -17t70 17t45 40q14 19 22.5 41t13 44.5t6 43.5t1.5 38t-1.5 38t-6 43.5t-13 44.5t-22.5 41q-17 23 -45 40t-70 17zM389 712
q22 0 53.5 -2.5t66.5 -12t70.5 -28t67.5 -50.5q31 -31 49 -67.5t27.5 -72.5t12.5 -69.5t3 -59.5t-3 -59.5t-12.5 -69.5t-27.5 -72.5t-49 -67.5q-32 -32 -67.5 -50.5t-70.5 -28t-66.5 -12t-53.5 -2.5t-53.5 2.5t-66.5 12t-71 28t-67 50.5q-31 31 -49 67.5t-27.5 72.5
t-12.5 69.5t-3 59.5t3 59.5t12.5 69.5t27.5 72.5t49 67.5q31 32 67 50.5t71 28t66.5 12t53.5 2.5zM201 857h375v-84h-375v84z" />
    <glyph glyph-name="omacron" unicode="&#x14d;" horiz-adv-x="668" 
d="M334 407q-50 0 -81 -34q-23 -26 -29.5 -56.5t-6.5 -56.5t6.5 -56.5t29.5 -56.5q31 -34 81 -34t81 34q23 26 29.5 56.5t6.5 56.5t-6.5 56.5t-29.5 56.5q-31 34 -81 34zM334 533q63 0 116 -17t91 -47q16 -12 33 -30.5t31 -44t23 -59t9 -75.5t-9 -75.5t-23 -59t-31 -44
t-33 -30.5q-26 -21 -54 -33t-55 -19t-52.5 -9t-45.5 -2t-45.5 2t-52.5 9t-55 19t-54 33q-16 12 -33 30.5t-31 44t-23 59t-9 75.5t9 75.5t23 59t31 44t33 30.5q38 30 91 47t116 17zM144 707h375v-84h-375v84z" />
    <glyph glyph-name="Obreve" unicode="&#x14e;" horiz-adv-x="778" 
d="M389 574q-42 0 -70 -17t-45 -40q-14 -19 -22.5 -41t-13 -44.5t-6 -43.5t-1.5 -38t1.5 -38t6 -43.5t13 -44.5t22.5 -41q17 -23 45 -40t70 -17t70 17t45 40q14 19 22.5 41t13 44.5t6 43.5t1.5 38t-1.5 38t-6 43.5t-13 44.5t-22.5 41q-17 23 -45 40t-70 17zM389 712
q22 0 53.5 -2.5t66.5 -12t70.5 -28t67.5 -50.5q31 -31 49 -67.5t27.5 -72.5t12.5 -69.5t3 -59.5t-3 -59.5t-12.5 -69.5t-27.5 -72.5t-49 -67.5q-32 -32 -67.5 -50.5t-70.5 -28t-66.5 -12t-53.5 -2.5t-53.5 2.5t-66.5 12t-71 28t-67 50.5q-31 31 -49 67.5t-27.5 72.5
t-12.5 69.5t-3 59.5t3 59.5t12.5 69.5t27.5 72.5t49 67.5q31 32 67 50.5t71 28t66.5 12t53.5 2.5zM393 830q40 0 57 4t24 7q15 8 22 18t9 21h90q-2 -25 -14.5 -52t-44.5 -51q-35 -26 -69 -31.5t-74 -5.5t-74 5.5t-69 31.5q-32 24 -44.5 51t-14.5 52h90q2 -11 9 -21t22 -18
q7 -3 24 -7t57 -4z" />
    <glyph glyph-name="obreve" unicode="&#x14f;" horiz-adv-x="668" 
d="M334 407q-50 0 -81 -34q-23 -26 -29.5 -56.5t-6.5 -56.5t6.5 -56.5t29.5 -56.5q31 -34 81 -34t81 34q23 26 29.5 56.5t6.5 56.5t-6.5 56.5t-29.5 56.5q-31 34 -81 34zM334 533q63 0 116 -17t91 -47q16 -12 33 -30.5t31 -44t23 -59t9 -75.5t-9 -75.5t-23 -59t-31 -44
t-33 -30.5q-26 -21 -54 -33t-55 -19t-52.5 -9t-45.5 -2t-45.5 2t-52.5 9t-55 19t-54 33q-16 12 -33 30.5t-31 44t-23 59t-9 75.5t9 75.5t23 59t31 44t33 30.5q38 30 91 47t116 17zM525 750q-2 -38 -18 -68.5t-39 -50.5q-29 -26 -64.5 -33.5t-68.5 -7.5t-68.5 7.5t-64.5 33.5
q-23 20 -39 50.5t-18 68.5h90q4 -19 13.5 -32.5t21.5 -21.5t29.5 -12t35.5 -4t35.5 4t29.5 12t21.5 21.5t13.5 32.5h90z" />
    <glyph glyph-name="Ohungarumlaut" unicode="&#x150;" horiz-adv-x="778" 
d="M389 574q-42 0 -70 -17t-45 -40q-14 -19 -22.5 -41t-13 -44.5t-6 -43.5t-1.5 -38t1.5 -38t6 -43.5t13 -44.5t22.5 -41q17 -23 45 -40t70 -17t70 17t45 40q14 19 22.5 41t13 44.5t6 43.5t1.5 38t-1.5 38t-6 43.5t-13 44.5t-22.5 41q-17 23 -45 40t-70 17zM389 712
q22 0 53.5 -2.5t66.5 -12t70.5 -28t67.5 -50.5q31 -31 49 -67.5t27.5 -72.5t12.5 -69.5t3 -59.5t-3 -59.5t-12.5 -69.5t-27.5 -72.5t-49 -67.5q-32 -32 -67.5 -50.5t-70.5 -28t-66.5 -12t-53.5 -2.5t-53.5 2.5t-66.5 12t-71 28t-67 50.5q-31 31 -49 67.5t-27.5 72.5
t-12.5 69.5t-3 59.5t3 59.5t12.5 69.5t27.5 72.5t49 67.5q31 32 67 50.5t71 28t66.5 12t53.5 2.5zM456 880l-138 -140h-114l72 140h180zM700 880l-139 -140h-114l73 140h180z" />
    <glyph glyph-name="ohungarumlaut" unicode="&#x151;" horiz-adv-x="668" 
d="M334 407q-50 0 -81 -34q-23 -26 -29.5 -56.5t-6.5 -56.5t6.5 -56.5t29.5 -56.5q31 -34 81 -34t81 34q23 26 29.5 56.5t6.5 56.5t-6.5 56.5t-29.5 56.5q-31 34 -81 34zM334 533q63 0 116 -17t91 -47q16 -12 33 -30.5t31 -44t23 -59t9 -75.5t-9 -75.5t-23 -59t-31 -44
t-33 -30.5q-26 -21 -54 -33t-55 -19t-52.5 -9t-45.5 -2t-45.5 2t-52.5 9t-55 19t-54 33q-16 12 -33 30.5t-31 44t-23 59t-9 75.5t9 75.5t23 59t31 44t33 30.5q38 30 91 47t116 17zM401 750l-136 -160h-110l70 160h176zM639 750l-136 -160h-110l70 160h176z" />
    <glyph glyph-name="OE" unicode="&#x152;" horiz-adv-x="1000" 
d="M492 564q-29 1 -60.5 1.5t-63.5 2.5q-46 0 -77 -17q-31 -16 -49 -48q-33 -64 -32 -153q0 -85 43 -149q41 -67 133 -69q32 1 58.5 1.5t47.5 2.5v428zM971 568h-290v-145h271v-132h-268v-159h298v-132h-416q-98 -2 -198 -6q-348 8 -350 356q2 349 350 356q70 -2 139 -3
t138 -3h326v-132z" />
    <glyph glyph-name="oe" unicode="&#x153;" horiz-adv-x="1000" 
d="M811 310q0 46 -23 78q-13 16 -30 23q-21 8 -47 8q-48 -2 -72 -31q-25 -31 -28 -78h200zM213 260q0 -58 27 -103q14 -21 35 -35q20 -14 47 -14q28 0 50 14q19 13 33 35q26 46 26 103q0 59 -26 106q-25 45 -83 47q-56 -2 -82 -47q-27 -47 -27 -106zM925 21
q-89 -33 -191 -33q-66 0 -121 18q-56 17 -95 66q-41 -53 -97 -69q-59 -15 -117 -15q-120 2 -196 70q-79 67 -81 202q1 138 85 206q80 67 198 67q67 0 118 -16q50 -16 88 -63q44 47 95 63t99 16q143 -1 205 -87q59 -85 58 -205v-33h-360q18 -102 153 -100q75 -1 159 40v-127z
" />
    <glyph glyph-name="Racute" unicode="&#x154;" horiz-adv-x="662" 
d="M332 244h-81v-244h-186v700h262q73 0 126.5 -16t89 -46t52.5 -72t17 -94q0 -74 -27.5 -124t-89.5 -76l150 -272h-194zM426 472q0 42 -27 69t-72 27h-76v-192h76q45 0 72 27t27 69zM315 880h196l-134 -140h-134z" />
    <glyph glyph-name="racute" unicode="&#x155;" horiz-adv-x="444" 
d="M56 521h164v-96h2q21 48 58 78t100 30q11 0 25.5 -1t31.5 -5v-150q-12 3 -27 4.5t-29 1.5q-78 0 -111.5 -44t-33.5 -119v-220h-180v521zM253 750h186l-130 -160h-126z" />
    <glyph glyph-name="Rcommaaccent" unicode="&#x156;" horiz-adv-x="662" 
d="M332 244h-81v-244h-186v700h262q73 0 126.5 -16t89 -46t52.5 -72t17 -94q0 -74 -27.5 -124t-89.5 -76l150 -272h-194zM426 472q0 42 -27 69t-72 27h-76v-192h76q45 0 72 27t27 69zM260 -50h182l-70 -200h-160z" />
    <glyph glyph-name="rcommaaccent" unicode="&#x157;" horiz-adv-x="444" 
d="M56 521h164v-96h2q21 48 58 78t100 30q11 0 25.5 -1t31.5 -5v-150q-12 3 -27 4.5t-29 1.5q-78 0 -111.5 -44t-33.5 -119v-220h-180v521zM78 -52h170l-76 -200h-140z" />
    <glyph glyph-name="Rcaron" unicode="&#x158;" horiz-adv-x="662" 
d="M332 244h-81v-244h-186v700h262q73 0 126.5 -16t89 -46t52.5 -72t17 -94q0 -74 -27.5 -124t-89.5 -76l150 -272h-194zM426 472q0 42 -27 69t-72 27h-76v-192h76q45 0 72 27t27 69zM393 740h-170l-115 140h132l68 -74l72 74h132z" />
    <glyph glyph-name="rcaron" unicode="&#x159;" horiz-adv-x="444" 
d="M56 521h164v-96h2q21 48 58 78t100 30q11 0 25.5 -1t31.5 -5v-150q-12 3 -27 4.5t-29 1.5q-78 0 -111.5 -44t-33.5 -119v-220h-180v521zM302 590h-162l-109 160h120l70 -90l74 90h120z" />
    <glyph glyph-name="Sacute" unicode="&#x15a;" horiz-adv-x="611" 
d="M51 178q54 -28 107 -40t101 -12q22 0 49 4t43 16q8 7 15.5 19t7.5 30t-7 30t-20 22q-20 16 -49.5 25t-67.5 21l-29 9q-42 13 -81 39.5t-59 68.5q-8 19 -12.5 42t-4.5 43q0 58 26 104t86 76q41 20 90.5 28.5t98.5 8.5q31 0 80 -4.5t103 -21.5v-148q-35 17 -78 26.5
t-89 9.5q-18 0 -44.5 -2.5t-44.5 -10.5q-21 -9 -28.5 -23t-7.5 -30q0 -18 10 -30q11 -14 37 -25t70 -23l11 -3q13 -3 31 -9t37.5 -13.5t38 -17.5t32.5 -21q38 -31 50.5 -70t12.5 -77q0 -68 -25 -110t-55 -64q-23 -17 -52 -28t-59 -17.5t-60 -9t-56 -2.5q-42 0 -95.5 6.5
t-112.5 23.5v160zM325 880h196l-134 -140h-134z" />
    <glyph glyph-name="sacute" unicode="&#x15b;" horiz-adv-x="500" 
d="M211 -12q-53 0 -94.5 6.5t-80.5 18.5v134q16 -6 38.5 -13t39.5 -12q24 -6 51 -10t56 -4q16 0 30 2.5t23 9.5q6 5 10.5 12t4.5 17q0 8 -4.5 17.5t-15.5 17.5q-8 5 -23 11t-50 15l-26 7q-24 7 -54.5 18.5t-54.5 40.5q-29 35 -29 85q0 44 19 79.5t61 58.5q20 11 41.5 18
t41 10.5t36 4.5t27.5 1q72 0 116 -11t63 -19v-128q-34 17 -74.5 27.5t-79.5 10.5q-30 0 -44.5 -3.5t-17.5 -5.5q-21 -9 -21 -29q0 -9 6 -17q6 -7 16 -12.5t22.5 -9.5t26 -7t25.5 -6l16 -4q31 -8 52 -15.5t38 -17.5q10 -6 22 -16t21.5 -24.5t16 -35t6.5 -48.5
q0 -49 -18 -79.5t-40 -47.5t-49.5 -26.5t-55.5 -14t-53 -5.5t-41 -1zM247 750h186l-130 -160h-126z" />
    <glyph glyph-name="Scircumflex" unicode="&#x15c;" horiz-adv-x="611" 
d="M51 178q54 -28 107 -40t101 -12q22 0 49 4t43 16q8 7 15.5 19t7.5 30t-7 30t-20 22q-20 16 -49.5 25t-67.5 21l-29 9q-42 13 -81 39.5t-59 68.5q-8 19 -12.5 42t-4.5 43q0 58 26 104t86 76q41 20 90.5 28.5t98.5 8.5q31 0 80 -4.5t103 -21.5v-148q-35 17 -78 26.5
t-89 9.5q-18 0 -44.5 -2.5t-44.5 -10.5q-21 -9 -28.5 -23t-7.5 -30q0 -18 10 -30q11 -14 37 -25t70 -23l11 -3q13 -3 31 -9t37.5 -13.5t38 -17.5t32.5 -21q38 -31 50.5 -70t12.5 -77q0 -68 -25 -110t-55 -64q-23 -17 -52 -28t-59 -17.5t-60 -9t-56 -2.5q-42 0 -95.5 6.5
t-112.5 23.5v160zM237 880h170l115 -140h-132l-68 74l-72 -74h-132z" />
    <glyph glyph-name="scircumflex" unicode="&#x15d;" horiz-adv-x="500" 
d="M211 -12q-53 0 -94.5 6.5t-80.5 18.5v134q16 -6 38.5 -13t39.5 -12q24 -6 51 -10t56 -4q16 0 30 2.5t23 9.5q6 5 10.5 12t4.5 17q0 8 -4.5 17.5t-15.5 17.5q-8 5 -23 11t-50 15l-26 7q-24 7 -54.5 18.5t-54.5 40.5q-29 35 -29 85q0 44 19 79.5t61 58.5q20 11 41.5 18
t41 10.5t36 4.5t27.5 1q72 0 116 -11t63 -19v-128q-34 17 -74.5 27.5t-79.5 10.5q-30 0 -44.5 -3.5t-17.5 -5.5q-21 -9 -21 -29q0 -9 6 -17q6 -7 16 -12.5t22.5 -9.5t26 -7t25.5 -6l16 -4q31 -8 52 -15.5t38 -17.5q10 -6 22 -16t21.5 -24.5t16 -35t6.5 -48.5
q0 -49 -18 -79.5t-40 -47.5t-49.5 -26.5t-55.5 -14t-53 -5.5t-41 -1zM161 750h162l109 -160h-120l-70 90l-74 -90h-120z" />
    <glyph glyph-name="Scedilla" unicode="&#x15e;" horiz-adv-x="611" 
d="M51 178q54 -28 107 -40t101 -12q22 0 49 4t43 16q8 7 15.5 19t7.5 30t-7 30t-20 22q-20 16 -49.5 25t-67.5 21l-29 9q-42 13 -81 39.5t-59 68.5q-8 19 -12.5 42t-4.5 43q0 58 26 104t86 76q41 20 90.5 28.5t98.5 8.5q31 0 80 -4.5t103 -21.5v-148q-35 17 -78 26.5
t-89 9.5q-18 0 -44.5 -2.5t-44.5 -10.5q-21 -9 -28.5 -23t-7.5 -30q0 -18 10 -30q11 -14 37 -25t70 -23l11 -3q13 -3 31 -9t37.5 -13.5t38 -17.5t32.5 -21q38 -31 50.5 -70t12.5 -77q0 -68 -25 -110t-55 -64q-23 -17 -52 -28t-59 -17.5t-60 -9t-56 -2.5q-42 0 -95.5 6.5
t-112.5 23.5v160zM305 -222q-26 0 -49 9.5t-36 19.5l25 57q25 -20 55 -20q17 0 26.5 9.5t9.5 23.5t-10.5 23.5t-30.5 9.5q-11 0 -18.5 -1t-16.5 -4l25 95h70l-10 -42q13 0 26.5 -5t24 -15t17.5 -25t7 -36q0 -44 -29.5 -71.5t-85.5 -27.5z" />
    <glyph glyph-name="scedilla" unicode="&#x15f;" horiz-adv-x="500" 
d="M211 -12q-53 0 -94.5 6.5t-80.5 18.5v134q16 -6 38.5 -13t39.5 -12q24 -6 51 -10t56 -4q16 0 30 2.5t23 9.5q6 5 10.5 12t4.5 17q0 8 -4.5 17.5t-15.5 17.5q-8 5 -23 11t-50 15l-26 7q-24 7 -54.5 18.5t-54.5 40.5q-29 35 -29 85q0 44 19 79.5t61 58.5q20 11 41.5 18
t41 10.5t36 4.5t27.5 1q72 0 116 -11t63 -19v-128q-34 17 -74.5 27.5t-79.5 10.5q-30 0 -44.5 -3.5t-17.5 -5.5q-21 -9 -21 -29q0 -9 6 -17q6 -7 16 -12.5t22.5 -9.5t26 -7t25.5 -6l16 -4q31 -8 52 -15.5t38 -17.5q10 -6 22 -16t21.5 -24.5t16 -35t6.5 -48.5
q0 -49 -18 -79.5t-40 -47.5t-49.5 -26.5t-55.5 -14t-53 -5.5t-41 -1zM225 -222q-26 0 -49 9.5t-36 19.5l25 57q25 -20 55 -20q17 0 26.5 9.5t9.5 23.5t-10.5 23.5t-30.5 9.5q-11 0 -18.5 -1t-16.5 -4l25 95h70l-10 -42q13 0 26.5 -5t24 -15t17.5 -25t7 -36
q0 -44 -29.5 -71.5t-85.5 -27.5z" />
    <glyph glyph-name="Scaron" unicode="&#x160;" horiz-adv-x="611" 
d="M51 178q54 -28 107 -40t101 -12q22 0 49 4t43 16q8 7 15.5 19t7.5 30t-7 30t-20 22q-20 16 -49.5 25t-67.5 21l-29 9q-42 13 -81 39.5t-59 68.5q-8 19 -12.5 42t-4.5 43q0 58 26 104t86 76q41 20 90.5 28.5t98.5 8.5q31 0 80 -4.5t103 -21.5v-148q-35 17 -78 26.5
t-89 9.5q-18 0 -44.5 -2.5t-44.5 -10.5q-21 -9 -28.5 -23t-7.5 -30q0 -18 10 -30q11 -14 37 -25t70 -23l11 -3q13 -3 31 -9t37.5 -13.5t38 -17.5t32.5 -21q38 -31 50.5 -70t12.5 -77q0 -68 -25 -110t-55 -64q-23 -17 -52 -28t-59 -17.5t-60 -9t-56 -2.5q-42 0 -95.5 6.5
t-112.5 23.5v160zM403 740h-170l-115 140h132l68 -74l72 74h132z" />
    <glyph glyph-name="scaron" unicode="&#x161;" horiz-adv-x="500" 
d="M211 -12q-53 0 -94.5 6.5t-80.5 18.5v134q16 -6 38.5 -13t39.5 -12q24 -6 51 -10t56 -4q16 0 30 2.5t23 9.5q6 5 10.5 12t4.5 17q0 8 -4.5 17.5t-15.5 17.5q-8 5 -23 11t-50 15l-26 7q-24 7 -54.5 18.5t-54.5 40.5q-29 35 -29 85q0 44 19 79.5t61 58.5q20 11 41.5 18
t41 10.5t36 4.5t27.5 1q72 0 116 -11t63 -19v-128q-34 17 -74.5 27.5t-79.5 10.5q-30 0 -44.5 -3.5t-17.5 -5.5q-21 -9 -21 -29q0 -9 6 -17q6 -7 16 -12.5t22.5 -9.5t26 -7t25.5 -6l16 -4q31 -8 52 -15.5t38 -17.5q10 -6 22 -16t21.5 -24.5t16 -35t6.5 -48.5
q0 -49 -18 -79.5t-40 -47.5t-49.5 -26.5t-55.5 -14t-53 -5.5t-41 -1zM319 590h-162l-109 160h120l70 -90l74 90h120z" />
    <glyph glyph-name="Tcedilla" unicode="&#x162;" horiz-adv-x="556" 
d="M185 562h-172v138h530v-138h-172v-562h-186v562zM263 -222q-26 0 -49 9.5t-36 19.5l25 57q25 -20 55 -20q17 0 26.5 9.5t9.5 23.5t-10.5 23.5t-30.5 9.5q-11 0 -18.5 -1t-16.5 -4l25 95h70l-10 -42q13 0 26.5 -5t24 -15t17.5 -25t7 -36q0 -44 -29.5 -71.5t-85.5 -27.5z
" />
    <glyph glyph-name="tcedilla" unicode="&#x163;" horiz-adv-x="444" 
d="M316 -12q-108 0 -155.5 46.5t-47.5 148.5v212h-103v126h103v117l180 55v-172h126v-126h-126v-192q0 -55 17 -75t55 -20q19 0 34 2.5t27 6.5v-119q-29 -5 -58 -7.5t-52 -2.5zM265 -222q-26 0 -49 9.5t-36 19.5l25 57q25 -20 55 -20q17 0 26.5 9.5t9.5 23.5t-10.5 23.5
t-30.5 9.5q-11 0 -18.5 -1t-16.5 -4l25 95h70l-10 -42q13 0 26.5 -5t24 -15t17.5 -25t7 -36q0 -44 -29.5 -71.5t-85.5 -27.5z" />
    <glyph glyph-name="Tcaron" unicode="&#x164;" horiz-adv-x="556" 
d="M185 562h-172v138h530v-138h-172v-562h-186v562zM362 740h-170l-115 140h132l68 -74l72 74h132z" />
    <glyph glyph-name="tcaron" unicode="&#x165;" horiz-adv-x="523" 
d="M316 -12q-108 0 -155.5 46.5t-47.5 148.5v212h-103v126h103v117l180 55v-172h126v-126h-126v-192q0 -55 17 -75t55 -20q19 0 34 2.5t27 6.5v-119q-29 -5 -58 -7.5t-52 -2.5zM375 750h170l-76 -190h-140z" />
    <glyph glyph-name="Umacron" unicode="&#x16a;" horiz-adv-x="738" 
d="M675 266q0 -20 -2 -43.5t-8.5 -48t-19 -50t-33.5 -48.5q-27 -30 -59.5 -47.5t-65.5 -26.5t-64 -11.5t-54 -2.5t-54 2.5t-64 11.5t-65.5 26.5t-59.5 47.5q-21 23 -33.5 48.5t-19 50t-8.5 48t-2 43.5v434h186v-403q0 -9 0.5 -22.5t2.5 -29.5t6 -32t11 -29q9 -17 20.5 -28.5
t25 -18t27.5 -9t27 -2.5t27 2.5t27.5 9t25 18t20.5 28.5q7 13 11 29t6 32t2.5 29.5t0.5 22.5v403h186v-434zM173 857h375v-84h-375v84z" />
    <glyph glyph-name="umacron" unicode="&#x16b;" horiz-adv-x="667" 
d="M611 0h-164v96h-2q-14 -30 -35 -50.5t-47 -33.5q-16 -8 -32.5 -13t-30.5 -7.5t-26 -3t-19 -0.5q-43 0 -79 12t-64 41q-18 18 -37 56t-19 99v325h180v-252q0 -11 1 -26t4 -30.5t9.5 -30.5t18.5 -26t25 -14.5t26 -3.5q16 0 37 5.5t40 26.5q12 13 18.5 30t10 35t4.5 35.5
t1 30.5v220h180v-521zM146 707h375v-84h-375v84z" />
    <glyph glyph-name="Ubreve" unicode="&#x16c;" horiz-adv-x="738" 
d="M675 266q0 -20 -2 -43.5t-8.5 -48t-19 -50t-33.5 -48.5q-27 -30 -59.5 -47.5t-65.5 -26.5t-64 -11.5t-54 -2.5t-54 2.5t-64 11.5t-65.5 26.5t-59.5 47.5q-21 23 -33.5 48.5t-19 50t-8.5 48t-2 43.5v434h186v-403q0 -9 0.5 -22.5t2.5 -29.5t6 -32t11 -29q9 -17 20.5 -28.5
t25 -18t27.5 -9t27 -2.5t27 2.5t27.5 9t25 18t20.5 28.5q7 13 11 29t6 32t2.5 29.5t0.5 22.5v403h186v-434zM372 830q40 0 57 4t24 7q15 8 22 18t9 21h90q-2 -25 -14.5 -52t-44.5 -51q-35 -26 -69 -31.5t-74 -5.5t-74 5.5t-69 31.5q-32 24 -44.5 51t-14.5 52h90q2 -11 9 -21
t22 -18q7 -3 24 -7t57 -4z" />
    <glyph glyph-name="ubreve" unicode="&#x16d;" horiz-adv-x="667" 
d="M611 0h-164v96h-2q-14 -30 -35 -50.5t-47 -33.5q-16 -8 -32.5 -13t-30.5 -7.5t-26 -3t-19 -0.5q-43 0 -79 12t-64 41q-18 18 -37 56t-19 99v325h180v-252q0 -11 1 -26t4 -30.5t9.5 -30.5t18.5 -26t25 -14.5t26 -3.5q16 0 37 5.5t40 26.5q12 13 18.5 30t10 35t4.5 35.5
t1 30.5v220h180v-521zM524 750q-2 -38 -18 -68.5t-39 -50.5q-29 -26 -64.5 -33.5t-68.5 -7.5t-68.5 7.5t-64.5 33.5q-23 20 -39 50.5t-18 68.5h90q4 -19 13.5 -32.5t21.5 -21.5t29.5 -12t35.5 -4t35.5 4t29.5 12t21.5 21.5t13.5 32.5h90z" />
    <glyph glyph-name="Uring" unicode="&#x16e;" horiz-adv-x="738" 
d="M675 266q0 -20 -2 -43.5t-8.5 -48t-19 -50t-33.5 -48.5q-27 -30 -59.5 -47.5t-65.5 -26.5t-64 -11.5t-54 -2.5t-54 2.5t-64 11.5t-65.5 26.5t-59.5 47.5q-21 23 -33.5 48.5t-19 50t-8.5 48t-2 43.5v434h186v-403q0 -9 0.5 -22.5t2.5 -29.5t6 -32t11 -29q9 -17 20.5 -28.5
t25 -18t27.5 -9t27 -2.5t27 2.5t27.5 9t25 18t20.5 28.5q7 13 11 29t6 32t2.5 29.5t0.5 22.5v403h186v-434zM311 828q0 -20 14 -34t36 -14t36 14t14 34t-14 34t-36 14t-36 -14t-14 -34zM243 828q0 23 9.5 43.5t26 35.5t37.5 24t45 9q25 0 46.5 -9t37.5 -24.5t25 -36t9 -42.5
q0 -23 -9 -43t-25 -35.5t-37.5 -24.5t-46.5 -9q-24 0 -45 9t-37.5 24t-26 35.5t-9.5 43.5z" />
    <glyph glyph-name="uring" unicode="&#x16f;" horiz-adv-x="667" 
d="M611 0h-164v96h-2q-14 -30 -35 -50.5t-47 -33.5q-16 -8 -32.5 -13t-30.5 -7.5t-26 -3t-19 -0.5q-43 0 -79 12t-64 41q-18 18 -37 56t-19 99v325h180v-252q0 -11 1 -26t4 -30.5t9.5 -30.5t18.5 -26t25 -14.5t26 -3.5q16 0 37 5.5t40 26.5q12 13 18.5 30t10 35t4.5 35.5
t1 30.5v220h180v-521zM285 678q0 -20 14 -34t34 -14t34 14t14 34t-14 34t-34 14t-34 -14t-14 -34zM221 678q0 22 9 42.5t24.5 36t35.5 24.5t43 9q24 0 44.5 -9t35.5 -24.5t23.5 -36t8.5 -42.5q0 -23 -8.5 -43t-23.5 -35.5t-35.5 -24.5t-44.5 -9q-23 0 -43 9t-35.5 24.5
t-24.5 35.5t-9 43z" />
    <glyph glyph-name="Uhungarumlaut" unicode="&#x170;" horiz-adv-x="738" 
d="M675 266q0 -20 -2 -43.5t-8.5 -48t-19 -50t-33.5 -48.5q-27 -30 -59.5 -47.5t-65.5 -26.5t-64 -11.5t-54 -2.5t-54 2.5t-64 11.5t-65.5 26.5t-59.5 47.5q-21 23 -33.5 48.5t-19 50t-8.5 48t-2 43.5v434h186v-403q0 -9 0.5 -22.5t2.5 -29.5t6 -32t11 -29q9 -17 20.5 -28.5
t25 -18t27.5 -9t27 -2.5t27 2.5t27.5 9t25 18t20.5 28.5q7 13 11 29t6 32t2.5 29.5t0.5 22.5v403h186v-434zM436 880l-138 -140h-114l72 140h180zM680 880l-139 -140h-114l73 140h180z" />
    <glyph glyph-name="uhungarumlaut" unicode="&#x171;" horiz-adv-x="667" 
d="M611 0h-164v96h-2q-14 -30 -35 -50.5t-47 -33.5q-16 -8 -32.5 -13t-30.5 -7.5t-26 -3t-19 -0.5q-43 0 -79 12t-64 41q-18 18 -37 56t-19 99v325h180v-252q0 -11 1 -26t4 -30.5t9.5 -30.5t18.5 -26t25 -14.5t26 -3.5q16 0 37 5.5t40 26.5q12 13 18.5 30t10 35t4.5 35.5
t1 30.5v220h180v-521zM401 750l-136 -160h-110l70 160h176zM639 750l-136 -160h-110l70 160h176z" />
    <glyph glyph-name="Uogonek" unicode="&#x172;" horiz-adv-x="738" 
d="M415 -222q-45 0 -70 23.5t-25 58.5q0 32 15.5 63.5t55.5 65.5q-5 -1 -11 -1h-11q-68 0 -124.5 16.5t-97 51t-62.5 87t-22 123.5v434h186v-403q0 -30 4.5 -60.5t18 -55t36.5 -40t61 -15.5q36 0 59 14.5t36.5 38.5t19 54.5t5.5 63.5v403h186v-434q0 -93 -34.5 -149.5
t-95.5 -90.5q-42 -24 -68.5 -44t-41.5 -37t-20 -31t-5 -24q0 -32 35 -32q24 0 49 14l16 -69q-19 -11 -41.5 -18t-53.5 -7z" />
    <glyph glyph-name="uogonek" unicode="&#x173;" horiz-adv-x="667" 
d="M611 0h-164v96h-2q-14 -30 -35 -50.5t-47 -33.5q-16 -8 -32.5 -13t-30.5 -7.5t-26 -3t-19 -0.5q-43 0 -79 12t-64 41q-18 18 -37 56t-19 99v325h180v-252q0 -11 1 -26t4 -30.5t9.5 -30.5t18.5 -26t25 -14.5t26 -3.5q16 0 37 5.5t40 26.5q12 13 18.5 30t10 35t4.5 35.5
t1 30.5v220h180v-521zM521 -222q-42 0 -66 23.5t-24 58.5q0 42 21.5 76t63.5 64h95q-29 -18 -47.5 -33.5t-29 -29t-14.5 -25.5t-4 -22q0 -32 35 -32q13 0 22.5 3.5t21.5 10.5l16 -69q-19 -11 -39 -18t-51 -7z" />
    <glyph glyph-name="Ydieresis" unicode="&#x178;" horiz-adv-x="678" 
d="M247 264l-258 436h214l137 -281l135 281h214l-256 -436v-264h-186v264zM380 880h150v-140h-150v140zM140 880h150v-140h-150v140z" />
    <glyph glyph-name="Zacute" unicode="&#x179;" horiz-adv-x="620" 
d="M579 552l-342 -414h344v-138h-546v148l332 414h-323v138h535v-148zM284 880h196l-134 -140h-134z" />
    <glyph glyph-name="zacute" unicode="&#x17a;" horiz-adv-x="513" 
d="M30 144l238 245h-233v132h439v-144l-238 -245h242v-132h-448v144zM250 750h186l-130 -160h-126z" />
    <glyph glyph-name="Zdotaccent" unicode="&#x17b;" horiz-adv-x="620" 
d="M579 552l-342 -414h344v-138h-546v148l332 414h-323v138h535v-148zM398 880v-140h-186v140h186z" />
    <glyph glyph-name="zdotaccent" unicode="&#x17c;" horiz-adv-x="513" 
d="M30 144l238 245h-233v132h439v-144l-238 -245h242v-132h-448v144zM358 738v-132h-186v132h186z" />
    <glyph glyph-name="Zcaron" unicode="&#x17d;" horiz-adv-x="620" 
d="M579 552l-342 -414h344v-138h-546v148l332 414h-323v138h535v-148zM405 740h-170l-115 140h132l68 -74l72 74h132z" />
    <glyph glyph-name="zcaron" unicode="&#x17e;" horiz-adv-x="513" 
d="M30 144l238 245h-233v132h439v-144l-238 -245h242v-132h-448v144zM329 590h-162l-109 160h120l70 -90l74 90h120z" />
    <glyph glyph-name="uni018F" unicode="&#x18f;" horiz-adv-x="760" 
d="M370 -12q-81 0 -143 24t-104 69.5t-63 111.5t-21 149q0 28 3 57h483q-8 88 -62.5 134t-152.5 46q-52 0 -97 -14.5t-94 -44.5v153q40 16 90.5 27.5t116.5 11.5q89 0 162 -23t124.5 -69t80 -113.5t28.5 -156.5q0 -83 -22.5 -150t-67 -114t-110 -72.5t-151.5 -25.5zM379 116
q69 0 106 48t42 123h-294q0 -75 36 -122t110 -49z" />
    <glyph glyph-name="florin" unicode="&#x192;" 
d="M144 -222q-14 0 -31 1.5t-34 4.5t-32.5 7.5t-26.5 11.5v128q12 -7 31.5 -14t40.5 -7q17 0 29 7t20.5 18t13.5 24.5t8 26.5l64 339h-93l18 110h92l15 82q8 43 24 78.5t40 61.5t56 40.5t71 14.5q44 0 81.5 -6.5t48.5 -11.5v-130q-15 6 -31.5 11t-33.5 5q-31 0 -48.5 -14
t-23.5 -49l-14 -82h93l-17 -110h-94l-64 -340q-21 -110 -74 -158.5t-129 -48.5z" />
    <glyph glyph-name="uni01CF" unicode="&#x1cf;" horiz-adv-x="316" 
d="M65 700h186v-700h-186v700zM242 740h-170l-115 140h132l68 -74l72 74h132z" />
    <glyph glyph-name="uni01D0" unicode="&#x1d0;" horiz-adv-x="334" 
d="M77 521h180v-521h-180v521zM247 590h-162l-109 160h120l70 -90l74 90h120z" />
    <glyph glyph-name="uni01DD" unicode="&#x1dd;" horiz-adv-x="611" 
d="M200 211q-1 -18 2.5 -32t8.5 -24.5t9.5 -16.5t5.5 -7q14 -17 33 -23t39 -6t38.5 6.5t34.5 23.5q12 14 20.5 34t8.5 45h-200zM398 313q-4 32 -18.5 49.5t-23.5 23.5q-13 9 -28 14.5t-30 8t-29.5 3.5t-26.5 1q-22 0 -62 -6.5t-94 -33.5v127q27 11 72.5 22t114.5 11
q75 0 130 -20t93 -55q15 -14 30 -32.5t27 -43t19.5 -55.5t7.5 -69q0 -18 -2.5 -43t-11.5 -52.5t-26 -56t-45 -52.5q-29 -25 -76.5 -45.5t-118.5 -20.5q-16 0 -39.5 2t-50.5 10t-54 23.5t-51 42.5q-30 35 -48.5 89t-18.5 125v33h360z" />
    <glyph glyph-name="Gcaron" unicode="&#x1e6;" horiz-adv-x="778" 
d="M710 20q-55 -14 -120.5 -23t-134.5 -9q-31 0 -67 3t-73.5 11.5t-75 24.5t-71.5 42q-24 18 -47 44t-41.5 61.5t-29.5 80t-11 100.5q0 84 30 155t106 125q67 47 141.5 62t154.5 15q43 0 77.5 -3t61 -7.5t46.5 -10t35 -10.5v-157q-38 19 -84.5 34.5t-114.5 15.5
q-46 0 -95 -11t-93 -47q-73 -61 -73 -169q0 -59 19 -96.5t37 -56.5q32 -33 81 -50.5t97 -17.5q20 0 36 3.5t29 8.5v139h-109v132h289v-389zM523 740h-170l-115 140h132l68 -74l72 74h132z" />
    <glyph glyph-name="gcaron" unicode="&#x1e7;" horiz-adv-x="668" 
d="M309 -222q-61 0 -113 8t-101 25v146q49 -26 94 -36.5t91 -10.5q13 0 29 1.5t32.5 5.5t32 12t29.5 22q25 26 31 56t6 54v28h-2q-11 -18 -27.5 -33.5t-39.5 -28.5q-28 -15 -55.5 -21t-53.5 -6q-33 0 -60 7t-48 18t-36.5 24.5t-25.5 25.5q-23 27 -42 73.5t-19 120.5
q0 39 6.5 70.5t16 56t22 42.5t24.5 31q10 11 25 22.5t34.5 20.5t44.5 15t55 6q40 0 67.5 -9.5t44.5 -20.5q18 -11 37 -30t35 -46h2v94h163v-460q0 -22 -2 -49t-9 -55.5t-20.5 -56.5t-36.5 -51q-24 -24 -55 -38t-63 -21.5t-61.5 -9.5t-51.5 -2zM217 265q0 -25 7 -49t21 -42
q16 -20 35.5 -28t38.5 -8q14 0 36 6t44 30q22 23 28.5 49.5t6.5 47.5q0 32 -9.5 53t-18.5 32q-21 26 -45.5 32.5t-38.5 6.5q-26 0 -43.5 -9.5t-28.5 -20.5q-17 -18 -25 -45t-8 -55zM399 590h-162l-109 160h120l70 -90l74 90h120z" />
    <glyph glyph-name="Scommaaccent" unicode="&#x218;" horiz-adv-x="611" 
d="M51 178q54 -28 107 -40t101 -12q22 0 49 4t43 16q8 7 15.5 19t7.5 30t-7 30t-20 22q-20 16 -49.5 25t-67.5 21l-29 9q-42 13 -81 39.5t-59 68.5q-8 19 -12.5 42t-4.5 43q0 58 26 104t86 76q41 20 90.5 28.5t98.5 8.5q31 0 80 -4.5t103 -21.5v-148q-35 17 -78 26.5
t-89 9.5q-18 0 -44.5 -2.5t-44.5 -10.5q-21 -9 -28.5 -23t-7.5 -30q0 -18 10 -30q11 -14 37 -25t70 -23l11 -3q13 -3 31 -9t37.5 -13.5t38 -17.5t32.5 -21q38 -31 50.5 -70t12.5 -77q0 -68 -25 -110t-55 -64q-23 -17 -52 -28t-59 -17.5t-60 -9t-56 -2.5q-42 0 -95.5 6.5
t-112.5 23.5v160zM229 -50h182l-70 -200h-160z" />
    <glyph glyph-name="scommaaccent" unicode="&#x219;" horiz-adv-x="500" 
d="M211 -12q-53 0 -94.5 6.5t-80.5 18.5v134q16 -6 38.5 -13t39.5 -12q24 -6 51 -10t56 -4q16 0 30 2.5t23 9.5q6 5 10.5 12t4.5 17q0 8 -4.5 17.5t-15.5 17.5q-8 5 -23 11t-50 15l-26 7q-24 7 -54.5 18.5t-54.5 40.5q-29 35 -29 85q0 44 19 79.5t61 58.5q20 11 41.5 18
t41 10.5t36 4.5t27.5 1q72 0 116 -11t63 -19v-128q-34 17 -74.5 27.5t-79.5 10.5q-30 0 -44.5 -3.5t-17.5 -5.5q-21 -9 -21 -29q0 -9 6 -17q6 -7 16 -12.5t22.5 -9.5t26 -7t25.5 -6l16 -4q31 -8 52 -15.5t38 -17.5q10 -6 22 -16t21.5 -24.5t16 -35t6.5 -48.5
q0 -49 -18 -79.5t-40 -47.5t-49.5 -26.5t-55.5 -14t-53 -5.5t-41 -1zM155 -50h170l-76 -200h-140z" />
    <glyph glyph-name="Tcommaaccent" unicode="&#x21a;" horiz-adv-x="556" 
d="M185 562h-172v138h530v-138h-172v-562h-186v562zM204 -50h182l-70 -200h-160z" />
    <glyph glyph-name="tcommaaccent" unicode="&#x21b;" horiz-adv-x="444" 
d="M316 -12q-108 0 -155.5 46.5t-47.5 148.5v212h-103v126h103v117l180 55v-172h126v-126h-126v-192q0 -55 17 -75t55 -20q19 0 34 2.5t27 6.5v-119q-29 -5 -58 -7.5t-52 -2.5zM207 -50h170l-76 -200h-140z" />
    <glyph glyph-name="uni0259" unicode="&#x259;" horiz-adv-x="611" 
d="M200 211q-1 -18 2.5 -32t8.5 -24.5t9.5 -16.5t5.5 -7q14 -17 33 -23t39 -6t38.5 6.5t34.5 23.5q12 14 20.5 34t8.5 45h-200zM398 313q-4 32 -18.5 49.5t-23.5 23.5q-13 9 -28 14.5t-30 8t-29.5 3.5t-26.5 1q-22 0 -62 -6.5t-94 -33.5v127q27 11 72.5 22t114.5 11
q75 0 130 -20t93 -55q15 -14 30 -32.5t27 -43t19.5 -55.5t7.5 -69q0 -18 -2.5 -43t-11.5 -52.5t-26 -56t-45 -52.5q-29 -25 -76.5 -45.5t-118.5 -20.5q-16 0 -39.5 2t-50.5 10t-54 23.5t-51 42.5q-30 35 -48.5 89t-18.5 125v33h360z" />
    <glyph glyph-name="afii57929" unicode="&#x2bc;" horiz-adv-x="381" 
d="M95 750h170l-76 -190h-140z" />
    <glyph glyph-name="circumflex" unicode="&#x2c6;" horiz-adv-x="474" 
d="M158 750h162l109 -160h-120l-70 90l-74 -90h-120z" />
    <glyph glyph-name="caron" unicode="&#x2c7;" horiz-adv-x="474" 
d="M316 590h-162l-109 160h120l70 -90l74 90h120z" />
    <glyph glyph-name="uni02C9" unicode="&#x2c9;" horiz-adv-x="465" 
d="M45 707h375v-84h-375v84z" />
    <glyph glyph-name="breve" unicode="&#x2d8;" horiz-adv-x="470" 
d="M425 750q-2 -38 -18 -68.5t-39 -50.5q-29 -26 -64.5 -33.5t-68.5 -7.5t-68.5 7.5t-64.5 33.5q-23 20 -39 50.5t-18 68.5h90q4 -19 13.5 -32.5t21.5 -21.5t29.5 -12t35.5 -4t35.5 4t29.5 12t21.5 21.5t13.5 32.5h90z" />
    <glyph glyph-name="dotaccent" unicode="&#x2d9;" horiz-adv-x="370" 
d="M278 738v-132h-186v132h186z" />
    <glyph glyph-name="ring" unicode="&#x2da;" horiz-adv-x="314" 
d="M109 678q0 -20 14 -34t34 -14t34 14t14 34t-14 34t-34 14t-34 -14t-14 -34zM45 678q0 22 9 42.5t24.5 36t35.5 24.5t43 9q24 0 44.5 -9t35.5 -24.5t23.5 -36t8.5 -42.5q0 -23 -8.5 -43t-23.5 -35.5t-35.5 -24.5t-44.5 -9q-23 0 -43 9t-35.5 24.5t-24.5 35.5t-9 43z" />
    <glyph glyph-name="ogonek" unicode="&#x2db;" horiz-adv-x="220" 
d="M110 -222q-42 0 -66 23.5t-24 58.5q0 42 21.5 76t63.5 64h95q-29 -18 -47.5 -33.5t-29 -29t-14.5 -25.5t-4 -22q0 -32 35 -32q13 0 22.5 3.5t21.5 10.5l16 -69q-19 -11 -39 -18t-51 -7z" />
    <glyph glyph-name="tilde" unicode="&#x2dc;" horiz-adv-x="482" 
d="M437 729q-2 -18 -9 -45t-28 -53q-5 -6 -12 -13t-18.5 -14t-26.5 -11.5t-35 -4.5q-10 0 -24.5 2.5t-25.5 6.5l-20 7q-23 8 -38.5 14t-33.5 6q-9 0 -19.5 -2.5t-18.5 -11.5q-9 -11 -11 -25h-72q3 30 13.5 55.5t23.5 42.5t34 30t56 13q22 0 38.5 -4t27.5 -9l13 -5
q12 -5 28 -11.5t36 -6.5q3 0 10 0.5t15 4t15 11.5t10 23h72z" />
    <glyph glyph-name="hungarumlaut" unicode="&#x2dd;" horiz-adv-x="314" 
d="M221 750l-136 -160h-110l70 160h176zM459 750l-136 -160h-110l70 160h176z" />
    <glyph glyph-name="gravecomb" unicode="&#x300;" horiz-adv-x="2" 
d="M-335 590l-130 160h186l70 -160h-126z" />
    <glyph glyph-name="acutecomb" unicode="&#x301;" horiz-adv-x="2" 
d="M-302 750h186l-130 -160h-126z" />
    <glyph glyph-name="uni037E" unicode="&#x37e;" horiz-adv-x="373" 
d="M69 521h168v-162h-168v162zM69 162h168l-98 -271h-137z" />
    <glyph glyph-name="uni0394" unicode="&#x394;" horiz-adv-x="755" 
d="M765 0h-775l288 700h199zM196 132h320l-160 386z" />
    <glyph glyph-name="uni03A9" unicode="&#x3a9;" horiz-adv-x="800" 
d="M40 132h174v23q-32 9 -63 27.5t-55.5 49t-40 74t-15.5 103.5q0 71 24 128.5t69.5 98.5t112.5 63t154 22t154 -22t112.5 -63t69.5 -98.5t24 -128.5q0 -60 -15.5 -103.5t-40 -74t-56 -49t-62.5 -27.5v-23h174v-132h-300v243q28 6 48.5 21t33.5 36.5t19.5 47t6.5 52.5
q0 39 -10.5 72.5t-31.5 58t-52.5 38.5t-73.5 14t-73.5 -14t-52.5 -38.5t-31.5 -58t-10.5 -72.5q0 -27 6.5 -52.5t19.5 -47t33.5 -36.5t48.5 -21v-243h-300v132z" />
    <glyph glyph-name="uni03BC" unicode="&#x3bc;" horiz-adv-x="667" 
d="M611 0h-164v96h-2q-29 -56 -77 -81q-50 -27 -113 -27h-17v-198h-182v731h180v-252q0 -73 24 -101q22 -31 59 -30q112 -1 112 163v220h180v-521z" />
    <glyph glyph-name="pi" unicode="&#x3c0;" horiz-adv-x="696" 
d="M120 386h-4q-6 0 -15 -1.5t-19 -5.5t-19.5 -11.5t-16.5 -19.5l-85 94q27 43 68.5 59.5t86.5 16.5h565v-132h-63v-386h-186v386h-126v-386h-186v386z" />
    <glyph glyph-name="afii10023" unicode="&#x401;" horiz-adv-x="616" 
d="M65 700h492v-132h-306v-145h289v-132h-289v-159h317v-132h-503v700zM360 880h150v-140h-150v140zM120 880h150v-140h-150v140z" />
    <glyph glyph-name="afii10051" unicode="&#x402;" horiz-adv-x="789" 
d="M166 562h-153v138h530v-138h-191v-145q29 14 64 22.5t82 8.5q35 0 72.5 -7t67.5 -26q18 -11 33.5 -28t27 -41t18.5 -55.5t7 -72.5q0 -48 -12.5 -94.5t-41.5 -78.5q-17 -19 -37 -30.5t-40.5 -17.5t-40.5 -7.5t-37 -1.5q-18 0 -31 0.5t-25.5 2t-25.5 4.5t-30 7v134
q11 -5 27.5 -8.5t36.5 -3.5q8 0 23.5 4t26.5 20q9 12 12 32t3 34v14q0 46 -23 69q-8 8 -22.5 13.5t-37.5 5.5q-17 0 -42.5 -4.5t-54.5 -19.5v-292h-186v562z" />
    <glyph glyph-name="afii10052" unicode="&#x403;" horiz-adv-x="539" 
d="M65 700h471v-138h-285v-562h-186v700zM304 880h196l-134 -140h-134z" />
    <glyph glyph-name="afii10053" unicode="&#x404;" horiz-adv-x="680" 
d="M442 -12q-90 0 -165 22.5t-128 67.5t-82.5 112.5t-29.5 158.5q0 87 27.5 154.5t79 114t124.5 70.5t164 24q66 0 116.5 -11.5t90.5 -27.5v-143q-56 30 -105.5 39.5t-85.5 9.5q-40 0 -75.5 -9t-63.5 -28t-46.5 -47.5t-25.5 -68.5h263v-128h-266q3 -44 21.5 -77.5t49 -55.5
t70.5 -33t87 -11q43 0 87 10t89 28v-142q-28 -9 -52 -14.5t-47 -8.5t-46.5 -4.5t-50.5 -1.5z" />
    <glyph glyph-name="afii10054" unicode="&#x405;" horiz-adv-x="611" 
d="M51 178q54 -28 107 -40t101 -12q22 0 49 4t43 16q8 7 15.5 19t7.5 30t-7 30t-20 22q-20 16 -49.5 25t-67.5 21l-29 9q-42 13 -81 39.5t-59 68.5q-8 19 -12.5 42t-4.5 43q0 58 26 104t86 76q41 20 90.5 28.5t98.5 8.5q31 0 80 -4.5t103 -21.5v-148q-35 17 -78 26.5
t-89 9.5q-18 0 -44.5 -2.5t-44.5 -10.5q-21 -9 -28.5 -23t-7.5 -30q0 -18 10 -30q11 -14 37 -25t70 -23l11 -3q13 -3 31 -9t37.5 -13.5t38 -17.5t32.5 -21q38 -31 50.5 -70t12.5 -77q0 -68 -25 -110t-55 -64q-23 -17 -52 -28t-59 -17.5t-60 -9t-56 -2.5q-42 0 -95.5 6.5
t-112.5 23.5v160z" />
    <glyph glyph-name="afii10055" unicode="&#x406;" horiz-adv-x="316" 
d="M65 700h186v-700h-186v700z" />
    <glyph glyph-name="afii10056" unicode="&#x407;" horiz-adv-x="340" 
d="M77 700h186v-700h-186v700zM145 880v-140h-120v140h120zM315 880v-140h-120v140h120z" />
    <glyph glyph-name="afii10057" unicode="&#x408;" horiz-adv-x="444" 
d="M14 161q26 -12 49.5 -14.5t34.5 -2.5t26.5 3.5t30.5 17.5q20 19 29 53.5t9 79.5v402h186v-458q0 -22 -2 -47t-8.5 -50.5t-18.5 -49.5t-32 -44q-26 -26 -69 -44.5t-103 -18.5q-32 0 -58.5 4t-56.5 11l-17 4v154z" />
    <glyph glyph-name="afii10058" unicode="&#x409;" horiz-adv-x="1055" 
d="M70 -12q-28 0 -60 8v148q13 -3 23.5 -4t21.5 -1q22 0 39.5 10.5t29.5 48t18.5 109t6.5 193.5v200h516v-240h78q76 0 130 -15t88 -44t49.5 -72t15.5 -99q0 -105 -69 -167.5t-214 -62.5h-264v568h-159v-68q0 -166 -14 -266.5t-44 -155t-77.5 -72.5t-114.5 -18zM840 230
q0 48 -25 73t-72 25h-78v-196h78q47 0 72 25t25 73z" />
    <glyph glyph-name="afii10059" unicode="&#x40a;" horiz-adv-x="1039" 
d="M648 132h45q20 0 50 2.5t52 19.5q9 8 19 23.5t10 44.5q0 22 -8 39.5t-26 28.5q-20 13 -45 14.5t-42 1.5h-55v-174zM725 438q21 0 48.5 -0.5t56.5 -5t58.5 -15.5t53.5 -31q25 -21 46.5 -62.5t21.5 -107.5q0 -107 -78 -165q-23 -18 -49 -28t-51.5 -15t-49.5 -6.5t-42 -1.5
h-278v306h-211v-306h-186v700h186v-262h211v262h186v-262h77z" />
    <glyph glyph-name="afii10060" unicode="&#x40b;" horiz-adv-x="773" 
d="M166 562h-153v138h530v-138h-191v-140q27 11 65 18.5t89 7.5q61 0 109.5 -18.5t74.5 -61.5q14 -23 21 -58.5t7 -70.5v-239h-186v205q0 22 -2 45.5t-16 40.5q-8 9 -18 14.5t-20 7.5t-19 2.5t-14 0.5q-21 0 -45 -4.5t-46 -12.5v-299h-186v562z" />
    <glyph glyph-name="afii10061" unicode="&#x40c;" horiz-adv-x="694" 
d="M251 397h9l205 303h207l-236 -323l262 -377h-214l-224 336h-9v-336h-186v700h186v-303zM324 880h196l-134 -140h-134z" />
    <glyph glyph-name="afii10062" unicode="&#x40e;" horiz-adv-x="692" 
d="M226 -12q-23 0 -51.5 4t-64.5 18v130q20 -9 41.5 -14t38.5 -5q22 0 42.5 10t31.5 33l12 27l-278 509h214l154 -340l142 340h194l-274 -580q-30 -63 -75.5 -97.5t-126.5 -34.5zM360 735q-77 0 -126 40t-54 122l98 8q4 -34 21 -57t61 -23t61 23t21 57l98 -8
q-5 -82 -54 -122t-126 -40z" />
    <glyph glyph-name="afii10145" unicode="&#x40f;" horiz-adv-x="708" 
d="M251 700v-568h206v568h186v-700h-199v-163h-180v163h-199v700h186z" />
    <glyph glyph-name="afii10017" unicode="&#x410;" horiz-adv-x="710" 
d="M240 700h230l250 -700h-200l-47 148h-247l-46 -148h-190zM431 283l-80 267h-2l-81 -267h163z" />
    <glyph glyph-name="afii10018" unicode="&#x411;" horiz-adv-x="660" 
d="M251 132h57q10 0 23 0.5t27 2.5t27.5 6t24.5 12q18 13 23.5 29t5.5 31q0 32 -13 48t-28 24q-14 7 -36.5 9.5t-59.5 2.5h-51v-165zM65 700h504v-138h-318v-133h46q33 0 67 -0.5t66.5 -4.5t63 -13.5t55.5 -28.5q10 -8 23.5 -22t25 -35t19.5 -50t8 -68q0 -44 -16.5 -85.5
t-61.5 -73.5q-40 -28 -92 -38t-100 -10h-290v700z" />
    <glyph glyph-name="afii10019" unicode="&#x412;" horiz-adv-x="672" 
d="M251 423h52q21 0 48 3t47 17q16 11 22.5 24t6.5 30q0 14 -4.5 26.5t-15.5 22.5t-32.5 16t-58.5 6h-65v-145zM251 132h63q23 0 52 4t48 17q20 14 25.5 30t5.5 30q0 24 -10 42t-34 29q-8 3 -28 8t-65 5h-57v-165zM65 700h321q13 0 34.5 -1.5t46 -7t50.5 -16.5t47 -31
q49 -46 49 -124q0 -37 -9.5 -60.5t-19.5 -37.5q-17 -23 -42.5 -39t-51.5 -24v-2q21 -3 46 -12t46 -27t35 -47t14 -72q0 -32 -7.5 -56.5t-18.5 -43t-24 -31.5t-25 -21q-22 -15 -48 -24.5t-52.5 -14.5t-52 -6.5t-44.5 -1.5h-294v700z" />
    <glyph glyph-name="afii10020" unicode="&#x413;" horiz-adv-x="539" 
d="M65 700h471v-138h-285v-562h-186v700z" />
    <glyph glyph-name="afii10021" unicode="&#x414;" horiz-adv-x="760" 
d="M317 568v-51q0 -51 -3.5 -115t-23.5 -140q-11 -40 -23 -70.5t-28 -59.5h246v436h-168zM61 132q15 29 31.5 67t27.5 72q14 48 22.5 114.5t8.5 165.5v149h520v-568h84v-295h-180v163h-395v-163h-180v295h61z" />
    <glyph glyph-name="afii10022" unicode="&#x415;" horiz-adv-x="616" 
d="M65 700h492v-132h-306v-145h289v-132h-289v-159h317v-132h-503v700z" />
    <glyph glyph-name="afii10024" unicode="&#x416;" horiz-adv-x="1010" 
d="M598 397h9l184 303h198l-210 -326l236 -374h-207l-201 336h-9v-336h-186v336h-9l-201 -336h-207l236 374l-210 326h198l184 -303h9v303h186v-303z" />
    <glyph glyph-name="afii10025" unicode="&#x417;" horiz-adv-x="588" 
d="M245 -12q-57 0 -112 11.5t-108 31.5v139q42 -18 93.5 -35t111.5 -17q72 0 102.5 26t30.5 69q0 19 -6.5 35t-22.5 26.5t-42.5 16.5t-66.5 6h-76v129h76q68 0 95.5 22.5t27.5 59.5q0 33 -24.5 53.5t-83.5 20.5q-53 0 -100.5 -11.5t-87.5 -32.5v139q103 35 216 35
q70 0 120.5 -14t83 -39.5t48 -60.5t15.5 -77q0 -59 -34 -100.5t-93 -56.5v-2q31 -5 57.5 -18.5t46 -34t30.5 -48.5t11 -61q0 -44 -18 -82.5t-56 -67.5t-96 -45.5t-138 -16.5z" />
    <glyph glyph-name="afii10026" unicode="&#x418;" horiz-adv-x="755" 
d="M65 700h186v-300l-6 -172h6l216 472h223v-700h-186v300l6 172h-6l-216 -472h-223v700z" />
    <glyph glyph-name="afii10027" unicode="&#x419;" horiz-adv-x="755" 
d="M65 700h186v-300l-6 -172h6l216 472h223v-700h-186v300l6 172h-6l-216 -472h-223v700zM377 735q-77 0 -126 40t-54 122l98 8q4 -34 21 -57t61 -23t61 23t21 57l98 -8q-5 -82 -54 -122t-126 -40z" />
    <glyph glyph-name="afii10028" unicode="&#x41a;" horiz-adv-x="694" 
d="M251 397h9l205 303h207l-236 -323l262 -377h-214l-224 336h-9v-336h-186v700h186v-303z" />
    <glyph glyph-name="afii10029" unicode="&#x41b;" horiz-adv-x="742" 
d="M70 -12q-28 0 -60 8v148q13 -3 23.5 -4t21.5 -1q22 0 39.5 10.5t29.5 48t18.5 109t6.5 193.5v200h528v-700h-186v568h-171v-68q0 -166 -14 -266.5t-44 -155t-77.5 -72.5t-114.5 -18z" />
    <glyph glyph-name="afii10030" unicode="&#x41c;" horiz-adv-x="900" 
d="M65 700h270l120 -330l120 330h260v-700h-180v510h-2l-123 -330h-160l-123 330h-2v-510h-180v700z" />
    <glyph glyph-name="afii10031" unicode="&#x41d;" horiz-adv-x="722" 
d="M65 700h186v-268h220v268h186v-700h-186v300h-220v-300h-186v700z" />
    <glyph glyph-name="afii10032" unicode="&#x41e;" horiz-adv-x="778" 
d="M389 574q-42 0 -70 -17t-45 -40q-14 -19 -22.5 -41t-13 -44.5t-6 -43.5t-1.5 -38t1.5 -38t6 -43.5t13 -44.5t22.5 -41q17 -23 45 -40t70 -17t70 17t45 40q14 19 22.5 41t13 44.5t6 43.5t1.5 38t-1.5 38t-6 43.5t-13 44.5t-22.5 41q-17 23 -45 40t-70 17zM389 712
q22 0 53.5 -2.5t66.5 -12t70.5 -28t67.5 -50.5q31 -31 49 -67.5t27.5 -72.5t12.5 -69.5t3 -59.5t-3 -59.5t-12.5 -69.5t-27.5 -72.5t-49 -67.5q-32 -32 -67.5 -50.5t-70.5 -28t-66.5 -12t-53.5 -2.5t-53.5 2.5t-66.5 12t-71 28t-67 50.5q-31 31 -49 67.5t-27.5 72.5
t-12.5 69.5t-3 59.5t3 59.5t12.5 69.5t27.5 72.5t49 67.5q31 32 67 50.5t71 28t66.5 12t53.5 2.5z" />
    <glyph glyph-name="afii10033" unicode="&#x41f;" horiz-adv-x="712" 
d="M65 700h582v-700h-186v568h-210v-568h-186v700z" />
    <glyph glyph-name="afii10034" unicode="&#x420;" horiz-adv-x="621" 
d="M65 700h250q146 0 215.5 -62.5t69.5 -167.5q0 -56 -15.5 -99t-50 -72t-88.5 -44t-131 -15h-64v-240h-186v700zM315 372q45 0 72 27t27 71t-27 71t-72 27h-64v-196h64z" />
    <glyph glyph-name="afii10035" unicode="&#x421;" horiz-adv-x="667" 
d="M450 -12q-107 0 -184.5 27.5t-127.5 76.5t-74.5 114.5t-24.5 142.5q0 93 30 161.5t83.5 113t126.5 66.5t160 22q29 0 81 -6t126 -30v-151q-16 9 -38.5 17.5t-48.5 15.5t-54 11.5t-55 4.5q-53 0 -93.5 -16.5t-68.5 -46.5t-42.5 -71.5t-14.5 -92.5q0 -53 17.5 -94t48 -69.5
t73.5 -43t94 -14.5q39 0 89 10.5t93 27.5v-148q-56 -15 -100.5 -21.5t-95.5 -6.5z" />
    <glyph glyph-name="afii10036" unicode="&#x422;" horiz-adv-x="556" 
d="M185 562h-172v138h530v-138h-172v-562h-186v562z" />
    <glyph glyph-name="afii10037" unicode="&#x423;" horiz-adv-x="692" 
d="M226 -12q-23 0 -51.5 4t-64.5 18v130q20 -9 41.5 -14t38.5 -5q22 0 42.5 10t31.5 33l12 27l-278 509h214l154 -340l142 340h194l-274 -580q-30 -63 -75.5 -97.5t-126.5 -34.5z" />
    <glyph glyph-name="afii10038" unicode="&#x424;" horiz-adv-x="948" 
d="M381 75h-32q-68 0 -123 20t-94.5 57t-61 89.5t-21.5 118.5t21.5 118.5t61 89.5t94.5 57t123 20h32v87h186v-87h32q67 0 122.5 -20t95 -57t61 -89.5t21.5 -118.5t-21.5 -118.5t-61 -89.5t-95 -57t-122.5 -20h-32v-87h-186v87zM709 360q0 38 -9.5 66t-25 46t-35 26.5
t-40.5 8.5h-36v-294h36q21 0 40.5 8.5t35 26.5t25 46t9.5 66zM239 360q0 -38 9.5 -66t25 -46t35 -26.5t40.5 -8.5h36v294h-36q-21 0 -40.5 -8.5t-35 -26.5t-25 -46t-9.5 -66z" />
    <glyph glyph-name="afii10039" unicode="&#x425;" horiz-adv-x="708" 
d="M229 368l-202 332h217l117 -231l120 231h204l-204 -332l224 -368h-222l-135 258l-134 -258h-211z" />
    <glyph glyph-name="afii10040" unicode="&#x426;" horiz-adv-x="732" 
d="M251 700v-568h206v568h186v-568h84v-295h-180v163h-482v700h186z" />
    <glyph glyph-name="afii10041" unicode="&#x427;" horiz-adv-x="687" 
d="M436 258q-33 -10 -68.5 -15t-77.5 -5q-27 0 -56 3t-57 11t-52 22.5t-42 37.5q-17 23 -27.5 56.5t-10.5 78.5v253h186v-219q0 -45 7.5 -63t12.5 -23q8 -9 19.5 -14.5t23 -7.5t21.5 -2.5t15 -0.5q25 0 53 4.5t53 12.5v313h186v-700h-186v258z" />
    <glyph glyph-name="afii10042" unicode="&#x428;" horiz-adv-x="996" 
d="M251 700v-568h154v568h186v-568h154v568h186v-700h-866v700h186z" />
    <glyph glyph-name="afii10043" unicode="&#x429;" horiz-adv-x="1020" 
d="M251 700v-568h154v568h186v-568h154v568h186v-568h84v-289h-180v157h-770v700h186z" />
    <glyph glyph-name="afii10044" unicode="&#x42a;" horiz-adv-x="764" 
d="M180 562h-170v138h356v-240h86q76 0 130 -15t88 -44t49.5 -72t15.5 -99q0 -105 -69 -167.5t-214 -62.5h-272v562zM549 230q0 48 -25 73t-72 25h-86v-196h86q47 0 72 25t25 73z" />
    <glyph glyph-name="afii10045" unicode="&#x42b;" horiz-adv-x="960" 
d="M65 700h186v-240h86q76 0 130 -15t88 -44t49.5 -72t15.5 -99q0 -105 -69 -167.5t-214 -62.5h-272v700zM434 230q0 48 -25 73t-72 25h-86v-196h86q47 0 72 25t25 73zM709 700h186v-700h-186v700z" />
    <glyph glyph-name="afii10046" unicode="&#x42c;" horiz-adv-x="649" 
d="M65 700h186v-240h86q76 0 130 -15t88 -44t49.5 -72t15.5 -99q0 -105 -69 -167.5t-214 -62.5h-272v700zM434 230q0 48 -25 73t-72 25h-86v-196h86q47 0 72 25t25 73z" />
    <glyph glyph-name="afii10047" unicode="&#x42d;" horiz-adv-x="680" 
d="M234 -12q-53 0 -97 6t-99 23v142q45 -18 91.5 -28t84.5 -10q46 0 85.5 10t69.5 31.5t48.5 55t24.5 80.5h-266v128h263q-12 76 -69 114.5t-142 38.5q-51 0 -97 -14.5t-94 -44.5v153q40 16 90.5 27.5t116.5 11.5q96 0 169.5 -25.5t123.5 -72.5t76 -114t26 -151
q0 -83 -26 -149.5t-77 -113.5t-127 -72.5t-175 -25.5z" />
    <glyph glyph-name="afii10048" unicode="&#x42e;" horiz-adv-x="1058" 
d="M674 574q-35 0 -61 -13t-45 -36q-15 -19 -24 -41.5t-14.5 -45.5t-7 -46t-1.5 -42q0 -18 1 -39t5.5 -43t13 -44.5t22.5 -41.5q23 -32 52 -44t59 -12q11 0 25 2t28.5 8t29.5 17t28 28q14 19 22.5 41.5t13 45t5.5 44t1 38.5q0 16 -1 37t-5.5 43.5t-13 45t-22.5 42.5
q-40 56 -111 56zM344 432q6 48 26.5 99t55.5 88q30 32 65 50.5t69 28t64 12t50 2.5q22 0 52.5 -2.5t65 -12t70 -28t66.5 -50.5q30 -31 48 -67.5t27.5 -72.5t12.5 -69.5t3 -59.5t-3 -59.5t-12.5 -69.5t-27.5 -72.5t-48 -67.5q-31 -32 -66.5 -50.5t-70 -28t-65 -12t-52.5 -2.5
q-20 0 -50 2.5t-64 12t-69 28t-65 50.5q-20 21 -35 47t-25.5 54.5t-17 58.5t-8.5 59h-89v-300h-186v700h186v-268h93z" />
    <glyph glyph-name="afii10049" unicode="&#x42f;" horiz-adv-x="667" 
d="M177 272q-59 26 -85.5 76.5t-26.5 123.5q0 52 17 94t51 72t85 46t120 16h264v-700h-186v244h-62l-121 -244h-208zM251 472q0 -46 24 -71t63 -25h78v192h-78q-39 0 -63 -25t-24 -71z" />
    <glyph glyph-name="afii10065" unicode="&#x430;" horiz-adv-x="607" 
d="M226 -12q-39 0 -74.5 10t-62 30t-42.5 50.5t-16 71.5q0 55 22.5 90t60 54.5t86 26.5t100.5 7h84q1 24 -9.5 40t-28 26t-39.5 14.5t-44 4.5q-38 0 -79 -8.5t-88 -32.5v124q41 17 91.5 27t113.5 10q51 0 97 -12t80 -38t54 -67t20 -99v-317h-159v82h-2q-26 -45 -68.5 -69.5
t-96.5 -24.5zM272 108q25 0 45 10t34 27t22 40t11 49h-70q-57 0 -86 -15t-29 -54q0 -29 23 -43t50 -14z" />
    <glyph glyph-name="afii10066" unicode="&#x431;" horiz-adv-x="676" 
d="M347 397q-26 0 -44.5 -8t-33.5 -24q-20 -21 -27 -47t-7 -58q0 -26 5.5 -56.5t28.5 -56.5q29 -34 78 -34t78 34q23 26 28.5 56.5t5.5 56.5q0 32 -7 58t-27 47q-15 16 -33.5 24t-44.5 8zM182 404q19 40 45 63t54 35t54.5 15.5t45.5 3.5q71 0 115.5 -20t69.5 -43
q33 -30 56 -79.5t23 -118.5q0 -42 -9 -75t-23 -58.5t-30.5 -44.5t-31.5 -31q-38 -30 -90 -47t-114 -17t-114 17t-90 47q-33 27 -54 60.5t-33 74.5t-16.5 89t-4.5 102q0 37 2.5 77t11 78.5t25.5 74.5t46 66q24 25 50.5 41t55 26t57 14.5t57.5 6.5q45 3 78 4.5t62 3.5t56.5 7
t62.5 15v-154q-30 -9 -56.5 -13.5t-53.5 -6.5t-56.5 -3.5t-65.5 -3.5q-21 -1 -42.5 -3t-41.5 -7t-38.5 -15.5t-33.5 -28.5q-26 -30 -30.5 -62.5t-4.5 -64.5v-25h6z" />
    <glyph glyph-name="afii10067" unicode="&#x432;" horiz-adv-x="645" 
d="M236 105h92q27 0 43 2.5t26 8.5q9 6 16 16.5t7 26.5q0 14 -5 27.5t-16 21.5q-14 11 -35 13.5t-37 2.5h-91v-119zM236 322h93q14 0 31 2.5t28 10.5q8 6 13.5 16t5.5 23q0 12 -6.5 20.5t-15.5 13.5q-10 5 -27 6.5t-29 1.5h-93v-94zM420 521q30 0 61 -7t53 -21
q29 -19 41 -46.5t12 -54.5q0 -20 -7.5 -42.5t-22.5 -37.5q-13 -14 -34 -24t-38 -14v-2q18 -2 32 -7t24 -10t16 -9.5t8 -5.5q25 -21 32.5 -46t7.5 -48q0 -32 -12 -60.5t-43 -51.5t-67 -28.5t-63 -5.5h-364v521h364z" />
    <glyph glyph-name="afii10068" unicode="&#x433;" horiz-adv-x="484" 
d="M56 521h418v-132h-238v-389h-180v521z" />
    <glyph glyph-name="afii10069" unicode="&#x434;" horiz-adv-x="661" 
d="M404 126v269h-138v-52q0 -56 -5.5 -91t-10.5 -53q-6 -22 -14 -39.5t-18 -33.5h186zM584 521v-389h77v-279h-170v147h-321v-147h-170v279h53q15 24 24.5 47.5t15.5 46.5q11 42 13 89t2 103v103h476z" />
    <glyph glyph-name="afii10070" unicode="&#x435;" horiz-adv-x="611" 
d="M411 310q1 18 -2.5 32t-8.5 24.5t-9.5 16t-5.5 7.5q-14 17 -33 23t-39 6t-38.5 -6.5t-34.5 -23.5q-12 -14 -20.5 -34t-8.5 -45h200zM213 208q4 -32 18.5 -49.5t23.5 -23.5q13 -9 28 -14.5t30 -8t29.5 -3.5t26.5 -1q22 0 62 6.5t94 33.5v-127q-27 -11 -72.5 -22
t-114.5 -11q-75 0 -130 20t-93 55q-15 13 -30 32t-27 43.5t-19.5 55.5t-7.5 69q0 18 2.5 42.5t11.5 52.5t26 56.5t45 52.5q29 25 76.5 45.5t118.5 20.5q16 0 39.5 -2t50.5 -10t54 -23.5t51 -42.5q30 -35 48.5 -89t18.5 -125v-33h-360z" />
    <glyph glyph-name="afii10072" unicode="&#x436;" horiz-adv-x="848" 
d="M511 278h10l125 243h184l-140 -236l164 -285h-198l-135 260h-10v-260h-174v260h-10l-135 -260h-198l164 285l-140 236h184l125 -243h10v243h174v-243z" />
    <glyph glyph-name="afii10073" unicode="&#x437;" horiz-adv-x="540" 
d="M237 -12q-112 0 -217 34v129q41 -23 91.5 -36t101.5 -13q13 0 31.5 1.5t35 7.5t28 17t11.5 31q0 18 -10.5 29t-25.5 16.5t-33 7t-33 1.5h-83v108h90q12 0 26 1.5t26 6.5t20 15t8 27q0 16 -9.5 25.5t-24 14.5t-31.5 6.5t-31 1.5q-42 0 -88.5 -11t-87.5 -33v125
q50 20 104.5 26.5t113.5 6.5q34 0 75.5 -5.5t77.5 -21.5t60.5 -44.5t24.5 -74.5q0 -44 -27.5 -74.5t-70.5 -41.5v-2q49 -5 82 -37.5t33 -85.5q0 -49 -26.5 -80t-67 -48t-87.5 -23.5t-87 -6.5z" />
    <glyph glyph-name="afii10074" unicode="&#x438;" horiz-adv-x="696" 
d="M236 521v-157l-5 -164h3l203 321h203v-521h-180v155l5 166h-3l-203 -321h-203v521h180z" />
    <glyph glyph-name="afii10075" unicode="&#x439;" horiz-adv-x="696" 
d="M236 521v-157l-5 -164h3l203 321h203v-521h-180v155l5 166h-3l-203 -321h-203v521h180zM348 565q-71 0 -118.5 40t-51.5 122l95 8q4 -36 19 -58t56 -22t56 22t19 58l95 -8q-4 -82 -51.5 -122t-118.5 -40z" />
    <glyph glyph-name="afii10076" unicode="&#x43a;" horiz-adv-x="639" 
d="M236 286h10l176 235h198l-188 -238l210 -283h-212l-184 260h-10v-260h-180v521h180v-235z" />
    <glyph glyph-name="afii10077" unicode="&#x43b;" horiz-adv-x="659" 
d="M80 -12q-21 0 -42.5 4t-32.5 8v127q8 -2 16 -3t14 -1q19 0 34 8t25.5 34t16 75t5.5 130v151h487v-521h-180v389h-147v-19q0 -121 -11.5 -195.5t-35.5 -116t-61 -56t-88 -14.5z" />
    <glyph glyph-name="afii10078" unicode="&#x43c;" horiz-adv-x="782" 
d="M56 521h234l106 -281l104 281h226v-521h-175v324h-4l-76 -214h-160l-76 214h-4v-324h-175v521z" />
    <glyph glyph-name="afii10079" unicode="&#x43d;" horiz-adv-x="667" 
d="M56 521h180v-183h195v183h180v-521h-180v206h-195v-206h-180v521z" />
    <glyph glyph-name="afii10080" unicode="&#x43e;" horiz-adv-x="668" 
d="M334 407q-50 0 -81 -34q-23 -26 -29.5 -56.5t-6.5 -56.5t6.5 -56.5t29.5 -56.5q31 -34 81 -34t81 34q23 26 29.5 56.5t6.5 56.5t-6.5 56.5t-29.5 56.5q-31 34 -81 34zM334 533q63 0 116 -17t91 -47q16 -12 33 -30.5t31 -44t23 -59t9 -75.5t-9 -75.5t-23 -59t-31 -44
t-33 -30.5q-26 -21 -54 -33t-55 -19t-52.5 -9t-45.5 -2t-45.5 2t-52.5 9t-55 19t-54 33q-16 12 -33 30.5t-31 44t-23 59t-9 75.5t9 75.5t23 59t31 44t33 30.5q38 30 91 47t116 17z" />
    <glyph glyph-name="afii10081" unicode="&#x43f;" horiz-adv-x="655" 
d="M56 521h543v-521h-180v389h-183v-389h-180v521z" />
    <glyph glyph-name="afii10082" unicode="&#x440;" horiz-adv-x="672" 
d="M455 260q0 32 -7.5 56t-21.5 41q-18 23 -39 30.5t-41 7.5q-29 0 -47.5 -11.5t-27.5 -21.5q-35 -38 -35 -103q0 -39 12 -62t20 -33q18 -22 39.5 -30t38.5 -8q19 0 41 8t40 33q6 8 17 31.5t11 61.5zM56 521h166v-94h2q14 27 34 47t50 35q25 13 52 18.5t55 5.5
q59 0 101.5 -24.5t70.5 -63.5t41 -87t13 -95q0 -54 -15 -102t-41 -83q-20 -27 -43.5 -44.5t-47.5 -27.5t-47.5 -14t-43.5 -4q-26 0 -51 5.5t-45 15.5q-15 8 -34 23t-35 41h-2v-283h-180v731z" />
    <glyph glyph-name="afii10083" unicode="&#x441;" horiz-adv-x="501" 
d="M339 -12q-68 0 -124.5 19t-97.5 54.5t-63.5 86t-22.5 112.5q0 61 22 111.5t62.5 86.5t97.5 55.5t128 19.5q32 0 66 -6t70 -23v-132q-32 19 -65.5 24t-50.5 5q-30 0 -56.5 -10t-45.5 -28.5t-30 -44.5t-11 -58q0 -38 14 -64.5t36 -43t49 -24.5t54 -8q17 0 46.5 4t64.5 21
v-134q-19 -6 -54.5 -14.5t-88.5 -8.5z" />
    <glyph glyph-name="afii10084" unicode="&#x442;" horiz-adv-x="514" 
d="M167 389h-160v132h500v-132h-160v-389h-180v389z" />
    <glyph glyph-name="afii10085" unicode="&#x443;" horiz-adv-x="605" 
d="M144 -222q-17 0 -40 2t-59 10v140q18 -7 36 -10.5t41 -3.5q25 0 41 6.5t25 14.5q12 10 19.5 24.5t11.5 26.5l-211 533h194l112 -340h2l107 340h180l-200 -507l-17 -42.5t-18 -42.5q-10 -22 -29.5 -55t-54.5 -59q-33 -24 -66 -30.5t-74 -6.5z" />
    <glyph glyph-name="afii10086" unicode="&#x444;" horiz-adv-x="866" 
d="M343 -11q-5 -1 -8.5 -1h-7.5q-145 0 -220.5 72t-75.5 195q0 132 75 205t221 73h8t8 -1v218h180v-218q5 1 16 1q146 0 221 -73t75 -205q0 -123 -75.5 -195t-220.5 -72q-11 0 -16 1v-199h-180v199zM653 255q0 78 -29 110.5t-85 32.5h-11t-10 -1v-274h21q56 0 85 31.5
t29 100.5zM213 255q0 -69 29 -100.5t85 -31.5h21v274q-5 1 -11 1h-10q-56 0 -85 -32.5t-29 -110.5z" />
    <glyph glyph-name="afii10087" unicode="&#x445;" horiz-adv-x="593" 
d="M177 265l-163 256h213l77 -156l81 156h197l-163 -254l174 -267h-217l-87 162l-86 -162h-203z" />
    <glyph glyph-name="afii10088" unicode="&#x446;" horiz-adv-x="670" 
d="M236 521v-389h177v389h180v-389h77v-279h-170v147h-444v521h180z" />
    <glyph glyph-name="afii10089" unicode="&#x447;" horiz-adv-x="623" 
d="M567 521v-521h-180v195q-37 -11 -73.5 -15.5t-75.5 -4.5q-43 0 -73.5 6.5t-51 16.5t-32.5 20.5t-18 18.5q-20 27 -24.5 58.5t-4.5 60.5v165h180v-139q0 -10 2 -26t12 -28q12 -14 33 -17.5t36 -3.5q47 0 90 13v201h180z" />
    <glyph glyph-name="afii10090" unicode="&#x448;" horiz-adv-x="908" 
d="M236 521v-389h133v389h170v-389h133v389h180v-521h-796v521h180z" />
    <glyph glyph-name="afii10091" unicode="&#x449;" horiz-adv-x="929" 
d="M236 521v-389h133v389h170v-389h133v389h180v-389h77v-279h-170v147h-703v521h180z" />
    <glyph glyph-name="afii10092" unicode="&#x44a;" horiz-adv-x="681" 
d="M134 389h-124v132h304v-151h94q63 0 110 -14t78 -39t46 -59t15 -73t-15 -73t-46 -59t-78 -39t-110 -14h-274v389zM471 185q0 30 -19.5 47.5t-63.5 17.5h-74v-130h74q44 0 63.5 17.5t19.5 47.5z" />
    <glyph glyph-name="afii10093" unicode="&#x44b;" horiz-adv-x="887" 
d="M651 521h180v-521h-180v521zM56 521h180v-151h94q63 0 110 -14t78 -39t46 -59t15 -73t-15 -73t-46 -59t-78 -39t-110 -14h-274v521zM393 185q0 30 -19.5 47.5t-63.5 17.5h-74v-130h74q44 0 63.5 17.5t19.5 47.5z" />
    <glyph glyph-name="afii10094" unicode="&#x44c;" horiz-adv-x="603" 
d="M56 521h180v-151h94q63 0 110 -14t78 -39t46 -59t15 -73t-15 -73t-46 -59t-78 -39t-110 -14h-274v521zM393 185q0 30 -19.5 47.5t-63.5 17.5h-74v-130h74q44 0 63.5 17.5t19.5 47.5z" />
    <glyph glyph-name="afii10095" unicode="&#x44d;" horiz-adv-x="514" 
d="M180 -12q-67 0 -106.5 11t-53.5 16v116q28 -12 63.5 -20.5t70.5 -8.5q63 0 101 27.5t42 89.5h-193v104h193q-10 50 -43.5 73t-93.5 23q-40 0 -71 -7.5t-64 -21.5v116q14 5 51 16t102 11q64 0 119.5 -15.5t97 -48.5t65 -83.5t23.5 -120.5q0 -66 -21 -118t-60 -87
t-95.5 -53.5t-126.5 -18.5z" />
    <glyph glyph-name="afii10096" unicode="&#x44e;" horiz-adv-x="919" 
d="M589 407q-49 0 -78 -34q-13 -15 -24 -42t-11 -71t11 -71t24 -42q29 -34 78 -34t78 34q13 15 24 42t11 71t-11 71t-24 42q-29 34 -78 34zM311 336q2 10 6.5 25t13.5 33t23 37.5t36 37.5q47 40 100 52t99 12q72 0 122 -19.5t82 -44.5q15 -12 32 -31t31 -44.5t23 -58.5
t9 -75t-9 -75t-23 -58.5t-31 -44.5t-32 -31q-38 -30 -90 -46.5t-114 -16.5q-63 0 -113.5 16.5t-85.5 46.5q-23 20 -49.5 58.5t-34.5 100.5h-70v-210h-180v521h180v-185h75z" />
    <glyph glyph-name="afii10097" unicode="&#x44f;" horiz-adv-x="609" 
d="M126 187q-54 23 -78 62.5t-24 90.5q0 40 13.5 73t43 57t76 37.5t111.5 13.5h285v-521h-180v164h-81l-83 -164h-194zM210 340q0 -29 18 -45t60 -16h85v122h-85q-42 0 -60 -16t-18 -45z" />
    <glyph glyph-name="afii10071" unicode="&#x451;" horiz-adv-x="611" 
d="M411 310q1 18 -2.5 32t-8.5 24.5t-9.5 16t-5.5 7.5q-14 17 -33 23t-39 6t-38.5 -6.5t-34.5 -23.5q-12 -14 -20.5 -34t-8.5 -45h200zM213 208q4 -32 18.5 -49.5t23.5 -23.5q13 -9 28 -14.5t30 -8t29.5 -3.5t26.5 -1q22 0 62 6.5t94 33.5v-127q-27 -11 -72.5 -22
t-114.5 -11q-75 0 -130 20t-93 55q-15 13 -30 32t-27 43.5t-19.5 55.5t-7.5 69q0 18 2.5 42.5t11.5 52.5t26 56.5t45 52.5q29 25 76.5 45.5t118.5 20.5q16 0 39.5 -2t50.5 -10t54 -23.5t51 -42.5q30 -35 48.5 -89t18.5 -125v-33h-360zM358 738h144v-132h-144v132zM130 738
h144v-132h-144v132z" />
    <glyph glyph-name="afii10099" unicode="&#x452;" horiz-adv-x="667" 
d="M62 594h-72v70h72v86h180v-86h212v-70h-212v-150h2q22 30 43.5 45t29.5 20q20 11 44.5 17.5t56.5 6.5q48 0 83.5 -14t60.5 -40q9 -9 18.5 -22.5t17.5 -32t13.5 -43.5t5.5 -56v-289q0 -23 -1 -48.5t-5.5 -51.5t-13.5 -50t-24 -43q-8 -10 -21.5 -21.5t-33.5 -21t-47.5 -16
t-63.5 -6.5q-26 0 -42 2.5t-30 6.5l4 116q3 -1 10 -2.5t24 -1.5q20 0 31.5 8t16.5 15q4 5 10 24t6 66v240q0 9 -1 24t-4 31.5t-9.5 31.5t-18.5 26q-13 12 -26.5 15t-23.5 3q-31 0 -52 -11.5t-35 -33.5q-10 -16 -17.5 -43t-7.5 -75v-220h-180v594z" />
    <glyph glyph-name="afii10100" unicode="&#x453;" horiz-adv-x="484" 
d="M56 521h418v-132h-238v-389h-180v521zM270 750h186l-130 -160h-126z" />
    <glyph glyph-name="afii10101" unicode="&#x454;" horiz-adv-x="514" 
d="M206 219q2 -60 40 -88.5t103 -28.5q32 0 69 8.5t65 20.5v-116q-14 -5 -53.5 -16t-106.5 -11q-66 0 -122 17t-96 51.5t-62.5 86.5t-22.5 122q0 66 22.5 116t62.5 84t96 51t124 17q65 0 102 -11t51 -16v-117q-35 16 -69 23t-66 7q-54 0 -89 -21t-48 -75h193v-104h-193z" />
    <glyph glyph-name="afii10102" unicode="&#x455;" horiz-adv-x="500" 
d="M211 -12q-53 0 -94.5 6.5t-80.5 18.5v134q16 -6 38.5 -13t39.5 -12q24 -6 51 -10t56 -4q16 0 30 2.5t23 9.5q6 5 10.5 12t4.5 17q0 8 -4.5 17.5t-15.5 17.5q-8 5 -23 11t-50 15l-26 7q-24 7 -54.5 18.5t-54.5 40.5q-29 35 -29 85q0 44 19 79.5t61 58.5q20 11 41.5 18
t41 10.5t36 4.5t27.5 1q72 0 116 -11t63 -19v-128q-34 17 -74.5 27.5t-79.5 10.5q-30 0 -44.5 -3.5t-17.5 -5.5q-21 -9 -21 -29q0 -9 6 -17q6 -7 16 -12.5t22.5 -9.5t26 -7t25.5 -6l16 -4q31 -8 52 -15.5t38 -17.5q10 -6 22 -16t21.5 -24.5t16 -35t6.5 -48.5
q0 -49 -18 -79.5t-40 -47.5t-49.5 -26.5t-55.5 -14t-53 -5.5t-41 -1z" />
    <glyph glyph-name="afii10103" unicode="&#x456;" horiz-adv-x="334" 
d="M257 606h-180v132h180v-132zM77 521h180v-521h-180v521z" />
    <glyph glyph-name="afii10104" unicode="&#x457;" horiz-adv-x="334" 
d="M77 521h180v-521h-180v521zM143 738v-132h-120v132h120zM311 738v-132h-120v132h120z" />
    <glyph glyph-name="afii10105" unicode="&#x458;" horiz-adv-x="313" 
d="M67 -222q-15 0 -37 1.5t-55 7.5v117q2 -1 13.5 -3.5t28.5 -2.5q37 0 50 30q6 14 8 34.5t2 37.5v521h180v-526q0 -31 -5 -70.5t-24 -72.5q-26 -45 -67.5 -59.5t-93.5 -14.5zM257 606h-180v132h180v-132z" />
    <glyph glyph-name="afii10106" unicode="&#x459;" horiz-adv-x="957" 
d="M80 -12q-21 0 -42.5 4t-32.5 8v127q8 -2 16 -3t14 -1q19 0 34 8t25.5 34t16 75t5.5 130v151h477v-151h91q63 0 110 -14t78 -39t46 -59t15 -73t-15 -73t-46 -59t-78 -39t-110 -14h-271v389h-137v-19q0 -121 -11.5 -195.5t-35.5 -116t-61 -56t-88 -14.5zM747 185
q0 30 -19.5 47.5t-63.5 17.5h-71v-130h71q44 0 63.5 17.5t19.5 47.5z" />
    <glyph glyph-name="afii10107" unicode="&#x45a;" horiz-adv-x="968" 
d="M421 224h-185v-224h-180v521h180v-165h185v165h180v-165h94q63 0 110 -14t78 -38t46 -56.5t15 -69.5t-15 -69.5t-46 -56.5t-78 -38t-110 -14h-274v224zM758 178q0 26 -19 42t-64 16h-74v-116h74q45 0 64 16t19 42z" />
    <glyph glyph-name="afii10108" unicode="&#x45b;" horiz-adv-x="667" 
d="M62 594h-72v70h72v86h180v-86h212v-70h-212v-150h2q22 30 43.5 45t29.5 20q20 11 44.5 17.5t56.5 6.5q48 0 83.5 -14t60.5 -40q9 -9 18.5 -22.5t17.5 -32t13.5 -43.5t5.5 -56v-325h-180v252q0 9 -1 24t-4 31.5t-9.5 31.5t-18.5 26q-13 12 -26.5 15t-23.5 3
q-31 0 -52 -11.5t-35 -33.5q-10 -16 -17.5 -43t-7.5 -75v-220h-180v594z" />
    <glyph glyph-name="afii10109" unicode="&#x45c;" horiz-adv-x="639" 
d="M236 286h10l176 235h198l-188 -238l210 -283h-212l-184 260h-10v-260h-180v521h180v-235zM310 750h186l-130 -160h-126z" />
    <glyph glyph-name="afii10110" unicode="&#x45e;" horiz-adv-x="605" 
d="M144 -222q-17 0 -40 2t-59 10v140q18 -7 36 -10.5t41 -3.5q25 0 41 6.5t25 14.5q12 10 19.5 24.5t11.5 26.5l-211 533h194l112 -340h2l107 340h180l-200 -507l-17 -42.5t-18 -42.5q-10 -22 -29.5 -55t-54.5 -59q-33 -24 -66 -30.5t-74 -6.5zM312 565q-71 0 -118.5 40
t-51.5 122l95 8q4 -36 19 -58t56 -22t56 22t19 58l95 -8q-4 -82 -51.5 -122t-118.5 -40z" />
    <glyph glyph-name="afii10193" unicode="&#x45f;" horiz-adv-x="649" 
d="M236 521v-389h177v389h180v-521h-184v-147h-169v147h-184v521h180z" />
    <glyph glyph-name="afii10146" unicode="&#x462;" horiz-adv-x="761" 
d="M177 489h-164v135h164v101h186v-101h184v-135h-184v-72h84q41 0 90.5 -4t93 -24t72.5 -61.5t29 -116.5q0 -58 -25 -98t-64 -65t-87 -36.5t-94 -11.5h-285v489zM363 128h64q14 0 34.5 1.5t39 9.5t32 24t13.5 46q0 28 -11 44t-27.5 24t-36.5 10t-37 2h-71v-161z" />
    <glyph glyph-name="afii10194" unicode="&#x463;" horiz-adv-x="695" 
d="M323 395v-60h136q47 0 86 -9t67 -28.5t43.5 -51t15.5 -77.5q0 -45 -16.5 -77t-45.5 -52.5t-69 -30t-88 -9.5h-309v395h-136v126h136v179h180v-179h172v-126h-172zM323 110h83q31 0 55 13t24 45q0 8 -2.5 18t-10.5 18.5t-22 14.5t-36 6h-91v-115z" />
    <glyph glyph-name="afii10147" unicode="&#x472;" horiz-adv-x="778" 
d="M233 310q1 -32 11 -70t30 -67q6 -9 15.5 -19t24 -18.5t33 -14t42.5 -5.5t42.5 5.5t33 14t24 18.5t15.5 19q20 29 30 67t11 70h-312zM541 422q-3 26 -12.5 55t-24.5 50q-6 9 -15.5 19t-24 18.5t-33 14t-42.5 5.5t-42.5 -5.5t-33 -14t-24 -18.5t-15.5 -19
q-15 -21 -24.5 -50t-12.5 -55h304zM389 712q22 0 53.5 -2.5t66.5 -12t70.5 -28t67.5 -50.5q31 -31 49 -67.5t27.5 -72.5t12.5 -69.5t3 -59.5t-3 -59.5t-12.5 -69.5t-27.5 -72.5t-49 -67.5q-32 -32 -67.5 -50.5t-70.5 -28t-66.5 -12t-53.5 -2.5t-53.5 2.5t-66.5 12t-71 28
t-67 50.5q-31 31 -49 67.5t-27.5 72.5t-12.5 69.5t-3 59.5t3 59.5t12.5 69.5t27.5 72.5t49 67.5q31 32 67 50.5t71 28t66.5 12t53.5 2.5z" />
    <glyph glyph-name="afii10195" unicode="&#x473;" horiz-adv-x="668" 
d="M221 215q6 -40 30 -68q17 -20 38.5 -27t44.5 -7q24 0 44.5 7t38.5 27q16 17 22 34.5t8 33.5h-226zM445 314q-2 11 -8 26.5t-22 32.5q-15 17 -34.5 25.5t-46.5 8.5t-46 -8.5t-35 -25.5q-25 -27 -30 -59h222zM334 533q63 0 116 -17t91 -47q16 -12 33 -30.5t31 -44t23 -59
t9 -75.5t-9 -75.5t-23 -59t-31 -44t-33 -30.5q-26 -21 -54 -33t-55 -19t-52.5 -9t-45.5 -2t-45.5 2t-52.5 9t-55 19t-54 33q-16 12 -33 30.5t-31 44t-23 59t-9 75.5t9 75.5t23 59t31 44t33 30.5q38 30 91 47t116 17z" />
    <glyph glyph-name="afii10148" unicode="&#x474;" horiz-adv-x="764" 
d="M-10 700h198l155 -550h2l103 377q15 53 35.5 88.5t46.5 57t56.5 30.5t64.5 9q13 0 24.5 -0.5t24 -2.5t28.5 -6t38 -11v-133q-15 5 -34 9t-41 4q-26 0 -43.5 -21.5t-34.5 -70.5l-159 -480h-230z" />
    <glyph glyph-name="afii10196" unicode="&#x475;" horiz-adv-x="647" 
d="M589 407q-17 0 -29 -13.5t-21 -37.5l-134 -356h-205l-190 521h193l105 -371h2l57 193q14 48 28 84t34.5 59.5t49.5 35t74 11.5q34 0 54.5 -4t37.5 -7v-124q-3 1 -10.5 2.5t-15.5 3t-16 2.5t-14 1z" />
    <glyph glyph-name="afii10050" unicode="&#x490;" horiz-adv-x="545" 
d="M65 700h297v120h180v-258h-291v-562h-186v700z" />
    <glyph glyph-name="afii10098" unicode="&#x491;" horiz-adv-x="490" 
d="M56 521h261v94h170v-226h-251v-389h-180v521z" />
    <glyph glyph-name="uni0492" unicode="&#x492;" horiz-adv-x="565" 
d="M0 404h95v296h467v-132h-281v-164h239v-122h-239v-282h-186v282h-95v122z" />
    <glyph glyph-name="uni0493" unicode="&#x493;" horiz-adv-x="518" 
d="M0 292h90v229h418v-132h-238v-97h197v-118h-197v-174h-180v174h-90v118z" />
    <glyph glyph-name="uni0494" unicode="&#x494;" horiz-adv-x="677" 
d="M65 700h464v-138h-278v-145q29 14 71 22.5t89 8.5q35 0 72.5 -7t67.5 -26q18 -11 33.5 -28t27 -41t18.5 -55.5t7 -72.5q0 -48 -12.5 -94.5t-41.5 -78.5q-17 -19 -37 -30.5t-40.5 -17.5t-40.5 -7.5t-37 -1.5q-18 0 -31 0.5t-25.5 2t-25.5 4.5t-30 7v134q11 -5 27.5 -8.5
t36.5 -3.5q8 0 23.5 4t26.5 20q9 12 12 32t3 34v14q0 23 -6 40.5t-17 28.5q-8 8 -22.5 13.5t-37.5 5.5q-9 0 -22 -1t-28 -3.5t-31 -7.5t-30 -12v-292h-186v700z" />
    <glyph glyph-name="uni0495" unicode="&#x495;" horiz-adv-x="578" 
d="M56 521h418v-132h-238v-92h54q72 0 122 -15.5t81.5 -45t45.5 -73t14 -98.5q0 -125 -74 -195t-230 -70v125q28 0 50 4.5t37 18t23 39t8 68.5q0 37 -7 60t-22 36t-38 17t-54 4h-10v-172h-180v521z" />
    <glyph glyph-name="uni0496" unicode="&#x496;" horiz-adv-x="1029" 
d="M808 0l-201 336h-9v-336h-186v336h-9l-201 -336h-207l236 374l-210 326h198l184 -303h9v303h186v-303h9l184 303h198l-210 -326l152 -242h98v-295h-180v163h-41z" />
    <glyph glyph-name="uni0497" unicode="&#x497;" horiz-adv-x="859" 
d="M689 0h-33l-135 260h-10v-260h-174v260h-10l-135 -260h-198l164 285l-140 236h184l125 -243h10v243h174v-243h10l125 243h184l-140 -236l88 -153h81v-279h-170v147z" />
    <glyph glyph-name="uni0498" unicode="&#x498;" horiz-adv-x="588" 
d="M180 -8q-80 11 -155 39v139q42 -18 93.5 -35t111.5 -17q72 0 102.5 26t30.5 69q0 19 -6.5 35t-22.5 26.5t-42.5 16.5t-66.5 6h-76v129h76q68 0 95.5 22.5t27.5 59.5q0 33 -24.5 53.5t-83.5 20.5q-53 0 -100.5 -11.5t-87.5 -32.5v139q103 35 216 35q70 0 120.5 -14
t83 -39.5t48 -60.5t15.5 -77q0 -59 -34 -100.5t-93 -56.5v-2q31 -5 57.5 -18.5t46 -34t30.5 -48.5t11 -61q0 -71 -47 -125.5t-146 -75.5v-149h-180v142z" />
    <glyph glyph-name="uni0499" unicode="&#x499;" horiz-adv-x="540" 
d="M165 -8q-37 4 -73.5 11t-71.5 19v129q41 -23 91.5 -36t101.5 -13q13 0 31.5 1.5t35 7.5t28 17t11.5 31q0 18 -10.5 29t-25.5 16.5t-33 7t-33 1.5h-83v108h90q12 0 26 1.5t26 6.5t20 15t8 27q0 16 -9.5 25.5t-24 14.5t-31.5 6.5t-31 1.5q-42 0 -88.5 -11t-87.5 -33v125
q50 20 104.5 26.5t113.5 6.5q34 0 75.5 -5.5t77.5 -21.5t60.5 -44.5t24.5 -74.5q0 -44 -27.5 -74.5t-70.5 -41.5v-2q49 -5 82 -37.5t33 -85.5q0 -36 -14.5 -61.5t-38 -43.5t-54 -28.5t-63.5 -16.5v-136h-170v132z" />
    <glyph glyph-name="uni049A" unicode="&#x49a;" horiz-adv-x="698" 
d="M484 0l-224 336h-9v-336h-186v700h186v-303h9l205 303h207l-236 -323l170 -245h92v-295h-180v163h-34z" />
    <glyph glyph-name="uni049B" unicode="&#x49b;" horiz-adv-x="637" 
d="M467 0h-37l-184 260h-10v-260h-180v521h180v-235h10l176 235h198l-188 -238l109 -151h96v-279h-170v147z" />
    <glyph glyph-name="uni049C" unicode="&#x49c;" horiz-adv-x="797" 
d="M302 301h-51v-301h-186v700h186v-276h51v118h117v-113l149 271h207l-221 -332l247 -368h-214l-168 295v-116h-117v122z" />
    <glyph glyph-name="uni049D" unicode="&#x49d;" horiz-adv-x="717" 
d="M284 205h-48v-205h-180v521h180v-184h48v88h98v-88h2l116 184h198l-176 -241l198 -280h-212l-125 205h-1v-95h-98v95z" />
    <glyph glyph-name="uni04A0" unicode="&#x4a0;" horiz-adv-x="806" 
d="M363 397h9l205 303h207l-236 -323l262 -377h-214l-224 336h-9v-336h-186v562h-164v138h350v-303z" />
    <glyph glyph-name="uni04A1" unicode="&#x4a1;" horiz-adv-x="733" 
d="M330 286h10l176 235h198l-188 -238l210 -283h-212l-184 260h-10v-260h-180v389h-143v132h323v-235z" />
    <glyph glyph-name="uni04A2" unicode="&#x4a2;" horiz-adv-x="746" 
d="M471 0v300h-220v-300h-186v700h186v-268h220v268h186v-568h84v-295h-180v163h-90z" />
    <glyph glyph-name="uni04A3" unicode="&#x4a3;" horiz-adv-x="688" 
d="M518 0h-87v206h-195v-206h-180v521h180v-183h195v183h180v-389h77v-279h-170v147z" />
    <glyph glyph-name="uni04A4" unicode="&#x4a4;" horiz-adv-x="945" 
d="M65 700h186v-268h220v268h471v-138h-285v-562h-186v300h-220v-300h-186v700z" />
    <glyph glyph-name="uni04A5" unicode="&#x4a5;" horiz-adv-x="859" 
d="M56 521h180v-183h195v183h418v-132h-238v-389h-180v206h-195v-206h-180v521z" />
    <glyph glyph-name="uni04AA" unicode="&#x4aa;" horiz-adv-x="667" 
d="M330 -150v149q-35 6 -65 16q-77 28 -127 77t-74.5 114.5t-24.5 142.5q0 93 30 161.5t83.5 113t126.5 66.5t160 22q29 0 81 -6t126 -30v-151q-16 9 -38.5 17.5t-48.5 15.5t-54 11.5t-55 4.5q-53 0 -93.5 -16.5t-68.5 -46.5t-42.5 -71.5t-14.5 -92.5q0 -53 17.5 -94
t48 -69.5t73.5 -43t94 -14.5q39 0 89 10.5t93 27.5v-148q-56 -15 -101 -21q-17 -3 -35 -4v-141h-180z" />
    <glyph glyph-name="uni04AB" unicode="&#x4ab;" horiz-adv-x="501" 
d="M225 4q-89 26 -141.5 92.5t-52.5 163.5q0 61 22 111.5t62.5 86.5t97.5 55.5t128 19.5q32 0 66 -6t70 -23v-132q-32 19 -65.5 24t-50.5 5q-30 0 -56.5 -10t-45.5 -28.5t-30 -44.5t-11 -58q0 -38 14 -64.5t36 -43t49 -24.5t54 -8q17 0 46.5 4t64.5 21v-134
q-14 -5 -35.5 -10t-51.5 -9v-132h-170v144z" />
    <glyph glyph-name="uni04AE" unicode="&#x4ae;" horiz-adv-x="678" 
d="M247 264l-258 436h214l137 -281l135 281h214l-256 -436v-264h-186v264z" />
    <glyph glyph-name="uni04AF" unicode="&#x4af;" horiz-adv-x="611" 
d="M603 521l-202 -521v-210h-180v210l-213 521h194l112 -340h2l107 340h180z" />
    <glyph glyph-name="uni04B0" unicode="&#x4b0;" horiz-adv-x="678" 
d="M105 314h112l-228 386h214l137 -281l135 281h214l-227 -386h113v-132h-142v-182h-186v182h-142v132z" />
    <glyph glyph-name="uni04B1" unicode="&#x4b1;" horiz-adv-x="611" 
d="M76 62h119l-187 459h194l112 -340h2l107 340h180l-178 -459h121v-127h-145v-145h-180v145h-145v127z" />
    <glyph glyph-name="uni04B2" unicode="&#x4b2;" horiz-adv-x="713" 
d="M483 0l-135 258l-134 -258h-211l226 368l-202 332h217l117 -231l120 231h204l-204 -332l143 -236h84v-295h-180v163h-45z" />
    <glyph glyph-name="uni04B3" unicode="&#x4b3;" horiz-adv-x="588" 
d="M418 0h-42l-87 162l-86 -162h-203l177 265l-163 256h213l77 -156l81 156h197l-163 -254l88 -135h81v-279h-170v147z" />
    <glyph glyph-name="uni04B6" unicode="&#x4b6;" horiz-adv-x="711" 
d="M436 258q-33 -10 -68.5 -15t-77.5 -5q-27 0 -56 3t-57 11t-52 22.5t-42 37.5q-17 23 -27.5 56.5t-10.5 78.5v253h186v-219q0 -45 7.5 -63t12.5 -23q8 -9 19.5 -14.5t23 -7.5t21.5 -2.5t15 -0.5q25 0 53 4.5t53 12.5v313h186v-568h84v-295h-180v163h-90v258z" />
    <glyph glyph-name="uni04B7" unicode="&#x4b7;" horiz-adv-x="644" 
d="M474 0h-87v195q-37 -11 -73.5 -15.5t-75.5 -4.5q-43 0 -73.5 6.5t-51 16.5t-32.5 20.5t-18 18.5q-20 27 -24.5 58.5t-4.5 60.5v165h180v-139q0 -10 2 -26t12 -28q12 -14 33 -17.5t36 -3.5q47 0 90 13v201h180v-389h77v-279h-170v147z" />
    <glyph glyph-name="uni04B8" unicode="&#x4b8;" horiz-adv-x="733" 
d="M300 239q-42 0 -87 7t-82.5 29t-61.5 63t-24 109v253h186v-219q0 -55 18.5 -78t50.5 -30v104h117v-102q19 2 36 5t29 7v313h186v-700h-186v258q-27 -7 -65 -12v-118h-117v111z" />
    <glyph glyph-name="uni04B9" unicode="&#x4b9;" horiz-adv-x="648" 
d="M261 175h-18q-60 0 -101 12t-66.5 35t-36.5 56.5t-11 77.5v165h180v-139q0 -35 15 -51t38 -22v91h98v-92l28 4t25 6v203h180v-521h-180v195q-23 -7 -53 -12v-87h-98v79z" />
    <glyph glyph-name="uni04BA" unicode="&#x4ba;" horiz-adv-x="675" 
d="M251 430q33 10 65 16.5t74 6.5q27 0 55 -3t54 -11t49 -22.5t41 -37.5q17 -23 27.5 -56.5t10.5 -78.5v-244h-186v210q0 45 -7.5 63t-12.5 23q-8 9 -18 14.5t-20.5 7.5t-19 2.5t-13.5 0.5q-25 0 -49.5 -5.5t-49.5 -14.5v-301h-186v700h186v-270z" />
    <glyph glyph-name="uni04BB" unicode="&#x4bb;" horiz-adv-x="667" 
d="M56 750h180v-306h2q22 30 43.5 45t29.5 20q20 11 44.5 17.5t56.5 6.5q48 0 83.5 -14t60.5 -40q9 -9 18.5 -22.5t17.5 -32t13.5 -43.5t5.5 -56v-325h-180v252q0 9 -1 24t-4 31.5t-9.5 31.5t-18.5 26q-13 12 -26.5 15t-23.5 3q-31 0 -52 -11.5t-35 -33.5q-10 -16 -17.5 -43
t-7.5 -75v-220h-180v750z" />
    <glyph glyph-name="uni04C0" unicode="&#x4c0;" horiz-adv-x="316" 
d="M65 700h186v-700h-186v700z" />
    <glyph glyph-name="uni04C3" unicode="&#x4c3;" horiz-adv-x="702" 
d="M475 117q0 48 -14.5 77.5t-37 45.5t-51.5 21t-57 5h-64v-266h-186v700h186v-299h11l203 299h207l-232 -315q112 -18 169.5 -84t57.5 -181q0 -86 -28.5 -147.5t-78.5 -101.5t-119 -58.5t-150 -18.5v138q87 0 135.5 45t48.5 140z" />
    <glyph glyph-name="uni04C4" unicode="&#x4c4;" horiz-adv-x="645" 
d="M236 297h18l168 224h198l-190 -241q87 -20 131.5 -73.5t44.5 -141.5q0 -125 -77 -195t-233 -70v125q28 0 50.5 4.5t39 18t25.5 39t9 68.5q0 35 -10.5 58t-28.5 36t-41.5 18t-49.5 5h-54v-172h-180v521h180v-224z" />
    <glyph glyph-name="uni04C7" unicode="&#x4c7;" horiz-adv-x="722" 
d="M292 -49q26 -12 49.5 -14.5t34.5 -2.5t26.5 3.5t30.5 17.5q20 19 29 53.5t9 79.5v212h-220v-300h-186v700h186v-268h220v268h186v-668q0 -22 -2 -47t-8.5 -50.5t-18.5 -49.5t-32 -44q-26 -26 -69 -44.5t-103 -18.5q-32 0 -58.5 4t-56.5 11l-17 4v154z" />
    <glyph glyph-name="uni04C8" unicode="&#x4c8;" horiz-adv-x="667" 
d="M329 -96q2 -1 13.5 -3.5t28.5 -2.5q37 0 50 30q6 14 8 34.5t2 37.5v206h-195v-206h-180v521h180v-183h195v183h180v-526q0 -31 -5 -70.5t-24 -72.5q-26 -45 -67.5 -59.5t-93.5 -14.5q-15 0 -37 1.5t-55 7.5v117z" />
    <glyph glyph-name="uni04CF" unicode="&#x4cf;" horiz-adv-x="292" 
d="M56 700h180v-700h-180v700z" />
    <glyph glyph-name="uni04D0" unicode="&#x4d0;" horiz-adv-x="710" 
d="M240 700h230l250 -700h-200l-47 148h-247l-46 -148h-190zM431 283l-80 267h-2l-81 -267h163zM355 735q-77 0 -126 40t-54 122l98 8q4 -34 21 -57t61 -23t61 23t21 57l98 -8q-5 -82 -54 -122t-126 -40z" />
    <glyph glyph-name="uni04D1" unicode="&#x4d1;" horiz-adv-x="607" 
d="M226 -12q-39 0 -74.5 10t-62 30t-42.5 50.5t-16 71.5q0 55 22.5 90t60 54.5t86 26.5t100.5 7h84q1 24 -9.5 40t-28 26t-39.5 14.5t-44 4.5q-38 0 -79 -8.5t-88 -32.5v124q41 17 91.5 27t113.5 10q51 0 97 -12t80 -38t54 -67t20 -99v-317h-159v82h-2q-26 -45 -68.5 -69.5
t-96.5 -24.5zM272 108q25 0 45 10t34 27t22 40t11 49h-70q-57 0 -86 -15t-29 -54q0 -29 23 -43t50 -14zM310 565q-71 0 -118.5 40t-51.5 122l95 8q4 -36 19 -58t56 -22t56 22t19 58l95 -8q-4 -82 -51.5 -122t-118.5 -40z" />
    <glyph glyph-name="uni04D2" unicode="&#x4d2;" horiz-adv-x="710" 
d="M240 700h230l250 -700h-200l-47 148h-247l-46 -148h-190zM431 283l-80 267h-2l-81 -267h163zM400 880h150v-140h-150v140zM160 880h150v-140h-150v140z" />
    <glyph glyph-name="uni04D3" unicode="&#x4d3;" horiz-adv-x="607" 
d="M226 -12q-39 0 -74.5 10t-62 30t-42.5 50.5t-16 71.5q0 55 22.5 90t60 54.5t86 26.5t100.5 7h84q1 24 -9.5 40t-28 26t-39.5 14.5t-44 4.5q-38 0 -79 -8.5t-88 -32.5v124q41 17 91.5 27t113.5 10q51 0 97 -12t80 -38t54 -67t20 -99v-317h-159v82h-2q-26 -45 -68.5 -69.5
t-96.5 -24.5zM272 108q25 0 45 10t34 27t22 40t11 49h-70q-57 0 -86 -15t-29 -54q0 -29 23 -43t50 -14zM352 738h144v-132h-144v132zM124 738h144v-132h-144v132z" />
    <glyph glyph-name="uni04D4" unicode="&#x4d4;" horiz-adv-x="1003" 
d="M471 568h-9l-139 -286h148v286zM355 700h588v-132h-286v-145h268v-132h-268v-159h298v-132h-484v149h-213l-73 -149h-195z" />
    <glyph glyph-name="uni04D5" unicode="&#x4d5;" horiz-adv-x="944" 
d="M217 -12q-37 0 -72 9t-62.5 28.5t-44 51t-16.5 76.5q0 55 24.5 89t63 52.5t86.5 24.5t95 6h84q0 50 -31 69t-88 19q-45 0 -88 -10t-81 -30v124q94 36 208 36q48 0 94.5 -13t80.5 -51q35 31 80 47.5t103 16.5q133 0 198.5 -77.5t65.5 -214.5v-33h-360q18 -100 153 -100
q78 0 159 40v-127q-89 -33 -191 -33q-35 0 -68 4.5t-63 17t-57 35.5t-49 60q-36 -65 -93.5 -91t-130.5 -26zM264 108q25 0 45.5 10.5t34.5 27.5t22 40t9 48h-69q-65 0 -90.5 -20t-25.5 -48q0 -25 18.5 -41.5t55.5 -16.5zM655 419q-45 0 -69.5 -29t-30.5 -80h200q0 53 -25 81
t-75 28z" />
    <glyph glyph-name="uni04D6" unicode="&#x4d6;" horiz-adv-x="616" 
d="M306 735q-77 0 -126 40t-54 122l98 8q4 -34 21 -57t61 -23t61 23t21 57l98 -8q-5 -82 -54 -122t-126 -40z" />
    <glyph glyph-name="uni04D7" unicode="&#x4d7;" horiz-adv-x="611" 
d="M305 565q-71 0 -118.5 40t-51.5 122l95 8q4 -36 19 -58t56 -22t56 22t19 58l95 -8q-4 -82 -51.5 -122t-118.5 -40z" />
    <glyph glyph-name="uni04D8" unicode="&#x4d8;" horiz-adv-x="760" 
d="M370 -12q-81 0 -143 24t-104 69.5t-63 111.5t-21 149q0 28 3 57h483q-8 88 -62.5 134t-152.5 46q-52 0 -97 -14.5t-94 -44.5v153q40 16 90.5 27.5t116.5 11.5q89 0 162 -23t124.5 -69t80 -113.5t28.5 -156.5q0 -83 -22.5 -150t-67 -114t-110 -72.5t-151.5 -25.5zM379 116
q69 0 106 48t42 123h-294q0 -75 36 -122t110 -49z" />
    <glyph glyph-name="afii10846" unicode="&#x4d9;" horiz-adv-x="611" 
d="M200 211q-1 -18 2.5 -32t8.5 -24.5t9.5 -16.5t5.5 -7q14 -17 33 -23t39 -6t38.5 6.5t34.5 23.5q12 14 20.5 34t8.5 45h-200zM398 313q-4 32 -18.5 49.5t-23.5 23.5q-13 9 -28 14.5t-30 8t-29.5 3.5t-26.5 1q-22 0 -62 -6.5t-94 -33.5v127q27 11 72.5 22t114.5 11
q75 0 130 -20t93 -55q15 -14 30 -32.5t27 -43t19.5 -55.5t7.5 -69q0 -18 -2.5 -43t-11.5 -52.5t-26 -56t-45 -52.5q-29 -25 -76.5 -45.5t-118.5 -20.5q-16 0 -39.5 2t-50.5 10t-54 23.5t-51 42.5q-30 35 -48.5 89t-18.5 125v33h360z" />
    <glyph glyph-name="uni04DA" unicode="&#x4da;" horiz-adv-x="760" 
d="M370 -12q-81 0 -143 24t-104 69.5t-63 111.5t-21 149q0 28 3 57h483q-8 88 -62.5 134t-152.5 46q-52 0 -97 -14.5t-94 -44.5v153q40 16 90.5 27.5t116.5 11.5q89 0 162 -23t124.5 -69t80 -113.5t28.5 -156.5q0 -83 -22.5 -150t-67 -114t-110 -72.5t-151.5 -25.5zM379 116
q69 0 106 48t42 123h-294q0 -75 36 -122t110 -49zM405 880h150v-140h-150v140zM165 880h150v-140h-150v140z" />
    <glyph glyph-name="uni04DB" unicode="&#x4db;" horiz-adv-x="611" 
d="M200 211q-1 -18 2.5 -32t8.5 -24.5t9.5 -16.5t5.5 -7q14 -17 33 -23t39 -6t38.5 6.5t34.5 23.5q12 14 20.5 34t8.5 45h-200zM398 313q-4 32 -18.5 49.5t-23.5 23.5q-13 9 -28 14.5t-30 8t-29.5 3.5t-26.5 1q-22 0 -62 -6.5t-94 -33.5v127q27 11 72.5 22t114.5 11
q75 0 130 -20t93 -55q15 -14 30 -32.5t27 -43t19.5 -55.5t7.5 -69q0 -18 -2.5 -43t-11.5 -52.5t-26 -56t-45 -52.5q-29 -25 -76.5 -45.5t-118.5 -20.5q-16 0 -39.5 2t-50.5 10t-54 23.5t-51 42.5q-30 35 -48.5 89t-18.5 125v33h360zM347 738h144v-132h-144v132zM119 738h144
v-132h-144v132z" />
    <glyph glyph-name="uni04DC" unicode="&#x4dc;" horiz-adv-x="1010" 
d="M598 397h9l184 303h198l-210 -326l236 -374h-207l-201 336h-9v-336h-186v336h-9l-201 -336h-207l236 374l-210 326h198l184 -303h9v303h186v-303zM550 880h150v-140h-150v140zM310 880h150v-140h-150v140z" />
    <glyph glyph-name="uni04DD" unicode="&#x4dd;" horiz-adv-x="848" 
d="M511 278h10l125 243h184l-140 -236l164 -285h-198l-135 260h-10v-260h-174v260h-10l-135 -260h-198l164 285l-140 236h184l125 -243h10v243h174v-243zM466 738h144v-132h-144v132zM238 738h144v-132h-144v132z" />
    <glyph glyph-name="uni04DE" unicode="&#x4de;" horiz-adv-x="588" 
d="M245 -12q-57 0 -112 11.5t-108 31.5v139q42 -18 93.5 -35t111.5 -17q72 0 102.5 26t30.5 69q0 19 -6.5 35t-22.5 26.5t-42.5 16.5t-66.5 6h-76v129h76q68 0 95.5 22.5t27.5 59.5q0 33 -24.5 53.5t-83.5 20.5q-53 0 -100.5 -11.5t-87.5 -32.5v139q103 35 216 35
q70 0 120.5 -14t83 -39.5t48 -60.5t15.5 -77q0 -59 -34 -100.5t-93 -56.5v-2q31 -5 57.5 -18.5t46 -34t30.5 -48.5t11 -61q0 -44 -18 -82.5t-56 -67.5t-96 -45.5t-138 -16.5zM335 880h150v-140h-150v140zM95 880h150v-140h-150v140z" />
    <glyph glyph-name="uni04DF" unicode="&#x4df;" horiz-adv-x="540" 
d="M237 -12q-112 0 -217 34v129q41 -23 91.5 -36t101.5 -13q13 0 31.5 1.5t35 7.5t28 17t11.5 31q0 18 -10.5 29t-25.5 16.5t-33 7t-33 1.5h-83v108h90q12 0 26 1.5t26 6.5t20 15t8 27q0 16 -9.5 25.5t-24 14.5t-31.5 6.5t-31 1.5q-42 0 -88.5 -11t-87.5 -33v125
q50 20 104.5 26.5t113.5 6.5q34 0 75.5 -5.5t77.5 -21.5t60.5 -44.5t24.5 -74.5q0 -44 -27.5 -74.5t-70.5 -41.5v-2q49 -5 82 -37.5t33 -85.5q0 -49 -26.5 -80t-67 -48t-87.5 -23.5t-87 -6.5zM302 738h144v-132h-144v132zM74 738h144v-132h-144v132z" />
    <glyph glyph-name="uni04E2" unicode="&#x4e2;" horiz-adv-x="755" 
d="M65 700h186v-300l-6 -172h6l216 472h223v-700h-186v300l6 172h-6l-216 -472h-223v700zM189 857h375v-84h-375v84z" />
    <glyph glyph-name="uni04E3" unicode="&#x4e3;" horiz-adv-x="696" 
d="M236 521v-157l-5 -164h3l203 321h203v-521h-180v155l5 166h-3l-203 -321h-203v521h180zM160 707h375v-84h-375v84z" />
    <glyph glyph-name="uni04E4" unicode="&#x4e4;" horiz-adv-x="755" 
d="M65 700h186v-300l-6 -172h6l216 472h223v-700h-186v300l6 172h-6l-216 -472h-223v700zM422 880h150v-140h-150v140zM182 880h150v-140h-150v140z" />
    <glyph glyph-name="uni04E5" unicode="&#x4e5;" horiz-adv-x="696" 
d="M236 521v-157l-5 -164h3l203 321h203v-521h-180v155l5 166h-3l-203 -321h-203v521h180zM390 738h144v-132h-144v132zM162 738h144v-132h-144v132z" />
    <glyph glyph-name="uni04E6" unicode="&#x4e6;" horiz-adv-x="778" 
d="M389 574q-42 0 -70 -17t-45 -40q-14 -19 -22.5 -41t-13 -44.5t-6 -43.5t-1.5 -38t1.5 -38t6 -43.5t13 -44.5t22.5 -41q17 -23 45 -40t70 -17t70 17t45 40q14 19 22.5 41t13 44.5t6 43.5t1.5 38t-1.5 38t-6 43.5t-13 44.5t-22.5 41q-17 23 -45 40t-70 17zM389 712
q22 0 53.5 -2.5t66.5 -12t70.5 -28t67.5 -50.5q31 -31 49 -67.5t27.5 -72.5t12.5 -69.5t3 -59.5t-3 -59.5t-12.5 -69.5t-27.5 -72.5t-49 -67.5q-32 -32 -67.5 -50.5t-70.5 -28t-66.5 -12t-53.5 -2.5t-53.5 2.5t-66.5 12t-71 28t-67 50.5q-31 31 -49 67.5t-27.5 72.5
t-12.5 69.5t-3 59.5t3 59.5t12.5 69.5t27.5 72.5t49 67.5q31 32 67 50.5t71 28t66.5 12t53.5 2.5zM434 880h150v-140h-150v140zM194 880h150v-140h-150v140z" />
    <glyph glyph-name="uni04E7" unicode="&#x4e7;" horiz-adv-x="668" 
d="M334 407q-50 0 -81 -34q-23 -26 -29.5 -56.5t-6.5 -56.5t6.5 -56.5t29.5 -56.5q31 -34 81 -34t81 34q23 26 29.5 56.5t6.5 56.5t-6.5 56.5t-29.5 56.5q-31 34 -81 34zM334 533q63 0 116 -17t91 -47q16 -12 33 -30.5t31 -44t23 -59t9 -75.5t-9 -75.5t-23 -59t-31 -44
t-33 -30.5q-26 -21 -54 -33t-55 -19t-52.5 -9t-45.5 -2t-45.5 2t-52.5 9t-55 19t-54 33q-16 12 -33 30.5t-31 44t-23 59t-9 75.5t9 75.5t23 59t31 44t33 30.5q38 30 91 47t116 17zM376 738h144v-132h-144v132zM148 738h144v-132h-144v132z" />
    <glyph glyph-name="uni04E8" unicode="&#x4e8;" horiz-adv-x="778" 
d="M233 310q1 -32 11 -70t30 -67q6 -9 15.5 -19t24 -18.5t33 -14t42.5 -5.5t42.5 5.5t33 14t24 18.5t15.5 19q20 29 30 67t11 70h-312zM541 422q-3 26 -12.5 55t-24.5 50q-6 9 -15.5 19t-24 18.5t-33 14t-42.5 5.5t-42.5 -5.5t-33 -14t-24 -18.5t-15.5 -19
q-15 -21 -24.5 -50t-12.5 -55h304zM389 712q22 0 53.5 -2.5t66.5 -12t70.5 -28t67.5 -50.5q31 -31 49 -67.5t27.5 -72.5t12.5 -69.5t3 -59.5t-3 -59.5t-12.5 -69.5t-27.5 -72.5t-49 -67.5q-32 -32 -67.5 -50.5t-70.5 -28t-66.5 -12t-53.5 -2.5t-53.5 2.5t-66.5 12t-71 28
t-67 50.5q-31 31 -49 67.5t-27.5 72.5t-12.5 69.5t-3 59.5t3 59.5t12.5 69.5t27.5 72.5t49 67.5q31 32 67 50.5t71 28t66.5 12t53.5 2.5z" />
    <glyph glyph-name="uni04E9" unicode="&#x4e9;" horiz-adv-x="668" 
d="M221 215q6 -40 30 -68q17 -20 38.5 -27t44.5 -7q24 0 44.5 7t38.5 27q16 17 22 34.5t8 33.5h-226zM445 314q-2 11 -8 26.5t-22 32.5q-15 17 -34.5 25.5t-46.5 8.5t-46 -8.5t-35 -25.5q-25 -27 -30 -59h222zM334 533q63 0 116 -17t91 -47q16 -12 33 -30.5t31 -44t23 -59
t9 -75.5t-9 -75.5t-23 -59t-31 -44t-33 -30.5q-26 -21 -54 -33t-55 -19t-52.5 -9t-45.5 -2t-45.5 2t-52.5 9t-55 19t-54 33q-16 12 -33 30.5t-31 44t-23 59t-9 75.5t9 75.5t23 59t31 44t33 30.5q38 30 91 47t116 17z" />
    <glyph glyph-name="uni04EA" unicode="&#x4ea;" horiz-adv-x="778" 
d="M233 310q1 -32 11 -70t30 -67q6 -9 15.5 -19t24 -18.5t33 -14t42.5 -5.5t42.5 5.5t33 14t24 18.5t15.5 19q20 29 30 67t11 70h-312zM541 422q-3 26 -12.5 55t-24.5 50q-6 9 -15.5 19t-24 18.5t-33 14t-42.5 5.5t-42.5 -5.5t-33 -14t-24 -18.5t-15.5 -19
q-15 -21 -24.5 -50t-12.5 -55h304zM389 712q22 0 53.5 -2.5t66.5 -12t70.5 -28t67.5 -50.5q31 -31 49 -67.5t27.5 -72.5t12.5 -69.5t3 -59.5t-3 -59.5t-12.5 -69.5t-27.5 -72.5t-49 -67.5q-32 -32 -67.5 -50.5t-70.5 -28t-66.5 -12t-53.5 -2.5t-53.5 2.5t-66.5 12t-71 28
t-67 50.5q-31 31 -49 67.5t-27.5 72.5t-12.5 69.5t-3 59.5t3 59.5t12.5 69.5t27.5 72.5t49 67.5q31 32 67 50.5t71 28t66.5 12t53.5 2.5zM434 880h150v-140h-150v140zM194 880h150v-140h-150v140z" />
    <glyph glyph-name="uni04EB" unicode="&#x4eb;" horiz-adv-x="668" 
d="M221 215q6 -40 30 -68q17 -20 38.5 -27t44.5 -7q24 0 44.5 7t38.5 27q16 17 22 34.5t8 33.5h-226zM445 314q-2 11 -8 26.5t-22 32.5q-15 17 -34.5 25.5t-46.5 8.5t-46 -8.5t-35 -25.5q-25 -27 -30 -59h222zM334 533q63 0 116 -17t91 -47q16 -12 33 -30.5t31 -44t23 -59
t9 -75.5t-9 -75.5t-23 -59t-31 -44t-33 -30.5q-26 -21 -54 -33t-55 -19t-52.5 -9t-45.5 -2t-45.5 2t-52.5 9t-55 19t-54 33q-16 12 -33 30.5t-31 44t-23 59t-9 75.5t9 75.5t23 59t31 44t33 30.5q38 30 91 47t116 17zM376 738h144v-132h-144v132zM148 738h144v-132h-144v132z
" />
    <glyph glyph-name="uni04EE" unicode="&#x4ee;" horiz-adv-x="692" 
d="M226 -12q-23 0 -51.5 4t-64.5 18v130q20 -9 41.5 -14t38.5 -5q22 0 42.5 10t31.5 33l12 27l-278 509h214l154 -340l142 340h194l-274 -580q-30 -63 -75.5 -97.5t-126.5 -34.5zM173 857h375v-84h-375v84z" />
    <glyph glyph-name="uni04EF" unicode="&#x4ef;" horiz-adv-x="605" 
d="M144 -222q-17 0 -40 2t-59 10v140q18 -7 36 -10.5t41 -3.5q25 0 41 6.5t25 14.5q12 10 19.5 24.5t11.5 26.5l-211 533h194l112 -340h2l107 340h180l-200 -507l-17 -42.5t-18 -42.5q-10 -22 -29.5 -55t-54.5 -59q-33 -24 -66 -30.5t-74 -6.5zM125 707h375v-84h-375v84z
" />
    <glyph glyph-name="uni04F0" unicode="&#x4f0;" horiz-adv-x="692" 
d="M226 -12q-23 0 -51.5 4t-64.5 18v130q20 -9 41.5 -14t38.5 -5q22 0 42.5 10t31.5 33l12 27l-278 509h214l154 -340l142 340h194l-274 -580q-30 -63 -75.5 -97.5t-126.5 -34.5zM405 880h150v-140h-150v140zM165 880h150v-140h-150v140z" />
    <glyph glyph-name="uni04F1" unicode="&#x4f1;" horiz-adv-x="605" 
d="M144 -222q-17 0 -40 2t-59 10v140q18 -7 36 -10.5t41 -3.5q25 0 41 6.5t25 14.5q12 10 19.5 24.5t11.5 26.5l-211 533h194l112 -340h2l107 340h180l-200 -507l-17 -42.5t-18 -42.5q-10 -22 -29.5 -55t-54.5 -59q-33 -24 -66 -30.5t-74 -6.5zM354 738h144v-132h-144v132z
M126 738h144v-132h-144v132z" />
    <glyph glyph-name="uni04F2" unicode="&#x4f2;" horiz-adv-x="692" 
d="M226 -12q-23 0 -51.5 4t-64.5 18v130q20 -9 41.5 -14t38.5 -5q22 0 42.5 10t31.5 33l12 27l-278 509h214l154 -340l142 340h194l-274 -580q-30 -63 -75.5 -97.5t-126.5 -34.5zM434 880l-138 -140h-114l72 140h180zM678 880l-139 -140h-114l73 140h180z" />
    <glyph glyph-name="uni04F3" unicode="&#x4f3;" horiz-adv-x="605" 
d="M144 -222q-17 0 -40 2t-59 10v140q18 -7 36 -10.5t41 -3.5q25 0 41 6.5t25 14.5q12 10 19.5 24.5t11.5 26.5l-211 533h194l112 -340h2l107 340h180l-200 -507l-17 -42.5t-18 -42.5q-10 -22 -29.5 -55t-54.5 -59q-33 -24 -66 -30.5t-74 -6.5zM384 750l-136 -160h-110
l70 160h176zM622 750l-136 -160h-110l70 160h176z" />
    <glyph glyph-name="uni04F4" unicode="&#x4f4;" horiz-adv-x="687" 
d="M436 258q-33 -10 -68.5 -15t-77.5 -5q-27 0 -56 3t-57 11t-52 22.5t-42 37.5q-17 23 -27.5 56.5t-10.5 78.5v253h186v-219q0 -45 7.5 -63t12.5 -23q8 -9 19.5 -14.5t23 -7.5t21.5 -2.5t15 -0.5q25 0 53 4.5t53 12.5v313h186v-700h-186v258zM388 880h150v-140h-150v140z
M148 880h150v-140h-150v140z" />
    <glyph glyph-name="uni04F5" unicode="&#x4f5;" horiz-adv-x="623" 
d="M567 521v-521h-180v195q-37 -11 -73.5 -15.5t-75.5 -4.5q-43 0 -73.5 6.5t-51 16.5t-32.5 20.5t-18 18.5q-20 27 -24.5 58.5t-4.5 60.5v165h180v-139q0 -10 2 -26t12 -28q12 -14 33 -17.5t36 -3.5q47 0 90 13v201h180zM353 738h144v-132h-144v132zM125 738h144v-132h-144
v132z" />
    <glyph glyph-name="uni04F8" unicode="&#x4f8;" horiz-adv-x="960" 
d="M65 700h186v-240h86q76 0 130 -15t88 -44t49.5 -72t15.5 -99q0 -105 -69 -167.5t-214 -62.5h-272v700zM434 230q0 48 -25 73t-72 25h-86v-196h86q47 0 72 25t25 73zM709 700h186v-700h-186v700zM525 880h150v-140h-150v140zM285 880h150v-140h-150v140z" />
    <glyph glyph-name="uni04F9" unicode="&#x4f9;" horiz-adv-x="897" 
d="M651 521h180v-521h-180v521zM56 521h180v-151h94q63 0 110 -14t78 -39t46 -59t15 -73t-15 -73t-46 -59t-78 -39t-110 -14h-274v521zM393 185q0 30 -19.5 47.5t-63.5 17.5h-74v-130h74q44 0 63.5 17.5t19.5 47.5zM490 738h144v-132h-144v132zM262 738h144v-132h-144v132z
" />
    <glyph glyph-name="uni058F" unicode="&#x58f;" 
d="M374 95h-119v110h119v60h-119v110h119v85q0 65 -21.5 89.5t-67.5 24.5t-67.5 -24.5t-21.5 -89.5v-80h-186v80q0 117 70.5 184.5t204.5 67.5t204.5 -67.5t70.5 -184.5v-85h90v-110h-90v-60h90v-110h-90v-95h-186v95z" />
    <glyph glyph-name="uni1E9E" unicode="&#x1e9e;" horiz-adv-x="710" 
d="M65 464q0 24 2.5 48t11 48t24 46.5t42.5 43.5q29 23 81 41.5t136 18.5q51 0 92.5 -7t75.5 -18.5t61 -27t49 -32.5l-159 -199q39 -2 76.5 -15.5t61.5 -36.5q21 -20 38.5 -57t17.5 -99q0 -20 -2.5 -42t-9.5 -44.5t-20 -45t-33 -41.5t-42 -30t-45 -17t-47 -8t-47 -2
q-63 0 -125 13v135q21 -7 41.5 -9.5t40.5 -2.5q17 0 35.5 4t35.5 20q11 10 18.5 27.5t7.5 43.5q0 29 -9 47.5t-20 27.5q-10 8 -27.5 14t-46.5 6h-64v91l113 146q-11 8 -23 13t-24 8q-17 4 -39 4q-43 0 -70 -29q-18 -20 -20 -39.5t-2 -42.5v-465h-186v464z" />
    <glyph glyph-name="uni2010" unicode="&#x2010;" horiz-adv-x="480" 
d="M400 370v-140h-320v140h320z" />
    <glyph glyph-name="uni2011" unicode="&#x2011;" horiz-adv-x="480" 
d="M400 370v-140h-320v140h320z" />
    <glyph glyph-name="figuredash" unicode="&#x2012;" 
d="M36 415h580v-130h-580v130z" />
    <glyph glyph-name="endash" unicode="&#x2013;" horiz-adv-x="780" 
d="M100 364h580v-130h-580v130z" />
    <glyph glyph-name="emdash" unicode="&#x2014;" horiz-adv-x="1000" 
d="M100 365h800v-130h-800v130z" />
    <glyph glyph-name="afii00208" unicode="&#x2015;" horiz-adv-x="1000" 
d="M100 365h800v-130h-800v130z" />
    <glyph glyph-name="quoteleft" unicode="&#x2018;" horiz-adv-x="333" 
d="M217 428h-168l98 272h137z" />
    <glyph glyph-name="quoteright" unicode="&#x2019;" horiz-adv-x="355" 
d="M116 700h168l-98 -272h-137z" />
    <glyph glyph-name="quotesinglbase" unicode="&#x201a;" horiz-adv-x="400" 
d="M116 162h168l-98 -271h-137z" />
    <glyph glyph-name="quotedblleft" unicode="&#x201c;" horiz-adv-x="611" 
d="M471 428h-168l98 272h137zM241 428h-168l98 272h137z" />
    <glyph glyph-name="quotedblright" unicode="&#x201d;" horiz-adv-x="609" 
d="M370 700h168l-98 -272h-137zM140 700h168l-98 -272h-137z" />
    <glyph glyph-name="quotedblbase" unicode="&#x201e;" horiz-adv-x="678" 
d="M369 162h169l-98 -271h-138zM140 162h169l-98 -271h-138z" />
    <glyph glyph-name="dagger" unicode="&#x2020;" horiz-adv-x="611" 
d="M225 388h-174v133h174v179h162v-179h174v-133h-174v-528h-162v528z" />
    <glyph glyph-name="daggerdbl" unicode="&#x2021;" horiz-adv-x="611" 
d="M225 39h-174v121h174v240h-174v121h174v179h162v-179h174v-121h-174v-240h174v-121h-174v-179h-162v179z" />
    <glyph glyph-name="bullet" unicode="&#x2022;" horiz-adv-x="500" 
d="M250 126q-36 0 -68 13.5t-55.5 37t-37 55.5t-13.5 68t13.5 68t37 56t55.5 37.5t68 13.5t68 -13.5t56 -37.5t37.5 -56t13.5 -68t-13.5 -68t-37.5 -55.5t-56 -37t-68 -13.5z" />
    <glyph glyph-name="ellipsis" unicode="&#x2026;" horiz-adv-x="1000" 
d="M749 162h168v-162h-168v162zM416 162h168v-162h-168v162zM83 162h168v-162h-168v162z" />
    <glyph glyph-name="perthousand" unicode="&#x2030;" horiz-adv-x="1380" 
d="M235 342q-43 0 -78 13.5t-60 38t-38.5 58.5t-13.5 75t13.5 75t38.5 58.5t60 38t78 13.5t78 -13.5t60 -38t38.5 -58.5t13.5 -75t-13.5 -75t-38.5 -58.5t-60 -38t-78 -13.5zM235 442q26 0 40.5 18t14.5 67t-14.5 67t-40.5 18t-40.5 -18t-14.5 -67t14.5 -67t40.5 -18z
M725 -12q-43 0 -78 13.5t-60 38t-38.5 58.5t-13.5 75t13.5 75t38.5 58.5t60 38t78 13.5t78 -13.5t60 -38t38.5 -58.5t13.5 -75t-13.5 -75t-38.5 -58.5t-60 -38t-78 -13.5zM725 88q26 0 40.5 18t14.5 67t-14.5 67t-40.5 18t-40.5 -18t-14.5 -67t14.5 -67t40.5 -18zM658 700
h132l-488 -700h-132zM1145 -12q-43 0 -78 13.5t-60 38t-38.5 58.5t-13.5 75t13.5 75t38.5 58.5t60 38t78 13.5t78 -13.5t60 -38t38.5 -58.5t13.5 -75t-13.5 -75t-38.5 -58.5t-60 -38t-78 -13.5zM1145 88q26 0 40.5 18t14.5 67t-14.5 67t-40.5 18t-40.5 -18t-14.5 -67
t14.5 -67t40.5 -18z" />
    <glyph glyph-name="guilsinglleft" unicode="&#x2039;" horiz-adv-x="333" 
d="M28 300l119 204h148l-110 -204l110 -205h-148z" />
    <glyph glyph-name="guilsinglright" unicode="&#x203a;" horiz-adv-x="333" 
d="M305 300l-119 -205h-148l110 205l-110 204h148z" />
    <glyph glyph-name="fraction" unicode="&#x2044;" horiz-adv-x="340" 
d="M348 700h132l-488 -700h-132z" />
    <glyph glyph-name="uni2074" unicode="&#x2074;" horiz-adv-x="398" 
d="M214 350h-200v102l169 248h151v-260h50v-90h-50v-70h-120v70zM214 440v153h-2l-101 -153h103z" />
    <glyph glyph-name="franc" unicode="&#x20a3;" 
d="M125 115h-90v110h90v475h470v-132h-284v-144h269v-132h-269v-67h139v-110h-139v-115h-186v115z" />
    <glyph glyph-name="Euro" unicode="&#x20ac;" 
d="M33 465h56q17 62 51.5 108.5t81 77t102.5 46t116 15.5q50 0 88.5 -7t73.5 -17l-30 -137q-24 10 -54 16.5t-58 6.5q-63 0 -109.5 -28.5t-70.5 -80.5h275l-18 -90h-280q-1 -7 -1 -13.5v-13.5v-23h270l-18 -90h-231q13 -30 33 -50.5t44 -33.5t51 -19t55 -6q53 0 91 9.5
t64 21.5v-143q-20 -8 -42.5 -13t-46.5 -8t-47.5 -4t-44.5 -1q-54 0 -108.5 13.5t-101.5 43.5t-83.5 77t-53.5 113h-72l18 90h41v21v14.5t1 14.5h-60z" />
    <glyph glyph-name="uni20B4" unicode="&#x20b4;" 
d="M45 495h312q2 5 3 10t1 11q0 25 -20.5 43t-54.5 18q-39 0 -74 -7t-67 -19v144q48 11 92 14t88 3q53 0 94.5 -14t70 -38.5t43 -57.5t14.5 -71q0 -20 -3 -36h61v-110h-127q-20 -17 -42 -31.5t-44 -28.5h213v-110h-315q-1 -5 -1 -14q0 -14 5.5 -27.5t16 -25t25.5 -18.5
t34 -7q38 0 74 7t78 27v-149q-23 -7 -47.5 -11t-48.5 -6t-45.5 -2.5t-36.5 -0.5q-60 0 -105.5 14t-75.5 39.5t-45 59.5t-15 75q0 21 3 39h-61v110h116q16 17 34 31.5t37 28.5h-187v110z" />
    <glyph glyph-name="uni20B8" unicode="&#x20b8;" 
d="M232 417h-172v110h530v-110h-172v-417h-186v417zM60 590v110h530v-110h-530z" />
    <glyph glyph-name="uni20BC" unicode="&#x20bc;" 
d="M10 0q0 135 17 233t48 164t74.5 103t95.5 52v148h160v-148q52 -15 95 -52t74 -103t48.5 -164t17.5 -233h-165q0 88 -5 154t-14.5 114t-22.5 80t-28 51v-399h-160v399q-16 -19 -29 -51t-22 -80t-14 -114t-5 -154h-165v0z" />
    <glyph glyph-name="uni20BD" unicode="&#x20bd;" 
d="M118 95h-93v110h93v50h-93v130h93v315h229q72 0 122.5 -16t81.5 -45t45 -69.5t14 -89.5q0 -51 -14 -92.5t-45 -71t-81.5 -45.5t-122.5 -16h-43v-50h143v-110h-143v-95h-186v95zM432 481q0 41 -23.5 65t-61.5 24h-43v-185h43q38 0 61.5 25t23.5 71z" />
    <glyph glyph-name="uni20BE" unicode="&#x20be;" 
d="M52 132h69q-81 84 -81 248q0 135 50.5 214.5t143.5 105.5v100h84v-88h24v88h84v-101q92 -26 143 -111t51 -238h-160q0 67 -8.5 111.5t-25.5 71.5v-183h-84v232h-24v-232h-84v186q-17 -23 -25.5 -61t-8.5 -95q0 -67 13 -114t39.5 -77t65.5 -43.5t92 -13.5h160v-132h-518
v132z" />
    <glyph glyph-name="afii61352" unicode="&#x2116;" horiz-adv-x="1070" 
d="M68 700h223l219 -479v479h163v-700h-222l-219 479v-479h-164v700zM891 384q-39 0 -68 13t-48.5 35.5t-29 52.5t-9.5 63q0 34 9.5 64t29 52t48.5 35t68 13t68 -13t48.5 -35t29 -52t9.5 -64q0 -33 -9.5 -63t-29 -52.5t-48.5 -35.5t-68 -13zM891 464q24 0 39 21.5t15 62.5
q0 44 -15 64t-39 20t-39 -20t-15 -64q0 -41 15 -62.5t39 -21.5zM748 300h286v-100h-286v100z" />
    <glyph glyph-name="uni2117" unicode="&#x2117;" horiz-adv-x="820" 
d="M481 415q0 29 -13 42t-42 13h-51v-112h51q29 0 42 13.5t13 43.5zM285 550h141q77 0 113 -34.5t36 -100.5q0 -68 -36 -102.5t-113 -34.5h-51v-128h-90v400zM410 -12q-75 0 -140.5 28.5t-114 77.5t-77 115t-28.5 141t28.5 141t77 115t114 77.5t140.5 28.5t140.5 -28.5
t114 -77.5t77 -115t28.5 -141t-28.5 -141t-77 -115t-114 -77.5t-140.5 -28.5zM405 82q55 0 103.5 20.5t84.5 56.5t56.5 85t20.5 106t-20 106t-55 85t-82.5 56.5t-102.5 20.5t-102.5 -20.5t-82.5 -56.5t-55 -85t-20 -106t19 -106t53 -85t81 -56.5t102 -20.5z" />
    <glyph glyph-name="trademark" unicode="&#x2122;" horiz-adv-x="1000" 
d="M155 610h-118v90h344v-90h-118v-325h-108v325zM477 700h158l88 -196l86 196h154v-415h-108v301h-1l-91 -198h-86l-91 198h-1v-301h-108v415z" />
    <glyph glyph-name="Omega" unicode="&#x2126;" horiz-adv-x="800" 
d="M40 132h174v23q-32 9 -63 27.5t-55.5 49t-40 74t-15.5 103.5q0 71 24 128.5t69.5 98.5t112.5 63t154 22t154 -22t112.5 -63t69.5 -98.5t24 -128.5q0 -60 -15.5 -103.5t-40 -74t-56 -49t-62.5 -27.5v-23h174v-132h-300v243q28 6 48.5 21t33.5 36.5t19.5 47t6.5 52.5
q0 39 -10.5 72.5t-31.5 58t-52.5 38.5t-73.5 14t-73.5 -14t-52.5 -38.5t-31.5 -58t-10.5 -72.5q0 -27 6.5 -52.5t19.5 -47t33.5 -36.5t48.5 -21v-243h-300v132z" />
    <glyph glyph-name="arrowleft" unicode="&#x2190;" horiz-adv-x="700" 
d="M255 595h180l-175 -175h410v-140h-410l175 -175h-180l-245 245z" />
    <glyph glyph-name="arrowup" unicode="&#x2191;" horiz-adv-x="700" 
d="M595 455v-180l-175 175v-450h-140v450l-175 -175v180l245 245z" />
    <glyph glyph-name="arrowright" unicode="&#x2192;" horiz-adv-x="700" 
d="M445 105h-180l175 175h-410v140h410l-175 175h180l245 -245z" />
    <glyph glyph-name="arrowdown" unicode="&#x2193;" horiz-adv-x="700" 
d="M105 245v180l175 -175v450h140v-450l175 175v-180l-245 -245z" />
    <glyph glyph-name="partialdiff" unicode="&#x2202;" horiz-adv-x="667" 
d="M340 786q25 -13 54 -31t62 -46q36 -30 61.5 -59t43 -53.5t27.5 -44t15 -29.5q22 -48 29 -90.5t7 -80.5q0 -30 -3.5 -66t-14 -72.5t-28.5 -72t-46 -63.5q-14 -14 -35 -29.5t-50.5 -29t-67.5 -22.5t-86 -9q-66 0 -114.5 16.5t-83.5 45.5q-24 20 -39.5 41t-24 42.5
t-11.5 42.5t-3 40q0 41 7 74.5t19 60t27 47t31 35.5q45 43 94 58.5t92 15.5q34 0 72 -12t71 -50h2q-18 57 -44.5 95t-52.5 64q-20 20 -52 45.5t-86 54.5zM218 230q0 -20 4 -41.5t15 -36.5q9 -13 27.5 -25.5t51.5 -12.5q29 0 51.5 10.5t37.5 24.5q21 20 34.5 54t13.5 76
q0 9 -3.5 32.5t-18.5 41.5q-8 10 -25.5 19t-46.5 9t-49 -9t-33 -20q-26 -21 -42.5 -54t-16.5 -68z" />
    <glyph glyph-name="Delta" unicode="&#x2206;" horiz-adv-x="755" 
d="M765 0h-775l288 700h199zM196 132h320l-160 386z" />
    <glyph glyph-name="product" unicode="&#x220f;" horiz-adv-x="762" 
d="M10 -78h60v696h-60v132h700v-132h-60v-696h60v-132h-306v132h60v696h-208v-696h60v-132h-306v132z" />
    <glyph glyph-name="summation" unicode="&#x2211;" horiz-adv-x="658" 
d="M22 -78l241 361l-241 325v142h595v-244h-132v112h-278l244 -326l-254 -380h297v125h132v-247h-604v132z" />
    <glyph glyph-name="minus" unicode="&#x2212;" 
d="M50 425h550v-150h-550v150z" />
    <glyph glyph-name="uni2215" unicode="&#x2215;" 
d="M417 700h148l-332 -700h-148z" />
    <glyph glyph-name="uni2219" unicode="&#x2219;" horiz-adv-x="306" 
d="M69 381h168v-162h-168v162z" />
    <glyph glyph-name="radical" unicode="&#x221a;" horiz-adv-x="744" 
d="M367 143l105 664h222v-106h-123l-129 -771h-165l-155 464h-102v106h235z" />
    <glyph glyph-name="infinity" unicode="&#x221e;" horiz-adv-x="750" 
d="M206 181q-31 0 -59.5 12.5t-50 34.5t-34 53t-12.5 68t12.5 68.5t34.5 54t52 35t65 12.5q49 0 90 -29.5t76 -68.5q15 16 32 33.5t37.5 31.5t44 23.5t51.5 9.5q34 0 62.5 -12t49 -34t32 -52.5t11.5 -67.5q0 -41 -13.5 -72.5t-35.5 -54t-51 -34t-60 -11.5q-43 0 -80.5 22.5
t-82.5 76.5q-18 -21 -36.5 -39t-38.5 -31.5t-44 -21t-52 -7.5zM216 268q16 0 31.5 7t30 18t26.5 25.5t21 28.5q-12 16 -24.5 31t-26.5 27t-29.5 19.5t-34.5 7.5q-34 0 -53 -25.5t-19 -60.5q0 -31 22.5 -54.5t55.5 -23.5zM543 268q18 0 31 7t21.5 18.5t12.5 25.5t4 28
q0 37 -19.5 61t-52.5 24q-17 0 -32 -8.5t-29 -21t-26 -27.5t-23 -27q19 -21 33.5 -36.5t27.5 -25t25.5 -14t26.5 -4.5z" />
    <glyph glyph-name="integral" unicode="&#x222b;" 
d="M230 -222q-11 0 -25 0.5t-28.5 1.5t-27 2t-19.5 2v132q8 -2 19.5 -4t22.5 -2q60 0 60 61v598q0 100 45.5 146.5t140.5 46.5q25 0 55 -3.5t47 -8.5v-127q-22 7 -42 7q-60 0 -60 -60v-599q0 -100 -45.5 -146.5t-142.5 -46.5z" />
    <glyph glyph-name="approxequal" unicode="&#x2248;" 
d="M45 267q13 18 31.5 35t40 30t44.5 20.5t44 7.5q41 0 73 -14t60 -30.5t53.5 -30t53.5 -13.5q34 0 65.5 19.5t54.5 53.5l40 -130q-13 -18 -31.5 -35t-40 -30t-44.5 -20.5t-44 -7.5q-41 0 -73 13.5t-60 30t-53.5 30.5t-53.5 14q-34 0 -65.5 -19.5t-54.5 -53.5zM45 486
q13 18 31.5 35t40 30t44.5 20.5t44 7.5q41 0 73 -14t60 -30.5t53.5 -30t53.5 -13.5q34 0 65.5 19.5t54.5 53.5l40 -130q-13 -18 -31.5 -35t-40 -30t-44.5 -20.5t-44 -7.5q-41 0 -73 13.5t-60 30t-53.5 30.5t-53.5 14q-34 0 -65.5 -19.5t-54.5 -53.5z" />
    <glyph glyph-name="notequal" unicode="&#x2260;" 
d="M50 535h298l34 75h118l-34 -75h134v-150h-201l-31 -70h232v-150h-299l-33 -75h-118l33 75h-133v150h200l31 70h-231v150z" />
    <glyph glyph-name="lessequal" unicode="&#x2264;" 
d="M50 356v158l550 186v-154l-329 -107l329 -108v-161zM50 150h550v-150h-550v150z" />
    <glyph glyph-name="greaterequal" unicode="&#x2265;" 
d="M50 324l329 107l-329 108v161l550 -186v-158l-550 -186v154zM50 150h550v-150h-550v150z" />
    <glyph glyph-name="dotmath" unicode="&#x22c5;" horiz-adv-x="306" 
d="M69 381h168v-162h-168v162z" />
    <glyph glyph-name="lozenge" unicode="&#x25ca;" horiz-adv-x="626" 
d="M313 -12l-271 362l271 362l271 -362zM445 350l-132 169l-132 -169l132 -170z" />
    <glyph glyph-name="uniF400" unicode="&#xf400;" horiz-adv-x="2" 
d="M-302 750h186l-130 -160h-126z" />
    <glyph glyph-name="uniF401" unicode="&#xf401;" horiz-adv-x="2" 
d="M-355 880h196l-134 -140h-134z" />
    <glyph glyph-name="uniF406" unicode="&#xf406;" horiz-adv-x="564" 
d="M282 830q40 0 57 4t24 7q15 8 22 18t9 21h90q-2 -25 -14.5 -52t-44.5 -51q-35 -26 -69 -31.5t-74 -5.5t-74 5.5t-69 31.5q-32 24 -44.5 51t-14.5 52h90q2 -11 9 -21t22 -18q7 -3 24 -7t57 -4z" />
    <glyph glyph-name="uniF407" unicode="&#xf407;" horiz-adv-x="333" 
d="M105 -222q-26 0 -49 9.5t-36 19.5l25 57q25 -20 55 -20q17 0 26.5 9.5t9.5 23.5t-10.5 23.5t-30.5 9.5q-11 0 -18.5 -1t-16.5 -4l25 95h70l-10 -42q13 0 26.5 -5t24 -15t17.5 -25t7 -36q0 -44 -29.5 -71.5t-85.5 -27.5z" />
    <glyph glyph-name="uniF408" unicode="&#xf408;" horiz-adv-x="564" 
d="M199 880h170l115 -140h-132l-68 74l-72 -74h-132z" />
    <glyph glyph-name="uniF409" unicode="&#xf409;" horiz-adv-x="344" 
d="M98 -50h182l-70 -200h-160z" />
    <glyph glyph-name="uniF40A" unicode="&#xf40a;" horiz-adv-x="395" 
d="M109 700h170l-90 -250h-140z" />
    <glyph glyph-name="uniF40B" unicode="&#xf40b;" horiz-adv-x="370" 
d="M278 880v-140h-186v140h186z" />
    <glyph glyph-name="uniF40C" unicode="&#xf40c;" horiz-adv-x="396" 
d="M148 828q0 -20 14 -34t36 -14t36 14t14 34t-14 34t-36 14t-36 -14t-14 -34zM80 828q0 23 9.5 43.5t26 35.5t37.5 24t45 9q25 0 46.5 -9t37.5 -24.5t25 -36t9 -42.5q0 -23 -9 -43t-25 -35.5t-37.5 -24.5t-46.5 -9q-24 0 -45 9t-37.5 24t-26 35.5t-9.5 43.5z" />
    <glyph glyph-name="uniF40D" unicode="&#xf40d;" horiz-adv-x="572" 
d="M492 879q-5 -38 -16 -61t-23 -37q-11 -13 -33.5 -28t-63.5 -15q-11 0 -26.5 3t-25.5 6l-21 7q-24 8 -40.5 14t-35.5 6q-28 0 -40 -14q-9 -11 -11 -25h-76q2 18 10.5 45.5t28.5 52.5q10 13 32 28t63 15q33 0 69 -13l14 -5q13 -5 29 -11.5t38 -6.5q3 0 10.5 0.5t16 4
t16 11.5t9.5 23h76z" />
    <glyph glyph-name="uniF40E" unicode="&#xf40e;" horiz-adv-x="230" 
d="M115 -222q-45 0 -70 23.5t-25 58.5q0 80 90 140h100q-58 -36 -79 -62.5t-21 -47.5q0 -32 35 -32q24 0 49 14l16 -69q-19 -11 -41.5 -18t-53.5 -7z" />
    <glyph glyph-name="uniF410" unicode="&#xf410;" horiz-adv-x="2" 
d="M-375 740l-134 140h196l72 -140h-134z" />
    <glyph glyph-name="uniF47E" unicode="&#xf47e;" horiz-adv-x="738" 
d="M675 266q0 -20 -2 -43.5t-8.5 -48t-19 -50t-33.5 -48.5q-27 -30 -59.5 -47.5t-65.5 -26.5t-64 -11.5t-54 -2.5t-54 2.5t-64 11.5t-65.5 26.5t-59.5 47.5q-21 23 -33.5 48.5t-19 50t-8.5 48t-2 43.5v434h186v-403q0 -9 0.5 -22.5t2.5 -29.5t6 -32t11 -29q9 -17 20.5 -28.5
t25 -18t27.5 -9t27 -2.5t27 2.5t27.5 9t25 18t20.5 28.5q7 13 11 29t6 32t2.5 29.5t0.5 22.5v403h186v-434zM462 880v-140h-186v140h186z" />
    <glyph glyph-name="uniF47F" unicode="&#xf47f;" horiz-adv-x="667" 
d="M611 0h-164v96h-2q-14 -30 -35 -50.5t-47 -33.5q-16 -8 -32.5 -13t-30.5 -7.5t-26 -3t-19 -0.5q-43 0 -79 12t-64 41q-18 18 -37 56t-19 99v325h180v-252q0 -11 1 -26t4 -30.5t9.5 -30.5t18.5 -26t25 -14.5t26 -3.5q16 0 37 5.5t40 26.5q12 13 18.5 30t10 35t4.5 35.5
t1 30.5v220h180v-521zM428 738v-132h-186v132h186z" />
    <glyph glyph-name="uniF4C6" unicode="&#xf4c6;" horiz-adv-x="687" 
d="M257 -49q26 -12 49.5 -14.5t34.5 -2.5t26.5 3.5t30.5 17.5q20 19 29 53.5t9 79.5v170q-33 -10 -68.5 -15t-77.5 -5q-27 0 -56 3t-57 11t-52 22.5t-42 37.5q-17 23 -27.5 56.5t-10.5 78.5v253h186v-219q0 -45 7.5 -63t12.5 -23q8 -9 19.5 -14.5t23 -7.5t21.5 -2.5t15 -0.5
q25 0 53 4.5t53 12.5v313h186v-668q0 -22 -2 -47t-8.5 -50.5t-18.5 -49.5t-32 -44q-26 -26 -69 -44.5t-103 -18.5q-32 0 -58.5 4t-56.5 11l-17 4v154z" />
    <glyph glyph-name="uniF4C7" unicode="&#xf4c7;" horiz-adv-x="623" 
d="M285 -96q2 -1 13.5 -3.5t28.5 -2.5q37 0 50 30q6 14 8 34.5t2 37.5v195q-37 -11 -73.5 -15.5t-75.5 -4.5q-43 0 -73.5 6.5t-51 16.5t-32.5 20.5t-18 18.5q-20 27 -24.5 58.5t-4.5 60.5v165h180v-139q0 -10 2 -26t12 -28q12 -14 33 -17.5t36 -3.5q47 0 90 13v201h180v-526
q0 -31 -5 -70.5t-24 -72.5q-26 -45 -67.5 -59.5t-93.5 -14.5q-15 0 -37 1.5t-55 7.5v117z" />
    <glyph glyph-name="uniF4C8" unicode="&#xf4c8;" horiz-adv-x="667" 
d="M450 -12q-107 0 -184.5 27.5t-127.5 76.5t-74.5 114.5t-24.5 142.5q0 93 30 161.5t83.5 113t126.5 66.5t160 22q29 0 81 -6t126 -30v-151q-16 9 -38.5 17.5t-48.5 15.5t-54 11.5t-55 4.5q-53 0 -93.5 -16.5t-68.5 -46.5t-42.5 -71.5t-14.5 -92.5q0 -53 17.5 -94t48 -69.5
t73.5 -43t94 -14.5q39 0 89 10.5t93 27.5v-148q-56 -15 -100.5 -21.5t-95.5 -6.5zM405 -222q-26 0 -49 9.5t-36 19.5l25 57q25 -20 55 -20q17 0 26.5 9.5t9.5 23.5t-10.5 23.5t-30.5 9.5q-11 0 -18.5 -1t-16.5 -4l25 95h70l-10 -42q13 0 26.5 -5t24 -15t17.5 -25t7 -36
q0 -44 -29.5 -71.5t-85.5 -27.5z" />
    <glyph glyph-name="uniF4C9" unicode="&#xf4c9;" horiz-adv-x="501" 
d="M339 -12q-68 0 -124.5 19t-97.5 54.5t-63.5 86t-22.5 112.5q0 61 22 111.5t62.5 86.5t97.5 55.5t128 19.5q32 0 66 -6t70 -23v-132q-32 19 -65.5 24t-50.5 5q-30 0 -56.5 -10t-45.5 -28.5t-30 -44.5t-11 -58q0 -38 14 -64.5t36 -43t49 -24.5t54 -8q17 0 46.5 4t64.5 21
v-134q-19 -6 -54.5 -14.5t-88.5 -8.5zM295 -222q-26 0 -49 9.5t-36 19.5l25 57q25 -20 55 -20q17 0 26.5 9.5t9.5 23.5t-10.5 23.5t-30.5 9.5q-11 0 -18.5 -1t-16.5 -4l25 95h70l-10 -42q13 0 26.5 -5t24 -15t17.5 -25t7 -36q0 -44 -29.5 -71.5t-85.5 -27.5z" />
    <glyph glyph-name="uniF4CC" unicode="&#xf4cc;" horiz-adv-x="692" 
d="M226 -12q-23 0 -51.5 4t-64.5 18v130q20 -9 41.5 -14t38.5 -5q22 0 42.5 10t31.5 33l12 27l-278 509h214l154 -340l142 340h194l-274 -580q-30 -63 -75.5 -97.5t-126.5 -34.5zM365 880h196l-134 -140h-134z" />
    <glyph glyph-name="uniF4CD" unicode="&#xf4cd;" horiz-adv-x="605" 
d="M144 -222q-17 0 -40 2t-59 10v140q18 -7 36 -10.5t41 -3.5q25 0 41 6.5t25 14.5q12 10 19.5 24.5t11.5 26.5l-211 533h194l112 -340h2l107 340h180l-200 -507l-17 -42.5t-18 -42.5q-10 -22 -29.5 -55t-54.5 -59q-33 -24 -66 -30.5t-74 -6.5zM319 750h186l-130 -160h-126z
" />
    <glyph glyph-name="dollar.fitted" unicode="&#xf5f5;" horiz-adv-x="630" 
d="M281 -11q-55 2 -103.5 8.5t-96.5 20.5v160q21 -11 45.5 -19t51 -14t53 -10.5t50.5 -6.5v166q-47 9 -87 29t-68.5 48t-44.5 62.5t-16 71.5q0 86 51 139.5t165 64.5v91h110v-89q42 -2 84 -7.5t83 -17.5v-148q-31 15 -73.5 24t-93.5 11v-144q51 -11 91 -27.5t67 -41
t41.5 -59t14.5 -82.5q0 -103 -50.5 -160t-163.5 -68v-91h-110v89zM443 195q0 24 -14 41t-38 29v-132q28 8 40 24.5t12 37.5zM227 518q0 -37 54 -59v108q-32 -7 -43 -20t-11 -29z" />
    <glyph glyph-name="Euro.fitted" unicode="&#xf5f6;" horiz-adv-x="622" 
d="M19 465h56q17 62 51.5 108.5t81 77t102.5 46t116 15.5q50 0 88.5 -7t73.5 -17l-30 -137q-24 10 -54 16.5t-58 6.5q-63 0 -109.5 -28.5t-70.5 -80.5h275l-18 -90h-280q-1 -7 -1 -13.5v-13.5v-23h270l-18 -90h-231q13 -30 33 -50.5t44 -33.5t51 -19t55 -6q53 0 91 9.5
t64 21.5v-143q-20 -8 -42.5 -13t-46.5 -8t-47.5 -4t-44.5 -1q-54 0 -108.5 13.5t-101.5 43.5t-83.5 77t-53.5 113h-72l18 90h41v21v14.5t1 14.5h-60z" />
    <glyph glyph-name="cent.fitted" unicode="&#xf5f7;" horiz-adv-x="501" 
d="M221 5q-87 28 -138 93.5t-51 161.5q0 94 50 160.5t139 94.5v106h180v-93q36 -6 77 -24v-132q-32 19 -65.5 24t-50.5 5q-30 0 -56.5 -10t-45.5 -28.5t-30 -44.5t-11 -58q0 -38 14 -64.5t36 -43t49 -24.5t54 -8q17 0 46.5 4t64.5 21v-134q-13 -5 -33.5 -10t-48.5 -9v-92
h-180v105z" />
    <glyph glyph-name="sterling.fitted" unicode="&#xf5f8;" horiz-adv-x="581" 
d="M26 132h92v173h-91v110h91v45q0 122 69 187t215 65q35 0 68 -4.5t66 -12.5v-140q-19 6 -43 12.5t-47 6.5q-77 0 -109.5 -29t-32.5 -85v-45h152v-110h-152v-173h222v-132h-500v132z" />
    <glyph glyph-name="yen.fitted" unicode="&#xf5f9;" horiz-adv-x="658" 
d="M237 120h-152v110h152v38h-152v110h85l-181 322h204l137 -281l135 281h204l-179 -322h85v-110h-152v-38h152v-110h-152v-120h-186v120z" />
    <glyph glyph-name="florin.fitted" unicode="&#xf5fa;" horiz-adv-x="530" 
d="M75 -222q-14 0 -31 1.5t-34 4.5t-32.5 7.5t-26.5 11.5v128q12 -7 31.5 -14t40.5 -7q17 0 29 7t20.5 18t13.5 24.5t8 26.5l64 339h-93l18 110h92l15 82q8 43 24 78.5t40 61.5t56 40.5t71 14.5q44 0 81.5 -6.5t48.5 -11.5v-130q-15 6 -31.5 11t-33.5 5q-31 0 -48.5 -14
t-23.5 -49l-14 -82h93l-17 -110h-94l-64 -340q-21 -110 -74 -158.5t-129 -48.5z" />
    <glyph glyph-name="uni20B4.fitted" unicode="&#xf5fb;" horiz-adv-x="612" 
d="M27 495h312q2 5 3 10t1 11q0 25 -20.5 43t-54.5 18q-39 0 -74 -7t-67 -19v144q48 11 92 14t88 3q53 0 94.5 -14t70 -38.5t43 -57.5t14.5 -71q0 -20 -3 -36h61v-110h-127q-20 -17 -42 -31.5t-44 -28.5h213v-110h-315q-1 -5 -1 -14q0 -14 5.5 -27.5t16 -25t25.5 -18.5
t34 -7q38 0 74 7t78 27v-149q-23 -7 -47.5 -11t-48.5 -6t-45.5 -2.5t-36.5 -0.5q-60 0 -105.5 14t-75.5 39.5t-45 59.5t-15 75q0 21 3 39h-61v110h116q16 17 34 31.5t37 28.5h-187v110z" />
    <glyph glyph-name="uni20BD.fitted" unicode="&#xf5fc;" horiz-adv-x="624" 
d="M112 95h-93v110h93v50h-93v130h93v315h229q72 0 122.5 -16t81.5 -45t45 -69.5t14 -89.5q0 -51 -14 -92.5t-45 -71t-81.5 -45.5t-122.5 -16h-43v-50h143v-110h-143v-95h-186v95zM426 481q0 41 -23.5 65t-61.5 24h-43v-185h43q38 0 61.5 25t23.5 71z" />
    <glyph glyph-name="uni20B8.fitted" unicode="&#xf5fd;" horiz-adv-x="570" 
d="M193 417h-172v110h530v-110h-172v-417h-186v417zM21 590v110h530v-110h-530z" />
    <glyph glyph-name="currency.fitted" unicode="&#xf5fe;" 
d="M83 163l53 53q-42 63 -42 134q0 35 11 69t31 65l-53 53l55 55l53 -53q31 21 65 31.5t69 10.5t69 -11t65 -31l53 53l55 -55l-53 -53q42 -62 42 -134q0 -69 -42 -134l53 -53l-55 -55l-53 53q-31 -20 -65 -31t-69 -11t-69 11t-65 31l-53 -53zM325 215q26 0 49 10.5t40.5 29
t27.5 43t10 52.5t-10 52.5t-27.5 43t-40.5 29t-49 10.5t-49.5 -10.5t-40.5 -29t-27 -43t-10 -52.5t10 -52.5t27 -43t40.5 -29t49.5 -10.5z" />
    <glyph glyph-name="numbersign.fitted" unicode="&#xf5ff;" 
d="M351 175h-102l-24 -175h-130l24 175h-64v120h81l16 110h-67v120h83l25 175h130l-25 -175h102l25 175h130l-25 -175h65v-120h-81l-16 -110h67v-120h-84l-24 -175h-130zM266 295h102l16 110h-102z" />
    <glyph glyph-name="uniF639" unicode="&#xf639;" horiz-adv-x="640" 
d="M321 -12q-66 0 -116 19t-84.5 62t-52 112t-17.5 169t17.5 169t52 112t84.5 62t116 19t116 -19t84.5 -62t52 -112t17.5 -169t-17.5 -169t-52 -112t-84.5 -62t-116 -19zM321 118q22 0 40.5 9t32 34.5t20.5 71t7 117.5t-7 117t-20.5 70.5t-32 35t-40.5 9.5q-23 0 -41 -9.5
t-31.5 -35t-20.5 -70.5t-7 -117t7 -117.5t20.5 -71t31.5 -34.5t41 -9z" />
    <glyph glyph-name="uniF63A" unicode="&#xf63a;" horiz-adv-x="600" 
d="M41 133q147 118 228 206t81 151q0 37 -25.5 60.5t-73.5 23.5q-52 0 -102.5 -14t-90.5 -37v148q49 18 98 29.5t105 11.5q71 0 123 -15t85.5 -43t50 -67t16.5 -87q0 -47 -18 -90t-52.5 -87t-84 -90.5t-111.5 -100.5h281v-132h-510v133z" />
    <glyph glyph-name="uniF63B" unicode="&#xf63b;" horiz-adv-x="590" 
d="M252 -12q-62 0 -116 6t-95 18v151q18 -11 43 -18t52.5 -11.5t55 -6t50.5 -1.5q63 0 93 25.5t30 59.5q0 42 -26.5 63.5t-96.5 21.5h-82v120h82q62 0 87 21t25 58t-25 58t-87 21q-57 0 -102 -9t-77 -23v141q46 14 89.5 21.5t99.5 7.5q78 0 132.5 -14.5t89 -40t50.5 -60.5
t16 -77q0 -62 -32.5 -99.5t-95.5 -53.5v-2q69 -14 104 -56.5t35 -108.5q0 -42 -18.5 -80.5t-56 -67.5t-93.5 -46.5t-131 -17.5z" />
    <glyph glyph-name="uniF63C" unicode="&#xf63c;" horiz-adv-x="620" 
d="M333 135h-312v150l270 415h212v-435h98v-130h-98v-135h-170v135zM333 265v257h-2l-167 -257h169z" />
    <glyph glyph-name="uniF63D" unicode="&#xf63d;" horiz-adv-x="580" 
d="M241 -12q-51 1 -99 7t-91 18v151q82 -38 170 -38q75 0 107.5 28t32.5 76q0 50 -34 80.5t-106 30.5q-38 0 -78 -5.5t-85 -21.5l22 386h431v-126h-280l-8 -117q19 2 33 3t22 1q138 0 200.5 -58.5t62.5 -172.5q0 -53 -19 -97.5t-56.5 -76.5t-93.5 -50t-131 -18z" />
    <glyph glyph-name="uniF63E" unicode="&#xf63e;" horiz-adv-x="620" 
d="M321 -12q-56 0 -105.5 22t-86 65.5t-57.5 107.5t-21 147q0 95 22.5 166.5t64.5 119.5t102.5 72t135.5 24q30 0 51.5 -2t39.5 -6t34.5 -9.5t34.5 -12.5v-134q-29 12 -68 23t-92 11q-66 0 -107.5 -41.5t-50.5 -116.5h3q26 23 59.5 36t75.5 13q106 0 165.5 -60.5
t59.5 -172.5q0 -57 -18 -103.5t-52 -79.5t-82 -51t-108 -18zM316 118q42 0 68.5 29t26.5 83q0 57 -26.5 82.5t-68.5 25.5t-68.5 -28.5t-26.5 -79.5q0 -54 26.5 -83t68.5 -29z" />
    <glyph glyph-name="uniF63F" unicode="&#xf63f;" horiz-adv-x="560" 
d="M351 568h-330v132h520v-151l-250 -549h-200z" />
    <glyph glyph-name="uniF640" unicode="&#xf640;" horiz-adv-x="630" 
d="M316 -12q-69 0 -121 16t-86 43t-51 64t-17 79q0 53 36 100t104 69v2q-53 26 -86.5 62.5t-33.5 96.5q0 42 15 77t46.5 60.5t79.5 40t114 14.5q63 0 109 -14.5t77 -40t46 -60.5t15 -77q0 -53 -33.5 -90t-78.5 -59v-2q75 -29 107.5 -74t32.5 -105q0 -42 -17 -79t-51 -64
t-86 -43t-121 -16zM316 114q39 0 67 21.5t28 64.5q0 22 -9 39t-23.5 30t-33.5 22t-39 15q-33 -14 -59 -40.5t-26 -65.5q0 -17 8 -32.5t21 -27.5t30.5 -19t35.5 -7zM316 592q-34 0 -60.5 -18t-26.5 -54q0 -18 9 -34t23 -29t31 -23t34 -17q29 17 49 41t20 62q0 34 -21.5 53
t-57.5 19z" />
    <glyph glyph-name="uniF641" unicode="&#xf641;" horiz-adv-x="620" 
d="M246 -12q-30 0 -51.5 2t-39.5 6t-34.5 9.5t-34.5 12.5v134q29 -12 68 -23t92 -11q66 0 107.5 41.5t50.5 116.5h-3q-26 -23 -59.5 -36t-75.5 -13q-106 0 -165.5 60.5t-59.5 172.5q0 57 18 103.5t52 79.5t82 51t108 18q56 0 105.5 -22t86 -65.5t57.5 -107.5t21 -147
q0 -95 -22.5 -166.5t-64.5 -119.5t-102.5 -72t-135.5 -24zM306 362q42 0 68.5 28.5t26.5 79.5q0 54 -26.5 83t-68.5 29t-68.5 -29t-26.5 -83q0 -57 26.5 -82.5t68.5 -25.5z" />
    <glyph glyph-name="uniF643" unicode="&#xf643;" 
d="M326 -12q-83 0 -135.5 22t-82.5 59t-41.5 86.5t-11.5 104.5t11.5 105t41.5 87t82.5 59t135.5 22q82 0 134.5 -22t82.5 -59t41 -87t11 -105t-11 -104.5t-41 -86.5t-82.5 -59t-134.5 -22zM326 113q28 0 45 12t27 32t13.5 46.5t3.5 56.5t-3.5 56.5t-13.5 46.5t-27 32t-45 12
t-46 -12t-28 -32t-13.5 -46.5t-3.5 -56.5t3.5 -56.5t13.5 -46.5t28 -32t46 -12z" />
    <glyph glyph-name="uniF644" unicode="&#xf644;" 
d="M284 335l-118 -95l-86 122l226 159h164v-521h-186v335z" />
    <glyph glyph-name="uniF645" unicode="&#xf645;" 
d="M70 131q90 47 148.5 78.5t92.5 55t47.5 42t13.5 39.5q0 19 -19.5 34t-71.5 15q-57 0 -109.5 -15t-83.5 -33v145q35 12 65 20t58.5 12.5t58 6.5t63.5 2q117 0 178 -36.5t61 -117.5q0 -43 -19.5 -77.5t-53.5 -63.5t-79.5 -54t-96.5 -49v-3h257v-132h-510v131z" />
    <glyph glyph-name="uniF646" unicode="&#xf646;" 
d="M281 -190q-62 0 -116 6t-95 18v151q18 -11 43 -18t52.5 -11.5t55 -6t50.5 -1.5q63 0 93 25.5t30 59.5q0 42 -26.5 63.5t-96.5 21.5h-82v120h82q62 0 87 21t25 58t-25 58t-87 21q-57 0 -102 -9t-77 -23v141q46 14 89.5 21.5t99.5 7.5q78 0 132.5 -14.5t89 -40t50.5 -60.5
t16 -77q0 -62 -32.5 -99.5t-95.5 -53.5v-2q69 -14 104 -56.5t35 -108.5q0 -42 -18.5 -80.5t-56 -67.5t-93.5 -46.5t-131 -17.5z" />
    <glyph glyph-name="uniF647" unicode="&#xf647;" 
d="M342 0h-312v150l270 371h212v-391h98v-130h-98v-179h-170v179zM342 130v213h-2l-167 -213h169z" />
    <glyph glyph-name="uniF648" unicode="&#xf648;" 
d="M271 -190q-51 1 -99 7t-91 18v151q82 -38 170 -38q75 0 107.5 28t32.5 76q0 50 -34 80.5t-106 30.5q-38 0 -78 -5.5t-85 -21.5l22 386h431v-126h-280l-8 -117q19 2 33 3t22 1q138 0 200.5 -58.5t62.5 -172.5q0 -53 -19 -97.5t-56.5 -76.5t-93.5 -50t-131 -18z" />
    </font>
</defs>
</svg>
