<?xml version="1.0" standalone="no"?>
<!DOCTYPE svg PUBLIC "-//W3C//DTD SVG 1.1//EN" "http://www.w3.org/Graphics/SVG/1.1/DTD/svg11.dtd" >
<svg xmlns="http://www.w3.org/2000/svg" xmlns:xlink="http://www.w3.org/1999/xlink" version="1.1">
<metadata>
Created by FontForge 20170731 at Thu Mar 22 20:33:29 2018
 By Aleksey,,,
Copyright (c) 1992 ParaType Inc., ParaType Ltd. All rights reserved.
</metadata>
<defs>
<font id="VTBGroup-LightOblique" horiz-adv-x="550" >
  <font-face 
    font-family="VTB Group Light"
    font-weight="300"
    font-style="oblique"
    font-stretch="normal"
    units-per-em="1000"
    panose-1="2 11 4 3 4 5 4 9 2 4"
    ascent="773"
    descent="-227"
    x-height="513"
    cap-height="700"
    bbox="-272 -250 1345 967"
    underline-thickness="50"
    underline-position="-150"
    slope="-11"
    unicode-range="U+000D-FEFF"
  />
<missing-glyph horiz-adv-x="500" 
d="M442 8v496h-384v-496h384zM50 512h400v-512h-400v512z" />
    <glyph glyph-name="IJ" unicode="IJ" horiz-adv-x="596" 
d="M638 700l-108 -532q-3 -14 -8 -33t-14 -38.5t-23 -38.5t-35 -34q-23 -17 -53 -25t-62 -8q-34 0 -75 11l18 58q30 -11 61 -11q23 0 46 8.5t41 28.5t26.5 42.5t13.5 46.5l106 525h66zM308 700l-142 -700h-66l142 700h66z" />
    <glyph glyph-name="ij" unicode="ij" horiz-adv-x="435" 
d="M247 513l-104 -513h-63l104 513h63zM292 720l-16 -80h-69l16 80h69zM340 -74q-8 -35 -15.5 -55t-14.5 -31q-20 -32 -52 -45t-65 -13q-17 0 -31 2.5t-23 5.5l11 51q19 -6 44 -6q11 0 22 2t22 10q11 7 20.5 22.5t17.5 50.5l120 593h63zM504 720l-16 -80h-69l16 80h69z" />
    <glyph glyph-name="afii10017.var.accented" unicode="&#x410;`" horiz-adv-x="650" 
d="M427 700h86l122 -700h-72l-33 192h-329l-113 -192h-73zM520 249l-62 385h-2l-221 -385h285zM663 870l-150 -120h-70l108 120h112z" />
    <glyph glyph-name="afii10022.var.accented" unicode="&#x415;`" horiz-adv-x="509" 
d="M582 700l-11 -57h-274l-52 -253h261l-11 -57h-261l-56 -276h293l-12 -57h-292h-67l142 700h66h274zM529 870l-150 -120h-70l108 120h112z" />
    <glyph glyph-name="afii10026.var.accented" unicode="&#x418;`" horiz-adv-x="717" 
d="M308 700l-107 -526l-21 -85h3l54 71l447 540h11h64l-142 -700h-66l107 526l21 85h-3l-48 -66l-453 -545h-10h-65l142 700h66zM633 870l-150 -120h-70l108 120h112z" />
    <glyph glyph-name="afii10032.var.accented" unicode="&#x41e;`" horiz-adv-x="748" 
d="M378 -8q-23 0 -48.5 3t-52 12t-51.5 25t-47 43q-20 24 -32 50t-18 51t-8 48.5t-2 42.5q0 88 30 172.5t90 150.5q34 36 70 59t71.5 36t69 18t63.5 5q66 0 114.5 -19.5t80.5 -55.5t47.5 -86.5t15.5 -112.5q0 -108 -34 -187.5t-83 -133.5q-54 -58 -121 -89.5t-155 -31.5z
M190 257q0 -31 8 -70.5t34 -71.5q8 -11 21 -22.5t31.5 -21t43 -16t54.5 -6.5q70 0 137 37.5t113 107.5q33 51 50.5 115.5t17.5 134.5q0 32 -7.5 69.5t-34.5 71.5q-9 11 -22 22.5t-31.5 21.5t-42.5 16t-54 6q-66 0 -132 -35t-117 -110q-5 -7 -16.5 -27.5t-23 -53t-20.5 -75
t-9 -93.5zM648 870l-150 -120h-70l108 120h112z" />
    <glyph glyph-name="afii10037.var.accented" unicode="&#x423;`" horiz-adv-x="563" 
d="M221 700l105 -372l18 -88h3l48 84l232 376h72l-367 -589q-15 -24 -30.5 -46.5t-35.5 -39.5q-39 -33 -96 -33q-21 0 -37.5 3.5t-27.5 8.5l14 56q17 -11 46 -11q37 0 66 27q11 10 19 22.5t19 29.5l26 42l-148 530h74zM556 870l-150 -120h-70l108 120h112z" />
    <glyph glyph-name="afii10045.var.accented" unicode="&#x42b;`" horiz-adv-x="806" 
d="M308 700l-58 -287h112q20 0 41 -0.5t42 -4.5t41 -12.5t38 -24.5q18 -17 34.5 -45t16.5 -71q0 -51 -23 -104.5t-77 -93.5q-25 -19 -50 -30t-49 -17t-47.5 -8t-45.5 -2h-118h-65l142 700h66zM178 57h109q12 0 29.5 1.5t37 6t40.5 13.5t41 25q23 18 36.5 37.5t21 38.5
t9.5 36t2 31q0 22 -8 44.5t-34 40.5q-26 19 -58 22t-55 3h-111zM848 700l-142 -700h-66l142 700h66zM734 870l-150 -120h-70l108 120h112z" />
    <glyph glyph-name="afii10047.var.accented" unicode="&#x42d;`" horiz-adv-x="641" 
d="M214 392h373q1 10 1.5 20.5t0.5 21.5q0 35 -11.5 73.5t-39.5 70.5q-38 44 -85.5 58.5t-92.5 14.5q-57 0 -105 -12.5t-90 -35.5l5 63q43 19 92.5 30.5t109.5 11.5q23 0 50.5 -3t56 -11.5t56.5 -24.5t52 -42q30 -32 51.5 -82.5t21.5 -122.5q0 -59 -14.5 -113t-40 -100.5
t-59.5 -84t-74 -62.5q-6 -4 -26.5 -15.5t-54 -23.5t-78.5 -21.5t-99 -9.5q-38 0 -79.5 7t-86.5 23l13 64q37 -18 75 -27.5t81 -9.5q67 0 127 18.5t106 53.5q18 14 37 34t36.5 46.5t31 59.5t20.5 74h-373zM595 870l-150 -120h-70l108 120h112z" />
    <glyph glyph-name="afii10048.var.accented" unicode="&#x42e;`" horiz-adv-x="976" 
d="M366 391q18 67 53.5 124.5t81.5 99.5q19 17 44 34t56 30t68 21t80 8q60 0 107 -20t78.5 -55.5t48 -85t16.5 -109.5q0 -97 -30.5 -172t-82.5 -136q-60 -71 -127.5 -104.5t-157.5 -33.5q-69 0 -123 23.5t-90 78.5q-23 35 -33 77t-10 84q0 41 8 79h-119l-68 -334h-66
l142 700h66l-62 -309h120zM427 349q-4 -20 -6 -40t-2 -40q0 -68 18 -108.5t38 -60.5q23 -23 57 -37t79 -14q13 0 36.5 2.5t52 13t60.5 31t63 56.5q24 27 43 59.5t32.5 68.5t21 72.5t7.5 71.5q0 60 -15.5 103t-42 70.5t-61.5 40.5t-75 13q-54 0 -105.5 -23t-90.5 -62
q-21 -21 -38.5 -47t-31.5 -54.5t-24 -58t-16 -57.5zM762 870l-150 -120h-70l108 120h112z" />
    <glyph glyph-name="afii10049.var.accented" unicode="&#x42f;`" horiz-adv-x="609" 
d="M287 293q-98 34 -98 147q0 60 18.5 108t54 82t87 52t118.5 18h184l-142 -700h-66l57 280h-117h-17.5t-16.5 1l-203 -281h-81zM261 440q0 -48 31.5 -75.5t101.5 -27.5h117l63 306h-118q-91 0 -143 -53t-52 -150zM664 870l-150 -120h-70l108 120h112z" />
    <glyph glyph-name="afii10023.var.accented" unicode="&#x401;`" horiz-adv-x="509" 
d="M582 700l-11 -57h-274l-52 -253h261l-11 -57h-261l-56 -276h293l-12 -57h-292h-67l142 700h66h274zM353 844l-17 -80h-69l17 80h69zM581 844l-17 -80h-69l17 80h69zM593 967l-146 -123h-56l108 123h94z" />
    <glyph glyph-name="afii10065.var.accented" unicode="&#x430;`" horiz-adv-x="566" 
d="M256 -8q-77 0 -122 48t-45 142q0 78 22.5 141t59.5 107t85.5 67.5t99.5 23.5q58 0 92 -25t57 -75l18 89h63l-104 -510h-55l21 106h-3q-30 -48 -79 -81t-110 -33zM264 45q39 0 77 20t68 56t49 87t19 113q0 73 -33.5 110t-85.5 37q-35 0 -71.5 -20t-66 -57.5t-48 -91
t-18.5 -120.5q0 -71 28.5 -102.5t81.5 -31.5zM586 740l-154 -130h-56l116 130h94z" />
    <glyph glyph-name="afii10070.var.accented" unicode="&#x435;`" horiz-adv-x="509" 
d="M284 -8q-94 0 -147 52.5t-53 145.5q0 76 22.5 137.5t62.5 104.5t95 66t120 23q32 0 59.5 -8.5t48 -24.5t32 -38.5t11.5 -49.5q0 -42 -18 -76.5t-62 -58.5t-118 -38t-187 -16v-18q0 -72 37 -110t112 -38q31 0 69.5 6.5t77.5 26.5l-12 -58q-35 -14 -69.5 -21t-80.5 -7z
M369 468q-38 0 -72.5 -13.5t-63 -40t-48.5 -64.5t-29 -86q86 1 146.5 9.5t98.5 25.5t55 42t17 59q0 29 -25.5 48.5t-78.5 19.5zM561 740l-154 -130h-56l116 130h94z" />
    <glyph glyph-name="afii10074.var.accented" unicode="&#x438;`" horiz-adv-x="556" 
d="M245 513l-65 -320q-2 -11 -4.5 -24t-2.5 -33q0 -6 0.5 -14.5t2.5 -18t6.5 -19t13.5 -17.5q11 -10 28 -16t40 -6q68 0 118 47q7 6 17 17t20.5 26.5t19.5 35.5t14 45l60 297h63l-80 -396l-20 -117h-59l21 102h-1q-29 -46 -67 -72q-17 -13 -47 -25.5t-75 -12.5
q-26 0 -49.5 6.5t-44.5 24.5q-26 22 -35 50t-9 60q0 20 2.5 36t6.5 33l63 311h63zM577 740l-154 -130h-56l116 130h94z" />
    <glyph glyph-name="afii10080.var.accented" unicode="&#x43e;`" horiz-adv-x="561" 
d="M91 196q0 63 23.5 126.5t68.5 112.5q78 86 200 86q15 0 33 -2t36.5 -7.5t36.5 -16t34 -27.5q18 -18 28 -38.5t15.5 -41.5t7 -40t1.5 -33q0 -51 -13 -100.5t-47 -100.5q-45 -66 -104 -94t-131 -28q-32 0 -69.5 10.5t-69.5 45.5q-6 7 -14.5 19t-16.5 30t-13.5 42.5
t-5.5 56.5zM157 192q0 -54 16.5 -83.5t38 -43.5t42 -17t28.5 -3q60 0 101 24.5t73 72.5q23 33 38 76.5t15 98.5q0 26 -5.5 53.5t-25.5 52.5q-36 45 -98 45q-17 0 -36 -3.5t-40 -12.5t-42 -25t-41 -41q-29 -38 -46.5 -87.5t-17.5 -106.5zM526 740l-154 -130h-56l116 130h94z
" />
    <glyph glyph-name="afii10085.var.accented" unicode="&#x443;`" horiz-adv-x="494" 
d="M35 -155q8 -2 23.5 -5.5t23.5 -3.5q18 0 32 7t25 18.5t20 26t17 28.5l36 67l-78 530h65l56 -392l5 -51l3 1l236 442h69l-347 -629q-25 -46 -57 -75t-85 -29q-14 0 -30.5 2.5t-30.5 6.5zM492 740l-154 -130h-56l116 130h94z" />
    <glyph glyph-name="afii10093.var.accented" unicode="&#x44b;`" horiz-adv-x="678" 
d="M184 513h63l-39 -193h118q95 0 133.5 -33t38.5 -97q0 -41 -15 -76t-44.5 -60.5t-74 -39.5t-103.5 -14h-181zM271 53q78 0 118.5 37.5t40.5 99.5q0 37 -25 57t-90 20h-118l-44 -214h118zM702 513l-104 -513h-63l104 513h63zM642 740l-154 -130h-56l116 130h94z" />
    <glyph glyph-name="afii10095.var.accented" unicode="&#x44d;`" horiz-adv-x="462" 
d="M164 292h244q5 36 -1.5 69.5t-31.5 61.5t-55 36.5t-63 8.5q-45 0 -79.5 -10t-54.5 -19l9 56q22 9 54.5 17.5t77.5 8.5q54 0 93.5 -15t64.5 -39q23 -23 38 -58t15 -86q0 -63 -21.5 -126t-72.5 -114q-48 -49 -103.5 -70t-121.5 -21q-35 0 -65 6.5t-58 17.5l14 56
q27 -14 55 -20.5t62 -6.5q45 0 84.5 12t75.5 47q24 23 44 56.5t29 78.5h-243zM476 740l-154 -130h-56l116 130h94z" />
    <glyph glyph-name="afii10096.var.accented" unicode="&#x44e;`" horiz-adv-x="739" 
d="M283 289q14 54 40.5 94.5t58.5 69.5q24 22 49 35t49 20.5t45.5 10t38.5 2.5q51 0 87.5 -17.5t59.5 -46.5q27 -33 34.5 -68.5t7.5 -62.5q0 -73 -25.5 -136.5t-71.5 -111.5t-96.5 -67t-104.5 -19q-65 0 -103 25.5t-57 59.5q-14 25 -20 54.5t-6 60.5q0 23 3 44h-81l-48 -236
h-63l104 513h63l-45 -224h81zM466 45q46 0 79.5 17.5t61.5 47.5q36 39 58 96t22 115q0 44 -12.5 69t-22.5 36q-17 20 -41.5 31t-58.5 11q-45 0 -80 -18t-61 -47q-12 -13 -25.5 -33t-25.5 -46.5t-20 -59t-8 -69.5q0 -24 4 -49.5t24 -51.5q20 -27 46 -38t60 -11zM615 740
l-154 -130h-56l116 130h94z" />
    <glyph glyph-name="afii10097.var.accented" unicode="&#x44f;`" horiz-adv-x="498" 
d="M196 208q-36 15 -53 43t-17 64q0 44 15 80.5t43.5 62.5t70.5 40.5t97 14.5h168l-104 -513h-63l39 193h-104h-15.5t-15.5 1l-138 -194h-76zM194 315q0 -29 24 -49t81 -20h104l43 214h-105q-147 0 -147 -145zM573 740l-154 -130h-56l116 130h94z" />
    <glyph glyph-name="afii10071.var.accented" unicode="&#x451;`" horiz-adv-x="509" 
d="M284 -8q-94 0 -147 52.5t-53 145.5q0 76 22.5 137.5t62.5 104.5t95 66t120 23q32 0 59.5 -8.5t48 -24.5t32 -38.5t11.5 -49.5q0 -42 -18 -76.5t-62 -58.5t-118 -38t-187 -16v-18q0 -72 37 -110t112 -38q31 0 69.5 6.5t77.5 26.5l-12 -58q-35 -14 -69.5 -21t-80.5 -7z
M369 468q-38 0 -72.5 -13.5t-63 -40t-48.5 -64.5t-29 -86q86 1 146.5 9.5t98.5 25.5t55 42t17 59q0 29 -25.5 48.5t-78.5 19.5zM327 720l-17 -80h-69l17 80h69zM548 720l-17 -80h-69l17 80h69zM575 853l-154 -133h-56l116 133h94z" />
    <glyph glyph-name="fi" unicode="fi" horiz-adv-x="624" 
d="M237 460h-107l10 53h107l22 105q3 14 8 32t13 35q6 11 14.5 23t21.5 23q26 22 54.5 28t49.5 6q33 0 60 -10l-11 -52q-12 4 -26 6.5t-25 2.5q-17 0 -33 -5t-29 -16q-15 -14 -22 -32.5t-11 -35.5l-23 -110h121l-10 -53h-121l-94 -460h-63zM642 513l-104 -513h-63l104 513
h63zM687 720l-16 -80h-69l16 80h69z" />
    <glyph glyph-name="fl" unicode="fl" horiz-adv-x="627" 
d="M237 460h-107l10 53h107l22 105q3 14 8 32t13 35q6 11 14.5 23t21.5 23q26 22 54.5 28t49.5 6q33 0 60 -10l-11 -52q-12 4 -26 6.5t-25 2.5q-17 0 -33 -5t-29 -16q-15 -14 -22 -32.5t-11 -35.5l-23 -110h121l-10 -53h-121l-94 -460h-63zM702 762l-155 -762h-63l155 762
h63z" />
    <glyph glyph-name=".notdef" horiz-adv-x="500" 
d="M442 8v496h-384v-496h384zM50 512h400v-512h-400v512z" />
    <glyph glyph-name=".null" horiz-adv-x="0" 
 />
    <glyph glyph-name=".null" horiz-adv-x="0" 
 />
    <glyph glyph-name="uni000D" unicode="&#xd;" horiz-adv-x="233" 
 />
    <glyph glyph-name="space" unicode=" " horiz-adv-x="240" 
 />
    <glyph glyph-name="exclam" unicode="!" horiz-adv-x="279" 
d="M321 700l-118 -525h-58l94 525h82zM199 86l-17 -86h-82l17 86h82z" />
    <glyph glyph-name="quotedbl" unicode="&#x22;" horiz-adv-x="329" 
d="M287 700l-57 -173h-51l13 173h95zM421 700l-57 -173h-51l13 173h95z" />
    <glyph glyph-name="numbersign" unicode="#" 
d="M196 207h-96l12 57h95l36 173h-96l12 57h96l42 206h62l-42 -206h133l42 206h62l-42 -206h96l-12 -57h-96l-36 -173h96l-11 -57h-96l-42 -207h-62l42 207h-133l-42 -207h-62zM402 264l36 173h-133l-36 -173h133z" />
    <glyph glyph-name="dollar" unicode="$" 
d="M239 -86l16 80q-89 -3 -170 31l20 65q42 -21 82 -30t80 -8l58 285q-42 20 -67.5 38.5t-42.5 38.5q-16 19 -24.5 39.5t-8.5 46.5q0 42 19 85t61 72q27 20 63.5 32t73.5 15l17 82h44l-16 -80q74 0 148 -25l-22 -62q-34 16 -68.5 23t-69.5 7l-53 -260q12 -6 27 -14.5
t30.5 -18.5t30 -21t24.5 -21q20 -20 30.5 -43t10.5 -54q0 -43 -20 -82.5t-50 -68.5q-24 -23 -65 -44.5t-98 -24.5l-16 -83h-44zM311 56q38 8 68 23.5t50 41.5q13 16 21.5 37.5t8.5 43.5q0 25 -11.5 44.5t-31.5 35.5q-5 3 -16.5 11t-35.5 20zM387 646q-14 -2 -35.5 -8.5
t-40.5 -18.5q-20 -12 -39 -36.5t-19 -66.5q0 -17 6 -32t22 -31q14 -13 32.5 -24t26.5 -15z" />
    <glyph glyph-name="percent" unicode="%" horiz-adv-x="830" 
d="M613 -8q-58 0 -92 33t-34 93q0 11 1.5 21.5t3.5 22.5q8 39 26 70.5t43 53.5t55.5 34t64.5 12q58 0 92 -33t34 -93q0 -11 -1.5 -21.5t-3.5 -22.5q-8 -39 -26 -70.5t-43 -53.5t-55.5 -34t-64.5 -12zM623 43q45 0 78.5 29.5t45.5 89.5q4 19 4 38q0 42 -21 62t-59 20
q-45 0 -78.5 -30t-45.5 -90q-4 -19 -4 -37q0 -41 21 -61.5t59 -20.5zM308 368q-57 0 -91 32.5t-34 91.5q0 11 1.5 22.5t3.5 23.5q8 39 26 70.5t43 53.5t55.5 34t64.5 12q58 0 92 -33t34 -93q0 -11 -1.5 -21.5t-3.5 -22.5q-17 -79 -69.5 -124.5t-120.5 -45.5zM319 419
q45 0 78.5 29.5t45.5 89.5q4 19 4 38q0 42 -21 62t-59 20q-45 0 -78.5 -30t-45.5 -90q-4 -19 -4 -37q0 -41 21 -61.5t59 -20.5zM772 700h68l-622 -700h-68z" />
    <glyph glyph-name="ampersand" unicode="&#x26;" horiz-adv-x="732" 
d="M540 77q-48 -42 -104.5 -63.5t-128.5 -21.5q-51 0 -86.5 12t-58.5 32t-39 52t-16 72q0 42 18 83.5t57 76.5q26 23 64.5 43.5t76.5 32.5q-26 31 -47.5 63t-21.5 74q0 38 19 75.5t59 63.5q31 20 63.5 28t69.5 8q22 0 51 -4.5t55 -24.5q14 -11 30 -34t16 -63q0 -47 -24 -82
t-57 -59t-67.5 -38.5t-55.5 -20.5l147 -212q19 23 34.5 50t29.5 56q23 53 38 113h66q-18 -66 -50 -137q-19 -40 -39 -70t-48 -59l87 -123h-86zM385 420q55 17 107 54q9 7 19 16t19 21.5t14.5 27.5t5.5 34q0 38 -24 57q-13 11 -32 16t-38 5q-23 0 -47 -6t-42 -19
q-20 -14 -31.5 -36t-11.5 -48q0 -23 9.5 -45.5t23.5 -40.5zM347 357q-32 -11 -67 -32t-56 -44t-33.5 -54t-12.5 -65q0 -55 42 -86q23 -17 49.5 -22t46.5 -5q16 0 38 2.5t47.5 10.5t54 22.5t56.5 38.5z" />
    <glyph glyph-name="quotesingle" unicode="'" horiz-adv-x="195" 
d="M287 700l-57 -173h-51l13 173h95z" />
    <glyph glyph-name="parenleft" unicode="(" horiz-adv-x="360" 
d="M226 -140q-37 78 -59 163.5t-22 175.5q0 79 20.5 152t56 142.5t82.5 136t101 132.5h60q-49 -59 -94.5 -125.5t-80 -139t-55 -150.5t-20.5 -160t16.5 -164t44.5 -163h-50v0z" />
    <glyph glyph-name="parenright" unicode=")" horiz-adv-x="360" 
d="M15 -140q45 60 89.5 125t80 135.5t57.5 146.5t22 156q0 86 -21 171.5t-53 167.5h60q33 -81 59 -168t26 -179q0 -79 -22.5 -153.5t-59.5 -143.5t-84.5 -133.5t-97.5 -124.5h-56v0z" />
    <glyph glyph-name="asterisk" unicode="*" horiz-adv-x="570" 
d="M219 355l136 133l-155 40l35 65l144 -60l27 167h67l-45 -167l166 58l6 -63l-168 -40l76 -132l-62 -36l-60 141l-123 -141z" />
    <glyph glyph-name="plus" unicode="+" 
d="M322 322h-222v56h222v222h56v-222h222v-56h-222v-222h-56v222z" />
    <glyph glyph-name="comma" unicode="," horiz-adv-x="313" 
d="M246 89l-118 -218h-69l99 218h88z" />
    <glyph glyph-name="hyphen" unicode="-" horiz-adv-x="400" 
d="M152 328h248l-12 -56h-248z" />
    <glyph glyph-name="period" unicode="." horiz-adv-x="282" 
d="M199 86l-17 -86h-82l17 86h82z" />
    <glyph glyph-name="slash" unicode="/" horiz-adv-x="360" 
d="M426 700h64l-406 -700h-64z" />
    <glyph glyph-name="zero" unicode="0" 
d="M277 -8q-39 0 -72 11.5t-56 37t-36 65.5t-13 96q0 62 18 148q21 97 50 165t68 111t87 62.5t106 19.5q39 0 72 -11.5t56 -37t36 -65.5t13 -96q0 -63 -18 -148q-21 -97 -50 -165t-68 -111t-87 -62.5t-106 -19.5zM290 52q36 0 69.5 14.5t63.5 49t54.5 92t42.5 142.5t18 144
q0 43 -9 72.5t-24.5 47.5t-38 26t-49.5 8q-36 0 -69.5 -14.5t-63.5 -49t-55 -92t-43 -142.5q-18 -86 -18 -142q0 -44 9 -73.5t25 -48t38.5 -26.5t49.5 -8z" />
    <glyph glyph-name="one" unicode="1" 
d="M411 623l-184 -126l-27 46l231 157h61l-142 -700h-66z" />
    <glyph glyph-name="two" unicode="2" 
d="M72 60q124 96 209.5 164t138 121.5t75.5 99.5t23 100q0 48 -31.5 75.5t-94.5 27.5q-53 0 -98 -13.5t-82 -33.5l14 66q54 23 98.5 32t79.5 9q94 0 140 -39t46 -108q0 -68 -30.5 -127t-86.5 -117.5t-135 -120.5t-176 -135v-1h345l-12 -60h-435z" />
    <glyph glyph-name="three" unicode="3" 
d="M230 392h102q32 0 64.5 11t58.5 31.5t42.5 49.5t16.5 65q0 45 -32.5 73.5t-98.5 28.5q-60 0 -105.5 -12t-71.5 -23l7 61q43 16 88.5 23.5t90.5 7.5q40 0 75 -9.5t60.5 -28t40 -46.5t14.5 -64t-13 -67.5t-35.5 -56t-53.5 -42.5t-66 -28v-3q24 -4 44 -15t34 -26
q20 -21 26 -46t6 -45q0 -58 -23 -102.5t-63 -75t-94.5 -46t-118.5 -15.5q-45 0 -86.5 7t-86.5 25l22 61q42 -21 79.5 -28.5t72.5 -7.5q42 0 83 10t73 32t51.5 55t19.5 80q0 56 -37.5 82.5t-94.5 26.5h-103z" />
    <glyph glyph-name="four" unicode="4" 
d="M570 700l-96 -476h107l-12 -57h-107l-34 -167h-66l34 167h-346l12 60l414 473h94zM480 578l14 62h-3l-44 -57l-275 -315l-40 -43v-2l54 1h222z" />
    <glyph glyph-name="five" unicode="5" 
d="M235 -8q-45 0 -83.5 7t-66.5 19l14 66q27 -14 65 -23t83 -9q51 0 92.5 15.5t71 42.5t45.5 63t16 77q0 53 -37 86.5t-111 33.5q-45 0 -84.5 -7t-75.5 -19l95 356h356l-13 -60h-293l-59 -220q37 10 97 10q96 0 146.5 -48.5t50.5 -131.5q0 -52 -21.5 -98.5t-62 -82
t-97.5 -56.5t-128 -21z" />
    <glyph glyph-name="six" unicode="6" 
d="M605 634q-32 11 -58.5 14t-54.5 3q-57 0 -99 -14t-84 -50q-50 -44 -76 -102.5t-40 -119.5l-5 -22h1q17 23 38 41.5t50 32.5q23 11 48 18t52 7q40 0 76 -12t61 -38q22 -23 34 -55.5t12 -70.5q0 -60 -24.5 -114.5t-63.5 -92.5q-40 -38 -85 -52.5t-99 -14.5q-29 0 -61.5 7.5
t-63.5 34.5q-38 35 -50.5 77.5t-12.5 81.5q0 28 3.5 62t10.5 69t16.5 69.5t21.5 64.5q20 51 53 103t92 93q45 30 93.5 42t103.5 12q34 0 67 -4.5t62 -10.5zM171 173q0 -26 8.5 -49t28.5 -43q21 -20 44 -26t42 -6q45 0 84.5 20t65.5 55q22 29 33.5 67.5t11.5 70.5t-10.5 53.5
t-21.5 33.5q-35 36 -94 36q-11 0 -29.5 -2.5t-40 -11.5t-44 -26t-41.5 -47q-37 -58 -37 -125z" />
    <glyph glyph-name="seven" unicode="7" 
d="M536 643h-360l11 57h430l-12 -60l-403 -640h-75z" />
    <glyph glyph-name="eight" unicode="8" 
d="M290 364q-21 9 -44.5 25.5t-38.5 37.5q-14 19 -21 42t-7 44q0 34 16.5 74t60.5 72q40 29 82 39t81 10q34 0 72 -7t68 -33q24 -20 35 -47t11 -54q0 -29 -12 -61.5t-44 -65.5q-25 -26 -59 -46.5t-67 -33.5v-1q22 -8 44.5 -20t38.5 -24q29 -23 41 -49.5t12 -62.5
q0 -33 -13.5 -67t-46.5 -67q-42 -42 -93 -59.5t-114 -17.5q-34 0 -72.5 7.5t-73.5 30.5q-40 26 -53 59t-13 62q0 38 19 77t68 75q28 20 60.5 35t62.5 23v3zM422 651q-12 0 -28.5 -1.5t-34 -6t-35.5 -13.5t-33 -24q-19 -19 -30 -44.5t-11 -55.5q0 -11 3 -25t15 -30
t35.5 -32.5t64.5 -33.5q16 7 35 17t37 21.5t33.5 24t25.5 24.5q16 18 25.5 41.5t9.5 49.5q0 23 -8 38t-20 26q-19 16 -41.5 20t-42.5 4zM338 331q-27 -8 -57 -21t-57 -31q-9 -6 -21 -15.5t-23.5 -24.5t-19.5 -35t-8 -46q0 -19 6.5 -38t25.5 -36q17 -14 44.5 -24.5
t69.5 -10.5q40 0 70 9.5t53 24.5q34 23 50.5 54t16.5 60q0 23 -9 41t-27 34q-10 9 -24 17.5t-29.5 16.5t-31.5 14.5t-29 10.5z" />
    <glyph glyph-name="nine" unicode="9" 
d="M88 66q28 -9 54 -13t56 -4q48 0 94 12t92 52q48 42 76.5 102.5t42.5 136.5h-3q-18 -25 -39.5 -42.5t-45.5 -29t-49.5 -17t-49.5 -5.5q-49 0 -82 14.5t-54 36.5q-19 20 -33 48.5t-14 73.5q0 63 24.5 118t63.5 92q34 32 78 49.5t101 17.5q90 0 141.5 -50.5t51.5 -150.5
q0 -51 -8.5 -101.5t-20.5 -93.5q-14 -51 -35 -99.5t-53 -90.5q-24 -32 -58.5 -60.5t-76.5 -45.5q-34 -14 -73.5 -19t-72.5 -5q-32 0 -65 4.5t-60 10.5zM522 524q0 26 -7.5 51t-30.5 45t-46 25.5t-41 5.5q-39 0 -73 -16t-57 -39q-30 -30 -46.5 -73t-16.5 -85q0 -29 8.5 -51.5
t22.5 -36.5q14 -15 37.5 -25t53.5 -10q17 0 37.5 3.5t42 13.5t42 27t37.5 43q17 25 27 56t10 66z" />
    <glyph glyph-name="colon" unicode=":" horiz-adv-x="282" 
d="M199 86l-17 -86h-82l17 86h82zM286 513l-17 -86h-82l17 86h82z" />
    <glyph glyph-name="semicolon" unicode=";" horiz-adv-x="313" 
d="M318 513l-17 -86h-82l17 86h82zM246 89l-118 -218h-69l99 218h88z" />
    <glyph glyph-name="less" unicode="&#x3c;" 
d="M70 320v60l500 225v-61l-433 -193l433 -193v-63z" />
    <glyph glyph-name="equal" unicode="=" 
d="M100 279h500v-56h-500v56zM100 478h500v-56h-500v56z" />
    <glyph glyph-name="greater" unicode="&#x3e;" 
d="M120 156l433 193l-433 193v63l500 -225v-60l-500 -225v61z" />
    <glyph glyph-name="question" unicode="?" horiz-adv-x="442" 
d="M185 687q30 10 62.5 15.5t69.5 5.5q12 0 28.5 -1t35 -5t37.5 -11.5t36 -20.5q18 -15 33 -40t15 -67q0 -28 -8.5 -53t-25.5 -51q-27 -42 -63 -74t-71 -64q-27 -24 -50.5 -51.5t-31.5 -64.5l-6 -30h-57l6 30q10 51 42 88.5t70 72.5q30 27 55.5 52.5t44.5 57.5q24 42 24 79
q0 29 -11 47t-24 27q-19 14 -43.5 18t-44.5 4q-38 0 -71 -6.5t-65 -19.5zM246 86l-17 -86h-82l17 86h82z" />
    <glyph glyph-name="at" unicode="@" horiz-adv-x="850" 
d="M695 -105q-11 -6 -28 -11t-38.5 -9.5t-45.5 -7t-48 -2.5q-94 0 -169.5 29t-129 81.5t-82.5 127t-29 166.5q0 88 29 162t81 127t122.5 82.5t153.5 29.5q81 0 148 -26t115 -70.5t74.5 -104.5t26.5 -129q0 -73 -19 -125t-48.5 -85t-65 -48.5t-67.5 -15.5q-49 0 -70 20
t-25 54q-17 -30 -52 -52t-78 -22q-32 0 -59.5 12t-47.5 34.5t-31.5 54.5t-11.5 73q0 50 15.5 91.5t42.5 71t62.5 45.5t74.5 16q45 0 75 -20t46 -54h2l12 68h60l-39 -220q-5 -25 -8.5 -47.5t-3.5 -30.5q0 -17 8 -25.5t28 -8.5q26 0 50.5 12.5t43 39t30 66.5t11.5 96
q0 57 -21.5 106.5t-60.5 85.5t-94.5 57t-123.5 21q-69 0 -128 -24.5t-101.5 -69t-66.5 -107.5t-24 -140q0 -80 23.5 -144t68 -108.5t108.5 -68t145 -23.5q49 0 91.5 10t68.5 24v-64zM465 126q59 0 94.5 48t35.5 131q0 45 -25.5 72t-74.5 27q-26 0 -49.5 -11t-41.5 -32
t-28.5 -51.5t-10.5 -69.5q0 -56 27.5 -85t72.5 -29z" />
    <glyph glyph-name="A" unicode="A" horiz-adv-x="650" 
d="M427 700h86l122 -700h-72l-33 192h-329l-113 -192h-73zM520 249l-62 385h-2l-221 -385h285z" />
    <glyph glyph-name="B" unicode="B" horiz-adv-x="579" 
d="M418 700q16 0 35.5 -1t39.5 -6t39 -15t35 -27q14 -14 24 -38.5t10 -59.5q0 -26 -6.5 -49.5t-17.5 -43.5q-17 -29 -51.5 -56.5t-85.5 -38.5v-2q32 -6 52.5 -21t31.5 -29q11 -15 20.5 -38t9.5 -56q0 -57 -26 -101t-63 -70q-45 -32 -93 -40t-86 -8h-120h-66l142 700h66h110z
M245 390h112q21 0 47 5.5t53 22.5q13 9 26.5 23t23.5 31t16.5 37.5t6.5 42.5q0 42 -30 66q-12 10 -33.5 17.5t-55.5 7.5h-114zM178 57h106q35 0 74.5 7.5t73.5 37.5q22 20 36.5 49.5t14.5 68.5q0 20 -5.5 40.5t-22.5 37.5q-23 23 -53.5 29t-54.5 6h-113z" />
    <glyph glyph-name="C" unicode="C" horiz-adv-x="613" 
d="M591 19q-39 -13 -81.5 -20t-90.5 -7q-59 0 -116.5 15.5t-103.5 61.5q-32 32 -54.5 85t-22.5 128t25.5 146t70.5 128q38 47 80.5 76.5t87 46.5t88.5 23t84 6t77.5 -5.5t79.5 -20.5l-18 -60q-35 14 -71.5 21.5t-68.5 7.5q-64 0 -133 -26.5t-123 -80.5q-46 -48 -77 -117
t-31 -150q0 -35 6.5 -62.5t16.5 -48.5t21.5 -35.5t21.5 -24.5q20 -19 43 -30.5t45.5 -17.5t42.5 -7.5t34 -1.5q32 0 61 4t53 9.5t41 11t25 8.5z" />
    <glyph glyph-name="D" unicode="D" horiz-adv-x="692" 
d="M413 700q24 0 51.5 -1.5t56.5 -7t56.5 -16t51.5 -29.5q27 -21 43.5 -46t26 -52t13 -54.5t3.5 -52.5q0 -93 -30 -174.5t-84 -139.5q-39 -41 -82 -66t-86.5 -38.5t-85 -18t-76.5 -4.5h-105h-66l142 700h66h105zM178 57h98q10 0 34 1.5t55 8.5t67 22t71 41.5t66 67t52 99.5
q12 33 17.5 66t5.5 65q0 50 -14 91.5t-40 67.5q-20 20 -43.5 31.5t-49 17t-51.5 6.5t-51 1h-98z" />
    <glyph glyph-name="E" unicode="E" horiz-adv-x="509" 
d="M582 700l-11 -57h-274l-52 -253h261l-11 -57h-261l-56 -276h293l-12 -57h-292h-67l142 700h66h274z" />
    <glyph glyph-name="F" unicode="F" horiz-adv-x="475" 
d="M577 700l-11 -57h-269l-52 -253h254l-11 -57h-254l-68 -333h-66l142 700h66h269z" />
    <glyph glyph-name="G" unicode="G" horiz-adv-x="716" 
d="M726 608q-39 20 -81.5 31.5t-87.5 11.5q-73 0 -143 -30t-125 -93q-48 -54 -72.5 -121t-24.5 -130q0 -45 15.5 -88t45.5 -74q32 -32 82.5 -49t110.5 -17q34 0 69 5.5t70 18.5l48 236h-170l11 57h236l-68 -335q-51 -19 -104 -29t-107 -10q-64 0 -120.5 16t-95.5 51
q-38 33 -66 89.5t-28 132.5q0 86 37 173t113 153q66 57 134 79t149 22q54 0 100 -9t94 -29z" />
    <glyph glyph-name="H" unicode="H" horiz-adv-x="696" 
d="M308 700l-62 -309h364l62 309h66l-142 -700h-66l68 334h-364l-68 -334h-66l142 700h66z" />
    <glyph glyph-name="I" unicode="I" horiz-adv-x="266" 
d="M308 700l-142 -700h-66l142 700h66z" />
    <glyph glyph-name="J" unicode="J" horiz-adv-x="351" 
d="M393 700l-108 -532q-3 -14 -8 -33t-14 -38.5t-23 -38.5t-35 -34q-23 -17 -53 -25t-62 -8q-34 0 -75 11l18 58q30 -11 61 -11q23 0 46 8.5t41 28.5t26.5 42.5t13.5 46.5l106 525h66z" />
    <glyph glyph-name="K" unicode="K" horiz-adv-x="591" 
d="M308 700l-65 -323h1l378 323h86l-399 -337l297 -363h-87l-267 335l-13 19l-1 -1l-72 -353h-66l142 700h66z" />
    <glyph glyph-name="L" unicode="L" horiz-adv-x="472" 
d="M308 700l-130 -643h286l-12 -57h-286h-66l142 700h66z" />
    <glyph glyph-name="M" unicode="M" horiz-adv-x="814" 
d="M242 700h104l116 -435l291 435h103l-142 -700h-66l130 640h-2l-296 -440h-66l-116 440h-2l-130 -640h-66z" />
    <glyph glyph-name="N" unicode="N" horiz-adv-x="723" 
d="M304 700h23l226 -566l18 -64h2l126 630h66l-142 -700h-61h-24l-223 555l-22 75h-3l-12 -81l-112 -549h-66l142 700h62z" />
    <glyph glyph-name="O" unicode="O" horiz-adv-x="748" 
d="M378 -8q-23 0 -48.5 3t-52 12t-51.5 25t-47 43q-20 24 -32 50t-18 51t-8 48.5t-2 42.5q0 88 30 172.5t90 150.5q34 36 70 59t71.5 36t69 18t63.5 5q66 0 114.5 -19.5t80.5 -55.5t47.5 -86.5t15.5 -112.5q0 -108 -34 -187.5t-83 -133.5q-54 -58 -121 -89.5t-155 -31.5z
M190 257q0 -31 8 -70.5t34 -71.5q8 -11 21 -22.5t31.5 -21t43 -16t54.5 -6.5q70 0 137 37.5t113 107.5q33 51 50.5 115.5t17.5 134.5q0 32 -7.5 69.5t-34.5 71.5q-9 11 -22 22.5t-31.5 21.5t-42.5 16t-54 6q-66 0 -132 -35t-117 -110q-5 -7 -16.5 -27.5t-23 -53t-20.5 -75
t-9 -93.5z" />
    <glyph glyph-name="P" unicode="P" horiz-adv-x="532" 
d="M242 700h158q101 0 147.5 -42.5t46.5 -117.5q0 -60 -18.5 -108t-53.5 -82t-86 -52t-117 -18h-96l-57 -280h-66zM326 337q98 0 149 51.5t51 151.5q0 48 -32 75.5t-105 27.5h-92l-63 -306h92z" />
    <glyph glyph-name="Q" unicode="Q" horiz-adv-x="748" 
d="M443 -3q-18 -3 -35 -4t-33 -1q-72 0 -119.5 24t-76.5 59q-20 24 -32 50t-18 51t-8 48.5t-2 42.5q0 88 30 172.5t90 150.5q58 63 130 90.5t142 27.5q29 0 57 -4t53 -14q52 -20 82 -53.5t45 -70.5t19 -72.5t4 -59.5q0 -73 -15 -130.5t-39 -102t-53 -76t-57 -53.5
t-51.5 -34.5t-36.5 -18.5l131 -149h-92zM190 257q0 -31 8 -70.5t34 -71.5q8 -11 21 -22.5t31.5 -21t43 -16t54.5 -6.5q72 0 138 37.5t112 107.5q40 60 54 123t14 120q0 35 -5 69t-26 66q-20 30 -59.5 54.5t-101.5 24.5q-66 0 -132 -35t-117 -110q-33 -51 -51 -115.5
t-18 -133.5z" />
    <glyph glyph-name="R" unicode="R" horiz-adv-x="603" 
d="M242 700h158q101 0 147.5 -42.5t46.5 -117.5q0 -60 -18.5 -108t-53.5 -82q-32 -31 -76 -48l94 -302h-78l-80 284q-30 -4 -63 -4h-96l-57 -280h-66zM326 337q98 0 149 51.5t51 151.5q0 48 -32 75.5t-105 27.5h-92l-63 -306h92z" />
    <glyph glyph-name="S" unicode="S" horiz-adv-x="496" 
d="M75 88q34 -17 73.5 -28t77.5 -11q35 0 72.5 11t65.5 34q24 20 40 49.5t16 61.5q0 43 -36 76q-9 8 -28.5 21.5t-64.5 39.5q-23 13 -46.5 27.5t-46.5 40.5q-19 20 -30 42t-11 54q0 46 22.5 90t64.5 72q20 13 41.5 21t43.5 12t42.5 5.5t38.5 1.5q38 0 75 -5.5t77 -19.5
l-22 -62q-34 16 -67 23t-70 7q-52 0 -83.5 -12.5t-48.5 -27.5q-18 -17 -30.5 -42t-12.5 -54q0 -19 6.5 -35t22.5 -31q4 -4 10 -8.5t16 -11.5t25.5 -17t38.5 -24q29 -17 58 -36t50 -43q20 -23 28 -47t8 -50q0 -52 -26 -96.5t-62 -71.5q-24 -18 -49.5 -28t-50 -15.5t-47 -7
t-38.5 -1.5q-48 0 -86.5 8t-76.5 23z" />
    <glyph glyph-name="T" unicode="T" horiz-adv-x="516" 
d="M643 700l-11 -57h-210l-131 -643h-66l131 643h-210l11 57h210h66h210z" />
    <glyph glyph-name="U" unicode="U" horiz-adv-x="717" 
d="M219 235q-6 -29 -6 -54q0 -26 8 -49t28 -43q23 -21 55.5 -30.5t67.5 -9.5q42 0 75.5 11.5t59.5 29.5q42 29 62.5 64.5t29.5 80.5l94 465h66l-95 -467q-13 -61 -39.5 -109t-84.5 -85q-45 -28 -87.5 -37.5t-88.5 -9.5q-36 0 -77.5 8.5t-78.5 40.5q-61 52 -61 141q0 12 1 25
t4 26l95 467h66z" />
    <glyph glyph-name="V" unicode="V" horiz-adv-x="651" 
d="M232 700l106 -556l5 -81h2l41 81l318 556h69l-402 -700h-74l-135 700h70z" />
    <glyph glyph-name="W" unicode="W" horiz-adv-x="967" 
d="M1089 700l-338 -700h-83l-56 532l-5 78h-3l-285 -610h-83l-74 700h69l52 -566l3 -77h2l26 78l272 565h77l52 -566l3 -77h2l31 78l272 565h66z" />
    <glyph glyph-name="X" unicode="X" horiz-adv-x="635" 
d="M254 700l129 -253l14 -33h2l24 33l227 253h82l-301 -329l187 -371h-79l-129 257l-29 67h-2l-51 -70l-226 -254h-82l328 371l-176 329h82z" />
    <glyph glyph-name="Y" unicode="Y" horiz-adv-x="619" 
d="M227 700l132 -310l16 -41l293 351h83l-354 -408l-59 -292h-66l59 292l-179 408h75z" />
    <glyph glyph-name="Z" unicode="Z" horiz-adv-x="562" 
d="M639 700l-13 -67l-489 -575v-2l387 1l-12 -57h-462l13 62l496 581h-370l11 57h439z" />
    <glyph glyph-name="bracketleft" unicode="[" horiz-adv-x="360" 
d="M274 762h186l-11 -57h-116l-161 -788h116l-12 -57h-186z" />
    <glyph glyph-name="backslash" unicode="\" horiz-adv-x="360" 
d="M150 700h60l130 -700h-60z" />
    <glyph glyph-name="bracketright" unicode="]" horiz-adv-x="360" 
d="M42 -83h117l160 788h-117l11 57h187l-183 -902h-187z" />
    <glyph glyph-name="asciicircum" unicode="^" 
d="M173 350h-73l289 350h70l141 -350h-67l-118 295z" />
    <glyph glyph-name="underscore" unicode="_" horiz-adv-x="500" 
d="M0 -76h500v-48h-500v48z" />
    <glyph glyph-name="grave" unicode="`" horiz-adv-x="340" 
d="M387 610h-48l-105 130h91z" />
    <glyph glyph-name="a" unicode="a" horiz-adv-x="566" 
d="M256 -8q-77 0 -122 48t-45 142q0 78 22.5 141t59.5 107t85.5 67.5t99.5 23.5q58 0 92 -25t57 -75l18 89h63l-104 -510h-55l21 106h-3q-30 -48 -79 -81t-110 -33zM264 45q39 0 77 20t68 56t49 87t19 113q0 73 -33.5 110t-85.5 37q-35 0 -71.5 -20t-66 -57.5t-48 -91
t-18.5 -120.5q0 -71 28.5 -102.5t81.5 -31.5z" />
    <glyph glyph-name="b" unicode="b" horiz-adv-x="567" 
d="M302 762l-69 -341q29 43 72 71.5t106 28.5q51 0 82.5 -18.5t48.5 -40.5q25 -33 32.5 -71.5t7.5 -66.5q0 -67 -21.5 -132t-63.5 -113q-45 -51 -91.5 -69t-91.5 -18q-8 0 -28.5 2.5t-44 13.5t-45 34t-31.5 64h-3l-23 -106h-59l24 99l135 663h63zM193 192q0 -42 11 -68
t23 -40q11 -14 32 -26.5t53 -12.5q33 0 74.5 20.5t76.5 73.5q28 43 40.5 93t12.5 93q0 16 -5 44t-22 53q-17 24 -42 35t-51 11q-40 0 -78 -23t-66 -61q-26 -36 -42.5 -87t-16.5 -105z" />
    <glyph glyph-name="c" unicode="c" horiz-adv-x="464" 
d="M518 445q-29 13 -57 18t-54 5q-54 0 -95.5 -19t-75.5 -55q-35 -38 -55.5 -89t-20.5 -106q0 -33 9 -60.5t32 -49.5q14 -14 43.5 -29t80.5 -15q31 0 61 6t55 15l-5 -54q-28 -10 -56 -15t-63 -5q-23 0 -47.5 3t-49 12t-47.5 25t-42 42q-14 20 -25.5 50t-11.5 78q0 69 26 129
t69 103q48 49 103 68t115 19q38 0 68.5 -6t56.5 -14z" />
    <glyph glyph-name="d" unicode="d" horiz-adv-x="566" 
d="M637 762l-135 -663l-16 -99h-59l21 106h-3q-13 -20 -33 -42.5t-51 -41.5q-23 -14 -48 -22t-57 -8q-45 0 -74 14t-44 29q-20 20 -34.5 55t-14.5 92q0 67 18.5 129.5t60.5 113.5q76 96 188 96q28 0 54.5 -7.5t49.5 -27.5q31 -30 45 -65l69 341h63zM477 321q0 8 -1 20.5
t-3.5 26t-7.5 27.5t-13 26q-17 23 -42 35t-52 12q-37 0 -77.5 -22t-73.5 -73q-29 -45 -41 -95.5t-12 -98.5q0 -36 6.5 -57t14.5 -33q12 -18 33 -31t56 -13q12 0 31.5 3t43 14t48 32.5t46.5 58.5q21 36 32.5 78t11.5 90z" />
    <glyph glyph-name="e" unicode="e" horiz-adv-x="509" 
d="M284 -8q-94 0 -147 52.5t-53 145.5q0 76 22.5 137.5t62.5 104.5t95 66t120 23q32 0 59.5 -8.5t48 -24.5t32 -38.5t11.5 -49.5q0 -42 -18 -76.5t-62 -58.5t-118 -38t-187 -16v-18q0 -72 37 -110t112 -38q31 0 69.5 6.5t77.5 26.5l-12 -58q-35 -14 -69.5 -21t-80.5 -7z
M369 468q-38 0 -72.5 -13.5t-63 -40t-48.5 -64.5t-29 -86q86 1 146.5 9.5t98.5 25.5t55 42t17 59q0 29 -25.5 48.5t-78.5 19.5z" />
    <glyph glyph-name="f" unicode="f" horiz-adv-x="365" 
d="M237 460h-107l10 53h107l22 105q3 14 8 32t13 35q6 11 14.5 23t21.5 23q26 22 54.5 28t49.5 6q33 0 60 -10l-11 -52q-12 4 -26 6.5t-25 2.5q-17 0 -33 -5t-29 -16q-15 -14 -22 -32.5t-11 -35.5l-23 -110h121l-10 -53h-121l-94 -460h-63z" />
    <glyph glyph-name="g" unicode="g" horiz-adv-x="568" 
d="M568 414l-84 -413q-4 -18 -10 -39.5t-16 -43.5t-25 -43t-37 -39q-35 -29 -87 -44.5t-115 -15.5q-36 0 -70 6.5t-71 21.5l18 61q38 -21 73 -28.5t61 -7.5q51 0 93 16.5t68 42.5q20 21 34 52.5t22 66.5l18 85q-11 -16 -29 -34.5t-33 -29.5q-18 -14 -47 -25t-71 -11
q-33 0 -64.5 10t-57.5 38q-6 7 -14.5 19t-16 30.5t-13 44t-5.5 60.5q0 69 22 131t60 107q27 31 55 49t53.5 27t46.5 11t34 2q7 0 27 -2.5t43 -13.5t45 -34t33 -64h3l22 106h59zM480 319q0 66 -30.5 107.5t-87.5 41.5q-38 0 -79.5 -20t-75.5 -71q-24 -36 -38 -83t-14 -99
q0 -7 0.5 -20t3.5 -29t9 -32.5t16 -29.5q19 -26 42 -32.5t40 -6.5q14 0 34.5 3t44 14.5t47.5 33t45 58.5q22 39 32.5 82.5t10.5 82.5z" />
    <glyph glyph-name="h" unicode="h" horiz-adv-x="562" 
d="M298 762l-49 -243l-28 -112h2q14 23 34.5 44.5t44.5 37.5q29 18 57 25t54 7q32 0 58 -9.5t44 -25.5q14 -12 28 -36t14 -64q0 -11 -2 -26t-7 -41l-65 -319h-63l64 316l6 34t3 34q0 18 -5.5 34t-20.5 29q-16 14 -35.5 17.5t-33.5 3.5q-35 0 -63 -11t-57 -35
q-33 -29 -50 -60t-24 -63l-61 -299h-63l155 762h63z" />
    <glyph glyph-name="i" unicode="i" horiz-adv-x="229" 
d="M247 513l-104 -513h-63l104 513h63zM292 720l-16 -80h-69l16 80h69z" />
    <glyph glyph-name="j" unicode="j" horiz-adv-x="223" 
d="M128 -74q-8 -35 -15.5 -55t-14.5 -31q-20 -32 -52 -45t-65 -13q-17 0 -31 2.5t-23 5.5l11 51q19 -6 44 -6q11 0 22 2t22 10q11 7 20.5 22.5t17.5 50.5l120 593h63zM292 720l-16 -80h-69l16 80h69z" />
    <glyph glyph-name="k" unicode="k" horiz-adv-x="480" 
d="M298 762l-97 -475h5l275 226h85l-302 -241l218 -272h-82l-201 252h-5l-51 -252h-63l155 762h63z" />
    <glyph glyph-name="l" unicode="l" horiz-adv-x="223" 
d="M298 762l-155 -762h-63l155 762h63z" />
    <glyph glyph-name="m" unicode="m" horiz-adv-x="854" 
d="M168 416l16 97h62l-20 -100h2q17 28 36.5 47t38.5 31q25 17 49 23.5t50 6.5t49.5 -6.5t43.5 -26.5q20 -19 26.5 -38.5t6.5 -36.5h2q14 21 33 41.5t48 37.5q27 17 52 23t54 6q23 0 49.5 -6t49.5 -26q22 -20 29.5 -44.5t7.5 -47.5q0 -16 -2.5 -30t-4.5 -25l-70 -342h-63
l69 339q3 12 5.5 24.5t2.5 25.5q0 10 -2 19.5t-7 18.5q-6 13 -23.5 27t-52.5 14q-29 0 -59 -10.5t-56 -33.5q-31 -27 -46 -58.5t-22 -66.5l-61 -299h-63l69 339q3 11 5 22t2 22q0 19 -9 40q-11 25 -32.5 35t-45.5 10q-25 0 -54 -11t-58 -37q-32 -30 -47.5 -62t-20.5 -59
l-61 -299h-63z" />
    <glyph glyph-name="n" unicode="n" horiz-adv-x="564" 
d="M83 0l80 395l21 118h56l-21 -106h2q14 23 33.5 44t42.5 36q27 18 54.5 26t61.5 8q30 0 56 -7t49 -27t32 -45t9 -54q0 -32 -8 -69l-65 -319h-63l64 316q3 12 5 26.5t2 29.5q0 24 -7 44q-3 8 -9.5 17.5t-17 17t-26 12.5t-37.5 5q-33 0 -61 -11t-53 -32q-22 -18 -44.5 -49.5
t-31.5 -76.5l-61 -299h-63z" />
    <glyph glyph-name="o" unicode="o" horiz-adv-x="561" 
d="M91 196q0 63 23.5 126.5t68.5 112.5q78 86 200 86q15 0 33 -2t36.5 -7.5t36.5 -16t34 -27.5q18 -18 28 -38.5t15.5 -41.5t7 -40t1.5 -33q0 -51 -13 -100.5t-47 -100.5q-45 -66 -104 -94t-131 -28q-32 0 -69.5 10.5t-69.5 45.5q-6 7 -14.5 19t-16.5 30t-13.5 42.5
t-5.5 56.5zM157 192q0 -54 16.5 -83.5t38 -43.5t42 -17t28.5 -3q60 0 101 24.5t73 72.5q23 33 38 76.5t15 98.5q0 26 -5.5 53.5t-25.5 52.5q-36 45 -98 45q-17 0 -36 -3.5t-40 -12.5t-42 -25t-41 -41q-29 -38 -46.5 -87.5t-17.5 -106.5z" />
    <glyph glyph-name="p" unicode="p" horiz-adv-x="567" 
d="M39 -219l129 633l16 99h60l-21 -106h3q10 19 26 39t38.5 36.5t52 27.5t66.5 11q32 0 69 -11.5t67 -49.5q23 -32 30 -68t7 -64q0 -57 -15.5 -111t-45.5 -102q-23 -35 -49.5 -59t-54 -38t-55 -20t-51.5 -6q-30 0 -56 9.5t-45 25.5q-13 11 -24.5 28t-18.5 37h-3l-8 -49
l-54 -262h-63zM193 191q0 -69 32 -107.5t84 -38.5q16 0 36 4t41 15.5t42.5 32.5t40.5 54q24 42 35.5 87t11.5 85q0 23 -5.5 49.5t-22.5 49.5q-10 14 -32 30t-60 16q-40 0 -81 -23.5t-73 -74.5q-26 -42 -37.5 -89.5t-11.5 -89.5z" />
    <glyph glyph-name="q" unicode="q" horiz-adv-x="568" 
d="M568 414l-129 -633h-63l63 311q-42 -60 -87.5 -80t-90.5 -20q-43 0 -75 13.5t-56 45.5q-23 30 -31.5 66t-8.5 72q0 67 21.5 132t63.5 113q45 52 91.5 69.5t88.5 17.5q60 0 99 -30t53 -84h3l23 106h59zM479 321q0 24 -6.5 53t-27.5 55q-33 39 -85 39q-12 0 -29.5 -3
t-38 -12.5t-42 -28.5t-41.5 -50q-28 -45 -40.5 -93t-12.5 -93q0 -16 5 -44t22 -53q15 -20 38.5 -33t54.5 -13q42 0 79 23t64.5 61.5t43.5 88t16 103.5z" />
    <glyph glyph-name="r" unicode="r" horiz-adv-x="352" 
d="M84 0l85 419l15 94h60l-22 -110h1q10 23 28 48t38 42q18 14 39 21t44 7q27 0 54 -9l-12 -60q-28 11 -50 11q-33 0 -55.5 -14.5t-34.5 -26.5q-32 -31 -46.5 -64.5t-20.5 -62.5l-60 -295h-63z" />
    <glyph glyph-name="s" unicode="s" horiz-adv-x="419" 
d="M437 444q-30 14 -57.5 19t-58.5 5q-23 0 -43.5 -3.5t-41.5 -17.5q-9 -6 -23.5 -22t-14.5 -48q0 -30 21.5 -46.5t71.5 -38.5q25 -11 44 -22.5t33 -25.5q32 -35 32 -84q0 -29 -13 -62t-51 -62q-33 -26 -71 -35t-78 -9q-35 0 -68 6t-66 20l16 57q32 -16 64 -23t61 -7
q24 0 53 7t54 30q20 20 26.5 40.5t6.5 37.5q0 10 -2.5 19.5t-9.5 19.5q-11 16 -30.5 25.5t-36.5 17.5q-35 16 -53 26t-28 18q-26 21 -34 44.5t-8 40.5q0 31 17 65t48 54q27 18 61.5 24.5t64.5 6.5q37 0 68 -6.5t61 -20.5z" />
    <glyph glyph-name="t" unicode="t" horiz-adv-x="352" 
d="M323 664l-31 -151h122l-10 -53h-122l-64 -315q-3 -13 -6 -27.5t-3 -27.5q0 -11 2.5 -20t9.5 -14q9 -8 24 -9.5t23 -1.5q29 0 56 11l-10 -53q-18 -6 -35 -8.5t-34 -2.5q-20 0 -41 4.5t-38 21.5q-13 13 -17 28.5t-4 30.5q0 7 1.5 21t7.5 43l65 319h-105l10 53h105l26 128z
" />
    <glyph glyph-name="u" unicode="u" horiz-adv-x="556" 
d="M245 513l-65 -320q-2 -11 -4.5 -24t-2.5 -33q0 -6 0.5 -14.5t2.5 -18t6.5 -19t13.5 -17.5q11 -10 28 -16t40 -6q68 0 118 47q7 6 17 17t20.5 26.5t19.5 35.5t14 45l60 297h63l-80 -396l-20 -117h-59l21 102h-1q-29 -46 -67 -72q-17 -13 -47 -25.5t-75 -12.5
q-26 0 -49.5 6.5t-44.5 24.5q-26 22 -35 50t-9 60q0 20 2.5 36t6.5 33l63 311h63z" />
    <glyph glyph-name="v" unicode="v" horiz-adv-x="465" 
d="M188 513l53 -419l2 -40h3l18 40l219 419h66l-277 -513h-75l-73 513h64z" />
    <glyph glyph-name="w" unicode="w" horiz-adv-x="791" 
d="M187 513l35 -391l2 -69h3l30 69l202 391h79l44 -391l2 -69h3l30 69l193 391h65l-258 -513h-79l-46 412l-1 48h-3l-21 -48l-214 -412h-79l-50 513h63z" />
    <glyph glyph-name="x" unicode="x" horiz-adv-x="492" 
d="M221 513l68 -149l18 -48h1l155 197h75l-202 -242l127 -271h-78l-77 185l-16 46h-1l-35 -46l-152 -185h-74l231 277l-116 236h76z" />
    <glyph glyph-name="y" unicode="y" horiz-adv-x="494" 
d="M35 -155q8 -2 23.5 -5.5t23.5 -3.5q18 0 32 7t25 18.5t20 26t17 28.5l36 67l-78 530h65l56 -392l5 -51l3 1l236 442h69l-347 -629q-25 -46 -57 -75t-85 -29q-14 0 -30.5 2.5t-30.5 6.5z" />
    <glyph glyph-name="z" unicode="z" horiz-adv-x="476" 
d="M532 513l-12 -60l-333 -351l-50 -49h315l-11 -53h-385l11 52l336 356l52 52h-300l10 53h367z" />
    <glyph glyph-name="braceleft" unicode="{" horiz-adv-x="360" 
d="M276 -140q-148 0 -118 149l27 134q5 25 7.5 49t-3 44t-21.5 34t-48 19l9 43q34 4 55.5 18.5t35 34.5t21 44t12.5 49l28 133q31 151 179 151l-9 -45q-40 0 -66.5 -25t-37.5 -81l-28 -134q-8 -39 -19.5 -67t-28 -47.5t-39.5 -31.5t-53 -19l-1 -3q27 -8 45 -19.5t27 -31
t9 -47.5t-8 -67l-27 -135q-11 -56 5 -80t56 -24l-9 -45v0z" />
    <glyph glyph-name="bar" unicode="|" horiz-adv-x="360" 
d="M220 762h56v-902h-56v902z" />
    <glyph glyph-name="braceright" unicode="}" horiz-adv-x="360" 
d="M39 -95q40 0 66.5 24t37.5 80l27 135q8 39 20 67t28.5 47.5t39.5 31t53 19.5l1 3q-27 7 -45 19t-27 31.5t-9.5 47.5t7.5 67l28 135q11 56 -5.5 80.5t-56.5 24.5l9 45q75 0 104.5 -38t14.5 -112l-28 -134q-5 -25 -7.5 -49t3 -44t22 -34.5t48.5 -18.5l-9 -43
q-34 -5 -56 -19t-35.5 -34t-21 -44t-12.5 -49l-27 -134q-30 -149 -179 -149z" />
    <glyph glyph-name="asciitilde" unicode="~" 
d="M100 320q23 45 59 72.5t81 27.5q34 0 62.5 -12.5t55 -27.5t51.5 -27.5t51 -12.5q24 0 55.5 17.5t54.5 62.5l30 -40q-23 -45 -59 -72.5t-81 -27.5q-34 0 -62.5 12.5t-55 27.5t-51.5 27.5t-51 12.5t-56.5 -17.5t-53.5 -62.5z" />
    <glyph glyph-name="uni00A0" unicode="&#xa0;" horiz-adv-x="240" 
 />
    <glyph glyph-name="exclamdown" unicode="&#xa1;" horiz-adv-x="282" 
d="M232 306l-95 -525h-82l119 525h58zM198 481h82l-18 -86h-82z" />
    <glyph glyph-name="cent" unicode="&#xa2;" 
d="M300 -3q-37 4 -68.5 20t-54 41t-35 58.5t-12.5 72.5q0 59 20 114.5t56 100.5t87 75t113 38l19 93h44l-18 -91q61 0 114 -20l-12 -57q-29 13 -56.5 18.5t-54.5 5.5q-52 0 -97 -21t-78 -57t-51.5 -85t-18.5 -105q0 -74 44 -112.5t119 -38.5q58 0 121 23l-12 -58
q-33 -10 -65 -14t-61 -4l-19 -94h-44z" />
    <glyph glyph-name="sterling" unicode="&#xa3;" 
d="M162 401h103l17 84q10 48 32 88t51 67q25 24 68.5 46t111.5 22q27 0 53 -4t49 -11l-17 -59q-24 9 -47 13t-48 4q-42 0 -72.5 -10.5t-58.5 -39.5q-26 -26 -38 -56t-20 -68l-15 -76h168l-10 -49h-168l-60 -295h246l-12 -57h-415l12 57h103l60 295h-103z" />
    <glyph glyph-name="currency" unicode="&#xa4;" 
d="M100 140l58 58q-25 32 -39 70t-14 82q0 43 14 81.5t39 70.5l-58 58l40 40l58 -58q32 25 70 39t82 14q43 0 81.5 -14t70.5 -39l58 58l40 -40l-58 -58q25 -32 39 -70.5t14 -81.5q0 -44 -14 -82t-39 -70l58 -58l-40 -40l-58 58q-32 -25 -70.5 -39t-81.5 -14q-44 0 -82 14
t-70 39l-58 -58zM350 165q38 0 72 14.5t59 39.5t39.5 59t14.5 72t-14.5 72t-39.5 59t-59 39.5t-72 14.5t-72 -14.5t-59 -39.5t-39.5 -59t-14.5 -72t14.5 -72t39.5 -59t59 -39.5t72 -14.5z" />
    <glyph glyph-name="yen" unicode="&#xa5;" 
d="M207 700l145 -351l285 351h80l-265 -314h152l-12 -56h-188l-32 -38l-7 -37h212l-12 -56h-212l-40 -199h-66l40 199h-212l12 56h212l7 37l-16 38h-188l12 56h152l-139 314h80z" />
    <glyph glyph-name="brokenbar" unicode="&#xa6;" horiz-adv-x="360" 
d="M220 762h56v-360h-56v360zM220 -139v360h56v-360h-56z" />
    <glyph glyph-name="section" unicode="&#xa7;" horiz-adv-x="540" 
d="M526 306q0 -34 -11 -63t-30.5 -53t-46 -43.5t-57.5 -35.5q26 -18 37.5 -39t11.5 -48q0 -41 -17.5 -73t-46.5 -54t-67 -33.5t-80 -11.5q-20 0 -36 2t-30.5 6t-29.5 9.5t-33 12.5l13 65q17 -9 31 -16.5t28.5 -12t30.5 -7t37 -2.5q22 0 44.5 5.5t41 17.5t30.5 31t12 46
q0 10 -3.5 19.5t-14 20t-28.5 22t-46 24.5q-75 33 -108.5 69.5t-33.5 89.5q0 34 11 62.5t30.5 52.5t46 44t57.5 35q-26 19 -37.5 40t-11.5 48q0 41 17.5 73t46.5 54t67 33.5t80 11.5q20 0 36 -2t30.5 -6t29.5 -9.5t33 -12.5l-13 -65q-17 9 -31 16.5t-28.5 12t-30.5 7
t-37 2.5q-22 0 -44.5 -6t-41 -18t-30.5 -30.5t-12 -44.5q0 -20 17.5 -41t74.5 -46q75 -33 108.5 -69.5t33.5 -89.5zM325 417q-27 -9 -50.5 -23t-41 -33.5t-28 -44.5t-10.5 -56q0 -17 5.5 -30.5t19 -26.5t36 -26t55.5 -29l13 -6q26 9 49.5 23t41.5 33.5t29 44t11 55.5
q0 33 -24 60.5t-93 53.5z" />
    <glyph glyph-name="dieresis" unicode="&#xa8;" horiz-adv-x="418" 
d="M300 720l-17 -80h-69l17 80h69zM489 720l-17 -80h-69l17 80h69z" />
    <glyph glyph-name="copyright" unicode="&#xa9;" horiz-adv-x="900" 
d="M529 -19q-76 0 -143 29t-117.5 79.5t-79.5 117.5t-29 143t29 143t79.5 117.5t117.5 79.5t143 29t143 -29t117.5 -79.5t79.5 -117.5t29 -143t-29 -143t-79.5 -117.5t-117.5 -79.5t-143 -29zM529 31q67 0 125 25t101 68t68 101t25 125t-25 125t-68 101t-101 68t-125 25
t-125 -25t-101 -68t-68 -101t-25 -125t25 -125t68 -101t101 -68t125 -25zM550 133q-98 0 -155 58.5t-57 164.5q0 47 15.5 86t43 66.5t66.5 43t87 15.5q59 0 103 -16v-56q-17 6 -30 9.5t-24 5.5t-22.5 2.5t-26.5 0.5q-29 0 -55.5 -12t-46.5 -33t-32 -49.5t-12 -62.5
q0 -40 11 -71.5t30.5 -53t46 -33t58.5 -11.5q59 0 107 18v-56q-19 -6 -46 -11t-61 -5z" />
    <glyph glyph-name="ordfeminine" unicode="&#xaa;" horiz-adv-x="364" 
d="M218 688q23 9 48.5 14.5t47.5 5.5q19 0 36.5 -4.5t30.5 -14.5q16 -11 21.5 -26.5t5.5 -32.5q0 -20 -4 -37l-40 -198h-37l11 52h-1q-11 -13 -22 -23t-20 -15q-17 -11 -37 -15t-38 -4q-11 0 -28 3t-31 17q-13 12 -16.5 25.5t-3.5 24.5q0 32 14 55t42 40t61.5 22.5t81.5 5.5
h20l2 11q1 5 2.5 12t1.5 15t-2.5 16.5t-10.5 16.5q-9 11 -20.5 14.5t-25.5 3.5q-18 0 -33 -2.5t-24 -5.5q-21 -6 -40 -16zM318 547q-29 0 -54 -3.5t-44 -15.5q-9 -6 -22.5 -20t-13.5 -40q0 -6 1.5 -14t8.5 -15q5 -5 13.5 -9t24.5 -4q23 0 43.5 8t38.5 28q11 11 21 28.5
t13 34.5l4 22h-34z" />
    <glyph glyph-name="guillemotleft" unicode="&#xab;" horiz-adv-x="499" 
d="M271 93h-55l-98 207l171 207h60l-167 -207zM446 93h-55l-98 207l171 207h60l-167 -207z" />
    <glyph glyph-name="logicalnot" unicode="&#xac;" 
d="M100 378h500v-270h-60v214h-440v56z" />
    <glyph glyph-name="uni00AD" unicode="&#xad;" horiz-adv-x="400" 
d="M152 328h248l-12 -56h-248z" />
    <glyph glyph-name="registered" unicode="&#xae;" horiz-adv-x="900" 
d="M529 -19q-76 0 -143 29t-117.5 79.5t-79.5 117.5t-29 143t29 143t79.5 117.5t117.5 79.5t143 29t143 -29t117.5 -79.5t79.5 -117.5t29 -143t-29 -143t-79.5 -117.5t-117.5 -79.5t-143 -29zM529 31q67 0 125 25t101 68t68 101t25 125t-25 125t-68 101t-101 68t-125 25
t-125 -25t-101 -68t-68 -101t-25 -125t25 -125t68 -101t101 -68t125 -25zM400 565h128q72 0 107 -34t35 -97q0 -89 -69 -117l89 -187h-64l-79 175q-5 -1 -9.5 -1h-9.5h-71v-174h-57v435zM610 434q0 38 -21.5 59.5t-60.5 21.5h-71v-161h71q39 0 60.5 21t21.5 59z" />
    <glyph glyph-name="macron" unicode="&#xaf;" horiz-adv-x="412" 
d="M480 727l-11 -54h-252l11 54h252z" />
    <glyph glyph-name="degree" unicode="&#xb0;" horiz-adv-x="336" 
d="M178 602q0 23 9 43.5t24 35.5t35.5 24t43.5 9t43.5 -9t35.5 -24t24 -35.5t9 -43.5t-9 -43.5t-24 -35.5t-35.5 -24t-43.5 -9t-43.5 9t-35.5 24t-24 35.5t-9 43.5zM220 602q0 -29 20.5 -49.5t49.5 -20.5t49.5 20.5t20.5 49.5t-20.5 49.5t-49.5 20.5t-49.5 -20.5
t-20.5 -49.5z" />
    <glyph glyph-name="plusminus" unicode="&#xb1;" 
d="M100 105h500v-56h-500v56zM322 371h-222v56h222v222h56v-222h222v-56h-222v-222h-56v222z" />
    <glyph glyph-name="twosuperior" unicode="&#xb2;" horiz-adv-x="334" 
d="M189 684q42 16 69.5 20t44.5 4q14 0 34 -3.5t37 -17.5q11 -9 19.5 -26t8.5 -43q0 -32 -13 -58t-27 -46q-11 -15 -22 -28.5t-25 -28t-31.5 -31t-41.5 -37.5l-65 -59h183l-9 -47h-253l7 37l25 23q15 14 27.5 25t24.5 21.5t24.5 21.5t26.5 25l9.5 9.5t17.5 18t21.5 23
t21.5 25.5q20 25 31 47t11 48q0 16 -5 25.5t-10 14.5q-9 8 -20.5 11t-22.5 3q-30 0 -57 -8q-8 -2 -21 -7t-21 -9z" />
    <glyph glyph-name="threesuperior" unicode="&#xb3;" horiz-adv-x="334" 
d="M210 522h57q17 0 35 6t30 15q17 13 25.5 29.5t8.5 33.5q0 13 -4.5 23t-10.5 15q-11 10 -28.5 13.5t-31.5 3.5q-26 0 -55.5 -7t-54.5 -18l6 51q26 9 56 15t58 6q36 0 62 -10t40 -26q18 -23 18 -54q0 -28 -10 -48t-28 -36q-13 -12 -26 -19t-27 -12v-3q24 -6 38 -22
q7 -7 13 -19.5t6 -31.5q0 -33 -16 -62.5t-43 -49.5q-26 -19 -57 -28t-63 -9q-26 0 -55.5 5.5t-61.5 19.5l20 47q28 -14 54.5 -19.5t51.5 -5.5q20 0 40.5 5.5t38.5 19.5q19 15 26.5 33t7.5 33q0 12 -4 24.5t-13 20.5q-14 13 -30.5 15.5t-26.5 2.5h-56z" />
    <glyph glyph-name="acute" unicode="&#xb4;" horiz-adv-x="343" 
d="M417 740l-154 -130h-56l116 130h94z" />
    <glyph glyph-name="mu" unicode="&#xb5;" horiz-adv-x="554" 
d="M578 513l-104 -513h-55l21 102q-13 -26 -29.5 -43.5t-36.5 -31.5q-31 -20 -58.5 -26.5t-58.5 -6.5q-12 0 -26 1.5t-28 7t-27 16.5t-23 30l-55 -268h-63l149 732h63l-60 -297q-4 -20 -7.5 -49t2.5 -56t27 -46.5t68 -19.5q36 0 63.5 13t49.5 36q48 48 65 122l60 297h63z
" />
    <glyph glyph-name="paragraph" unicode="&#xb6;" horiz-adv-x="470" 
d="M256 400h-14q-55 0 -88.5 34t-33.5 85q0 34 15 66.5t40.5 58t59 41t70.5 15.5h210l-174 -840h-63l163 787h-70l-163 -787h-63z" />
    <glyph glyph-name="periodcentered" unicode="&#xb7;" horiz-adv-x="282" 
d="M269 402l-17 -86h-82l17 86h82z" />
    <glyph glyph-name="cedilla" unicode="&#xb8;" horiz-adv-x="106" 
d="M123 5l-9 -34q20 1 31.5 -6.5t14.5 -11.5q5 -5 9.5 -15t4.5 -25q0 -20 -7.5 -37t-18.5 -29q-29 -29 -76 -29q-22 0 -36.5 6.5t-25.5 14.5l26 32q11 -8 20.5 -10.5t17.5 -2.5q21 0 34 13q8 7 11 16t3 17q0 13 -9 22q-8 8 -16.5 9.5t-14.5 1.5q-5 0 -10 -0.5t-10 -1.5
l20 70h41z" />
    <glyph glyph-name="onesuperior" unicode="&#xb9;" horiz-adv-x="333" 
d="M382 700l-85 -420h-55l73 361l-82 -58l-13 41l110 76h52z" />
    <glyph glyph-name="ordmasculine" unicode="&#xba;" horiz-adv-x="377" 
d="M152 508q0 45 19.5 89t51.5 71q25 22 53 31t57 9q59 0 88 -39q12 -17 19 -39.5t7 -43.5q0 -35 -16 -75t-44 -69q-23 -25 -53 -38.5t-68 -13.5q-37 0 -57.5 12t-29.5 23q-15 17 -21 40t-6 43zM194 517q0 -38 16 -60q12 -17 28 -24t36 -7q26 0 45.5 10t36.5 28
q26 27 36 57.5t10 58.5q0 18 -3.5 32.5t-12.5 28.5q-22 31 -62 31q-24 0 -45.5 -10.5t-37.5 -27.5q-21 -22 -34 -53.5t-13 -63.5z" />
    <glyph glyph-name="guillemotright" unicode="&#xbb;" horiz-adv-x="500" 
d="M353 507h55l98 -207l-171 -207h-60l167 207zM178 507h55l98 -207l-171 -207h-60l167 207z" />
    <glyph glyph-name="onequarter" unicode="&#xbc;" horiz-adv-x="830" 
d="M373 700l-85 -420h-55l73 361l-82 -58l-13 41l110 76h52zM762 700h68l-622 -700h-68zM791 421l-55 -273h64l-10 -47h-64l-20 -100h-55l20 100h-198l7 35l242 285h69zM725 367l-181 -219h137z" />
    <glyph glyph-name="onehalf" unicode="&#xbd;" horiz-adv-x="830" 
d="M343 700l-85 -420h-55l73 361l-82 -58l-13 41l110 76h52zM762 700h68l-622 -700h-68zM617 402q42 16 69.5 20t44.5 4q14 0 34 -3.5t37 -17.5q11 -9 19.5 -26t8.5 -43q0 -32 -13 -58t-27 -46q-11 -15 -22 -28.5t-25 -28t-31.5 -31t-41.5 -37.5l-65 -59h183l-9 -47h-253
l7 37l25 23q15 14 27.5 25t24.5 21.5t24.5 21.5t26.5 25l9.5 9.5t17.5 18t21.5 23t21.5 25.5q20 25 31 47t11 48q0 16 -5 25.5t-10 14.5q-9 8 -20.5 11t-22.5 3q-30 0 -57 -8q-8 -2 -21 -7t-21 -9z" />
    <glyph glyph-name="threequarters" unicode="&#xbe;" horiz-adv-x="830" 
d="M190 522h57q17 0 35 6t30 15q17 13 25.5 29.5t8.5 33.5q0 13 -4.5 23t-10.5 15q-11 10 -28.5 13.5t-31.5 3.5q-26 0 -55.5 -7t-54.5 -18l6 51q26 9 56 15t58 6q36 0 62 -10t40 -26q18 -23 18 -54q0 -28 -10 -48t-28 -36q-13 -12 -26 -19t-27 -12v-3q24 -6 38 -22
q7 -7 13 -19.5t6 -31.5q0 -33 -16 -62.5t-43 -49.5q-26 -19 -57 -28t-63 -9q-26 0 -55.5 5.5t-61.5 19.5l20 47q28 -14 54.5 -19.5t51.5 -5.5q20 0 40.5 5.5t38.5 19.5q19 15 26.5 33t7.5 33q0 12 -4 24.5t-13 20.5q-14 13 -30.5 15.5t-26.5 2.5h-56zM762 700h68l-622 -700
h-68zM791 421l-55 -273h64l-10 -47h-64l-20 -100h-55l20 100h-198l7 35l242 285h69zM725 367l-181 -219h137z" />
    <glyph glyph-name="questiondown" unicode="&#xbf;" horiz-adv-x="448" 
d="M344 276q-6 -29 -18.5 -52.5t-28.5 -43t-33.5 -35.5t-32.5 -30q-38 -35 -56.5 -56t-29.5 -36q-13 -18 -23.5 -43.5t-10.5 -56.5q0 -26 9.5 -42t20.5 -24q20 -16 48.5 -20.5t50.5 -4.5q13 0 48.5 4t80.5 22l-13 -62q-35 -11 -68 -16t-65 -5q-13 0 -30.5 1t-36.5 4.5
t-38 11.5t-35 22q-23 19 -34 43t-11 51q0 28 8 53.5t19.5 47.5t25.5 39.5t26 30.5q13 14 23 23.5t18.5 17t17.5 15t20 16.5q15 13 38 36t35 45q14 23 18 44l6 30h57zM299 395l18 86h82l-18 -86h-82z" />
    <glyph glyph-name="Agrave" unicode="&#xc0;" horiz-adv-x="650" 
d="M427 700h86l122 -700h-72l-33 192h-329l-113 -192h-73zM520 249l-62 385h-2l-221 -385h285zM512 750h-60l-98 120h100z" />
    <glyph glyph-name="Aacute" unicode="&#xc1;" horiz-adv-x="650" 
d="M427 700h86l122 -700h-72l-33 192h-329l-113 -192h-73zM520 249l-62 385h-2l-221 -385h285zM662 870l-150 -120h-70l108 120h112z" />
    <glyph glyph-name="Acircumflex" unicode="&#xc2;" horiz-adv-x="650" 
d="M427 700h86l122 -700h-72l-33 192h-329l-113 -192h-73zM520 249l-62 385h-2l-221 -385h285zM396 750h-70l127 120h96l77 -120h-66l-63 86z" />
    <glyph glyph-name="Atilde" unicode="&#xc3;" horiz-adv-x="650" 
d="M427 700h86l122 -700h-72l-33 192h-329l-113 -192h-73zM520 249l-62 385h-2l-221 -385h285zM652 848q-5 -23 -14.5 -38t-18.5 -23q-14 -14 -30.5 -19t-36.5 -5q-23 0 -38 6t-32 14q-14 8 -28 13.5t-29 5.5q-22 0 -35 -12q-13 -11 -17 -27h-40q5 29 18.5 45t19.5 21
q12 10 27.5 16t35.5 6q23 0 39.5 -6t30.5 -13q18 -9 31.5 -14.5t26.5 -5.5q18 0 32 11q7 2 18 25h40z" />
    <glyph glyph-name="Adieresis" unicode="&#xc4;" horiz-adv-x="650" 
d="M427 700h86l122 -700h-72l-33 192h-329l-113 -192h-73zM520 249l-62 385h-2l-221 -385h285zM436 844l-17 -80h-69l17 80h69zM635 844l-17 -80h-69l17 80h69z" />
    <glyph glyph-name="Aring" unicode="&#xc5;" horiz-adv-x="650" 
d="M427 700h86l122 -700h-72l-33 192h-329l-113 -192h-73zM520 249l-62 385h-2l-221 -385h285zM398 805q0 25 10.5 48.5t31.5 41.5q34 28 74 28q23 0 38.5 -8t23.5 -18q7 -8 12.5 -20.5t5.5 -32.5t-8.5 -43.5t-34.5 -43.5q-16 -12 -36 -19t-38 -7q-20 0 -35.5 7.5
t-25.5 18.5q-7 8 -12.5 19.5t-5.5 28.5zM435 813q0 -21 14 -33q13 -13 35 -13q12 0 26.5 5t27.5 19q12 13 15.5 25t3.5 22q0 14 -4 22t-9 13q-12 14 -36 14q-26 0 -47 -18q-13 -11 -19.5 -26t-6.5 -30z" />
    <glyph glyph-name="AE" unicode="&#xc6;" horiz-adv-x="854" 
d="M977 700l-11 -57h-279l-39 -253h247l-11 -57h-243l-41 -276h251l-12 -57h-248h-69l29 193h-304l-157 -193h-75l569 700h42h69h282zM559 250l58 390h-6l-316 -390h264z" />
    <glyph glyph-name="Ccedilla" unicode="&#xc7;" horiz-adv-x="613" 
d="M591 19q-71 -23 -153 -27l-10 -32q20 2 35 -4.5t25 -15.5q11 -11 14.5 -22.5t3.5 -25.5q0 -26 -9.5 -45t-26.5 -34q-17 -16 -41.5 -25t-53.5 -9q-15 0 -37 5t-46 22l34 38q21 -17 50 -17q10 0 18.5 1.5t18.5 8.5q17 11 21 23t4 19q0 19 -11 28q-12 11 -29.5 12.5
t-37.5 -1.5l25 75q-67 2 -113 25.5t-73 50.5q-8 7 -21 23.5t-25.5 43t-21.5 63t-9 83.5q0 75 25.5 146t70.5 128q38 47 80.5 76.5t87 46.5t88.5 23t84 6t77.5 -5.5t79.5 -20.5l-18 -60q-35 14 -71.5 21.5t-68.5 7.5q-64 0 -133 -26.5t-123 -80.5q-46 -48 -77 -117t-31 -150
q0 -35 6.5 -62.5t16.5 -48.5t21.5 -35.5t21.5 -24.5q20 -19 43 -30.5t45.5 -17.5t42.5 -7.5t34 -1.5q32 0 61 4t53 9.5t41 11t25 8.5z" />
    <glyph glyph-name="Egrave" unicode="&#xc8;" horiz-adv-x="509" 
d="M582 700l-11 -57h-274l-52 -253h261l-11 -57h-261l-56 -276h293l-12 -57h-292h-67l142 700h66h274zM492 750h-60l-98 120h100z" />
    <glyph glyph-name="Eacute" unicode="&#xc9;" horiz-adv-x="509" 
d="M582 700l-11 -57h-274l-52 -253h261l-11 -57h-261l-56 -276h293l-12 -57h-292h-67l142 700h66h274zM529 870l-150 -120h-70l108 120h112z" />
    <glyph glyph-name="Ecircumflex" unicode="&#xca;" horiz-adv-x="509" 
d="M582 700l-11 -57h-274l-52 -253h261l-11 -57h-261l-56 -276h293l-12 -57h-292h-67l142 700h66h274zM326 750h-70l127 120h96l77 -120h-66l-63 86z" />
    <glyph glyph-name="Edieresis" unicode="&#xcb;" horiz-adv-x="509" 
d="M582 700l-11 -57h-274l-52 -253h261l-11 -57h-261l-56 -276h293l-12 -57h-292h-67l142 700h66h274zM346 844l-17 -80h-69l17 80h69zM545 844l-17 -80h-69l17 80h69z" />
    <glyph glyph-name="Igrave" unicode="&#xcc;" horiz-adv-x="266" 
d="M308 700l-142 -700h-66l142 700h66zM308 750h-60l-98 120h100z" />
    <glyph glyph-name="Iacute" unicode="&#xcd;" horiz-adv-x="266" 
d="M308 700l-142 -700h-66l142 700h66zM409 870l-150 -120h-70l108 120h112z" />
    <glyph glyph-name="Icircumflex" unicode="&#xce;" horiz-adv-x="266" 
d="M308 700l-142 -700h-66l142 700h66zM206 750h-70l127 120h96l77 -120h-66l-63 86z" />
    <glyph glyph-name="Idieresis" unicode="&#xcf;" horiz-adv-x="266" 
d="M308 700l-142 -700h-66l142 700h66zM274 844l-17 -80h-70l17 80h70zM406 844l-17 -80h-70l17 80h70z" />
    <glyph glyph-name="Eth" unicode="&#xd0;" horiz-adv-x="727" 
d="M452 700q26 0 58.5 -2t65.5 -8.5t64.5 -19.5t55.5 -35.5t39 -56t15 -80.5q0 -55 -9.5 -113.5t-31 -113.5t-56 -104.5t-83.5 -86.5t-113.5 -58.5t-146.5 -21.5h-104h-67l70 346h-109l10 45h109l62 309h67h104zM285 391h199l-10 -45h-199l-58 -289h98q78 0 135 21.5
t97.5 56t66.5 79t40.5 90t20 88.5t5.5 76q0 63 -26.5 98t-64.5 52t-80.5 21t-74.5 4h-98z" />
    <glyph glyph-name="Ntilde" unicode="&#xd1;" horiz-adv-x="723" 
d="M304 700h23l226 -566l18 -64h2l126 630h66l-142 -700h-61h-24l-223 555l-22 75h-3l-12 -81l-112 -549h-66l142 700h62zM685 848q-5 -23 -14.5 -38t-18.5 -23q-14 -14 -30.5 -19t-36.5 -5q-23 0 -38 6t-32 14q-14 8 -28 13.5t-29 5.5q-22 0 -35 -12q-13 -11 -17 -27h-40
q5 29 18.5 45t19.5 21q12 10 27.5 16t35.5 6q23 0 39.5 -6t30.5 -13q18 -9 31.5 -14.5t26.5 -5.5q18 0 32 11q7 2 18 25h40z" />
    <glyph glyph-name="Ograve" unicode="&#xd2;" horiz-adv-x="748" 
d="M378 -8q-23 0 -48.5 3t-52 12t-51.5 25t-47 43q-20 24 -32 50t-18 51t-8 48.5t-2 42.5q0 88 30 172.5t90 150.5q34 36 70 59t71.5 36t69 18t63.5 5q66 0 114.5 -19.5t80.5 -55.5t47.5 -86.5t15.5 -112.5q0 -108 -34 -187.5t-83 -133.5q-54 -58 -121 -89.5t-155 -31.5z
M190 257q0 -31 8 -70.5t34 -71.5q8 -11 21 -22.5t31.5 -21t43 -16t54.5 -6.5q70 0 137 37.5t113 107.5q33 51 50.5 115.5t17.5 134.5q0 32 -7.5 69.5t-34.5 71.5q-9 11 -22 22.5t-31.5 21.5t-42.5 16t-54 6q-66 0 -132 -35t-117 -110q-5 -7 -16.5 -27.5t-23 -53t-20.5 -75
t-9 -93.5zM603 750h-60l-98 120h100z" />
    <glyph glyph-name="Oacute" unicode="&#xd3;" horiz-adv-x="748" 
d="M378 -8q-23 0 -48.5 3t-52 12t-51.5 25t-47 43q-20 24 -32 50t-18 51t-8 48.5t-2 42.5q0 88 30 172.5t90 150.5q34 36 70 59t71.5 36t69 18t63.5 5q66 0 114.5 -19.5t80.5 -55.5t47.5 -86.5t15.5 -112.5q0 -108 -34 -187.5t-83 -133.5q-54 -58 -121 -89.5t-155 -31.5z
M190 257q0 -31 8 -70.5t34 -71.5q8 -11 21 -22.5t31.5 -21t43 -16t54.5 -6.5q70 0 137 37.5t113 107.5q33 51 50.5 115.5t17.5 134.5q0 32 -7.5 69.5t-34.5 71.5q-9 11 -22 22.5t-31.5 21.5t-42.5 16t-54 6q-66 0 -132 -35t-117 -110q-5 -7 -16.5 -27.5t-23 -53t-20.5 -75
t-9 -93.5zM646 870l-150 -120h-70l108 120h112z" />
    <glyph glyph-name="Ocircumflex" unicode="&#xd4;" horiz-adv-x="748" 
d="M378 -8q-23 0 -48.5 3t-52 12t-51.5 25t-47 43q-20 24 -32 50t-18 51t-8 48.5t-2 42.5q0 88 30 172.5t90 150.5q34 36 70 59t71.5 36t69 18t63.5 5q66 0 114.5 -19.5t80.5 -55.5t47.5 -86.5t15.5 -112.5q0 -108 -34 -187.5t-83 -133.5q-54 -58 -121 -89.5t-155 -31.5z
M190 257q0 -31 8 -70.5t34 -71.5q8 -11 21 -22.5t31.5 -21t43 -16t54.5 -6.5q70 0 137 37.5t113 107.5q33 51 50.5 115.5t17.5 134.5q0 32 -7.5 69.5t-34.5 71.5q-9 11 -22 22.5t-31.5 21.5t-42.5 16t-54 6q-66 0 -132 -35t-117 -110q-5 -7 -16.5 -27.5t-23 -53t-20.5 -75
t-9 -93.5zM440 750h-70l127 120h96l77 -120h-66l-63 86z" />
    <glyph glyph-name="Otilde" unicode="&#xd5;" horiz-adv-x="748" 
d="M378 -8q-23 0 -48.5 3t-52 12t-51.5 25t-47 43q-20 24 -32 50t-18 51t-8 48.5t-2 42.5q0 88 30 172.5t90 150.5q34 36 70 59t71.5 36t69 18t63.5 5q66 0 114.5 -19.5t80.5 -55.5t47.5 -86.5t15.5 -112.5q0 -108 -34 -187.5t-83 -133.5q-54 -58 -121 -89.5t-155 -31.5z
M190 257q0 -31 8 -70.5t34 -71.5q8 -11 21 -22.5t31.5 -21t43 -16t54.5 -6.5q70 0 137 37.5t113 107.5q33 51 50.5 115.5t17.5 134.5q0 32 -7.5 69.5t-34.5 71.5q-9 11 -22 22.5t-31.5 21.5t-42.5 16t-54 6q-66 0 -132 -35t-117 -110q-5 -7 -16.5 -27.5t-23 -53t-20.5 -75
t-9 -93.5zM695 848q-5 -23 -14.5 -38t-18.5 -23q-14 -14 -30.5 -19t-36.5 -5q-23 0 -38 6t-32 14q-14 8 -28 13.5t-29 5.5q-22 0 -35 -12q-13 -11 -17 -27h-40q5 29 18.5 45t19.5 21q12 10 27.5 16t35.5 6q23 0 39.5 -6t30.5 -13q18 -9 31.5 -14.5t26.5 -5.5q18 0 32 11
q7 2 18 25h40z" />
    <glyph glyph-name="Odieresis" unicode="&#xd6;" horiz-adv-x="748" 
d="M378 -8q-23 0 -48.5 3t-52 12t-51.5 25t-47 43q-20 24 -32 50t-18 51t-8 48.5t-2 42.5q0 88 30 172.5t90 150.5q34 36 70 59t71.5 36t69 18t63.5 5q66 0 114.5 -19.5t80.5 -55.5t47.5 -86.5t15.5 -112.5q0 -108 -34 -187.5t-83 -133.5q-54 -58 -121 -89.5t-155 -31.5z
M190 257q0 -31 8 -70.5t34 -71.5q8 -11 21 -22.5t31.5 -21t43 -16t54.5 -6.5q70 0 137 37.5t113 107.5q33 51 50.5 115.5t17.5 134.5q0 32 -7.5 69.5t-34.5 71.5q-9 11 -22 22.5t-31.5 21.5t-42.5 16t-54 6q-66 0 -132 -35t-117 -110q-5 -7 -16.5 -27.5t-23 -53t-20.5 -75
t-9 -93.5zM464 844l-17 -80h-69l17 80h69zM663 844l-17 -80h-69l17 80h69z" />
    <glyph glyph-name="multiply" unicode="&#xd7;" horiz-adv-x="500" 
d="M570 557l-201 -201l201 -201l-39 -39l-201 201l-201 -201l-39 39l201 201l-201 201l39 39l201 -201l201 201z" />
    <glyph glyph-name="Oslash" unicode="&#xd8;" horiz-adv-x="744" 
d="M161 89q-19 29 -32 67t-13 96q0 55 12 107.5t33 100t49.5 87t61.5 68.5q49 43 110.5 68t133.5 25q66 0 108 -18.5t72 -45.5l75 78l33 -28l-80 -83q24 -39 35.5 -82.5t11.5 -101.5q0 -51 -11.5 -100t-32.5 -93.5t-50 -82.5t-63 -67q-49 -42 -110.5 -67t-133.5 -25
q-66 0 -108 18.5t-73 45.5l-72 -75l-34 27zM647 593q-9 9 -22 19t-30 19t-40 14.5t-51 5.5q-52 0 -105 -23t-93 -62q-28 -28 -50 -64.5t-37.5 -77t-23.5 -83t-8 -81.5q0 -40 7.5 -67t18.5 -49zM239 108q9 -9 22 -19.5t30.5 -19.5t40 -14.5t50.5 -5.5q55 0 106 23t91 61
q23 22 44.5 51.5t38.5 67.5t27.5 85.5t10.5 105.5q0 30 -4.5 56t-23.5 58z" />
    <glyph glyph-name="Ugrave" unicode="&#xd9;" horiz-adv-x="717" 
d="M219 235q-6 -29 -6 -54q0 -26 8 -49t28 -43q23 -21 55.5 -30.5t67.5 -9.5q42 0 75.5 11.5t59.5 29.5q42 29 62.5 64.5t29.5 80.5l94 465h66l-95 -467q-13 -61 -39.5 -109t-84.5 -85q-45 -28 -87.5 -37.5t-88.5 -9.5q-36 0 -77.5 8.5t-78.5 40.5q-61 52 -61 141q0 12 1 25
t4 26l95 467h66zM594 750h-60l-98 120h100z" />
    <glyph glyph-name="Uacute" unicode="&#xda;" horiz-adv-x="717" 
d="M219 235q-6 -29 -6 -54q0 -26 8 -49t28 -43q23 -21 55.5 -30.5t67.5 -9.5q42 0 75.5 11.5t59.5 29.5q42 29 62.5 64.5t29.5 80.5l94 465h66l-95 -467q-13 -61 -39.5 -109t-84.5 -85q-45 -28 -87.5 -37.5t-88.5 -9.5q-36 0 -77.5 8.5t-78.5 40.5q-61 52 -61 141q0 12 1 25
t4 26l95 467h66zM631 870l-150 -120h-70l108 120h112z" />
    <glyph glyph-name="Ucircumflex" unicode="&#xdb;" horiz-adv-x="717" 
d="M219 235q-6 -29 -6 -54q0 -26 8 -49t28 -43q23 -21 55.5 -30.5t67.5 -9.5q42 0 75.5 11.5t59.5 29.5q42 29 62.5 64.5t29.5 80.5l94 465h66l-95 -467q-13 -61 -39.5 -109t-84.5 -85q-45 -28 -87.5 -37.5t-88.5 -9.5q-36 0 -77.5 8.5t-78.5 40.5q-61 52 -61 141q0 12 1 25
t4 26l95 467h66zM429 750h-70l127 120h96l77 -120h-66l-63 86z" />
    <glyph glyph-name="Udieresis" unicode="&#xdc;" horiz-adv-x="717" 
d="M219 235q-6 -29 -6 -54q0 -26 8 -49t28 -43q23 -21 55.5 -30.5t67.5 -9.5q42 0 75.5 11.5t59.5 29.5q42 29 62.5 64.5t29.5 80.5l94 465h66l-95 -467q-13 -61 -39.5 -109t-84.5 -85q-45 -28 -87.5 -37.5t-88.5 -9.5q-36 0 -77.5 8.5t-78.5 40.5q-61 52 -61 141q0 12 1 25
t4 26l95 467h66zM449 844l-17 -80h-69l17 80h69zM648 844l-17 -80h-69l17 80h69z" />
    <glyph glyph-name="Yacute" unicode="&#xdd;" horiz-adv-x="619" 
d="M227 700l132 -310l16 -41l293 351h83l-354 -408l-59 -292h-66l59 292l-179 408h75zM586 870l-150 -120h-70l108 120h112z" />
    <glyph glyph-name="Thorn" unicode="&#xde;" horiz-adv-x="536" 
d="M308 700l-30 -148h116q32 0 66.5 -8t64.5 -37q24 -23 33.5 -50.5t9.5 -58.5q0 -28 -6.5 -55.5t-17.5 -52.5t-27 -47t-35 -38q-26 -22 -68 -39.5t-102 -17.5h-116l-30 -148h-66l142 700h66zM208 205h103q14 0 31 1.5t35.5 7t37 16.5t35.5 30q18 20 32.5 51.5t14.5 76.5
q0 21 -5 38.5t-19 33.5q-22 23 -50 29t-53 6h-103z" />
    <glyph glyph-name="germandbls" unicode="&#xdf;" horiz-adv-x="587" 
d="M189 538q3 14 8.5 35t16 44.5t26 47.5t39.5 44q34 29 77.5 42.5t85.5 13.5q28 0 49.5 -5.5t36.5 -13t24 -15.5t14 -13q11 -11 21 -32.5t10 -54.5q0 -43 -15.5 -81.5t-43.5 -66.5q-21 -21 -47 -36t-51 -23v-3q23 -4 47 -14t42 -27q26 -24 34 -51.5t8 -48.5q0 -60 -23 -121
t-72 -106q-35 -33 -78 -47.5t-88 -14.5q-24 0 -47.5 4t-46.5 11l15 55q42 -17 80 -17q34 0 65.5 13t59.5 42q33 34 50 77t17 86q0 38 -13.5 62t-30.5 36q-12 9 -26 14t-28 8t-26.5 4t-20.5 1l-35 1l11 53h34q28 0 55.5 15.5t46.5 32.5q35 32 47 66t12 59q0 20 -6 38.5
t-19 31.5q-14 14 -36 21t-47 7q-28 0 -57 -10.5t-52 -33.5q-27 -27 -39.5 -62t-19.5 -67l-110 -539h-63z" />
    <glyph glyph-name="agrave" unicode="&#xe0;" horiz-adv-x="566" 
d="M256 -8q-77 0 -122 48t-45 142q0 78 22.5 141t59.5 107t85.5 67.5t99.5 23.5q58 0 92 -25t57 -75l18 89h63l-104 -510h-55l21 106h-3q-30 -48 -79 -81t-110 -33zM264 45q39 0 77 20t68 56t49 87t19 113q0 73 -33.5 110t-85.5 37q-35 0 -71.5 -20t-66 -57.5t-48 -91
t-18.5 -120.5q0 -71 28.5 -102.5t81.5 -31.5zM433 610h-48l-105 130h91z" />
    <glyph glyph-name="aacute" unicode="&#xe1;" horiz-adv-x="566" 
d="M256 -8q-77 0 -122 48t-45 142q0 78 22.5 141t59.5 107t85.5 67.5t99.5 23.5q58 0 92 -25t57 -75l18 89h63l-104 -510h-55l21 106h-3q-30 -48 -79 -81t-110 -33zM264 45q39 0 77 20t68 56t49 87t19 113q0 73 -33.5 110t-85.5 37q-35 0 -71.5 -20t-66 -57.5t-48 -91
t-18.5 -120.5q0 -71 28.5 -102.5t81.5 -31.5zM586 740l-154 -130h-56l116 130h94z" />
    <glyph glyph-name="acircumflex" unicode="&#xe2;" horiz-adv-x="566" 
d="M256 -8q-77 0 -122 48t-45 142q0 78 22.5 141t59.5 107t85.5 67.5t99.5 23.5q58 0 92 -25t57 -75l18 89h63l-104 -510h-55l21 106h-3q-30 -48 -79 -81t-110 -33zM264 45q39 0 77 20t68 56t49 87t19 113q0 73 -33.5 110t-85.5 37q-35 0 -71.5 -20t-66 -57.5t-48 -91
t-18.5 -120.5q0 -71 28.5 -102.5t81.5 -31.5zM318 610h-60l137 130h76l83 -130h-56l-70 96z" />
    <glyph glyph-name="atilde" unicode="&#xe3;" horiz-adv-x="566" 
d="M256 -8q-77 0 -122 48t-45 142q0 78 22.5 141t59.5 107t85.5 67.5t99.5 23.5q58 0 92 -25t57 -75l18 89h63l-104 -510h-55l21 106h-3q-30 -48 -79 -81t-110 -33zM264 45q39 0 77 20t68 56t49 87t19 113q0 73 -33.5 110t-85.5 37q-35 0 -71.5 -20t-66 -57.5t-48 -91
t-18.5 -120.5q0 -71 28.5 -102.5t81.5 -31.5zM578 741q-5 -32 -28.5 -56.5t-65.5 -24.5q-20 0 -35 4.5t-29 10.5q-15 7 -30 13.5t-29 6.5q-10 0 -25 -7t-24 -28h-38q6 38 33.5 61t62.5 23q20 0 39 -6t34 -13q16 -7 27.5 -11.5t22.5 -4.5q10 0 24.5 6t22.5 26h38z" />
    <glyph glyph-name="adieresis" unicode="&#xe4;" horiz-adv-x="566" 
d="M256 -8q-77 0 -122 48t-45 142q0 78 22.5 141t59.5 107t85.5 67.5t99.5 23.5q58 0 92 -25t57 -75l18 89h63l-104 -510h-55l21 106h-3q-30 -48 -79 -81t-110 -33zM264 45q39 0 77 20t68 56t49 87t19 113q0 73 -33.5 110t-85.5 37q-35 0 -71.5 -20t-66 -57.5t-48 -91
t-18.5 -120.5q0 -71 28.5 -102.5t81.5 -31.5zM370 720l-17 -80h-69l17 80h69zM559 720l-17 -80h-69l17 80h69z" />
    <glyph glyph-name="aring" unicode="&#xe5;" horiz-adv-x="566" 
d="M256 -8q-77 0 -122 48t-45 142q0 78 22.5 141t59.5 107t85.5 67.5t99.5 23.5q58 0 92 -25t57 -75l18 89h63l-104 -510h-55l21 106h-3q-30 -48 -79 -81t-110 -33zM264 45q39 0 77 20t68 56t49 87t19 113q0 73 -33.5 110t-85.5 37q-35 0 -71.5 -20t-66 -57.5t-48 -91
t-18.5 -120.5q0 -71 28.5 -102.5t81.5 -31.5zM364 687q0 -17 11 -30q6 -8 15 -12.5t25 -4.5q20 0 33.5 6.5t21.5 17.5q8 9 12.5 22.5t4.5 25.5q0 19 -12 33q-15 15 -40 15q-9 0 -21.5 -3.5t-24.5 -14.5q-25 -24 -25 -55zM327 687q0 21 8.5 41.5t26.5 37.5q34 30 75 30
q18 0 36 -7t31 -22q20 -23 20 -57q0 -21 -9.5 -43t-30.5 -39q-17 -14 -36 -19t-37 -5t-34.5 6t-29.5 21q-20 23 -20 56z" />
    <glyph glyph-name="ae" unicode="&#xe6;" horiz-adv-x="847" 
d="M213 -8q-26 0 -51.5 7.5t-45 22.5t-31.5 37.5t-12 52.5q0 59 28 93t72 51.5t98.5 22.5t107.5 5h56q10 39 13 59t3 37q0 45 -30.5 66.5t-75.5 21.5q-41 0 -79.5 -10.5t-75.5 -30.5l12 60q34 14 77.5 24t82.5 10q55 0 92 -23.5t46 -75.5q40 48 96.5 73.5t125.5 25.5
q32 0 59.5 -8.5t48 -24.5t32 -38.5t11.5 -49.5q0 -42 -18 -73.5t-61.5 -52.5t-118 -31.5t-186.5 -11.5q-1 -10 -1 -19v-19q0 -72 37 -110t112 -38q31 0 69.5 6.5t77.5 26.5l-12 -58q-35 -14 -69.5 -21t-80.5 -7q-76 0 -123.5 34t-64.5 97q-45 -74 -100.5 -102.5
t-120.5 -28.5zM707 468q-36 0 -69 -12.5t-60.5 -36t-48 -57.5t-31.5 -78q85 1 144.5 6.5t97 18.5t54.5 35t17 56q0 29 -25.5 48.5t-78.5 19.5zM232 45q37 0 69.5 14t57.5 38.5t42 58.5t24 75h-57q-56 0 -98.5 -4.5t-71.5 -17t-43.5 -34t-14.5 -55.5q0 -6 2 -18.5t11 -25
t27.5 -22t51.5 -9.5z" />
    <glyph glyph-name="ccedilla" unicode="&#xe7;" horiz-adv-x="464" 
d="M518 445q-29 13 -57 18t-54 5q-54 0 -95.5 -19t-75.5 -55q-35 -38 -55.5 -89t-20.5 -106q0 -33 9 -60.5t32 -49.5q14 -14 43.5 -29t80.5 -15q31 0 61 6t55 15l-5 -54q-29 -11 -56.5 -15.5t-54.5 -4.5l-6 -21q20 1 31.5 -6.5t14.5 -11.5q5 -5 9.5 -15t4.5 -25
q0 -20 -7.5 -37t-18.5 -29q-29 -29 -76 -29q-22 0 -36.5 6.5t-25.5 14.5l26 32q11 -8 20.5 -10.5t17.5 -2.5q21 0 34 13q8 7 11 16t3 17q0 13 -9 22q-8 8 -16.5 9.5t-14.5 1.5q-5 0 -10 -0.5t-10 -1.5l17 59q-29 1 -52.5 8.5t-42.5 18.5t-33.5 25t-24.5 28q-14 20 -25.5 50
t-11.5 78q0 69 26 129t69 103q48 49 103 68t115 19q38 0 68.5 -6t56.5 -14z" />
    <glyph glyph-name="egrave" unicode="&#xe8;" horiz-adv-x="509" 
d="M284 -8q-94 0 -147 52.5t-53 145.5q0 76 22.5 137.5t62.5 104.5t95 66t120 23q32 0 59.5 -8.5t48 -24.5t32 -38.5t11.5 -49.5q0 -42 -18 -76.5t-62 -58.5t-118 -38t-187 -16v-18q0 -72 37 -110t112 -38q31 0 69.5 6.5t77.5 26.5l-12 -58q-35 -14 -69.5 -21t-80.5 -7z
M369 468q-38 0 -72.5 -13.5t-63 -40t-48.5 -64.5t-29 -86q86 1 146.5 9.5t98.5 25.5t55 42t17 59q0 29 -25.5 48.5t-78.5 19.5zM405 610h-48l-105 130h91z" />
    <glyph glyph-name="eacute" unicode="&#xe9;" horiz-adv-x="509" 
d="M284 -8q-94 0 -147 52.5t-53 145.5q0 76 22.5 137.5t62.5 104.5t95 66t120 23q32 0 59.5 -8.5t48 -24.5t32 -38.5t11.5 -49.5q0 -42 -18 -76.5t-62 -58.5t-118 -38t-187 -16v-18q0 -72 37 -110t112 -38q31 0 69.5 6.5t77.5 26.5l-12 -58q-35 -14 -69.5 -21t-80.5 -7z
M369 468q-38 0 -72.5 -13.5t-63 -40t-48.5 -64.5t-29 -86q86 1 146.5 9.5t98.5 25.5t55 42t17 59q0 29 -25.5 48.5t-78.5 19.5zM558 740l-154 -130h-56l116 130h94z" />
    <glyph glyph-name="ecircumflex" unicode="&#xea;" horiz-adv-x="509" 
d="M284 -8q-94 0 -147 52.5t-53 145.5q0 76 22.5 137.5t62.5 104.5t95 66t120 23q32 0 59.5 -8.5t48 -24.5t32 -38.5t11.5 -49.5q0 -42 -18 -76.5t-62 -58.5t-118 -38t-187 -16v-18q0 -72 37 -110t112 -38q31 0 69.5 6.5t77.5 26.5l-12 -58q-35 -14 -69.5 -21t-80.5 -7z
M369 468q-38 0 -72.5 -13.5t-63 -40t-48.5 -64.5t-29 -86q86 1 146.5 9.5t98.5 25.5t55 42t17 59q0 29 -25.5 48.5t-78.5 19.5zM290 610h-60l137 130h76l83 -130h-56l-70 96z" />
    <glyph glyph-name="edieresis" unicode="&#xeb;" horiz-adv-x="509" 
d="M284 -8q-94 0 -147 52.5t-53 145.5q0 76 22.5 137.5t62.5 104.5t95 66t120 23q32 0 59.5 -8.5t48 -24.5t32 -38.5t11.5 -49.5q0 -42 -18 -76.5t-62 -58.5t-118 -38t-187 -16v-18q0 -72 37 -110t112 -38q31 0 69.5 6.5t77.5 26.5l-12 -58q-35 -14 -69.5 -21t-80.5 -7z
M369 468q-38 0 -72.5 -13.5t-63 -40t-48.5 -64.5t-29 -86q86 1 146.5 9.5t98.5 25.5t55 42t17 59q0 29 -25.5 48.5t-78.5 19.5zM342 720l-17 -80h-69l17 80h69zM531 720l-17 -80h-69l17 80h69z" />
    <glyph glyph-name="igrave" unicode="&#xec;" horiz-adv-x="229" 
d="M250 513l-104 -513h-63l104 513h63zM305 610h-48l-105 130h91z" />
    <glyph glyph-name="iacute" unicode="&#xed;" horiz-adv-x="229" 
d="M250 513l-104 -513h-63l104 513h63zM401 740l-154 -130h-56l116 130h94z" />
    <glyph glyph-name="icircumflex" unicode="&#xee;" horiz-adv-x="229" 
d="M250 513l-104 -513h-63l104 513h63zM155 610h-60l137 130h76l83 -130h-56l-70 96z" />
    <glyph glyph-name="idieresis" unicode="&#xef;" horiz-adv-x="229" 
d="M247 513l-104 -513h-63l104 513h63zM238 720l-17 -80h-66l17 80h66zM354 720l-17 -80h-66l17 80h66z" />
    <glyph glyph-name="eth" unicode="&#xf0;" horiz-adv-x="601" 
d="M472 662q18 -10 42.5 -31.5t43.5 -62.5q16 -35 23 -80.5t7 -90.5q0 -72 -11.5 -125.5t-28 -92t-35 -63t-31.5 -38.5q-40 -42 -88.5 -64t-112.5 -22q-45 0 -80 12.5t-64 47.5t-37.5 73t-8.5 67q0 73 29 138t80 108q36 31 85.5 49.5t100.5 18.5q34 0 58.5 -8.5t42 -21
t28 -26t16.5 -23.5q-1 32 -8.5 67.5t-21.5 60.5q-12 22 -30.5 41t-47.5 32l-92 -66l-26 34l72 51q-25 8 -49.5 11t-47.5 3l12 50q33 0 66.5 -6.5t68.5 -21.5l104 75l26 -34zM157 197q0 -29 7.5 -56t22.5 -48q19 -26 45 -37t60 -11q45 0 78 16.5t63 48.5q35 38 57.5 87.5
t22.5 115.5q0 20 -4.5 43.5t-23.5 48.5q-20 26 -46 37t-64 11q-46 0 -78 -16.5t-63 -48.5q-46 -48 -61.5 -98t-15.5 -93z" />
    <glyph glyph-name="ntilde" unicode="&#xf1;" horiz-adv-x="564" 
d="M83 0l80 395l21 118h56l-21 -106h2q14 23 33.5 44t42.5 36q27 18 54.5 26t61.5 8q30 0 56 -7t49 -27t32 -45t9 -54q0 -32 -8 -69l-65 -319h-63l64 316q3 12 5 26.5t2 29.5q0 24 -7 44q-3 8 -9.5 17.5t-17 17t-26 12.5t-37.5 5q-33 0 -61 -11t-53 -32q-22 -18 -44.5 -49.5
t-31.5 -76.5l-61 -299h-63zM577 741q-5 -32 -28.5 -56.5t-65.5 -24.5q-20 0 -35 4.5t-29 10.5q-15 7 -30 13.5t-29 6.5q-10 0 -25 -7t-24 -28h-38q6 38 33.5 61t62.5 23q20 0 39 -6t34 -13q16 -7 27.5 -11.5t22.5 -4.5q10 0 24.5 6t22.5 26h38z" />
    <glyph glyph-name="ograve" unicode="&#xf2;" horiz-adv-x="561" 
d="M91 196q0 63 23.5 126.5t68.5 112.5q78 86 200 86q15 0 33 -2t36.5 -7.5t36.5 -16t34 -27.5q18 -18 28 -38.5t15.5 -41.5t7 -40t1.5 -33q0 -51 -13 -100.5t-47 -100.5q-45 -66 -104 -94t-131 -28q-32 0 -69.5 10.5t-69.5 45.5q-6 7 -14.5 19t-16.5 30t-13.5 42.5
t-5.5 56.5zM157 192q0 -54 16.5 -83.5t38 -43.5t42 -17t28.5 -3q60 0 101 24.5t73 72.5q23 33 38 76.5t15 98.5q0 26 -5.5 53.5t-25.5 52.5q-36 45 -98 45q-17 0 -36 -3.5t-40 -12.5t-42 -25t-41 -41q-29 -38 -46.5 -87.5t-17.5 -106.5zM487 610h-48l-105 130h91z" />
    <glyph glyph-name="oacute" unicode="&#xf3;" horiz-adv-x="561" 
d="M91 196q0 63 23.5 126.5t68.5 112.5q78 86 200 86q15 0 33 -2t36.5 -7.5t36.5 -16t34 -27.5q18 -18 28 -38.5t15.5 -41.5t7 -40t1.5 -33q0 -51 -13 -100.5t-47 -100.5q-45 -66 -104 -94t-131 -28q-32 0 -69.5 10.5t-69.5 45.5q-6 7 -14.5 19t-16.5 30t-13.5 42.5
t-5.5 56.5zM157 192q0 -54 16.5 -83.5t38 -43.5t42 -17t28.5 -3q60 0 101 24.5t73 72.5q23 33 38 76.5t15 98.5q0 26 -5.5 53.5t-25.5 52.5q-36 45 -98 45q-17 0 -36 -3.5t-40 -12.5t-42 -25t-41 -41q-29 -38 -46.5 -87.5t-17.5 -106.5zM547 740l-154 -130h-56l116 130h94z
" />
    <glyph glyph-name="ocircumflex" unicode="&#xf4;" horiz-adv-x="561" 
d="M91 196q0 63 23.5 126.5t68.5 112.5q78 86 200 86q15 0 33 -2t36.5 -7.5t36.5 -16t34 -27.5q18 -18 28 -38.5t15.5 -41.5t7 -40t1.5 -33q0 -51 -13 -100.5t-47 -100.5q-45 -66 -104 -94t-131 -28q-32 0 -69.5 10.5t-69.5 45.5q-6 7 -14.5 19t-16.5 30t-13.5 42.5
t-5.5 56.5zM157 192q0 -54 16.5 -83.5t38 -43.5t42 -17t28.5 -3q60 0 101 24.5t73 72.5q23 33 38 76.5t15 98.5q0 26 -5.5 53.5t-25.5 52.5q-36 45 -98 45q-17 0 -36 -3.5t-40 -12.5t-42 -25t-41 -41q-29 -38 -46.5 -87.5t-17.5 -106.5zM321 610h-60l137 130h76l83 -130h-56
l-70 96z" />
    <glyph glyph-name="otilde" unicode="&#xf5;" horiz-adv-x="561" 
d="M91 196q0 63 23.5 126.5t68.5 112.5q78 86 200 86q15 0 33 -2t36.5 -7.5t36.5 -16t34 -27.5q18 -18 28 -38.5t15.5 -41.5t7 -40t1.5 -33q0 -51 -13 -100.5t-47 -100.5q-45 -66 -104 -94t-131 -28q-32 0 -69.5 10.5t-69.5 45.5q-6 7 -14.5 19t-16.5 30t-13.5 42.5
t-5.5 56.5zM157 192q0 -54 16.5 -83.5t38 -43.5t42 -17t28.5 -3q60 0 101 24.5t73 72.5q23 33 38 76.5t15 98.5q0 26 -5.5 53.5t-25.5 52.5q-36 45 -98 45q-17 0 -36 -3.5t-40 -12.5t-42 -25t-41 -41q-29 -38 -46.5 -87.5t-17.5 -106.5zM576 741q-5 -32 -28.5 -56.5
t-65.5 -24.5q-20 0 -35 4.5t-29 10.5q-15 7 -30 13.5t-29 6.5q-10 0 -25 -7t-24 -28h-38q6 38 33.5 61t62.5 23q20 0 39 -6t34 -13q16 -7 27.5 -11.5t22.5 -4.5q10 0 24.5 6t22.5 26h38z" />
    <glyph glyph-name="odieresis" unicode="&#xf6;" horiz-adv-x="561" 
d="M91 196q0 63 23.5 126.5t68.5 112.5q78 86 200 86q15 0 33 -2t36.5 -7.5t36.5 -16t34 -27.5q18 -18 28 -38.5t15.5 -41.5t7 -40t1.5 -33q0 -51 -13 -100.5t-47 -100.5q-45 -66 -104 -94t-131 -28q-32 0 -69.5 10.5t-69.5 45.5q-6 7 -14.5 19t-16.5 30t-13.5 42.5
t-5.5 56.5zM157 192q0 -54 16.5 -83.5t38 -43.5t42 -17t28.5 -3q60 0 101 24.5t73 72.5q23 33 38 76.5t15 98.5q0 26 -5.5 53.5t-25.5 52.5q-36 45 -98 45q-17 0 -36 -3.5t-40 -12.5t-42 -25t-41 -41q-29 -38 -46.5 -87.5t-17.5 -106.5zM358 720l-17 -80h-69l17 80h69z
M547 720l-17 -80h-69l17 80h69z" />
    <glyph glyph-name="divide" unicode="&#xf7;" 
d="M100 378h500v-56h-500v56zM290 150q0 25 17.5 42.5t42.5 17.5t42.5 -17.5t17.5 -42.5t-17.5 -42.5t-42.5 -17.5t-42.5 17.5t-17.5 42.5zM290 550q0 25 17.5 42.5t42.5 17.5t42.5 -17.5t17.5 -42.5t-17.5 -42.5t-42.5 -17.5t-42.5 17.5t-17.5 42.5z" />
    <glyph glyph-name="oslash" unicode="&#xf8;" horiz-adv-x="561" 
d="M117 69q-16 26 -22.5 54t-6.5 67q0 72 26.5 134.5t71.5 110.5q39 42 87.5 64t112.5 22q28 0 49.5 -4.5t37.5 -11t27.5 -14.5t19.5 -15l65 65l30 -26l-69 -70q19 -30 25.5 -56t6.5 -55q0 -85 -26.5 -148t-71.5 -108q-42 -42 -90.5 -64t-111.5 -22q-56 0 -87 14.5t-50 32.5
l-60 -61l-31 24zM473 428q-17 20 -40 30t-58 10q-45 0 -80 -17.5t-62 -47.5q-33 -36 -55.5 -89t-22.5 -116q0 -22 2.5 -39.5t11.5 -37.5zM189 87q17 -20 40 -31t60 -11q45 0 78.5 16.5t62.5 48.5q38 42 59.5 96.5t21.5 114.5q0 22 -4 39t-13 34z" />
    <glyph glyph-name="ugrave" unicode="&#xf9;" horiz-adv-x="556" 
d="M245 513l-65 -320q-2 -11 -4.5 -24t-2.5 -33q0 -6 0.5 -14.5t2.5 -18t6.5 -19t13.5 -17.5q11 -10 28 -16t40 -6q68 0 118 47q7 6 17 17t20.5 26.5t19.5 35.5t14 45l60 297h63l-80 -396l-20 -117h-59l21 102h-1q-29 -46 -67 -72q-17 -13 -47 -25.5t-75 -12.5
q-26 0 -49.5 6.5t-44.5 24.5q-26 22 -35 50t-9 60q0 20 2.5 36t6.5 33l63 311h63zM439 610h-48l-105 130h91z" />
    <glyph glyph-name="uacute" unicode="&#xfa;" horiz-adv-x="556" 
d="M245 513l-65 -320q-2 -11 -4.5 -24t-2.5 -33q0 -6 0.5 -14.5t2.5 -18t6.5 -19t13.5 -17.5q11 -10 28 -16t40 -6q68 0 118 47q7 6 17 17t20.5 26.5t19.5 35.5t14 45l60 297h63l-80 -396l-20 -117h-59l21 102h-1q-29 -46 -67 -72q-17 -13 -47 -25.5t-75 -12.5
q-26 0 -49.5 6.5t-44.5 24.5q-26 22 -35 50t-9 60q0 20 2.5 36t6.5 33l63 311h63zM554 740l-154 -130h-56l116 130h94z" />
    <glyph glyph-name="ucircumflex" unicode="&#xfb;" horiz-adv-x="556" 
d="M245 513l-65 -320q-2 -11 -4.5 -24t-2.5 -33q0 -6 0.5 -14.5t2.5 -18t6.5 -19t13.5 -17.5q11 -10 28 -16t40 -6q68 0 118 47q7 6 17 17t20.5 26.5t19.5 35.5t14 45l60 297h63l-80 -396l-20 -117h-59l21 102h-1q-29 -46 -67 -72q-17 -13 -47 -25.5t-75 -12.5
q-26 0 -49.5 6.5t-44.5 24.5q-26 22 -35 50t-9 60q0 20 2.5 36t6.5 33l63 311h63zM318 610h-60l137 130h76l83 -130h-56l-70 96z" />
    <glyph glyph-name="udieresis" unicode="&#xfc;" horiz-adv-x="556" 
d="M245 513l-65 -320q-2 -11 -4.5 -24t-2.5 -33q0 -6 0.5 -14.5t2.5 -18t6.5 -19t13.5 -17.5q11 -10 28 -16t40 -6q68 0 118 47q7 6 17 17t20.5 26.5t19.5 35.5t14 45l60 297h63l-80 -396l-20 -117h-59l21 102h-1q-29 -46 -67 -72q-17 -13 -47 -25.5t-75 -12.5
q-26 0 -49.5 6.5t-44.5 24.5q-26 22 -35 50t-9 60q0 20 2.5 36t6.5 33l63 311h63zM355 720l-17 -80h-69l17 80h69zM544 720l-17 -80h-69l17 80h69z" />
    <glyph glyph-name="yacute" unicode="&#xfd;" horiz-adv-x="494" 
d="M35 -155q8 -2 23.5 -5.5t23.5 -3.5q18 0 32 7t25 18.5t20 26t17 28.5l36 67l-78 530h65l56 -392l5 -51l3 1l236 442h69l-347 -629q-25 -46 -57 -75t-85 -29q-14 0 -30.5 2.5t-30.5 6.5zM490 740l-154 -130h-56l116 130h94z" />
    <glyph glyph-name="thorn" unicode="&#xfe;" horiz-adv-x="566" 
d="M35 -219l187 919h63l-49 -241l-17 -52h3q17 26 39.5 49t45.5 37q18 11 43 19.5t54 8.5q58 0 92.5 -20t51.5 -44q21 -29 27 -62t6 -59q0 -84 -29.5 -156t-77.5 -117q-39 -38 -83 -54.5t-87 -16.5q-30 0 -56 9.5t-44 25.5q-27 24 -41 65h-3l-8 -49l-54 -262h-63zM195 257
q-3 -16 -5 -31.5t-2 -32.5q0 -46 12 -74t29 -43q15 -14 37.5 -22.5t40.5 -8.5q32 0 68 17t68 59q34 43 52 96.5t18 101.5q0 28 -7 58.5t-23 50.5q-14 18 -37.5 29t-52.5 11q-32 0 -67 -17t-61 -46q-24 -27 -43 -68t-27 -80z" />
    <glyph glyph-name="ydieresis" unicode="&#xff;" horiz-adv-x="494" 
d="M35 -155q8 -2 23.5 -5.5t23.5 -3.5q18 0 32 7t25 18.5t20 26t17 28.5l36 67l-78 530h65l56 -392l5 -51l3 1l236 442h69l-347 -629q-25 -46 -57 -75t-85 -29q-14 0 -30.5 2.5t-30.5 6.5zM321 720l-17 -80h-69l17 80h69zM510 720l-17 -80h-69l17 80h69z" />
    <glyph glyph-name="Amacron" unicode="&#x100;" horiz-adv-x="650" 
d="M427 700h86l122 -700h-72l-33 192h-329l-113 -192h-73zM520 249l-62 385h-2l-221 -385h285zM630 834l-13 -60h-262l13 60h262z" />
    <glyph glyph-name="amacron" unicode="&#x101;" horiz-adv-x="566" 
d="M256 -8q-77 0 -122 48t-45 142q0 78 22.5 141t59.5 107t85.5 67.5t99.5 23.5q58 0 92 -25t57 -75l18 89h63l-104 -510h-55l21 106h-3q-30 -48 -79 -81t-110 -33zM264 45q39 0 77 20t68 56t49 87t19 113q0 73 -33.5 110t-85.5 37q-35 0 -71.5 -20t-66 -57.5t-48 -91
t-18.5 -120.5q0 -71 28.5 -102.5t81.5 -31.5zM559 727l-11 -54h-252l11 54h252z" />
    <glyph glyph-name="Abreve" unicode="&#x102;" horiz-adv-x="650" 
d="M427 700h86l122 -700h-72l-33 192h-329l-113 -192h-73zM520 249l-62 385h-2l-221 -385h285zM404 870q3 -17 12 -28t22 -18t27.5 -9.5t27.5 -2.5q28 0 60.5 12t52.5 46h60q-13 -24 -30 -44t-36 -34q-23 -17 -53.5 -27.5t-65.5 -10.5q-50 0 -88 29q-25 20 -35.5 42.5
t-13.5 44.5h60z" />
    <glyph glyph-name="abreve" unicode="&#x103;" horiz-adv-x="566" 
d="M256 -8q-77 0 -122 48t-45 142q0 78 22.5 141t59.5 107t85.5 67.5t99.5 23.5q58 0 92 -25t57 -75l18 89h63l-104 -510h-55l21 106h-3q-30 -48 -79 -81t-110 -33zM264 45q39 0 77 20t68 56t49 87t19 113q0 73 -33.5 110t-85.5 37q-35 0 -71.5 -20t-66 -57.5t-48 -91
t-18.5 -120.5q0 -71 28.5 -102.5t81.5 -31.5zM328 740q6 -24 19.5 -37t27.5 -19t27 -7t18 -1q24 0 43.5 6.5t33.5 16t24.5 20.5t16.5 21h56q-30 -58 -80.5 -87t-103.5 -29q-51 0 -90 29.5t-48 86.5h56z" />
    <glyph glyph-name="Aogonek" unicode="&#x104;" horiz-adv-x="650" 
d="M563 0l-33 192h-329l-113 -192h-73l412 700h86l122 -700q-21 -18 -39 -32.5t-31 -27.5t-20.5 -26.5t-7.5 -29.5q0 -14 8.5 -23.5t25.5 -9.5q15 0 29 4.5t24 10.5l14 -37q-16 -12 -37 -18t-43 -6q-33 0 -53 17.5t-20 55.5q0 42 27.5 70.5t63.5 51.5h-13zM520 249l-62 385
h-2l-221 -385h285z" />
    <glyph glyph-name="aogonek" unicode="&#x105;" horiz-adv-x="566" 
d="M427 0l21 106h-3q-30 -48 -79 -81t-110 -33q-77 0 -122 48t-45 142q0 78 22.5 141t59.5 107t85.5 67.5t99.5 23.5q58 0 92 -25t57 -75l18 89h63l-104 -510q-24 -18 -37 -30.5t-23 -23.5q-8 -8 -16.5 -22t-8.5 -31q0 -15 8 -21q11 -8 23 -8q11 0 21.5 4.5t22.5 11.5
l11 -35q-9 -5 -16 -8.5t-10 -5.5q-10 -5 -18.5 -7t-20.5 -2q-14 0 -27 3t-24 14q-19 18 -19 45q0 24 11 42.5t22 30.5q10 11 22.5 22.5t25.5 20.5h-2zM264 45q39 0 77 20t68 56t49 87t19 113q0 73 -33.5 110t-85.5 37q-35 0 -71.5 -20t-66 -57.5t-48 -91t-18.5 -120.5
q0 -71 28.5 -102.5t81.5 -31.5z" />
    <glyph glyph-name="Cacute" unicode="&#x106;" horiz-adv-x="613" 
d="M591 19q-39 -13 -81.5 -20t-90.5 -7q-59 0 -116.5 15.5t-103.5 61.5q-32 32 -54.5 85t-22.5 128t25.5 146t70.5 128q38 47 80.5 76.5t87 46.5t88.5 23t84 6t77.5 -5.5t79.5 -20.5l-18 -60q-35 14 -71.5 21.5t-68.5 7.5q-64 0 -133 -26.5t-123 -80.5q-46 -48 -77 -117
t-31 -150q0 -35 6.5 -62.5t16.5 -48.5t21.5 -35.5t21.5 -24.5q20 -19 43 -30.5t45.5 -17.5t42.5 -7.5t34 -1.5q32 0 61 4t53 9.5t41 11t25 8.5zM713 870l-150 -120h-70l108 120h112z" />
    <glyph glyph-name="cacute" unicode="&#x107;" horiz-adv-x="464" 
d="M518 445q-29 13 -57 18t-54 5q-54 0 -95.5 -19t-75.5 -55q-35 -38 -55.5 -89t-20.5 -106q0 -33 9 -60.5t32 -49.5q14 -14 43.5 -29t80.5 -15q31 0 61 6t55 15l-5 -54q-28 -10 -56 -15t-63 -5q-23 0 -47.5 3t-49 12t-47.5 25t-42 42q-14 20 -25.5 50t-11.5 78q0 69 26 129
t69 103q48 49 103 68t115 19q38 0 68.5 -6t56.5 -14zM577 740l-154 -130h-56l116 130h94z" />
    <glyph glyph-name="Ccircumflex" unicode="&#x108;" horiz-adv-x="613" 
d="M591 19q-39 -13 -81.5 -20t-90.5 -7q-59 0 -116.5 15.5t-103.5 61.5q-32 32 -54.5 85t-22.5 128t25.5 146t70.5 128q38 47 80.5 76.5t87 46.5t88.5 23t84 6t77.5 -5.5t79.5 -20.5l-18 -60q-35 14 -71.5 21.5t-68.5 7.5q-64 0 -133 -26.5t-123 -80.5q-46 -48 -77 -117
t-31 -150q0 -35 6.5 -62.5t16.5 -48.5t21.5 -35.5t21.5 -24.5q20 -19 43 -30.5t45.5 -17.5t42.5 -7.5t34 -1.5q32 0 61 4t53 9.5t41 11t25 8.5zM480 750h-70l127 120h96l77 -120h-66l-63 86z" />
    <glyph glyph-name="ccircumflex" unicode="&#x109;" horiz-adv-x="464" 
d="M518 445q-29 13 -57 18t-54 5q-54 0 -95.5 -19t-75.5 -55q-35 -38 -55.5 -89t-20.5 -106q0 -33 9 -60.5t32 -49.5q14 -14 43.5 -29t80.5 -15q31 0 61 6t55 15l-5 -54q-28 -10 -56 -15t-63 -5q-23 0 -47.5 3t-49 12t-47.5 25t-42 42q-14 20 -25.5 50t-11.5 78q0 69 26 129
t69 103q48 49 103 68t115 19q38 0 68.5 -6t56.5 -14zM312 610h-60l137 130h76l83 -130h-56l-70 96z" />
    <glyph glyph-name="Cdotaccent" unicode="&#x10a;" horiz-adv-x="613" 
d="M591 19q-39 -13 -81.5 -20t-90.5 -7q-59 0 -116.5 15.5t-103.5 61.5q-32 32 -54.5 85t-22.5 128t25.5 146t70.5 128q38 47 80.5 76.5t87 46.5t88.5 23t84 6t77.5 -5.5t79.5 -20.5l-18 -60q-35 14 -71.5 21.5t-68.5 7.5q-64 0 -133 -26.5t-123 -80.5q-46 -48 -77 -117
t-31 -150q0 -35 6.5 -62.5t16.5 -48.5t21.5 -35.5t21.5 -24.5q20 -19 43 -30.5t45.5 -17.5t42.5 -7.5t34 -1.5q32 0 61 4t53 9.5t41 11t25 8.5zM611 846l-18 -86h-82l18 86h82z" />
    <glyph glyph-name="cdotaccent" unicode="&#x10b;" horiz-adv-x="464" 
d="M518 445q-29 13 -57 18t-54 5q-54 0 -95.5 -19t-75.5 -55q-35 -38 -55.5 -89t-20.5 -106q0 -33 9 -60.5t32 -49.5q14 -14 43.5 -29t80.5 -15q31 0 61 6t55 15l-5 -54q-28 -10 -56 -15t-63 -5q-23 0 -47.5 3t-49 12t-47.5 25t-42 42q-14 20 -25.5 50t-11.5 78q0 69 26 129
t69 103q48 49 103 68t115 19q38 0 68.5 -6t56.5 -14zM480 720l-17 -80h-69l17 80h69z" />
    <glyph glyph-name="Ccaron" unicode="&#x10c;" horiz-adv-x="613" 
d="M591 19q-39 -13 -81.5 -20t-90.5 -7q-59 0 -116.5 15.5t-103.5 61.5q-32 32 -54.5 85t-22.5 128t25.5 146t70.5 128q38 47 80.5 76.5t87 46.5t88.5 23t84 6t77.5 -5.5t79.5 -20.5l-18 -60q-35 14 -71.5 21.5t-68.5 7.5q-64 0 -133 -26.5t-123 -80.5q-46 -48 -77 -117
t-31 -150q0 -35 6.5 -62.5t16.5 -48.5t21.5 -35.5t21.5 -24.5q20 -19 43 -30.5t45.5 -17.5t42.5 -7.5t34 -1.5q32 0 61 4t53 9.5t41 11t25 8.5zM652 870h70l-127 -120h-96l-77 120h66l63 -86z" />
    <glyph glyph-name="ccaron" unicode="&#x10d;" horiz-adv-x="464" 
d="M518 445q-29 13 -57 18t-54 5q-54 0 -95.5 -19t-75.5 -55q-35 -38 -55.5 -89t-20.5 -106q0 -33 9 -60.5t32 -49.5q14 -14 43.5 -29t80.5 -15q31 0 61 6t55 15l-5 -54q-28 -10 -56 -15t-63 -5q-23 0 -47.5 3t-49 12t-47.5 25t-42 42q-14 20 -25.5 50t-11.5 78q0 69 26 129
t69 103q48 49 103 68t115 19q38 0 68.5 -6t56.5 -14zM529 740h60l-137 -130h-76l-83 130h56l70 -96z" />
    <glyph glyph-name="Dcaron" unicode="&#x10e;" horiz-adv-x="692" 
d="M413 700q24 0 51.5 -1.5t56.5 -7t56.5 -16t51.5 -29.5q27 -21 43.5 -46t26 -52t13 -54.5t3.5 -52.5q0 -93 -30 -174.5t-84 -139.5q-39 -41 -82 -66t-86.5 -38.5t-85 -18t-76.5 -4.5h-105h-66l142 700h66h105zM178 57h98q10 0 34 1.5t55 8.5t67 22t71 41.5t66 67t52 99.5
q12 33 17.5 66t5.5 65q0 50 -14 91.5t-40 67.5q-20 20 -43.5 31.5t-49 17t-51.5 6.5t-51 1h-98zM523 870h70l-127 -120h-96l-77 120h66l63 -86z" />
    <glyph glyph-name="dcaron" unicode="&#x10f;" horiz-adv-x="610" 
d="M637 762l-135 -663l-16 -99h-59l21 106h-3q-13 -20 -33 -42.5t-51 -41.5q-23 -14 -48 -22t-57 -8q-45 0 -74 14t-44 29q-20 20 -34.5 55t-14.5 92q0 67 18.5 129.5t60.5 113.5q76 96 188 96q28 0 54.5 -7.5t49.5 -27.5q31 -30 45 -65l69 341h63zM477 321q0 8 -1 20.5
t-3.5 26t-7.5 27.5t-13 26q-17 23 -42 35t-52 12q-37 0 -77.5 -22t-73.5 -73q-29 -45 -41 -95.5t-12 -98.5q0 -36 6.5 -57t14.5 -33q12 -18 33 -31t56 -13q12 0 31.5 3t43 14t48 32.5t46.5 58.5q21 36 32.5 78t11.5 90zM790 762l-95 -170h-50l75 170h70z" />
    <glyph glyph-name="Dcroat" unicode="&#x110;" horiz-adv-x="727" 
d="M452 700q26 0 58.5 -2t65.5 -8.5t64.5 -19.5t55.5 -35.5t39 -56t15 -80.5q0 -55 -9.5 -113.5t-31 -113.5t-56 -104.5t-83.5 -86.5t-113.5 -58.5t-146.5 -21.5h-104h-67l70 346h-109l10 45h109l62 309h67h104zM285 391h199l-10 -45h-199l-58 -289h98q78 0 135 21.5
t97.5 56t66.5 79t40.5 90t20 88.5t5.5 76q0 63 -26.5 98t-64.5 52t-80.5 21t-74.5 4h-98z" />
    <glyph glyph-name="dcroat" unicode="&#x111;" horiz-adv-x="566" 
d="M640 762l-20 -99h85l-9 -45h-85l-106 -519l-16 -99h-59l21 106h-3q-19 -29 -41.5 -49.5t-45.5 -34.5q-29 -17 -56 -23.5t-56 -6.5q-11 0 -25.5 1.5t-30.5 7t-32.5 16.5t-31.5 29q-18 23 -29 56t-11 76q0 34 6.5 71t20 73t34 68.5t47.5 59.5q45 43 90 57t80 14
q16 0 35.5 -3.5t39 -14.5t37 -30.5t29.5 -51.5l40 197h-204l9 45h204l20 99h63zM481 323q0 24 -6 51.5t-20 47.5q-16 23 -41.5 34.5t-51.5 11.5q-33 0 -67 -17t-61 -46q-14 -15 -28 -35t-25 -46.5t-18 -59t-7 -71.5q0 -24 4.5 -55t26.5 -56q13 -15 35 -26t54 -11q35 0 68 17
t60 46q38 45 57.5 104.5t19.5 110.5z" />
    <glyph glyph-name="Emacron" unicode="&#x112;" horiz-adv-x="509" 
d="M582 700l-11 -57h-274l-52 -253h261l-11 -57h-261l-56 -276h293l-12 -57h-292h-67l142 700h66h274zM555 834l-13 -60h-262l13 60h262z" />
    <glyph glyph-name="emacron" unicode="&#x113;" horiz-adv-x="509" 
d="M284 -8q-94 0 -147 52.5t-53 145.5q0 76 22.5 137.5t62.5 104.5t95 66t120 23q32 0 59.5 -8.5t48 -24.5t32 -38.5t11.5 -49.5q0 -42 -18 -76.5t-62 -58.5t-118 -38t-187 -16v-18q0 -72 37 -110t112 -38q31 0 69.5 6.5t77.5 26.5l-12 -58q-35 -14 -69.5 -21t-80.5 -7z
M369 468q-38 0 -72.5 -13.5t-63 -40t-48.5 -64.5t-29 -86q86 1 146.5 9.5t98.5 25.5t55 42t17 59q0 29 -25.5 48.5t-78.5 19.5zM530 727l-11 -54h-252l11 54h252z" />
    <glyph glyph-name="Edotaccent" unicode="&#x116;" horiz-adv-x="509" 
d="M582 700l-11 -57h-274l-52 -253h261l-11 -57h-261l-56 -276h293l-12 -57h-292h-67l142 700h66h274zM474 846l-18 -86h-82l18 86h82z" />
    <glyph glyph-name="edotaccent" unicode="&#x117;" horiz-adv-x="509" 
d="M284 -8q-94 0 -147 52.5t-53 145.5q0 76 22.5 137.5t62.5 104.5t95 66t120 23q32 0 59.5 -8.5t48 -24.5t32 -38.5t11.5 -49.5q0 -42 -18 -76.5t-62 -58.5t-118 -38t-187 -16v-18q0 -72 37 -110t112 -38q31 0 69.5 6.5t77.5 26.5l-12 -58q-35 -14 -69.5 -21t-80.5 -7z
M369 468q-38 0 -72.5 -13.5t-63 -40t-48.5 -64.5t-29 -86q86 1 146.5 9.5t98.5 25.5t55 42t17 59q0 29 -25.5 48.5t-78.5 19.5zM437 720l-17 -80h-69l17 80h69z" />
    <glyph glyph-name="Eogonek" unicode="&#x118;" horiz-adv-x="509" 
d="M582 700l-11 -57h-274l-52 -253h261l-11 -57h-261l-56 -276h293l-12 -57h-114q-23 -18 -40.5 -31.5t-29.5 -25.5t-21.5 -26t-10.5 -31q0 -16 10 -25q7 -5 13 -6.5t11 -1.5q15 0 33 7t28 13l14 -41q-9 -7 -16 -10t-17 -6q-14 -6 -24 -8.5t-27 -2.5q-11 0 -26.5 3t-28.5 14
q-10 8 -17 24.5t-7 31.5q0 13 7.5 33.5t34.5 46.5q13 12 27 22.5t28 19.5h-120h-66l142 700h68h272z" />
    <glyph glyph-name="eogonek" unicode="&#x119;" horiz-adv-x="509" 
d="M284 -8q-94 0 -147 52.5t-53 145.5q0 76 22.5 137.5t62.5 104.5t95 66t120 23q32 0 59.5 -8.5t48 -24.5t32 -38.5t11.5 -49.5q0 -42 -18 -76.5t-62 -58.5t-118 -38t-187 -16v-18q0 -72 37 -110t112 -38q31 0 69.5 6.5t77.5 26.5l-12 -58q-35 -14 -69.5 -21t-80.5 -7z
M369 468q-38 0 -72.5 -13.5t-63 -40t-48.5 -64.5t-29 -86q86 1 146.5 9.5t98.5 25.5t55 42t17 59q0 29 -25.5 48.5t-78.5 19.5zM366 0q-24 -18 -37 -30.5t-23 -23.5q-8 -8 -16.5 -22t-8.5 -31q0 -15 8 -21q11 -8 23 -8q11 0 21.5 4.5t22.5 11.5l11 -35q-9 -5 -16 -8.5
t-10 -5.5q-10 -5 -18.5 -7t-20.5 -2q-14 0 -27 3t-24 14q-19 18 -19 45q0 24 11 42.5t22 30.5q10 11 22.5 22.5t25.5 20.5h53z" />
    <glyph glyph-name="Ecaron" unicode="&#x11a;" horiz-adv-x="509" 
d="M582 700l-11 -57h-274l-52 -253h261l-11 -57h-261l-56 -276h293l-12 -57h-292h-67l142 700h66h274zM511 870h70l-127 -120h-96l-77 120h66l63 -86z" />
    <glyph glyph-name="ecaron" unicode="&#x11b;" horiz-adv-x="509" 
d="M284 -8q-94 0 -147 52.5t-53 145.5q0 76 22.5 137.5t62.5 104.5t95 66t120 23q32 0 59.5 -8.5t48 -24.5t32 -38.5t11.5 -49.5q0 -42 -18 -76.5t-62 -58.5t-118 -38t-187 -16v-18q0 -72 37 -110t112 -38q31 0 69.5 6.5t77.5 26.5l-12 -58q-35 -14 -69.5 -21t-80.5 -7z
M369 468q-38 0 -72.5 -13.5t-63 -40t-48.5 -64.5t-29 -86q86 1 146.5 9.5t98.5 25.5t55 42t17 59q0 29 -25.5 48.5t-78.5 19.5zM493 740h60l-137 -130h-76l-83 130h56l70 -96z" />
    <glyph glyph-name="Gcircumflex" unicode="&#x11c;" horiz-adv-x="716" 
d="M726 608q-39 20 -81.5 31.5t-87.5 11.5q-73 0 -143 -30t-125 -93q-48 -54 -72.5 -121t-24.5 -130q0 -45 15.5 -88t45.5 -74q32 -32 82.5 -49t110.5 -17q34 0 69 5.5t70 18.5l48 236h-170l11 57h236l-68 -335q-51 -19 -104 -29t-107 -10q-64 0 -120.5 16t-95.5 51
q-38 33 -66 89.5t-28 132.5q0 86 37 173t113 153q66 57 134 79t149 22q54 0 100 -9t94 -29zM490 750h-70l127 120h96l77 -120h-66l-63 86z" />
    <glyph glyph-name="gcircumflex" unicode="&#x11d;" horiz-adv-x="568" 
d="M568 414l-84 -413q-4 -18 -10 -39.5t-16 -43.5t-25 -43t-37 -39q-35 -29 -87 -44.5t-115 -15.5q-36 0 -70 6.5t-71 21.5l18 61q38 -21 73 -28.5t61 -7.5q51 0 93 16.5t68 42.5q20 21 34 52.5t22 66.5l18 85q-11 -16 -29 -34.5t-33 -29.5q-18 -14 -47 -25t-71 -11
q-33 0 -64.5 10t-57.5 38q-6 7 -14.5 19t-16 30.5t-13 44t-5.5 60.5q0 69 22 131t60 107q27 31 55 49t53.5 27t46.5 11t34 2q7 0 27 -2.5t43 -13.5t45 -34t33 -64h3l22 106h59zM480 319q0 66 -30.5 107.5t-87.5 41.5q-38 0 -79.5 -20t-75.5 -71q-24 -36 -38 -83t-14 -99
q0 -7 0.5 -20t3.5 -29t9 -32.5t16 -29.5q19 -26 42 -32.5t40 -6.5q14 0 34.5 3t44 14.5t47.5 33t45 58.5q22 39 32.5 82.5t10.5 82.5zM293 610h-60l137 130h76l83 -130h-56l-70 96z" />
    <glyph glyph-name="Gbreve" unicode="&#x11e;" horiz-adv-x="716" 
d="M726 608q-39 20 -81.5 31.5t-87.5 11.5q-73 0 -143 -30t-125 -93q-48 -54 -72.5 -121t-24.5 -130q0 -45 15.5 -88t45.5 -74q32 -32 82.5 -49t110.5 -17q34 0 69 5.5t70 18.5l48 236h-170l11 57h236l-68 -335q-51 -19 -104 -29t-107 -10q-64 0 -120.5 16t-95.5 51
q-38 33 -66 89.5t-28 132.5q0 86 37 173t113 153q66 57 134 79t149 22q54 0 100 -9t94 -29zM486 870q3 -17 12 -28t22 -18t27.5 -9.5t27.5 -2.5q28 0 60.5 12t52.5 46h60q-13 -24 -30 -44t-36 -34q-23 -17 -53.5 -27.5t-65.5 -10.5q-50 0 -88 29q-25 20 -35.5 42.5
t-13.5 44.5h60z" />
    <glyph glyph-name="gbreve" unicode="&#x11f;" horiz-adv-x="568" 
d="M568 414l-84 -413q-4 -18 -10 -39.5t-16 -43.5t-25 -43t-37 -39q-35 -29 -87 -44.5t-115 -15.5q-36 0 -70 6.5t-71 21.5l18 61q38 -21 73 -28.5t61 -7.5q51 0 93 16.5t68 42.5q20 21 34 52.5t22 66.5l18 85q-11 -16 -29 -34.5t-33 -29.5q-18 -14 -47 -25t-71 -11
q-33 0 -64.5 10t-57.5 38q-6 7 -14.5 19t-16 30.5t-13 44t-5.5 60.5q0 69 22 131t60 107q27 31 55 49t53.5 27t46.5 11t34 2q7 0 27 -2.5t43 -13.5t45 -34t33 -64h3l22 106h59zM480 319q0 66 -30.5 107.5t-87.5 41.5q-38 0 -79.5 -20t-75.5 -71q-24 -36 -38 -83t-14 -99
q0 -7 0.5 -20t3.5 -29t9 -32.5t16 -29.5q19 -26 42 -32.5t40 -6.5q14 0 34.5 3t44 14.5t47.5 33t45 58.5q22 39 32.5 82.5t10.5 82.5zM301 740q6 -24 19.5 -37t27.5 -19t27 -7t18 -1q24 0 43.5 6.5t33.5 16t24.5 20.5t16.5 21h56q-30 -58 -80.5 -87t-103.5 -29
q-51 0 -90 29.5t-48 86.5h56z" />
    <glyph glyph-name="Gdotaccent" unicode="&#x120;" horiz-adv-x="716" 
d="M726 608q-39 20 -81.5 31.5t-87.5 11.5q-73 0 -143 -30t-125 -93q-48 -54 -72.5 -121t-24.5 -130q0 -45 15.5 -88t45.5 -74q32 -32 82.5 -49t110.5 -17q34 0 69 5.5t70 18.5l48 236h-170l11 57h236l-68 -335q-51 -19 -104 -29t-107 -10q-64 0 -120.5 16t-95.5 51
q-38 33 -66 89.5t-28 132.5q0 86 37 173t113 153q66 57 134 79t149 22q54 0 100 -9t94 -29zM631 846l-18 -86h-82l18 86h82z" />
    <glyph glyph-name="gdotaccent" unicode="&#x121;" horiz-adv-x="568" 
d="M568 414l-84 -413q-4 -18 -10 -39.5t-16 -43.5t-25 -43t-37 -39q-35 -29 -87 -44.5t-115 -15.5q-36 0 -70 6.5t-71 21.5l18 61q38 -21 73 -28.5t61 -7.5q51 0 93 16.5t68 42.5q20 21 34 52.5t22 66.5l18 85q-11 -16 -29 -34.5t-33 -29.5q-18 -14 -47 -25t-71 -11
q-33 0 -64.5 10t-57.5 38q-6 7 -14.5 19t-16 30.5t-13 44t-5.5 60.5q0 69 22 131t60 107q27 31 55 49t53.5 27t46.5 11t34 2q7 0 27 -2.5t43 -13.5t45 -34t33 -64h3l22 106h59zM480 319q0 66 -30.5 107.5t-87.5 41.5q-38 0 -79.5 -20t-75.5 -71q-24 -36 -38 -83t-14 -99
q0 -7 0.5 -20t3.5 -29t9 -32.5t16 -29.5q19 -26 42 -32.5t40 -6.5q14 0 34.5 3t44 14.5t47.5 33t45 58.5q22 39 32.5 82.5t10.5 82.5zM430 720l-17 -80h-69l17 80h69z" />
    <glyph glyph-name="Gcommaaccent" unicode="&#x122;" horiz-adv-x="716" 
d="M726 608q-39 20 -81.5 31.5t-87.5 11.5q-73 0 -143 -30t-125 -93q-48 -54 -72.5 -121t-24.5 -130q0 -45 15.5 -88t45.5 -74q32 -32 82.5 -49t110.5 -17q34 0 69 5.5t70 18.5l48 236h-170l11 57h236l-68 -335q-51 -19 -104 -29t-107 -10q-64 0 -120.5 16t-95.5 51
q-38 33 -66 89.5t-28 132.5q0 86 37 173t113 153q66 57 134 79t149 22q54 0 100 -9t94 -29zM450 -50l-95 -170h-56l75 170h76z" />
    <glyph glyph-name="gcommaaccent" unicode="&#x123;" horiz-adv-x="568" 
d="M568 414l-84 -413q-4 -18 -10 -39.5t-16 -43.5t-25 -43t-37 -39q-35 -29 -87 -44.5t-115 -15.5q-36 0 -70 6.5t-71 21.5l18 61q38 -21 73 -28.5t61 -7.5q51 0 93 16.5t68 42.5q20 21 34 52.5t22 66.5l18 85q-11 -16 -29 -34.5t-33 -29.5q-18 -14 -47 -25t-71 -11
q-33 0 -64.5 10t-57.5 38q-6 7 -14.5 19t-16 30.5t-13 44t-5.5 60.5q0 69 22 131t60 107q27 31 55 49t53.5 27t46.5 11t34 2q7 0 27 -2.5t43 -13.5t45 -34t33 -64h3l22 106h59zM480 319q0 66 -30.5 107.5t-87.5 41.5q-38 0 -79.5 -20t-75.5 -71q-24 -36 -38 -83t-14 -99
q0 -7 0.5 -20t3.5 -29t9 -32.5t16 -29.5q19 -26 42 -32.5t40 -6.5q14 0 34.5 3t44 14.5t47.5 33t45 58.5q22 39 32.5 82.5t10.5 82.5zM350.022 593.994l94.9883 169.979h49.9941l-74.9912 -169.979h-69.9912z" />
    <glyph glyph-name="Hcircumflex" unicode="&#x124;" horiz-adv-x="696" 
d="M308 700l-62 -309h364l62 309h66l-142 -700h-66l68 334h-364l-68 -334h-66l142 700h66zM420 750h-70l127 120h96l77 -120h-66l-63 86z" />
    <glyph glyph-name="hcircumflex" unicode="&#x125;" horiz-adv-x="562" 
d="M298 762l-49 -243l-28 -112h2q14 23 34.5 44.5t44.5 37.5q29 18 57 25t54 7q32 0 58 -9.5t44 -25.5q14 -12 28 -36t14 -64q0 -11 -2 -26t-7 -41l-65 -319h-63l64 316l6 34t3 34q0 18 -5.5 34t-20.5 29q-16 14 -35.5 17.5t-33.5 3.5q-35 0 -63 -11t-57 -35
q-33 -29 -50 -60t-24 -63l-61 -299h-63l155 762h63zM188 790h-60l137 130h76l83 -130h-56l-70 96z" />
    <glyph glyph-name="Hbar" unicode="&#x126;" horiz-adv-x="722" 
d="M320 700l-29 -146h364l29 146h66l-29 -146h80l-9 -45h-80l-103 -509h-66l67 334h-364l-67 -334h-66l103 509h-80l9 45h80l29 146h66zM258 391h364l24 118h-364z" />
    <glyph glyph-name="hbar" unicode="&#x127;" horiz-adv-x="588" 
d="M231 618h-85l9 45h85l20 99h63l-20 -99h226l-9 -45h-226l-22 -105l-25 -105h1q15 24 34.5 44.5t47.5 37.5q27 17 53 24t58 7q45 0 72.5 -13t43 -33t20.5 -43t5 -43q0 -21 -3.5 -40.5t-6.5 -34.5l-64 -314h-63l64 316q4 17 6 29t2 29q0 16 -4.5 35t-21.5 35
q-15 15 -34 19.5t-39 4.5q-64 0 -115 -45q-19 -17 -40.5 -46.5t-33.5 -77.5l-61 -299h-63z" />
    <glyph glyph-name="Imacron" unicode="&#x12a;" horiz-adv-x="266" 
d="M308 700l-142 -700h-66l142 700h66zM435 834l-13 -60h-262l13 60h262z" />
    <glyph glyph-name="imacron" unicode="&#x12b;" horiz-adv-x="229" 
d="M250 513l-104 -513h-63l104 513h63zM390 727l-11 -54h-252l11 54h252z" />
    <glyph glyph-name="Iogonek" unicode="&#x12e;" horiz-adv-x="266" 
d="M308 700l-142 -700q-25 -18 -41.5 -31.5t-29.5 -26t-23 -28t-9 -29.5q0 -15 10 -22.5t17 -8t12 -0.5q15 0 29 6t24 12l14 -40q-11 -7 -27 -14.5t-26 -9.5t-27 -3q-11 0 -26.5 5.5t-26.5 15.5t-17 23.5t-6 33.5q2 16 10.5 34.5t28.5 39.5q13 13 27 23.5t28 19.5h-7
l142 700h66z" />
    <glyph glyph-name="iogonek" unicode="&#x12f;" horiz-adv-x="229" 
d="M246 513l-103 -508q-38 -27 -54 -40.5t-25 -24.5t-16 -25.5t-5 -34.5q3 -11 11.5 -19t26.5 -10q20 1 34.5 7t27.5 13l15 -39q-14 -8 -29.5 -13.5t-28.5 -9t-33 -4.5q-22 0 -38.5 9t-25.5 23t-11 38q0 24 9.5 44t23 34.5t27.5 26.5t27 21l104 512h63zM292 720l-17 -80h-69
l17 80h69z" />
    <glyph glyph-name="Idotaccent" unicode="&#x130;" horiz-adv-x="266" 
d="M308 700l-142 -700h-66l142 700h66zM353 846l-18 -86h-82l18 86h82z" />
    <glyph glyph-name="dotlessi" unicode="&#x131;" horiz-adv-x="229" 
d="M250 513l-104 -513h-63l104 513h63z" />
    <glyph glyph-name="Jcircumflex" unicode="&#x134;" horiz-adv-x="351" 
d="M393 700l-108 -532q-3 -14 -8 -33t-14 -38.5t-23 -38.5t-35 -34q-23 -17 -53 -25t-62 -8q-34 0 -75 11l18 58q30 -11 61 -11q23 0 46 8.5t41 28.5t26.5 42.5t13.5 46.5l106 525h66zM292 750h-70l127 120h96l77 -120h-66l-63 86z" />
    <glyph glyph-name="jcircumflex" unicode="&#x135;" horiz-adv-x="223" 
d="M128 -74q-2 -9 -8.5 -32.5t-22 -48.5t-42.5 -44.5t-70 -19.5q-27 0 -58 9l11 51q22 -7 43 -7q22 0 37 8.5t24 21t14 27.5t8 29l120 593h63zM156 623h-66l138 133h76l83 -133h-65l-63 99z" />
    <glyph glyph-name="Kcommaaccent" unicode="&#x136;" horiz-adv-x="591" 
d="M308 700l-65 -323h1l378 323h86l-399 -337l297 -363h-87l-267 335l-13 19l-1 -1l-72 -353h-66l142 700h66zM371 -50l-95 -170h-56l75 170h76z" />
    <glyph glyph-name="kcommaaccent" unicode="&#x137;" horiz-adv-x="480" 
d="M298 762l-97 -475h5l275 226h85l-302 -241l218 -272h-82l-201 252h-5l-51 -252h-63l155 762h63zM283 -50l-95 -170h-50l75 170h70z" />
    <glyph glyph-name="Lacute" unicode="&#x139;" horiz-adv-x="472" 
d="M308 700l-130 -643h286l-12 -57h-286h-66l142 700h66zM510 870l-150 -120h-70l108 120h112z" />
    <glyph glyph-name="lacute" unicode="&#x13a;" horiz-adv-x="223" 
d="M298 762l-155 -762h-63l155 762h63zM398 920l-154 -130h-56l116 130h94z" />
    <glyph glyph-name="Lcommaaccent" unicode="&#x13b;" horiz-adv-x="472" 
d="M308 700l-130 -643h286l-12 -57h-286h-66l142 700h66zM321 -50l-95 -170h-56l75 170h76z" />
    <glyph glyph-name="lcommaaccent" unicode="&#x13c;" horiz-adv-x="223" 
d="M298 762l-155 -762h-63l155 762h63zM131 -50l-95 -170h-50l75 170h70z" />
    <glyph glyph-name="Lcaron" unicode="&#x13d;" horiz-adv-x="472" 
d="M308 700l-130 -643h286l-12 -57h-286h-66l142 700h66zM567 700l-119 -218h-60l99 218h80z" />
    <glyph glyph-name="lcaron" unicode="&#x13e;" horiz-adv-x="272" 
d="M298 762l-155 -762h-63l155 762h63zM452 762l-95 -170h-50l75 170h70z" />
    <glyph glyph-name="Ldot" unicode="&#x13f;" horiz-adv-x="472" 
d="M308 700l-130 -643h286l-12 -57h-286h-66l142 700h66zM499 424l-17 -86h-82l17 86h82z" />
    <glyph glyph-name="ldot" unicode="&#x140;" horiz-adv-x="327" 
d="M298 762l-155 -762h-63l155 762h63zM399 444l-17 -86h-82l17 86h82z" />
    <glyph glyph-name="Lslash" unicode="&#x141;" horiz-adv-x="516" 
d="M352 700l-67 -333l133 111l26 -32l-173 -144l-49 -245h286l-12 -57h-286h-66l48 236l-66 -55l-26 32l105 87l81 400h66z" />
    <glyph glyph-name="lslash" unicode="&#x142;" horiz-adv-x="296" 
d="M333 762l-59 -288l104 86l25 -32l-142 -118l-83 -410h-63l70 346l-99 -83l-26 32l138 115l72 352h63z" />
    <glyph glyph-name="Nacute" unicode="&#x143;" horiz-adv-x="723" 
d="M304 700h23l226 -566l18 -64h2l126 630h66l-142 -700h-61h-24l-223 555l-22 75h-3l-12 -81l-112 -549h-66l142 700h62zM636 870l-150 -120h-70l108 120h112z" />
    <glyph glyph-name="nacute" unicode="&#x144;" horiz-adv-x="564" 
d="M83 0l80 395l21 118h56l-21 -106h2q14 23 33.5 44t42.5 36q27 18 54.5 26t61.5 8q30 0 56 -7t49 -27t32 -45t9 -54q0 -32 -8 -69l-65 -319h-63l64 316q3 12 5 26.5t2 29.5q0 24 -7 44q-3 8 -9.5 17.5t-17 17t-26 12.5t-37.5 5q-33 0 -61 -11t-53 -32q-22 -18 -44.5 -49.5
t-31.5 -76.5l-61 -299h-63zM555 740l-154 -130h-56l116 130h94z" />
    <glyph glyph-name="Ncommaaccent" unicode="&#x145;" horiz-adv-x="723" 
d="M304 700h23l226 -566l18 -64h2l126 630h66l-142 -700h-61h-24l-223 555l-22 75h-3l-12 -81l-112 -549h-66l142 700h62zM409 -50l-95 -170h-56l75 170h76z" />
    <glyph glyph-name="ncommaaccent" unicode="&#x146;" horiz-adv-x="564" 
d="M83 0l80 395l21 118h56l-21 -106h2q14 23 33.5 44t42.5 36q27 18 54.5 26t61.5 8q30 0 56 -7t49 -27t32 -45t9 -54q0 -32 -8 -69l-65 -319h-63l64 316q3 12 5 26.5t2 29.5q0 24 -7 44q-3 8 -9.5 17.5t-17 17t-26 12.5t-37.5 5q-33 0 -61 -11t-53 -32q-22 -18 -44.5 -49.5
t-31.5 -76.5l-61 -299h-63zM311 -50l-95 -170h-50l75 170h70z" />
    <glyph glyph-name="Ncaron" unicode="&#x147;" horiz-adv-x="723" 
d="M304 700h23l226 -566l18 -64h2l126 630h66l-142 -700h-61h-24l-223 555l-22 75h-3l-12 -81l-112 -549h-66l142 700h62zM618 870h70l-127 -120h-96l-77 120h66l63 -86z" />
    <glyph glyph-name="ncaron" unicode="&#x148;" horiz-adv-x="564" 
d="M83 0l80 395l21 118h56l-21 -106h2q14 23 33.5 44t42.5 36q27 18 54.5 26t61.5 8q30 0 56 -7t49 -27t32 -45t9 -54q0 -32 -8 -69l-65 -319h-63l64 316q3 12 5 26.5t2 29.5q0 24 -7 44q-3 8 -9.5 17.5t-17 17t-26 12.5t-37.5 5q-33 0 -61 -11t-53 -32q-22 -18 -44.5 -49.5
t-31.5 -76.5l-61 -299h-63zM525 740h60l-137 -130h-76l-83 130h56l70 -96z" />
    <glyph glyph-name="Omacron" unicode="&#x14c;" horiz-adv-x="748" 
d="M378 -8q-23 0 -48.5 3t-52 12t-51.5 25t-47 43q-20 24 -32 50t-18 51t-8 48.5t-2 42.5q0 88 30 172.5t90 150.5q34 36 70 59t71.5 36t69 18t63.5 5q66 0 114.5 -19.5t80.5 -55.5t47.5 -86.5t15.5 -112.5q0 -108 -34 -187.5t-83 -133.5q-54 -58 -121 -89.5t-155 -31.5z
M190 257q0 -31 8 -70.5t34 -71.5q8 -11 21 -22.5t31.5 -21t43 -16t54.5 -6.5q70 0 137 37.5t113 107.5q33 51 50.5 115.5t17.5 134.5q0 32 -7.5 69.5t-34.5 71.5q-9 11 -22 22.5t-31.5 21.5t-42.5 16t-54 6q-66 0 -132 -35t-117 -110q-5 -7 -16.5 -27.5t-23 -53t-20.5 -75
t-9 -93.5zM673 834l-13 -60h-262l13 60h262z" />
    <glyph glyph-name="omacron" unicode="&#x14d;" horiz-adv-x="561" 
d="M91 196q0 63 23.5 126.5t68.5 112.5q78 86 200 86q15 0 33 -2t36.5 -7.5t36.5 -16t34 -27.5q18 -18 28 -38.5t15.5 -41.5t7 -40t1.5 -33q0 -51 -13 -100.5t-47 -100.5q-45 -66 -104 -94t-131 -28q-32 0 -69.5 10.5t-69.5 45.5q-6 7 -14.5 19t-16.5 30t-13.5 42.5
t-5.5 56.5zM157 192q0 -54 16.5 -83.5t38 -43.5t42 -17t28.5 -3q60 0 101 24.5t73 72.5q23 33 38 76.5t15 98.5q0 26 -5.5 53.5t-25.5 52.5q-36 45 -98 45q-17 0 -36 -3.5t-40 -12.5t-42 -25t-41 -41q-29 -38 -46.5 -87.5t-17.5 -106.5zM556 727l-11 -54h-252l11 54h252z
" />
    <glyph glyph-name="Obreve" unicode="&#x14e;" horiz-adv-x="748" 
d="M378 -8q-23 0 -48.5 3t-52 12t-51.5 25t-47 43q-20 24 -32 50t-18 51t-8 48.5t-2 42.5q0 88 30 172.5t90 150.5q34 36 70 59t71.5 36t69 18t63.5 5q66 0 114.5 -19.5t80.5 -55.5t47.5 -86.5t15.5 -112.5q0 -108 -34 -187.5t-83 -133.5q-54 -58 -121 -89.5t-155 -31.5z
M190 257q0 -31 8 -70.5t34 -71.5q8 -11 21 -22.5t31.5 -21t43 -16t54.5 -6.5q70 0 137 37.5t113 107.5q33 51 50.5 115.5t17.5 134.5q0 32 -7.5 69.5t-34.5 71.5q-9 11 -22 22.5t-31.5 21.5t-42.5 16t-54 6q-66 0 -132 -35t-117 -110q-5 -7 -16.5 -27.5t-23 -53t-20.5 -75
t-9 -93.5zM449 870q3 -17 12 -28t22 -18t27.5 -9.5t27.5 -2.5q28 0 60.5 12t52.5 46h60q-13 -24 -30 -44t-36 -34q-23 -17 -53.5 -27.5t-65.5 -10.5q-50 0 -88 29q-25 20 -35.5 42.5t-13.5 44.5h60z" />
    <glyph glyph-name="obreve" unicode="&#x14f;" horiz-adv-x="561" 
d="M91 196q0 63 23.5 126.5t68.5 112.5q78 86 200 86q15 0 33 -2t36.5 -7.5t36.5 -16t34 -27.5q18 -18 28 -38.5t15.5 -41.5t7 -40t1.5 -33q0 -51 -13 -100.5t-47 -100.5q-45 -66 -104 -94t-131 -28q-32 0 -69.5 10.5t-69.5 45.5q-6 7 -14.5 19t-16.5 30t-13.5 42.5
t-5.5 56.5zM157 192q0 -54 16.5 -83.5t38 -43.5t42 -17t28.5 -3q60 0 101 24.5t73 72.5q23 33 38 76.5t15 98.5q0 26 -5.5 53.5t-25.5 52.5q-36 45 -98 45q-17 0 -36 -3.5t-40 -12.5t-42 -25t-41 -41q-29 -38 -46.5 -87.5t-17.5 -106.5zM338 740q6 -24 19.5 -37t27.5 -19
t27 -7t18 -1q24 0 43.5 6.5t33.5 16t24.5 20.5t16.5 21h56q-30 -58 -80.5 -87t-103.5 -29q-51 0 -90 29.5t-48 86.5h56z" />
    <glyph glyph-name="Ohungarumlaut" unicode="&#x150;" horiz-adv-x="748" 
d="M378 -8q-23 0 -48.5 3t-52 12t-51.5 25t-47 43q-20 24 -32 50t-18 51t-8 48.5t-2 42.5q0 88 30 172.5t90 150.5q34 36 70 59t71.5 36t69 18t63.5 5q66 0 114.5 -19.5t80.5 -55.5t47.5 -86.5t15.5 -112.5q0 -108 -34 -187.5t-83 -133.5q-54 -58 -121 -89.5t-155 -31.5z
M190 257q0 -31 8 -70.5t34 -71.5q8 -11 21 -22.5t31.5 -21t43 -16t54.5 -6.5q70 0 137 37.5t113 107.5q33 51 50.5 115.5t17.5 134.5q0 32 -7.5 69.5t-34.5 71.5q-9 11 -22 22.5t-31.5 21.5t-42.5 16t-54 6q-66 0 -132 -35t-117 -110q-5 -7 -16.5 -27.5t-23 -53t-20.5 -75
t-9 -93.5zM581 870l-154 -120h-66l110 120h110zM731 870l-154 -120h-66l110 120h110z" />
    <glyph glyph-name="ohungarumlaut" unicode="&#x151;" horiz-adv-x="561" 
d="M91 196q0 63 23.5 126.5t68.5 112.5q78 86 200 86q15 0 33 -2t36.5 -7.5t36.5 -16t34 -27.5q18 -18 28 -38.5t15.5 -41.5t7 -40t1.5 -33q0 -51 -13 -100.5t-47 -100.5q-45 -66 -104 -94t-131 -28q-32 0 -69.5 10.5t-69.5 45.5q-6 7 -14.5 19t-16.5 30t-13.5 42.5
t-5.5 56.5zM157 192q0 -54 16.5 -83.5t38 -43.5t42 -17t28.5 -3q60 0 101 24.5t73 72.5q23 33 38 76.5t15 98.5q0 26 -5.5 53.5t-25.5 52.5q-36 45 -98 45q-17 0 -36 -3.5t-40 -12.5t-42 -25t-41 -41q-29 -38 -46.5 -87.5t-17.5 -106.5zM625 740l-155 -130h-51l112 130h94z
M475 740l-155 -130h-51l112 130h94z" />
    <glyph glyph-name="OE" unicode="&#x152;" horiz-adv-x="1030" 
d="M643 109q-54 -57 -124.5 -87t-145.5 -30q-72 0 -118 23.5t-73 53.5q-24 26 -43.5 71t-19.5 115q0 49 11.5 100t32 98.5t49 89t63.5 72.5q14 13 36.5 29t53 30t69 24t85.5 10q60 0 100 -15.5t69 -39.5q20 -17 32.5 -32.5t20.5 -30.5l22 110h68h272l-11 -57h-274l-52 -253
h261l-11 -57h-261l-56 -276h293l-12 -57h-291h-68zM191 260q0 -52 14.5 -91.5t37.5 -63.5q27 -29 66 -42.5t76 -13.5q54 0 106.5 23t90.5 61q27 27 49 62t37 74t23.5 80t8.5 80q0 19 -2 40.5t-7.5 43t-15.5 42.5t-27 39q-20 21 -53.5 39t-87.5 18t-105.5 -22.5t-91.5 -62.5
q-28 -28 -50 -64.5t-37.5 -77t-23.5 -83t-8 -81.5z" />
    <glyph glyph-name="oe" unicode="&#x153;" horiz-adv-x="925" 
d="M280 -8q-44 0 -78.5 15t-59.5 42t-38 64.5t-13 82.5q0 63 23.5 126.5t68.5 112.5q78 86 200 86q60 0 107.5 -29.5t70.5 -97.5q40 64 101.5 95.5t137.5 31.5q32 0 59.5 -8.5t48 -24.5t32 -38.5t11.5 -49.5q0 -42 -18 -76.5t-62 -58.5t-118 -38t-187 -16v-18q0 -72 37 -110
t112 -38q31 0 69.5 6.5t77.5 26.5l-12 -58q-35 -14 -69.5 -21t-80.5 -7q-72 0 -120 32.5t-66 100.5q-45 -75 -104 -104t-130 -29zM282 45q60 0 101 24.5t73 72.5q23 33 38 76.5t15 98.5q0 26 -5.5 53.5t-25.5 52.5q-36 45 -98 45q-17 0 -36 -3.5t-40 -12.5t-42 -25t-41 -41
q-29 -38 -46.5 -87.5t-17.5 -106.5q0 -54 16.5 -83.5t38 -43.5t42 -17t28.5 -3zM785 468q-38 0 -72.5 -13.5t-63 -40t-48.5 -64.5t-29 -86q86 1 146.5 9.5t98.5 25.5t55 42t17 59q0 29 -25.5 48.5t-78.5 19.5z" />
    <glyph glyph-name="Racute" unicode="&#x154;" horiz-adv-x="603" 
d="M242 700h158q101 0 147.5 -42.5t46.5 -117.5q0 -60 -18.5 -108t-53.5 -82q-32 -31 -76 -48l94 -302h-78l-80 284q-30 -4 -63 -4h-96l-57 -280h-66zM326 337q98 0 149 51.5t51 151.5q0 48 -32 75.5t-105 27.5h-92l-63 -306h92zM594 870l-150 -120h-70l108 120h112z" />
    <glyph glyph-name="racute" unicode="&#x155;" horiz-adv-x="352" 
d="M84 0l85 419l15 94h60l-22 -110h1q10 23 28 48t38 42q18 14 39 21t44 7q27 0 54 -9l-12 -60q-28 11 -50 11q-33 0 -55.5 -14.5t-34.5 -26.5q-32 -31 -46.5 -64.5t-20.5 -62.5l-60 -295h-63zM451 740l-154 -130h-56l116 130h94z" />
    <glyph glyph-name="Rcommaaccent" unicode="&#x156;" horiz-adv-x="603" 
d="M242 700h158q101 0 147.5 -42.5t46.5 -117.5q0 -60 -18.5 -108t-53.5 -82q-32 -31 -76 -48l94 -302h-78l-80 284q-30 -4 -63 -4h-96l-57 -280h-66zM326 337q98 0 149 51.5t51 151.5q0 48 -32 75.5t-105 27.5h-92l-63 -306h92zM342 -50l-95 -170h-56l75 170h76z" />
    <glyph glyph-name="rcommaaccent" unicode="&#x157;" horiz-adv-x="352" 
d="M84 0l85 419l15 94h60l-22 -110h1q10 23 28 48t38 42q18 14 39 21t44 7q27 0 54 -9l-12 -60q-28 11 -50 11q-33 0 -55.5 -14.5t-34.5 -26.5q-32 -31 -46.5 -64.5t-20.5 -62.5l-60 -295h-63zM141 -50l-95 -170h-50l75 170h70z" />
    <glyph glyph-name="Rcaron" unicode="&#x158;" horiz-adv-x="603" 
d="M242 700h158q101 0 147.5 -42.5t46.5 -117.5q0 -60 -18.5 -108t-53.5 -82q-32 -31 -76 -48l94 -302h-78l-80 284q-30 -4 -63 -4h-96l-57 -280h-66zM326 337q98 0 149 51.5t51 151.5q0 48 -32 75.5t-105 27.5h-92l-63 -306h92zM518 870h70l-127 -120h-96l-77 120h66
l63 -86z" />
    <glyph glyph-name="rcaron" unicode="&#x159;" horiz-adv-x="352" 
d="M84 0l85 419l15 94h60l-22 -110h1q10 23 28 48t38 42q18 14 39 21t44 7q27 0 54 -9l-12 -60q-28 11 -50 11q-33 0 -55.5 -14.5t-34.5 -26.5q-32 -31 -46.5 -64.5t-20.5 -62.5l-60 -295h-63zM419 740h60l-137 -130h-76l-83 130h56l70 -96z" />
    <glyph glyph-name="Sacute" unicode="&#x15a;" horiz-adv-x="496" 
d="M75 88q34 -17 73.5 -28t77.5 -11q35 0 72.5 11t65.5 34q24 20 40 49.5t16 61.5q0 43 -36 76q-9 8 -28.5 21.5t-64.5 39.5q-23 13 -46.5 27.5t-46.5 40.5q-19 20 -30 42t-11 54q0 46 22.5 90t64.5 72q20 13 41.5 21t43.5 12t42.5 5.5t38.5 1.5q38 0 75 -5.5t77 -19.5
l-22 -62q-34 16 -67 23t-70 7q-52 0 -83.5 -12.5t-48.5 -27.5q-18 -17 -30.5 -42t-12.5 -54q0 -19 6.5 -35t22.5 -31q4 -4 10 -8.5t16 -11.5t25.5 -17t38.5 -24q29 -17 58 -36t50 -43q20 -23 28 -47t8 -50q0 -52 -26 -96.5t-62 -71.5q-24 -18 -49.5 -28t-50 -15.5t-47 -7
t-38.5 -1.5q-48 0 -86.5 8t-76.5 23zM554 870l-150 -120h-70l108 120h112z" />
    <glyph glyph-name="sacute" unicode="&#x15b;" horiz-adv-x="419" 
d="M437 444q-30 14 -57.5 19t-58.5 5q-23 0 -43.5 -3.5t-41.5 -17.5q-9 -6 -23.5 -22t-14.5 -48q0 -30 21.5 -46.5t71.5 -38.5q25 -11 44 -22.5t33 -25.5q32 -35 32 -84q0 -29 -13 -62t-51 -62q-33 -26 -71 -35t-78 -9q-35 0 -68 6t-66 20l16 57q32 -16 64 -23t61 -7
q24 0 53 7t54 30q20 20 26.5 40.5t6.5 37.5q0 10 -2.5 19.5t-9.5 19.5q-11 16 -30.5 25.5t-36.5 17.5q-35 16 -53 26t-28 18q-26 21 -34 44.5t-8 40.5q0 31 17 65t48 54q27 18 61.5 24.5t64.5 6.5q37 0 68 -6.5t61 -20.5zM482 740l-154 -130h-56l116 130h94z" />
    <glyph glyph-name="Scircumflex" unicode="&#x15c;" horiz-adv-x="496" 
d="M75 88q34 -17 73.5 -28t77.5 -11q35 0 72.5 11t65.5 34q24 20 40 49.5t16 61.5q0 43 -36 76q-9 8 -28.5 21.5t-64.5 39.5q-23 13 -46.5 27.5t-46.5 40.5q-19 20 -30 42t-11 54q0 46 22.5 90t64.5 72q20 13 41.5 21t43.5 12t42.5 5.5t38.5 1.5q38 0 75 -5.5t77 -19.5
l-22 -62q-34 16 -67 23t-70 7q-52 0 -83.5 -12.5t-48.5 -27.5q-18 -17 -30.5 -42t-12.5 -54q0 -19 6.5 -35t22.5 -31q4 -4 10 -8.5t16 -11.5t25.5 -17t38.5 -24q29 -17 58 -36t50 -43q20 -23 28 -47t8 -50q0 -52 -26 -96.5t-62 -71.5q-24 -18 -49.5 -28t-50 -15.5t-47 -7
t-38.5 -1.5q-48 0 -86.5 8t-76.5 23zM334 750h-70l127 120h96l77 -120h-66l-63 86z" />
    <glyph glyph-name="scircumflex" unicode="&#x15d;" horiz-adv-x="419" 
d="M437 444q-30 14 -57.5 19t-58.5 5q-23 0 -43.5 -3.5t-41.5 -17.5q-9 -6 -23.5 -22t-14.5 -48q0 -30 21.5 -46.5t71.5 -38.5q25 -11 44 -22.5t33 -25.5q32 -35 32 -84q0 -29 -13 -62t-51 -62q-33 -26 -71 -35t-78 -9q-35 0 -68 6t-66 20l16 57q32 -16 64 -23t61 -7
q24 0 53 7t54 30q20 20 26.5 40.5t6.5 37.5q0 10 -2.5 19.5t-9.5 19.5q-11 16 -30.5 25.5t-36.5 17.5q-35 16 -53 26t-28 18q-26 21 -34 44.5t-8 40.5q0 31 17 65t48 54q27 18 61.5 24.5t64.5 6.5q37 0 68 -6.5t61 -20.5zM250 610h-60l137 130h76l83 -130h-56l-70 96z" />
    <glyph glyph-name="Scedilla" unicode="&#x15e;" horiz-adv-x="496" 
d="M75 88q34 -17 73.5 -28t77.5 -11q35 0 72.5 11t65.5 34q24 20 40 49.5t16 61.5q0 43 -36 76q-9 8 -28.5 21.5t-64.5 39.5q-23 13 -46.5 27.5t-46.5 40.5q-19 20 -30 42t-11 54q0 46 22.5 90t64.5 72q20 13 41.5 21t43.5 12t42.5 5.5t38.5 1.5q38 0 75 -5.5t77 -19.5
l-22 -62q-34 16 -67 23t-70 7q-52 0 -83.5 -12.5t-48.5 -27.5q-18 -17 -30.5 -42t-12.5 -54q0 -19 6.5 -35t22.5 -31q4 -4 10 -8.5t16 -11.5t25.5 -17t38.5 -24q29 -17 58 -36t50 -43q20 -23 28 -47t8 -50q0 -52 -26 -96.5t-62 -71.5q-31 -23 -72.5 -36.5t-86.5 -14.5
l-10 -33q20 2 35 -4.5t25 -15.5q11 -11 14.5 -22.5t3.5 -25.5q0 -26 -9.5 -45t-26.5 -34q-17 -16 -41.5 -25t-53.5 -9q-15 0 -37 5t-46 22l34 38q21 -17 50 -17q10 0 18.5 1.5t18.5 8.5q17 11 21 23t4 19q0 19 -11 28q-12 11 -29.5 12.5t-37.5 -1.5l25 75q-33 2 -67 9
t-69 21z" />
    <glyph glyph-name="scedilla" unicode="&#x15f;" horiz-adv-x="419" 
d="M437 444q-30 14 -57.5 19t-58.5 5q-23 0 -43.5 -3.5t-41.5 -17.5q-9 -6 -23.5 -22t-14.5 -48q0 -30 21.5 -46.5t71.5 -38.5q25 -11 44 -22.5t33 -25.5q32 -35 32 -84q0 -29 -13 -62t-51 -62q-49 -37 -122 -43h-6l-6 -22q20 1 31.5 -6.5t14.5 -11.5q5 -5 9.5 -15t4.5 -25
q0 -20 -7.5 -37t-18.5 -29q-29 -29 -76 -29q-22 0 -36.5 6.5t-25.5 14.5l26 32q11 -8 20.5 -10.5t17.5 -2.5q21 0 34 13q8 7 11 16t3 17q0 13 -9 22q-8 8 -16.5 9.5t-14.5 1.5q-5 0 -10 -0.5t-10 -1.5l16 58h-5q-29 2 -56 8t-52 17l16 57q32 -16 64 -23t61 -7q24 0 53 7
t54 30q20 20 26.5 40.5t6.5 37.5q0 10 -2.5 19.5t-9.5 19.5q-11 16 -30.5 25.5t-36.5 17.5q-35 16 -53 26t-28 18q-26 21 -34 44.5t-8 40.5q0 31 17 65t48 54q27 18 61.5 24.5t64.5 6.5q37 0 68 -6.5t61 -20.5z" />
    <glyph glyph-name="Scaron" unicode="&#x160;" horiz-adv-x="496" 
d="M75 88q34 -17 73.5 -28t77.5 -11q35 0 72.5 11t65.5 34q24 20 40 49.5t16 61.5q0 43 -36 76q-9 8 -28.5 21.5t-64.5 39.5q-23 13 -46.5 27.5t-46.5 40.5q-19 20 -30 42t-11 54q0 46 22.5 90t64.5 72q20 13 41.5 21t43.5 12t42.5 5.5t38.5 1.5q38 0 75 -5.5t77 -19.5
l-22 -62q-34 16 -67 23t-70 7q-52 0 -83.5 -12.5t-48.5 -27.5q-18 -17 -30.5 -42t-12.5 -54q0 -19 6.5 -35t22.5 -31q4 -4 10 -8.5t16 -11.5t25.5 -17t38.5 -24q29 -17 58 -36t50 -43q20 -23 28 -47t8 -50q0 -52 -26 -96.5t-62 -71.5q-24 -18 -49.5 -28t-50 -15.5t-47 -7
t-38.5 -1.5q-48 0 -86.5 8t-76.5 23zM523 870h70l-127 -120h-96l-77 120h66l63 -86z" />
    <glyph glyph-name="scaron" unicode="&#x161;" horiz-adv-x="419" 
d="M437 444q-30 14 -57.5 19t-58.5 5q-23 0 -43.5 -3.5t-41.5 -17.5q-9 -6 -23.5 -22t-14.5 -48q0 -30 21.5 -46.5t71.5 -38.5q25 -11 44 -22.5t33 -25.5q32 -35 32 -84q0 -29 -13 -62t-51 -62q-33 -26 -71 -35t-78 -9q-35 0 -68 6t-66 20l16 57q32 -16 64 -23t61 -7
q24 0 53 7t54 30q20 20 26.5 40.5t6.5 37.5q0 10 -2.5 19.5t-9.5 19.5q-11 16 -30.5 25.5t-36.5 17.5q-35 16 -53 26t-28 18q-26 21 -34 44.5t-8 40.5q0 31 17 65t48 54q27 18 61.5 24.5t64.5 6.5q37 0 68 -6.5t61 -20.5zM453 740h60l-137 -130h-76l-83 130h56l70 -96z" />
    <glyph glyph-name="Tcedilla" unicode="&#x162;" horiz-adv-x="516" 
d="M643 700l-11 -57h-210l-131 -643h-6l-16 -40q23 2 39 -5t25 -15q11 -11 14.5 -22.5t3.5 -25.5q0 -26 -9.5 -45t-26.5 -34q-17 -16 -41.5 -25t-53.5 -9q-15 0 -37 5t-46 20l34 38q21 -15 50 -15q10 0 18.5 1.5t18.5 8.5q17 11 21 23t4 19q0 19 -11 28q-12 11 -29.5 12.5
t-37.5 -1.5l34 82h-14l131 643h-210l11 57h212h66h208z" />
    <glyph glyph-name="tcedilla" unicode="&#x163;" horiz-adv-x="352" 
d="M322 664l-31 -151h122l-10 -53h-122l-64 -315q-3 -13 -6 -27.5t-3 -27.5q0 -11 2.5 -20t9.5 -14q9 -8 24 -9.5t23 -1.5q29 0 56 11l-10 -53q-24 -9 -52 -10h-5l-6 -22q20 1 31.5 -6.5t14.5 -11.5q5 -5 9.5 -15t4.5 -25q0 -20 -7.5 -37t-18.5 -29q-29 -29 -76 -29
q-22 0 -36.5 6.5t-25.5 14.5l26 32q11 -8 20.5 -10.5t17.5 -2.5q21 0 34 13q8 7 11 16t3 17q0 13 -9 22q-8 8 -16.5 9.5t-14.5 1.5q-5 0 -10 -0.5t-10 -1.5l17 59l-6 1q-12 2 -24 8t-20 15q-13 13 -17 28.5t-4 30.5q0 7 1.5 21t7.5 43l65 319h-105l10 53h105l26 128z" />
    <glyph glyph-name="Tcaron" unicode="&#x164;" horiz-adv-x="516" 
d="M643 700l-11 -57h-210l-131 -643h-66l131 643h-210l11 57h210h66h210zM515 870h70l-127 -120h-96l-77 120h66l63 -86z" />
    <glyph glyph-name="tcaron" unicode="&#x165;" horiz-adv-x="352" 
d="M323 664l-31 -151h122l-10 -53h-122l-64 -315q-3 -13 -6 -27.5t-3 -27.5q0 -11 2.5 -20t9.5 -14q9 -8 24 -9.5t23 -1.5q29 0 56 11l-10 -53q-18 -6 -35 -8.5t-34 -2.5q-20 0 -41 4.5t-38 21.5q-13 13 -17 28.5t-4 30.5q0 7 1.5 21t7.5 43l65 319h-105l10 53h105l26 128z
M502 762l-95 -170h-50l75 170h70z" />
    <glyph glyph-name="Umacron" unicode="&#x16a;" horiz-adv-x="717" 
d="M219 235q-6 -29 -6 -54q0 -26 8 -49t28 -43q23 -21 55.5 -30.5t67.5 -9.5q42 0 75.5 11.5t59.5 29.5q42 29 62.5 64.5t29.5 80.5l94 465h66l-95 -467q-13 -61 -39.5 -109t-84.5 -85q-45 -28 -87.5 -37.5t-88.5 -9.5q-36 0 -77.5 8.5t-78.5 40.5q-61 52 -61 141q0 12 1 25
t4 26l95 467h66zM657 834l-13 -60h-262l13 60h262z" />
    <glyph glyph-name="umacron" unicode="&#x16b;" horiz-adv-x="556" 
d="M245 513l-65 -320q-2 -11 -4.5 -24t-2.5 -33q0 -6 0.5 -14.5t2.5 -18t6.5 -19t13.5 -17.5q11 -10 28 -16t40 -6q68 0 118 47q7 6 17 17t20.5 26.5t19.5 35.5t14 45l60 297h63l-80 -396l-20 -117h-59l21 102h-1q-29 -46 -67 -72q-17 -13 -47 -25.5t-75 -12.5
q-26 0 -49.5 6.5t-44.5 24.5q-26 22 -35 50t-9 60q0 20 2.5 36t6.5 33l63 311h63zM553 727l-11 -54h-252l11 54h252z" />
    <glyph glyph-name="Ubreve" unicode="&#x16c;" horiz-adv-x="717" 
d="M219 235q-6 -29 -6 -54q0 -26 8 -49t28 -43q23 -21 55.5 -30.5t67.5 -9.5q42 0 75.5 11.5t59.5 29.5q42 29 62.5 64.5t29.5 80.5l94 465h66l-95 -467q-13 -61 -39.5 -109t-84.5 -85q-45 -28 -87.5 -37.5t-88.5 -9.5q-36 0 -77.5 8.5t-78.5 40.5q-61 52 -61 141q0 12 1 25
t4 26l95 467h66zM433 870q3 -17 12 -28t22 -18t27.5 -9.5t27.5 -2.5q28 0 60.5 12t52.5 46h60q-13 -24 -30 -44t-36 -34q-23 -17 -53.5 -27.5t-65.5 -10.5q-50 0 -88 29q-25 20 -35.5 42.5t-13.5 44.5h60z" />
    <glyph glyph-name="ubreve" unicode="&#x16d;" horiz-adv-x="556" 
d="M245 513l-65 -320q-2 -11 -4.5 -24t-2.5 -33q0 -6 0.5 -14.5t2.5 -18t6.5 -19t13.5 -17.5q11 -10 28 -16t40 -6q68 0 118 47q7 6 17 17t20.5 26.5t19.5 35.5t14 45l60 297h63l-80 -396l-20 -117h-59l21 102h-1q-29 -46 -67 -72q-17 -13 -47 -25.5t-75 -12.5
q-26 0 -49.5 6.5t-44.5 24.5q-26 22 -35 50t-9 60q0 20 2.5 36t6.5 33l63 311h63zM333 740q6 -24 19.5 -37t27.5 -19t27 -7t18 -1q24 0 43.5 6.5t33.5 16t24.5 20.5t16.5 21h56q-30 -58 -80.5 -87t-103.5 -29q-51 0 -90 29.5t-48 86.5h56z" />
    <glyph glyph-name="Uring" unicode="&#x16e;" horiz-adv-x="717" 
d="M219 235q-6 -29 -6 -54q0 -26 8 -49t28 -43q23 -21 55.5 -30.5t67.5 -9.5q42 0 75.5 11.5t59.5 29.5q42 29 62.5 64.5t29.5 80.5l94 465h66l-95 -467q-13 -61 -39.5 -109t-84.5 -85q-45 -28 -87.5 -37.5t-88.5 -9.5q-36 0 -77.5 8.5t-78.5 40.5q-61 52 -61 141q0 12 1 25
t4 26l95 467h66zM428 805q0 25 10.5 48.5t31.5 41.5q34 28 74 28q23 0 38.5 -8t23.5 -18q7 -8 12.5 -20.5t5.5 -32.5t-8.5 -43.5t-34.5 -43.5q-16 -12 -36 -19t-38 -7q-20 0 -35.5 7.5t-25.5 18.5q-7 8 -12.5 19.5t-5.5 28.5zM465 813q0 -21 14 -33q13 -13 35 -13
q12 0 26.5 5t27.5 19q12 13 15.5 25t3.5 22q0 14 -4 22t-9 13q-12 14 -36 14q-26 0 -47 -18q-13 -11 -19.5 -26t-6.5 -30z" />
    <glyph glyph-name="uring" unicode="&#x16f;" horiz-adv-x="556" 
d="M245 513l-65 -320q-2 -11 -4.5 -24t-2.5 -33q0 -6 0.5 -14.5t2.5 -18t6.5 -19t13.5 -17.5q11 -10 28 -16t40 -6q68 0 118 47q7 6 17 17t20.5 26.5t19.5 35.5t14 45l60 297h63l-80 -396l-20 -117h-59l21 102h-1q-29 -46 -67 -72q-17 -13 -47 -25.5t-75 -12.5
q-26 0 -49.5 6.5t-44.5 24.5q-26 22 -35 50t-9 60q0 20 2.5 36t6.5 33l63 311h63zM352 687q0 -17 11 -30q6 -8 15 -12.5t25 -4.5q20 0 33.5 6.5t21.5 17.5q8 9 12.5 22.5t4.5 25.5q0 19 -12 33q-15 15 -40 15q-9 0 -21.5 -3.5t-24.5 -14.5q-25 -24 -25 -55zM315 687
q0 21 8.5 41.5t26.5 37.5q34 30 75 30q18 0 36 -7t31 -22q20 -23 20 -57q0 -21 -9.5 -43t-30.5 -39q-17 -14 -36 -19t-37 -5t-34.5 6t-29.5 21q-20 23 -20 56z" />
    <glyph glyph-name="Uhungarumlaut" unicode="&#x170;" horiz-adv-x="717" 
d="M219 235q-6 -29 -6 -54q0 -26 8 -49t28 -43q23 -21 55.5 -30.5t67.5 -9.5q42 0 75.5 11.5t59.5 29.5q42 29 62.5 64.5t29.5 80.5l94 465h66l-95 -467q-13 -61 -39.5 -109t-84.5 -85q-45 -28 -87.5 -37.5t-88.5 -9.5q-36 0 -77.5 8.5t-78.5 40.5q-61 52 -61 141q0 12 1 25
t4 26l95 467h66zM598 870l-154 -120h-66l110 120h110zM748 870l-154 -120h-66l110 120h110z" />
    <glyph glyph-name="uhungarumlaut" unicode="&#x171;" horiz-adv-x="556" 
d="M245 513l-65 -320q-2 -11 -4.5 -24t-2.5 -33q0 -6 0.5 -14.5t2.5 -18t6.5 -19t13.5 -17.5q11 -10 28 -16t40 -6q68 0 118 47q7 6 17 17t20.5 26.5t19.5 35.5t14 45l60 297h63l-80 -396l-20 -117h-59l21 102h-1q-29 -46 -67 -72q-17 -13 -47 -25.5t-75 -12.5
q-26 0 -49.5 6.5t-44.5 24.5q-26 22 -35 50t-9 60q0 20 2.5 36t6.5 33l63 311h63zM608 740l-155 -130h-51l112 130h94zM458 740l-155 -130h-51l112 130h94z" />
    <glyph glyph-name="Uogonek" unicode="&#x172;" horiz-adv-x="717" 
d="M219 235q-6 -29 -6 -54q0 -26 8 -49t28 -43q23 -21 55.5 -30.5t67.5 -9.5q42 0 75.5 11.5t59.5 29.5q42 29 62.5 64.5t29.5 80.5l94 465h66l-95 -467q-12 -61 -39 -109t-85 -85q-28 -18 -57 -28t-56 -15q-22 -13 -36.5 -26t-28 -26t-22.5 -28.5t-9 -27.5q0 -17 8 -25
t14.5 -9t11.5 -1q23 2 37 8t24 12l14 -41q-26 -16 -47 -21.5t-38 -5.5q-11 0 -26.5 4t-26.5 14t-17 26t-6 29t7.5 33.5t24.5 37.5t28 26t22 17h-12q-44 0 -80 13.5t-61 35.5q-61 52 -61 141q0 12 1 25t4 26l95 467h66z" />
    <glyph glyph-name="uogonek" unicode="&#x173;" horiz-adv-x="556" 
d="M245 513l-65 -320q-2 -11 -4.5 -24t-2.5 -33q0 -6 0.5 -14.5t2.5 -18t6.5 -19t13.5 -17.5q11 -10 28 -16t40 -6q68 0 118 47q7 6 17 17t20.5 26.5t19.5 35.5t14 45l60 297h63l-80 -396l-20 -117q-24 -16 -37 -26t-25.5 -22t-23.5 -28.5t-9 -43.5q3 -14 16 -20.5t25 -6.5
q18 1 32 5.5t27 12.5l15 -39q-27 -13 -48 -19.5t-41 -7.5q-15 -1 -34.5 6.5t-30 23.5t-11.5 41q0 24 8.5 42t20.5 32t27 25.5t41 24.5h-11l21 102h-1q-29 -46 -67 -72q-17 -13 -47 -25.5t-75 -12.5q-26 0 -49.5 6.5t-44.5 24.5q-26 22 -35 50t-9 60q0 20 2.5 36t6.5 33
l63 311h63z" />
    <glyph glyph-name="Ydieresis" unicode="&#x178;" horiz-adv-x="619" 
d="M227 700l132 -310l16 -41l293 351h83l-354 -408l-59 -292h-66l59 292l-179 408h75zM403 844l-17 -80h-69l17 80h69zM602 844l-17 -80h-69l17 80h69z" />
    <glyph glyph-name="Zacute" unicode="&#x179;" horiz-adv-x="562" 
d="M639 700l-13 -67l-489 -575v-2l387 1l-12 -57h-462l13 62l496 581h-370l11 57h439zM555 870l-150 -120h-70l108 120h112z" />
    <glyph glyph-name="zacute" unicode="&#x17a;" horiz-adv-x="476" 
d="M532 513l-12 -60l-333 -351l-50 -49h315l-11 -53h-385l11 52l336 356l52 52h-300l10 53h367zM482 740l-154 -130h-56l116 130h94z" />
    <glyph glyph-name="Zdotaccent" unicode="&#x17b;" horiz-adv-x="562" 
d="M639 700l-13 -67l-489 -575v-2l387 1l-12 -57h-462l13 62l496 581h-370l11 57h439zM501 846l-18 -86h-82l18 86h82z" />
    <glyph glyph-name="zdotaccent" unicode="&#x17c;" horiz-adv-x="476" 
d="M532 513l-12 -60l-333 -351l-50 -49h315l-11 -53h-385l11 52l336 356l52 52h-300l10 53h367zM422 720l-17 -80h-69l17 80h69z" />
    <glyph glyph-name="Zcaron" unicode="&#x17d;" horiz-adv-x="562" 
d="M639 700l-13 -67l-489 -575v-2l387 1l-12 -57h-462l13 62l496 581h-370l11 57h439zM538 870h70l-127 -120h-96l-77 120h66l63 -86z" />
    <glyph glyph-name="zcaron" unicode="&#x17e;" horiz-adv-x="476" 
d="M532 513l-12 -60l-333 -351l-50 -49h315l-11 -53h-385l11 52l336 356l52 52h-300l10 53h367zM479 740h60l-137 -130h-76l-83 130h56l70 -96z" />
    <glyph glyph-name="uni018F" unicode="&#x18f;" horiz-adv-x="744" 
d="M135 391h559q0 60 -11.5 108t-38.5 81.5t-71.5 52t-111.5 18.5q-60 0 -112 -14t-87 -29l2 62q49 18 102 28t107 10q72 0 126.5 -19t92 -54t56.5 -84.5t19 -109.5q0 -99 -30.5 -181.5t-83.5 -142t-126 -92.5t-158 -33q-57 0 -103 18.5t-79 53.5t-51 85t-18 113q0 4 0.5 13
t1 21t2 26t4.5 27zM381 49q50 0 97.5 16.5t87.5 51.5t71 89t48 128h-493q-2 -16 -3 -36t-1 -29q0 -56 15.5 -97t42 -68.5t61.5 -41t74 -13.5z" />
    <glyph glyph-name="florin" unicode="&#x192;" 
d="M125 -227q-15 0 -35 2t-40 8l10 51q13 -4 30.5 -6t29.5 -2q39 0 60 21.5t30 66.5l90 440h-106l10 53h106l33 156q14 68 51.5 106.5t106.5 38.5q37 0 69 -9l-10 -51q-14 4 -29 5.5t-28 1.5q-42 0 -65 -23.5t-32 -68.5l-32 -156h121l-10 -53h-122l-90 -440
q-6 -30 -17 -55.5t-29 -44.5t-43 -30t-59 -11z" />
    <glyph glyph-name="uni01CF" unicode="&#x1cf;" horiz-adv-x="266" 
d="M308 700l-142 -700h-66l142 700h66zM391 870h70l-127 -120h-96l-77 120h66l63 -86z" />
    <glyph glyph-name="uni01D0" unicode="&#x1d0;" horiz-adv-x="229" 
d="M250 513l-104 -513h-63l104 513h63zM358 740h60l-137 -130h-76l-83 130h56l70 -96z" />
    <glyph glyph-name="uni01DD" unicode="&#x1dd;" horiz-adv-x="508" 
d="M222 -8q-32 0 -60 8.5t-48 24.5t-31.5 38.5t-11.5 49.5q0 44 19 79t67 59.5t129 37.5q69 11 170 13v18q0 72 -37 110t-112 38q-31 0 -69.5 -6.5t-77.5 -26.5l12 58q35 14 69.5 21t80.5 7q94 0 147 -52.5t53 -145.5q0 -76 -22.5 -137.5t-62.5 -104.5t-95 -66t-120 -23z
M317 241q-65 -8 -106 -24.5t-59.5 -42.5t-18.5 -61q0 -29 25.5 -48.5t78.5 -19.5q44 0 84 18.5t70 54t47 86.5q8 21 12 45q-77 -1 -133 -8z" />
    <glyph glyph-name="Gcaron" unicode="&#x1e6;" horiz-adv-x="716" 
d="M726 608q-39 20 -81.5 31.5t-87.5 11.5q-73 0 -143 -30t-125 -93q-48 -54 -72.5 -121t-24.5 -130q0 -45 15.5 -88t45.5 -74q32 -32 82.5 -49t110.5 -17q34 0 69 5.5t70 18.5l48 236h-170l11 57h236l-68 -335q-51 -19 -104 -29t-107 -10q-64 0 -120.5 16t-95.5 51
q-38 33 -66 89.5t-28 132.5q0 86 37 173t113 153q66 57 134 79t149 22q54 0 100 -9t94 -29zM657 870h70l-127 -120h-96l-77 120h66l63 -86z" />
    <glyph glyph-name="gcaron" unicode="&#x1e7;" horiz-adv-x="568" 
d="M568 414l-84 -413q-4 -18 -10 -39.5t-16 -43.5t-25 -43t-37 -39q-35 -29 -87 -44.5t-115 -15.5q-36 0 -70 6.5t-71 21.5l18 61q38 -21 73 -28.5t61 -7.5q51 0 93 16.5t68 42.5q20 21 34 52.5t22 66.5l18 85q-11 -16 -29 -34.5t-33 -29.5q-18 -14 -47 -25t-71 -11
q-33 0 -64.5 10t-57.5 38q-6 7 -14.5 19t-16 30.5t-13 44t-5.5 60.5q0 69 22 131t60 107q27 31 55 49t53.5 27t46.5 11t34 2q7 0 27 -2.5t43 -13.5t45 -34t33 -64h3l22 106h59zM480 319q0 66 -30.5 107.5t-87.5 41.5q-38 0 -79.5 -20t-75.5 -71q-24 -36 -38 -83t-14 -99
q0 -7 0.5 -20t3.5 -29t9 -32.5t16 -29.5q19 -26 42 -32.5t40 -6.5q14 0 34.5 3t44 14.5t47.5 33t45 58.5q22 39 32.5 82.5t10.5 82.5zM505 740h60l-137 -130h-76l-83 130h56l70 -96z" />
    <glyph glyph-name="Scommaaccent" unicode="&#x218;" horiz-adv-x="496" 
d="M75 88q34 -17 73.5 -28t77.5 -11q35 0 72.5 11t65.5 34q24 20 40 49.5t16 61.5q0 43 -36 76q-9 8 -28.5 21.5t-64.5 39.5q-23 13 -46.5 27.5t-46.5 40.5q-19 20 -30 42t-11 54q0 46 22.5 90t64.5 72q20 13 41.5 21t43.5 12t42.5 5.5t38.5 1.5q38 0 75 -5.5t77 -19.5
l-22 -62q-34 16 -67 23t-70 7q-52 0 -83.5 -12.5t-48.5 -27.5q-18 -17 -30.5 -42t-12.5 -54q0 -19 6.5 -35t22.5 -31q4 -4 10 -8.5t16 -11.5t25.5 -17t38.5 -24q29 -17 58 -36t50 -43q20 -23 28 -47t8 -50q0 -52 -26 -96.5t-62 -71.5q-24 -18 -49.5 -28t-50 -15.5t-47 -7
t-38.5 -1.5q-48 0 -86.5 8t-76.5 23zM271 -50l-95 -170h-56l75 170h76z" />
    <glyph glyph-name="scommaaccent" unicode="&#x219;" horiz-adv-x="419" 
d="M437 444q-30 14 -57.5 19t-58.5 5q-23 0 -43.5 -3.5t-41.5 -17.5q-9 -6 -23.5 -22t-14.5 -48q0 -30 21.5 -46.5t71.5 -38.5q25 -11 44 -22.5t33 -25.5q32 -35 32 -84q0 -29 -13 -62t-51 -62q-33 -26 -71 -35t-78 -9q-35 0 -68 6t-66 20l16 57q32 -16 64 -23t61 -7
q24 0 53 7t54 30q20 20 26.5 40.5t6.5 37.5q0 10 -2.5 19.5t-9.5 19.5q-11 16 -30.5 25.5t-36.5 17.5q-35 16 -53 26t-28 18q-26 21 -34 44.5t-8 40.5q0 31 17 65t48 54q27 18 61.5 24.5t64.5 6.5q37 0 68 -6.5t61 -20.5zM234 -50l-95 -170h-50l75 170h70z" />
    <glyph glyph-name="Tcommaaccent" unicode="&#x21a;" horiz-adv-x="516" 
d="M643 700l-11 -57h-210l-131 -643h-66l131 643h-210l11 57h210h66h210zM308 -50l-95 -170h-56l75 170h76z" />
    <glyph glyph-name="tcommaaccent" unicode="&#x21b;" horiz-adv-x="352" 
d="M323 664l-31 -151h122l-10 -53h-122l-64 -315q-3 -13 -6 -27.5t-3 -27.5q0 -11 2.5 -20t9.5 -14q9 -8 24 -9.5t23 -1.5q29 0 56 11l-10 -53q-18 -6 -35 -8.5t-34 -2.5q-20 0 -41 4.5t-38 21.5q-13 13 -17 28.5t-4 30.5q0 7 1.5 21t7.5 43l65 319h-105l10 53h105l26 128z
M265 -50l-95 -170h-50l75 170h70z" />
    <glyph glyph-name="uni0259" unicode="&#x259;" horiz-adv-x="508" 
d="M222 -8q-32 0 -60 8.5t-48 24.5t-31.5 38.5t-11.5 49.5q0 44 19 79t67 59.5t129 37.5q69 11 170 13v18q0 72 -37 110t-112 38q-31 0 -69.5 -6.5t-77.5 -26.5l12 58q35 14 69.5 21t80.5 7q94 0 147 -52.5t53 -145.5q0 -76 -22.5 -137.5t-62.5 -104.5t-95 -66t-120 -23z
M317 241q-65 -8 -106 -24.5t-59.5 -42.5t-18.5 -61q0 -29 25.5 -48.5t78.5 -19.5q44 0 84 18.5t70 54t47 86.5q8 21 12 45q-77 -1 -133 -8z" />
    <glyph glyph-name="afii57929" unicode="&#x2bc;" horiz-adv-x="210" 
d="M315 762l-95 -170h-50l75 170h70z" />
    <glyph glyph-name="circumflex" unicode="&#x2c6;" horiz-adv-x="456" 
d="M267 610h-60l137 130h76l83 -130h-56l-70 96z" />
    <glyph glyph-name="caron" unicode="&#x2c7;" horiz-adv-x="456" 
d="M470 740h60l-137 -130h-76l-83 130h56l70 -96z" />
    <glyph glyph-name="uni02C9" unicode="&#x2c9;" horiz-adv-x="412" 
d="M480 727l-11 -54h-252l11 54h252z" />
    <glyph glyph-name="breve" unicode="&#x2d8;" horiz-adv-x="482" 
d="M293 740q6 -24 19.5 -37t27.5 -19t27 -7t18 -1q24 0 43.5 6.5t33.5 16t24.5 20.5t16.5 21h56q-30 -58 -80.5 -87t-103.5 -29q-51 0 -90 29.5t-48 86.5h56z" />
    <glyph glyph-name="dotaccent" unicode="&#x2d9;" horiz-adv-x="269" 
d="M320 720l-17 -80h-69l17 80h69z" />
    <glyph glyph-name="ring" unicode="&#x2da;" horiz-adv-x="357" 
d="M259 687q0 -17 11 -30q6 -8 15 -12.5t25 -4.5q20 0 33.5 6.5t21.5 17.5q8 9 12.5 22.5t4.5 25.5q0 19 -12 33q-15 15 -40 15q-9 0 -21.5 -3.5t-24.5 -14.5q-25 -24 -25 -55zM222 687q0 21 8.5 41.5t26.5 37.5q34 30 75 30q18 0 36 -7t31 -22q20 -23 20 -57
q0 -21 -9.5 -43t-30.5 -39q-17 -14 -36 -19t-37 -5t-34.5 6t-29.5 21q-20 23 -20 56z" />
    <glyph glyph-name="ogonek" unicode="&#x2db;" horiz-adv-x="93" 
d="M160 0q-24 -18 -37 -30.5t-23 -23.5q-8 -8 -16.5 -22t-8.5 -31q0 -15 8 -21q11 -8 23 -8q11 0 21.5 4.5t22.5 11.5l11 -35q-9 -5 -16 -8.5t-10 -5.5q-10 -5 -18.5 -7t-20.5 -2q-14 0 -27 3t-24 14q-19 18 -19 45q0 24 11 42.5t22 30.5q10 11 22.5 22.5t25.5 20.5h53z" />
    <glyph glyph-name="tilde" unicode="&#x2dc;" horiz-adv-x="447" 
d="M518 741q-5 -32 -28.5 -56.5t-65.5 -24.5q-20 0 -35 4.5t-29 10.5q-15 7 -30 13.5t-29 6.5q-10 0 -25 -7t-24 -28h-38q6 38 33.5 61t62.5 23q20 0 39 -6t34 -13q16 -7 27.5 -11.5t22.5 -4.5q10 0 24.5 6t22.5 26h38z" />
    <glyph glyph-name="hungarumlaut" unicode="&#x2dd;" horiz-adv-x="433" 
d="M511 740l-155 -130h-51l112 130h94zM361 740l-155 -130h-51l112 130h94z" />
    <glyph glyph-name="gravecomb" unicode="&#x300;" horiz-adv-x="2" 
d="M-72 610h-48l-105 130h91z" />
    <glyph glyph-name="acutecomb" unicode="&#x301;" horiz-adv-x="2" 
d="M18 740l-154 -130h-56l116 130h94z" />
    <glyph glyph-name="uni037E" unicode="&#x37e;" horiz-adv-x="313" 
d="M318 513l-17 -86h-82l17 86h82zM246 89l-118 -218h-69l99 218h88z" />
    <glyph glyph-name="uni0394" unicode="&#x394;" horiz-adv-x="668" 
d="M28 0l410 700h76l126 -700h-612zM148 70h400l-93 527z" />
    <glyph glyph-name="uni03A9" unicode="&#x3a9;" horiz-adv-x="733" 
d="M280 86q-38 11 -67.5 31t-48.5 43q-26 32 -39.5 74t-13.5 87q0 43 12 85t32 80.5t47.5 72t58.5 59.5q55 45 119 67.5t127 22.5q61 0 110.5 -20.5t83.5 -55.5t52.5 -83t18.5 -102q0 -36 -9 -74.5t-27 -76t-45 -72.5t-63 -64q-29 -23 -66 -42.5t-82 -31.5l-5 -29h173l24 68
l54 -6l-43 -119h-277l25 122q72 17 127.5 56t88.5 90q24 37 39 83.5t15 92.5q0 30 -6 53.5t-14.5 41.5t-17.5 30t-16 19q-30 32 -70 47.5t-82 15.5q-32 0 -64 -9t-62 -24t-56.5 -35t-45.5 -42q-20 -23 -35.5 -49.5t-26.5 -55t-17 -57.5t-6 -55q0 -29 6.5 -59t23.5 -56
q16 -26 49 -51.5t84 -35.5l-25 -122h-277l5 119l56 6l-2 -68h173z" />
    <glyph glyph-name="uni03BC" unicode="&#x3bc;" horiz-adv-x="554" 
d="M578 513l-104 -513h-55l21 102q-13 -26 -29.5 -43.5t-36.5 -31.5q-31 -20 -58.5 -26.5t-58.5 -6.5q-12 0 -26 1.5t-28 7t-27 16.5t-23 30l-55 -268h-63l149 732h63l-60 -297q-4 -20 -7.5 -49t2.5 -56t27 -46.5t68 -19.5q36 0 63.5 13t49.5 36q48 48 65 122l60 297h63z
" />
    <glyph glyph-name="pi" unicode="&#x3c0;" horiz-adv-x="664" 
d="M262 460h-20q-11 0 -25 -2.5t-25 -7.5q-13 -6 -28 -18t-27 -32l-40 26q10 14 24 30t29 27q20 14 48 22t54 8h471l-10 -53h-74l-72 -350q-2 -10 -2 -18q0 -10 4 -20t17 -18q6 -3 16.5 -6l17.5 -5l-25 -51q-20 2 -39 9t-31 18q-24 21 -24 60q0 14 3 31l72 350h-251
l-94 -460h-63z" />
    <glyph glyph-name="afii10023" unicode="&#x401;" horiz-adv-x="509" 
d="M582 700l-11 -57h-274l-52 -253h261l-11 -57h-261l-56 -276h293l-12 -57h-292h-67l142 700h66h274zM372 844l-17 -80h-69l17 80h69zM571 844l-17 -80h-69l17 80h69z" />
    <glyph glyph-name="afii10051" unicode="&#x402;" horiz-adv-x="771" 
d="M361 700h66h227l-11 -57h-228l-48 -237q41 26 88 39q40 12 69.5 15.5t47.5 3.5q49 0 80.5 -13t50.5 -30q30 -27 37.5 -58t7.5 -58q0 -29 -5.5 -61.5t-16 -64.5t-25 -60.5t-31.5 -48.5q-31 -37 -78 -58t-101 -21q-45 0 -88 15l16 57q37 -14 70 -14q42 0 78.5 18.5
t59.5 51.5q11 16 20 38.5t15.5 46.5t10 47.5t3.5 42.5t-4.5 41.5t-24.5 40.5q-20 20 -49.5 25.5t-52.5 5.5q-32 0 -55.5 -4.5t-50.5 -15.5q-23 -8 -43.5 -17.5t-40.5 -20.5l-71 -349h-66l131 643h-203l11 57h204z" />
    <glyph glyph-name="afii10052" unicode="&#x403;" horiz-adv-x="469" 
d="M601 700l-11 -57h-293l-131 -643h-66l142 700h68h291zM582 870l-150 -120h-70l108 120h112z" />
    <glyph glyph-name="afii10053" unicode="&#x404;" horiz-adv-x="609" 
d="M593 21q-49 -17 -93 -23t-89 -6q-54 0 -106 12.5t-97 52.5q-39 35 -62.5 89.5t-23.5 120.5q0 52 14 104t37.5 98.5t54 85.5t63.5 66q63 51 134 69t144 18q42 0 76 -6t73 -23l-19 -62q-38 20 -74.5 27t-74.5 7q-69 0 -122.5 -20t-99.5 -62q-27 -24 -46.5 -49t-33 -48.5
t-21.5 -44.5t-12 -36h345l-12 -57h-348q-7 -28 -7 -64q0 -42 13 -83.5t44 -73.5q19 -20 41 -32.5t44.5 -19.5t44.5 -9.5t42 -2.5q57 0 102 10t80 25z" />
    <glyph glyph-name="afii10054" unicode="&#x405;" horiz-adv-x="496" 
d="M75 88q34 -17 73.5 -28t77.5 -11q35 0 72.5 11t65.5 34q24 20 40 49.5t16 61.5q0 43 -36 76q-9 8 -28.5 21.5t-64.5 39.5q-23 13 -46.5 27.5t-46.5 40.5q-19 20 -30 42t-11 54q0 46 22.5 90t64.5 72q20 13 41.5 21t43.5 12t42.5 5.5t38.5 1.5q38 0 75 -5.5t77 -19.5
l-22 -62q-34 16 -67 23t-70 7q-52 0 -83.5 -12.5t-48.5 -27.5q-18 -17 -30.5 -42t-12.5 -54q0 -19 6.5 -35t22.5 -31q4 -4 10 -8.5t16 -11.5t25.5 -17t38.5 -24q29 -17 58 -36t50 -43q20 -23 28 -47t8 -50q0 -52 -26 -96.5t-62 -71.5q-24 -18 -49.5 -28t-50 -15.5t-47 -7
t-38.5 -1.5q-48 0 -86.5 8t-76.5 23z" />
    <glyph glyph-name="afii10055" unicode="&#x406;" horiz-adv-x="266" 
d="M308 700l-142 -700h-66l142 700h66z" />
    <glyph glyph-name="afii10056" unicode="&#x407;" horiz-adv-x="266" 
d="M308 700l-142 -700h-66l142 700h66zM274 844l-17 -80h-70l17 80h70zM406 844l-17 -80h-70l17 80h70z" />
    <glyph glyph-name="afii10057" unicode="&#x408;" horiz-adv-x="351" 
d="M393 700l-108 -532q-3 -14 -8 -33t-14 -38.5t-23 -38.5t-35 -34q-23 -17 -53 -25t-62 -8q-34 0 -75 11l18 58q30 -11 61 -11q23 0 46 8.5t41 28.5t26.5 42.5t13.5 46.5l106 525h66z" />
    <glyph glyph-name="afii10058" unicode="&#x409;" horiz-adv-x="993" 
d="M68 -8q-11 0 -20 1t-15 3q-7 2 -13 4l11 57l12 -4q5 -2 12 -3t15 -1q18 0 34.5 5.5t33 22.5t33.5 49t35 85.5t37.5 131.5t41.5 187l34 170h391l-58 -287h112q35 0 76.5 -6.5t75.5 -31.5q10 -7 21 -18t20 -26t15 -35.5t6 -45.5q0 -54 -25 -107.5t-79 -90.5
q-3 -2 -16.5 -10.5t-34.5 -17.5t-49 -16.5t-60 -7.5h-212l130 643h-258l-23 -113q-25 -121 -47.5 -207.5t-44 -146.5t-43 -96t-44.5 -55.5t-49 -26t-55 -6.5zM905 241q0 38 -14.5 61t-35.5 34q-18 10 -47.5 15t-56.5 5h-111l-60 -299h115q15 0 34 1.5t40 7.5t42.5 17.5
t40.5 31.5q26 26 39.5 61t13.5 65z" />
    <glyph glyph-name="afii10059" unicode="&#x40a;" horiz-adv-x="1023" 
d="M308 700l-58 -287h365l58 287h66l-58 -287h112h38q32 0 68.5 -10.5t65.5 -39.5q27 -27 34 -55.5t7 -52.5q0 -67 -27.5 -115.5t-72.5 -82.5q-29 -22 -70 -39.5t-93 -17.5h-145h-67l72 356h-365l-72 -356h-66l142 700h66zM609 57h126q22 0 58 7t72 36q32 26 51 65.5
t19 78.5q0 21 -8 42.5t-22 35.5q-13 13 -30 20t-34.5 10t-33.5 3.5t-27 0.5h-111z" />
    <glyph glyph-name="afii10060" unicode="&#x40b;" horiz-adv-x="762" 
d="M643 700l-11 -57h-220l-48 -237q24 14 43.5 21t44.5 15q24 8 49.5 15t62.5 7q94 0 138 -39q23 -20 31 -46t8 -51q0 -17 -2.5 -32l-4.5 -27l-55 -269h-66l52 254q4 18 7 35t3 32q0 16 -5 30.5t-18 27.5q-21 21 -47.5 26.5t-50.5 5.5q-31 0 -55.5 -5.5t-51.5 -15.5
q-23 -8 -46.5 -18t-48.5 -23l-71 -349h-66l131 643h-200l11 57h201h67h218z" />
    <glyph glyph-name="afii10061" unicode="&#x40c;" horiz-adv-x="591" 
d="M308 700l-65 -323h1l378 323h86l-399 -337l297 -363h-87l-267 335l-13 19l-1 -1l-72 -353h-66l142 700h66zM620 870l-150 -120h-70l108 120h112z" />
    <glyph glyph-name="afii10062" unicode="&#x40e;" horiz-adv-x="563" 
d="M221 700l105 -372l18 -88h3l48 84l232 376h72l-367 -589q-15 -24 -30.5 -46.5t-35.5 -39.5q-39 -33 -96 -33q-21 0 -37.5 3.5t-27.5 8.5l14 56q17 -11 46 -11q37 0 66 27q11 10 19 22.5t19 29.5l26 42l-148 530h74zM422 755q-57 0 -95 25.5t-38 81.5v13t2 14l59 6
q-1 -4 -1 -7.5v-6.5q0 -40 22.5 -57t61.5 -17q44 0 75 20t46 68l55 -6q-9 -35 -28 -60.5t-43.5 -42t-54.5 -24t-61 -7.5z" />
    <glyph glyph-name="afii10145" unicode="&#x40f;" horiz-adv-x="704" 
d="M242 700h66l-130 -643h372l130 643h66l-142 -700h-66h-153l-31 -152h-66l31 152h-153h-66z" />
    <glyph glyph-name="afii10017" unicode="&#x410;" horiz-adv-x="650" 
d="M427 700h86l122 -700h-72l-33 192h-329l-113 -192h-73zM520 249l-62 385h-2l-221 -385h285z" />
    <glyph glyph-name="afii10018" unicode="&#x411;" horiz-adv-x="574" 
d="M616 700l-11 -57h-308l-51 -249h120q13 0 29.5 -1t34.5 -4.5t35.5 -10t33.5 -17.5q9 -6 19 -16t19 -26t15 -36.5t6 -47.5q0 -54 -25 -103t-70 -81q-24 -18 -49.5 -28t-50 -15t-46 -6.5t-36.5 -1.5h-114h-67l142 700h67h307zM178 57h102q32 0 69 7t70 31q32 24 49.5 60
t17.5 75q0 16 -5 37t-25 39q-25 23 -57 27t-61 4h-103z" />
    <glyph glyph-name="afii10019" unicode="&#x412;" horiz-adv-x="579" 
d="M418 700q16 0 35.5 -1t39.5 -6t39 -15t35 -27q14 -14 24 -38.5t10 -59.5q0 -26 -6.5 -49.5t-17.5 -43.5q-17 -29 -51.5 -56.5t-85.5 -38.5v-2q32 -6 52.5 -21t31.5 -29q11 -15 20.5 -38t9.5 -56q0 -57 -26 -101t-63 -70q-45 -32 -93 -40t-86 -8h-120h-66l142 700h66h110z
M245 390h112q21 0 47 5.5t53 22.5q13 9 26.5 23t23.5 31t16.5 37.5t6.5 42.5q0 42 -30 66q-12 10 -33.5 17.5t-55.5 7.5h-114zM178 57h106q35 0 74.5 7.5t73.5 37.5q22 20 36.5 49.5t14.5 68.5q0 20 -5.5 40.5t-22.5 37.5q-23 23 -53.5 29t-54.5 6h-113z" />
    <glyph glyph-name="afii10020" unicode="&#x413;" horiz-adv-x="469" 
d="M601 700l-11 -57h-293l-131 -643h-66l142 700h68h291z" />
    <glyph glyph-name="afii10021" unicode="&#x414;" horiz-adv-x="698" 
d="M653 700h66l-130 -643h81l-43 -209h-66l31 152h-506l-31 -152h-66l43 209h59q12 13 29 35.5t36 52.5t38 67t34 81q20 57 31.5 112t20.5 103l39 192h67h267zM374 643l-29 -143q-10 -51 -19 -90.5t-17.5 -71t-17 -56.5t-17.5 -47q-20 -48 -48 -93.5t-60 -84.5h357l119 586
h-268z" />
    <glyph glyph-name="afii10022" unicode="&#x415;" horiz-adv-x="509" 
d="M582 700l-11 -57h-274l-52 -253h261l-11 -57h-261l-56 -276h293l-12 -57h-292h-67l142 700h66h274z" />
    <glyph glyph-name="afii10024" unicode="&#x416;" horiz-adv-x="866" 
d="M608 700l-64 -319h3l346 319h80l-361 -328l252 -372h-95l-228 354h-3l-72 -354h-66l72 354h-3l-372 -354h-95l404 372l-229 328h80l218 -319h3l64 319h66z" />
    <glyph glyph-name="afii10025" unicode="&#x417;" horiz-adv-x="510" 
d="M207 394h82q38 0 76 8t74 42q20 20 32 46.5t12 57.5q0 23 -8 42.5t-28 34.5q-23 18 -49 22t-47 4q-29 0 -76.5 -6.5t-107.5 -32.5l7 63q43 15 91 24t103 9q34 0 72.5 -7.5t70.5 -37.5q16 -15 30 -41.5t14 -65.5q0 -42 -14.5 -74t-37.5 -56q-26 -27 -51.5 -39.5
t-45.5 -17.5v-2q25 -5 46 -18t35 -30q15 -18 20.5 -39.5t5.5 -44.5q0 -20 -5 -44t-17.5 -49.5t-34 -50.5t-55.5 -47q-45 -29 -91 -40.5t-95 -11.5q-57 0 -101.5 11.5t-86.5 32.5l22 62q27 -16 53 -25.5t48 -15t39.5 -7t29.5 -1.5q51 0 92 14t70 39q32 27 46.5 60.5
t14.5 65.5q0 35 -14.5 53.5t-25.5 26.5q-12 8 -27.5 13.5t-32 9t-32.5 5t-29 1.5h-85z" />
    <glyph glyph-name="afii10026" unicode="&#x418;" horiz-adv-x="717" 
d="M308 700l-107 -526l-21 -85h3l54 71l447 540h11h64l-142 -700h-66l107 526l21 85h-3l-48 -66l-453 -545h-10h-65l142 700h66z" />
    <glyph glyph-name="afii10027" unicode="&#x419;" horiz-adv-x="717" 
d="M308 700l-107 -526l-21 -85h3l54 71l447 540h11h64l-142 -700h-66l107 526l21 85h-3l-48 -66l-453 -545h-10h-65l142 700h66zM497 755q-57 0 -95 25.5t-38 81.5v13t2 14l59 6q-1 -4 -1 -7.5v-6.5q0 -40 22.5 -57t61.5 -17q44 0 75 20t46 68l55 -6q-9 -35 -28 -60.5
t-43.5 -42t-54.5 -24t-61 -7.5z" />
    <glyph glyph-name="afii10028" unicode="&#x41a;" horiz-adv-x="591" 
d="M308 700l-65 -323h1l378 323h86l-399 -337l297 -363h-87l-267 335l-13 19l-1 -1l-72 -353h-66l142 700h66z" />
    <glyph glyph-name="afii10029" unicode="&#x41b;" horiz-adv-x="668" 
d="M710 700l-142 -700h-66l131 643h-259l-23 -113q-25 -121 -47.5 -207.5t-44 -146.5t-43 -96t-44.5 -55.5t-49 -26t-55 -6.5q-11 0 -20 1t-15 3q-7 2 -13 4l11 57l12 -4q5 -2 12 -3t15 -1q18 0 34.5 5.5t33 22.5t33.5 49t35 85.5t37.5 131.5t41.5 187l34 170h391z" />
    <glyph glyph-name="afii10030" unicode="&#x41c;" horiz-adv-x="814" 
d="M242 700h104l116 -435l291 435h103l-142 -700h-66l130 640h-2l-296 -440h-66l-116 440h-2l-130 -640h-66z" />
    <glyph glyph-name="afii10031" unicode="&#x41d;" horiz-adv-x="696" 
d="M308 700l-62 -309h364l62 309h66l-142 -700h-66l68 334h-364l-68 -334h-66l142 700h66z" />
    <glyph glyph-name="afii10032" unicode="&#x41e;" horiz-adv-x="748" 
d="M378 -8q-23 0 -48.5 3t-52 12t-51.5 25t-47 43q-20 24 -32 50t-18 51t-8 48.5t-2 42.5q0 88 30 172.5t90 150.5q34 36 70 59t71.5 36t69 18t63.5 5q66 0 114.5 -19.5t80.5 -55.5t47.5 -86.5t15.5 -112.5q0 -108 -34 -187.5t-83 -133.5q-54 -58 -121 -89.5t-155 -31.5z
M190 257q0 -31 8 -70.5t34 -71.5q8 -11 21 -22.5t31.5 -21t43 -16t54.5 -6.5q70 0 137 37.5t113 107.5q33 51 50.5 115.5t17.5 134.5q0 32 -7.5 69.5t-34.5 71.5q-9 11 -22 22.5t-31.5 21.5t-42.5 16t-54 6q-66 0 -132 -35t-117 -110q-5 -7 -16.5 -27.5t-23 -53t-20.5 -75
t-9 -93.5z" />
    <glyph glyph-name="afii10033" unicode="&#x41f;" horiz-adv-x="697" 
d="M672 700h67l-142 -700h-66l131 643h-365l-131 -643h-66l142 700h66h364z" />
    <glyph glyph-name="afii10034" unicode="&#x420;" horiz-adv-x="532" 
d="M242 700h158q101 0 147.5 -42.5t46.5 -117.5q0 -60 -18.5 -108t-53.5 -82t-86 -52t-117 -18h-96l-57 -280h-66zM326 337q98 0 149 51.5t51 151.5q0 48 -32 75.5t-105 27.5h-92l-63 -306h92z" />
    <glyph glyph-name="afii10035" unicode="&#x421;" horiz-adv-x="613" 
d="M591 19q-39 -13 -81.5 -20t-90.5 -7q-59 0 -116.5 15.5t-103.5 61.5q-32 32 -54.5 85t-22.5 128t25.5 146t70.5 128q38 47 80.5 76.5t87 46.5t88.5 23t84 6t77.5 -5.5t79.5 -20.5l-18 -60q-35 14 -71.5 21.5t-68.5 7.5q-64 0 -133 -26.5t-123 -80.5q-46 -48 -77 -117
t-31 -150q0 -35 6.5 -62.5t16.5 -48.5t21.5 -35.5t21.5 -24.5q20 -19 43 -30.5t45.5 -17.5t42.5 -7.5t34 -1.5q32 0 61 4t53 9.5t41 11t25 8.5z" />
    <glyph glyph-name="afii10036" unicode="&#x422;" horiz-adv-x="516" 
d="M643 700l-11 -57h-210l-131 -643h-66l131 643h-210l11 57h210h66h210z" />
    <glyph glyph-name="afii10037" unicode="&#x423;" horiz-adv-x="563" 
d="M221 700l105 -372l18 -88h3l48 84l232 376h72l-367 -589q-15 -24 -30.5 -46.5t-35.5 -39.5q-39 -33 -96 -33q-21 0 -37.5 3.5t-27.5 8.5l14 56q17 -11 46 -11q37 0 66 27q11 10 19 22.5t19 29.5l26 42l-148 530h74z" />
    <glyph glyph-name="afii10038" unicode="&#x424;" horiz-adv-x="861" 
d="M413 83h-37q-58 0 -103.5 16t-76.5 44.5t-47 68.5t-16 87q0 68 27 129.5t74.5 108t112.5 73.5t142 27h37l19 91h66l-19 -91h37q58 0 104 -16t77 -45t47.5 -69t16.5 -87q0 -68 -27.5 -129.5t-75.5 -107.5t-113.5 -73t-141.5 -27h-37l-18 -91h-66zM478 580q-60 0 -110 -21
t-86.5 -58t-57 -87t-20.5 -108q0 -75 47.5 -120.5t136.5 -45.5h37l90 440h-37zM528 140q59 0 109.5 21t87 57.5t57.5 86.5t21 108q0 76 -47.5 121.5t-137.5 45.5h-37l-90 -440h37z" />
    <glyph glyph-name="afii10039" unicode="&#x425;" horiz-adv-x="635" 
d="M254 700l129 -253l14 -33h2l24 33l227 253h82l-301 -329l187 -371h-79l-129 257l-29 67h-2l-51 -70l-226 -254h-82l328 371l-176 329h82z" />
    <glyph glyph-name="afii10040" unicode="&#x426;" horiz-adv-x="725" 
d="M308 700l-130 -643h372l130 643h66l-130 -643h83l-43 -209h-66l31 152h-453h-68l142 700h66z" />
    <glyph glyph-name="afii10041" unicode="&#x427;" horiz-adv-x="640" 
d="M274 700l-47 -232q-4 -15 -4 -35q0 -18 6.5 -35t26.5 -31q25 -18 56 -21.5t54 -3.5q45 0 77 2.5t62 6.5l41 5l70 344h66l-142 -700h-66l61 299l-40 -4q-19 -2 -35.5 -3.5l-33 -3t-35.5 -2.5t-43 -1q-15 0 -34.5 1.5t-40.5 6t-41 12.5t-36 22q-24 20 -32.5 44t-8.5 47
q0 14 2 26.5t4 22.5l47 233h66z" />
    <glyph glyph-name="afii10042" unicode="&#x428;" horiz-adv-x="1030" 
d="M690 700l-130 -643h316l130 643h66l-142 -700h-67h-315h-66h-314h-68l142 700h66l-130 -643h316l130 643h66z" />
    <glyph glyph-name="afii10043" unicode="&#x429;" horiz-adv-x="1051" 
d="M690 700l-130 -643h316l130 643h66l-130 -643h75l-43 -209h-66l31 152h-390h-68h-315h-66l142 700h66l-130 -643h316l130 643h66z" />
    <glyph glyph-name="afii10044" unicode="&#x42a;" horiz-adv-x="677" 
d="M327 700h65l-58 -287h112q23 0 46 -1t45 -5.5t42.5 -15t38.5 -28.5q18 -19 30 -45.5t12 -60.5q0 -23 -5 -48t-15 -50t-25.5 -48t-36.5 -42q-28 -26 -76 -47.5t-114 -21.5h-138h-66l131 643h-164l11 57h165zM262 57h126q30 0 54 6.5t42 15t29.5 17.5t17.5 14
q25 23 41 60.5t16 75.5q0 46 -30 76q-13 13 -30 20t-34.5 10t-33.5 3.5t-27 0.5h-111z" />
    <glyph glyph-name="afii10045" unicode="&#x42b;" horiz-adv-x="806" 
d="M308 700l-58 -287h112q20 0 41 -0.5t42 -4.5t41 -12.5t38 -24.5q18 -17 34.5 -45t16.5 -71q0 -51 -23 -104.5t-77 -93.5q-25 -19 -50 -30t-49 -17t-47.5 -8t-45.5 -2h-118h-65l142 700h66zM178 57h109q12 0 29.5 1.5t37 6t40.5 13.5t41 25q23 18 36.5 37.5t21 38.5
t9.5 36t2 31q0 22 -8 44.5t-34 40.5q-26 19 -58 22t-55 3h-111zM848 700l-142 -700h-66l142 700h66z" />
    <glyph glyph-name="afii10046" unicode="&#x42c;" horiz-adv-x="593" 
d="M308 700l-58 -287h112q35 0 76.5 -6.5t75.5 -31.5q10 -7 21 -18t20 -26t15 -35.5t6 -45.5q0 -54 -25 -107.5t-79 -90.5q-3 -2 -16.5 -10.5t-34.5 -17.5t-49 -16.5t-60 -7.5h-145h-67l142 700h66zM178 57h115q15 0 34 1.5t40 7.5t42.5 17.5t40.5 31.5q26 26 39.5 61
t13.5 65q0 38 -14.5 61t-35.5 34q-18 10 -47.5 15t-56.5 5h-111z" />
    <glyph glyph-name="afii10047" unicode="&#x42d;" horiz-adv-x="641" 
d="M214 392h373q1 10 1.5 20.5t0.5 21.5q0 35 -11.5 73.5t-39.5 70.5q-38 44 -85.5 58.5t-92.5 14.5q-57 0 -105 -12.5t-90 -35.5l5 63q43 19 92.5 30.5t109.5 11.5q23 0 50.5 -3t56 -11.5t56.5 -24.5t52 -42q30 -32 51.5 -82.5t21.5 -122.5q0 -59 -14.5 -113t-40 -100.5
t-59.5 -84t-74 -62.5q-6 -4 -26.5 -15.5t-54 -23.5t-78.5 -21.5t-99 -9.5q-38 0 -79.5 7t-86.5 23l13 64q37 -18 75 -27.5t81 -9.5q67 0 127 18.5t106 53.5q18 14 37 34t36.5 46.5t31 59.5t20.5 74h-373z" />
    <glyph glyph-name="afii10048" unicode="&#x42e;" horiz-adv-x="976" 
d="M366 391q18 67 53.5 124.5t81.5 99.5q19 17 44 34t56 30t68 21t80 8q60 0 107 -20t78.5 -55.5t48 -85t16.5 -109.5q0 -97 -30.5 -172t-82.5 -136q-60 -71 -127.5 -104.5t-157.5 -33.5q-69 0 -123 23.5t-90 78.5q-23 35 -33 77t-10 84q0 41 8 79h-119l-68 -334h-66
l142 700h66l-62 -309h120zM427 349q-4 -20 -6 -40t-2 -40q0 -68 18 -108.5t38 -60.5q23 -23 57 -37t79 -14q13 0 36.5 2.5t52 13t60.5 31t63 56.5q24 27 43 59.5t32.5 68.5t21 72.5t7.5 71.5q0 60 -15.5 103t-42 70.5t-61.5 40.5t-75 13q-54 0 -105.5 -23t-90.5 -62
q-21 -21 -38.5 -47t-31.5 -54.5t-24 -58t-16 -57.5z" />
    <glyph glyph-name="afii10049" unicode="&#x42f;" horiz-adv-x="609" 
d="M287 293q-98 34 -98 147q0 60 18.5 108t54 82t87 52t118.5 18h184l-142 -700h-66l57 280h-117h-17.5t-16.5 1l-203 -281h-81zM261 440q0 -48 31.5 -75.5t101.5 -27.5h117l63 306h-118q-91 0 -143 -53t-52 -150z" />
    <glyph glyph-name="afii10065" unicode="&#x430;" horiz-adv-x="566" 
d="M256 -8q-77 0 -122 48t-45 142q0 78 22.5 141t59.5 107t85.5 67.5t99.5 23.5q58 0 92 -25t57 -75l18 89h63l-104 -510h-55l21 106h-3q-30 -48 -79 -81t-110 -33zM264 45q39 0 77 20t68 56t49 87t19 113q0 73 -33.5 110t-85.5 37q-35 0 -71.5 -20t-66 -57.5t-48 -91
t-18.5 -120.5q0 -71 28.5 -102.5t81.5 -31.5z" />
    <glyph glyph-name="afii10066" unicode="&#x431;" horiz-adv-x="589" 
d="M645 715q-29 -6 -49 -8.5t-36.5 -4t-33 -2t-39.5 -2.5q-57 -5 -95 -15t-71 -35q-29 -21 -52 -51.5t-40 -65.5q-6 -14 -12.5 -30.5t-12 -33.5t-9.5 -33t-6 -29l-4 -24h3q25 45 56 71.5t55 39.5q29 16 59 22.5t57 6.5q52 0 86 -18.5t53 -38.5q32 -34 40.5 -70.5t8.5 -67.5
q0 -72 -25.5 -137t-74.5 -113q-39 -38 -91 -61t-110 -23t-93 20t-53 41q-20 23 -35 63t-15 101q0 48 10 106t25 112q4 14 10 33t13.5 39.5t16.5 41t18 36.5q18 32 45 62t61 52q26 17 53 27t53 16t49.5 8.5t41.5 4.5q21 2 38.5 3.5l35 3t37 4.5t44.5 8zM397 468
q-43 0 -76.5 -16.5t-56.5 -37.5q-21 -19 -38 -44t-29 -53t-18.5 -58t-6.5 -60q0 -45 12 -71t26 -42q21 -23 46 -32t53 -9q55 0 97.5 25t71.5 64t44 87.5t15 95.5q0 33 -8.5 60.5t-30.5 50.5q-39 40 -101 40z" />
    <glyph glyph-name="afii10067" unicode="&#x432;" horiz-adv-x="535" 
d="M387 513q27 0 54.5 -7.5t47.5 -24.5q10 -8 22 -26.5t12 -48.5q0 -29 -11.5 -54.5t-28.5 -42.5q-2 -2 -16.5 -14t-40.5 -23v-2q31 -11 52.5 -32t21.5 -65q0 -37 -17.5 -71t-46.5 -58q-36 -29 -73 -36.5t-69 -7.5h-151h-63l104 513h64h139zM203 293h136q23 0 41.5 4.5
t37.5 19.5q21 17 30.5 37.5t9.5 40.5q0 18 -7 29.5t-15 17.5q-23 18 -63 18h-136zM154 53h146q29 0 50.5 7t35.5 17q20 14 33.5 37t13.5 49q0 20 -6.5 33.5t-17.5 22.5q-18 15 -39 18t-42 3h-136z" />
    <glyph glyph-name="afii10068" unicode="&#x433;" horiz-adv-x="390" 
d="M221 -8q-80 0 -118 33.5t-38 84.5q0 31 13.5 57.5t36 49t51 40t59.5 31.5q47 21 76 36t45 28.5t21.5 27t5.5 30.5q0 28 -19.5 43t-75.5 15q-35 0 -67 -8t-64 -24l12 58q34 14 64 20.5t63 6.5q41 0 69.5 -9t46 -24t25.5 -35t8 -43q0 -25 -8 -44.5t-27.5 -37.5t-52.5 -37
t-84 -43q-65 -30 -98 -59.5t-33 -78.5q0 -26 23.5 -45.5t74.5 -19.5q68 0 143 32l-12 -62q-39 -13 -72.5 -18t-67.5 -5z" />
    <glyph glyph-name="afii10069" unicode="&#x434;" horiz-adv-x="568" 
d="M568 414l-84 -413q-4 -18 -10 -39.5t-16 -43.5t-25 -43t-37 -39q-35 -29 -87 -44.5t-115 -15.5q-36 0 -70 6.5t-71 21.5l18 61q38 -21 73 -28.5t61 -7.5q51 0 93 16.5t68 42.5q20 21 34 52.5t22 66.5l18 85q-11 -16 -29 -34.5t-33 -29.5q-18 -14 -47 -25t-71 -11
q-33 0 -64.5 10t-57.5 38q-6 7 -14.5 19t-16 30.5t-13 44t-5.5 60.5q0 69 22 131t60 107q27 31 55 49t53.5 27t46.5 11t34 2q7 0 27 -2.5t43 -13.5t45 -34t33 -64h3l22 106h59zM480 319q0 66 -30.5 107.5t-87.5 41.5q-38 0 -79.5 -20t-75.5 -71q-24 -36 -38 -83t-14 -99
q0 -7 0.5 -20t3.5 -29t9 -32.5t16 -29.5q19 -26 42 -32.5t40 -6.5q14 0 34.5 3t44 14.5t47.5 33t45 58.5q22 39 32.5 82.5t10.5 82.5z" />
    <glyph glyph-name="afii10070" unicode="&#x435;" horiz-adv-x="509" 
d="M284 -8q-94 0 -147 52.5t-53 145.5q0 76 22.5 137.5t62.5 104.5t95 66t120 23q32 0 59.5 -8.5t48 -24.5t32 -38.5t11.5 -49.5q0 -42 -18 -76.5t-62 -58.5t-118 -38t-187 -16v-18q0 -72 37 -110t112 -38q31 0 69.5 6.5t77.5 26.5l-12 -58q-35 -14 -69.5 -21t-80.5 -7z
M369 468q-38 0 -72.5 -13.5t-63 -40t-48.5 -64.5t-29 -86q86 1 146.5 9.5t98.5 25.5t55 42t17 59q0 29 -25.5 48.5t-78.5 19.5z" />
    <glyph glyph-name="afii10072" unicode="&#x436;" horiz-adv-x="741" 
d="M506 513l-47 -232h3l272 232h77l-283 -239l208 -274h-90l-189 258h-3l-52 -258h-63l52 258h-3l-293 -258h-90l320 274l-187 239h77l178 -232h3l47 232h63z" />
    <glyph glyph-name="afii10073" unicode="&#x437;" horiz-adv-x="437" 
d="M193 293h46q21 0 47 4.5t49 18.5q22 14 33.5 35t11.5 44q0 22 -8.5 34.5t-16.5 18.5q-19 15 -43.5 17.5t-38.5 2.5q-43 0 -75.5 -9.5t-55.5 -19.5l10 55q30 11 66 19t72 8q34 0 60.5 -6.5t49.5 -23.5q22 -16 33 -36t11 -48q0 -34 -11.5 -57.5t-27.5 -39.5
q-11 -11 -26.5 -21t-35.5 -16l-1 -3q22 -5 36 -14.5t22 -19.5q3 -5 12.5 -21t9.5 -45q0 -43 -25 -82.5t-67 -62.5q-32 -18 -72 -25.5t-76 -7.5q-48 0 -84.5 11t-62.5 23l19 58q32 -20 65 -29.5t75 -9.5q26 0 57 6t59 29q20 17 32.5 40t12.5 48q0 26 -12 39.5t-25 19.5
q-16 8 -43.5 11t-46.5 3h-46z" />
    <glyph glyph-name="afii10074" unicode="&#x438;" horiz-adv-x="556" 
d="M245 513l-65 -320q-2 -11 -4.5 -24t-2.5 -33q0 -6 0.5 -14.5t2.5 -18t6.5 -19t13.5 -17.5q11 -10 28 -16t40 -6q68 0 118 47q7 6 17 17t20.5 26.5t19.5 35.5t14 45l60 297h63l-80 -396l-20 -117h-59l21 102h-1q-29 -46 -67 -72q-17 -13 -47 -25.5t-75 -12.5
q-26 0 -49.5 6.5t-44.5 24.5q-26 22 -35 50t-9 60q0 20 2.5 36t6.5 33l63 311h63z" />
    <glyph glyph-name="afii10075" unicode="&#x439;" horiz-adv-x="556" 
d="M245 513l-65 -320q-2 -11 -4.5 -24t-2.5 -33q0 -6 0.5 -14.5t2.5 -18t6.5 -19t13.5 -17.5q11 -10 28 -16t40 -6q68 0 118 47q7 6 17 17t20.5 26.5t19.5 35.5t14 45l60 297h63l-80 -396l-20 -117h-59l21 102h-1q-29 -46 -67 -72q-17 -13 -47 -25.5t-75 -12.5
q-26 0 -49.5 6.5t-44.5 24.5q-26 22 -35 50t-9 60q0 20 2.5 36t6.5 33l63 311h63zM399 590q-27 0 -50.5 6t-41 19t-27.5 33.5t-10 48.5v13t2 14l57 6q-1 -5 -1 -14q0 -41 22.5 -58.5t59.5 -17.5q42 0 72 20.5t45 69.5l53 -6q-9 -35 -27.5 -60.5t-42.5 -42t-52.5 -24
t-58.5 -7.5z" />
    <glyph glyph-name="afii10076" unicode="&#x43a;" horiz-adv-x="474" 
d="M247 513l-46 -226h3l281 226h81l-302 -241l222 -272h-86l-202 254h-3l-52 -254h-63l104 513h63z" />
    <glyph glyph-name="afii10077" unicode="&#x43b;" horiz-adv-x="540" 
d="M50 -8q-10 0 -17.5 0.5t-13.5 1.5q-7 1 -13 3l11 55q4 -2 9 -4q9 -3 25 -3q19 0 38.5 11t40 47t42 104t44.5 183l25 123h323l-104 -513h-63l93 460h-197l-14 -70q-26 -128 -52.5 -206t-55 -120.5t-58.5 -57t-63 -14.5z" />
    <glyph glyph-name="afii10078" unicode="&#x43c;" horiz-adv-x="705" 
d="M183 513h106l93 -308l217 308h104l-103 -513h-64l92 460h-2l-226 -320h-64l-98 320h-2l-92 -460h-64z" />
    <glyph glyph-name="afii10079" unicode="&#x43d;" horiz-adv-x="564" 
d="M247 513l-44 -220h278l44 220h63l-104 -513h-63l49 240h-278l-49 -240h-63l104 513h63z" />
    <glyph glyph-name="afii10080" unicode="&#x43e;" horiz-adv-x="561" 
d="M91 196q0 63 23.5 126.5t68.5 112.5q78 86 200 86q15 0 33 -2t36.5 -7.5t36.5 -16t34 -27.5q18 -18 28 -38.5t15.5 -41.5t7 -40t1.5 -33q0 -51 -13 -100.5t-47 -100.5q-45 -66 -104 -94t-131 -28q-32 0 -69.5 10.5t-69.5 45.5q-6 7 -14.5 19t-16.5 30t-13.5 42.5
t-5.5 56.5zM157 192q0 -54 16.5 -83.5t38 -43.5t42 -17t28.5 -3q60 0 101 24.5t73 72.5q23 33 38 76.5t15 98.5q0 26 -5.5 53.5t-25.5 52.5q-36 45 -98 45q-17 0 -36 -3.5t-40 -12.5t-42 -25t-41 -41q-29 -38 -46.5 -87.5t-17.5 -106.5z" />
    <glyph glyph-name="afii10081" unicode="&#x43f;" horiz-adv-x="564" 
d="M83 0l80 395l21 118h56l-21 -106h2q14 23 33.5 44t42.5 36q27 18 54.5 26t61.5 8q30 0 56 -7t49 -27t32 -45t9 -54q0 -32 -8 -69l-65 -319h-63l64 316q3 12 5 26.5t2 29.5q0 24 -7 44q-3 8 -9.5 17.5t-17 17t-26 12.5t-37.5 5q-33 0 -61 -11t-53 -32q-22 -18 -44.5 -49.5
t-31.5 -76.5l-61 -299h-63z" />
    <glyph glyph-name="afii10082" unicode="&#x440;" horiz-adv-x="567" 
d="M39 -219l129 633l16 99h60l-21 -106h3q10 19 26 39t38.5 36.5t52 27.5t66.5 11q32 0 69 -11.5t67 -49.5q23 -32 30 -68t7 -64q0 -57 -15.5 -111t-45.5 -102q-23 -35 -49.5 -59t-54 -38t-55 -20t-51.5 -6q-30 0 -56 9.5t-45 25.5q-13 11 -24.5 28t-18.5 37h-3l-8 -49
l-54 -262h-63zM193 191q0 -69 32 -107.5t84 -38.5q16 0 36 4t41 15.5t42.5 32.5t40.5 54q24 42 35.5 87t11.5 85q0 23 -5.5 49.5t-22.5 49.5q-10 14 -32 30t-60 16q-40 0 -81 -23.5t-73 -74.5q-26 -42 -37.5 -89.5t-11.5 -89.5z" />
    <glyph glyph-name="afii10083" unicode="&#x441;" horiz-adv-x="464" 
d="M518 445q-29 13 -57 18t-54 5q-54 0 -95.5 -19t-75.5 -55q-35 -38 -55.5 -89t-20.5 -106q0 -33 9 -60.5t32 -49.5q14 -14 43.5 -29t80.5 -15q31 0 61 6t55 15l-5 -54q-28 -10 -56 -15t-63 -5q-23 0 -47.5 3t-49 12t-47.5 25t-42 42q-14 20 -25.5 50t-11.5 78q0 69 26 129
t69 103q48 49 103 68t115 19q38 0 68.5 -6t56.5 -14z" />
    <glyph glyph-name="afii10084" unicode="&#x442;" horiz-adv-x="403" 
d="M497 513l-10 -53h-160l-94 -460h-63l94 460h-160l10 53h160h64h159z" />
    <glyph glyph-name="afii10085" unicode="&#x443;" horiz-adv-x="494" 
d="M35 -155q8 -2 23.5 -5.5t23.5 -3.5q18 0 32 7t25 18.5t20 26t17 28.5l36 67l-78 530h65l56 -392l5 -51l3 1l236 442h69l-347 -629q-25 -46 -57 -75t-85 -29q-14 0 -30.5 2.5t-30.5 6.5z" />
    <glyph glyph-name="afii10086" unicode="&#x444;" horiz-adv-x="732" 
d="M333 -5q-11 -1 -25 -2t-29 -1q-88 0 -138 48.5t-50 141.5q0 60 19 120t56 109t92.5 79.5t128.5 30.5q15 0 28.5 -1t24.5 -2l50 244h62l-50 -244q11 1 25 2t30 1q88 0 138.5 -47.5t50.5 -138.5q0 -60 -19 -121t-56 -110.5t-93 -80.5t-129 -31q-15 0 -29 1t-25 2l-43 -214
h-62zM680 332q0 70 -37 103t-107 33q-11 0 -22.5 -0.5t-22.5 -2.5l-85 -417q21 -3 53 -3q51 0 92 25.5t69.5 67t44 92.5t15.5 102zM157 184q0 -72 36.5 -105.5t105.5 -33.5q11 0 23 0.5t22 1.5l85 418q-11 1 -24.5 2t-28.5 1q-51 0 -92 -25.5t-69 -66t-43 -91t-15 -101.5z
" />
    <glyph glyph-name="afii10087" unicode="&#x445;" horiz-adv-x="492" 
d="M221 513l68 -149l18 -48h1l155 197h75l-202 -242l127 -271h-78l-77 185l-16 46h-1l-35 -46l-152 -185h-74l231 277l-116 236h76z" />
    <glyph glyph-name="afii10088" unicode="&#x446;" horiz-adv-x="576" 
d="M488 0q-29 8 -42 28.5t-13 43.5h-1q-31 -33 -76.5 -56.5t-107.5 -23.5q-66 0 -102 36t-36 105q0 20 2.5 36t6.5 33l63 311h63l-65 -320q-2 -11 -4.5 -24t-2.5 -33q0 -91 91 -91q34 0 65.5 13.5t56.5 37t42.5 54.5t24.5 66l60 297h63l-72 -357q-3 -16 -6 -31.5t-3 -24.5
q0 -23 14 -35t53 -12l-39 -191h-63l28 138v0z" />
    <glyph glyph-name="afii10089" unicode="&#x447;" horiz-adv-x="506" 
d="M180 359q-3 -11 -3 -25t5 -29t19 -24q9 -6 28.5 -10t67.5 -4q30 0 62 3.5t61 8.5l47 234h63l-104 -513h-63l46 226q-42 -7 -75.5 -9.5t-55.5 -2.5q-17 0 -36 1t-37.5 4.5t-35.5 10t-30 18.5q-16 14 -22 30.5t-6 34.5q0 19 4 36l33 164h63z" />
    <glyph glyph-name="afii10090" unicode="&#x448;" horiz-adv-x="820" 
d="M236 -8q-56 0 -91 31.5t-35 92.5q0 15 2.5 29.5t4.5 25.5l70 342h63l-69 -339q-2 -12 -5 -24.5t-3 -25.5q0 -35 19 -57t56 -22q31 0 59.5 14.5t51.5 38.5t39.5 54t22.5 62l61 299h63l-69 -339q-2 -11 -4.5 -22.5t-2.5 -21.5q0 -36 19.5 -60.5t57.5 -24.5q28 0 56 14.5
t51 38.5t40 54t23 62l61 299h63l-105 -513h-54l20 100h-2q-27 -45 -69 -76.5t-99 -31.5q-48 0 -80.5 27t-35.5 81h-2q-31 -46 -73 -77t-104 -31z" />
    <glyph glyph-name="afii10091" unicode="&#x449;" horiz-adv-x="840" 
d="M751 0q-29 8 -42 28.5t-13 43.5h-1q-31 -33 -74 -56.5t-90 -23.5q-48 0 -80.5 27t-35.5 81h-2q-31 -46 -73 -77t-104 -31q-56 0 -91 31.5t-35 92.5q0 15 2.5 29.5t4.5 25.5l70 342h63l-69 -339q-2 -12 -5 -24.5t-3 -25.5q0 -35 19 -57t56 -22q31 0 59.5 14.5t51.5 38.5
t39.5 54t22.5 62l61 299h63l-69 -339q-2 -11 -4.5 -22.5t-2.5 -21.5q0 -36 19.5 -60.5t57.5 -24.5q28 0 55.5 14t50 37.5t39.5 53t24 60.5l1 6v-1l61 298h63l-73 -357q-6 -29 -7.5 -40t-1.5 -16q0 -23 14 -35t53 -12l-39 -191h-63z" />
    <glyph glyph-name="afii10092" unicode="&#x44a;" horiz-adv-x="575" 
d="M240 460h-140l10 53h204l-39 -193h118q95 0 133.5 -33t38.5 -97q0 -41 -15 -76t-44.5 -60.5t-74 -39.5t-103.5 -14h-181zM497 190q0 37 -25 57t-90 20h-118l-44 -214h118q78 0 118.5 37.5t40.5 99.5z" />
    <glyph glyph-name="afii10093" unicode="&#x44b;" horiz-adv-x="678" 
d="M184 513h63l-39 -193h118q95 0 133.5 -33t38.5 -97q0 -41 -15 -76t-44.5 -60.5t-74 -39.5t-103.5 -14h-181zM271 53q78 0 118.5 37.5t40.5 99.5q0 37 -25 57t-90 20h-118l-44 -214h118zM702 513l-104 -513h-63l104 513h63z" />
    <glyph glyph-name="afii10094" unicode="&#x44c;" horiz-adv-x="508" 
d="M184 513h63l-39 -193h118q95 0 133.5 -33t38.5 -97q0 -41 -15 -76t-44.5 -60.5t-74 -39.5t-103.5 -14h-181zM271 53q78 0 118.5 37.5t40.5 99.5q0 37 -25 57t-90 20h-118l-44 -214h118z" />
    <glyph glyph-name="afii10095" unicode="&#x44d;" horiz-adv-x="462" 
d="M164 292h244q5 36 -1.5 69.5t-31.5 61.5t-55 36.5t-63 8.5q-45 0 -79.5 -10t-54.5 -19l9 56q22 9 54.5 17.5t77.5 8.5q54 0 93.5 -15t64.5 -39q23 -23 38 -58t15 -86q0 -63 -21.5 -126t-72.5 -114q-48 -49 -103.5 -70t-121.5 -21q-35 0 -65 6.5t-58 17.5l14 56
q27 -14 55 -20.5t62 -6.5q45 0 84.5 12t75.5 47q24 23 44 56.5t29 78.5h-243z" />
    <glyph glyph-name="afii10096" unicode="&#x44e;" horiz-adv-x="739" 
d="M283 289q14 54 40.5 94.5t58.5 69.5q24 22 49 35t49 20.5t45.5 10t38.5 2.5q51 0 87.5 -17.5t59.5 -46.5q27 -33 34.5 -68.5t7.5 -62.5q0 -73 -25.5 -136.5t-71.5 -111.5t-96.5 -67t-104.5 -19q-65 0 -103 25.5t-57 59.5q-14 25 -20 54.5t-6 60.5q0 23 3 44h-81l-48 -236
h-63l104 513h63l-45 -224h81zM466 45q46 0 79.5 17.5t61.5 47.5q36 39 58 96t22 115q0 44 -12.5 69t-22.5 36q-17 20 -41.5 31t-58.5 11q-45 0 -80 -18t-61 -47q-12 -13 -25.5 -33t-25.5 -46.5t-20 -59t-8 -69.5q0 -24 4 -49.5t24 -51.5q20 -27 46 -38t60 -11z" />
    <glyph glyph-name="afii10097" unicode="&#x44f;" horiz-adv-x="498" 
d="M196 208q-36 15 -53 43t-17 64q0 44 15 80.5t43.5 62.5t70.5 40.5t97 14.5h168l-104 -513h-63l39 193h-104h-15.5t-15.5 1l-138 -194h-76zM194 315q0 -29 24 -49t81 -20h104l43 214h-105q-147 0 -147 -145z" />
    <glyph glyph-name="afii10071" unicode="&#x451;" horiz-adv-x="509" 
d="M284 -8q-94 0 -147 52.5t-53 145.5q0 76 22.5 137.5t62.5 104.5t95 66t120 23q32 0 59.5 -8.5t48 -24.5t32 -38.5t11.5 -49.5q0 -42 -18 -76.5t-62 -58.5t-118 -38t-187 -16v-18q0 -72 37 -110t112 -38q31 0 69.5 6.5t77.5 26.5l-12 -58q-35 -14 -69.5 -21t-80.5 -7z
M369 468q-38 0 -72.5 -13.5t-63 -40t-48.5 -64.5t-29 -86q86 1 146.5 9.5t98.5 25.5t55 42t17 59q0 29 -25.5 48.5t-78.5 19.5zM343 720l-17 -80h-69l17 80h69zM532 720l-17 -80h-69l17 80h69z" />
    <glyph glyph-name="afii10099" unicode="&#x452;" horiz-adv-x="594" 
d="M229 613h-84l9 45h84l21 104h63l-21 -104h212l-9 -45h-212l-21 -100l-24 -105h1q15 26 34 45t43 35q25 16 49 24.5t52 8.5q40 0 67.5 -12.5t44.5 -29.5q26 -28 32 -60.5t6 -62.5t-3.5 -57t-10.5 -64q-17 -84 -32 -129t-25 -66q-16 -33 -39 -67t-54 -63
q-10 -9 -37.5 -31.5t-72.5 -45.5l-23 45q27 14 56 34t49 42q21 22 36 46.5t25.5 48.5t17 47t11.5 43q12 50 19.5 86t11 61t5 40.5t1.5 24.5q0 20 -5 43.5t-22 42.5q-11 11 -30.5 21t-50.5 10q-35 0 -62 -15t-51 -41q-22 -23 -39 -53.5t-23 -59.5l-61 -299h-63z" />
    <glyph glyph-name="afii10100" unicode="&#x453;" horiz-adv-x="390" 
d="M221 -8q-80 0 -118 33.5t-38 84.5q0 31 13.5 57.5t36 49t51 40t59.5 31.5q47 21 76 36t45 28.5t21.5 27t5.5 30.5q0 28 -19.5 43t-75.5 15q-35 0 -67 -8t-64 -24l12 58q34 14 64 20.5t63 6.5q41 0 69.5 -9t46 -24t25.5 -35t8 -43q0 -25 -8 -44.5t-27.5 -37.5t-52.5 -37
t-84 -43q-65 -30 -98 -59.5t-33 -78.5q0 -26 23.5 -45.5t74.5 -19.5q68 0 143 32l-12 -62q-39 -13 -72.5 -18t-67.5 -5zM499 740l-154 -130h-56l116 130h94z" />
    <glyph glyph-name="afii10101" unicode="&#x454;" horiz-adv-x="446" 
d="M510 445q-29 14 -55 18.5t-52 4.5q-48 0 -87.5 -13.5t-75.5 -48.5q-20 -20 -38.5 -48t-29.5 -65h223l-11 -53h-224q-2 -11 -3.5 -22t-1.5 -22q0 -61 30 -100q13 -16 29 -26t32 -15.5t31 -7.5t26 -2q38 0 70 5t60 16l-5 -56q-60 -18 -137 -18q-48 0 -84 13.5t-65 44.5
q-22 23 -37.5 59.5t-15.5 87.5q0 43 11 83t29.5 74.5t43.5 63t53 48.5q35 25 77 40t94 15q45 0 79 -7.5t48 -12.5z" />
    <glyph glyph-name="afii10102" unicode="&#x455;" horiz-adv-x="419" 
d="M437 444q-30 14 -57.5 19t-58.5 5q-23 0 -43.5 -3.5t-41.5 -17.5q-9 -6 -23.5 -22t-14.5 -48q0 -30 21.5 -46.5t71.5 -38.5q25 -11 44 -22.5t33 -25.5q32 -35 32 -84q0 -29 -13 -62t-51 -62q-33 -26 -71 -35t-78 -9q-35 0 -68 6t-66 20l16 57q32 -16 64 -23t61 -7
q24 0 53 7t54 30q20 20 26.5 40.5t6.5 37.5q0 10 -2.5 19.5t-9.5 19.5q-11 16 -30.5 25.5t-36.5 17.5q-35 16 -53 26t-28 18q-26 21 -34 44.5t-8 40.5q0 31 17 65t48 54q27 18 61.5 24.5t64.5 6.5q37 0 68 -6.5t61 -20.5z" />
    <glyph glyph-name="afii10103" unicode="&#x456;" horiz-adv-x="229" 
d="M247 513l-104 -513h-63l104 513h63zM292 720l-16 -80h-69l16 80h69z" />
    <glyph glyph-name="afii10104" unicode="&#x457;" horiz-adv-x="229" 
d="M247 513l-104 -513h-63l104 513h63zM238 720l-17 -80h-66l17 80h66zM354 720l-17 -80h-66l17 80h66z" />
    <glyph glyph-name="afii10105" unicode="&#x458;" horiz-adv-x="223" 
d="M128 -74q-8 -35 -15.5 -55t-14.5 -31q-20 -32 -52 -45t-65 -13q-17 0 -31 2.5t-23 5.5l11 51q19 -6 44 -6q11 0 22 2t22 10q11 7 20.5 22.5t17.5 50.5l120 593h63zM292 720l-16 -80h-69l16 80h69z" />
    <glyph glyph-name="afii10106" unicode="&#x459;" horiz-adv-x="820" 
d="M50 -8q-10 0 -17.5 0.5t-13.5 1.5q-7 1 -13 3l11 55q4 -2 9 -4q9 -3 25 -3q19 0 38.5 11t40 47t42 104t44.5 183l25 123h323l-39 -193h118q95 0 133.5 -33t38.5 -97q0 -41 -15 -76t-44.5 -60.5t-74 -39.5t-103.5 -14h-181l93 460h-197l-14 -70q-26 -128 -52.5 -206
t-55 -120.5t-58.5 -57t-63 -14.5zM747 190q0 37 -25 57t-90 20h-118l-44 -214h118q78 0 118.5 37.5t40.5 99.5z" />
    <glyph glyph-name="afii10107" unicode="&#x45a;" horiz-adv-x="845" 
d="M247 513l-41 -202h278l41 202h63l-41 -202h152q30 0 58 -10t46 -26q36 -33 36 -83q0 -39 -18.5 -80t-52.5 -68q-24 -20 -58 -32t-74 -12h-150h-65l52 258h-278l-52 -258h-63l104 513h63zM495 53h133q23 0 45.5 6t38.5 16q29 17 44 46.5t15 57.5q0 21 -7 34.5t-16 21.5
q-18 16 -42 19.5t-37 3.5h-133z" />
    <glyph glyph-name="afii10108" unicode="&#x45b;" horiz-adv-x="588" 
d="M231 618h-85l9 45h85l20 99h63l-20 -99h226l-9 -45h-226l-22 -105l-25 -105h1q15 24 34.5 44.5t47.5 37.5q27 17 53 24t58 7q45 0 72.5 -13t43 -33t20.5 -43t5 -43q0 -21 -3.5 -40.5t-6.5 -34.5l-64 -314h-63l64 316q4 17 6 29t2 29q0 16 -4.5 35t-21.5 35
q-15 15 -34 19.5t-39 4.5q-64 0 -115 -45q-19 -17 -40.5 -46.5t-33.5 -77.5l-61 -299h-63z" />
    <glyph glyph-name="afii10109" unicode="&#x45c;" horiz-adv-x="474" 
d="M247 513l-46 -226h3l281 226h81l-302 -241l222 -272h-86l-202 254h-3l-52 -254h-63l104 513h63zM542 740l-154 -130h-56l116 130h94z" />
    <glyph glyph-name="afii10110" unicode="&#x45e;" horiz-adv-x="494" 
d="M35 -155q8 -2 23.5 -5.5t23.5 -3.5q18 0 32 7t25 18.5t20 26t17 28.5l36 67l-78 530h65l56 -392l5 -51l3 1l236 442h69l-347 -629q-25 -46 -57 -75t-85 -29q-14 0 -30.5 2.5t-30.5 6.5zM353 590q-27 0 -50.5 6t-41 19t-27.5 33.5t-10 48.5v13t2 14l57 6q-1 -5 -1 -14
q0 -41 22.5 -58.5t59.5 -17.5q42 0 72 20.5t45 69.5l53 -6q-9 -35 -27.5 -60.5t-42.5 -42t-52.5 -24t-58.5 -7.5z" />
    <glyph glyph-name="afii10193" unicode="&#x45f;" horiz-adv-x="555" 
d="M309 0l-30 -148h-63l30 148h-103h-63l104 513h63l-93 -460h269l93 460h63l-104 -513h-65h-101z" />
    <glyph glyph-name="afii10146" unicode="&#x462;" horiz-adv-x="652" 
d="M309 742h66l-16 -83h180l-12 -57h-180l-38 -189h112q35 0 76.5 -6.5t75.5 -31.5q10 -7 21 -18t20 -26t15 -35.5t6 -45.5q0 -54 -25 -107.5t-79 -90.5q-3 -2 -16.5 -10.5t-34.5 -17.5t-49 -16.5t-60 -7.5h-146h-66l122 602h-164l12 57h163zM237 57h115q15 0 34 1.5t40 7.5
t42.5 17.5t40.5 31.5q26 26 39.5 61t13.5 65q0 38 -14.5 61t-35.5 34q-18 10 -47.5 15t-56.5 5h-111z" />
    <glyph glyph-name="afii10194" unicode="&#x463;" horiz-adv-x="580" 
d="M245 460h-141l11 53h141l38 187h63l-39 -187h161l-11 -53h-161l-28 -140h118q95 0 133.5 -33t38.5 -97q0 -41 -15 -76t-44.5 -60.5t-74 -39.5t-103.5 -14h-181zM501 190q0 37 -25 57t-90 20h-118l-44 -214h118q78 0 118.5 37.5t40.5 99.5z" />
    <glyph glyph-name="afii10147" unicode="&#x472;" horiz-adv-x="748" 
d="M119 253q0 55 12 107.5t32.5 99t49 86.5t61.5 69q49 45 110.5 69t133.5 24q46 0 80.5 -10t59 -24.5t40.5 -30.5t25 -28q28 -40 38 -89t10 -89q0 -50 -12 -101t-33 -97.5t-49.5 -86.5t-61.5 -68q-20 -17 -44.5 -33.5t-55 -29.5t-66.5 -21t-77 -8q-57 0 -104 16t-83 55
q-22 24 -35 50t-20 51t-9 48t-2 41zM698 391q3 22 3 47q0 37 -9 73t-30 65q-23 32 -62 53.5t-94 21.5q-52 0 -105 -23t-93 -62q-25 -25 -43 -53.5t-30 -54t-18.5 -44t-7.5 -23.5h489zM197 334q-2 -13 -4.5 -32.5t-2.5 -42.5q0 -36 9 -76t36 -70q26 -29 63.5 -46.5
t85.5 -17.5q54 0 106.5 23t89.5 61q38 37 65.5 91.5t40.5 109.5h-489z" />
    <glyph glyph-name="afii10195" unicode="&#x473;" horiz-adv-x="564" 
d="M97 256q10 48 33 95.5t59.5 85t86 61t112.5 23.5q47 0 82.5 -13.5t59.5 -36.5t36 -54t12 -65q0 -54 -16.5 -117t-52.5 -117t-92.5 -90t-136.5 -36q-47 0 -82.5 13.5t-59 36.5t-35.5 53.5t-12 64.5v21q0 19 1 37.5t5 37.5zM512 293q0 5 0.5 10t0.5 10q0 24 -5.5 51
t-20.5 50.5t-41.5 38.5t-68.5 15q-47 0 -82 -18.5t-59.5 -45t-40 -57t-23.5 -54.5h340zM161 240q-3 -18 -3 -42q0 -26 5.5 -53t20.5 -49t40.5 -36.5t66.5 -14.5q42 0 76.5 17t61 44.5t45 62.5t27.5 71h-340z" />
    <glyph glyph-name="afii10148" unicode="&#x474;" horiz-adv-x="719" 
d="M232 700l106 -556l5 -81h2l42 84l253 441q14 25 28.5 47t32.5 38t41 25.5t55 9.5q11 0 26 -2.5t26 -5.5l-15 -55q-10 4 -21.5 5t-21.5 1q-17 0 -29.5 -6.5t-23 -16.5t-19 -23t-15.5 -25l-333 -580h-73l-136 700h70z" />
    <glyph glyph-name="afii10196" unicode="&#x475;" horiz-adv-x="508" 
d="M188 513l53 -419l2 -40h3l18 40l171 327q12 22 23.5 40.5t25 32t30.5 20.5t40 7q5 0 20 -2t28 -7l-11 -51q-6 3 -15.5 5.5t-19.5 2.5q-21 0 -35 -17t-30 -46l-219 -406h-75l-73 513h64z" />
    <glyph glyph-name="afii10050" unicode="&#x490;" horiz-adv-x="469" 
d="M535 700l31 150h66l-42 -207h-69h-224l-131 -643h-66l142 700h69h224z" />
    <glyph glyph-name="afii10098" unicode="&#x491;" horiz-adv-x="391" 
d="M428 513l21 100h57l-31 -153h-58h-180l-94 -460h-63l104 513h62h182z" />
    <glyph glyph-name="uni0492" unicode="&#x492;" horiz-adv-x="469" 
d="M601 700l-12 -57h-293l-51 -252h200l-9 -45h-200l-70 -346h-66l70 346h-100l9 45h100l63 309h359z" />
    <glyph glyph-name="uni0493" unicode="&#x493;" horiz-adv-x="395" 
d="M58 281h79l47 232h314l-10 -53h-251l-37 -179h154l-10 -45h-153l-48 -236h-63l48 236h-80z" />
    <glyph glyph-name="uni0494" unicode="&#x494;" horiz-adv-x="646" 
d="M601 700l-11 -57h-293l-48 -236q40 25 87 38q40 12 69.5 15.5t47.5 3.5q49 0 80.5 -13t50.5 -30q30 -27 37.5 -58t7.5 -58q0 -29 -5.5 -61.5t-16 -64.5t-25 -60.5t-31.5 -48.5q-31 -37 -78 -58t-101 -21q-45 0 -88 15l16 57q37 -14 70 -14q42 0 78.5 18.5t59.5 51.5
q11 16 20 38.5t15.5 46.5t10 47.5t3.5 42.5t-4.5 41.5t-24.5 40.5q-20 20 -49.5 25.5t-52.5 5.5q-32 0 -55.5 -4.5t-50.5 -15.5q-23 -9 -43 -18t-40 -20l-71 -349h-66l142 700h359z" />
    <glyph glyph-name="uni0495" unicode="&#x495;" horiz-adv-x="453" 
d="M498 513l-10 -53h-251l-33 -163h48q37 0 71 -12t60 -35t41 -58t15 -81q0 -10 -3.5 -37t-15 -61.5t-32.5 -70.5t-56 -64q-45 -35 -87 -46.5t-92 -11.5l11 53q37 1 73.5 12t66.5 41q5 5 16.5 19.5t23 38t20.5 54.5t9 69q0 41 -14.5 67.5t-35 42t-41.5 21.5t-34 6h-55
l-50 -244h-63l104 513h314z" />
    <glyph glyph-name="uni0496" unicode="&#x496;" horiz-adv-x="866" 
d="M769 0l-228 354h-3l-72 -354h-66l72 354h-3l-372 -354h-95l404 372l-229 328h80l218 -319h3l64 319h66l-64 -319h3l346 319h80l-361 -328l213 -315h69l-43 -209h-66l31 152h-47z" />
    <glyph glyph-name="uni0497" unicode="&#x497;" horiz-adv-x="741" 
d="M646 0l-189 258h-3l-52 -258h-63l52 258h-3l-293 -258h-90l320 274l-187 239h77l178 -232h3l47 232h63l-47 -232h3l272 232h77l-283 -239l168 -221h78l-39 -191h-63l28 138h-54z" />
    <glyph glyph-name="uni0498" unicode="&#x498;" horiz-adv-x="510" 
d="M207 394h82q38 0 76 8t74 42q20 20 32 46.5t12 57.5q0 23 -8 42.5t-28 34.5q-23 18 -49 22t-47 4q-29 0 -76.5 -6.5t-107.5 -32.5l7 63q43 15 91 24t103 9q34 0 72.5 -7.5t70.5 -37.5q16 -15 30 -41.5t14 -65.5q0 -42 -14.5 -74t-37.5 -56q-26 -27 -51.5 -39.5
t-45.5 -17.5v-2q25 -5 46 -18t35 -30q15 -18 20.5 -39.5t5.5 -44.5q0 -20 -5 -44t-17.5 -49.5t-34 -50.5t-55.5 -47q-37 -24 -74.5 -35.5t-76.5 -14.5l-29 -146h-66l29 145q-45 3 -83 14t-74 29l22 62q27 -16 53 -25.5t48 -15t39.5 -7t29.5 -1.5q51 0 92 14t70 39
q32 27 46.5 60.5t14.5 65.5q0 35 -14.5 53.5t-25.5 26.5q-12 8 -27.5 13.5t-32 9t-32.5 5t-29 1.5h-85z" />
    <glyph glyph-name="uni0499" unicode="&#x499;" horiz-adv-x="437" 
d="M193 293h46q21 0 47 4.5t49 18.5q22 14 33.5 35t11.5 44q0 22 -8.5 34.5t-16.5 18.5q-19 15 -43.5 17.5t-38.5 2.5q-43 0 -75.5 -9.5t-55.5 -19.5l10 55q30 11 66 19t72 8q34 0 60.5 -6.5t49.5 -23.5q22 -16 33 -36t11 -48q0 -34 -11.5 -57.5t-27.5 -39.5
q-11 -11 -26.5 -21t-35.5 -16l-1 -3q22 -5 36 -14.5t22 -19.5q3 -5 12.5 -21t9.5 -45q0 -43 -25 -82.5t-67 -62.5q-26 -14 -56 -21.5t-60 -10.5l-27 -131h-63l26 132q-36 3 -64.5 12.5t-50.5 19.5l19 58q32 -20 65 -29.5t75 -9.5q26 0 57 6t59 29q20 17 32.5 40t12.5 48
q0 26 -12 39.5t-25 19.5q-16 8 -43.5 11t-46.5 3h-46z" />
    <glyph glyph-name="uni049A" unicode="&#x49a;" horiz-adv-x="610" 
d="M519 0l-267 335l-13 19l-1 -1l-72 -353h-66l142 700h66l-65 -323h1l378 323h86l-399 -337l250 -306h80l-43 -209h-66l31 152h-42z" />
    <glyph glyph-name="uni049B" unicode="&#x49b;" horiz-adv-x="506" 
d="M400 0l-202 254h-3l-52 -254h-63l104 513h63l-46 -226h3l281 226h81l-302 -241l178 -219h79l-39 -191h-63l28 138h-47z" />
    <glyph glyph-name="uni049C" unicode="&#x49c;" horiz-adv-x="669" 
d="M308 700l-63 -307h90l30 147h54l-30 -145l316 305h81l-351 -337l249 -363h-82l-225 336l-31 -156h-54l32 156h-90l-68 -336h-66l142 700h66z" />
    <glyph glyph-name="uni049D" unicode="&#x49d;" horiz-adv-x="528" 
d="M242 245h-49l-50 -245h-63l104 513h63l-44 -215h50l17 82h50l-17 -82h1l235 215h81l-270 -243l190 -270h-86l-162 244l-19 -94h-50z" />
    <glyph glyph-name="uni04A0" unicode="&#x4a0;" horiz-adv-x="674" 
d="M183 0l130 643h-196l11 57h263l-65 -323h1l378 323h86l-399 -337l297 -363h-87l-267 335l-13 19l-1 -1l-72 -353h-66z" />
    <glyph glyph-name="uni04A1" unicode="&#x4a1;" horiz-adv-x="544" 
d="M213 0h-63l93 460h-139l10 53h203l-46 -226h3l281 226h81l-302 -241l222 -272h-86l-202 254h-3z" />
    <glyph glyph-name="uni04A2" unicode="&#x4a2;" horiz-adv-x="717" 
d="M308 700l-62 -309h364l62 309h66l-130 -643h83l-43 -209h-66l31 152h-16h-67l68 334h-364l-68 -334h-66l142 700h66z" />
    <glyph glyph-name="uni04A3" unicode="&#x4a3;" horiz-adv-x="588" 
d="M247 513l-44 -220h278l44 220h63l-93 -460h79l-39 -191h-63l28 138h-19h-60l49 240h-278l-49 -240h-63l104 513h63z" />
    <glyph glyph-name="uni04A4" unicode="&#x4a4;" horiz-adv-x="899" 
d="M308 700l-62 -309h363l63 309h359l-11 -57h-293l-131 -643h-66l68 334h-364l-68 -334h-66l142 700h66z" />
    <glyph glyph-name="uni04A5" unicode="&#x4a5;" horiz-adv-x="736" 
d="M247 513l-44 -220h277l45 220h314l-10 -53h-252l-93 -460h-63l48 240h-277l-49 -240h-63l104 513h63z" />
    <glyph glyph-name="uni04AA" unicode="&#x4aa;" horiz-adv-x="613" 
d="M591 19q-35 -11 -71.5 -17.5t-78.5 -8.5l-30 -145h-66l29 146q-48 5 -93 21t-82 54q-32 32 -54.5 85t-22.5 128t25.5 146t70.5 128q38 47 80.5 76.5t87 46.5t88.5 23t84 6t77.5 -5.5t79.5 -20.5l-18 -60q-66 29 -140 29q-64 0 -133 -26t-123 -81q-46 -48 -77 -117
t-31 -150q0 -35 6.5 -62.5t16.5 -48.5t21.5 -35.5t21.5 -24.5q20 -19 43 -30.5t45.5 -17.5t42.5 -7.5t34 -1.5q32 0 61 4t53 9.5t41 11t25 8.5z" />
    <glyph glyph-name="uni04AB" unicode="&#x4ab;" horiz-adv-x="464" 
d="M518 445q-29 13 -57 18t-54 5q-54 0 -95.5 -19t-75.5 -55q-35 -38 -55.5 -89t-20.5 -106q0 -33 9 -60.5t32 -49.5q14 -14 43.5 -29t80.5 -15q31 0 61 6t55 15l-5 -54q-24 -8 -47.5 -13t-51.5 -6l-27 -131h-63l27 133q-38 5 -76 21.5t-67 57.5q-14 20 -25.5 50t-11.5 78
q0 69 26 129t69 103q48 49 103 68t115 19q38 0 68.5 -6t56.5 -14z" />
    <glyph glyph-name="uni04AE" unicode="&#x4ae;" horiz-adv-x="619" 
d="M227 700l132 -310l16 -41l293 351h83l-354 -408l-59 -292h-66l59 292l-179 408h75z" />
    <glyph glyph-name="uni04AF" unicode="&#x4af;" horiz-adv-x="479" 
d="M197 513l60 -327l5 -72h3l36 73l192 326h60l-270 -453l-57 -279h-63l57 279l-86 453h63z" />
    <glyph glyph-name="uni04B0" unicode="&#x4b0;" horiz-adv-x="619" 
d="M227 700l132 -310l16 -41l293 351h83l-352 -405h179l-11 -51h-180l-49 -244h-66l49 244h-177l11 51h174l-177 405h75z" />
    <glyph glyph-name="uni04B1" unicode="&#x4b1;" horiz-adv-x="479" 
d="M70 0h137l13 60l-86 453h63l60 -327l5 -72h3l36 73l192 326h60l-270 -453l-13 -60h142l-10 -45h-141l-35 -174h-63l35 174h-138z" />
    <glyph glyph-name="uni04B2" unicode="&#x4b2;" horiz-adv-x="650" 
d="M545 0l-128 257l-27 67h-3l-57 -70l-227 -254h-83l333 371l-176 329h78l129 -253l15 -33h3l258 286h80l-304 -329l158 -314h79l-43 -209h-66l31 152h-50z" />
    <glyph glyph-name="uni04B3" unicode="&#x4b3;" horiz-adv-x="504" 
d="M388 0l-78 185l-15 46h-2l-35 -46l-153 -185h-75l234 274l-118 239h76l67 -149l18 -48h2l37 49l120 148h78l-205 -239l104 -221h78l-39 -191h-63l28 138h-59z" />
    <glyph glyph-name="uni04B6" unicode="&#x4b6;" horiz-adv-x="661" 
d="M474 0l61 299l-40 -4q-19 -2 -35.5 -3.5l-33 -3t-35.5 -2.5t-43 -1q-15 0 -34.5 1.5t-40.5 6t-41 12.5t-36 22q-24 20 -32.5 44t-8.5 47q0 14 2 26.5t4 22.5l47 233h66l-47 -232q-4 -15 -4 -35q0 -18 6.5 -35t26.5 -31q25 -18 56 -21.5t54 -3.5q45 0 77 2.5t62 6.5l41 5
l70 344h66l-131 -643h83l-43 -209h-66l31 152h-17h-65z" />
    <glyph glyph-name="uni04B7" unicode="&#x4b7;" horiz-adv-x="530" 
d="M363 0l46 226q-42 -7 -75.5 -9.5t-55.5 -2.5q-17 0 -36 1t-37.5 4.5t-35.5 10t-30 18.5q-16 14 -22 30.5t-6 34.5q0 19 4 36l33 164h63l-31 -154q-3 -11 -3 -25t5 -29t19 -24q9 -6 28.5 -10t67.5 -4q30 0 62 3.5t61 8.5l47 234h63l-94 -460h79l-39 -191h-63l28 138h-16
h-62z" />
    <glyph glyph-name="uni04B8" unicode="&#x4b8;" horiz-adv-x="640" 
d="M337 285q-15 0 -33.5 2t-37.5 7t-37 13t-33 20q-23 20 -32 44t-9 47q0 14 2 26.5t4 22.5l47 233h66l-47 -232q-4 -15 -4 -35q0 -18 6.5 -35t26.5 -31q20 -15 45 -19.5t48 -5.5l28 138h54l-28 -138q30 2 54.5 4t47.5 5l41 5l70 344h66l-142 -700h-66l61 299l-40 -4
q-29 -3 -52 -5.5t-52 -4.5l-25 -125h-54z" />
    <glyph glyph-name="uni04B9" unicode="&#x4b9;" horiz-adv-x="506" 
d="M256 214q-31 1 -63.5 7.5t-53.5 26.5q-16 14 -22 30.5t-6 34.5q0 19 4 36l33 164h63l-31 -154q-3 -11 -3 -25t5 -29t19 -24q8 -5 21.5 -8.5t44.5 -5.5l19 93h50l-19 -93q26 1 52 4t51 8l47 234h63l-104 -513h-63l46 226q-30 -5 -56 -7.5t-47 -4.5l-17 -84h-50z" />
    <glyph glyph-name="uni04BA" unicode="&#x4ba;" horiz-adv-x="647" 
d="M308 700l-59 -294q24 14 43.5 21t44.5 15q24 8 49.5 15t62.5 7q94 0 138 -39q23 -20 31 -46t8 -51q0 -17 -2.5 -32l-4.5 -27l-55 -269h-66l52 254q4 18 7 35t3 32q0 16 -5 30.5t-18 27.5q-21 21 -47.5 26.5t-50.5 5.5q-31 0 -55.5 -5.5t-51.5 -15.5q-23 -8 -46.5 -18
t-48.5 -23l-71 -349h-66l142 700h66z" />
    <glyph glyph-name="uni04BB" unicode="&#x4bb;" horiz-adv-x="562" 
d="M298 762l-49 -243l-28 -112h2q14 23 34.5 44.5t44.5 37.5q29 18 57 25t54 7q32 0 58 -9.5t44 -25.5q14 -12 28 -36t14 -64q0 -11 -2 -26t-7 -41l-65 -319h-63l64 316l6 34t3 34q0 18 -5.5 34t-20.5 29q-16 14 -35.5 17.5t-33.5 3.5q-35 0 -63 -11t-57 -35
q-33 -29 -50 -60t-24 -63l-61 -299h-63l155 762h63z" />
    <glyph glyph-name="uni04C0" unicode="&#x4c0;" horiz-adv-x="266" 
d="M308 700l-142 -700h-66l142 700h66z" />
    <glyph glyph-name="uni04C3" unicode="&#x4c3;" horiz-adv-x="614" 
d="M308 700l-65 -323l379 323h86l-383 -324q55 -1 103.5 -12t84 -35.5t56 -64.5t20.5 -99q0 -30 -8 -68.5t-25.5 -79t-46 -79.5t-70.5 -70q-50 -37 -103.5 -52.5t-122.5 -15.5l15 57q63 0 106.5 17t74.5 43q18 15 37.5 38t35 54t25.5 68.5t10 82.5q0 54 -20.5 85.5t-51 48.5
t-65.5 22t-63 5h-85l-66 -321h-66l142 700h66z" />
    <glyph glyph-name="uni04C4" unicode="&#x4c4;" horiz-adv-x="486" 
d="M247 513l-49 -235h3l284 235h81l-293 -240q37 0 71 -9.5t60 -30t41 -53t15 -78.5q0 -10 -3.5 -35.5t-15 -58.5t-32.5 -67.5t-56 -62.5q-45 -35 -87 -46.5t-92 -11.5l11 53q37 1 73.5 12t66.5 41q5 5 16.5 18t23 35t20.5 51.5t9 67.5q0 41 -15 66t-37 38.5t-47.5 18
t-46.5 4.5h-59l-46 -225h-63l104 513h63z" />
    <glyph glyph-name="uni04C7" unicode="&#x4c7;" horiz-adv-x="696" 
d="M672 700h66l-147 -723q-11 -53 -32 -87.5t-47.5 -54.5t-56.5 -27.5t-58 -7.5q-22 0 -41 3t-35 8l18 58q14 -5 29.5 -9t32.5 -4q19 0 38.5 6t36.5 21t30 39.5t21 61.5l70 350h-363l-68 -334h-66l142 700h66l-62 -309h363z" />
    <glyph glyph-name="uni04C8" unicode="&#x4c8;" horiz-adv-x="564" 
d="M247 513l-44 -220h277l45 220h63l-111 -550q-8 -35 -15.5 -55t-14.5 -31q-20 -32 -52 -45t-65 -13q-17 0 -31 2.5t-23 5.5l11 51q19 -6 44 -6q11 0 22 2t22 10q11 7 20.5 22.5t17.5 50.5l57 283h-278l-49 -240h-63l104 513h63z" />
    <glyph glyph-name="uni04CF" unicode="&#x4cf;" horiz-adv-x="223" 
d="M285 700l-142 -700h-63l142 700h63z" />
    <glyph glyph-name="uni04D0" unicode="&#x4d0;" horiz-adv-x="650" 
d="M427 700h86l122 -700h-72l-33 192h-329l-113 -192h-73zM520 249l-62 385h-2l-221 -385h285zM468 755q-57 0 -95 25.5t-38 81.5v13t2 14l59 6q-1 -4 -1 -7.5v-6.5q0 -40 22.5 -57t61.5 -17q44 0 75 20t46 68l55 -6q-9 -35 -28 -60.5t-43.5 -42t-54.5 -24t-61 -7.5z" />
    <glyph glyph-name="uni04D1" unicode="&#x4d1;" horiz-adv-x="566" 
d="M256 -8q-77 0 -122 48t-45 142q0 78 22.5 141t59.5 107t85.5 67.5t99.5 23.5q58 0 92 -25t57 -75l18 89h63l-104 -510h-55l21 106h-3q-30 -48 -79 -81t-110 -33zM264 45q39 0 77 20t68 56t49 87t19 113q0 73 -33.5 110t-85.5 37q-35 0 -71.5 -20t-66 -57.5t-48 -91
t-18.5 -120.5q0 -71 28.5 -102.5t81.5 -31.5zM392 590q-27 0 -50.5 6t-41 19t-27.5 33.5t-10 48.5v13t2 14l57 6q-1 -5 -1 -14q0 -41 22.5 -58.5t59.5 -17.5q42 0 72 20.5t45 69.5l53 -6q-9 -35 -27.5 -60.5t-42.5 -42t-52.5 -24t-58.5 -7.5z" />
    <glyph glyph-name="uni04D2" unicode="&#x4d2;" horiz-adv-x="650" 
d="M427 700h86l122 -700h-72l-33 192h-329l-113 -192h-73zM520 249l-62 385h-2l-221 -385h285zM435 844l-17 -80h-69l17 80h69zM634 844l-17 -80h-69l17 80h69z" />
    <glyph glyph-name="uni04D3" unicode="&#x4d3;" horiz-adv-x="566" 
d="M256 -8q-77 0 -122 48t-45 142q0 78 22.5 141t59.5 107t85.5 67.5t99.5 23.5q58 0 92 -25t57 -75l18 89h63l-104 -510h-55l21 106h-3q-30 -48 -79 -81t-110 -33zM264 45q39 0 77 20t68 56t49 87t19 113q0 73 -33.5 110t-85.5 37q-35 0 -71.5 -20t-66 -57.5t-48 -91
t-18.5 -120.5q0 -71 28.5 -102.5t81.5 -31.5zM372 720l-17 -80h-69l17 80h69zM561 720l-17 -80h-69l17 80h69z" />
    <glyph glyph-name="uni04D4" unicode="&#x4d4;" horiz-adv-x="854" 
d="M977 700l-11 -57h-279l-39 -253h247l-11 -57h-243l-41 -276h251l-12 -57h-248h-69l29 193h-304l-157 -193h-75l569 700h42h69h282zM559 250l58 390h-6l-316 -390h264z" />
    <glyph glyph-name="uni04D5" unicode="&#x4d5;" horiz-adv-x="847" 
d="M213 -8q-26 0 -51.5 7.5t-45 22.5t-31.5 37.5t-12 52.5q0 59 28 93t72 51.5t98.5 22.5t107.5 5h56q10 39 13 59t3 37q0 45 -30.5 66.5t-75.5 21.5q-41 0 -79.5 -10.5t-75.5 -30.5l12 60q34 14 77.5 24t82.5 10q55 0 92 -23.5t46 -75.5q40 48 96.5 73.5t125.5 25.5
q32 0 59.5 -8.5t48 -24.5t32 -38.5t11.5 -49.5q0 -42 -18 -73.5t-61.5 -52.5t-118 -31.5t-186.5 -11.5q-1 -10 -1 -19v-19q0 -72 37 -110t112 -38q31 0 69.5 6.5t77.5 26.5l-12 -58q-35 -14 -69.5 -21t-80.5 -7q-76 0 -123.5 34t-64.5 97q-45 -74 -100.5 -102.5
t-120.5 -28.5zM707 468q-36 0 -69 -12.5t-60.5 -36t-48 -57.5t-31.5 -78q85 1 144.5 6.5t97 18.5t54.5 35t17 56q0 29 -25.5 48.5t-78.5 19.5zM232 45q37 0 69.5 14t57.5 38.5t42 58.5t24 75h-57q-56 0 -98.5 -4.5t-71.5 -17t-43.5 -34t-14.5 -55.5q0 -6 2 -18.5t11 -25
t27.5 -22t51.5 -9.5z" />
    <glyph glyph-name="uni04D6" unicode="&#x4d6;" horiz-adv-x="509" 
d="M408 755q-57 0 -95 25.5t-38 81.5v13t2 14l59 6q-1 -4 -1 -7.5v-6.5q0 -40 22.5 -57t61.5 -17q44 0 75 20t46 68l55 -6q-9 -35 -28 -60.5t-43.5 -42t-54.5 -24t-61 -7.5z" />
    <glyph glyph-name="uni04D7" unicode="&#x4d7;" horiz-adv-x="509" 
d="M284 -8q-94 0 -147 52.5t-53 145.5q0 76 22.5 137.5t62.5 104.5t95 66t120 23q32 0 59.5 -8.5t48 -24.5t32 -38.5t11.5 -49.5q0 -42 -18 -76.5t-62 -58.5t-118 -38t-187 -16v-18q0 -72 37 -110t112 -38q31 0 69.5 6.5t77.5 26.5l-12 -58q-35 -14 -69.5 -21t-80.5 -7z
M369 468q-38 0 -72.5 -13.5t-63 -40t-48.5 -64.5t-29 -86q86 1 146.5 9.5t98.5 25.5t55 42t17 59q0 29 -25.5 48.5t-78.5 19.5zM365 590q-27 0 -50.5 6t-41 19t-27.5 33.5t-10 48.5v13t2 14l57 6q-1 -5 -1 -14q0 -41 22.5 -58.5t59.5 -17.5q42 0 72 20.5t45 69.5l53 -6
q-9 -35 -27.5 -60.5t-42.5 -42t-52.5 -24t-58.5 -7.5z" />
    <glyph glyph-name="uni04D8" unicode="&#x4d8;" horiz-adv-x="744" 
d="M135 391h559q0 60 -11.5 108t-38.5 81.5t-71.5 52t-111.5 18.5q-60 0 -112 -14t-87 -29l2 62q49 18 102 28t107 10q72 0 126.5 -19t92 -54t56.5 -84.5t19 -109.5q0 -99 -30.5 -181.5t-83.5 -142t-126 -92.5t-158 -33q-57 0 -103 18.5t-79 53.5t-51 85t-18 113q0 4 0.5 13
t1 21t2 26t4.5 27zM381 49q50 0 97.5 16.5t87.5 51.5t71 89t48 128h-493q-2 -16 -3 -36t-1 -29q0 -56 15.5 -97t42 -68.5t61.5 -41t74 -13.5z" />
    <glyph glyph-name="afii10846" unicode="&#x4d9;" horiz-adv-x="508" 
d="M222 -8q-32 0 -60 8.5t-48 24.5t-31.5 38.5t-11.5 49.5q0 44 19 79t67 59.5t129 37.5q69 11 170 13v18q0 72 -37 110t-112 38q-31 0 -69.5 -6.5t-77.5 -26.5l12 58q35 14 69.5 21t80.5 7q94 0 147 -52.5t53 -145.5q0 -76 -22.5 -137.5t-62.5 -104.5t-95 -66t-120 -23z
M317 241q-65 -8 -106 -24.5t-59.5 -42.5t-18.5 -61q0 -29 25.5 -48.5t78.5 -19.5q44 0 84 18.5t70 54t47 86.5q8 21 12 45q-77 -1 -133 -8z" />
    <glyph glyph-name="uni04DA" unicode="&#x4da;" horiz-adv-x="744" 
d="M135 391h559q0 60 -11.5 108t-38.5 81.5t-71.5 52t-111.5 18.5q-60 0 -112 -14t-87 -29l2 62q49 18 102 28t107 10q72 0 126.5 -19t92 -54t56.5 -84.5t19 -109.5q0 -99 -30.5 -181.5t-83.5 -142t-126 -92.5t-158 -33q-57 0 -103 18.5t-79 53.5t-51 85t-18 113q0 4 0.5 13
t1 21t2 26t4.5 27zM381 49q50 0 97.5 16.5t87.5 51.5t71 89t48 128h-493q-2 -16 -3 -36t-1 -29q0 -56 15.5 -97t42 -68.5t61.5 -41t74 -13.5zM443 844l-17 -80h-69l17 80h69zM642 844l-17 -80h-69l17 80h69z" />
    <glyph glyph-name="uni04DB" unicode="&#x4db;" horiz-adv-x="508" 
d="M222 -8q-32 0 -60 8.5t-48 24.5t-31.5 38.5t-11.5 49.5q0 44 19 79t67 59.5t129 37.5q69 11 170 13v18q0 72 -37 110t-112 38q-31 0 -69.5 -6.5t-77.5 -26.5l12 58q35 14 69.5 21t80.5 7q94 0 147 -52.5t53 -145.5q0 -76 -22.5 -137.5t-62.5 -104.5t-95 -66t-120 -23z
M317 241q-65 -8 -106 -24.5t-59.5 -42.5t-18.5 -61q0 -29 25.5 -48.5t78.5 -19.5q44 0 84 18.5t70 54t47 86.5q8 21 12 45q-77 -1 -133 -8zM328 720l-17 -80h-69l17 80h69zM517 720l-17 -80h-69l17 80h69z" />
    <glyph glyph-name="uni04DC" unicode="&#x4dc;" horiz-adv-x="866" 
d="M608 700l-64 -319h3l346 319h80l-361 -328l252 -372h-95l-228 354h-3l-72 -354h-66l72 354h-3l-372 -354h-95l404 372l-229 328h80l218 -319h3l64 319h66zM525 844l-17 -80h-69l17 80h69zM724 844l-17 -80h-69l17 80h69z" />
    <glyph glyph-name="uni04DD" unicode="&#x4dd;" horiz-adv-x="741" 
d="M506 513l-47 -232h3l272 232h77l-283 -239l208 -274h-90l-189 258h-3l-52 -258h-63l52 258h-3l-293 -258h-90l320 274l-187 239h77l178 -232h3l47 232h63zM446 720l-17 -80h-69l17 80h69zM635 720l-17 -80h-69l17 80h69z" />
    <glyph glyph-name="uni04DE" unicode="&#x4de;" horiz-adv-x="510" 
d="M207 394h82q38 0 76 8t74 42q20 20 32 46.5t12 57.5q0 23 -8 42.5t-28 34.5q-23 18 -49 22t-47 4q-29 0 -76.5 -6.5t-107.5 -32.5l7 63q43 15 91 24t103 9q34 0 72.5 -7.5t70.5 -37.5q16 -15 30 -41.5t14 -65.5q0 -42 -14.5 -74t-37.5 -56q-26 -27 -51.5 -39.5
t-45.5 -17.5v-2q25 -5 46 -18t35 -30q15 -18 20.5 -39.5t5.5 -44.5q0 -20 -5 -44t-17.5 -49.5t-34 -50.5t-55.5 -47q-45 -29 -91 -40.5t-95 -11.5q-57 0 -101.5 11.5t-86.5 32.5l22 62q27 -16 53 -25.5t48 -15t39.5 -7t29.5 -1.5q51 0 92 14t70 39q32 27 46.5 60.5
t14.5 65.5q0 35 -14.5 53.5t-25.5 26.5q-12 8 -27.5 13.5t-32 9t-32.5 5t-29 1.5h-85zM346 844l-17 -80h-69l17 80h69zM545 844l-17 -80h-69l17 80h69z" />
    <glyph glyph-name="uni04DF" unicode="&#x4df;" horiz-adv-x="437" 
d="M193 293h46q21 0 47 4.5t49 18.5q22 14 33.5 35t11.5 44q0 22 -8.5 34.5t-16.5 18.5q-19 15 -43.5 17.5t-38.5 2.5q-43 0 -75.5 -9.5t-55.5 -19.5l10 55q30 11 66 19t72 8q34 0 60.5 -6.5t49.5 -23.5q22 -16 33 -36t11 -48q0 -34 -11.5 -57.5t-27.5 -39.5
q-11 -11 -26.5 -21t-35.5 -16l-1 -3q22 -5 36 -14.5t22 -19.5q3 -5 12.5 -21t9.5 -45q0 -43 -25 -82.5t-67 -62.5q-32 -18 -72 -25.5t-76 -7.5q-48 0 -84.5 11t-62.5 23l19 58q32 -20 65 -29.5t75 -9.5q26 0 57 6t59 29q20 17 32.5 40t12.5 48q0 26 -12 39.5t-25 19.5
q-16 8 -43.5 11t-46.5 3h-46zM278 720l-17 -80h-69l17 80h69zM467 720l-17 -80h-69l17 80h69z" />
    <glyph glyph-name="uni04E2" unicode="&#x4e2;" horiz-adv-x="717" 
d="M308 700l-107 -526l-21 -85h3l54 71l447 540h11h64l-142 -700h-66l107 526l21 85h-3l-48 -66l-453 -545h-10h-65l142 700h66zM659 834l-13 -60h-262l13 60h262z" />
    <glyph glyph-name="uni04E3" unicode="&#x4e3;" horiz-adv-x="556" 
d="M245 513l-65 -320q-2 -11 -4.5 -24t-2.5 -33q0 -6 0.5 -14.5t2.5 -18t6.5 -19t13.5 -17.5q11 -10 28 -16t40 -6q68 0 118 47q7 6 17 17t20.5 26.5t19.5 35.5t14 45l60 297h63l-80 -396l-20 -117h-59l21 102h-1q-29 -46 -67 -72q-17 -13 -47 -25.5t-75 -12.5
q-26 0 -49.5 6.5t-44.5 24.5q-26 22 -35 50t-9 60q0 20 2.5 36t6.5 33l63 311h63zM566 727l-11 -54h-252l11 54h252z" />
    <glyph glyph-name="uni04E4" unicode="&#x4e4;" horiz-adv-x="717" 
d="M308 700l-107 -526l-21 -85h3l54 71l447 540h11h64l-142 -700h-66l107 526l21 85h-3l-48 -66l-453 -545h-10h-65l142 700h66zM450 844l-17 -80h-69l17 80h69zM649 844l-17 -80h-69l17 80h69z" />
    <glyph glyph-name="uni04E5" unicode="&#x4e5;" horiz-adv-x="556" 
d="M245 513l-65 -320q-2 -11 -4.5 -24t-2.5 -33q0 -6 0.5 -14.5t2.5 -18t6.5 -19t13.5 -17.5q11 -10 28 -16t40 -6q68 0 118 47q7 6 17 17t20.5 26.5t19.5 35.5t14 45l60 297h63l-80 -396l-20 -117h-59l21 102h-1q-29 -46 -67 -72q-17 -13 -47 -25.5t-75 -12.5
q-26 0 -49.5 6.5t-44.5 24.5q-26 22 -35 50t-9 60q0 20 2.5 36t6.5 33l63 311h63zM378 720l-17 -80h-69l17 80h69zM567 720l-17 -80h-69l17 80h69z" />
    <glyph glyph-name="uni04E6" unicode="&#x4e6;" horiz-adv-x="748" 
d="M378 -8q-23 0 -48.5 3t-52 12t-51.5 25t-47 43q-20 24 -32 50t-18 51t-8 48.5t-2 42.5q0 88 30 172.5t90 150.5q34 36 70 59t71.5 36t69 18t63.5 5q66 0 114.5 -19.5t80.5 -55.5t47.5 -86.5t15.5 -112.5q0 -108 -34 -187.5t-83 -133.5q-54 -58 -121 -89.5t-155 -31.5z
M190 257q0 -31 8 -70.5t34 -71.5q8 -11 21 -22.5t31.5 -21t43 -16t54.5 -6.5q70 0 137 37.5t113 107.5q33 51 50.5 115.5t17.5 134.5q0 32 -7.5 69.5t-34.5 71.5q-9 11 -22 22.5t-31.5 21.5t-42.5 16t-54 6q-66 0 -132 -35t-117 -110q-5 -7 -16.5 -27.5t-23 -53t-20.5 -75
t-9 -93.5zM464 844l-17 -80h-69l17 80h69zM663 844l-17 -80h-69l17 80h69z" />
    <glyph glyph-name="uni04E7" unicode="&#x4e7;" horiz-adv-x="561" 
d="M91 196q0 63 23.5 126.5t68.5 112.5q78 86 200 86q15 0 33 -2t36.5 -7.5t36.5 -16t34 -27.5q18 -18 28 -38.5t15.5 -41.5t7 -40t1.5 -33q0 -51 -13 -100.5t-47 -100.5q-45 -66 -104 -94t-131 -28q-32 0 -69.5 10.5t-69.5 45.5q-6 7 -14.5 19t-16.5 30t-13.5 42.5
t-5.5 56.5zM157 192q0 -54 16.5 -83.5t38 -43.5t42 -17t28.5 -3q60 0 101 24.5t73 72.5q23 33 38 76.5t15 98.5q0 26 -5.5 53.5t-25.5 52.5q-36 45 -98 45q-17 0 -36 -3.5t-40 -12.5t-42 -25t-41 -41q-29 -38 -46.5 -87.5t-17.5 -106.5zM358 720l-17 -80h-69l17 80h69z
M547 720l-17 -80h-69l17 80h69z" />
    <glyph glyph-name="uni04E8" unicode="&#x4e8;" horiz-adv-x="748" 
d="M119 253q0 55 12 107.5t32.5 99t49 86.5t61.5 69q49 45 110.5 69t133.5 24q46 0 81 -10t59.5 -24.5t40.5 -30.5t25 -28q28 -40 38 -89t10 -89q0 -50 -12 -101t-33 -97.5t-49.5 -86.5t-61.5 -68q-20 -17 -45 -33.5t-55.5 -29.5t-66.5 -21t-77 -8q-57 0 -104 16t-83 55
q-22 24 -35 50t-20 51t-9 48t-2 41zM699 391q3 22 3 47q0 37 -9 73t-30 65q-23 32 -62.5 53.5t-94.5 21.5q-52 0 -105 -23t-93 -62q-25 -25 -43 -53.5t-30 -54t-18.5 -44t-7.5 -23.5h490zM197 334q-2 -13 -4.5 -32.5t-2.5 -42.5q0 -36 9 -76t36 -70q26 -29 63.5 -46.5
t85.5 -17.5q54 0 106.5 23t90.5 61q38 37 65.5 91.5t40.5 109.5h-490z" />
    <glyph glyph-name="uni04E9" unicode="&#x4e9;" horiz-adv-x="561" 
d="M97 256q10 48 33 95.5t59.5 85t86 61t112.5 23.5q47 0 82.5 -13.5t59.5 -36.5t36 -54t12 -65q0 -54 -16.5 -117t-52.5 -117t-92.5 -90t-136.5 -36q-47 0 -82.5 13.5t-59 36.5t-35.5 53.5t-12 64.5v21q0 19 1 37.5t5 37.5zM512 293q0 5 0.5 10t0.5 10q0 24 -5.5 51
t-20.5 50.5t-41.5 38.5t-68.5 15q-47 0 -82 -18.5t-59.5 -45t-40 -57t-23.5 -54.5h340zM161 240q-3 -18 -3 -42q0 -26 5.5 -53t20.5 -49t40.5 -36.5t66.5 -14.5q42 0 76.5 17t61 44.5t45 62.5t27.5 71h-340z" />
    <glyph glyph-name="uni04EA" unicode="&#x4ea;" horiz-adv-x="748" 
d="M119 253q0 55 12 107.5t32.5 99t49 86.5t61.5 69q49 45 110.5 69t133.5 24q46 0 81 -10t59.5 -24.5t40.5 -30.5t25 -28q28 -40 38 -89t10 -89q0 -50 -12 -101t-33 -97.5t-49.5 -86.5t-61.5 -68q-20 -17 -45 -33.5t-55.5 -29.5t-66.5 -21t-77 -8q-57 0 -104 16t-83 55
q-22 24 -35 50t-20 51t-9 48t-2 41zM699 391q3 22 3 47q0 37 -9 73t-30 65q-23 32 -62.5 53.5t-94.5 21.5q-52 0 -105 -23t-93 -62q-25 -25 -43 -53.5t-30 -54t-18.5 -44t-7.5 -23.5h490zM197 334q-2 -13 -4.5 -32.5t-2.5 -42.5q0 -36 9 -76t36 -70q26 -29 63.5 -46.5
t85.5 -17.5q54 0 106.5 23t90.5 61q38 37 65.5 91.5t40.5 109.5h-490zM471 844l-17 -80h-69l17 80h69zM670 844l-17 -80h-69l17 80h69z" />
    <glyph glyph-name="uni04EB" unicode="&#x4eb;" horiz-adv-x="561" 
d="M97 256q10 48 33 95.5t59.5 85t86 61t112.5 23.5q47 0 82.5 -13.5t59.5 -36.5t36 -54t12 -65q0 -54 -16.5 -117t-52.5 -117t-92.5 -90t-136.5 -36q-47 0 -82.5 13.5t-59 36.5t-35.5 53.5t-12 64.5v21q0 19 1 37.5t5 37.5zM512 293q0 5 0.5 10t0.5 10q0 24 -5.5 51
t-20.5 50.5t-41.5 38.5t-68.5 15q-47 0 -82 -18.5t-59.5 -45t-40 -57t-23.5 -54.5h340zM161 240q-3 -18 -3 -42q0 -26 5.5 -53t20.5 -49t40.5 -36.5t66.5 -14.5q42 0 76.5 17t61 44.5t45 62.5t27.5 71h-340zM358 720l-17 -80h-69l17 80h69zM547 720l-17 -80h-69l17 80h69z
" />
    <glyph glyph-name="uni04EE" unicode="&#x4ee;" horiz-adv-x="563" 
d="M221 700l105 -372l18 -88h3l48 84l232 376h72l-367 -589q-15 -24 -30.5 -46.5t-35.5 -39.5q-39 -33 -96 -33q-21 0 -37.5 3.5t-27.5 8.5l14 56q17 -11 46 -11q37 0 66 27q11 10 19 22.5t19 29.5l26 42l-148 530h74zM583 834l-13 -60h-262l13 60h262z" />
    <glyph glyph-name="uni04EF" unicode="&#x4ef;" horiz-adv-x="494" 
d="M35 -155q8 -2 23.5 -5.5t23.5 -3.5q18 0 32 7t25 18.5t20 26t17 28.5l36 67l-78 530h65l56 -392l5 -51l3 1l236 442h69l-347 -629q-25 -46 -57 -75t-85 -29q-14 0 -30.5 2.5t-30.5 6.5zM519 727l-11 -54h-252l11 54h252z" />
    <glyph glyph-name="uni04F0" unicode="&#x4f0;" horiz-adv-x="563" 
d="M221 700l105 -372l18 -88h3l48 84l232 376h72l-367 -589q-15 -24 -30.5 -46.5t-35.5 -39.5q-39 -33 -96 -33q-21 0 -37.5 3.5t-27.5 8.5l14 56q17 -11 46 -11q37 0 66 27q11 10 19 22.5t19 29.5l26 42l-148 530h74zM398 844l-17 -80h-69l17 80h69zM597 844l-17 -80h-69
l17 80h69z" />
    <glyph glyph-name="uni04F1" unicode="&#x4f1;" horiz-adv-x="494" 
d="M35 -155q8 -2 23.5 -5.5t23.5 -3.5q18 0 32 7t25 18.5t20 26t17 28.5l36 67l-78 530h65l56 -392l5 -51l3 1l236 442h69l-347 -629q-25 -46 -57 -75t-85 -29q-14 0 -30.5 2.5t-30.5 6.5zM321 720l-17 -80h-69l17 80h69zM510 720l-17 -80h-69l17 80h69z" />
    <glyph glyph-name="uni04F2" unicode="&#x4f2;" horiz-adv-x="563" 
d="M221 700l105 -372l18 -88h3l48 84l232 376h72l-367 -589q-15 -24 -30.5 -46.5t-35.5 -39.5q-39 -33 -96 -33q-21 0 -37.5 3.5t-27.5 8.5l14 56q17 -11 46 -11q37 0 66 27q11 10 19 22.5t19 29.5l26 42l-148 530h74zM520 870l-154 -120h-66l110 120h110zM670 870
l-154 -120h-66l110 120h110z" />
    <glyph glyph-name="uni04F3" unicode="&#x4f3;" horiz-adv-x="494" 
d="M35 -155q8 -2 23.5 -5.5t23.5 -3.5q18 0 32 7t25 18.5t20 26t17 28.5l36 67l-78 530h65l56 -392l5 -51l3 1l236 442h69l-347 -629q-25 -46 -57 -75t-85 -29q-14 0 -30.5 2.5t-30.5 6.5zM596 740l-155 -130h-51l112 130h94zM446 740l-155 -130h-51l112 130h94z" />
    <glyph glyph-name="uni04F4" unicode="&#x4f4;" horiz-adv-x="640" 
d="M274 700l-47 -232q-4 -15 -4 -35q0 -18 6.5 -35t26.5 -31q25 -18 56 -21.5t54 -3.5q45 0 77 2.5t62 6.5l41 5l70 344h66l-142 -700h-66l61 299l-40 -4q-19 -2 -35.5 -3.5l-33 -3t-35.5 -2.5t-43 -1q-15 0 -34.5 1.5t-40.5 6t-41 12.5t-36 22q-24 20 -32.5 44t-8.5 47
q0 14 2 26.5t4 22.5l47 233h66zM409 844l-17 -80h-69l17 80h69zM608 844l-17 -80h-69l17 80h69z" />
    <glyph glyph-name="uni04F5" unicode="&#x4f5;" horiz-adv-x="506" 
d="M180 359q-3 -11 -3 -25t5 -29t19 -24q9 -6 28.5 -10t67.5 -4q30 0 62 3.5t61 8.5l47 234h63l-104 -513h-63l46 226q-42 -7 -75.5 -9.5t-55.5 -2.5q-17 0 -36 1t-37.5 4.5t-35.5 10t-30 18.5q-16 14 -22 30.5t-6 34.5q0 19 4 36l33 164h63zM327 720l-17 -80h-69l17 80h69z
M516 720l-17 -80h-69l17 80h69z" />
    <glyph glyph-name="uni04F8" unicode="&#x4f8;" horiz-adv-x="806" 
d="M308 700l-58 -287h112q20 0 41 -0.5t42 -4.5t41 -12.5t38 -24.5q18 -17 34.5 -45t16.5 -71q0 -51 -23 -104.5t-77 -93.5q-25 -19 -50 -30t-49 -17t-47.5 -8t-45.5 -2h-118h-65l142 700h66zM178 57h109q12 0 29.5 1.5t37 6t40.5 13.5t41 25q23 18 36.5 37.5t21 38.5
t9.5 36t2 31q0 22 -8 44.5t-34 40.5q-26 19 -58 22t-55 3h-111zM848 700l-142 -700h-66l142 700h66zM509 844l-17 -80h-69l17 80h69zM708 844l-17 -80h-69l17 80h69z" />
    <glyph glyph-name="uni04F9" unicode="&#x4f9;" horiz-adv-x="678" 
d="M184 513h63l-39 -193h118q95 0 133.5 -33t38.5 -97q0 -41 -15 -76t-44.5 -60.5t-74 -39.5t-103.5 -14h-181zM271 53q78 0 118.5 37.5t40.5 99.5q0 37 -25 57t-90 20h-118l-44 -214h118zM702 513l-104 -513h-63l104 513h63zM424 720l-17 -80h-69l17 80h69zM613 720
l-17 -80h-69l17 80h69z" />
    <glyph glyph-name="uni0531" unicode="&#x531;" horiz-adv-x="736" 
d="M218 236q-2 -14 -3.5 -25.5t-1.5 -21.5q0 -40 12.5 -63.5t26.5 -35.5q23 -21 57 -31t70 -10q28 0 51 4.5t40.5 11.5t29.5 14t18 12q22 17 36.5 36t23 38t13 37t7.5 33l95 465h66l-95 -467q-5 -24 -11 -44.5t-16 -43.5l82 -74l-14 -76l-103 91q-26 -31 -57 -49.5
t-62 -28.5t-60 -13t-51 -3t-46 3t-48 10.5t-46 21t-41 35.5q-26 29 -35 62t-9 62q0 26 5 51l95 463h66z" />
    <glyph glyph-name="uni0532" unicode="&#x532;" horiz-adv-x="682" 
d="M641 464q2 11 3.5 22.5t1.5 24.5q0 25 -8 51t-31 48q-23 21 -57 31t-70 10q-29 0 -52 -5t-40 -12t-29 -14t-18 -11q-23 -17 -37 -36t-22.5 -38t-13 -37t-7.5 -33l-35 -176h462l-12 -57h-462l-48 -232h-66l95 467q4 18 9.5 40t14.5 44.5t24 45t38 42.5q25 22 52.5 35.5
t54.5 21t52 10t46 2.5q36 0 71 -6.5t70 -28.5q48 -28 66.5 -70t18.5 -88q0 -13 -1 -26t-4 -26l-6 -32h-66z" />
    <glyph glyph-name="uni0533" unicode="&#x533;" horiz-adv-x="664" 
d="M455 0l47 232q-36 -11 -78.5 -17t-74.5 -6q-46 1 -85.5 14.5t-62.5 34.5q-22 18 -41 53t-19 91q0 60 18.5 114t49.5 90q13 16 33 34t47.5 33t63 25t80.5 10q42 0 78.5 -11t61.5 -32q17 -15 34 -42.5t18 -75.5q0 -23 -3 -44.5t-8 -45.5l-34 -168h111l-12 -57h-111
l-47 -232h-66zM551 471q3 14 4.5 32.5t1.5 29.5q0 22 -5.5 45.5t-28.5 43.5q-20 17 -45.5 23t-52.5 6q-38 -1 -62.5 -8.5t-43.5 -18.5t-31 -23t-20 -21t-18 -22.5t-19 -33t-15.5 -45.5t-8.5 -59q-2 -48 9.5 -76t28.5 -42q15 -14 43 -24t74 -12q34 0 74 6t78 17z" />
    <glyph glyph-name="uni0534" unicode="&#x534;" horiz-adv-x="713" 
d="M586 464q3 13 4 24.5t1 22.5q0 40 -13 63.5t-26 35.5q-23 21 -58 31t-71 10q-45 0 -79.5 -12t-58.5 -31q-21 -16 -34.5 -33t-22 -36t-13.5 -38t-9 -37l-15 -67h-66l14 66q4 18 9.5 41.5t15 46.5t24 45t37.5 42q25 22 52 36t54.5 21.5t52.5 10t46 2.5q22 0 46 -3
t47.5 -10.5t47 -21t42.5 -35.5q26 -30 35 -63t9 -61q0 -26 -5 -51l-37 -174h125l-12 -57h-125l-46 -232h-66z" />
    <glyph glyph-name="uni0535" unicode="&#x535;" horiz-adv-x="672" 
d="M278 513h434l-11 -57h-434l-43 -205q-2 -8 -4.5 -24t-2.5 -37q0 -23 5.5 -48t22 -45.5t45.5 -34t77 -13.5q83 0 142 41q21 15 35.5 31t24.5 33.5t16.5 37.5t11.5 43l4 17h66l-5 -19q-8 -32 -17.5 -59t-24 -50.5t-34.5 -44t-49 -39.5q-45 -29 -87 -38.5t-91 -9.5
q-18 0 -37 1.5t-39 6t-40 14t-38 26.5q-35 30 -46.5 66t-11.5 68q0 17 2.5 32l4.5 27l95 467h66z" />
    <glyph glyph-name="uni0536" unicode="&#x536;" horiz-adv-x="692" 
d="M594 -16l6 33q1 18 -9.5 23t-28.5 5h-432l-9 -45h-66l30 146h66l-9 -44h123q51 25 105 58t102 75l-3 3q-22 -7 -45 -11t-43 -4q-39 0 -75.5 13t-62.5 39q-4 4 -12.5 14.5t-17 27t-15 39.5t-6.5 53q0 61 28 124.5t88 111.5q81 63 187 63q28 0 50.5 -4.5t39.5 -11.5
t28.5 -14t17.5 -12q10 -8 23 -21.5t23.5 -33t18 -46.5t7.5 -63q0 -51 -16 -95.5t-53 -92.5q-29 -37 -65.5 -70t-73.5 -60t-70.5 -48t-55.5 -34l234 -1q43 -3 58 -22.5t9 -50.5l-10 -44h-66zM483 651q-54 0 -101.5 -26.5t-74.5 -62.5t-38 -75.5t-11 -76.5q0 -28 7.5 -51.5
t27.5 -43.5q28 -28 60.5 -34t58.5 -6q32 0 57 4.5t51 16.5q25 16 46.5 39t37 50t24.5 56t9 58q0 24 -6.5 49.5t-20.5 45.5q-5 7 -15 17t-25.5 19t-37 15t-49.5 6z" />
    <glyph glyph-name="uni0537" unicode="&#x537;" horiz-adv-x="487" 
d="M362 -79l7 28q2 8 3.5 13.5t1.5 11.5q0 12 -8 20q-5 4 -10.5 5t-10.5 1h-6h-172h-67l142 700h66l-38 -187h305l-11 -57h-305l-81 -399h197q13 0 27 -2.5t25 -12.5q10 -8 13.5 -19.5t3.5 -23.5q0 -10 -2 -20l-4 -20l-10 -38h-66z" />
    <glyph glyph-name="uni0538" unicode="&#x538;" horiz-adv-x="663" 
d="M195 467q10 48 27.5 92.5t58.5 79.5q11 10 29 22t43 22.5t58 17.5t75 7q22 0 46 -2.5t48 -10t46.5 -21.5t41.5 -36q26 -30 35 -62.5t9 -61.5q0 -26 -5 -51l-10 -49h-67l11 50q3 12 4 23.5t1 22.5q0 64 -39 100q-23 21 -57 31t-70 10q-51 0 -85 -14t-54 -28
q-22 -16 -36 -33.5t-22 -36t-13 -37.5t-9 -37l-85 -408h452l-12 -57h-451h-65z" />
    <glyph glyph-name="uni0539" unicode="&#x539;" horiz-adv-x="798" 
d="M100 0l84 438q9 46 27.5 92t61.5 88q16 15 39.5 31t55.5 29t73 21.5t93 8.5q16 0 41.5 -1.5t54 -8t57.5 -20t53 -36.5q26 -25 43 -62.5t17 -88.5v-14h75l-12 -57h-69l-16 -82q-5 -24 -10 -51t-14.5 -55.5t-26 -57.5t-44.5 -55q-11 -10 -27.5 -21t-37.5 -20.5t-47 -15.5
t-56 -6q-42 0 -69.5 11.5t-47.5 27.5q-20 17 -32 36.5t-18 39t-8 37t-2 31.5q0 30 5.5 55t14.5 45t19.5 35.5t20.5 26.5q23 25 47.5 40t48.5 23t47.5 10.5t46.5 2.5h146q1 3 1 8v9q0 28 -10 54t-27 45q-19 21 -56.5 39.5t-104.5 18.5q-54 0 -107.5 -14.5t-92.5 -45.5
q-42 -33 -57.5 -72.5t-24.5 -82.5l-89 -436h-66zM574 420q-46 0 -75.5 -16.5t-45.5 -33.5q-23 -25 -36 -59t-13 -74q0 -16 4 -41.5t24 -47.5q10 -11 31.5 -23t59.5 -12q32 0 56.5 9t41.5 21t27 23t13 15q12 16 20.5 36t14 41t9.5 41.5t7 38.5l16 82h-154z" />
    <glyph glyph-name="uni053A" unicode="&#x53a;" horiz-adv-x="635" 
d="M610 456l-46 -224q-4 -20 -10 -42t-16.5 -44.5t-26 -44.5t-38.5 -42q-32 -27 -80.5 -47t-109.5 -20q-45 0 -78 13t-56 34t-41 57.5t-18 93.5q0 19 2.5 44.5t10 54t20.5 58.5t34 58q28 37 58.5 59t60 32.5t54.5 13.5t43 3h182l38 187h66l-38 -187h98l-11 -57h-98zM370 457
q-47 0 -86 -20t-67.5 -55.5t-44.5 -84t-16 -105.5q0 -20 4.5 -48t24.5 -52q11 -14 24.5 -22.5t27 -13t26.5 -6t23 -1.5q48 0 85.5 15t63.5 41q19 18 36 46.5t25 67.5l48 238h-174z" />
    <glyph glyph-name="uni053B" unicode="&#x53b;" horiz-adv-x="606" 
d="M100 0l142 700h66l-32 -160q38 13 80 21t84 8q37 0 65 -6.5t49 -16t35 -21.5t23 -23q20 -23 29 -56t9 -69q0 -29 -6 -59l-17 -83h-66l17 86q6 31 6 55q0 33 -8.5 55.5t-21.5 37.5q-25 28 -60 35.5t-63 7.5q-48 0 -89.5 -10t-78.5 -27l-97 -475h-66z" />
    <glyph glyph-name="uni053C" unicode="&#x53c;" horiz-adv-x="430" 
d="M167 0h-67l142 700h66l-130 -643h262l-12 -57h-261z" />
    <glyph glyph-name="uni053D" unicode="&#x53d;" horiz-adv-x="805" 
d="M270 513h136h67l-32 -155q-7 -33 -9 -49t-2 -26q0 -29 11.5 -49.5t25.5 -31.5q19 -16 43.5 -23t49.5 -7q10 0 27 1.5t36.5 7.5t40 17.5t38.5 30.5q22 23 33 48.5t16 53.5l37 182h66l-32 -160q-8 -37 -19.5 -75.5t-44.5 -76.5q-13 -14 -32 -29.5t-44 -28t-56.5 -20.5
t-70.5 -8q-27 0 -56 6.5t-58 23.5q-32 20 -54.5 54t-22.5 82q0 31 10 70l22 105h-137l-93 -456h-66l142 700h66z" />
    <glyph glyph-name="uni053E" unicode="&#x53e;" horiz-adv-x="751" 
d="M762 537q0 2 1 7t1 10q0 12 -5 18.5t-13.5 10t-18 4t-18.5 0.5h-72v-3q25 -11 42 -27.5t31 -42.5q17 -32 24 -67.5t7 -71.5q0 -78 -27 -141.5t-63 -108.5q-54 -66 -126 -99.5t-157 -33.5q-43 0 -82 12.5t-74 46.5q-22 22 -36 46.5t-21.5 49.5t-10 49.5t-2.5 45.5
q0 75 25 144t67 117q17 20 44.5 41.5t69.5 38.5l-1 4h-93q-12 0 -26.5 3t-27.5 16q-7 7 -13 20t-6 35q0 10 1.5 21t2.5 18h66q-4 -12 -4 -30q0 -5 1 -12t9 -13q8 -7 17.5 -8t19.5 -1h451q14 0 31 -2.5t32 -14.5q13 -11 18 -24t5 -29t-3 -29h-66zM675 395q0 34 -8.5 67.5
t-28.5 60.5t-54.5 44t-86.5 17q-45 0 -81 -13.5t-63 -32t-45.5 -39t-28.5 -35.5q-34 -49 -52.5 -109.5t-18.5 -114.5q0 -91 47.5 -141t132.5 -50q49 0 90 16t73.5 43t56 61t37.5 70q7 17 12.5 37.5t9.5 41.5t6 40.5t2 36.5z" />
    <glyph glyph-name="uni053F" unicode="&#x53f;" horiz-adv-x="663" 
d="M503 0l33 161q-40 -16 -87.5 -26.5t-95.5 -10.5q-55 0 -93 15t-63 40q-26 26 -36.5 59t-10.5 66q0 14 2.5 31t5.5 31l67 334h66l-69 -342q-2 -13 -4.5 -24.5t-2.5 -27.5q0 -72 53 -104q22 -13 44 -17t42 -4q35 0 86 8t109 37l58 287h66l-104 -513h-66z" />
    <glyph glyph-name="uni0540" unicode="&#x540;" horiz-adv-x="659" 
d="M64 195l434 392q5 5 11 11.5t6 16.5q0 6 -3 12.5t-7 10.5l-29 29l55 41l46 -55q17 -20 17 -40q0 -19 -9.5 -31.5t-20.5 -22.5l-377 -335l499 -170l-13 -62z" />
    <glyph glyph-name="uni0541" unicode="&#x541;" horiz-adv-x="689" 
d="M529 0q-28 0 -61 16t-78 55q-69 -48 -116 -63.5t-81 -15.5q-18 0 -41 6t-41 26q-11 12 -18 29t-7 38q0 19 8 45t34 49q19 17 43 27t56 10q25 0 49.5 -7t47 -18.5t42 -25t34.5 -26.5q21 15 44.5 33.5t46 38t42 38.5t34.5 36q34 39 59.5 89.5t25.5 108.5q0 39 -13 69
t-36 50.5t-55 31.5t-70 11q-51 0 -100.5 -18.5t-84.5 -55.5q-25 -26 -42 -62t-22 -81h-66q1 16 6 42.5t19 58t40 64t69 59.5q48 30 93 40t93 10q18 0 40.5 -2t47 -8.5t48.5 -19t45 -33.5q20 -21 37.5 -57.5t17.5 -93.5q0 -44 -9.5 -80t-24.5 -65.5t-33 -52.5t-34 -41
q-37 -40 -81.5 -78t-92.5 -70q21 -19 37.5 -29t30.5 -14.5t27 -5.5t27 -1h46l-16 -57h-67zM351 109q-11 10 -26.5 20t-32.5 18t-34.5 13t-33.5 5q-34 0 -54 -20t-20 -48q0 -25 16.5 -36.5t39.5 -11.5q29 0 63 14.5t82 45.5z" />
    <glyph glyph-name="uni0542" unicode="&#x542;" horiz-adv-x="707" 
d="M585 464q3 13 4 24.5t1 22.5q0 42 -13 64.5t-26 34.5q-23 21 -57 31t-70 10q-45 0 -79.5 -12t-59.5 -30q-23 -17 -37 -36t-22.5 -38t-15.5 -49.5t-10 -45.5l-9 -43h-66l9 45q15 74 32.5 117.5t58.5 79.5q25 22 52.5 35.5t55 21t52.5 10t46 2.5q35 0 70 -6.5t70 -28.5
q16 -10 31.5 -25t27.5 -34.5t19.5 -44t7.5 -54.5q0 -24 -6 -52l-83 -406h125l-12 -57h-125h-66z" />
    <glyph glyph-name="uni0543" unicode="&#x543;" horiz-adv-x="662" 
d="M167 0h-67l56 273q10 51 27 92.5t37 73.5t40 55.5t36 38.5q-24 -1 -46 -2.5t-42 -4.5l12 57q43 3 85 3h21.5t21.5 -1q26 23 58 45t64 37q31 15 73 26t96 11q27 0 57 -3l-11 -57q-17 2 -32 3.5t-29 1.5q-36 0 -63 -6.5t-49 -17.5q-32 -14 -55.5 -29.5t-32.5 -22.5
q54 -11 99.5 -38.5t74.5 -65.5q26 -33 34.5 -68t8.5 -65q0 -29 -5 -51l-58 -285h-65h-346zM569 276q6 33 6 59q0 36 -10.5 63.5t-30.5 49.5q-30 34 -73.5 54t-88.5 27q-22 -20 -47 -48.5t-41 -51.5q-17 -26 -35 -64t-27 -83l-45 -225h348z" />
    <glyph glyph-name="uni0544" unicode="&#x544;" horiz-adv-x="763" 
d="M220 235q-2 -11 -4 -24.5t-2 -27.5q0 -23 7.5 -47.5t30.5 -45.5q19 -17 48.5 -29t71.5 -12q35 0 70 10t66 31q42 29 62.5 64.5t29.5 80.5l94 465h64h127l-12 -54h-125l-83 -413q-5 -23 -13 -48t-23 -50t-37.5 -49.5t-55.5 -45.5q-45 -29 -86.5 -38.5t-89.5 -9.5
q-36 0 -77.5 8t-78.5 40q-35 31 -46 66.5t-11 67.5q0 17 2 32t4 27l95 467h66z" />
    <glyph glyph-name="uni0545" unicode="&#x545;" horiz-adv-x="629" 
d="M178 224q-2 -11 -4 -23t-2 -26q0 -26 8.5 -51.5t31.5 -44.5t51.5 -24.5t53.5 -5.5q63 0 103 17t64 37q35 30 49.5 65t14.5 68q0 32 -11 52t-25 31q-17 15 -43.5 24t-54.5 9h-281l11 57h286q33 0 66 17t52 35q20 19 32.5 45.5t12.5 52.5q-2 34 -18 53t-36.5 27.5t-41 10
t-32.5 1.5q-26 0 -62.5 -7t-69.5 -33q-17 -14 -33.5 -37t-24.5 -53h-66q3 12 10 30.5t19.5 39t31.5 41t47 37.5q39 24 79 31.5t76 7.5q30 0 62.5 -5.5t61.5 -24.5q26 -17 44.5 -45t18.5 -73q0 -36 -13.5 -66t-34.5 -53q-17 -18 -42 -33.5t-52 -26.5v-3q45 -10 72.5 -45.5
t27.5 -92.5q0 -36 -10.5 -67t-28.5 -56.5t-41 -46t-47 -35.5q-46 -28 -87.5 -35.5t-86.5 -7.5q-36 0 -76.5 7.5t-75.5 38.5q-27 24 -42.5 59.5t-15.5 77.5q0 23 6 49h66z" />
    <glyph glyph-name="uni0546" unicode="&#x546;" horiz-adv-x="712" 
d="M271 235q-2 -11 -4 -24.5t-2 -27.5q0 -23 7.5 -47.5t30.5 -45.5q19 -17 48.5 -29t71.5 -12q35 0 70 10t66 33q42 33 63.5 68t31.5 89l7 36h66l-8 -38q-15 -75 -45 -122t-85 -86q-46 -27 -88 -37t-90 -10q-17 0 -36.5 1.5t-39.5 6t-40.5 14t-39.5 26.5q-35 30 -46.5 66
t-11.5 68q0 17 2.5 32.5t4.5 26.5l83 410h-130l12 57h129h67z" />
    </font>
</defs>
</svg>
