<?xml version="1.0" standalone="no"?>
<!DOCTYPE svg PUBLIC "-//W3C//DTD SVG 1.1//EN" "http://www.w3.org/Graphics/SVG/1.1/DTD/svg11.dtd" >
<svg xmlns="http://www.w3.org/2000/svg" xmlns:xlink="http://www.w3.org/1999/xlink" version="1.1">
<metadata>
Created by FontForge 20170731 at Thu Mar 22 20:33:01 2018
 By Aleksey,,,
Copyright (c) 1992 ParaType Inc., ParaType Ltd. All rights reserved.
</metadata>
<defs>
<font id="VTBGroup-ExtraBold" horiz-adv-x="700" >
  <font-face 
    font-family="VTB Group Extra Bold"
    font-weight="800"
    font-stretch="normal"
    units-per-em="1000"
    panose-1="2 11 10 3 6 5 4 2 2 4"
    ascent="773"
    descent="-227"
    x-height="524"
    cap-height="700"
    bbox="-619 -270 1676 1000"
    underline-thickness="50"
    underline-position="-150"
    unicode-range="U+000D-FEFF"
  />
<missing-glyph horiz-adv-x="500" 
d="M442 8v496h-384v-496h384zM50 512h400v-512h-400v512z" />
    <glyph glyph-name="IJ" unicode="IJ" horiz-adv-x="860" 
d="M323 700v-700h-268v700h268zM810 700v-479q0 -56 -15.5 -95.5t-40.5 -65t-55 -40t-58.5 -22t-52.5 -9t-36 -1.5q-29 0 -69.5 4.5t-100.5 20.5v190q28 -10 48 -11.5t26 -1.5q8 0 22.5 2t28.5 11.5t24.5 28.5t10.5 52v416h268z" />
    <glyph glyph-name="ij" unicode="ij" horiz-adv-x="705" 
d="M50 524h252v-524h-252v524zM302 754v-164h-252v164h252zM655 524v-556q0 -10 -1 -28.5t-7 -40.5t-18 -45t-33 -42t-54 -31t-80 -12q-29 0 -70.5 3.5t-83.5 12.5v153q11 -4 22 -5.5t19 -1.5q21 0 32 7.5t16 18t5.5 21.5t0.5 18v528h252zM655 754v-164h-252v164h252z" />
    <glyph glyph-name="afii10017.var.accented" unicode="&#x410;`" horiz-adv-x="825" 
d="M591 700l249 -700h-282l-48 151h-210l-47 -151h-268l245 700h361zM403 534l-72 -219h149l-73 219h-4zM650 896l-216 -156h-154l110 156h260z" />
    <glyph glyph-name="afii10022.var.accented" unicode="&#x415;`" 
d="M661 700v-165h-343v-101h328v-160h-328v-109h350v-165h-618v700h611zM600 896l-216 -156h-154l110 156h260z" />
    <glyph glyph-name="afii10026.var.accented" unicode="&#x418;`" horiz-adv-x="862" 
d="M318 700v-400h4l177 400h313v-700h-268v392h-4l-177 -392h-313v700h268zM651 896l-216 -156h-154l110 156h260z" />
    <glyph glyph-name="afii10032.var.accented" unicode="&#x41e;`" horiz-adv-x="820" 
d="M410 712q93 0 165.5 -25t122.5 -72t76 -114t26 -151t-26 -151t-76 -114t-122.5 -72t-165.5 -25t-165.5 25t-122.5 72t-76 114t-26 151t26 151t76 114t122.5 72t165.5 25zM410 544q-38 0 -59.5 -20t-32.5 -49.5t-13.5 -63.5t-2.5 -61t2.5 -61t13.5 -63.5t32.5 -49.5
t59.5 -20t59.5 20t32.5 49.5t13.5 63.5t2.5 61t-2.5 61t-13.5 63.5t-32.5 49.5t-59.5 20zM656 896l-216 -156h-154l110 156h260z" />
    <glyph glyph-name="afii10037.var.accented" unicode="&#x423;`" horiz-adv-x="739" 
d="M291 700l98 -303h4l96 303h264l-223 -529q-12 -28 -30 -60t-47 -59.5t-73.5 -45.5t-108.5 -18q-18 0 -40 1.5t-46 4.5t-48.5 7.5t-46.5 10.5v177q32 -10 53.5 -13t36.5 -3q6 0 14.5 0.5t16 3.5t12.5 8t5 14q0 5 -2 15.5t-14 33.5l-226 452h305zM590 896l-216 -156h-154
l110 156h260z" />
    <glyph glyph-name="afii10045.var.accented" unicode="&#x42b;`" horiz-adv-x="1122" 
d="M50 700h268v-202h147q74 0 127.5 -20t88.5 -54.5t51.5 -79.5t16.5 -95t-16.5 -95t-51.5 -79.5t-88.5 -54.5t-127.5 -20h-415v700zM365 162q10 0 29 2t38 10t33 25.5t14 49.5q0 16 -5 31.5t-18 28t-34.5 20t-55.5 7.5h-55v-174h54zM1072 700v-700h-268v700h268zM781 896
l-216 -156h-154l110 156h260z" />
    <glyph glyph-name="afii10047.var.accented" unicode="&#x42d;`" horiz-adv-x="679" 
d="M380 426q-5 13 -15 32.5t-30.5 36.5t-53.5 29.5t-84 12.5q-9 0 -25 -1t-37 -4.5t-45.5 -10t-49.5 -16.5v185l15 3q63 13 106 16t73 3q89 0 155 -17.5t113.5 -46t77.5 -66t47.5 -77.5t24.5 -80.5t7 -74.5q0 -66 -23 -130.5t-73.5 -116t-130 -83.5t-191.5 -32
q-56 0 -107.5 8.5t-93.5 19.5v186q31 -12 58.5 -18.5t49.5 -9.5t36 -3.5t19 -0.5q54 0 87.5 15t53 34.5t27 38t9.5 25.5h-242v143h242zM560 896l-216 -156h-154l110 156h260z" />
    <glyph glyph-name="afii10048.var.accented" unicode="&#x42e;`" horiz-adv-x="1174" 
d="M399 458q11 63 44.5 111t82.5 79.5t110.5 47.5t127.5 16q93 0 165.5 -25t122.5 -72t76 -114t26 -151t-26 -151t-76 -114t-122.5 -72t-165.5 -25q-73 0 -136.5 18.5t-112 53t-80 84.5t-39.5 114h-78v-258h-268v700h268v-242h81zM764 544q-38 0 -59.5 -20t-32.5 -49.5
t-13.5 -63.5t-2.5 -61t2.5 -61t13.5 -63.5t32.5 -49.5t59.5 -20t59.5 20t32.5 49.5t13.5 63.5t2.5 61t-2.5 61t-13.5 63.5t-32.5 49.5t-59.5 20zM807 896l-216 -156h-154l110 156h260z" />
    <glyph glyph-name="afii10049.var.accented" unicode="&#x42f;`" horiz-adv-x="788" 
d="M162 273q-63 30 -94 80t-31 112q0 51 18.5 94t55.5 74.5t91 49t126 17.5h410v-700h-268v240h-78l-104 -240h-271zM305 465q0 -18 5 -31.5t18 -23t34.5 -14t53.5 -4.5h64v146h-64q-32 0 -53.5 -4.5t-34.5 -14t-18 -23t-5 -31.5zM705 896l-216 -156h-154l110 156h260z" />
    <glyph glyph-name="afii10023.var.accented" unicode="&#x401;`" 
d="M661 700v-165h-343v-101h328v-160h-328v-109h350v-165h-618v700h611zM240 896v-156h-170v156h170zM646 896v-156h-170v156h170zM606 1000l-216 -156h-143l109 156h250z" />
    <glyph glyph-name="afii10065.var.accented" unicode="&#x430;`" horiz-adv-x="650" 
d="M384 64h-4q-19 -25 -42 -40t-47 -23t-48 -10.5t-45 -2.5q-47 0 -81.5 12.5t-57 33.5t-33.5 49.5t-11 61.5q0 67 33.5 104.5t84 54.5t108.5 20.5t108 3.5h35v16q0 21 -12 33.5t-30 19t-39.5 9t-40.5 2.5q-2 0 -17.5 -1t-40.5 -5t-57.5 -12t-67.5 -23v137q60 16 125.5 24
t121.5 8q52 0 104 -9.5t92.5 -32.5t66 -62t25.5 -98v-334h-230v64zM371 228q-14 0 -33.5 -0.5t-38 -6t-31.5 -18.5t-13 -38q0 -22 16.5 -36t42.5 -14t48 19.5t22 64.5v29h-13zM547 754l-196 -164h-140l100 164h236z" />
    <glyph glyph-name="afii10070.var.accented" unicode="&#x435;`" horiz-adv-x="633" 
d="M266 201q1 -14 6.5 -28.5t19.5 -26.5t38.5 -20t63.5 -8q48 0 92 9.5t92 26.5v-136q-64 -17 -123 -23.5t-113 -6.5q-103 0 -166.5 28.5t-99 71.5t-47.5 92.5t-12 90.5q0 61 22.5 110.5t62.5 83.5t96 52.5t122 18.5q48 0 100 -12t95.5 -44t72 -88.5t28.5 -145.5v-45h-350z
M396 308v9q0 28 -6 46.5t-16 29t-21.5 14.5t-21.5 4q-7 0 -18 -2.5t-21.5 -12t-18 -28t-7.5 -50.5v-10h130zM551 754l-196 -164h-140l100 164h236z" />
    <glyph glyph-name="afii10074.var.accented" unicode="&#x438;`" horiz-adv-x="699" 
d="M649 524v-524h-230v245h-5l-115 -245h-249v524h230v-245h5l117 245h247zM571 754l-196 -164h-140l100 164h236z" />
    <glyph glyph-name="afii10080.var.accented" unicode="&#x43e;`" horiz-adv-x="690" 
d="M345 536q75 0 135 -19t102 -54t65 -86t23 -115t-23 -115t-65 -86t-102 -54t-135 -19t-135 19t-102 54t-65 86t-23 115t23 115t65 86t102 54t135 19zM345 386q-20 0 -31.5 -12t-16.5 -30t-6 -40t-1 -42t1 -42t6 -40t16.5 -30t31.5 -12t31 12t16.5 30t6.5 40t1 42t-1 42
t-6.5 40t-16.5 30t-31 12zM567 754l-196 -164h-140l100 164h236z" />
    <glyph glyph-name="afii10085.var.accented" unicode="&#x443;`" horiz-adv-x="625" 
d="M248 524l72 -330h3l63 330h247l-177 -545q-14 -43 -34.5 -81t-52 -66.5t-76.5 -45.5t-107 -17q-35 0 -78.5 5t-84.5 15v146q17 -5 37.5 -7.5t39.5 -2.5q22 0 36 5t22.5 12.5t12 15t5.5 12.5l5 17l-194 537h261zM534 754l-196 -164h-140l100 164h236z" />
    <glyph glyph-name="afii10093.var.accented" unicode="&#x44b;`" horiz-adv-x="995" 
d="M50 524h252v-154h88q68 0 115.5 -12.5t77.5 -36.5t44 -58.5t14 -77.5t-14 -77.5t-44 -58.5t-77.5 -36.5t-115.5 -12.5h-340v524zM389 185q0 57 -59 57h-33v-118h33q59 0 59 61zM945 524v-524h-252v524h252zM763 754l-196 -164h-140l100 164h236z" />
    <glyph glyph-name="afii10095.var.accented" unicode="&#x44d;`" horiz-adv-x="562" 
d="M31 504q25 8 76 20t121 12q81 0 140.5 -22t98.5 -59t57.5 -85.5t18.5 -100.5q0 -57 -18.5 -108t-57.5 -89.5t-99 -61t-143 -22.5q-40 0 -89 5.5t-109 26.5v138q32 -17 66.5 -26t67.5 -9q54 0 88.5 26t40.5 71h-189v94h189q-12 45 -48.5 66t-87.5 21q-34 0 -65 -9t-58 -24
v136zM503 754l-196 -164h-140l100 164h236z" />
    <glyph glyph-name="afii10096.var.accented" unicode="&#x44e;`" horiz-adv-x="989" 
d="M361 340q11 46 33 79t49 54.5t57 34t58 19t52.5 8t40.5 1.5q73 0 132 -19t100 -54.5t63.5 -86t22.5 -114.5t-22.5 -115t-63.5 -86t-100 -54t-132 -19q-120 0 -196 52.5t-95 149.5h-58v-190h-252v524h252v-184h59zM651 386q-20 0 -31.5 -12t-16.5 -30t-6 -40t-1 -42t1 -42
t6 -40t16.5 -30t31.5 -12t31 12t16.5 30t6.5 40t1 42t-1 42t-6.5 40t-16.5 30t-31 12zM716 754l-196 -164h-140l100 164h236z" />
    <glyph glyph-name="afii10097.var.accented" unicode="&#x44f;`" horiz-adv-x="671" 
d="M621 0h-252v174h-27l-63 -174h-259l106 208q-42 12 -69 46.5t-27 85.5q0 25 7.5 57t31.5 60.5t69 47.5t120 19h363v-524zM353 400q-20 0 -33 -6t-20.5 -15.5t-10 -20t-2.5 -19.5q0 -7 2.5 -17t9.5 -19t20 -15t34 -6h21v118h-21zM557 754l-196 -164h-140l100 164h236z" />
    <glyph glyph-name="afii10071.var.accented" unicode="&#x451;`" horiz-adv-x="633" 
d="M266 201q1 -14 6.5 -28.5t19.5 -26.5t38.5 -20t63.5 -8q48 0 92 9.5t92 26.5v-136q-64 -17 -123 -23.5t-113 -6.5q-103 0 -166.5 28.5t-99 71.5t-47.5 92.5t-12 90.5q0 61 22.5 110.5t62.5 83.5t96 52.5t122 18.5q48 0 100 -12t95.5 -44t72 -88.5t28.5 -145.5v-45h-350z
M396 308v9q0 28 -6 46.5t-16 29t-21.5 14.5t-21.5 4q-7 0 -18 -2.5t-21.5 -12t-18 -28t-7.5 -50.5v-10h130zM210 754v-156h-160v156h160zM594 754v-156h-160v156h160zM548 858l-197 -156h-129l99 156h227z" />
    <glyph glyph-name="fi" unicode="fi" horiz-adv-x="810" 
d="M97 374h-92v150h92v44q0 21 5.5 54.5t27.5 65.5t66.5 55t122.5 23q60 0 97.5 -7t51.5 -11v-139q-13 4 -26 5.5t-24 1.5q-25 0 -39 -9t-20.5 -20t-8 -21.5t-1.5 -14.5v-27h107v-150h-107v-374h-252v374zM508 524h252v-524h-252v524zM760 754v-164h-252v164h252z" />
    <glyph glyph-name="fl" unicode="fl" horiz-adv-x="810" 
d="M97 374h-92v150h92v44q0 21 5.5 54.5t27.5 65.5t66.5 55t122.5 23q60 0 97.5 -7t51.5 -11v-139q-13 4 -26 5.5t-24 1.5q-25 0 -39 -9t-20.5 -20t-8 -21.5t-1.5 -14.5v-27h107v-150h-107v-374h-252v374zM760 754v-754h-252v754h252z" />
    <glyph glyph-name=".notdef" horiz-adv-x="500" 
d="M442 8v496h-384v-496h384zM50 512h400v-512h-400v512z" />
    <glyph glyph-name=".null" horiz-adv-x="0" 
 />
    <glyph glyph-name=".null" horiz-adv-x="0" 
 />
    <glyph glyph-name="uni000D" unicode="&#xd;" horiz-adv-x="233" 
 />
    <glyph glyph-name="space" unicode=" " horiz-adv-x="233" 
 />
    <glyph glyph-name="exclam" unicode="!" horiz-adv-x="426" 
d="M347 700l-39 -441h-190l-39 441h268zM322 187v-187h-218v187h218z" />
    <glyph glyph-name="quotedbl" unicode="&#x22;" horiz-adv-x="556" 
d="M310 700h150v-305h-150v305zM96 700h150v-305h-150v305z" />
    <glyph glyph-name="numbersign" unicode="#" 
d="M133 165h-63v140h82l13 90h-65v140h84l24 165h150l-24 -165h82l24 165h150l-24 -165h64v-140h-83l-13 -90h66v-140h-85l-23 -165h-150l23 165h-82l-23 -165h-150zM384 305l13 90h-82l-13 -90h82z" />
    <glyph glyph-name="dollar" unicode="$" 
d="M289 0q-60 2 -112.5 8.5t-106.5 23.5v155q43 -17 92 -27t91 -10q34 0 56 6t35 15t18 20t5 21q0 15 -8.5 26t-22.5 18.5t-31.5 12.5t-35.5 10q-41 10 -76.5 26.5t-62 41.5t-42 60.5t-15.5 85.5q0 37 15 70.5t43 60t68 45t90 26.5v105h132v-102q48 -3 92 -9t74 -13v-157
q-44 16 -91.5 23.5t-84.5 7.5q-26 0 -42.5 -5t-26 -13t-13 -18t-3.5 -20q0 -24 21.5 -36.5t56 -23.5t77.5 -26t85 -44q10 -7 21.5 -20t21 -31t15.5 -40.5t6 -48.5q0 -43 -16.5 -79t-44.5 -64t-66.5 -47t-81.5 -28v-106h-132v100z" />
    <glyph glyph-name="percent" unicode="%" horiz-adv-x="961" 
d="M225 332q-94 0 -147 51.5t-53 138.5t53 138.5t147 51.5t147 -51.5t53 -138.5t-53 -138.5t-147 -51.5zM225 442q21 0 33 16.5t12 63.5t-12 63.5t-33 16.5t-33 -16.5t-12 -63.5t12 -63.5t33 -16.5zM653 700h142l-488 -700h-142zM735 -12q-94 0 -147 51.5t-53 138.5
t53 138.5t147 51.5t147 -51.5t53 -138.5t-53 -138.5t-147 -51.5zM735 98q21 0 33 16.5t12 63.5t-12 63.5t-33 16.5t-33 -16.5t-12 -63.5t12 -63.5t33 -16.5z" />
    <glyph glyph-name="ampersand" unicode="&#x26;" horiz-adv-x="963" 
d="M881 396q-17 -74 -54 -127.5t-76 -88.5l5 -4q12 -10 33.5 -27t48.5 -40t58.5 -51t64.5 -58h-335l-43 44q-77 -38 -138.5 -47t-105.5 -9q-103 0 -164.5 22t-94.5 53.5t-43 67t-10 63.5q0 57 37.5 104t104.5 67v4q-19 10 -37.5 25t-33.5 34t-24 42.5t-9 52.5q0 46 17.5 78
t45.5 53t62.5 33t68.5 17.5t63 6.5t47 1q96 0 155.5 -15t92.5 -37.5t44 -50t11 -52.5q0 -24 -12 -49.5t-35.5 -49t-58 -44t-79.5 -34.5q18 -12 40 -27t55 -41q26 26 36 49t13 35h250zM308 270q-14 -11 -26.5 -29.5t-12.5 -43.5q0 -11 5 -22.5t16 -21t28 -15.5t42 -6
q17 0 38.5 5.5t44.5 25.5zM382 464q23 14 41.5 29.5t18.5 42.5q0 7 -2.5 16.5t-10 17.5t-21 14t-36.5 6q-24 0 -39.5 -6t-23.5 -14.5t-11 -17.5t-3 -16q0 -24 20.5 -42.5t46.5 -33.5l7 -4z" />
    <glyph glyph-name="quotesingle" unicode="'" horiz-adv-x="316" 
d="M83 698h150v-305h-150v305z" />
    <glyph glyph-name="parenleft" unicode="(" horiz-adv-x="370" 
d="M171 -140q-29 46 -53.5 99t-43 110.5t-29 117.5t-10.5 122q0 70 13 135.5t33 123t44 106t46 84.5h183q-33 -60 -54.5 -119t-34.5 -116t-18.5 -111t-5.5 -103q0 -80 11 -148t28 -124.5t37 -101t37 -75.5h-183z" />
    <glyph glyph-name="parenright" unicode=")" horiz-adv-x="370" 
d="M16 -140q17 31 37 75.5t37 101t28 125t11 147.5q0 49 -5.5 103t-18.5 111t-34.5 116.5t-54.5 118.5h183q13 -23 36 -66t45.5 -101.5t38.5 -130.5t16 -151q0 -71 -13 -136.5t-33.5 -123t-44.5 -105.5t-45 -84h-183z" />
    <glyph glyph-name="asterisk" unicode="*" horiz-adv-x="540" 
d="M460 617l40 -148l-145 -24l111 -107l-123 -83l-73 130l-73 -130l-123 83l111 107l-145 24l40 148l140 -66l-25 149h150l-25 -149z" />
    <glyph glyph-name="plus" unicode="+" 
d="M270 270h-195v160h195v195h160v-195h195v-160h-195v-195h-160v195z" />
    <glyph glyph-name="comma" unicode="," horiz-adv-x="316" 
d="M295 193l-115 -306h-159l62 306h212z" />
    <glyph glyph-name="hyphen" unicode="-" horiz-adv-x="400" 
d="M20 380h360v-160h-360v160z" />
    <glyph glyph-name="period" unicode="." horiz-adv-x="368" 
d="M75 193h218v-193h-218v193z" />
    <glyph glyph-name="slash" unicode="/" horiz-adv-x="350" 
d="M222 700h178l-272 -700h-178z" />
    <glyph glyph-name="zero" unicode="0" 
d="M350 -12q-71 0 -127 21t-94.5 65.5t-58.5 112.5t-20 163q0 94 20 162.5t58.5 113t94.5 65.5t127 21t127 -21t94.5 -65.5t58.5 -113t20 -162.5q0 -95 -20 -163t-58.5 -112.5t-94.5 -65.5t-127 -21zM350 148q19 0 34 7.5t25.5 29t16 61t5.5 104.5q0 64 -5.5 104t-16 61.5
t-25.5 29t-34 7.5t-33.5 -7.5t-25 -29t-16 -61.5t-5.5 -104q0 -65 5.5 -104.5t16 -61t25 -29t33.5 -7.5z" />
    <glyph glyph-name="one" unicode="1" 
d="M318 454l-157 -104l-101 155l295 195h215v-700h-252v454z" />
    <glyph glyph-name="two" unicode="2" 
d="M70 197q90 43 149 75.5t94.5 60t49.5 53t14 54.5q0 19 -8 37t-24.5 31.5t-42.5 21.5t-63 8q-31 0 -71.5 -7t-82.5 -24v183q67 14 116.5 18t87.5 4q106 0 173 -21t104 -54.5t50.5 -74.5t13.5 -80q0 -88 -73.5 -167.5t-219.5 -144.5v-2h293v-168h-560v197z" />
    <glyph glyph-name="three" unicode="3" 
d="M162 426h89q30 0 49.5 5.5t31 13.5t16.5 18.5t5 21.5t-3.5 23.5t-15.5 23t-35 17.5t-61 7q-42 0 -82 -8t-75 -19v156q64 16 116 21.5t96 5.5q100 0 163 -19.5t98.5 -49t48.5 -64t13 -64.5q0 -26 -8.5 -51.5t-25.5 -46.5t-42.5 -37t-58.5 -23v-2q71 -13 108 -58t37 -103
q0 -30 -12.5 -66t-48.5 -67t-100 -52t-167 -21q-38 0 -95 5.5t-129 23.5v163q70 -20 113.5 -25t63.5 -5q37 0 59.5 7.5t33.5 18t14.5 21t3.5 16.5q0 8 -2.5 19.5t-13.5 22.5t-33 19t-61 8h-90v144z" />
    <glyph glyph-name="four" unicode="4" 
d="M361 296v201h-4l-153 -201h157zM351 134h-321v198l295 368h268v-394h87v-172h-87v-134h-242v134z" />
    <glyph glyph-name="five" unicode="5" 
d="M305 -12q-48 0 -103.5 6t-121.5 24v160q25 -7 63 -14.5t82 -7.5q80 0 111 23.5t31 60.5q0 17 -7.5 31.5t-25 25.5t-46.5 17t-73 6q-36 0 -69 -4.5t-56 -9.5l20 394h490v-162h-276l-5 -106q14 2 39.5 2.5t46.5 0.5q54 0 96 -16t70.5 -44.5t43.5 -68t15 -86.5
q0 -49 -19 -91.5t-59 -73.5t-101.5 -49t-145.5 -18z" />
    <glyph glyph-name="six" unicode="6" 
d="M367 -12q-75 0 -136 24.5t-104.5 71t-67.5 112t-24 148.5q0 73 21 139.5t66 117.5t116 81t172 30q23 0 72.5 -2.5t130.5 -16.5v-161q-44 10 -85.5 17t-89.5 7q-12 0 -38.5 -3t-54 -16.5t-48.5 -41.5t-22 -79h4q19 15 51 28.5t92 13.5q54 0 98.5 -16t76.5 -45.5t50 -70.5
t18 -91q0 -53 -19.5 -98t-57.5 -78t-93.5 -52t-127.5 -19zM361 138q35 0 59 24t24 70t-24 70t-59 24t-59 -24t-24 -70t24 -70t59 -24z" />
    <glyph glyph-name="seven" unicode="7" 
d="M403 538h-353v162h590v-162l-272 -538h-261z" />
    <glyph glyph-name="eight" unicode="8" 
d="M538 353q25 -5 50.5 -16.5t46 -30.5t33.5 -46.5t13 -64.5q0 -30 -12.5 -66t-48.5 -67.5t-101 -52.5t-169 -21t-169 21t-101 52.5t-48.5 67.5t-12.5 66q0 37 13 64.5t33.5 46.5t46 30.5t50.5 16.5v4q-30 7 -53.5 23t-39.5 37.5t-24.5 47.5t-8.5 54q0 11 3 30t14 40
t31.5 43t55.5 40t86.5 29t123.5 11t123.5 -11t86.5 -29t55.5 -40t31.5 -43t14 -40t3 -30q0 -28 -8.5 -54t-24.5 -47.5t-39.5 -37.5t-53.5 -23v-4zM350 315q-36 0 -57.5 -25.5t-21.5 -64.5t21.5 -64.5t57.5 -25.5t57.5 25.5t21.5 64.5t-21.5 64.5t-57.5 25.5zM350 578
q-26 0 -49 -19.5t-23 -60.5t23 -60.5t49 -19.5t49 19.5t23 60.5t-23 60.5t-49 19.5z" />
    <glyph glyph-name="nine" unicode="9" 
d="M274 -12q-22 0 -42.5 1t-42.5 3t-47 5.5t-55 9.5v161q41 -10 86.5 -17t88.5 -7q12 0 38.5 3t54 16.5t48.5 41.5t22 79h-4q-16 -13 -48.5 -27.5t-94.5 -14.5q-64 0 -110 19.5t-75.5 51t-43.5 71.5t-14 81q0 47 17 91.5t52.5 79t89 55.5t126.5 21q83 0 147 -25.5t108 -71.5
t67 -110t23 -140q0 -39 -6 -82.5t-21.5 -85t-43.5 -79.5t-71.5 -67t-104.5 -46t-144 -17zM339 374q35 0 59 24t24 70t-24 70t-59 24t-59 -24t-24 -70t24 -70t59 -24z" />
    <glyph glyph-name="colon" unicode=":" horiz-adv-x="368" 
d="M75 193h218v-193h-218v193zM75 523h218v-193h-218v193z" />
    <glyph glyph-name="semicolon" unicode=";" horiz-adv-x="370" 
d="M304 193l-115 -306h-159l62 306h212zM294 523v-193h-218v193h218z" />
    <glyph glyph-name="less" unicode="&#x3c;" 
d="M75 260v180l550 220v-155l-375 -150l375 -150v-165z" />
    <glyph glyph-name="equal" unicode="=" 
d="M75 310h550v-160h-550v160zM75 550h550v-160h-550v160z" />
    <glyph glyph-name="greater" unicode="&#x3e;" 
d="M625 440v-180l-550 -220v155l375 150l-375 150v165z" />
    <glyph glyph-name="question" unicode="?" horiz-adv-x="576" 
d="M148 259v21q0 24 3.5 43t12.5 36.5t25 34t41 35.5q20 15 36 29t16 34q0 7 -3.5 15t-12.5 15t-26 11.5t-44 4.5q-38 0 -77.5 -8.5t-77.5 -25.5v171q33 11 90.5 24t134.5 13q95 0 149 -22t80.5 -51t33 -56.5t6.5 -38.5q0 -30 -10 -54t-24 -42.5t-31 -32.5t-30 -24
q-18 -12 -35 -25t-30 -28t-20.5 -34.5t-6.5 -44.5h-200zM357 187v-187h-218v187h218z" />
    <glyph glyph-name="at" unicode="@" horiz-adv-x="850" 
d="M348 62q-69 0 -105 48.5t-36 132.5q0 39 12.5 79.5t37 73.5t61 53.5t84.5 20.5q26 0 43.5 -7t28 -16.5t16 -20.5t8.5 -19h2l9 51h129l-43 -241q-4 -20 1 -28t19 -8q17 0 33.5 13t29 34.5t20.5 50t8 60.5q0 43 -15 83.5t-47 72t-82.5 50.5t-122.5 19q-73 0 -127 -22
t-90 -61.5t-54 -93.5t-18 -117q0 -65 17 -120t54 -95t95 -62t140 -22q44 0 86 9t99 29v-112q-31 -15 -79 -25.5t-100 -10.5q-109 0 -190.5 31t-136 85.5t-82 129.5t-27.5 163q0 85 28.5 159t82 128.5t129 85.5t170.5 31q97 0 169.5 -27.5t121 -74t73 -107t24.5 -126.5
q0 -75 -20.5 -127.5t-55.5 -85.5t-81.5 -48.5t-99.5 -15.5q-32 0 -61 15.5t-37 50.5q-17 -23 -35 -36t-34.5 -19.5t-30 -8.5t-21.5 -2zM448 356q-18 0 -30 -16.5t-19.5 -39.5t-11 -46.5t-3.5 -36.5q0 -24 9.5 -32t20.5 -8q18 0 30 15.5t20 37t11.5 44t3.5 35.5q0 26 -8 36.5
t-23 10.5z" />
    <glyph glyph-name="A" unicode="A" horiz-adv-x="825" 
d="M591 700l249 -700h-282l-48 151h-210l-47 -151h-268l245 700h361zM403 534l-72 -219h149l-73 219h-4z" />
    <glyph glyph-name="B" unicode="B" horiz-adv-x="782" 
d="M471 700q82 0 133 -19.5t79 -47.5t37.5 -59.5t9.5 -55.5q0 -60 -38 -104.5t-104 -56.5v-4q26 -4 54 -15t51 -30.5t38 -49.5t15 -71q0 -44 -15 -75t-40 -52t-56 -33t-63.5 -18t-62.5 -7.5t-52 -1.5h-407v700h421zM304 423h63q34 0 54.5 8t30.5 18.5t13 22t3 19.5
q0 11 -4.5 23t-15.5 21.5t-29 16t-46 6.5h-69v-135zM304 142h68q32 0 52 7.5t30.5 19t14 24t3.5 21.5q0 27 -13.5 41t-31 21t-35 8t-26.5 1h-62v-143z" />
    <glyph glyph-name="C" unicode="C" horiz-adv-x="654" 
d="M634 16q-61 -17 -109.5 -22.5t-86.5 -5.5q-102 0 -180 27t-131 75t-80 114.5t-27 145.5q0 67 22.5 132t73 116t131.5 82.5t198 31.5q60 0 103.5 -7t67.5 -12l16 -3v-185q-29 11 -64.5 19t-76.5 8q-43 0 -78 -13.5t-59.5 -37t-38 -55.5t-13.5 -70q0 -24 6.5 -55.5
t27.5 -59.5t59 -47t101 -19q20 0 52 5t86 22v-186z" />
    <glyph glyph-name="D" unicode="D" horiz-adv-x="816" 
d="M434 700q106 0 174.5 -33.5t108 -85.5t54.5 -114t15 -120q0 -52 -14 -113t-52.5 -113t-107 -86.5t-178.5 -34.5h-384v700h384zM318 175h54q22 0 45.5 5.5t43 23.5t31.5 53t12 94q0 61 -11.5 97t-30 55.5t-42.5 25.5t-48 6h-54v-360z" />
    <glyph glyph-name="E" unicode="E" 
d="M661 700v-165h-343v-101h328v-160h-328v-109h350v-165h-618v700h611z" />
    <glyph glyph-name="F" unicode="F" horiz-adv-x="679" 
d="M649 700v-168h-331v-114h321v-168h-321v-250h-268v700h599z" />
    <glyph glyph-name="G" unicode="G" horiz-adv-x="783" 
d="M733 26q-56 -17 -126 -27.5t-164 -10.5q-88 0 -153.5 17t-112.5 45.5t-77.5 66t-48 78.5t-24.5 82t-7 78q0 15 3 47.5t17 72t42 81.5t77.5 76.5t124 57t181.5 22.5q47 0 107.5 -5.5t132.5 -20.5v-189q-21 11 -67 26t-118 15q-50 0 -91 -13.5t-70 -39.5t-45 -64.5
t-16 -89.5q0 -47 13.5 -79t36 -52t50 -29t56.5 -9q18 0 30 2t18 4v167h231v-309z" />
    <glyph glyph-name="H" unicode="H" horiz-adv-x="815" 
d="M497 700h268v-700h-268v258h-179v-258h-268v700h268v-242h179v242z" />
    <glyph glyph-name="I" unicode="I" horiz-adv-x="378" 
d="M323 700v-700h-268v700h268z" />
    <glyph glyph-name="J" unicode="J" horiz-adv-x="482" 
d="M432 700v-479q0 -56 -15.5 -95.5t-40.5 -65t-55 -40t-58.5 -22t-52.5 -9t-36 -1.5q-29 0 -69.5 4.5t-100.5 20.5v190q28 -10 48 -11.5t26 -1.5q8 0 22.5 2t28.5 11.5t24.5 28.5t10.5 52v416h268z" />
    <glyph glyph-name="K" unicode="K" horiz-adv-x="809" 
d="M318 425h4l165 275h305l-236 -328l258 -372h-320l-172 297h-4v-297h-268v700h268v-275z" />
    <glyph glyph-name="L" unicode="L" horiz-adv-x="660" 
d="M50 700h268v-500h330v-200h-598v700z" />
    <glyph glyph-name="M" unicode="M" horiz-adv-x="980" 
d="M50 700h342l103 -320l103 320h332v-700h-240v430h-4l-91 -260h-210l-91 260h-4v-430h-240v700z" />
    <glyph glyph-name="N" unicode="N" horiz-adv-x="864" 
d="M50 700h399l130 -483h4v483h231v-700h-395l-134 497h-4v-497h-231v700z" />
    <glyph glyph-name="O" unicode="O" horiz-adv-x="820" 
d="M410 712q93 0 165.5 -25t122.5 -72t76 -114t26 -151t-26 -151t-76 -114t-122.5 -72t-165.5 -25t-165.5 25t-122.5 72t-76 114t-26 151t26 151t76 114t122.5 72t165.5 25zM410 544q-38 0 -59.5 -20t-32.5 -49.5t-13.5 -63.5t-2.5 -61t2.5 -61t13.5 -63.5t32.5 -49.5
t59.5 -20t59.5 20t32.5 49.5t13.5 63.5t2.5 61t-2.5 61t-13.5 63.5t-32.5 49.5t-59.5 20z" />
    <glyph glyph-name="P" unicode="P" horiz-adv-x="792" 
d="M460 700q79 0 136.5 -21t94.5 -56.5t54.5 -80.5t17.5 -93q0 -42 -16 -86t-51.5 -79.5t-92 -58.5t-138.5 -23h-147v-202h-268v700h410zM311 364h59q12 0 32.5 1.5t41 10t35 26t14.5 49.5q0 15 -5 30.5t-18.5 28t-38 20.5t-62.5 8h-58v-174z" />
    <glyph glyph-name="Q" unicode="Q" horiz-adv-x="820" 
d="M399 -12q-70 -2 -138 18t-121.5 64t-86.5 113t-33 167q0 84 26 151t76 114t122.5 72t165.5 25q92 0 164.5 -25t122.5 -72t76.5 -114t26.5 -151q0 -63 -13.5 -111.5t-36 -86t-52 -64.5t-60.5 -45l152 -184h-292zM410 544q-38 0 -59.5 -20t-32.5 -49.5t-13.5 -63.5
t-2.5 -61t2.5 -61t13.5 -63.5t32.5 -49.5t59.5 -20t59.5 20t32.5 49.5t13.5 63.5t2.5 61t-2.5 61t-13.5 63.5t-32.5 49.5t-59.5 20z" />
    <glyph glyph-name="R" unicode="R" horiz-adv-x="788" 
d="M50 700h410q72 0 126 -17.5t91 -49t55.5 -74.5t18.5 -94q0 -58 -28 -106t-83 -79l131 -280h-281l-89 240h-83v-240h-268v700zM483 465q0 36 -23.5 54.5t-87.5 18.5h-66v-146h66q64 0 87.5 18.5t23.5 54.5z" />
    <glyph glyph-name="S" unicode="S" horiz-adv-x="689" 
d="M618 508q-34 13 -84.5 24.5t-123.5 11.5q-20 0 -40.5 -1t-37 -5.5t-27 -14t-10.5 -26.5q0 -12 7.5 -20.5t19.5 -13.5t27.5 -8.5t32.5 -6.5q46 -9 96 -20.5t91.5 -35t68 -63.5t26.5 -106q0 -30 -10.5 -70t-46 -77t-103 -62.5t-182.5 -25.5q-53 0 -129 6t-160 27v182
q76 -30 137 -38.5t104 -8.5q18 0 39 1.5t39 7t30 15t12 25.5t-10.5 25.5t-27 15.5t-37 9.5t-39.5 7.5q-38 8 -82.5 19.5t-83 35t-64 63t-25.5 104.5q0 37 14.5 77t54.5 73.5t110.5 55t181.5 21.5q55 0 112 -5t120 -19v-180z" />
    <glyph glyph-name="T" unicode="T" horiz-adv-x="760" 
d="M750 700v-207h-236v-493h-268v493h-236v207h740z" />
    <glyph glyph-name="U" unicode="U" horiz-adv-x="832" 
d="M333 700v-415q0 -16 2.5 -36t10.5 -38t24.5 -30.5t45.5 -12.5q28 0 45 12.5t25 30.5t10.5 38t2.5 36v415h268v-425q0 -69 -20 -117t-52.5 -80t-72 -50t-78.5 -27t-73 -11t-55 -2t-55 2t-73 11t-78.5 27t-72 50t-52.5 80t-20 117v425h268z" />
    <glyph glyph-name="V" unicode="V" horiz-adv-x="798" 
d="M-14 700h288l129 -419h4l130 419h275l-259 -700h-317z" />
    <glyph glyph-name="W" unicode="W" horiz-adv-x="1111" 
d="M319 252h4l111 446h257l108 -446h4l85 446h239l-168 -698h-288l-116 456h-4l-110 -456h-294l-163 698h251z" />
    <glyph glyph-name="X" unicode="X" horiz-adv-x="835" 
d="M19 700h310l101 -207h4l111 207h283l-234 -341l252 -359h-312l-128 237h-4l-121 -237h-292l248 359z" />
    <glyph glyph-name="Y" unicode="Y" horiz-adv-x="761" 
d="M513 215v-215h-268v215l-260 485h292l108 -293h4l109 293h278z" />
    <glyph glyph-name="Z" unicode="Z" horiz-adv-x="687" 
d="M656 700v-213l-332 -300h343v-187h-647v213l343 307h-331v180h624z" />
    <glyph glyph-name="bracketleft" unicode="[" horiz-adv-x="389" 
d="M357 758v-144h-132v-610h132v-144h-324v898h324z" />
    <glyph glyph-name="backslash" unicode="\" horiz-adv-x="350" 
d="M-50 700h178l272 -700h-178z" />
    <glyph glyph-name="bracketright" unicode="]" horiz-adv-x="389" 
d="M356 -140h-324v144h132v610h-132v144h324v-898z" />
    <glyph glyph-name="asciicircum" unicode="^" 
d="M275 700h150l225 -450h-150l-150 300l-150 -300h-150z" />
    <glyph glyph-name="underscore" unicode="_" horiz-adv-x="500" 
d="M0 -75h500v-50h-500v50z" />
    <glyph glyph-name="grave" unicode="`" horiz-adv-x="278" 
d="M153 754l100 -164h-140l-196 164h236z" />
    <glyph glyph-name="a" unicode="a" horiz-adv-x="650" 
d="M384 64h-4q-19 -25 -42 -40t-47 -23t-48 -10.5t-45 -2.5q-47 0 -81.5 12.5t-57 33.5t-33.5 49.5t-11 61.5q0 67 33.5 104.5t84 54.5t108.5 20.5t108 3.5h35v16q0 21 -12 33.5t-30 19t-39.5 9t-40.5 2.5q-2 0 -17.5 -1t-40.5 -5t-57.5 -12t-67.5 -23v137q60 16 125.5 24
t121.5 8q52 0 104 -9.5t92.5 -32.5t66 -62t25.5 -98v-334h-230v64zM371 228q-14 0 -33.5 -0.5t-38 -6t-31.5 -18.5t-13 -38q0 -22 16.5 -36t42.5 -14t48 19.5t22 64.5v29h-13z" />
    <glyph glyph-name="b" unicode="b" horiz-adv-x="711" 
d="M302 754v-297q28 40 68.5 59.5t91.5 19.5q42 0 83 -14t73.5 -45.5t52.5 -82t20 -123.5q0 -86 -22.5 -140.5t-57.5 -86.5t-76.5 -44t-80.5 -12q-57 0 -99.5 26t-66.5 75h-4v-89h-234v754h252zM358 158q21 0 33.5 11.5t19 29t8.5 36.5t2 34t-2 34t-8.5 36.5t-19 29
t-33.5 11.5t-33.5 -11.5t-19 -29t-8.5 -36.5t-2 -34t2 -34t8.5 -36.5t19 -29t33.5 -11.5z" />
    <glyph glyph-name="c" unicode="c" horiz-adv-x="559" 
d="M532 14q-54 -17 -100.5 -21.5t-88.5 -4.5q-84 0 -145 22t-100.5 60t-59 88.5t-19.5 106.5q0 43 14 91t50.5 88t98.5 66t158 26q38 0 85.5 -5t102.5 -19v-150q-36 15 -63 19.5t-45 4.5q-57 0 -94 -32.5t-37 -92.5q0 -54 34.5 -88.5t95.5 -34.5q17 0 45 4.5t68 22.5v-151z
" />
    <glyph glyph-name="d" unicode="d" horiz-adv-x="711" 
d="M427 89h-4q-24 -49 -66.5 -75t-99.5 -26q-39 0 -80.5 12t-76.5 44t-57.5 86.5t-22.5 140.5q0 73 20 123.5t52.5 82t73.5 45.5t83 14q51 0 91.5 -19.5t68.5 -59.5v297h252v-754h-234v89zM353 158q21 0 33.5 11.5t19 29t8.5 36.5t2 34t-2 34t-8.5 36.5t-19 29t-33.5 11.5
t-33.5 -11.5t-19 -29t-8.5 -36.5t-2 -34t2 -34t8.5 -36.5t19 -29t33.5 -11.5z" />
    <glyph glyph-name="e" unicode="e" horiz-adv-x="633" 
d="M266 201q1 -14 6.5 -28.5t19.5 -26.5t38.5 -20t63.5 -8q48 0 92 9.5t92 26.5v-136q-64 -17 -123 -23.5t-113 -6.5q-103 0 -166.5 28.5t-99 71.5t-47.5 92.5t-12 90.5q0 61 22.5 110.5t62.5 83.5t96 52.5t122 18.5q48 0 100 -12t95.5 -44t72 -88.5t28.5 -145.5v-45h-350z
M396 308v9q0 28 -6 46.5t-16 29t-21.5 14.5t-21.5 4q-7 0 -18 -2.5t-21.5 -12t-18 -28t-7.5 -50.5v-10h130z" />
    <glyph glyph-name="f" unicode="f" horiz-adv-x="463" 
d="M97 374h-92v150h92v44q0 21 5.5 54.5t27.5 65.5t66.5 55t122.5 23q60 0 97.5 -7t51.5 -11v-139q-13 4 -26 5.5t-24 1.5q-25 0 -39 -9t-20.5 -20t-8 -21.5t-1.5 -14.5v-27h107v-150h-107v-374h-252v374z" />
    <glyph glyph-name="g" unicode="g" horiz-adv-x="713" 
d="M56 -27q48 -28 99 -41t99 -13q57 0 90 16t49.5 38.5t21 48t4.5 44.5v21q-31 -42 -75.5 -64.5t-98.5 -22.5q-42 0 -82.5 14t-72 45t-50.5 80.5t-19 120.5q0 68 17.5 119.5t48 86.5t71.5 52.5t89 17.5q26 0 53 -6t50.5 -19t42 -33.5t28.5 -50.5h4v97h238v-448q0 -28 -3 -62
t-14 -68t-32.5 -66t-58.5 -56.5t-92.5 -39.5t-133.5 -15q-105 0 -171.5 12t-101.5 23v169zM355 376q-20 0 -32.5 -8.5t-19.5 -23.5t-9.5 -34.5t-2.5 -41.5t2.5 -41.5t9.5 -34.5t19.5 -23.5t32.5 -8.5t32.5 8.5t19.5 23.5t9.5 34.5t2.5 41.5t-2.5 41.5t-9.5 34.5t-19.5 23.5
t-32.5 8.5z" />
    <glyph glyph-name="h" unicode="h" horiz-adv-x="694" 
d="M302 458q19 26 41 41.5t44 23.5t41 10.5t33 2.5q39 0 72.5 -10.5t58 -31.5t38.5 -53.5t14 -76.5v-364h-252v302q0 11 -0.5 23.5t-4.5 23t-13.5 17.5t-26.5 7t-26.5 -7t-13.5 -17.5t-4.5 -23t-0.5 -23.5v-302h-252v754h252v-296z" />
    <glyph glyph-name="i" unicode="i" horiz-adv-x="352" 
d="M50 524h252v-524h-252v524zM302 754v-164h-252v164h252z" />
    <glyph glyph-name="j" unicode="j" horiz-adv-x="353" 
d="M303 524v-556q0 -10 -1 -28.5t-7 -40.5t-18 -45t-33 -42t-54 -31t-80 -12q-29 0 -70.5 3.5t-83.5 12.5v153q11 -4 22 -5.5t19 -1.5q21 0 32 7.5t16 18t5.5 21.5t0.5 18v528h252zM303 754v-164h-252v164h252z" />
    <glyph glyph-name="k" unicode="k" horiz-adv-x="742" 
d="M302 316h4l143 208h285l-177 -231l184 -293h-294l-141 254h-4v-254h-252v754h252v-438z" />
    <glyph glyph-name="l" unicode="l" horiz-adv-x="352" 
d="M302 754v-754h-252v754h252z" />
    <glyph glyph-name="m" unicode="m" horiz-adv-x="1034" 
d="M288 433h4q16 36 38.5 56.5t47.5 31t48.5 13t40.5 2.5q19 0 41.5 -2.5t44.5 -11t42.5 -24t35.5 -42.5q10 15 24 29.5t33.5 26t46 18t61.5 6.5q69 0 107 -22.5t56 -56t21.5 -72t3.5 -71.5v-314h-252v302q0 10 -0.5 22.5t-4.5 23.5t-13.5 18t-26.5 7t-26 -7t-13 -17.5
t-4.5 -23t-0.5 -23.5v-302h-252v302q0 11 -0.5 23.5t-4.5 23t-13 17.5t-26 7t-26.5 -7t-13.5 -18t-4.5 -23.5t-0.5 -22.5v-302h-252v524h238v-91z" />
    <glyph glyph-name="n" unicode="n" horiz-adv-x="693" 
d="M288 433h4q13 33 34 53.5t44.5 31.5t47.5 14.5t43 3.5q66 0 103 -21.5t54.5 -50t21 -57t3.5 -43.5v-364h-252v302q0 11 -0.5 23.5t-4.5 23t-13 17.5t-26 7t-26.5 -7t-13.5 -18t-4.5 -23.5t-0.5 -22.5v-302h-252v524h238v-91z" />
    <glyph glyph-name="o" unicode="o" horiz-adv-x="690" 
d="M345 536q75 0 135 -19t102 -54t65 -86t23 -115t-23 -115t-65 -86t-102 -54t-135 -19t-135 19t-102 54t-65 86t-23 115t23 115t65 86t102 54t135 19zM345 386q-20 0 -31.5 -12t-16.5 -30t-6 -40t-1 -42t1 -42t6 -40t16.5 -30t31.5 -12t31 12t16.5 30t6.5 40t1 42t-1 42
t-6.5 40t-16.5 30t-31 12z" />
    <glyph glyph-name="p" unicode="p" horiz-adv-x="711" 
d="M284 435h4q24 49 66.5 75t99.5 26q39 0 80.5 -12t76.5 -44t57.5 -87t22.5 -140q0 -73 -20 -123.5t-52.5 -82t-73.5 -45.5t-83 -14q-51 0 -91.5 19.5t-68.5 59.5v-286h-252v743h234v-89zM358 366q-21 0 -33.5 -11.5t-19 -29t-8.5 -36.5t-2 -34t2 -34t8.5 -36.5t19 -29
t33.5 -11.5t33.5 11.5t19 29t8.5 36.5t2 34t-2 34t-8.5 36.5t-19 29t-33.5 11.5z" />
    <glyph glyph-name="q" unicode="q" horiz-adv-x="711" 
d="M661 524v-743h-252v286q-28 -40 -68.5 -59.5t-91.5 -19.5q-42 0 -83 14t-73.5 45.5t-52.5 82t-20 123.5q0 85 22.5 140t57.5 87t76.5 44t80.5 12q57 0 99.5 -26t66.5 -75h4v89h234zM353 366q-21 0 -33.5 -11.5t-19 -29t-8.5 -36.5t-2 -34t2 -34t8.5 -36.5t19 -29
t33.5 -11.5t33.5 11.5t19 29t8.5 36.5t2 34t-2 34t-8.5 36.5t-19 29t-33.5 11.5z" />
    <glyph glyph-name="r" unicode="r" horiz-adv-x="501" 
d="M286 524v-119h4q7 25 21 48.5t34 42t45.5 29.5t57.5 11q19 0 41 -5v-210q-12 3 -25 5.5t-27 2.5q-28 0 -52.5 -9t-43 -26.5t-29 -43.5t-10.5 -60v-190h-252v524h236z" />
    <glyph glyph-name="s" unicode="s" horiz-adv-x="568" 
d="M37 162q33 -14 81.5 -28t104.5 -14q49 0 70.5 9.5t21.5 25.5q0 13 -10 19.5t-24 9.5t-30.5 4.5t-28.5 3.5q-41 7 -78 17.5t-65 29t-45 47t-17 72.5q0 36 14 68t48.5 56.5t92 39t144.5 14.5q36 0 82 -4t107 -18v-138q-42 14 -84 21t-81 7q-14 0 -29.5 -1t-28 -4.5
t-21 -10.5t-8.5 -19q0 -16 19.5 -22t61.5 -10q34 -3 72 -10t70 -24t53.5 -47t21.5 -80q0 -25 -10.5 -57.5t-43 -61.5t-91.5 -49t-156 -20q-32 0 -89 5.5t-124 24.5v144z" />
    <glyph glyph-name="t" unicode="t" horiz-adv-x="463" 
d="M89 524v128l252 75v-203h114v-150h-114v-149q0 -6 1 -17.5t6.5 -23t17 -20t33.5 -8.5q11 0 22.5 2t33.5 8v-151q-20 -8 -58.5 -17.5t-98.5 -9.5q-70 0 -111.5 19t-63 48.5t-28 65.5t-6.5 71v182h-89v150h89z" />
    <glyph glyph-name="u" unicode="u" horiz-adv-x="693" 
d="M643 0h-238v90h-2q-7 -15 -18.5 -33t-31.5 -33.5t-49 -25.5t-71 -10q-67 0 -104 21.5t-54.5 50t-21 57t-3.5 42.5v365h252v-303q0 -11 0.5 -23.5t4.5 -23t13 -17.5t26 -7t26.5 7t13.5 18t4.5 23t0.5 23v303h252v-524z" />
    <glyph glyph-name="v" unicode="v" horiz-adv-x="632" 
d="M255 524l66 -345h2l66 345h246l-159 -524h-323l-156 524h258z" />
    <glyph glyph-name="w" unicode="w" horiz-adv-x="1001" 
d="M301 180h4l53 344h303l57 -344h4l55 344h230l-127 -524h-314l-61 353h-4l-63 -353h-316l-128 524h247z" />
    <glyph glyph-name="x" unicode="x" horiz-adv-x="671" 
d="M267 524l69 -163h4l67 163h249l-146 -238l173 -286h-269l-81 176h-4l-82 -176h-259l172 282l-160 242h267z" />
    <glyph glyph-name="y" unicode="y" horiz-adv-x="625" 
d="M248 524l72 -330h3l63 330h247l-177 -545q-14 -43 -34.5 -81t-52 -66.5t-76.5 -45.5t-107 -17q-35 0 -78.5 5t-84.5 15v146q17 -5 37.5 -7.5t39.5 -2.5q22 0 36 5t22.5 12.5t12 15t5.5 12.5l5 17l-194 537h261z" />
    <glyph glyph-name="z" unicode="z" horiz-adv-x="613" 
d="M322 154v-4h256v-150h-543v214l263 156v4h-254v150h527v-209z" />
    <glyph glyph-name="braceleft" unicode="{" horiz-adv-x="370" 
d="M354 648h-15q-22 0 -33.5 -6.5t-17 -16.5t-6.5 -20.5t-1 -17.5v-177q0 -32 -14 -51t-32.5 -29.5t-38 -14.5t-31.5 -5v-2q12 -1 31.5 -5t38 -14.5t32.5 -30t14 -50.5v-177q0 -8 1 -18t6.5 -20t17 -16.5t33.5 -6.5h15v-110h-132q-26 0 -50 10.5t-42.5 29t-29.5 44t-11 54.5
v189q0 22 -8 34.5t-19.5 19t-24 8.5t-21.5 2v116q27 1 42 9t21.5 18.5t8 20.5t1.5 16v189q0 29 11 54.5t29.5 44t42.5 29t50 10.5h132v-110z" />
    <glyph glyph-name="bar" unicode="|" horiz-adv-x="228" 
d="M30 758h168v-898h-168v898z" />
    <glyph glyph-name="braceright" unicode="}" horiz-adv-x="370" 
d="M16 758h132q26 0 50 -10.5t42.5 -29t29.5 -44t11 -54.5v-189q0 -22 8 -34.5t19.5 -19t24 -8.5t21.5 -2v-116q-27 -1 -42 -9t-21.5 -18.5t-8 -20.5t-1.5 -16v-189q0 -29 -11 -54.5t-29.5 -44t-42.5 -29t-50 -10.5h-132v110h15q22 0 33.5 6.5t17 16.5t6.5 20t1 18v177
q0 31 14 50.5t32.5 30t38 14.5t31.5 5v2q-12 1 -31.5 5t-38 14.5t-32.5 29.5t-14 51v177q0 7 -1 17.5t-6.5 20.5t-17 16.5t-33.5 6.5h-15v110z" />
    <glyph glyph-name="asciitilde" unicode="~" 
d="M475 225q-39 0 -73 14.5t-65 32.5t-59 32.5t-53 14.5q-42 0 -66.5 -18t-43.5 -51l-50 120q23 45 61.5 75t98.5 30q39 0 72.5 -14.5t64 -32.5t58.5 -32.5t55 -14.5q42 0 66.5 18t43.5 51l50 -120q-23 -45 -61.5 -75t-98.5 -30z" />
    <glyph glyph-name="uni00A0" unicode="&#xa0;" horiz-adv-x="233" 
 />
    <glyph glyph-name="exclamdown" unicode="&#xa1;" horiz-adv-x="426" 
d="M79.042 -218.914l38.9951 440.945h189.978l38.9951 -440.945h-267.968zM104.039 294.022v186.978h217.974v-186.978h-217.974z" />
    <glyph glyph-name="cent" unicode="&#xa2;" 
d="M355 -8q-58 6 -105 25t-80.5 52.5t-51.5 82.5t-18 115q0 64 18.5 112.5t52 82t80.5 51.5t104 21v90h120v-87q48 -2 79 -8t52 -13v-156q-38 17 -64.5 22t-46.5 5q-53 0 -89 -28.5t-36 -90.5q0 -63 34 -97t91 -34q35 0 63.5 9.5t51.5 23.5v-157q-48 -14 -79.5 -18.5
t-55.5 -5.5v-89h-120v92z" />
    <glyph glyph-name="sterling" unicode="&#xa3;" 
d="M551 425v-144h-154v-125h239v-156h-566v156h84v125h-84v144h84v50q0 63 22.5 108t61.5 73.5t91.5 42t112.5 13.5q42 0 88 -4.5t105 -17.5v-154q-45 13 -75 16.5t-54 3.5q-47 0 -78 -22.5t-31 -71.5v-37h154z" />
    <glyph glyph-name="currency" unicode="&#xa4;" 
d="M90 151l53 53q-30 42 -39 79.5t-9 66.5t9 66.5t39 79.5l-53 51l61 61l53 -51q20 14 56 30t90 16q28 0 65.5 -8.5t80.5 -37.5l53 53l61 -61l-53 -53q30 -42 39 -79.5t9 -66.5q0 -26 -8.5 -64.5t-40.5 -80.5l54 -54l-61 -61l-54 54q-36 -27 -74 -37t-71 -10q-26 0 -65 8.5
t-81 37.5l-53 -53zM350 235q24 0 43.5 9t33 25t21 36.5t7.5 44.5t-7.5 44.5t-21 36.5t-33 25t-43.5 9t-43.5 -9t-33 -25t-21 -36.5t-7.5 -44.5t7.5 -44.5t21 -36.5t33 -25t43.5 -9z" />
    <glyph glyph-name="yen" unicode="&#xa5;" 
d="M243 700l106 -272h2l106 272h252l-172 -332h97v-104h-151l-15 -30v-36h166v-104h-166v-94h-252v94h-160v104h160v36l-14 30h-146v104h97l-162 332h252z" />
    <glyph glyph-name="brokenbar" unicode="&#xa6;" horiz-adv-x="228" 
d="M30 220h168v-360h-168v360zM30 758h168v-360h-168v360z" />
    <glyph glyph-name="section" unicode="&#xa7;" horiz-adv-x="632" 
d="M528 542q-33 8 -57.5 13t-43.5 7.5t-34.5 3.5t-30.5 1q-9 0 -21 -0.5t-23 -4t-18.5 -12t-7.5 -23.5q0 -12 7.5 -20t20.5 -13.5t30.5 -10.5t38.5 -12q34 -12 72 -26t69.5 -35.5t52 -54.5t20.5 -83q0 -30 -10 -52.5t-24.5 -39.5t-30.5 -28t-28 -17q11 -8 23 -19.5
t21.5 -26.5t15.5 -33t6 -39q0 -26 -8.5 -58.5t-38 -61.5t-85.5 -48.5t-151 -19.5q-61 0 -115.5 8t-114.5 22v147q29 -9 53 -15t45 -9.5t40.5 -5.5t39.5 -2q16 0 34.5 0.5t34 4t25.5 11t10 21.5q0 13 -10 22.5t-26.5 17.5t-38.5 15t-47 16q-34 12 -68.5 26.5t-62.5 36.5
t-45.5 53.5t-17.5 77.5q0 47 27 85.5t78 56.5q-38 18 -55.5 49t-17.5 69q0 28 10 59t37.5 57t75.5 43t125 17q75 0 129.5 -8t89.5 -18v-144zM389 194q12 11 19.5 24.5t7.5 25.5q0 19 -12 33.5t-31 26t-41.5 20t-43.5 17.5l-37 15q-24 -15 -29 -29t-5 -21q0 -23 14.5 -39
t36 -28t46.5 -20.5t47 -15.5z" />
    <glyph glyph-name="dieresis" unicode="&#xa8;" horiz-adv-x="544" 
d="M230 754v-154h-180v154h180zM494 754v-154h-180v154h180z" />
    <glyph glyph-name="copyright" unicode="&#xa9;" horiz-adv-x="842" 
d="M421 -12q-78 0 -147.5 28t-121.5 77t-82 115t-30 141t30 141t82 115t121.5 77t147.5 28t147.5 -28t121.5 -77t82 -115t30 -141t-30 -141t-82 -115t-121.5 -77t-147.5 -28zM550 166q-27 -8 -58.5 -13.5t-60.5 -5.5q-51 0 -89 16t-63.5 43.5t-38.5 66t-13 83.5
q0 44 14 79.5t40.5 61t64.5 39.5t85 14q26 0 56 -4t60 -12v-114q-19 11 -39 15t-33 4q-14 0 -27.5 -3.5t-25 -13t-18.5 -26.5t-7 -43q0 -31 9 -50t21.5 -29t25.5 -13t22 -3q18 0 38 6t37 17v-115zM179 349q0 -50 19 -94t52 -77t77 -52t94 -19t94 19t77 52t52 77t19 94
t-19 94t-52 77t-77 52t-94 19t-94 -19t-77 -52t-52 -77t-19 -94z" />
    <glyph glyph-name="ordfeminine" unicode="&#xaa;" horiz-adv-x="421" 
d="M56 691q23 8 57 14.5t94 6.5q32 0 68 -4.5t66 -19t49.5 -42t19.5 -73.5v-183h-156v36h-2q-6 -6 -15.5 -13.5t-24 -14.5t-34.5 -11.5t-46 -4.5q-32 0 -55 8.5t-37.5 22.5t-21.5 31t-7 34q0 13 5 31.5t22.5 35t51.5 28t92 11.5q13 0 29 -0.5t43 -2.5q-2 21 -19 34t-66 13
q-38 0 -66 -7.5t-47 -16.5v87zM254 524h-15q-29 0 -50.5 -6t-21.5 -31q0 -13 10 -21t27 -8q22 0 36 16t14 39v11z" />
    <glyph glyph-name="guillemotleft" unicode="&#xab;" horiz-adv-x="650" 
d="M25 300l113 216h193l-90 -216l91 -216h-193zM297 300l113 216h193l-90 -216l91 -216h-193z" />
    <glyph glyph-name="logicalnot" unicode="&#xac;" 
d="M465 269h-390v162h550v-270h-160v108z" />
    <glyph glyph-name="uni00AD" unicode="&#xad;" horiz-adv-x="400" 
d="M20 380h360v-160h-360v160z" />
    <glyph glyph-name="registered" unicode="&#xae;" horiz-adv-x="842" 
d="M421 -12q-79 0 -148.5 28.5t-121.5 77.5t-82 115t-30 141t30 141t82 115t121.5 77.5t148.5 28.5t148.5 -28.5t121.5 -77.5t82 -115t30 -141t-30 -141t-82 -115t-121.5 -77.5t-148.5 -28.5zM421 105q50 0 94.5 19.5t78 53t53 78t19.5 94.5t-19.5 94.5t-53 78t-78 53
t-94.5 19.5t-94.5 -19.5t-78 -53t-53 -78t-19.5 -94.5t19.5 -94.5t53 -78t78 -53t94.5 -19.5zM270 512h183q63 0 95.5 -29.5t32.5 -74.5q0 -55 -48 -83l58 -125h-125l-41 107h-36v-107h-119v312zM462 408q0 16 -10 24t-39 8h-29v-65h29q29 0 39 8t10 25z" />
    <glyph glyph-name="macron" unicode="&#xaf;" horiz-adv-x="514" 
d="M50 625v104h414v-104h-414z" />
    <glyph glyph-name="degree" unicode="&#xb0;" horiz-adv-x="404" 
d="M130 550q0 -29 21.5 -50.5t50.5 -21.5t50.5 21.5t21.5 50.5t-21.5 50.5t-50.5 21.5t-50.5 -21.5t-21.5 -50.5zM40 550q0 33 13 62.5t35 51.5t51.5 35t62.5 13t62.5 -13t51.5 -35t35 -51.5t13 -62.5t-13 -62.5t-35 -51.5t-51.5 -35t-62.5 -13t-62.5 13t-51.5 35t-35 51.5
t-13 62.5z" />
    <glyph glyph-name="plusminus" unicode="&#xb1;" 
d="M270 395h-195v160h195v125h160v-125h195v-160h-195v-125h-160v125zM75 240h550v-160h-550v160z" />
    <glyph glyph-name="twosuperior" unicode="&#xb2;" horiz-adv-x="395" 
d="M371 284h-361v123l13 6q23 11 55 25t64 35q21 14 40 30t19 39q0 6 -2.5 15t-10.5 16.5t-23.5 13t-41.5 5.5q-10 0 -35 -2.5t-67 -13.5v123q44 8 86 10.5t74 2.5q69 0 109 -16t60 -38.5t25.5 -46.5t5.5 -40q0 -23 -14.5 -53t-56.5 -61q-18 -13 -43 -27t-48 -24v-2h152
v-120z" />
    <glyph glyph-name="threesuperior" unicode="&#xb3;" horiz-adv-x="395" 
d="M18 699q22 5 57.5 9t97.5 4q25 0 59 -2.5t65.5 -14t53.5 -35t22 -66.5q0 -23 -8.5 -39.5t-22 -28t-29 -18t-30.5 -9.5v-2q41 -6 68.5 -30.5t27.5 -64.5q0 -16 -6 -37.5t-26 -40.5t-58.5 -32.5t-103.5 -13.5q-72 0 -112.5 6t-60.5 11v103q32 -11 60 -14.5t49 -3.5
q12 0 24.5 1t23 4t17.5 9.5t7 17.5q0 12 -14 22.5t-59 10.5q-23 0 -36.5 -1.5t-19.5 -3.5v97h5l32 -2h14q8 0 20 1.5t23.5 5t20 11t8.5 19.5q0 6 -2 12.5t-9 12t-20 9.5t-35 4q-17 0 -41.5 -3t-61.5 -14v106z" />
    <glyph glyph-name="acute" unicode="&#xb4;" horiz-adv-x="278" 
d="M361 754l-196 -164h-140l100 164h236z" />
    <glyph glyph-name="mu" unicode="&#xb5;" horiz-adv-x="685" 
d="M639 0h-238v90h-2q-11 -32 -36.5 -56.5t-64.5 -33.5v-222h-252v746h252v-303q0 -11 0.5 -23.5t4.5 -23t13 -17.5t26 -7t26.5 7t13.5 18t4.5 23t0.5 23v303h252v-524z" />
    <glyph glyph-name="paragraph" unicode="&#xb6;" horiz-adv-x="621" 
d="M240 350h-17q-39 0 -76 10.5t-65.5 31.5t-46 53.5t-17.5 76.5q0 63 27 99t65.5 53.5t81 21.5t73.5 4h316v-859h-138v755h-65v-755h-138v509z" />
    <glyph glyph-name="periodcentered" unicode="&#xb7;" horiz-adv-x="250" 
d="M16 397h218v-193h-218v193z" />
    <glyph glyph-name="cedilla" unicode="&#xb8;" horiz-adv-x="311" 
d="M105 0h83l-13 -55q19 1 38.5 -4t35 -16t25.5 -28.5t10 -42.5q0 -49 -39.5 -77t-103.5 -28q-47 0 -92 15l14 64q12 -5 26.5 -7.5t25.5 -2.5q25 0 38.5 11t13.5 28q0 15 -7 23t-17 12t-21.5 5t-21.5 1h-16z" />
    <glyph glyph-name="onesuperior" unicode="&#xb9;" horiz-adv-x="395" 
d="M152 550l-100 -72l-50 121l171 107h159v-422h-180v266z" />
    <glyph glyph-name="ordmasculine" unicode="&#xba;" horiz-adv-x="445" 
d="M7 547q0 60 27 93.5t63.5 49t72.5 19t54 3.5q11 0 31.5 -1t44.5 -6t48.5 -15.5t44.5 -28.5t32.5 -46t12.5 -68t-12.5 -67.5t-32.5 -46t-44.5 -28.5t-48.5 -15.5t-45 -6.5t-33 -1q-69 0 -111 17t-65.5 41.5t-31 53.5t-7.5 53zM187 547q0 -9 0.5 -20t4 -20t10.5 -15t20 -6
q23 0 29.5 18t6.5 43q0 11 -1 22t-4.5 19.5t-11 14t-19.5 5.5q-14 0 -21.5 -6.5t-10.5 -16.5t-3 -20.5v-17.5z" />
    <glyph glyph-name="guillemotright" unicode="&#xbb;" horiz-adv-x="650" 
d="M136 300l-90 216h193l113 -216l-113 -216h-193zM408 300l-90 216h193l113 -216l-113 -216h-193z" />
    <glyph glyph-name="onequarter" unicode="&#xbc;" horiz-adv-x="1110" 
d="M152 550l-100 -72l-50 121l171 107h159v-422h-180v266zM723 700h142l-488 -700h-142zM830 75h-200v147l201 195h167v-238h72v-104h-72v-74h-168v74zM830 179v106h-2l-108 -106h110z" />
    <glyph glyph-name="onehalf" unicode="&#xbd;" horiz-adv-x="1110" 
d="M152 550l-100 -72l-50 121l171 107h159v-422h-180v266zM723 700h142l-488 -700h-142zM1051 1h-361v123l13 6q23 11 55 25t64 35q21 14 40 30t19 39q0 6 -2.5 15t-10.5 16.5t-23.5 13t-41.5 5.5q-10 0 -35 -2.5t-67 -13.5v123q44 8 86 10.5t74 2.5q69 0 109 -16t60 -38.5
t25.5 -46.5t5.5 -40q0 -23 -14.5 -53t-56.5 -61q-18 -13 -43 -27t-48 -24v-2h152v-120z" />
    <glyph glyph-name="threequarters" unicode="&#xbe;" horiz-adv-x="1110" 
d="M38 699q22 5 57.5 9t97.5 4q25 0 59 -2.5t65.5 -14t53.5 -35t22 -66.5q0 -23 -8.5 -39.5t-22 -28t-29 -18t-30.5 -9.5v-2q41 -6 68.5 -30.5t27.5 -64.5q0 -16 -6 -37.5t-26 -40.5t-58.5 -32.5t-103.5 -13.5q-72 0 -112.5 6t-60.5 11v103q32 -11 60 -14.5t49 -3.5
q12 0 24.5 1t23 4t17.5 9.5t7 17.5q0 12 -14 22.5t-59 10.5q-23 0 -36.5 -1.5t-19.5 -3.5v97h5l32 -2h14q8 0 20 1.5t23.5 5t20 11t8.5 19.5q0 6 -2 12.5t-9 12t-20 9.5t-35 4q-17 0 -41.5 -3t-61.5 -14v106zM723 700h142l-488 -700h-142zM830 75h-200v147l201 195h167v-238
h72v-104h-72v-74h-168v74zM830 179v106h-2l-108 -106h110z" />
    <glyph glyph-name="questiondown" unicode="&#xbf;" horiz-adv-x="576" 
d="M428.018 222.031v-20.9971q0 -23.9971 -3.49902 -42.9951q-3.5 -18.9971 -12.499 -36.4951q-8.99805 -17.498 -24.9961 -33.9961t-40.9951 -35.4951q-19.998 -14.998 -35.9961 -28.9971q-15.998 -13.998 -15.998 -33.9951q0 -7 3.5 -14.999
q3.49902 -7.99902 12.498 -14.998t25.9971 -11.498q16.998 -4.5 43.9941 -4.5q37.9961 0 77.4912 8.49902t77.4902 25.4971v-170.979q-32.9961 -10.998 -90.4893 -23.9971q-57.4922 -12.998 -134.483 -12.998q-94.9883 0 -148.981 21.9971q-53.9932 21.998 -80.4902 50.9941
t-32.9961 56.4932q-6.49902 27.4961 -6.49902 38.4951q0 29.9961 9.99902 53.9932q9.99805 23.9971 23.9971 42.4951q13.998 18.498 30.9961 32.4961t29.9961 23.9971q17.998 11.998 34.9961 24.9971q16.9971 12.998 29.9961 27.9961q12.998 14.998 20.4971 34.4961
t6.5 44.4941h199.975zM219.044 294.022v186.978h217.973v-186.978h-217.973z" />
    <glyph glyph-name="Agrave" unicode="&#xc0;" horiz-adv-x="825" 
d="M591 700l249 -700h-282l-48 151h-210l-47 -151h-268l245 700h361zM403 534l-72 -219h149l-73 219h-4zM550 740h-154l-216 156h260z" />
    <glyph glyph-name="Aacute" unicode="&#xc1;" horiz-adv-x="825" 
d="M591 700l249 -700h-282l-48 151h-210l-47 -151h-268l245 700h361zM403 534l-72 -219h149l-73 219h-4zM650 896l-216 -156h-154l110 156h260z" />
    <glyph glyph-name="Acircumflex" unicode="&#xc2;" horiz-adv-x="825" 
d="M591 700l249 -700h-282l-48 151h-210l-47 -151h-268l245 700h361zM403 534l-72 -219h149l-73 219h-4zM337 740h-160l125 156h220l125 -156h-160l-75 94z" />
    <glyph glyph-name="Atilde" unicode="&#xc3;" horiz-adv-x="825" 
d="M591 700l249 -700h-282l-48 151h-210l-47 -151h-268l245 700h361zM403 534l-72 -219h149l-73 219h-4zM192 747v16q0 33 10 59t27.5 44t41 27.5t50.5 9.5q23 0 42 -4.5t36 -9.5l29 -8q26 -7 39.5 -10.5t24.5 -3.5q20 0 31.5 10t13.5 26h95v-15q0 -29 -9 -54.5t-26 -44.5
t-43 -30.5t-59 -11.5q-23 0 -43.5 4.5t-35.5 9.5l-32 11q-9 3 -24.5 7.5t-28.5 4.5q-17 0 -29.5 -9.5t-14.5 -27.5h-95z" />
    <glyph glyph-name="Adieresis" unicode="&#xc4;" horiz-adv-x="825" 
d="M591 700l249 -700h-282l-48 151h-210l-47 -151h-268l245 700h361zM403 534l-72 -219h149l-73 219h-4zM370 896v-156h-180v156h180zM634 896v-156h-180v156h180z" />
    <glyph glyph-name="Aring" unicode="&#xc5;" horiz-adv-x="825" 
d="M591 700l249 -700h-282l-48 151h-210l-47 -151h-268l245 700h361zM403 534l-72 -219h149l-73 219h-4zM364 865q0 -20 14 -34t34 -14t34 14t14 34t-14 34t-34 14t-34 -14t-14 -34zM294 865q0 24 9.5 45.5t25.5 37.5t37.5 25.5t45.5 9.5t45.5 -9.5t37.5 -25.5t25.5 -37.5
t9.5 -45.5t-9.5 -45.5t-25.5 -37.5t-37.5 -25.5t-45.5 -9.5t-45.5 9.5t-37.5 25.5t-25.5 37.5t-9.5 45.5z" />
    <glyph glyph-name="AE" unicode="&#xc6;" horiz-adv-x="1078" 
d="M233 700h806v-165h-390l32 -101h339v-160h-290l33 -109h283v-165h-483l-43 151h-226l-45 -151h-264zM331 320h157l-75 224h-2z" />
    <glyph glyph-name="Ccedilla" unicode="&#xc7;" horiz-adv-x="655" 
d="M635 16q-54 -15 -101 -21t-95 -7h-17l-11 -51q51 0 79 -28.5t28 -69.5q0 -18 -7.5 -37t-24 -35t-44 -26t-67.5 -10q-24 0 -48 4t-50 13l17 74q12 -5 27 -8.5t26 -3.5q23 0 33.5 11t10.5 23q0 13 -7 20.5t-17 11t-20.5 4t-17.5 0.5h-22l26 117q-45 7 -99.5 27.5t-102 61.5
t-79.5 105t-32 159q0 67 22.5 132t73 116t132 82.5t198.5 31.5q60 0 103.5 -7t67.5 -12l16 -3v-185q-29 11 -64.5 19t-76.5 8q-39 0 -73.5 -11.5t-60.5 -33.5t-41 -55t-15 -76q0 -35 9.5 -67.5t32.5 -57.5t60 -40.5t93 -15.5q20 0 52 5t86 22v-186z" />
    <glyph glyph-name="Egrave" unicode="&#xc8;" 
d="M661 700v-165h-343v-101h328v-160h-328v-109h350v-165h-618v700h611zM482 740h-154l-216 156h260z" />
    <glyph glyph-name="Eacute" unicode="&#xc9;" 
d="M661 700v-165h-343v-101h328v-160h-328v-109h350v-165h-618v700h611zM600 896l-216 -156h-154l110 156h260z" />
    <glyph glyph-name="Ecircumflex" unicode="&#xca;" 
d="M661 700v-165h-343v-101h328v-160h-328v-109h350v-165h-618v700h611zM280 740h-160l125 156h220l125 -156h-160l-75 94z" />
    <glyph glyph-name="Edieresis" unicode="&#xcb;" 
d="M661 700v-165h-343v-101h328v-160h-328v-109h350v-165h-618v700h611zM308 896v-156h-180v156h180zM572 896v-156h-180v156h180z" />
    <glyph glyph-name="Igrave" unicode="&#xcc;" horiz-adv-x="378" 
d="M323 700v-700h-268v700h268zM326 740h-154l-216 156h260z" />
    <glyph glyph-name="Iacute" unicode="&#xcd;" horiz-adv-x="378" 
d="M323 700v-700h-268v700h268zM411 896l-216 -156h-154l110 156h260z" />
    <glyph glyph-name="Icircumflex" unicode="&#xce;" horiz-adv-x="378" 
d="M323 700v-700h-268v700h268zM115 740h-160l125 156h220l125 -156h-160l-75 94z" />
    <glyph glyph-name="Idieresis" unicode="&#xcf;" horiz-adv-x="424" 
d="M346 700v-700h-268v700h268zM186 896v-156h-160v156h160zM398 896v-156h-160v156h160z" />
    <glyph glyph-name="Eth" unicode="&#xd0;" horiz-adv-x="830" 
d="M448 700q106 0 174.5 -33.5t108 -85.5t54.5 -114t15 -120q0 -52 -14 -113t-52.5 -113t-107 -86.5t-178.5 -34.5h-384v305h-53v126h53v269h384zM332 431h89v-126h-89v-130h54q22 0 45.5 5.5t43 23.5t31.5 53t12 94q0 61 -11.5 97t-30 55.5t-42.5 25.5t-48 6h-54v-104z" />
    <glyph glyph-name="Ntilde" unicode="&#xd1;" horiz-adv-x="864" 
d="M50 700h399l130 -483h4v483h231v-700h-395l-134 497h-4v-497h-231v700zM245 747v16q0 33 10 59t27.5 44t41 27.5t50.5 9.5q23 0 42 -4.5t36 -9.5l29 -8q26 -7 39.5 -10.5t24.5 -3.5q20 0 31.5 10t13.5 26h95v-15q0 -29 -9 -54.5t-26 -44.5t-43 -30.5t-59 -11.5
q-23 0 -43.5 4.5t-35.5 9.5l-32 11q-9 3 -24.5 7.5t-28.5 4.5q-17 0 -29.5 -9.5t-14.5 -27.5h-95z" />
    <glyph glyph-name="Ograve" unicode="&#xd2;" horiz-adv-x="820" 
d="M410 712q93 0 165.5 -25t122.5 -72t76 -114t26 -151t-26 -151t-76 -114t-122.5 -72t-165.5 -25t-165.5 25t-122.5 72t-76 114t-26 151t26 151t76 114t122.5 72t165.5 25zM410 544q-38 0 -59.5 -20t-32.5 -49.5t-13.5 -63.5t-2.5 -61t2.5 -61t13.5 -63.5t32.5 -49.5
t59.5 -20t59.5 20t32.5 49.5t13.5 63.5t2.5 61t-2.5 61t-13.5 63.5t-32.5 49.5t-59.5 20zM545 740h-154l-216 156h260z" />
    <glyph glyph-name="Oacute" unicode="&#xd3;" horiz-adv-x="820" 
d="M410 712q93 0 165.5 -25t122.5 -72t76 -114t26 -151t-26 -151t-76 -114t-122.5 -72t-165.5 -25t-165.5 25t-122.5 72t-76 114t-26 151t26 151t76 114t122.5 72t165.5 25zM410 544q-38 0 -59.5 -20t-32.5 -49.5t-13.5 -63.5t-2.5 -61t2.5 -61t13.5 -63.5t32.5 -49.5
t59.5 -20t59.5 20t32.5 49.5t13.5 63.5t2.5 61t-2.5 61t-13.5 63.5t-32.5 49.5t-59.5 20zM656 896l-216 -156h-154l110 156h260z" />
    <glyph glyph-name="Ocircumflex" unicode="&#xd4;" horiz-adv-x="820" 
d="M410 712q93 0 165.5 -25t122.5 -72t76 -114t26 -151t-26 -151t-76 -114t-122.5 -72t-165.5 -25t-165.5 25t-122.5 72t-76 114t-26 151t26 151t76 114t122.5 72t165.5 25zM410 544q-38 0 -59.5 -20t-32.5 -49.5t-13.5 -63.5t-2.5 -61t2.5 -61t13.5 -63.5t32.5 -49.5
t59.5 -20t59.5 20t32.5 49.5t13.5 63.5t2.5 61t-2.5 61t-13.5 63.5t-32.5 49.5t-59.5 20zM335 740h-160l125 156h220l125 -156h-160l-75 94z" />
    <glyph glyph-name="Otilde" unicode="&#xd5;" horiz-adv-x="820" 
d="M410 712q93 0 165.5 -25t122.5 -72t76 -114t26 -151t-26 -151t-76 -114t-122.5 -72t-165.5 -25t-165.5 25t-122.5 72t-76 114t-26 151t26 151t76 114t122.5 72t165.5 25zM410 544q-38 0 -59.5 -20t-32.5 -49.5t-13.5 -63.5t-2.5 -61t2.5 -61t13.5 -63.5t32.5 -49.5
t59.5 -20t59.5 20t32.5 49.5t13.5 63.5t2.5 61t-2.5 61t-13.5 63.5t-32.5 49.5t-59.5 20zM190 747v16q0 33 10 59t27.5 44t41 27.5t50.5 9.5q23 0 42 -4.5t36 -9.5l29 -8q26 -7 39.5 -10.5t24.5 -3.5q20 0 31.5 10t13.5 26h95v-15q0 -29 -9 -54.5t-26 -44.5t-43 -30.5
t-59 -11.5q-23 0 -43.5 4.5t-35.5 9.5l-32 11q-9 3 -24.5 7.5t-28.5 4.5q-17 0 -29.5 -9.5t-14.5 -27.5h-95z" />
    <glyph glyph-name="Odieresis" unicode="&#xd6;" horiz-adv-x="820" 
d="M410 712q93 0 165.5 -25t122.5 -72t76 -114t26 -151t-26 -151t-76 -114t-122.5 -72t-165.5 -25t-165.5 25t-122.5 72t-76 114t-26 151t26 151t76 114t122.5 72t165.5 25zM410 544q-38 0 -59.5 -20t-32.5 -49.5t-13.5 -63.5t-2.5 -61t2.5 -61t13.5 -63.5t32.5 -49.5
t59.5 -20t59.5 20t32.5 49.5t13.5 63.5t2.5 61t-2.5 61t-13.5 63.5t-32.5 49.5t-59.5 20zM368 896v-156h-180v156h180zM632 896v-156h-180v156h180z" />
    <glyph glyph-name="multiply" unicode="&#xd7;" 
d="M212 100l-112 112l138 138l-138 138l112 112l138 -138l138 136l112 -112l-138 -136l138 -137l-112 -112l-138 137z" />
    <glyph glyph-name="Oslash" unicode="&#xd8;" horiz-adv-x="820" 
d="M472 517q-17 17 -32 22t-32 5q-36 0 -56.5 -16.5t-31.5 -44t-14.5 -62.5t-4.5 -72v-11q0 -5 0.5 -9.5t1.5 -19.5zM345 182q13 -16 31 -21t32 -5q19 0 39.5 7.5t37 28.5t26.5 58.5t7 98.5l-2 43zM790 730l-93 -115q16 -15 33.5 -38t32.5 -55.5t25 -75t10 -97.5
q0 -22 -3.5 -57t-16 -75t-37.5 -81t-68 -74t-108 -53.5t-157 -20.5q-46 0 -93 7t-100 27l-101 -124l-88 70l93 115q-16 16 -33.5 38.5t-31.5 54.5t-23.5 74.5t-9.5 98.5q0 21 3 56.5t15.5 75.5t37 81.5t67.5 74.5t107.5 54t156.5 21q71 0 116 -11t77 -25l101 124z" />
    <glyph glyph-name="Ugrave" unicode="&#xd9;" horiz-adv-x="832" 
d="M333 700v-415q0 -16 2.5 -36t10.5 -38t24.5 -30.5t45.5 -12.5q28 0 45 12.5t25 30.5t10.5 38t2.5 36v415h268v-425q0 -69 -20 -117t-52.5 -80t-72 -50t-78.5 -27t-73 -11t-55 -2t-55 2t-73 11t-78.5 27t-72 50t-52.5 80t-20 117v425h268zM530 740h-154l-216 156h260z" />
    <glyph glyph-name="Uacute" unicode="&#xda;" horiz-adv-x="832" 
d="M333 700v-415q0 -16 2.5 -36t10.5 -38t24.5 -30.5t45.5 -12.5q28 0 45 12.5t25 30.5t10.5 38t2.5 36v415h268v-425q0 -69 -20 -117t-52.5 -80t-72 -50t-78.5 -27t-73 -11t-55 -2t-55 2t-73 11t-78.5 27t-72 50t-52.5 80t-20 117v425h268zM690 896l-216 -156h-154l110 156
h260z" />
    <glyph glyph-name="Ucircumflex" unicode="&#xdb;" horiz-adv-x="832" 
d="M333 700v-415q0 -16 2.5 -36t10.5 -38t24.5 -30.5t45.5 -12.5q28 0 45 12.5t25 30.5t10.5 38t2.5 36v415h268v-425q0 -69 -20 -117t-52.5 -80t-72 -50t-78.5 -27t-73 -11t-55 -2t-55 2t-73 11t-78.5 27t-72 50t-52.5 80t-20 117v425h268zM340 740h-160l125 156h220
l125 -156h-160l-75 94z" />
    <glyph glyph-name="Udieresis" unicode="&#xdc;" horiz-adv-x="832" 
d="M333 700v-415q0 -16 2.5 -36t10.5 -38t24.5 -30.5t45.5 -12.5q28 0 45 12.5t25 30.5t10.5 38t2.5 36v415h268v-425q0 -69 -20 -117t-52.5 -80t-72 -50t-78.5 -27t-73 -11t-55 -2t-55 2t-73 11t-78.5 27t-72 50t-52.5 80t-20 117v425h268zM374 896v-156h-180v156h180z
M638 896v-156h-180v156h180z" />
    <glyph glyph-name="Yacute" unicode="&#xdd;" horiz-adv-x="761" 
d="M513 215v-215h-268v215l-260 485h292l108 -293h4l109 293h278zM647 896l-216 -156h-154l110 156h260z" />
    <glyph glyph-name="Thorn" unicode="&#xde;" horiz-adv-x="796" 
d="M50 700h268v-64h173q70 0 122 -18.5t86.5 -51t51 -76t16.5 -94.5q0 -49 -15 -95.5t-48 -83t-85.5 -58.5t-128.5 -22h-172v-137h-268v700zM311 301h80q35 0 56.5 9.5t33 23.5t15 29.5t3.5 27.5q0 27 -10.5 43.5t-27.5 25t-37.5 11.5t-40.5 3h-72v-173z" />
    <glyph glyph-name="germandbls" unicode="&#xdf;" horiz-adv-x="743" 
d="M44 0v505q0 64 22.5 113t63.5 81t99.5 48.5t129.5 16.5q67 0 117 -10t86.5 -26.5t60 -38t37.5 -45t19.5 -47t5.5 -44.5q0 -64 -34 -110t-100 -59v-4q3 0 16.5 -2.5t33 -10t41 -20t39.5 -33.5t30 -50.5t12 -70.5q0 -36 -12 -72.5t-41 -66t-77 -48t-120 -18.5q-18 0 -32 1
t-25.5 3t-22 4.5t-21.5 5.5l-21 5v136q12 -5 26 -8t28 -3q32 0 53.5 23t21.5 61q0 29 -11.5 46t-28 26t-35 11.5t-32.5 2.5h-22v138h21q29 0 49.5 22t20.5 72q0 31 -9 48.5t-21 26t-24.5 10t-18.5 1.5q-26 0 -40.5 -13t-22 -32.5t-9 -42.5t-1.5 -43v-489h-252z" />
    <glyph glyph-name="agrave" unicode="&#xe0;" horiz-adv-x="650" 
d="M384 64h-4q-19 -25 -42 -40t-47 -23t-48 -10.5t-45 -2.5q-47 0 -81.5 12.5t-57 33.5t-33.5 49.5t-11 61.5q0 67 33.5 104.5t84 54.5t108.5 20.5t108 3.5h35v16q0 21 -12 33.5t-30 19t-39.5 9t-40.5 2.5q-2 0 -17.5 -1t-40.5 -5t-57.5 -12t-67.5 -23v137q60 16 125.5 24
t121.5 8q52 0 104 -9.5t92.5 -32.5t66 -62t25.5 -98v-334h-230v64zM371 228q-14 0 -33.5 -0.5t-38 -6t-31.5 -18.5t-13 -38q0 -22 16.5 -36t42.5 -14t48 19.5t22 64.5v29h-13zM339 754l100 -164h-140l-196 164h236z" />
    <glyph glyph-name="aacute" unicode="&#xe1;" horiz-adv-x="650" 
d="M384 64h-4q-19 -25 -42 -40t-47 -23t-48 -10.5t-45 -2.5q-47 0 -81.5 12.5t-57 33.5t-33.5 49.5t-11 61.5q0 67 33.5 104.5t84 54.5t108.5 20.5t108 3.5h35v16q0 21 -12 33.5t-30 19t-39.5 9t-40.5 2.5q-2 0 -17.5 -1t-40.5 -5t-57.5 -12t-67.5 -23v137q60 16 125.5 24
t121.5 8q52 0 104 -9.5t92.5 -32.5t66 -62t25.5 -98v-334h-230v64zM371 228q-14 0 -33.5 -0.5t-38 -6t-31.5 -18.5t-13 -38q0 -22 16.5 -36t42.5 -14t48 19.5t22 64.5v29h-13zM547 754l-196 -164h-140l100 164h236z" />
    <glyph glyph-name="acircumflex" unicode="&#xe2;" horiz-adv-x="650" 
d="M384 64h-4q-19 -25 -42 -40t-47 -23t-48 -10.5t-45 -2.5q-47 0 -81.5 12.5t-57 33.5t-33.5 49.5t-11 61.5q0 67 33.5 104.5t84 54.5t108.5 20.5t108 3.5h35v16q0 21 -12 33.5t-30 19t-39.5 9t-40.5 2.5q-2 0 -17.5 -1t-40.5 -5t-57.5 -12t-67.5 -23v137q60 16 125.5 24
t121.5 8q52 0 104 -9.5t92.5 -32.5t66 -62t25.5 -98v-334h-230v64zM371 228q-14 0 -33.5 -0.5t-38 -6t-31.5 -18.5t-13 -38q0 -22 16.5 -36t42.5 -14t48 19.5t22 64.5v29h-13zM255 590h-144l114 164h200l114 -164h-144l-70 100z" />
    <glyph glyph-name="atilde" unicode="&#xe3;" horiz-adv-x="650" 
d="M384 64h-4q-19 -25 -42 -40t-47 -23t-48 -10.5t-45 -2.5q-47 0 -81.5 12.5t-57 33.5t-33.5 49.5t-11 61.5q0 67 33.5 104.5t84 54.5t108.5 20.5t108 3.5h35v16q0 21 -12 33.5t-30 19t-39.5 9t-40.5 2.5q-2 0 -17.5 -1t-40.5 -5t-57.5 -12t-67.5 -23v137q60 16 125.5 24
t121.5 8q52 0 104 -9.5t92.5 -32.5t66 -62t25.5 -98v-334h-230v64zM371 228q-14 0 -33.5 -0.5t-38 -6t-31.5 -18.5t-13 -38q0 -22 16.5 -36t42.5 -14t48 19.5t22 64.5v29h-13zM105 594v16q0 33 10 59t27.5 44t41 27.5t50.5 9.5q23 0 42 -4.5t36 -9.5l29 -8q26 -7 39.5 -10.5
t24.5 -3.5q20 0 31.5 10t13.5 26h95v-15q0 -29 -9 -54.5t-26 -44.5t-43 -30.5t-59 -11.5q-23 0 -43.5 4.5t-35.5 9.5l-32 11q-9 3 -24.5 7.5t-28.5 4.5q-17 0 -29.5 -9.5t-14.5 -27.5h-95z" />
    <glyph glyph-name="adieresis" unicode="&#xe4;" horiz-adv-x="650" 
d="M384 64h-4q-19 -25 -42 -40t-47 -23t-48 -10.5t-45 -2.5q-47 0 -81.5 12.5t-57 33.5t-33.5 49.5t-11 61.5q0 67 33.5 104.5t84 54.5t108.5 20.5t108 3.5h35v16q0 21 -12 33.5t-30 19t-39.5 9t-40.5 2.5q-2 0 -17.5 -1t-40.5 -5t-57.5 -12t-67.5 -23v137q60 16 125.5 24
t121.5 8q52 0 104 -9.5t92.5 -32.5t66 -62t25.5 -98v-334h-230v64zM371 228q-14 0 -33.5 -0.5t-38 -6t-31.5 -18.5t-13 -38q0 -22 16.5 -36t42.5 -14t48 19.5t22 64.5v29h-13zM283 754v-154h-180v154h180zM547 754v-154h-180v154h180z" />
    <glyph glyph-name="aring" unicode="&#xe5;" horiz-adv-x="650" 
d="M384 64h-4q-19 -25 -42 -40t-47 -23t-48 -10.5t-45 -2.5q-47 0 -81.5 12.5t-57 33.5t-33.5 49.5t-11 61.5q0 67 33.5 104.5t84 54.5t108.5 20.5t108 3.5h35v16q0 21 -12 33.5t-30 19t-39.5 9t-40.5 2.5q-2 0 -17.5 -1t-40.5 -5t-57.5 -12t-67.5 -23v137q60 16 125.5 24
t121.5 8q52 0 104 -9.5t92.5 -32.5t66 -62t25.5 -98v-334h-230v64zM371 228q-14 0 -33.5 -0.5t-38 -6t-31.5 -18.5t-13 -38q0 -22 16.5 -36t42.5 -14t48 19.5t22 64.5v29h-13zM277 676q0 -20 14 -34t34 -14t34 14t14 34t-14 34t-34 14t-34 -14t-14 -34zM207 676
q0 24 9.5 45.5t25.5 37.5t37.5 25.5t45.5 9.5t45.5 -9.5t37.5 -25.5t25.5 -37.5t9.5 -45.5t-9.5 -45.5t-25.5 -37.5t-37.5 -25.5t-45.5 -9.5t-45.5 9.5t-37.5 25.5t-25.5 37.5t-9.5 45.5z" />
    <glyph glyph-name="ae" unicode="&#xe6;" horiz-adv-x="984" 
d="M82 504q63 20 115.5 26t75.5 6q50 0 87 -8t64 -19t44 -24.5t27 -23.5q16 17 35 31t41.5 23.5t50.5 15t63 5.5q68 0 115.5 -18t78.5 -47t49 -64t26.5 -69t10.5 -63t2 -45v-31h-350q1 -14 6.5 -28.5t19.5 -26.5t38.5 -20t63.5 -8q48 0 92 9.5t92 26.5v-136
q-72 -18 -134 -23t-102 -5q-55 0 -94.5 8.5t-67.5 21.5t-47 29t-32 31q-13 -17 -31.5 -33.5t-45 -29t-63 -20t-84.5 -7.5q-64 0 -105 15.5t-64 38.5t-32 51t-9 52q0 45 15.5 76t42 51.5t61.5 31.5t73.5 16.5t77.5 6.5t75 1h24v7q0 7 -3 19t-16.5 24t-40 21t-72.5 9
q-29 0 -75.5 -9t-97.5 -32v137zM747 306v9q0 28 -6 46t-16 28.5t-21.5 14.5t-21.5 4q-7 0 -18 -2.5t-21.5 -11.5t-18 -27.5t-7.5 -50.5v-10h130zM374 228q-15 0 -35 -0.5t-38 -6t-30.5 -17.5t-12.5 -36q0 -25 17 -38.5t42 -13.5q26 0 48 19t22 64v29h-13z" />
    <glyph glyph-name="ccedilla" unicode="&#xe7;" horiz-adv-x="559" 
d="M533 14q-56 -17 -103 -22t-82 -4l-10 -43q46 2 77.5 -23t31.5 -73q0 -25 -11.5 -44t-31 -31.5t-45.5 -18.5t-55 -6q-47 0 -92 15l14 64q10 -4 24 -7t26 -3q27 0 40.5 12t13.5 27t-8 23.5t-18.5 12t-22 4.5t-18.5 1h-16l20 95q-56 6 -102 29t-78.5 59t-50 83t-17.5 101
q0 43 14 91t50.5 88t99 66t158.5 26q38 0 85.5 -5t102.5 -19v-150q-36 15 -63 19.5t-45 4.5q-57 0 -94 -32.5t-37 -92.5q0 -54 34.5 -88.5t95.5 -34.5q17 0 45 4.5t68 22.5v-151z" />
    <glyph glyph-name="egrave" unicode="&#xe8;" horiz-adv-x="633" 
d="M266 201q1 -14 6.5 -28.5t19.5 -26.5t38.5 -20t63.5 -8q48 0 92 9.5t92 26.5v-136q-64 -17 -123 -23.5t-113 -6.5q-103 0 -166.5 28.5t-99 71.5t-47.5 92.5t-12 90.5q0 61 22.5 110.5t62.5 83.5t96 52.5t122 18.5q48 0 100 -12t95.5 -44t72 -88.5t28.5 -145.5v-45h-350z
M396 308v9q0 28 -6 46.5t-16 29t-21.5 14.5t-21.5 4q-7 0 -18 -2.5t-21.5 -12t-18 -28t-7.5 -50.5v-10h130zM353 754l100 -164h-140l-196 164h236z" />
    <glyph glyph-name="eacute" unicode="&#xe9;" horiz-adv-x="633" 
d="M266 201q1 -14 6.5 -28.5t19.5 -26.5t38.5 -20t63.5 -8q48 0 92 9.5t92 26.5v-136q-64 -17 -123 -23.5t-113 -6.5q-103 0 -166.5 28.5t-99 71.5t-47.5 92.5t-12 90.5q0 61 22.5 110.5t62.5 83.5t96 52.5t122 18.5q48 0 100 -12t95.5 -44t72 -88.5t28.5 -145.5v-45h-350z
M396 308v9q0 28 -6 46.5t-16 29t-21.5 14.5t-21.5 4q-7 0 -18 -2.5t-21.5 -12t-18 -28t-7.5 -50.5v-10h130zM551 754l-196 -164h-140l100 164h236z" />
    <glyph glyph-name="ecircumflex" unicode="&#xea;" horiz-adv-x="633" 
d="M266 201q1 -14 6.5 -28.5t19.5 -26.5t38.5 -20t63.5 -8q48 0 92 9.5t92 26.5v-136q-64 -17 -123 -23.5t-113 -6.5q-103 0 -166.5 28.5t-99 71.5t-47.5 92.5t-12 90.5q0 61 22.5 110.5t62.5 83.5t96 52.5t122 18.5q48 0 100 -12t95.5 -44t72 -88.5t28.5 -145.5v-45h-350z
M396 308v9q0 28 -6 46.5t-16 29t-21.5 14.5t-21.5 4q-7 0 -18 -2.5t-21.5 -12t-18 -28t-7.5 -50.5v-10h130zM246 590h-144l114 164h200l114 -164h-144l-70 100z" />
    <glyph glyph-name="edieresis" unicode="&#xeb;" horiz-adv-x="633" 
d="M266 201q1 -14 6.5 -28.5t19.5 -26.5t38.5 -20t63.5 -8q48 0 92 9.5t92 26.5v-136q-64 -17 -123 -23.5t-113 -6.5q-103 0 -166.5 28.5t-99 71.5t-47.5 92.5t-12 90.5q0 61 22.5 110.5t62.5 83.5t96 52.5t122 18.5q48 0 100 -12t95.5 -44t72 -88.5t28.5 -145.5v-45h-350z
M396 308v9q0 28 -6 46.5t-16 29t-21.5 14.5t-21.5 4q-7 0 -18 -2.5t-21.5 -12t-18 -28t-7.5 -50.5v-10h130zM274 754v-154h-180v154h180zM538 754v-154h-180v154h180z" />
    <glyph glyph-name="igrave" unicode="&#xec;" horiz-adv-x="352" 
d="M50 524h252v-524h-252v524zM190 754l100 -164h-140l-196 164h236z" />
    <glyph glyph-name="iacute" unicode="&#xed;" horiz-adv-x="352" 
d="M50 524h252v-524h-252v524zM398 754l-196 -164h-140l100 164h236z" />
    <glyph glyph-name="icircumflex" unicode="&#xee;" horiz-adv-x="352" 
d="M50 524h252v-524h-252v524zM107 590h-144l114 164h200l114 -164h-144l-70 100z" />
    <glyph glyph-name="idieresis" unicode="&#xef;" horiz-adv-x="388" 
d="M68 524h252v-524h-252v524zM172 754v-154h-150v154h150zM366 754v-154h-150v154h150z" />
    <glyph glyph-name="eth" unicode="&#xf0;" horiz-adv-x="685" 
d="M187 770q38 -7 72 -18t63 -22l92 62l76 -56l-75 -51q60 -31 107 -74.5t79 -95.5t48.5 -111t16.5 -121q0 -138 -87.5 -216.5t-255.5 -78.5q-89 0 -148 23t-93.5 59.5t-48.5 82.5t-14 91q0 54 17.5 102t49.5 83.5t78.5 56.5t105.5 21q26 0 67 -8t93 -38l5 2q-10 26 -27 47
t-38.5 37t-45.5 27.5t-48 17.5l-86 -57l-70 59l63 42q-35 11 -55.5 16.5t-44.5 8.5zM287 254q0 -19 1 -40.5t6.5 -39.5t16 -30t29.5 -12q21 0 32.5 11t17.5 29t7 40t1 44t-1 43t-6.5 38t-16.5 27.5t-31 10.5q-19 0 -30 -10t-17 -27t-7.5 -38.5t-1.5 -45.5z" />
    <glyph glyph-name="ntilde" unicode="&#xf1;" horiz-adv-x="693" 
d="M288 433h4q13 33 34 53.5t44.5 31.5t47.5 14.5t43 3.5q66 0 103 -21.5t54.5 -50t21 -57t3.5 -43.5v-364h-252v302q0 11 -0.5 23.5t-4.5 23t-13 17.5t-26 7t-26.5 -7t-13.5 -18t-4.5 -23.5t-0.5 -22.5v-302h-252v524h238v-91zM126 594v16q0 33 10 59t27.5 44t41 27.5
t50.5 9.5q23 0 42 -4.5t36 -9.5l29 -8q26 -7 39.5 -10.5t24.5 -3.5q20 0 31.5 10t13.5 26h95v-15q0 -29 -9 -54.5t-26 -44.5t-43 -30.5t-59 -11.5q-23 0 -43.5 4.5t-35.5 9.5l-32 11q-9 3 -24.5 7.5t-28.5 4.5q-17 0 -29.5 -9.5t-14.5 -27.5h-95z" />
    <glyph glyph-name="ograve" unicode="&#xf2;" horiz-adv-x="690" 
d="M345 536q75 0 135 -19t102 -54t65 -86t23 -115t-23 -115t-65 -86t-102 -54t-135 -19t-135 19t-102 54t-65 86t-23 115t23 115t65 86t102 54t135 19zM345 386q-20 0 -31.5 -12t-16.5 -30t-6 -40t-1 -42t1 -42t6 -40t16.5 -30t31.5 -12t31 12t16.5 30t6.5 40t1 42t-1 42
t-6.5 40t-16.5 30t-31 12zM359 754l100 -164h-140l-196 164h236z" />
    <glyph glyph-name="oacute" unicode="&#xf3;" horiz-adv-x="690" 
d="M345 536q75 0 135 -19t102 -54t65 -86t23 -115t-23 -115t-65 -86t-102 -54t-135 -19t-135 19t-102 54t-65 86t-23 115t23 115t65 86t102 54t135 19zM345 386q-20 0 -31.5 -12t-16.5 -30t-6 -40t-1 -42t1 -42t6 -40t16.5 -30t31.5 -12t31 12t16.5 30t6.5 40t1 42t-1 42
t-6.5 40t-16.5 30t-31 12zM567 754l-196 -164h-140l100 164h236z" />
    <glyph glyph-name="ocircumflex" unicode="&#xf4;" horiz-adv-x="690" 
d="M345 536q75 0 135 -19t102 -54t65 -86t23 -115t-23 -115t-65 -86t-102 -54t-135 -19t-135 19t-102 54t-65 86t-23 115t23 115t65 86t102 54t135 19zM345 386q-20 0 -31.5 -12t-16.5 -30t-6 -40t-1 -42t1 -42t6 -40t16.5 -30t31.5 -12t31 12t16.5 30t6.5 40t1 42t-1 42
t-6.5 40t-16.5 30t-31 12zM275 590h-144l114 164h200l114 -164h-144l-70 100z" />
    <glyph glyph-name="otilde" unicode="&#xf5;" horiz-adv-x="690" 
d="M345 536q75 0 135 -19t102 -54t65 -86t23 -115t-23 -115t-65 -86t-102 -54t-135 -19t-135 19t-102 54t-65 86t-23 115t23 115t65 86t102 54t135 19zM345 386q-20 0 -31.5 -12t-16.5 -30t-6 -40t-1 -42t1 -42t6 -40t16.5 -30t31.5 -12t31 12t16.5 30t6.5 40t1 42t-1 42
t-6.5 40t-16.5 30t-31 12zM125 594v16q0 33 10 59t27.5 44t41 27.5t50.5 9.5q23 0 42 -4.5t36 -9.5l29 -8q26 -7 39.5 -10.5t24.5 -3.5q20 0 31.5 10t13.5 26h95v-15q0 -29 -9 -54.5t-26 -44.5t-43 -30.5t-59 -11.5q-23 0 -43.5 4.5t-35.5 9.5l-32 11q-9 3 -24.5 7.5
t-28.5 4.5q-17 0 -29.5 -9.5t-14.5 -27.5h-95z" />
    <glyph glyph-name="odieresis" unicode="&#xf6;" horiz-adv-x="690" 
d="M345 536q75 0 135 -19t102 -54t65 -86t23 -115t-23 -115t-65 -86t-102 -54t-135 -19t-135 19t-102 54t-65 86t-23 115t23 115t65 86t102 54t135 19zM345 386q-20 0 -31.5 -12t-16.5 -30t-6 -40t-1 -42t1 -42t6 -40t16.5 -30t31.5 -12t31 12t16.5 30t6.5 40t1 42t-1 42
t-6.5 40t-16.5 30t-31 12zM303 754v-154h-180v154h180zM567 754v-154h-180v154h180z" />
    <glyph glyph-name="divide" unicode="&#xf7;" 
d="M75 430h550v-160h-550v160zM351 42q-41 0 -69.5 28.5t-28.5 69.5t28.5 69.5t69.5 28.5t69.5 -28.5t28.5 -69.5t-28.5 -69.5t-69.5 -28.5zM351 462q-41 0 -69.5 28.5t-28.5 69.5t28.5 69.5t69.5 28.5t69.5 -28.5t28.5 -69.5t-28.5 -69.5t-69.5 -28.5z" />
    <glyph glyph-name="oslash" unicode="&#xf8;" horiz-adv-x="690" 
d="M345 536q53 0 88 -7.5t54 -13.5l98 123l72 -58l-87 -108q44 -31 72 -82.5t28 -127.5q0 -63 -23 -113.5t-65 -86.5t-102 -55t-135 -19q-47 0 -82.5 6.5t-59.5 14.5l-100 -125l-70 58l1 1l87 108q-45 32 -73 83t-28 128q0 63 23 114t65 86.5t102 54.5t135 19zM345 386
q-21 0 -32 -13t-16.5 -32t-6 -42t-0.5 -42l89 114q-11 11 -21.5 13t-12.5 2zM310 155q6 -10 16.5 -13.5t18.5 -3.5q21 0 32 12.5t16 31.5t6 42t1 44z" />
    <glyph glyph-name="ugrave" unicode="&#xf9;" horiz-adv-x="693" 
d="M643 0h-238v90h-2q-7 -15 -18.5 -33t-31.5 -33.5t-49 -25.5t-71 -10q-67 0 -104 21.5t-54.5 50t-21 57t-3.5 42.5v365h252v-303q0 -11 0.5 -23.5t4.5 -23t13 -17.5t26 -7t26.5 7t13.5 18t4.5 23t0.5 23v303h252v-524zM360 754l100 -164h-140l-196 164h236z" />
    <glyph glyph-name="uacute" unicode="&#xfa;" horiz-adv-x="693" 
d="M643 0h-238v90h-2q-7 -15 -18.5 -33t-31.5 -33.5t-49 -25.5t-71 -10q-67 0 -104 21.5t-54.5 50t-21 57t-3.5 42.5v365h252v-303q0 -11 0.5 -23.5t4.5 -23t13 -17.5t26 -7t26.5 7t13.5 18t4.5 23t0.5 23v303h252v-524zM578 754l-196 -164h-140l100 164h236z" />
    <glyph glyph-name="ucircumflex" unicode="&#xfb;" horiz-adv-x="693" 
d="M643 0h-238v90h-2q-7 -15 -18.5 -33t-31.5 -33.5t-49 -25.5t-71 -10q-67 0 -104 21.5t-54.5 50t-21 57t-3.5 42.5v365h252v-303q0 -11 0.5 -23.5t4.5 -23t13 -17.5t26 -7t26.5 7t13.5 18t4.5 23t0.5 23v303h252v-524zM276 590h-144l114 164h200l114 -164h-144l-70 100z
" />
    <glyph glyph-name="udieresis" unicode="&#xfc;" horiz-adv-x="693" 
d="M643 0h-238v90h-2q-7 -15 -18.5 -33t-31.5 -33.5t-49 -25.5t-71 -10q-67 0 -104 21.5t-54.5 50t-21 57t-3.5 42.5v365h252v-303q0 -11 0.5 -23.5t4.5 -23t13 -17.5t26 -7t26.5 7t13.5 18t4.5 23t0.5 23v303h252v-524zM304 754v-154h-180v154h180zM568 754v-154h-180v154
h180z" />
    <glyph glyph-name="yacute" unicode="&#xfd;" horiz-adv-x="625" 
d="M248 524l72 -330h3l63 330h247l-177 -545q-14 -43 -34.5 -81t-52 -66.5t-76.5 -45.5t-107 -17q-35 0 -78.5 5t-84.5 15v146q17 -5 37.5 -7.5t39.5 -2.5q22 0 36 5t22.5 12.5t12 15t5.5 12.5l5 17l-194 537h261zM565 754l-196 -164h-140l100 164h236z" />
    <glyph glyph-name="thorn" unicode="&#xfe;" horiz-adv-x="712" 
d="M50 754h252v-296h2q6 11 16 24.5t27.5 25.5t43.5 20t63 8q70 0 116 -25.5t73 -66t37.5 -91t10.5 -101.5q0 -72 -19.5 -122.5t-51.5 -82t-73.5 -45.5t-85.5 -14q-15 0 -35 2t-42 10.5t-43 24t-37 42.5h-2v-286h-252v973zM295 258q0 -18 1.5 -38.5t7.5 -37t19 -27.5t36 -11
q21 0 33.5 10.5t19 26.5t8 35t1.5 36q0 16 -1.5 36t-8 37t-19.5 29t-35 12q-21 0 -33.5 -10.5t-18.5 -26t-8 -34.5t-2 -37z" />
    <glyph glyph-name="ydieresis" unicode="&#xff;" horiz-adv-x="625" 
d="M248 524l72 -330h3l63 330h247l-177 -545q-14 -43 -34.5 -81t-52 -66.5t-76.5 -45.5t-107 -17q-35 0 -78.5 5t-84.5 15v146q17 -5 37.5 -7.5t39.5 -2.5q22 0 36 5t22.5 12.5t12 15t5.5 12.5l5 17l-194 537h261zM270 754v-154h-180v154h180zM534 754v-154h-180v154h180z
" />
    <glyph glyph-name="Amacron" unicode="&#x100;" horiz-adv-x="825" 
d="M591 700l249 -700h-282l-48 151h-210l-47 -151h-268l245 700h361zM403 534l-72 -219h149l-73 219h-4zM205 747v104h414v-104h-414z" />
    <glyph glyph-name="amacron" unicode="&#x101;" horiz-adv-x="650" 
d="M384 64h-4q-19 -25 -42 -40t-47 -23t-48 -10.5t-45 -2.5q-47 0 -81.5 12.5t-57 33.5t-33.5 49.5t-11 61.5q0 67 33.5 104.5t84 54.5t108.5 20.5t108 3.5h35v16q0 21 -12 33.5t-30 19t-39.5 9t-40.5 2.5q-2 0 -17.5 -1t-40.5 -5t-57.5 -12t-67.5 -23v137q60 16 125.5 24
t121.5 8q52 0 104 -9.5t92.5 -32.5t66 -62t25.5 -98v-334h-230v64zM371 228q-14 0 -33.5 -0.5t-38 -6t-31.5 -18.5t-13 -38q0 -22 16.5 -36t42.5 -14t48 19.5t22 64.5v29h-13zM118 625v104h414v-104h-414z" />
    <glyph glyph-name="Abreve" unicode="&#x102;" horiz-adv-x="825" 
d="M591 700l249 -700h-282l-48 151h-210l-47 -151h-268l245 700h361zM403 534l-72 -219h149l-73 219h-4zM412 740q-42 0 -79.5 9.5t-65 28.5t-44 47t-16.5 64v7h115q3 -14 12.5 -22.5t23 -14t28 -7.5t26.5 -2t26.5 2t28 7.5t23 14t12.5 22.5h115v-7q0 -36 -16.5 -64t-44 -47
t-65 -28.5t-79.5 -9.5z" />
    <glyph glyph-name="abreve" unicode="&#x103;" horiz-adv-x="650" 
d="M384 64h-4q-19 -25 -42 -40t-47 -23t-48 -10.5t-45 -2.5q-47 0 -81.5 12.5t-57 33.5t-33.5 49.5t-11 61.5q0 67 33.5 104.5t84 54.5t108.5 20.5t108 3.5h35v16q0 21 -12 33.5t-30 19t-39.5 9t-40.5 2.5q-2 0 -17.5 -1t-40.5 -5t-57.5 -12t-67.5 -23v137q60 16 125.5 24
t121.5 8q52 0 104 -9.5t92.5 -32.5t66 -62t25.5 -98v-334h-230v64zM371 228q-14 0 -33.5 -0.5t-38 -6t-31.5 -18.5t-13 -38q0 -22 16.5 -36t42.5 -14t48 19.5t22 64.5v29h-13zM521 754q-2 -41 -18 -71.5t-42 -51t-61 -31t-75 -10.5t-75 10.5t-61 31t-42 51t-18 71.5h110
q4 -20 16 -31t26 -16t26.5 -6t17.5 -1t17.5 1t26.5 6t26 16t16 31h110z" />
    <glyph glyph-name="Aogonek" unicode="&#x104;" horiz-adv-x="825" 
d="M591 700l249 -700q-30 -18 -57.5 -36.5t-48.5 -37t-33.5 -37t-12.5 -35.5t9.5 -30.5t32.5 -13.5q11 0 32 5t36 10l17 -74q-53 -20 -114 -20q-50 0 -78 13t-42 30t-17 35t-3 28q0 43 40 86.5t125 76.5h-168l-48 151h-210l-47 -151h-268l245 700h361zM403 534l-72 -219h149
l-73 219h-4z" />
    <glyph glyph-name="aogonek" unicode="&#x105;" horiz-adv-x="650" 
d="M384 64h-4q-19 -25 -42 -40t-47 -23t-48 -10.5t-45 -2.5q-47 0 -81.5 12.5t-57 33.5t-33.5 49.5t-11 61.5q0 67 33.5 104.5t84 54.5t108.5 20.5t108 3.5h35v16q0 21 -12 33.5t-30 19t-39.5 9t-40.5 2.5q-2 0 -17.5 -1t-40.5 -5t-57.5 -12t-67.5 -23v137q60 16 125.5 24
t121.5 8q52 0 104 -9.5t92.5 -32.5t66 -62t25.5 -98v-334q-11 -5 -26 -12.5t-30.5 -16.5t-29.5 -20t-24 -21q-14 -15 -20.5 -31t-6.5 -31q0 -25 17 -37.5t40 -12.5q11 0 28.5 4.5t28.5 8.5l14 -64q-14 -5 -40.5 -11.5t-61.5 -6.5q-46 0 -74 11.5t-43.5 28t-20.5 34.5t-5 32
q0 25 12.5 48t33.5 42t48 33t56 22h-126v64zM371 228q-14 0 -33.5 -0.5t-38 -6t-31.5 -18.5t-13 -38q0 -22 16.5 -36t42.5 -14t48 19.5t22 64.5v29h-13z" />
    <glyph glyph-name="Cacute" unicode="&#x106;" horiz-adv-x="654" 
d="M634 16q-61 -17 -109.5 -22.5t-86.5 -5.5q-102 0 -180 27t-131 75t-80 114.5t-27 145.5q0 67 22.5 132t73 116t131.5 82.5t198 31.5q60 0 103.5 -7t67.5 -12l16 -3v-185q-29 11 -64.5 19t-76.5 8q-43 0 -78 -13.5t-59.5 -37t-38 -55.5t-13.5 -70q0 -24 6.5 -55.5
t27.5 -59.5t59 -47t101 -19q20 0 52 5t86 22v-186zM629 896l-216 -156h-154l110 156h260z" />
    <glyph glyph-name="cacute" unicode="&#x107;" horiz-adv-x="559" 
d="M532 14q-54 -17 -100.5 -21.5t-88.5 -4.5q-84 0 -145 22t-100.5 60t-59 88.5t-19.5 106.5q0 43 14 91t50.5 88t98.5 66t158 26q38 0 85.5 -5t102.5 -19v-150q-36 15 -63 19.5t-45 4.5q-57 0 -94 -32.5t-37 -92.5q0 -54 34.5 -88.5t95.5 -34.5q17 0 45 4.5t68 22.5v-151z
M521 754l-196 -164h-140l100 164h236z" />
    <glyph glyph-name="Ccircumflex" unicode="&#x108;" horiz-adv-x="654" 
d="M634 16q-61 -17 -109.5 -22.5t-86.5 -5.5q-102 0 -180 27t-131 75t-80 114.5t-27 145.5q0 67 22.5 132t73 116t131.5 82.5t198 31.5q60 0 103.5 -7t67.5 -12l16 -3v-185q-29 11 -64.5 19t-76.5 8q-43 0 -78 -13.5t-59.5 -37t-38 -55.5t-13.5 -70q0 -24 6.5 -55.5
t27.5 -59.5t59 -47t101 -19q20 0 52 5t86 22v-186zM340 740h-160l125 156h220l125 -156h-160l-75 94z" />
    <glyph glyph-name="ccircumflex" unicode="&#x109;" horiz-adv-x="559" 
d="M532 14q-54 -17 -100.5 -21.5t-88.5 -4.5q-84 0 -145 22t-100.5 60t-59 88.5t-19.5 106.5q0 43 14 91t50.5 88t98.5 66t158 26q38 0 85.5 -5t102.5 -19v-150q-36 15 -63 19.5t-45 4.5q-57 0 -94 -32.5t-37 -92.5q0 -54 34.5 -88.5t95.5 -34.5q17 0 45 4.5t68 22.5v-151z
M264 590h-144l114 164h200l114 -164h-144l-70 100z" />
    <glyph glyph-name="Cdotaccent" unicode="&#x10a;" horiz-adv-x="654" 
d="M634 16q-61 -17 -109.5 -22.5t-86.5 -5.5q-102 0 -180 27t-131 75t-80 114.5t-27 145.5q0 67 22.5 132t73 116t131.5 82.5t198 31.5q60 0 103.5 -7t67.5 -12l16 -3v-185q-29 11 -64.5 19t-76.5 8q-43 0 -78 -13.5t-59.5 -37t-38 -55.5t-13.5 -70q0 -24 6.5 -55.5
t27.5 -59.5t59 -47t101 -19q20 0 52 5t86 22v-186zM300 896h268v-156h-268v156z" />
    <glyph glyph-name="cdotaccent" unicode="&#x10b;" horiz-adv-x="559" 
d="M532 14q-54 -17 -100.5 -21.5t-88.5 -4.5q-84 0 -145 22t-100.5 60t-59 88.5t-19.5 106.5q0 43 14 91t50.5 88t98.5 66t158 26q38 0 85.5 -5t102.5 -19v-150q-36 15 -63 19.5t-45 4.5q-57 0 -94 -32.5t-37 -92.5q0 -54 34.5 -88.5t95.5 -34.5q17 0 45 4.5t68 22.5v-151z
M477 754v-164h-252v164h252z" />
    <glyph glyph-name="Ccaron" unicode="&#x10c;" horiz-adv-x="654" 
d="M634 16q-61 -17 -109.5 -22.5t-86.5 -5.5q-102 0 -180 27t-131 75t-80 114.5t-27 145.5q0 67 22.5 132t73 116t131.5 82.5t198 31.5q60 0 103.5 -7t67.5 -12l16 -3v-185q-29 11 -64.5 19t-76.5 8q-43 0 -78 -13.5t-59.5 -37t-38 -55.5t-13.5 -70q0 -24 6.5 -55.5
t27.5 -59.5t59 -47t101 -19q20 0 52 5t86 22v-186zM490 896h160l-125 -156h-220l-125 156h160l75 -94z" />
    <glyph glyph-name="ccaron" unicode="&#x10d;" horiz-adv-x="559" 
d="M532 14q-54 -17 -100.5 -21.5t-88.5 -4.5q-84 0 -145 22t-100.5 60t-59 88.5t-19.5 106.5q0 43 14 91t50.5 88t98.5 66t158 26q38 0 85.5 -5t102.5 -19v-150q-36 15 -63 19.5t-45 4.5q-57 0 -94 -32.5t-37 -92.5q0 -54 34.5 -88.5t95.5 -34.5q17 0 45 4.5t68 22.5v-151z
M404 754h144l-114 -164h-200l-114 164h144l70 -100z" />
    <glyph glyph-name="Dcaron" unicode="&#x10e;" horiz-adv-x="816" 
d="M434 700q106 0 174.5 -33.5t108 -85.5t54.5 -114t15 -120q0 -52 -14 -113t-52.5 -113t-107 -86.5t-178.5 -34.5h-384v700h384zM318 175h54q22 0 45.5 5.5t43 23.5t31.5 53t12 94q0 61 -11.5 97t-30 55.5t-42.5 25.5t-48 6h-54v-360zM418 896h160l-125 -156h-220l-125 156
h160l75 -94z" />
    <glyph glyph-name="dcaron" unicode="&#x10f;" horiz-adv-x="926" 
d="M427 89h-4q-24 -49 -66.5 -75t-99.5 -26q-39 0 -80.5 12t-76.5 44t-57.5 86.5t-22.5 140.5q0 73 20 123.5t52.5 82t73.5 45.5t83 14q51 0 91.5 -19.5t68.5 -59.5v297h252v-754h-234v89zM353 158q21 0 33.5 11.5t19 29t8.5 36.5t2 34t-2 34t-8.5 36.5t-19 29t-33.5 11.5
t-33.5 -11.5t-19 -29t-8.5 -36.5t-2 -34t2 -34t8.5 -36.5t19 -29t33.5 -11.5zM951 754l-74 -194h-180l40 194h214z" />
    <glyph glyph-name="Dcroat" unicode="&#x110;" horiz-adv-x="830" 
d="M448 700q106 0 174.5 -33.5t108 -85.5t54.5 -114t15 -120q0 -52 -14 -113t-52.5 -113t-107 -86.5t-178.5 -34.5h-384v305h-53v126h53v269h384zM332 431h89v-126h-89v-130h54q22 0 45.5 5.5t43 23.5t31.5 53t12 94q0 61 -11.5 97t-30 55.5t-42.5 25.5t-48 6h-54v-104z" />
    <glyph glyph-name="dcroat" unicode="&#x111;" horiz-adv-x="733" 
d="M661 689h82v-109h-82v-580h-234v89h-4q-24 -49 -66.5 -75t-99.5 -26q-39 0 -80.5 12t-76.5 44t-57.5 86.5t-22.5 140.5q0 73 20 123.5t52.5 82t73.5 45.5t83 14q51 0 91.5 -19.5t68.5 -59.5v123h-200v109h200v65h252v-65zM353 158q21 0 33.5 11.5t19 29t8.5 36.5t2 34
t-2 34t-8.5 36.5t-19 29t-33.5 11.5t-33.5 -11.5t-19 -29t-8.5 -36.5t-2 -34t2 -34t8.5 -36.5t19 -29t33.5 -11.5z" />
    <glyph glyph-name="Emacron" unicode="&#x112;" 
d="M661 700v-165h-343v-101h328v-160h-328v-109h350v-165h-618v700h611zM150 747v104h414v-104h-414z" />
    <glyph glyph-name="emacron" unicode="&#x113;" horiz-adv-x="633" 
d="M266 201q1 -14 6.5 -28.5t19.5 -26.5t38.5 -20t63.5 -8q48 0 92 9.5t92 26.5v-136q-64 -17 -123 -23.5t-113 -6.5q-103 0 -166.5 28.5t-99 71.5t-47.5 92.5t-12 90.5q0 61 22.5 110.5t62.5 83.5t96 52.5t122 18.5q48 0 100 -12t95.5 -44t72 -88.5t28.5 -145.5v-45h-350z
M396 308v9q0 28 -6 46.5t-16 29t-21.5 14.5t-21.5 4q-7 0 -18 -2.5t-21.5 -12t-18 -28t-7.5 -50.5v-10h130zM109 625v104h414v-104h-414z" />
    <glyph glyph-name="Edotaccent" unicode="&#x116;" 
d="M661 700v-165h-343v-101h328v-160h-328v-109h350v-165h-618v700h611zM240 896h268v-156h-268v156z" />
    <glyph glyph-name="edotaccent" unicode="&#x117;" horiz-adv-x="633" 
d="M266 201q1 -14 6.5 -28.5t19.5 -26.5t38.5 -20t63.5 -8q48 0 92 9.5t92 26.5v-136q-64 -17 -123 -23.5t-113 -6.5q-103 0 -166.5 28.5t-99 71.5t-47.5 92.5t-12 90.5q0 61 22.5 110.5t62.5 83.5t96 52.5t122 18.5q48 0 100 -12t95.5 -44t72 -88.5t28.5 -145.5v-45h-350z
M396 308v9q0 28 -6 46.5t-16 29t-21.5 14.5t-21.5 4q-7 0 -18 -2.5t-21.5 -12t-18 -28t-7.5 -50.5v-10h130zM447 754v-164h-252v164h252z" />
    <glyph glyph-name="Eogonek" unicode="&#x118;" 
d="M655 700v-165h-343v-101h328v-160h-328v-109h350v-165q-30 -18 -57.5 -36.5t-48.5 -37t-33.5 -37t-12.5 -35.5t9.5 -30.5t32.5 -13.5q11 0 32 5t36 10l17 -74q-53 -20 -114 -20q-50 0 -78 13t-42 30t-17 35t-3 28q0 43 40 86.5t125 76.5h-498v700h605z" />
    <glyph glyph-name="eogonek" unicode="&#x119;" horiz-adv-x="633" 
d="M266 201q1 -14 6.5 -28.5t19.5 -26.5t38.5 -20t63.5 -8q48 0 92 9.5t92 26.5v-136q-43 -12 -83 -18q-11 -5 -26 -12.5t-30.5 -16.5t-29.5 -20t-24 -21q-14 -15 -20.5 -31t-6.5 -31q0 -25 17 -37.5t40 -12.5q11 0 28.5 4.5t28.5 8.5l14 -64q-14 -5 -40.5 -11.5t-61.5 -6.5
q-46 0 -74 11.5t-43.5 28t-20.5 34.5t-5 32q0 38 31 74.5t85 58.5h-15q-78 1 -132.5 17.5t-90.5 42.5t-56.5 58t-30.5 63t-12.5 58t-2.5 44q0 61 22.5 110.5t62.5 83.5t96 52.5t122 18.5q48 0 100 -12t95.5 -44t72 -88.5t28.5 -145.5v-45h-350zM396 308v9q0 28 -6 46.5
t-16 29t-21.5 14.5t-21.5 4q-7 0 -18 -2.5t-21.5 -12t-18 -28t-7.5 -50.5v-10h130z" />
    <glyph glyph-name="Ecaron" unicode="&#x11a;" 
d="M661 700v-165h-343v-101h328v-160h-328v-109h350v-165h-618v700h611zM440 896h160l-125 -156h-220l-125 156h160l75 -94z" />
    <glyph glyph-name="ecaron" unicode="&#x11b;" horiz-adv-x="633" 
d="M266 201q1 -14 6.5 -28.5t19.5 -26.5t38.5 -20t63.5 -8q48 0 92 9.5t92 26.5v-136q-64 -17 -123 -23.5t-113 -6.5q-103 0 -166.5 28.5t-99 71.5t-47.5 92.5t-12 90.5q0 61 22.5 110.5t62.5 83.5t96 52.5t122 18.5q48 0 100 -12t95.5 -44t72 -88.5t28.5 -145.5v-45h-350z
M396 308v9q0 28 -6 46.5t-16 29t-21.5 14.5t-21.5 4q-7 0 -18 -2.5t-21.5 -12t-18 -28t-7.5 -50.5v-10h130zM386 754h144l-114 -164h-200l-114 164h144l70 -100z" />
    <glyph glyph-name="Gcircumflex" unicode="&#x11c;" horiz-adv-x="783" 
d="M733 26q-56 -17 -126 -27.5t-164 -10.5q-88 0 -153.5 17t-112.5 45.5t-77.5 66t-48 78.5t-24.5 82t-7 78q0 15 3 47.5t17 72t42 81.5t77.5 76.5t124 57t181.5 22.5q47 0 107.5 -5.5t132.5 -20.5v-189q-21 11 -67 26t-118 15q-50 0 -91 -13.5t-70 -39.5t-45 -64.5
t-16 -89.5q0 -47 13.5 -79t36 -52t50 -29t56.5 -9q18 0 30 2t18 4v167h231v-309zM370 740h-160l125 156h220l125 -156h-160l-75 94z" />
    <glyph glyph-name="gcircumflex" unicode="&#x11d;" horiz-adv-x="713" 
d="M56 -27q48 -28 99 -41t99 -13q57 0 90 16t49.5 38.5t21 48t4.5 44.5v21q-31 -42 -75.5 -64.5t-98.5 -22.5q-42 0 -82.5 14t-72 45t-50.5 80.5t-19 120.5q0 68 17.5 119.5t48 86.5t71.5 52.5t89 17.5q26 0 53 -6t50.5 -19t42 -33.5t28.5 -50.5h4v97h238v-448q0 -28 -3 -62
t-14 -68t-32.5 -66t-58.5 -56.5t-92.5 -39.5t-133.5 -15q-105 0 -171.5 12t-101.5 23v169zM355 376q-20 0 -32.5 -8.5t-19.5 -23.5t-9.5 -34.5t-2.5 -41.5t2.5 -41.5t9.5 -34.5t19.5 -23.5t32.5 -8.5t32.5 8.5t19.5 23.5t9.5 34.5t2.5 41.5t-2.5 41.5t-9.5 34.5t-19.5 23.5
t-32.5 8.5zM286 590h-144l114 164h200l114 -164h-144l-70 100z" />
    <glyph glyph-name="Gbreve" unicode="&#x11e;" horiz-adv-x="783" 
d="M733 26q-56 -17 -126 -27.5t-164 -10.5q-88 0 -153.5 17t-112.5 45.5t-77.5 66t-48 78.5t-24.5 82t-7 78q0 15 3 47.5t17 72t42 81.5t77.5 76.5t124 57t181.5 22.5q47 0 107.5 -5.5t132.5 -20.5v-189q-21 11 -67 26t-118 15q-50 0 -91 -13.5t-70 -39.5t-45 -64.5
t-16 -89.5q0 -47 13.5 -79t36 -52t50 -29t56.5 -9q18 0 30 2t18 4v167h231v-309zM435 740q-42 0 -79.5 9.5t-65 28.5t-44 47t-16.5 64v7h115q3 -14 12.5 -22.5t23 -14t28 -7.5t26.5 -2t26.5 2t28 7.5t23 14t12.5 22.5h115v-7q0 -36 -16.5 -64t-44 -47t-65 -28.5t-79.5 -9.5z
" />
    <glyph glyph-name="gbreve" unicode="&#x11f;" horiz-adv-x="713" 
d="M56 -27q48 -28 99 -41t99 -13q57 0 90 16t49.5 38.5t21 48t4.5 44.5v21q-31 -42 -75.5 -64.5t-98.5 -22.5q-42 0 -82.5 14t-72 45t-50.5 80.5t-19 120.5q0 68 17.5 119.5t48 86.5t71.5 52.5t89 17.5q26 0 53 -6t50.5 -19t42 -33.5t28.5 -50.5h4v97h238v-448q0 -28 -3 -62
t-14 -68t-32.5 -66t-58.5 -56.5t-92.5 -39.5t-133.5 -15q-105 0 -171.5 12t-101.5 23v169zM355 376q-20 0 -32.5 -8.5t-19.5 -23.5t-9.5 -34.5t-2.5 -41.5t2.5 -41.5t9.5 -34.5t19.5 -23.5t32.5 -8.5t32.5 8.5t19.5 23.5t9.5 34.5t2.5 41.5t-2.5 41.5t-9.5 34.5t-19.5 23.5
t-32.5 8.5zM552 754q-2 -41 -18 -71.5t-42 -51t-61 -31t-75 -10.5t-75 10.5t-61 31t-42 51t-18 71.5h110q4 -20 16 -31t26 -16t26.5 -6t17.5 -1t17.5 1t26.5 6t26 16t16 31h110z" />
    <glyph glyph-name="Gdotaccent" unicode="&#x120;" horiz-adv-x="783" 
d="M733 26q-56 -17 -126 -27.5t-164 -10.5q-88 0 -153.5 17t-112.5 45.5t-77.5 66t-48 78.5t-24.5 82t-7 78q0 15 3 47.5t17 72t42 81.5t77.5 76.5t124 57t181.5 22.5q47 0 107.5 -5.5t132.5 -20.5v-189q-21 11 -67 26t-118 15q-50 0 -91 -13.5t-70 -39.5t-45 -64.5
t-16 -89.5q0 -47 13.5 -79t36 -52t50 -29t56.5 -9q18 0 30 2t18 4v167h231v-309zM340 896h268v-156h-268v156z" />
    <glyph glyph-name="gdotaccent" unicode="&#x121;" horiz-adv-x="713" 
d="M56 -27q48 -28 99 -41t99 -13q57 0 90 16t49.5 38.5t21 48t4.5 44.5v21q-31 -42 -75.5 -64.5t-98.5 -22.5q-42 0 -82.5 14t-72 45t-50.5 80.5t-19 120.5q0 68 17.5 119.5t48 86.5t71.5 52.5t89 17.5q26 0 53 -6t50.5 -19t42 -33.5t28.5 -50.5h4v97h238v-448q0 -28 -3 -62
t-14 -68t-32.5 -66t-58.5 -56.5t-92.5 -39.5t-133.5 -15q-105 0 -171.5 12t-101.5 23v169zM355 376q-20 0 -32.5 -8.5t-19.5 -23.5t-9.5 -34.5t-2.5 -41.5t2.5 -41.5t9.5 -34.5t19.5 -23.5t32.5 -8.5t32.5 8.5t19.5 23.5t9.5 34.5t2.5 41.5t-2.5 41.5t-9.5 34.5t-19.5 23.5
t-32.5 8.5zM407 754v-164h-252v164h252z" />
    <glyph glyph-name="Gcommaaccent" unicode="&#x122;" horiz-adv-x="783" 
d="M733 26q-56 -17 -126 -27.5t-164 -10.5q-88 0 -153.5 17t-112.5 45.5t-77.5 66t-48 78.5t-24.5 82t-7 78q0 15 3 47.5t17 72t42 81.5t77.5 76.5t124 57t181.5 22.5q47 0 107.5 -5.5t132.5 -20.5v-189q-21 11 -67 26t-118 15q-50 0 -91 -13.5t-70 -39.5t-45 -64.5
t-16 -89.5q0 -47 13.5 -79t36 -52t50 -29t56.5 -9q18 0 30 2t18 4v167h231v-309zM565 -50l-84 -210h-180l44 210h220z" />
    <glyph glyph-name="gcommaaccent" unicode="&#x123;" horiz-adv-x="713" 
d="M56 -27q48 -28 99 -41t99 -13q57 0 90 16t49.5 38.5t21 48t4.5 44.5v21q-31 -42 -75.5 -64.5t-98.5 -22.5q-42 0 -82.5 14t-72 45t-50.5 80.5t-19 120.5q0 68 17.5 119.5t48 86.5t71.5 52.5t89 17.5q26 0 53 -6t50.5 -19t42 -33.5t28.5 -50.5h4v97h238v-448q0 -28 -3 -62
t-14 -68t-32.5 -66t-58.5 -56.5t-92.5 -39.5t-133.5 -15q-105 0 -171.5 12t-101.5 23v169zM355 376q-20 0 -32.5 -8.5t-19.5 -23.5t-9.5 -34.5t-2.5 -41.5t2.5 -41.5t9.5 -34.5t19.5 -23.5t32.5 -8.5t32.5 8.5t19.5 23.5t9.5 34.5t2.5 41.5t-2.5 41.5t-9.5 34.5t-19.5 23.5
t-32.5 8.5zM230.034 599.994l77.9902 209.975h179.979l-43.9951 -209.975h-213.974z" />
    <glyph glyph-name="Hcircumflex" unicode="&#x124;" horiz-adv-x="815" 
d="M497 700h268v-700h-268v258h-179v-258h-268v700h268v-242h179v242zM332 740h-160l125 156h220l125 -156h-160l-75 94z" />
    <glyph glyph-name="hcircumflex" unicode="&#x125;" horiz-adv-x="694" 
d="M302 458q19 26 41 41.5t44 23.5t41 10.5t33 2.5q39 0 72.5 -10.5t58 -31.5t38.5 -53.5t14 -76.5v-364h-252v302q0 11 -0.5 23.5t-4.5 23t-13.5 17.5t-26.5 7t-26.5 -7t-13.5 -17.5t-4.5 -23t-0.5 -23.5v-302h-252v754h252v-296zM107 790h-144l114 164h200l114 -164h-144
l-70 100z" />
    <glyph glyph-name="Hbar" unicode="&#x126;" horiz-adv-x="837" 
d="M776 0h-268v258h-179v-258h-268v514h-50v126h50v60h268v-60h179v60h268v-60h50v-126h-50v-514zM508 514h-179v-56h179v56z" />
    <glyph glyph-name="hbar" unicode="&#x127;" horiz-adv-x="704" 
d="M312 689h200v-109h-200v-131q19 26 41 41.5t44 23.5t41 10.5t33 2.5q39 0 72.5 -10.5t58 -31.5t38.5 -53.5t14 -76.5v-355h-252v293q0 7 -0.5 19.5t-4.5 23.5t-13 19.5t-27 8.5t-27 -8.5t-13 -19.5t-4.5 -23.5t-0.5 -19.5v-293h-252v580h-82v109h82v65h252v-65z" />
    <glyph glyph-name="Imacron" unicode="&#x12a;" horiz-adv-x="378" 
d="M323 700v-700h-268v700h268zM-17 747v104h414v-104h-414z" />
    <glyph glyph-name="imacron" unicode="&#x12b;" horiz-adv-x="352" 
d="M50 524h252v-524h-252v524zM-30 625v104h414v-104h-414z" />
    <glyph glyph-name="Iogonek" unicode="&#x12e;" horiz-adv-x="378" 
d="M323 700v-700q-30 -18 -57.5 -36.5t-48.5 -37t-33.5 -37t-12.5 -35.5t9.5 -30.5t32.5 -13.5q11 0 32 5t36 10l17 -74q-53 -20 -114 -20q-50 0 -78 13t-42 30t-17 35t-3 28q0 43 40 86.5t125 76.5h-154v700h268z" />
    <glyph glyph-name="iogonek" unicode="&#x12f;" horiz-adv-x="352" 
d="M50 524h252v-524q-11 -6 -25 -15t-28 -19t-26.5 -19.5t-18.5 -16.5q-14 -15 -20.5 -31t-6.5 -31q0 -25 17 -37.5t40 -12.5q11 0 28.5 4.5t28.5 8.5l14 -64q-14 -5 -40.5 -11.5t-61.5 -6.5q-46 0 -74 11.5t-43.5 28t-20.5 34.5t-5 32q0 25 12.5 48t33.5 42t48 33t56 22
h-160v524zM302 754v-164h-252v164h252z" />
    <glyph glyph-name="Idotaccent" unicode="&#x130;" horiz-adv-x="378" 
d="M323 700v-700h-268v700h268zM56 896h268v-156h-268v156z" />
    <glyph glyph-name="dotlessi" unicode="&#x131;" horiz-adv-x="352" 
d="M50 524h252v-524h-252v524z" />
    <glyph glyph-name="Jcircumflex" unicode="&#x134;" horiz-adv-x="482" 
d="M432 700v-479q0 -56 -15.5 -95.5t-40.5 -65t-55 -40t-58.5 -22t-52.5 -9t-36 -1.5q-29 0 -69.5 4.5t-100.5 20.5v190q28 -10 48 -11.5t26 -1.5q8 0 22.5 2t28.5 11.5t24.5 28.5t10.5 52v416h268zM210 740h-160l125 156h220l125 -156h-160l-75 94z" />
    <glyph glyph-name="jcircumflex" unicode="&#x135;" horiz-adv-x="353" 
d="M303 524v-556q0 -10 -1 -28.5t-7 -40.5t-18 -45t-33 -42t-54 -31t-80 -12q-29 0 -70.5 3.5t-83.5 12.5v153q11 -4 22 -5.5t19 -1.5q21 0 32 7.5t16 18t5.5 21.5t0.5 18v528h252zM107 590h-145l115 164h200l114 -164h-144l-70 100z" />
    <glyph glyph-name="Kcommaaccent" unicode="&#x136;" horiz-adv-x="809" 
d="M318 425h4l165 275h305l-236 -328l258 -372h-320l-172 297h-4v-297h-268v700h268v-275zM507 -50l-84 -210h-180l44 210h220z" />
    <glyph glyph-name="kcommaaccent" unicode="&#x137;" horiz-adv-x="742" 
d="M302 316h4l143 208h285l-177 -231l184 -293h-294l-141 254h-4v-254h-252v754h252v-438zM489 -50l-78 -210h-180l44 210h214z" />
    <glyph glyph-name="Lacute" unicode="&#x139;" horiz-adv-x="660" 
d="M50 700h268v-500h330v-200h-598v700zM487 896l-216 -156h-154l110 156h260z" />
    <glyph glyph-name="lacute" unicode="&#x13a;" horiz-adv-x="352" 
d="M302 754v-754h-252v754h252zM415 954l-196 -164h-140l100 164h236z" />
    <glyph glyph-name="Lcommaaccent" unicode="&#x13b;" horiz-adv-x="660" 
d="M50 700h268v-500h330v-200h-598v700zM470 -50l-84 -210h-180l44 210h220z" />
    <glyph glyph-name="lcommaaccent" unicode="&#x13c;" horiz-adv-x="352" 
d="M302 754v-754h-252v754h252zM302 -50l-78 -210h-180l44 210h214z" />
    <glyph glyph-name="Lcaron" unicode="&#x13d;" horiz-adv-x="660" 
d="M50 700h268v-500h330v-200h-598v700zM680 700l-115 -306h-159l62 306h212z" />
    <glyph glyph-name="lcaron" unicode="&#x13e;" horiz-adv-x="567" 
d="M302 754v-754h-252v754h252zM592 754l-74 -194h-180l40 194h214z" />
    <glyph glyph-name="Ldot" unicode="&#x13f;" horiz-adv-x="660" 
d="M50 700h268v-500h330v-200h-598v700zM407 487h218v-193h-218v193z" />
    <glyph glyph-name="ldot" unicode="&#x140;" horiz-adv-x="570" 
d="M302 754v-754h-252v754h252zM352 486h218v-193h-218v193z" />
    <glyph glyph-name="Lslash" unicode="&#x141;" horiz-adv-x="675" 
d="M65 368v332h268v-187l153 83v-125l-153 -83v-188h330v-200h-598v241l-63 -34v127z" />
    <glyph glyph-name="lslash" unicode="&#x142;" horiz-adv-x="352" 
d="M302 754v-222l50 27v-120l-50 -27v-412h-252v276l-50 -31v120l50 31v358h252z" />
    <glyph glyph-name="Nacute" unicode="&#x143;" horiz-adv-x="864" 
d="M50 700h399l130 -483h4v483h231v-700h-395l-134 497h-4v-497h-231v700zM700 896l-216 -156h-154l110 156h260z" />
    <glyph glyph-name="nacute" unicode="&#x144;" horiz-adv-x="693" 
d="M288 433h4q13 33 34 53.5t44.5 31.5t47.5 14.5t43 3.5q66 0 103 -21.5t54.5 -50t21 -57t3.5 -43.5v-364h-252v302q0 11 -0.5 23.5t-4.5 23t-13 17.5t-26 7t-26.5 -7t-13.5 -18t-4.5 -23.5t-0.5 -22.5v-302h-252v524h238v-91zM568 754l-196 -164h-140l100 164h236z" />
    <glyph glyph-name="Ncommaaccent" unicode="&#x145;" horiz-adv-x="864" 
d="M50 700h399l130 -483h4v483h231v-700h-395l-134 497h-4v-497h-231v700zM528 -50l-84 -210h-180l44 210h220z" />
    <glyph glyph-name="ncommaaccent" unicode="&#x146;" horiz-adv-x="693" 
d="M288 433h4q13 33 34 53.5t44.5 31.5t47.5 14.5t43 3.5q66 0 103 -21.5t54.5 -50t21 -57t3.5 -43.5v-364h-252v302q0 11 -0.5 23.5t-4.5 23t-13 17.5t-26 7t-26.5 -7t-13.5 -18t-4.5 -23.5t-0.5 -22.5v-302h-252v524h238v-91zM467 -50l-78 -210h-180l44 210h214z" />
    <glyph glyph-name="Ncaron" unicode="&#x147;" horiz-adv-x="864" 
d="M50 700h399l130 -483h4v483h231v-700h-395l-134 497h-4v-497h-231v700zM531 896h160l-125 -156h-220l-125 156h160l75 -94z" />
    <glyph glyph-name="ncaron" unicode="&#x148;" horiz-adv-x="693" 
d="M288 433h4q13 33 34 53.5t44.5 31.5t47.5 14.5t43 3.5q66 0 103 -21.5t54.5 -50t21 -57t3.5 -43.5v-364h-252v302q0 11 -0.5 23.5t-4.5 23t-13 17.5t-26 7t-26.5 -7t-13.5 -18t-4.5 -23.5t-0.5 -22.5v-302h-252v524h238v-91zM416 754h144l-114 -164h-200l-114 164h144
l70 -100z" />
    <glyph glyph-name="Omacron" unicode="&#x14c;" horiz-adv-x="820" 
d="M410 712q93 0 165.5 -25t122.5 -72t76 -114t26 -151t-26 -151t-76 -114t-122.5 -72t-165.5 -25t-165.5 25t-122.5 72t-76 114t-26 151t26 151t76 114t122.5 72t165.5 25zM410 544q-38 0 -59.5 -20t-32.5 -49.5t-13.5 -63.5t-2.5 -61t2.5 -61t13.5 -63.5t32.5 -49.5
t59.5 -20t59.5 20t32.5 49.5t13.5 63.5t2.5 61t-2.5 61t-13.5 63.5t-32.5 49.5t-59.5 20zM203 747v104h414v-104h-414z" />
    <glyph glyph-name="omacron" unicode="&#x14d;" horiz-adv-x="690" 
d="M345 536q75 0 135 -19t102 -54t65 -86t23 -115t-23 -115t-65 -86t-102 -54t-135 -19t-135 19t-102 54t-65 86t-23 115t23 115t65 86t102 54t135 19zM345 386q-20 0 -31.5 -12t-16.5 -30t-6 -40t-1 -42t1 -42t6 -40t16.5 -30t31.5 -12t31 12t16.5 30t6.5 40t1 42t-1 42
t-6.5 40t-16.5 30t-31 12zM138 625v104h414v-104h-414z" />
    <glyph glyph-name="Obreve" unicode="&#x14e;" horiz-adv-x="820" 
d="M410 712q93 0 165.5 -25t122.5 -72t76 -114t26 -151t-26 -151t-76 -114t-122.5 -72t-165.5 -25t-165.5 25t-122.5 72t-76 114t-26 151t26 151t76 114t122.5 72t165.5 25zM410 544q-38 0 -59.5 -20t-32.5 -49.5t-13.5 -63.5t-2.5 -61t2.5 -61t13.5 -63.5t32.5 -49.5
t59.5 -20t59.5 20t32.5 49.5t13.5 63.5t2.5 61t-2.5 61t-13.5 63.5t-32.5 49.5t-59.5 20zM410 740q-42 0 -79.5 9.5t-65 28.5t-44 47t-16.5 64v7h115q3 -14 12.5 -22.5t23 -14t28 -7.5t26.5 -2t26.5 2t28 7.5t23 14t12.5 22.5h115v-7q0 -36 -16.5 -64t-44 -47t-65 -28.5
t-79.5 -9.5z" />
    <glyph glyph-name="obreve" unicode="&#x14f;" horiz-adv-x="690" 
d="M345 536q75 0 135 -19t102 -54t65 -86t23 -115t-23 -115t-65 -86t-102 -54t-135 -19t-135 19t-102 54t-65 86t-23 115t23 115t65 86t102 54t135 19zM345 386q-20 0 -31.5 -12t-16.5 -30t-6 -40t-1 -42t1 -42t6 -40t16.5 -30t31.5 -12t31 12t16.5 30t6.5 40t1 42t-1 42
t-6.5 40t-16.5 30t-31 12zM541 754q-2 -41 -18 -71.5t-42 -51t-61 -31t-75 -10.5t-75 10.5t-61 31t-42 51t-18 71.5h110q4 -20 16 -31t26 -16t26.5 -6t17.5 -1t17.5 1t26.5 6t26 16t16 31h110z" />
    <glyph glyph-name="Ohungarumlaut" unicode="&#x150;" horiz-adv-x="820" 
d="M410 712q93 0 165.5 -25t122.5 -72t76 -114t26 -151t-26 -151t-76 -114t-122.5 -72t-165.5 -25t-165.5 25t-122.5 72t-76 114t-26 151t26 151t76 114t122.5 72t165.5 25zM410 544q-38 0 -59.5 -20t-32.5 -49.5t-13.5 -63.5t-2.5 -61t2.5 -61t13.5 -63.5t32.5 -49.5
t59.5 -20t59.5 20t32.5 49.5t13.5 63.5t2.5 61t-2.5 61t-13.5 63.5t-32.5 49.5t-59.5 20zM530 896l-216 -156h-134l108 156h242zM812 896l-216 -156h-134l108 156h242z" />
    <glyph glyph-name="ohungarumlaut" unicode="&#x151;" horiz-adv-x="690" 
d="M345 536q75 0 135 -19t102 -54t65 -86t23 -115t-23 -115t-65 -86t-102 -54t-135 -19t-135 19t-102 54t-65 86t-23 115t23 115t65 86t102 54t135 19zM345 386q-20 0 -31.5 -12t-16.5 -30t-6 -40t-1 -42t1 -42t6 -40t16.5 -30t31.5 -12t31 12t16.5 30t6.5 40t1 42t-1 42
t-6.5 40t-16.5 30t-31 12zM474 754l-194 -164h-130l112 164h212zM726 754l-194 -164h-130l112 164h212z" />
    <glyph glyph-name="OE" unicode="&#x152;" horiz-adv-x="1076" 
d="M416 0q-92 0 -164.5 24.5t-122.5 69.5t-76.5 110t-26.5 146t26.5 146t76.5 110t122.5 69.5t164.5 24.5h633v-168h-293v-100h276v-168h-276v-96h300v-168h-640zM493 532h-57q-44 0 -69.5 -18.5t-38.5 -46t-16.5 -59.5t-3.5 -58t3.5 -58t16.5 -59.5t38.5 -46t69.5 -18.5h57
v364z" />
    <glyph glyph-name="oe" unicode="&#x153;" horiz-adv-x="1022" 
d="M650 199q1 -14 6.5 -28.5t19.5 -26.5t38.5 -20t63.5 -8q48 0 92 9.5t92 26.5v-133q-37 -11 -71.5 -17t-64 -9t-52.5 -4t-37 -1q-57 0 -108.5 15t-97.5 54q-16 -13 -35.5 -25.5t-44.5 -22t-56 -15.5t-69 -6q-68 0 -124.5 19t-97 54.5t-63 86.5t-22.5 114q0 73 28.5 125
t74 85t104 48.5t118.5 15.5q36 0 65.5 -7t52.5 -18t41 -23.5t31 -22.5q25 22 51 36t51.5 21.5t48.5 10.5t42 3q20 0 47.5 -3.5t58 -15t60.5 -32t53.5 -54.5t38.5 -83.5t15 -117.5v-31h-350zM780 306v9q0 11 -1.5 27t-8 31t-19.5 25.5t-36 10.5q-11 0 -22 -4t-21 -14
t-16 -28.5t-6 -46.5v-10h130zM344 386q-20 0 -31.5 -12t-16.5 -30t-6 -40t-1 -42t1 -42t6 -40t16.5 -30t31.5 -12t31 12t16.5 30t6.5 40t1 42t-1 42t-6.5 40t-16.5 30t-31 12z" />
    <glyph glyph-name="Racute" unicode="&#x154;" horiz-adv-x="788" 
d="M50 700h410q72 0 126 -17.5t91 -49t55.5 -74.5t18.5 -94q0 -58 -28 -106t-83 -79l131 -280h-281l-89 240h-83v-240h-268v700zM483 465q0 36 -23.5 54.5t-87.5 18.5h-66v-146h66q64 0 87.5 18.5t23.5 54.5zM654 896l-216 -156h-154l110 156h260z" />
    <glyph glyph-name="racute" unicode="&#x155;" horiz-adv-x="501" 
d="M286 524v-119h4q7 25 21 48.5t34 42t45.5 29.5t57.5 11q19 0 41 -5v-210q-12 3 -25 5.5t-27 2.5q-28 0 -52.5 -9t-43 -26.5t-29 -43.5t-10.5 -60v-190h-252v524h236zM472 754l-196 -164h-140l100 164h236z" />
    <glyph glyph-name="Rcommaaccent" unicode="&#x156;" horiz-adv-x="788" 
d="M50 700h410q72 0 126 -17.5t91 -49t55.5 -74.5t18.5 -94q0 -58 -28 -106t-83 -79l131 -280h-281l-89 240h-83v-240h-268v700zM483 465q0 36 -23.5 54.5t-87.5 18.5h-66v-146h66q64 0 87.5 18.5t23.5 54.5zM514 -50l-84 -210h-180l44 210h220z" />
    <glyph glyph-name="rcommaaccent" unicode="&#x157;" horiz-adv-x="501" 
d="M286 524v-119h4q7 25 21 48.5t34 42t45.5 29.5t57.5 11q19 0 41 -5v-210q-12 3 -25 5.5t-27 2.5q-28 0 -52.5 -9t-43 -26.5t-29 -43.5t-10.5 -60v-190h-252v524h236zM306 -50l-78 -210h-180l44 210h214z" />
    <glyph glyph-name="Rcaron" unicode="&#x158;" horiz-adv-x="788" 
d="M50 700h410q72 0 126 -17.5t91 -49t55.5 -74.5t18.5 -94q0 -58 -28 -106t-83 -79l131 -280h-281l-89 240h-83v-240h-268v700zM483 465q0 36 -23.5 54.5t-87.5 18.5h-66v-146h66q64 0 87.5 18.5t23.5 54.5zM435 896h160l-125 -156h-220l-125 156h160l75 -94z" />
    <glyph glyph-name="rcaron" unicode="&#x159;" horiz-adv-x="501" 
d="M286 524v-119h4q7 25 21 48.5t34 42t45.5 29.5t57.5 11q19 0 41 -5v-210q-12 3 -25 5.5t-27 2.5q-28 0 -52.5 -9t-43 -26.5t-29 -43.5t-10.5 -60v-190h-252v524h236zM322 754h144l-114 -164h-200l-114 164h144l70 -100z" />
    <glyph glyph-name="Sacute" unicode="&#x15a;" horiz-adv-x="689" 
d="M618 508q-34 13 -84.5 24.5t-123.5 11.5q-20 0 -40.5 -1t-37 -5.5t-27 -14t-10.5 -26.5q0 -12 7.5 -20.5t19.5 -13.5t27.5 -8.5t32.5 -6.5q46 -9 96 -20.5t91.5 -35t68 -63.5t26.5 -106q0 -30 -10.5 -70t-46 -77t-103 -62.5t-182.5 -25.5q-53 0 -129 6t-160 27v182
q76 -30 137 -38.5t104 -8.5q18 0 39 1.5t39 7t30 15t12 25.5t-10.5 25.5t-27 15.5t-37 9.5t-39.5 7.5q-38 8 -82.5 19.5t-83 35t-64 63t-25.5 104.5q0 37 14.5 77t54.5 73.5t110.5 55t181.5 21.5q55 0 112 -5t120 -19v-180zM585 896l-216 -156h-154l110 156h260z" />
    <glyph glyph-name="sacute" unicode="&#x15b;" horiz-adv-x="568" 
d="M37 162q33 -14 81.5 -28t104.5 -14q49 0 70.5 9.5t21.5 25.5q0 13 -10 19.5t-24 9.5t-30.5 4.5t-28.5 3.5q-41 7 -78 17.5t-65 29t-45 47t-17 72.5q0 36 14 68t48.5 56.5t92 39t144.5 14.5q36 0 82 -4t107 -18v-138q-42 14 -84 21t-81 7q-14 0 -29.5 -1t-28 -4.5
t-21 -10.5t-8.5 -19q0 -16 19.5 -22t61.5 -10q34 -3 72 -10t70 -24t53.5 -47t21.5 -80q0 -25 -10.5 -57.5t-43 -61.5t-91.5 -49t-156 -20q-32 0 -89 5.5t-124 24.5v144zM467 754l-196 -164h-140l100 164h236z" />
    <glyph glyph-name="Scircumflex" unicode="&#x15c;" horiz-adv-x="689" 
d="M618 508q-34 13 -84.5 24.5t-123.5 11.5q-20 0 -40.5 -1t-37 -5.5t-27 -14t-10.5 -26.5q0 -12 7.5 -20.5t19.5 -13.5t27.5 -8.5t32.5 -6.5q46 -9 96 -20.5t91.5 -35t68 -63.5t26.5 -106q0 -30 -10.5 -70t-46 -77t-103 -62.5t-182.5 -25.5q-53 0 -129 6t-160 27v182
q76 -30 137 -38.5t104 -8.5q18 0 39 1.5t39 7t30 15t12 25.5t-10.5 25.5t-27 15.5t-37 9.5t-39.5 7.5q-38 8 -82.5 19.5t-83 35t-64 63t-25.5 104.5q0 37 14.5 77t54.5 73.5t110.5 55t181.5 21.5q55 0 112 -5t120 -19v-180zM268 740h-160l125 156h220l125 -156h-160l-75 94z
" />
    <glyph glyph-name="scircumflex" unicode="&#x15d;" horiz-adv-x="568" 
d="M37 162q33 -14 81.5 -28t104.5 -14q49 0 70.5 9.5t21.5 25.5q0 13 -10 19.5t-24 9.5t-30.5 4.5t-28.5 3.5q-41 7 -78 17.5t-65 29t-45 47t-17 72.5q0 36 14 68t48.5 56.5t92 39t144.5 14.5q36 0 82 -4t107 -18v-138q-42 14 -84 21t-81 7q-14 0 -29.5 -1t-28 -4.5
t-21 -10.5t-8.5 -19q0 -16 19.5 -22t61.5 -10q34 -3 72 -10t70 -24t53.5 -47t21.5 -80q0 -25 -10.5 -57.5t-43 -61.5t-91.5 -49t-156 -20q-32 0 -89 5.5t-124 24.5v144zM214 590h-144l114 164h200l114 -164h-144l-70 100z" />
    <glyph glyph-name="Scedilla" unicode="&#x15e;" horiz-adv-x="689" 
d="M618 508q-34 13 -84.5 24.5t-123.5 11.5q-20 0 -40.5 -1t-37 -5.5t-27 -14t-10.5 -26.5q0 -12 7.5 -20.5t19.5 -13.5t27.5 -8.5t32.5 -6.5q47 -9 97 -20.5t91 -34.5t67.5 -63.5t26.5 -106.5q0 -44 -17 -85.5t-52.5 -74t-91 -52.5t-131.5 -21l-12 -53q49 0 77 -28.5
t28 -69.5q0 -21 -8 -40.5t-25.5 -34.5t-44 -24t-62.5 -9q-51 0 -101 17l17 74q12 -5 27 -8.5t26 -3.5q23 0 33.5 11t10.5 23q0 13 -7 20.5t-17 11t-20.5 4t-17.5 0.5h-22l24 108q-78 2 -135.5 10.5t-109.5 22.5v182q76 -30 137 -38.5t104 -8.5q18 0 39 1.5t39 7t30 15
t12 25.5t-10.5 25.5t-27 15.5t-37 9.5t-39.5 7.5q-38 8 -82.5 19.5t-83 35t-64 63t-25.5 104.5q0 37 14.5 77t54.5 73.5t110.5 55t181.5 21.5q55 0 112 -5t120 -19v-180z" />
    <glyph glyph-name="scedilla" unicode="&#x15f;" horiz-adv-x="568" 
d="M37 162q33 -14 81.5 -28t104.5 -14q49 0 70.5 9.5t21.5 25.5q0 13 -10 19.5t-24 9.5t-30.5 4.5t-28.5 3.5q-41 7 -78 17.5t-65 29t-45 47t-17 72.5q0 36 14 68t48.5 56.5t92 39t144.5 14.5q36 0 82 -4t107 -18v-138q-42 14 -84 21t-81 7q-14 0 -29.5 -1t-28 -4.5
t-21 -10.5t-8.5 -19q0 -16 19.5 -22t61.5 -10q34 -3 72 -10t70 -24t53.5 -47t21.5 -80q0 -26 -10 -56t-36.5 -57t-72 -47t-117.5 -25l-11 -46q19 1 38.5 -4t35 -16t25.5 -28.5t10 -42.5q0 -49 -39.5 -77t-103.5 -28q-47 0 -92 15l14 64q12 -5 26.5 -7.5t25.5 -2.5
q25 0 38.5 11t13.5 28q0 15 -7 23t-17 12t-21.5 5t-21.5 1h-16l19 90q-66 3 -113 11.5t-82 18.5v144z" />
    <glyph glyph-name="Scaron" unicode="&#x160;" horiz-adv-x="689" 
d="M618 508q-34 13 -84.5 24.5t-123.5 11.5q-20 0 -40.5 -1t-37 -5.5t-27 -14t-10.5 -26.5q0 -12 7.5 -20.5t19.5 -13.5t27.5 -8.5t32.5 -6.5q46 -9 96 -20.5t91.5 -35t68 -63.5t26.5 -106q0 -30 -10.5 -70t-46 -77t-103 -62.5t-182.5 -25.5q-53 0 -129 6t-160 27v182
q76 -30 137 -38.5t104 -8.5q18 0 39 1.5t39 7t30 15t12 25.5t-10.5 25.5t-27 15.5t-37 9.5t-39.5 7.5q-38 8 -82.5 19.5t-83 35t-64 63t-25.5 104.5q0 37 14.5 77t54.5 73.5t110.5 55t181.5 21.5q55 0 112 -5t120 -19v-180zM418 896h160l-125 -156h-220l-125 156h160l75 -94
z" />
    <glyph glyph-name="scaron" unicode="&#x161;" horiz-adv-x="568" 
d="M37 162q33 -14 81.5 -28t104.5 -14q49 0 70.5 9.5t21.5 25.5q0 13 -10 19.5t-24 9.5t-30.5 4.5t-28.5 3.5q-41 7 -78 17.5t-65 29t-45 47t-17 72.5q0 36 14 68t48.5 56.5t92 39t144.5 14.5q36 0 82 -4t107 -18v-138q-42 14 -84 21t-81 7q-14 0 -29.5 -1t-28 -4.5
t-21 -10.5t-8.5 -19q0 -16 19.5 -22t61.5 -10q34 -3 72 -10t70 -24t53.5 -47t21.5 -80q0 -25 -10.5 -57.5t-43 -61.5t-91.5 -49t-156 -20q-32 0 -89 5.5t-124 24.5v144zM354 754h144l-114 -164h-200l-114 164h144l70 -100z" />
    <glyph glyph-name="Tcedilla" unicode="&#x162;" horiz-adv-x="760" 
d="M423 0l-14 -63q49 0 77 -28.5t28 -69.5q0 -21 -8 -40.5t-25.5 -34.5t-44 -24t-62.5 -9q-51 0 -101 17l17 74q12 -5 27 -8.5t26 -3.5q23 0 33.5 11t10.5 23q0 13 -7 20.5t-17 11t-20.5 4t-17.5 0.5h-22l27 120h-84v493h-236v207h740v-207h-236v-493h-91z" />
    <glyph glyph-name="tcedilla" unicode="&#x163;" horiz-adv-x="463" 
d="M89 524v128l252 75v-203h114v-150h-114v-149q0 -6 1 -17.5t6.5 -23t17 -20t33.5 -8.5q11 0 22.5 2t33.5 8v-151q-32 -12 -63 -18t-68 -8l-10 -44q19 1 38.5 -4t35 -16t25.5 -28.5t10 -42.5q0 -49 -39.5 -77t-103.5 -28q-47 0 -92 15l14 64q12 -5 26.5 -7.5t25.5 -2.5
q25 0 38.5 11t13.5 28q0 15 -7 23t-17 12t-21.5 5t-21.5 1h-16l19 93q-52 6 -82.5 28.5t-46 52.5t-20 62.5t-4.5 57.5v182h-89v150h89z" />
    <glyph glyph-name="Tcaron" unicode="&#x164;" horiz-adv-x="760" 
d="M750 700v-207h-236v-493h-268v493h-236v207h740zM455 896h160l-125 -156h-220l-125 156h160l75 -94z" />
    <glyph glyph-name="tcaron" unicode="&#x165;" horiz-adv-x="610" 
d="M89 524v128l252 75v-203h114v-150h-114v-149q0 -6 1 -17.5t6.5 -23t17 -20t33.5 -8.5q11 0 22.5 2t33.5 8v-151q-20 -8 -58.5 -17.5t-98.5 -9.5q-70 0 -111.5 19t-63 48.5t-28 65.5t-6.5 71v182h-89v150h89zM635 754l-74 -194h-180l40 194h214z" />
    <glyph glyph-name="Umacron" unicode="&#x16a;" horiz-adv-x="832" 
d="M333 700v-415q0 -16 2.5 -36t10.5 -38t24.5 -30.5t45.5 -12.5q28 0 45 12.5t25 30.5t10.5 38t2.5 36v415h268v-425q0 -69 -20 -117t-52.5 -80t-72 -50t-78.5 -27t-73 -11t-55 -2t-55 2t-73 11t-78.5 27t-72 50t-52.5 80t-20 117v425h268zM208 747v104h414v-104h-414z" />
    <glyph glyph-name="umacron" unicode="&#x16b;" horiz-adv-x="693" 
d="M643 0h-238v90h-2q-7 -15 -18.5 -33t-31.5 -33.5t-49 -25.5t-71 -10q-67 0 -104 21.5t-54.5 50t-21 57t-3.5 42.5v365h252v-303q0 -11 0.5 -23.5t4.5 -23t13 -17.5t26 -7t26.5 7t13.5 18t4.5 23t0.5 23v303h252v-524zM139 625v104h414v-104h-414z" />
    <glyph glyph-name="Ubreve" unicode="&#x16c;" horiz-adv-x="832" 
d="M333 700v-415q0 -16 2.5 -36t10.5 -38t24.5 -30.5t45.5 -12.5q28 0 45 12.5t25 30.5t10.5 38t2.5 36v415h268v-425q0 -69 -20 -117t-52.5 -80t-72 -50t-78.5 -27t-73 -11t-55 -2t-55 2t-73 11t-78.5 27t-72 50t-52.5 80t-20 117v425h268zM415 740q-42 0 -79.5 9.5
t-65 28.5t-44 47t-16.5 64v7h115q3 -14 12.5 -22.5t23 -14t28 -7.5t26.5 -2t26.5 2t28 7.5t23 14t12.5 22.5h115v-7q0 -36 -16.5 -64t-44 -47t-65 -28.5t-79.5 -9.5z" />
    <glyph glyph-name="ubreve" unicode="&#x16d;" horiz-adv-x="693" 
d="M643 0h-238v90h-2q-7 -15 -18.5 -33t-31.5 -33.5t-49 -25.5t-71 -10q-67 0 -104 21.5t-54.5 50t-21 57t-3.5 42.5v365h252v-303q0 -11 0.5 -23.5t4.5 -23t13 -17.5t26 -7t26.5 7t13.5 18t4.5 23t0.5 23v303h252v-524zM542 754q-2 -41 -18 -71.5t-42 -51t-61 -31
t-75 -10.5t-75 10.5t-61 31t-42 51t-18 71.5h110q4 -20 16 -31t26 -16t26.5 -6t17.5 -1t17.5 1t26.5 6t26 16t16 31h110z" />
    <glyph glyph-name="Uring" unicode="&#x16e;" horiz-adv-x="832" 
d="M333 700v-415q0 -16 2.5 -36t10.5 -38t24.5 -30.5t45.5 -12.5q28 0 45 12.5t25 30.5t10.5 38t2.5 36v415h268v-425q0 -69 -20 -117t-52.5 -80t-72 -50t-78.5 -27t-73 -11t-55 -2t-55 2t-73 11t-78.5 27t-72 50t-52.5 80t-20 117v425h268zM367 865q0 -20 14 -34t34 -14
t34 14t14 34t-14 34t-34 14t-34 -14t-14 -34zM297 865q0 24 9.5 45.5t25.5 37.5t37.5 25.5t45.5 9.5t45.5 -9.5t37.5 -25.5t25.5 -37.5t9.5 -45.5t-9.5 -45.5t-25.5 -37.5t-37.5 -25.5t-45.5 -9.5t-45.5 9.5t-37.5 25.5t-25.5 37.5t-9.5 45.5z" />
    <glyph glyph-name="uring" unicode="&#x16f;" horiz-adv-x="693" 
d="M643 0h-238v90h-2q-7 -15 -18.5 -33t-31.5 -33.5t-49 -25.5t-71 -10q-67 0 -104 21.5t-54.5 50t-21 57t-3.5 42.5v365h252v-303q0 -11 0.5 -23.5t4.5 -23t13 -17.5t26 -7t26.5 7t13.5 18t4.5 23t0.5 23v303h252v-524zM298 676q0 -20 14 -34t34 -14t34 14t14 34t-14 34
t-34 14t-34 -14t-14 -34zM228 676q0 24 9.5 45.5t25.5 37.5t37.5 25.5t45.5 9.5t45.5 -9.5t37.5 -25.5t25.5 -37.5t9.5 -45.5t-9.5 -45.5t-25.5 -37.5t-37.5 -25.5t-45.5 -9.5t-45.5 9.5t-37.5 25.5t-25.5 37.5t-9.5 45.5z" />
    <glyph glyph-name="Uhungarumlaut" unicode="&#x170;" horiz-adv-x="832" 
d="M333 700v-415q0 -16 2.5 -36t10.5 -38t24.5 -30.5t45.5 -12.5q28 0 45 12.5t25 30.5t10.5 38t2.5 36v415h268v-425q0 -69 -20 -117t-52.5 -80t-72 -50t-78.5 -27t-73 -11t-55 -2t-55 2t-73 11t-78.5 27t-72 50t-52.5 80t-20 117v425h268zM550 896l-216 -156h-134l108 156
h242zM832 896l-216 -156h-134l108 156h242z" />
    <glyph glyph-name="uhungarumlaut" unicode="&#x171;" horiz-adv-x="693" 
d="M643 0h-238v90h-2q-7 -15 -18.5 -33t-31.5 -33.5t-49 -25.5t-71 -10q-67 0 -104 21.5t-54.5 50t-21 57t-3.5 42.5v365h252v-303q0 -11 0.5 -23.5t4.5 -23t13 -17.5t26 -7t26.5 7t13.5 18t4.5 23t0.5 23v303h252v-524zM474 754l-194 -164h-130l112 164h212zM726 754
l-194 -164h-130l112 164h212z" />
    <glyph glyph-name="Uogonek" unicode="&#x172;" horiz-adv-x="832" 
d="M333 700v-415q0 -16 2.5 -36t10.5 -38t24.5 -30.5t45.5 -12.5q28 0 45 12.5t25 30.5t10.5 38t2.5 36v415h268v-425q0 -26 -5.5 -65.5t-27.5 -80.5t-66.5 -76.5t-122.5 -52.5q-30 -18 -57.5 -36.5t-48.5 -37t-33.5 -37t-12.5 -35.5t9.5 -30.5t32.5 -13.5q11 0 32 5t36 10
l17 -74q-53 -20 -114 -20q-50 0 -78 13t-42 30t-17 35t-3 28q0 18 7 37t23 38.5t42.5 38.5t65.5 37q-60 -3 -120.5 10.5t-109 48t-79 91t-30.5 137.5v425h268z" />
    <glyph glyph-name="uogonek" unicode="&#x173;" horiz-adv-x="693" 
d="M643 0q-11 -5 -26 -12.5t-30.5 -16.5t-29.5 -20t-24 -21q-14 -15 -20.5 -31t-6.5 -31q0 -25 17 -37.5t40 -12.5q11 0 28.5 4.5t28.5 8.5l14 -64q-14 -5 -40.5 -11.5t-61.5 -6.5q-46 0 -74 11.5t-43.5 28t-20.5 34.5t-5 32q0 25 12.5 48t33.5 42t48 33t56 22h-134v90h-2
q-7 -15 -18.5 -33t-31.5 -33.5t-49 -25.5t-71 -10q-67 0 -104 21.5t-54.5 50t-21 57t-3.5 42.5v365h252v-303q0 -11 0.5 -23.5t4.5 -23t13 -17.5t26 -7t26.5 7t13.5 18t4.5 23t0.5 23v303h252v-524z" />
    <glyph glyph-name="Ydieresis" unicode="&#x178;" horiz-adv-x="761" 
d="M513 215v-215h-268v215l-260 485h292l108 -293h4l109 293h278zM338 896v-156h-180v156h180zM602 896v-156h-180v156h180z" />
    <glyph glyph-name="Zacute" unicode="&#x179;" horiz-adv-x="687" 
d="M656 700v-213l-332 -300h343v-187h-647v213l343 307h-331v180h624zM607 896l-216 -156h-154l110 156h260z" />
    <glyph glyph-name="zacute" unicode="&#x17a;" horiz-adv-x="613" 
d="M322 154v-4h256v-150h-543v214l263 156v4h-254v150h527v-209zM547 754l-196 -164h-140l100 164h236z" />
    <glyph glyph-name="Zdotaccent" unicode="&#x17b;" horiz-adv-x="687" 
d="M656 700v-213l-332 -300h343v-187h-647v213l343 307h-331v180h624zM220 896h268v-156h-268v156z" />
    <glyph glyph-name="zdotaccent" unicode="&#x17c;" horiz-adv-x="613" 
d="M322 154v-4h256v-150h-543v214l263 156v4h-254v150h527v-209zM447 754v-164h-252v164h252z" />
    <glyph glyph-name="Zcaron" unicode="&#x17d;" horiz-adv-x="687" 
d="M656 700v-213l-332 -300h343v-187h-647v213l343 307h-331v180h624zM418 896h160l-125 -156h-220l-125 156h160l75 -94z" />
    <glyph glyph-name="zcaron" unicode="&#x17e;" horiz-adv-x="613" 
d="M322 154v-4h256v-150h-543v214l263 156v4h-254v150h527v-209zM376 754h144l-114 -164h-200l-114 164h144l70 -100z" />
    <glyph glyph-name="uni018F" unicode="&#x18f;" horiz-adv-x="800" 
d="M20 430h473q-10 50 -58 79t-126 29q-60 0 -116 -10.5t-98 -30.5v189q72 15 132.5 20.5t107.5 5.5q107 0 181.5 -22.5t124 -58t77.5 -78t42 -83t17 -73t3 -47.5q0 -84 -26 -151t-76 -114t-122.5 -72t-165.5 -25q-181 0 -275.5 89.5t-94.5 272.5v80zM390 156q28 0 46.5 11
t30.5 29t18.5 41.5t9.5 48.5h-210q1 -24 7 -47.5t18.5 -41.5t32 -29.5t47.5 -11.5z" />
    <glyph glyph-name="florin" unicode="&#x192;" 
d="M140 -231q-10 0 -33 1.5t-57 9.5v145q11 -5 23 -5.5t21 -0.5q10 0 20 3.5t21.5 17.5t23.5 42t25 78l63 245h-121v150h160q11 41 26 86.5t43 83.5t74 62.5t118 24.5q18 0 39.5 -2.5t63.5 -16.5v-140q-3 2 -16 5.5t-36 3.5t-38.5 -9.5t-26 -24.5t-17.5 -34t-12 -39h112
v-150h-151l-63 -245q-12 -45 -31 -96.5t-50 -94.5t-75.5 -71.5t-105.5 -28.5z" />
    <glyph glyph-name="uni01CF" unicode="&#x1cf;" horiz-adv-x="378" 
d="M323 700v-700h-268v700h268zM265 896h160l-125 -156h-220l-125 156h160l75 -94z" />
    <glyph glyph-name="uni01D0" unicode="&#x1d0;" horiz-adv-x="352" 
d="M50 524h252v-524h-252v524zM247 754h144l-114 -164h-200l-114 164h144l70 -100z" />
    <glyph glyph-name="uni01DD" unicode="&#x1dd;" horiz-adv-x="637" 
d="M370 318q-1 16 -6 31.5t-19 28t-39 20.5t-64 8q-48 0 -92 -9.5t-92 -26.5v136q64 17 123 23.5t113 6.5q69 0 119.5 -13.5t87 -35.5t59.5 -51t36 -60.5t18 -63.5t5 -59q0 -62 -22.5 -111t-62.5 -83t-96 -52.5t-122 -18.5q-48 0 -100.5 12t-96 44t-71.5 88.5t-28 145.5v40
h350zM240 211v-4q0 -28 6 -46.5t16 -29t21 -14.5t22 -4q7 0 18 2.5t21.5 12t18 28t7.5 50.5v5h-130z" />
    <glyph glyph-name="Gcaron" unicode="&#x1e6;" horiz-adv-x="783" 
d="M733 26q-56 -17 -126 -27.5t-164 -10.5q-88 0 -153.5 17t-112.5 45.5t-77.5 66t-48 78.5t-24.5 82t-7 78q0 15 3 47.5t17 72t42 81.5t77.5 76.5t124 57t181.5 22.5q47 0 107.5 -5.5t132.5 -20.5v-189q-21 11 -67 26t-118 15q-50 0 -91 -13.5t-70 -39.5t-45 -64.5
t-16 -89.5q0 -47 13.5 -79t36 -52t50 -29t56.5 -9q18 0 30 2t18 4v167h231v-309zM530 896h160l-125 -156h-220l-125 156h160l75 -94z" />
    <glyph glyph-name="gcaron" unicode="&#x1e7;" horiz-adv-x="713" 
d="M56 -27q48 -28 99 -41t99 -13q57 0 90 16t49.5 38.5t21 48t4.5 44.5v21q-31 -42 -75.5 -64.5t-98.5 -22.5q-42 0 -82.5 14t-72 45t-50.5 80.5t-19 120.5q0 68 17.5 119.5t48 86.5t71.5 52.5t89 17.5q26 0 53 -6t50.5 -19t42 -33.5t28.5 -50.5h4v97h238v-448q0 -28 -3 -62
t-14 -68t-32.5 -66t-58.5 -56.5t-92.5 -39.5t-133.5 -15q-105 0 -171.5 12t-101.5 23v169zM355 376q-20 0 -32.5 -8.5t-19.5 -23.5t-9.5 -34.5t-2.5 -41.5t2.5 -41.5t9.5 -34.5t19.5 -23.5t32.5 -8.5t32.5 8.5t19.5 23.5t9.5 34.5t2.5 41.5t-2.5 41.5t-9.5 34.5t-19.5 23.5
t-32.5 8.5zM426 754h144l-114 -164h-200l-114 164h144l70 -100z" />
    <glyph glyph-name="Scommaaccent" unicode="&#x218;" horiz-adv-x="689" 
d="M618 508q-34 13 -84.5 24.5t-123.5 11.5q-20 0 -40.5 -1t-37 -5.5t-27 -14t-10.5 -26.5q0 -12 7.5 -20.5t19.5 -13.5t27.5 -8.5t32.5 -6.5q46 -9 96 -20.5t91.5 -35t68 -63.5t26.5 -106q0 -30 -10.5 -70t-46 -77t-103 -62.5t-182.5 -25.5q-53 0 -129 6t-160 27v182
q76 -30 137 -38.5t104 -8.5q18 0 39 1.5t39 7t30 15t12 25.5t-10.5 25.5t-27 15.5t-37 9.5t-39.5 7.5q-38 8 -82.5 19.5t-83 35t-64 63t-25.5 104.5q0 37 14.5 77t54.5 73.5t110.5 55t181.5 21.5q55 0 112 -5t120 -19v-180zM459 -50l-78 -210h-180l44 210h214z" />
    <glyph glyph-name="scommaaccent" unicode="&#x219;" horiz-adv-x="568" 
d="M37 162q33 -14 81.5 -28t104.5 -14q49 0 70.5 9.5t21.5 25.5q0 13 -10 19.5t-24 9.5t-30.5 4.5t-28.5 3.5q-41 7 -78 17.5t-65 29t-45 47t-17 72.5q0 36 14 68t48.5 56.5t92 39t144.5 14.5q36 0 82 -4t107 -18v-138q-42 14 -84 21t-81 7q-14 0 -29.5 -1t-28 -4.5
t-21 -10.5t-8.5 -19q0 -16 19.5 -22t61.5 -10q34 -3 72 -10t70 -24t53.5 -47t21.5 -80q0 -25 -10.5 -57.5t-43 -61.5t-91.5 -49t-156 -20q-32 0 -89 5.5t-124 24.5v144zM379 -50l-78 -210h-180l44 210h214z" />
    <glyph glyph-name="Tcommaaccent" unicode="&#x21a;" horiz-adv-x="760" 
d="M750 700v-207h-236v-493h-268v493h-236v207h740zM489 -50l-78 -210h-180l44 210h214z" />
    <glyph glyph-name="tcommaaccent" unicode="&#x21b;" horiz-adv-x="463" 
d="M89 524v128l252 75v-203h114v-150h-114v-149q0 -6 1 -17.5t6.5 -23t17 -20t33.5 -8.5q11 0 22.5 2t33.5 8v-151q-20 -8 -58.5 -17.5t-98.5 -9.5q-70 0 -111.5 19t-63 48.5t-28 65.5t-6.5 71v182h-89v150h89zM399 -50l-78 -210h-180l44 210h214z" />
    <glyph glyph-name="uni0259" unicode="&#x259;" horiz-adv-x="637" 
d="M370 318q-1 16 -6 31.5t-19 28t-39 20.5t-64 8q-48 0 -92 -9.5t-92 -26.5v136q64 17 123 23.5t113 6.5q69 0 119.5 -13.5t87 -35.5t59.5 -51t36 -60.5t18 -63.5t5 -59q0 -62 -22.5 -111t-62.5 -83t-96 -52.5t-122 -18.5q-48 0 -100.5 12t-96 44t-71.5 88.5t-28 145.5v40
h350zM240 211v-4q0 -28 6 -46.5t16 -29t21 -14.5t22 -4q7 0 18 2.5t21.5 12t18 28t7.5 50.5v5h-130z" />
    <glyph glyph-name="afii57929" unicode="&#x2bc;" horiz-adv-x="296" 
d="M275 754l-74 -194h-180l40 194h214z" />
    <glyph glyph-name="circumflex" unicode="&#x2c6;" horiz-adv-x="528" 
d="M194 590h-144l114 164h200l114 -164h-144l-70 100z" />
    <glyph glyph-name="caron" unicode="&#x2c7;" horiz-adv-x="528" 
d="M334 754h144l-114 -164h-200l-114 164h144l70 -100z" />
    <glyph glyph-name="uni02C9" unicode="&#x2c9;" horiz-adv-x="514" 
d="M50 625v104h414v-104h-414z" />
    <glyph glyph-name="breve" unicode="&#x2d8;" horiz-adv-x="492" 
d="M442 754q-2 -41 -18 -71.5t-42 -51t-61 -31t-75 -10.5t-75 10.5t-61 31t-42 51t-18 71.5h110q4 -20 16 -31t26 -16t26.5 -6t17.5 -1t17.5 1t26.5 6t26 16t16 31h110z" />
    <glyph glyph-name="dotaccent" unicode="&#x2d9;" horiz-adv-x="402" 
d="M327 754v-164h-252v164h252z" />
    <glyph glyph-name="ring" unicode="&#x2da;" horiz-adv-x="336" 
d="M120 676q0 -20 14 -34t34 -14t34 14t14 34t-14 34t-34 14t-34 -14t-14 -34zM50 676q0 24 9.5 45.5t25.5 37.5t37.5 25.5t45.5 9.5t45.5 -9.5t37.5 -25.5t25.5 -37.5t9.5 -45.5t-9.5 -45.5t-25.5 -37.5t-37.5 -25.5t-45.5 -9.5t-45.5 9.5t-37.5 25.5t-25.5 37.5t-9.5 45.5
z" />
    <glyph glyph-name="ogonek" unicode="&#x2db;" horiz-adv-x="330" 
d="M303 0q-11 -5 -26 -12.5t-30.5 -16.5t-29.5 -20t-24 -21q-14 -15 -20.5 -31t-6.5 -31q0 -25 17 -37.5t40 -12.5q11 0 28.5 4.5t28.5 8.5l14 -64q-14 -5 -40.5 -11.5t-61.5 -6.5q-46 0 -74 11.5t-43.5 28t-20.5 34.5t-5 32q0 25 12.5 48t33.5 42t48 33t56 22h104z" />
    <glyph glyph-name="tilde" unicode="&#x2dc;" horiz-adv-x="540" 
d="M50 594v16q0 33 10 59t27.5 44t41 27.5t50.5 9.5q23 0 42 -4.5t36 -9.5l29 -8q26 -7 39.5 -10.5t24.5 -3.5q20 0 31.5 10t13.5 26h95v-15q0 -29 -9 -54.5t-26 -44.5t-43 -30.5t-59 -11.5q-23 0 -43.5 4.5t-35.5 9.5l-32 11q-9 3 -24.5 7.5t-28.5 4.5q-17 0 -29.5 -9.5
t-14.5 -27.5h-95z" />
    <glyph glyph-name="hungarumlaut" unicode="&#x2dd;" horiz-adv-x="596" 
d="M374 754l-194 -164h-130l112 164h212zM626 754l-194 -164h-130l112 164h212z" />
    <glyph glyph-name="gravecomb" unicode="&#x300;" horiz-adv-x="2" 
d="M-316 754l100 -164h-140l-196 164h236z" />
    <glyph glyph-name="acutecomb" unicode="&#x301;" horiz-adv-x="2" 
d="M-88 754l-196 -164h-140l100 164h236z" />
    <glyph glyph-name="uni037E" unicode="&#x37e;" horiz-adv-x="370" 
d="M304 193l-115 -306h-159l62 306h212zM294 523v-193h-218v193h218z" />
    <glyph glyph-name="uni0394" unicode="&#x394;" horiz-adv-x="838" 
d="M267 700h304l249 -700h-802zM351 200h136l-68 262z" />
    <glyph glyph-name="uni03A9" unicode="&#x3a9;" horiz-adv-x="850" 
d="M425 512q-69 0 -103.5 -39.5t-34.5 -108.5q0 -10 3 -28t14 -38t31.5 -38t56.5 -27v-233h-329v176h161v24q-42 7 -77 26.5t-60.5 48.5t-40 66.5t-14.5 81.5q0 61 26.5 113.5t77 91.5t123.5 61.5t166 22.5t166 -22.5t123.5 -61.5t77 -91.5t26.5 -113.5q0 -44 -14.5 -81.5
t-40 -66.5t-60.5 -48.5t-77 -26.5v-24h161v-176h-329v233q36 9 56.5 27t31.5 38t14 38t3 28q0 69 -34.5 108.5t-103.5 39.5z" />
    <glyph glyph-name="uni03BC" unicode="&#x3bc;" horiz-adv-x="685" 
d="M639 0h-238v90h-2q-11 -32 -36.5 -56.5t-64.5 -33.5v-222h-252v746h252v-303q0 -11 0.5 -23.5t4.5 -23t13 -17.5t26 -7t26.5 7t13.5 18t4.5 23t0.5 23v303h252v-524z" />
    <glyph glyph-name="pi" unicode="&#x3c0;" horiz-adv-x="898" 
d="M212 0v374h-6q-3 0 -11.5 -0.5t-19.5 -3.5t-23 -9.5t-24 -17.5l-78 119q38 39 84.5 50t99.5 11l614 1v-150h-55v-374h-252v374h-77v-374h-252z" />
    <glyph glyph-name="afii10023" unicode="&#x401;" 
d="M661 700v-165h-343v-101h328v-160h-328v-109h350v-165h-618v700h611zM319 896v-156h-180v156h180zM583 896v-156h-180v156h180z" />
    <glyph glyph-name="afii10051" unicode="&#x402;" horiz-adv-x="909" 
d="M710 700v-197h-246v-84q48 13 85.5 17.5t74.5 4.5q84 0 136 -24t80.5 -60t38.5 -76.5t10 -73.5q0 -41 -13.5 -80.5t-43 -70t-77 -49.5t-114.5 -19q-32 0 -67 5.5t-61 12.5v149q21 -6 27 -5.5t15 0.5q4 0 15 1t22.5 7t20 19t8.5 36q0 35 -21 50.5t-49 15.5q-22 0 -46 -5.5
t-41 -13.5v-260h-268v493h-186v207h700z" />
    <glyph glyph-name="afii10052" unicode="&#x403;" horiz-adv-x="633" 
d="M623 700v-200h-305v-500h-268v700h573zM630 896l-216 -156h-154l110 156h260z" />
    <glyph glyph-name="afii10053" unicode="&#x404;" horiz-adv-x="679" 
d="M551 283h-242q2 -7 9.5 -25.5t27 -38t53 -34.5t87.5 -15q4 0 18.5 0.5t36.5 3.5t49.5 9.5t58.5 18.5v-186q-42 -11 -93.5 -19.5t-107.5 -8.5q-113 0 -192 32t-129.5 83.5t-73.5 116t-23 130.5q0 34 7 74.5t24.5 80.5t47.5 77.5t77.5 66t113.5 46t155 17.5q30 0 73 -3
t106 -16l15 -3v-185q-25 10 -49.5 16.5t-45.5 10t-37 4.5t-25 1q-51 0 -84 -12.5t-53.5 -29.5t-31 -36.5t-14.5 -32.5h242v-143z" />
    <glyph glyph-name="afii10054" unicode="&#x405;" horiz-adv-x="689" 
d="M618 508q-34 13 -84.5 24.5t-123.5 11.5q-20 0 -40.5 -1t-37 -5.5t-27 -14t-10.5 -26.5q0 -12 7.5 -20.5t19.5 -13.5t27.5 -8.5t32.5 -6.5q46 -9 96 -20.5t91.5 -35t68 -63.5t26.5 -106q0 -30 -10.5 -70t-46 -77t-103 -62.5t-182.5 -25.5q-53 0 -129 6t-160 27v182
q76 -30 137 -38.5t104 -8.5q18 0 39 1.5t39 7t30 15t12 25.5t-10.5 25.5t-27 15.5t-37 9.5t-39.5 7.5q-38 8 -82.5 19.5t-83 35t-64 63t-25.5 104.5q0 37 14.5 77t54.5 73.5t110.5 55t181.5 21.5q55 0 112 -5t120 -19v-180z" />
    <glyph glyph-name="afii10055" unicode="&#x406;" horiz-adv-x="378" 
d="M323 700v-700h-268v700h268z" />
    <glyph glyph-name="afii10056" unicode="&#x407;" horiz-adv-x="424" 
d="M346 700v-700h-268v700h268zM186 896v-156h-160v156h160zM398 896v-156h-160v156h160z" />
    <glyph glyph-name="afii10057" unicode="&#x408;" horiz-adv-x="482" 
d="M432 700v-479q0 -56 -15.5 -95.5t-40.5 -65t-55 -40t-58.5 -22t-52.5 -9t-36 -1.5q-29 0 -69.5 4.5t-100.5 20.5v190q28 -10 48 -11.5t26 -1.5q8 0 22.5 2t28.5 11.5t24.5 28.5t10.5 52v416h268z" />
    <glyph glyph-name="afii10058" unicode="&#x409;" horiz-adv-x="1250" 
d="M120 -12q-17 0 -36 2.5t-36 5.5q-19 4 -38 9v180q8 -2 17 -4q8 -2 16.5 -2.5t16.5 -0.5q25 0 43 9t30 42t17.5 97t5.5 174v200h633v-202h150q73 0 126.5 -20t87.5 -54.5t50.5 -79.5t16.5 -95t-16.5 -95t-50.5 -79.5t-87.5 -54.5t-126.5 -20h-418v510h-130v-10
q0 -166 -14 -266.5t-46 -155t-84 -72.5t-127 -18zM950 249q0 16 -5 31.5t-18 28t-35 20t-56 7.5h-54v-174h53q10 0 29.5 2t38.5 10t33 25.5t14 49.5z" />
    <glyph glyph-name="afii10059" unicode="&#x40a;" horiz-adv-x="1226" 
d="M497 279h-179v-279h-268v700h268v-221h179v221h268v-220h128q74 0 130.5 -18.5t95 -51t58 -76t19.5 -94.5t-19.5 -94.5t-58 -76t-95 -51t-130.5 -18.5h-396v279zM815 162q66 0 89.5 19t23.5 59t-23.5 59t-89.5 19h-57v-156h57z" />
    <glyph glyph-name="afii10060" unicode="&#x40b;" horiz-adv-x="939" 
d="M710 700v-197h-246v-84q38 9 80 15.5t80 6.5q64 0 108.5 -12.5t74 -32t46 -44.5t24.5 -49.5t10 -46.5t2 -37v-219h-268v193q0 22 -8 34t-19 18t-23 7.5t-20 1.5q-11 0 -35.5 -3t-51.5 -16v-235h-268v493h-186v207h700z" />
    <glyph glyph-name="afii10061" unicode="&#x40c;" horiz-adv-x="809" 
d="M318 425h4l165 275h305l-236 -328l258 -372h-320l-172 297h-4v-297h-268v700h268v-275zM680 896l-216 -156h-154l110 156h260z" />
    <glyph glyph-name="afii10062" unicode="&#x40e;" horiz-adv-x="739" 
d="M291 700l98 -303h4l96 303h264l-223 -529q-12 -28 -30 -60t-47 -59.5t-73.5 -45.5t-108.5 -18q-18 0 -40 1.5t-46 4.5t-48.5 7.5t-46.5 10.5v177q32 -10 53.5 -13t36.5 -3q6 0 14.5 0.5t16 3.5t12.5 8t5 14q0 5 -2 15.5t-14 33.5l-226 452h305zM390 730q-106 0 -156 40
t-54 122l125 18q4 -44 24.5 -58t60.5 -14t60.5 14t24.5 58l125 -18q-4 -82 -54 -122t-156 -40z" />
    <glyph glyph-name="afii10145" unicode="&#x40f;" horiz-adv-x="808" 
d="M50 700h268v-510h172v510h268v-700h-220v-150h-268v150h-220v700z" />
    <glyph glyph-name="afii10017" unicode="&#x410;" horiz-adv-x="825" 
d="M591 700l249 -700h-282l-48 151h-210l-47 -151h-268l245 700h361zM403 534l-72 -219h149l-73 219h-4z" />
    <glyph glyph-name="afii10018" unicode="&#x411;" horiz-adv-x="782" 
d="M673 700v-175h-355v-97h163q73 0 123.5 -18.5t82 -49t45.5 -69t14 -77.5q0 -36 -12 -74t-44.5 -69t-88.5 -51t-144 -20h-407v700h623zM311 142h78q38 0 60.5 21.5t22.5 52.5q0 27 -21.5 50.5t-66.5 23.5h-73v-148z" />
    <glyph glyph-name="afii10019" unicode="&#x412;" horiz-adv-x="782" 
d="M471 700q82 0 133 -19.5t79 -47.5t37.5 -59.5t9.5 -55.5q0 -60 -38 -104.5t-104 -56.5v-4q26 -4 54 -15t51 -30.5t38 -49.5t15 -71q0 -44 -15 -75t-40 -52t-56 -33t-63.5 -18t-62.5 -7.5t-52 -1.5h-407v700h421zM304 423h63q34 0 54.5 8t30.5 18.5t13 22t3 19.5
q0 11 -4.5 23t-15.5 21.5t-29 16t-46 6.5h-69v-135zM304 142h68q32 0 52 7.5t30.5 19t14 24t3.5 21.5q0 27 -13.5 41t-31 21t-35 8t-26.5 1h-62v-143z" />
    <glyph glyph-name="afii10020" unicode="&#x413;" horiz-adv-x="633" 
d="M623 700v-200h-305v-500h-268v700h573z" />
    <glyph glyph-name="afii10021" unicode="&#x414;" horiz-adv-x="887" 
d="M793 700v-513h74v-342h-268v155h-311v-155h-268v342h54q36 36 55.5 73.5t28.5 74.5t10.5 73t1.5 68v224h623zM406 520v-85q0 -70 -13 -130t-56 -118h188v333h-119z" />
    <glyph glyph-name="afii10022" unicode="&#x415;" 
d="M661 700v-165h-343v-101h328v-160h-328v-109h350v-165h-618v700h611z" />
    <glyph glyph-name="afii10024" unicode="&#x416;" horiz-adv-x="1234" 
d="M488 0v317h-6l-157 -317h-320l250 372l-220 328h290l157 -295h6v295h258v-295h6l157 295h290l-220 -328l250 -372h-320l-157 317h-6v-317h-258z" />
    <glyph glyph-name="afii10025" unicode="&#x417;" horiz-adv-x="679" 
d="M146 426h127q12 0 29 1.5t33.5 7t28 17.5t11.5 33q0 20 -12.5 31.5t-31 17.5t-39.5 8t-37 2q-47 0 -100 -8.5t-107 -27.5v177q63 14 126.5 20.5t138.5 6.5q108 0 172.5 -21t99 -52t45 -66.5t10.5 -64.5q0 -26 -8.5 -51t-25.5 -45.5t-42.5 -35.5t-59.5 -19v-4
q31 -3 59.5 -14.5t50.5 -31t35 -47t13 -61.5q0 -21 -5.5 -45t-20 -47.5t-40 -45t-65.5 -38t-97 -26t-134 -9.5q-54 0 -117.5 5.5t-152.5 27.5v182q54 -22 116 -34.5t122 -12.5q35 0 57 6.5t34 16.5t16.5 21t4.5 20q0 11 -4 23t-15.5 22t-32 16.5t-52.5 6.5h-130v138z" />
    <glyph glyph-name="afii10026" unicode="&#x418;" horiz-adv-x="862" 
d="M318 700v-400h4l177 400h313v-700h-268v392h-4l-177 -392h-313v700h268z" />
    <glyph glyph-name="afii10027" unicode="&#x419;" horiz-adv-x="862" 
d="M318 700v-400h4l177 400h313v-700h-268v392h-4l-177 -392h-313v700h268zM431 730q-106 0 -156 40t-54 122l125 18q4 -44 24.5 -58t60.5 -14t60.5 14t24.5 58l125 -18q-4 -82 -54 -122t-156 -40z" />
    <glyph glyph-name="afii10028" unicode="&#x41a;" horiz-adv-x="809" 
d="M318 425h4l165 275h305l-236 -328l258 -372h-320l-172 297h-4v-297h-268v700h268v-275z" />
    <glyph glyph-name="afii10029" unicode="&#x41b;" horiz-adv-x="839" 
d="M120 -12q-17 0 -36 2.5t-36 5.5q-19 4 -38 9v180q8 -2 17 -4q8 -2 16.5 -2.5t16.5 -0.5q25 0 43 9t30 42t17.5 97t5.5 174v200h633v-700h-268v510h-130v-10q0 -166 -14 -266.5t-46 -155t-84 -72.5t-127 -18z" />
    <glyph glyph-name="afii10030" unicode="&#x41c;" horiz-adv-x="980" 
d="M50 700h342l103 -320l103 320h332v-700h-240v430h-4l-91 -260h-210l-91 260h-4v-430h-240v700z" />
    <glyph glyph-name="afii10031" unicode="&#x41d;" horiz-adv-x="815" 
d="M497 700h268v-700h-268v258h-179v-258h-268v700h268v-242h179v242z" />
    <glyph glyph-name="afii10032" unicode="&#x41e;" horiz-adv-x="820" 
d="M410 712q93 0 165.5 -25t122.5 -72t76 -114t26 -151t-26 -151t-76 -114t-122.5 -72t-165.5 -25t-165.5 25t-122.5 72t-76 114t-26 151t26 151t76 114t122.5 72t165.5 25zM410 544q-38 0 -59.5 -20t-32.5 -49.5t-13.5 -63.5t-2.5 -61t2.5 -61t13.5 -63.5t32.5 -49.5
t59.5 -20t59.5 20t32.5 49.5t13.5 63.5t2.5 61t-2.5 61t-13.5 63.5t-32.5 49.5t-59.5 20z" />
    <glyph glyph-name="afii10033" unicode="&#x41f;" horiz-adv-x="811" 
d="M761 700v-700h-268v510h-175v-510h-268v700h711z" />
    <glyph glyph-name="afii10034" unicode="&#x420;" horiz-adv-x="792" 
d="M460 700q79 0 136.5 -21t94.5 -56.5t54.5 -80.5t17.5 -93q0 -42 -16 -86t-51.5 -79.5t-92 -58.5t-138.5 -23h-147v-202h-268v700h410zM311 364h59q12 0 32.5 1.5t41 10t35 26t14.5 49.5q0 15 -5 30.5t-18.5 28t-38 20.5t-62.5 8h-58v-174z" />
    <glyph glyph-name="afii10035" unicode="&#x421;" horiz-adv-x="654" 
d="M634 16q-61 -17 -109.5 -22.5t-86.5 -5.5q-102 0 -180 27t-131 75t-80 114.5t-27 145.5q0 67 22.5 132t73 116t131.5 82.5t198 31.5q60 0 103.5 -7t67.5 -12l16 -3v-185q-29 11 -64.5 19t-76.5 8q-43 0 -78 -13.5t-59.5 -37t-38 -55.5t-13.5 -70q0 -24 6.5 -55.5
t27.5 -59.5t59 -47t101 -19q20 0 52 5t86 22v-186z" />
    <glyph glyph-name="afii10036" unicode="&#x422;" horiz-adv-x="760" 
d="M750 700v-207h-236v-493h-268v493h-236v207h740z" />
    <glyph glyph-name="afii10037" unicode="&#x423;" horiz-adv-x="739" 
d="M291 700l98 -303h4l96 303h264l-223 -529q-12 -28 -30 -60t-47 -59.5t-73.5 -45.5t-108.5 -18q-18 0 -40 1.5t-46 4.5t-48.5 7.5t-46.5 10.5v177q32 -10 53.5 -13t36.5 -3q6 0 14.5 0.5t16 3.5t12.5 8t5 14q0 5 -2 15.5t-14 33.5l-226 452h305z" />
    <glyph glyph-name="afii10038" unicode="&#x424;" horiz-adv-x="1000" 
d="M366 75h-41q-67 0 -123 20t-96.5 56.5t-63 89.5t-22.5 119q0 58 19 109.5t57.5 90.5t95.5 62t132 23h42v87h268v-87h42q75 0 132 -23t95.5 -62t57.5 -90.5t19 -109.5q0 -66 -22.5 -119t-63 -89.5t-96.5 -56.5t-123 -20h-41v-87h-268v87zM730 360q0 62 -26.5 92t-66.5 30
h-15v-247h16q39 0 65.5 30.5t26.5 94.5zM270 360q0 -64 26.5 -94.5t65.5 -30.5h16v247h-15q-40 0 -66.5 -30t-26.5 -92z" />
    <glyph glyph-name="afii10039" unicode="&#x425;" horiz-adv-x="835" 
d="M19 700h310l101 -207h4l111 207h283l-234 -341l252 -359h-312l-128 237h-4l-121 -237h-292l248 359z" />
    <glyph glyph-name="afii10040" unicode="&#x426;" horiz-adv-x="855" 
d="M50 700h268v-500h175v500h268v-500h74v-350h-268v150h-517v700z" />
    <glyph glyph-name="afii10041" unicode="&#x427;" horiz-adv-x="798" 
d="M480 700h268v-700h-268v241q-4 -1 -20.5 -4.5t-40.5 -7.5t-54 -7t-60 -3q-64 0 -108.5 12t-74 32t-46 44.5t-24.5 49t-10 47t-2 37.5v259h268v-223q0 -21 9 -33t21 -18t24.5 -7.5t20.5 -1.5q14 0 38.5 3t58.5 15v265z" />
    <glyph glyph-name="afii10042" unicode="&#x428;" horiz-adv-x="1124" 
d="M691 700v-500h125v500h258v-700h-1024v700h258v-500h125v500h258z" />
    <glyph glyph-name="afii10043" unicode="&#x429;" horiz-adv-x="1148" 
d="M308 700v-500h115v500h258v-500h115v500h258v-500h74v-350h-258v150h-820v700h258z" />
    <glyph glyph-name="afii10044" unicode="&#x42a;" horiz-adv-x="856" 
d="M120 500h-110v200h378v-202h151q75 0 129 -20t89.5 -54.5t52 -79.5t16.5 -95t-16.5 -95t-52 -79.5t-89.5 -54.5t-129 -20h-419v500zM435 162q14 0 34.5 2t40 10.5t33 26t13.5 48.5q0 32 -15 49.5t-34.5 26t-40 10t-30.5 1.5h-55v-174h54z" />
    <glyph glyph-name="afii10045" unicode="&#x42b;" horiz-adv-x="1122" 
d="M50 700h268v-202h147q74 0 127.5 -20t88.5 -54.5t51.5 -79.5t16.5 -95t-16.5 -95t-51.5 -79.5t-88.5 -54.5t-127.5 -20h-415v700zM365 162q10 0 29 2t38 10t33 25.5t14 49.5q0 16 -5 31.5t-18 28t-34.5 20t-55.5 7.5h-55v-174h54zM1072 700v-700h-268v700h268z" />
    <glyph glyph-name="afii10046" unicode="&#x42c;" horiz-adv-x="786" 
d="M50 700h268v-202h151q75 0 129 -20t89.5 -54.5t52 -79.5t16.5 -95t-16.5 -95t-52 -79.5t-89.5 -54.5t-129 -20h-419v700zM365 162q14 0 34.5 2t40 10.5t33 26t13.5 48.5q0 32 -15 49.5t-34.5 26t-40 10t-30.5 1.5h-55v-174h54z" />
    <glyph glyph-name="afii10047" unicode="&#x42d;" horiz-adv-x="679" 
d="M380 426q-5 13 -15 32.5t-30.5 36.5t-53.5 29.5t-84 12.5q-9 0 -25 -1t-37 -4.5t-45.5 -10t-49.5 -16.5v185l15 3q63 13 106 16t73 3q89 0 155 -17.5t113.5 -46t77.5 -66t47.5 -77.5t24.5 -80.5t7 -74.5q0 -66 -23 -130.5t-73.5 -116t-130 -83.5t-191.5 -32
q-56 0 -107.5 8.5t-93.5 19.5v186q31 -12 58.5 -18.5t49.5 -9.5t36 -3.5t19 -0.5q54 0 87.5 15t53 34.5t27 38t9.5 25.5h-242v143h242z" />
    <glyph glyph-name="afii10048" unicode="&#x42e;" horiz-adv-x="1174" 
d="M399 458q11 63 44.5 111t82.5 79.5t110.5 47.5t127.5 16q93 0 165.5 -25t122.5 -72t76 -114t26 -151t-26 -151t-76 -114t-122.5 -72t-165.5 -25q-73 0 -136.5 18.5t-112 53t-80 84.5t-39.5 114h-78v-258h-268v700h268v-242h81zM764 544q-38 0 -59.5 -20t-32.5 -49.5
t-13.5 -63.5t-2.5 -61t2.5 -61t13.5 -63.5t32.5 -49.5t59.5 -20t59.5 20t32.5 49.5t13.5 63.5t2.5 61t-2.5 61t-13.5 63.5t-32.5 49.5t-59.5 20z" />
    <glyph glyph-name="afii10049" unicode="&#x42f;" horiz-adv-x="788" 
d="M162 273q-63 30 -94 80t-31 112q0 51 18.5 94t55.5 74.5t91 49t126 17.5h410v-700h-268v240h-78l-104 -240h-271zM305 465q0 -18 5 -31.5t18 -23t34.5 -14t53.5 -4.5h64v146h-64q-32 0 -53.5 -4.5t-34.5 -14t-18 -23t-5 -31.5z" />
    <glyph glyph-name="afii10065" unicode="&#x430;" horiz-adv-x="650" 
d="M384 64h-4q-19 -25 -42 -40t-47 -23t-48 -10.5t-45 -2.5q-47 0 -81.5 12.5t-57 33.5t-33.5 49.5t-11 61.5q0 67 33.5 104.5t84 54.5t108.5 20.5t108 3.5h35v16q0 21 -12 33.5t-30 19t-39.5 9t-40.5 2.5q-2 0 -17.5 -1t-40.5 -5t-57.5 -12t-67.5 -23v137q60 16 125.5 24
t121.5 8q52 0 104 -9.5t92.5 -32.5t66 -62t25.5 -98v-334h-230v64zM371 228q-14 0 -33.5 -0.5t-38 -6t-31.5 -18.5t-13 -38q0 -22 16.5 -36t42.5 -14t48 19.5t22 64.5v29h-13z" />
    <glyph glyph-name="afii10066" unicode="&#x431;" horiz-adv-x="705" 
d="M355 -12q-28 0 -63.5 3t-72 14.5t-71.5 34.5t-62.5 62.5t-44 98t-16.5 141.5q0 118 32 199.5t103 129.5q36 24 74.5 37t79.5 19.5t83.5 9.5t86.5 8q41 4 73.5 11t70.5 24v-181q-34 -18 -62 -24t-60 -9q-65 -6 -114 -7.5t-93 -15.5q-36 -12 -57.5 -29.5t-33 -37t-14.5 -38
t-3 -31.5v-15h7q10 15 26 32t40 30.5t57.5 22.5t79.5 9q65 0 117 -17t88 -48.5t55 -76.5t19 -102q0 -70 -28.5 -118.5t-74 -78.5t-104 -43.5t-118.5 -13.5zM355 138q19 0 30.5 10t16.5 25t6.5 33.5t1.5 35.5t-1.5 35.5t-6.5 33.5t-16.5 25t-30.5 10q-20 0 -31 -10t-16 -25
t-6.5 -33.5t-1.5 -35.5t1.5 -35.5t6.5 -33.5t16 -25t31 -10z" />
    <glyph glyph-name="afii10067" unicode="&#x432;" horiz-adv-x="662" 
d="M440 524q31 0 60 -7.5t51.5 -23t36 -39.5t13.5 -57t-12 -54.5t-28 -35.5t-33 -20.5t-27 -9.5v-3q15 -2 36.5 -8.5t41 -21t33.5 -39t14 -61.5q0 -66 -50.5 -105t-138.5 -39h-387v524h390zM280 320h31q9 0 20.5 1t22 5.5t17.5 14t7 26.5q0 28 -21 36.5t-46 8.5h-31v-92z
M280 112h36q10 0 22.5 1.5t23.5 6.5t18.5 15.5t7.5 28.5t-8 28.5t-19.5 16t-23.5 6.5t-21 1h-36v-104z" />
    <glyph glyph-name="afii10068" unicode="&#x433;" horiz-adv-x="501" 
d="M486 524v-150h-184v-374h-252v524h436z" />
    <glyph glyph-name="afii10069" unicode="&#x434;" horiz-adv-x="739" 
d="M651 150h71v-295h-228v145h-251v-145h-228v295h62q23 22 36 47t19 51.5t7 52.5t1 51v172h511v-374zM423 374h-84v-55q0 -40 -6.5 -83t-37.5 -86h128v224z" />
    <glyph glyph-name="afii10070" unicode="&#x435;" horiz-adv-x="633" 
d="M266 201q1 -14 6.5 -28.5t19.5 -26.5t38.5 -20t63.5 -8q48 0 92 9.5t92 26.5v-136q-64 -17 -123 -23.5t-113 -6.5q-103 0 -166.5 28.5t-99 71.5t-47.5 92.5t-12 90.5q0 61 22.5 110.5t62.5 83.5t96 52.5t122 18.5q48 0 100 -12t95.5 -44t72 -88.5t28.5 -145.5v-45h-350z
M396 308v9q0 28 -6 46.5t-16 29t-21.5 14.5t-21.5 4q-7 0 -18 -2.5t-21.5 -12t-18 -28t-7.5 -50.5v-10h130z" />
    <glyph glyph-name="afii10072" unicode="&#x436;" horiz-adv-x="1006" 
d="M390 0v231h-4l-127 -231h-249l166 267l-166 257h250l126 -229h4v229h226v-229h4l126 229h250l-166 -257l166 -267h-249l-127 231h-4v-231h-226z" />
    <glyph glyph-name="afii10073" unicode="&#x437;" horiz-adv-x="571" 
d="M129 317h98q22 0 35.5 4.5t20 11.5t8.5 14.5t2 12.5q0 19 -18 33.5t-68 14.5q-28 0 -74.5 -7t-100.5 -33v136q71 20 132 26t113 6q81 0 130.5 -15.5t77 -38t36.5 -48t9 -45.5q0 -18 -5 -35.5t-15.5 -33.5t-27 -27.5t-40.5 -17.5v-3q51 -6 81.5 -38.5t30.5 -78.5
q0 -25 -12 -54.5t-45 -54.5t-91.5 -41.5t-151.5 -16.5q-50 0 -105 5.5t-129 26.5v138q38 -16 85 -28.5t93 -12.5q27 0 44 5t27.5 13t14.5 17.5t4 18.5q0 16 -8 25.5t-19.5 14t-24 5.5t-22.5 1h-85v100z" />
    <glyph glyph-name="afii10074" unicode="&#x438;" horiz-adv-x="699" 
d="M649 524v-524h-230v245h-5l-115 -245h-249v524h230v-245h5l117 245h247z" />
    <glyph glyph-name="afii10075" unicode="&#x439;" horiz-adv-x="699" 
d="M649 524v-524h-230v245h-5l-115 -245h-249v524h230v-245h5l117 245h247zM349 580q-99 0 -147.5 42t-52.5 120l120 18q4 -40 24 -56t56 -16t56 16t24 56l120 -18q-4 -78 -52.5 -120t-147.5 -42z" />
    <glyph glyph-name="afii10076" unicode="&#x43a;" horiz-adv-x="733" 
d="M298 295h4l143 229h278l-180 -257l180 -267h-277l-144 231h-4v-231h-248v524h248v-229z" />
    <glyph glyph-name="afii10077" unicode="&#x43b;" horiz-adv-x="712" 
d="M125 -12q-25 0 -46 2.5t-38 5.5q-19 4 -36 9v140q5 -2 11 -4q10 -3 29 -3q16 0 26.5 6.5t17.5 30t10 69.5t3 126v154h560v-524h-252v374h-86v-4q0 -125 -9.5 -200t-33 -115.5t-61.5 -53.5t-95 -13z" />
    <glyph glyph-name="afii10078" unicode="&#x43c;" horiz-adv-x="800" 
d="M50 524h270l85 -274l85 274h260v-524h-200v288h-4l-58 -188h-176l-58 188h-4v-288h-200v524z" />
    <glyph glyph-name="afii10079" unicode="&#x43d;" horiz-adv-x="694" 
d="M302 524v-181h90v181h252v-524h-252v193h-90v-193h-252v524h252z" />
    <glyph glyph-name="afii10080" unicode="&#x43e;" horiz-adv-x="690" 
d="M345 536q75 0 135 -19t102 -54t65 -86t23 -115t-23 -115t-65 -86t-102 -54t-135 -19t-135 19t-102 54t-65 86t-23 115t23 115t65 86t102 54t135 19zM345 386q-20 0 -31.5 -12t-16.5 -30t-6 -40t-1 -42t1 -42t6 -40t16.5 -30t31.5 -12t31 12t16.5 30t6.5 40t1 42t-1 42
t-6.5 40t-16.5 30t-31 12z" />
    <glyph glyph-name="afii10081" unicode="&#x43f;" horiz-adv-x="694" 
d="M644 524v-524h-252v374h-90v-374h-252v524h594z" />
    <glyph glyph-name="afii10082" unicode="&#x440;" horiz-adv-x="711" 
d="M284 435h4q24 49 66.5 75t99.5 26q39 0 80.5 -12t76.5 -44t57.5 -87t22.5 -140q0 -73 -20 -123.5t-52.5 -82t-73.5 -45.5t-83 -14q-51 0 -91.5 19.5t-68.5 59.5v-286h-252v743h234v-89zM358 366q-21 0 -33.5 -11.5t-19 -29t-8.5 -36.5t-2 -34t2 -34t8.5 -36.5t19 -29
t33.5 -11.5t33.5 11.5t19 29t8.5 36.5t2 34t-2 34t-8.5 36.5t-19 29t-33.5 11.5z" />
    <glyph glyph-name="afii10083" unicode="&#x441;" horiz-adv-x="559" 
d="M532 14q-54 -17 -100.5 -21.5t-88.5 -4.5q-84 0 -145 22t-100.5 60t-59 88.5t-19.5 106.5q0 43 14 91t50.5 88t98.5 66t158 26q38 0 85.5 -5t102.5 -19v-150q-36 15 -63 19.5t-45 4.5q-57 0 -94 -32.5t-37 -92.5q0 -54 34.5 -88.5t95.5 -34.5q17 0 45 4.5t68 22.5v-151z
" />
    <glyph glyph-name="afii10084" unicode="&#x442;" horiz-adv-x="552" 
d="M542 524v-150h-140v-374h-252v374h-140v150h532z" />
    <glyph glyph-name="afii10085" unicode="&#x443;" horiz-adv-x="625" 
d="M248 524l72 -330h3l63 330h247l-177 -545q-14 -43 -34.5 -81t-52 -66.5t-76.5 -45.5t-107 -17q-35 0 -78.5 5t-84.5 15v146q17 -5 37.5 -7.5t39.5 -2.5q22 0 36 5t22.5 12.5t12 15t5.5 12.5l5 17l-194 537h261z" />
    <glyph glyph-name="afii10086" unicode="&#x444;" horiz-adv-x="940" 
d="M630 -12h-34v-208h-252v208h-34q-64 0 -117 15.5t-91.5 48.5t-60 84.5t-21.5 123.5q0 73 21.5 125.5t60 86t91.5 49t117 15.5h34v224h252v-224h34q64 0 117 -15.5t91.5 -49t60 -86t21.5 -125.5q0 -72 -21.5 -123.5t-60 -84.5t-91.5 -48.5t-117 -15.5zM340 386
q-15 0 -28 -6t-22 -20.5t-14.5 -38.5t-5.5 -61q0 -69 20 -95.5t50 -26.5h21v248h-21zM600 138q30 0 50 26.5t20 95.5q0 72 -20 99t-50 27h-21v-248h21z" />
    <glyph glyph-name="afii10087" unicode="&#x445;" horiz-adv-x="671" 
d="M267 524l69 -163h4l67 163h249l-146 -238l173 -286h-269l-81 176h-4l-82 -176h-259l172 282l-160 242h267z" />
    <glyph glyph-name="afii10088" unicode="&#x446;" horiz-adv-x="732" 
d="M50 524h252v-374h90v374h252v-374h71v-295h-228v145h-437v524z" />
    <glyph glyph-name="afii10089" unicode="&#x447;" horiz-adv-x="674" 
d="M624 524v-524h-252v184q-32 -9 -68.5 -14.5t-71.5 -5.5t-69.5 7.5t-61.5 26t-44 49.5t-17 78v199h252v-183q0 -4 0.5 -10t4.5 -12t12 -10.5t22 -4.5q10 0 21 3.5t20 8.5v208h252z" />
    <glyph glyph-name="afii10090" unicode="&#x448;" horiz-adv-x="965" 
d="M285 524v-374h80v374h235v-374h80v374h235v-524h-865v524h235z" />
    <glyph glyph-name="afii10091" unicode="&#x449;" horiz-adv-x="1003" 
d="M285 524v-374h80v374h235v-374h80v374h235v-374h71v-295h-228v145h-708v524h235z" />
    <glyph glyph-name="afii10092" unicode="&#x44a;" horiz-adv-x="726" 
d="M115 374h-105v150h357v-154h88q68 0 115.5 -12.5t77.5 -36.5t44 -58.5t14 -77.5t-14 -77.5t-44 -58.5t-77.5 -36.5t-115.5 -12.5h-340v374zM454 185q0 57 -59 57h-33v-118h33q59 0 59 61z" />
    <glyph glyph-name="afii10093" unicode="&#x44b;" horiz-adv-x="995" 
d="M50 524h252v-154h88q68 0 115.5 -12.5t77.5 -36.5t44 -58.5t14 -77.5t-14 -77.5t-44 -58.5t-77.5 -36.5t-115.5 -12.5h-340v524zM389 185q0 57 -59 57h-33v-118h33q59 0 59 61zM945 524v-524h-252v524h252z" />
    <glyph glyph-name="afii10094" unicode="&#x44c;" horiz-adv-x="661" 
d="M50 524h252v-154h88q68 0 115.5 -12.5t77.5 -36.5t44 -58.5t14 -77.5t-14 -77.5t-44 -58.5t-77.5 -36.5t-115.5 -12.5h-340v524zM389 185q0 57 -59 57h-33v-118h33q59 0 59 61z" />
    <glyph glyph-name="afii10095" unicode="&#x44d;" horiz-adv-x="562" 
d="M31 504q25 8 76 20t121 12q81 0 140.5 -22t98.5 -59t57.5 -85.5t18.5 -100.5q0 -57 -18.5 -108t-57.5 -89.5t-99 -61t-143 -22.5q-40 0 -89 5.5t-109 26.5v138q32 -17 66.5 -26t67.5 -9q54 0 88.5 26t40.5 71h-189v94h189q-12 45 -48.5 66t-87.5 21q-34 0 -65 -9t-58 -24
v136z" />
    <glyph glyph-name="afii10096" unicode="&#x44e;" horiz-adv-x="989" 
d="M361 340q11 46 33 79t49 54.5t57 34t58 19t52.5 8t40.5 1.5q73 0 132 -19t100 -54.5t63.5 -86t22.5 -114.5t-22.5 -115t-63.5 -86t-100 -54t-132 -19q-120 0 -196 52.5t-95 149.5h-58v-190h-252v524h252v-184h59zM651 386q-20 0 -31.5 -12t-16.5 -30t-6 -40t-1 -42t1 -42
t6 -40t16.5 -30t31.5 -12t31 12t16.5 30t6.5 40t1 42t-1 42t-6.5 40t-16.5 30t-31 12z" />
    <glyph glyph-name="afii10097" unicode="&#x44f;" horiz-adv-x="671" 
d="M621 0h-252v174h-27l-63 -174h-259l106 208q-42 12 -69 46.5t-27 85.5q0 25 7.5 57t31.5 60.5t69 47.5t120 19h363v-524zM353 400q-20 0 -33 -6t-20.5 -15.5t-10 -20t-2.5 -19.5q0 -7 2.5 -17t9.5 -19t20 -15t34 -6h21v118h-21z" />
    <glyph glyph-name="afii10071" unicode="&#x451;" horiz-adv-x="633" 
d="M266 201q1 -14 6.5 -28.5t19.5 -26.5t38.5 -20t63.5 -8q48 0 92 9.5t92 26.5v-136q-64 -17 -123 -23.5t-113 -6.5q-103 0 -166.5 28.5t-99 71.5t-47.5 92.5t-12 90.5q0 61 22.5 110.5t62.5 83.5t96 52.5t122 18.5q48 0 100 -12t95.5 -44t72 -88.5t28.5 -145.5v-45h-350z
M396 308v9q0 28 -6 46.5t-16 29t-21.5 14.5t-21.5 4q-7 0 -18 -2.5t-21.5 -12t-18 -28t-7.5 -50.5v-10h130zM285 754v-154h-180v154h180zM549 754v-154h-180v154h180z" />
    <glyph glyph-name="afii10099" unicode="&#x452;" horiz-adv-x="696" 
d="M304 681h200v-109h-200v-129q19 26 41 41.5t44 23.5t41 10.5t33 2.5q39 0 72.5 -10.5t58 -31.5t38.5 -53.5t14 -76.5v-357q0 -31 -4.5 -69.5t-24 -72.5t-58 -57.5t-106.5 -23.5q-29 0 -71 3.5t-83 12.5v153q11 -4 22 -5.5t19 -1.5q21 0 32 7.5t16 18t5.5 21.5t0.5 18v291
q0 7 -0.5 19.5t-4.5 23.5t-13 19.5t-27 8.5t-27 -8.5t-13 -19.5t-4.5 -23.5t-0.5 -19.5v-287h-252v572h-82v109h82v73h252v-73z" />
    <glyph glyph-name="afii10100" unicode="&#x453;" horiz-adv-x="501" 
d="M486 524v-150h-184v-374h-252v524h436zM501 754l-196 -164h-140l100 164h236z" />
    <glyph glyph-name="afii10101" unicode="&#x454;" horiz-adv-x="563" 
d="M532 368q-27 15 -58 24t-65 9q-51 0 -87.5 -21t-48.5 -66h189v-94h-189q6 -45 40.5 -71t88.5 -26q33 0 67.5 9t66.5 26v-138q-60 -21 -109 -26.5t-89 -5.5q-83 0 -143.5 22.5t-99.5 61t-57.5 89.5t-18.5 108q0 52 18.5 100.5t57.5 85.5t98.5 59t141.5 22q70 0 121.5 -12
t75.5 -20v-136z" />
    <glyph glyph-name="afii10102" unicode="&#x455;" horiz-adv-x="568" 
d="M37 162q33 -14 81.5 -28t104.5 -14q49 0 70.5 9.5t21.5 25.5q0 13 -10 19.5t-24 9.5t-30.5 4.5t-28.5 3.5q-41 7 -78 17.5t-65 29t-45 47t-17 72.5q0 36 14 68t48.5 56.5t92 39t144.5 14.5q36 0 82 -4t107 -18v-138q-42 14 -84 21t-81 7q-14 0 -29.5 -1t-28 -4.5
t-21 -10.5t-8.5 -19q0 -16 19.5 -22t61.5 -10q34 -3 72 -10t70 -24t53.5 -47t21.5 -80q0 -25 -10.5 -57.5t-43 -61.5t-91.5 -49t-156 -20q-32 0 -89 5.5t-124 24.5v144z" />
    <glyph glyph-name="afii10103" unicode="&#x456;" horiz-adv-x="352" 
d="M50 524h252v-524h-252v524zM302 754v-164h-252v164h252z" />
    <glyph glyph-name="afii10104" unicode="&#x457;" horiz-adv-x="388" 
d="M68 524h252v-524h-252v524zM172 754v-154h-150v154h150zM366 754v-154h-150v154h150z" />
    <glyph glyph-name="afii10105" unicode="&#x458;" horiz-adv-x="353" 
d="M303 524v-556q0 -10 -1 -28.5t-7 -40.5t-18 -45t-33 -42t-54 -31t-80 -12q-29 0 -70.5 3.5t-83.5 12.5v153q11 -4 22 -5.5t19 -1.5q21 0 32 7.5t16 18t5.5 21.5t0.5 18v528h252zM303 754v-164h-252v164h252z" />
    <glyph glyph-name="afii10106" unicode="&#x459;" horiz-adv-x="1022" 
d="M125 -12q-25 0 -46 2.5t-38 5.5q-19 4 -36 9v140q5 -2 11 -4q10 -3 29 -3q16 0 26.5 6.5t17.5 30t10 69.5t3 126v154h560v-154h88q68 0 116 -12.5t78 -36.5t44 -58.5t14 -77.5t-14 -77.5t-44 -58.5t-78 -36.5t-116 -12.5h-340v374h-86v-4q0 -125 -9.5 -200t-33 -115.5
t-61.5 -53.5t-95 -13zM750 185q0 57 -60 57h-33v-118h33q60 0 60 61z" />
    <glyph glyph-name="afii10107" unicode="&#x45a;" horiz-adv-x="1004" 
d="M50 524h252v-164h90v164h252v-164h88q68 0 116 -12.5t78 -36t44 -57t14 -74.5t-14 -74.5t-44 -57t-78 -36t-116 -12.5h-340v210h-90v-210h-252v524zM732 180q0 24 -15 38t-45 14h-28v-108h28q60 0 60 56z" />
    <glyph glyph-name="afii10108" unicode="&#x45b;" horiz-adv-x="696" 
d="M304 681h200v-109h-200v-129q19 26 41 41.5t44 23.5t41 10.5t33 2.5q39 0 72.5 -10.5t58 -31.5t38.5 -53.5t14 -76.5v-349h-252v287q0 7 -0.5 19.5t-4.5 23.5t-13 19.5t-27 8.5t-27 -8.5t-13 -19.5t-4.5 -23.5t-0.5 -19.5v-287h-252v572h-82v109h82v73h252v-73z" />
    <glyph glyph-name="afii10109" unicode="&#x45c;" horiz-adv-x="733" 
d="M298 295h4l143 229h278l-180 -257l180 -267h-277l-144 231h-4v-231h-248v524h248v-229zM621 754l-196 -164h-140l100 164h236z" />
    <glyph glyph-name="afii10110" unicode="&#x45e;" horiz-adv-x="625" 
d="M248 524l72 -330h3l63 330h247l-177 -545q-14 -43 -34.5 -81t-52 -66.5t-76.5 -45.5t-107 -17q-35 0 -78.5 5t-84.5 15v146q17 -5 37.5 -7.5t39.5 -2.5q22 0 36 5t22.5 12.5t12 15t5.5 12.5l5 17l-194 537h261zM317 580q-99 0 -147.5 42t-52.5 120l120 18q4 -40 24 -56
t56 -16t56 16t24 56l120 -18q-4 -78 -52.5 -120t-147.5 -42z" />
    <glyph glyph-name="afii10193" unicode="&#x45f;" horiz-adv-x="694" 
d="M50 524h252v-374h90v374h252v-524h-183v-145h-228v145h-183v524z" />
    <glyph glyph-name="afii10146" unicode="&#x462;" horiz-adv-x="894" 
d="M173 644v91h268v-91h224v-160h-224v-59h151q75 0 127 -16.5t84 -45t46.5 -66.5t14.5 -82q0 -43 -14.5 -82t-46.5 -68.5t-84 -47t-127 -17.5h-419v484h-173v160h173zM488 138q14 0 32 2t34.5 9.5t28 23t11.5 41.5t-12.5 41t-29.5 22t-35 8.5t-28 1.5h-60v-149h59z" />
    <glyph glyph-name="afii10194" unicode="&#x463;" horiz-adv-x="738" 
d="M127 386h-127v138h127v176h252v-176h162v-138h-162v-46h88q68 0 115.5 -12.5t77.5 -34.5t44 -52t14 -66q0 -39 -14 -71.5t-44 -55.5t-77.5 -35.5t-115.5 -12.5h-340v386zM466 175q0 20 -15 33.5t-44 13.5h-33v-98h33q29 0 44 14t15 37z" />
    <glyph glyph-name="afii10147" unicode="&#x472;" horiz-adv-x="820" 
d="M410 712q93 0 165.5 -25t122.5 -72t76 -114t26 -151t-26 -151t-76 -114t-122.5 -72t-165.5 -25t-165.5 25t-122.5 72t-76 114t-26 151t26 151t76 114t122.5 72t165.5 25zM410 544q-39 0 -69.5 -25.5t-38.5 -71.5h216q-8 46 -38.5 71.5t-69.5 25.5zM302 269
q2 -22 10 -42.5t21.5 -36t32.5 -25t44 -9.5t44 9.5t32.5 25t21.5 36t10 42.5h-216z" />
    <glyph glyph-name="afii10195" unicode="&#x473;" horiz-adv-x="690" 
d="M345 536q75 0 135 -19t102 -54t65 -86t23 -115t-23 -115t-65 -86t-102 -54t-135 -19t-135 19t-102 54t-65 86t-23 115t23 115t65 86t102 54t135 19zM418 331q-3 29 -26 45t-47 16q-25 0 -47.5 -16t-25.5 -45h146zM272 205q0 -17 7 -30.5t17.5 -23t23.5 -14.5t25 -5t25 5
t23.5 14.5t17.5 23t7 30.5h-146z" />
    <glyph glyph-name="afii10148" unicode="&#x474;" horiz-adv-x="865" 
d="M553 0h-317l-250 700h288l129 -419h4l65 213q13 43 28.5 82.5t41.5 69.5t66.5 48t102.5 18q60 0 100 -7t54 -11l-19 -180q-16 4 -28 6t-23 2q-37 0 -55.5 -27t-33.5 -70z" />
    <glyph glyph-name="afii10196" unicode="&#x475;" horiz-adv-x="695" 
d="M255 524l63 -345h2l42 173q12 52 31 87.5t45 57t60 30.5t78 9q36 0 69.5 -4.5t54.5 -9.5l-14 -139q-23 5 -45 5q-8 0 -16 -2t-15.5 -9t-15 -20.5t-14.5 -35.5l-107 -321h-323l-153 524h258z" />
    <glyph glyph-name="afii10050" unicode="&#x490;" horiz-adv-x="665" 
d="M390 700v110h245v-310h-317v-500h-268v700h340z" />
    <glyph glyph-name="afii10098" unicode="&#x491;" horiz-adv-x="528" 
d="M279 525v86h214v-236h-195v-375h-248v525h229z" />
    <glyph glyph-name="uni0492" unicode="&#x492;" horiz-adv-x="747" 
d="M0 410h138v290h599v-168h-331v-122h291v-160h-291v-250h-268v250h-138v160z" />
    <glyph glyph-name="uni0493" unicode="&#x493;" horiz-adv-x="543" 
d="M344 141v-141h-252v141h-92v137h92v246h436v-147h-184v-99h160v-137h-160z" />
    <glyph glyph-name="uni0494" unicode="&#x494;" horiz-adv-x="762" 
d="M645 700v-196h-327v-85q47 13 84.5 17.5t74.5 4.5q84 0 136 -24t80.5 -60t38.5 -76.5t10 -73.5q0 -41 -13.5 -80.5t-43 -70t-77 -49.5t-114.5 -19q-28 0 -58.5 4t-68.5 14v149q13 -4 23.5 -4.5t17.5 -0.5q4 0 15 1t22.5 7t20 19t8.5 36q0 35 -21 50.5t-49 15.5
q-22 0 -45.5 -5.5t-40.5 -13.5v-260h-268v700h595z" />
    <glyph glyph-name="uni0495" unicode="&#x495;" horiz-adv-x="644" 
d="M377 63q0 62 -16.5 85t-51.5 23h-12v-171h-247v524h499v-145h-252v-70h48q84 0 138 -18t85.5 -51t43.5 -78t12 -99q0 -41 -10.5 -87.5t-43.5 -85.5t-94 -64.5t-162 -25.5h-15v134q24 2 39 9.5t24 23t12 39t3 57.5z" />
    <glyph glyph-name="uni0496" unicode="&#x496;" horiz-adv-x="1244" 
d="M961 0h-52l-157 317h-6v-317h-258v317h-6l-157 -317h-320l250 372l-220 328h290l157 -295h6v295h258v-295h6l157 295h290l-220 -328l115 -172h135v-350h-268v150z" />
    <glyph glyph-name="uni0497" unicode="&#x497;" horiz-adv-x="1006" 
d="M768 0h-21l-127 231h-4v-231h-226v231h-4l-127 -231h-249l166 267l-166 258h250l126 -230h4v230h226v-230h4l126 230h250l-166 -258l72 -117h94v-295h-228v145z" />
    <glyph glyph-name="uni0498" unicode="&#x498;" horiz-adv-x="679" 
d="M170 -5q-31 4 -65 10t-75 16v182q54 -22 116 -34.5t122 -12.5q35 0 57 6.5t34 16.5t16.5 21t4.5 20q0 11 -4 23t-15.5 22t-32 16.5t-52.5 6.5h-130v138h127q12 0 29 1.5t33.5 7t28 17.5t11.5 33q0 20 -12.5 31.5t-31 17.5t-39.5 8t-37 2q-47 0 -100 -8.5t-107 -27.5v177
q63 14 126.5 20.5t138.5 6.5q108 0 172.5 -21t99 -52t45 -66.5t10.5 -64.5q0 -26 -8.5 -51t-25.5 -45.5t-42.5 -35.5t-59.5 -19v-4q31 -3 59.5 -14.5t50.5 -31t35 -47t13 -61.5q0 -27 -8.5 -57t-33 -58t-68.5 -50.5t-114 -34.5v-154h-268v150z" />
    <glyph glyph-name="uni0499" unicode="&#x499;" horiz-adv-x="571" 
d="M133 -4q-49 6 -113 24v138q38 -16 85 -28.5t93 -12.5q27 0 44 5t27.5 13t14.5 17.5t4 18.5q0 16 -8 25.5t-19.5 14t-24 5.5t-22.5 1h-85v100h98q22 0 35.5 4.5t20 11.5t8.5 14.5t2 12.5q0 19 -18 33.5t-68 14.5q-28 0 -74.5 -7t-100.5 -33v136q71 20 132 26t113 6
q81 0 130.5 -15.5t77 -38t36.5 -48t9 -45.5q0 -18 -5 -35.5t-15.5 -33.5t-27 -27.5t-40.5 -17.5v-3q51 -6 81.5 -38.5t30.5 -78.5q0 -21 -8 -45t-29.5 -46.5t-59 -40.5t-96.5 -27v-146h-228v146z" />
    <glyph glyph-name="uni049A" unicode="&#x49a;" horiz-adv-x="829" 
d="M546 0h-52l-172 297h-4v-297h-268v700h268v-275h4l165 275h305l-236 -328l119 -172h139v-350h-268v150z" />
    <glyph glyph-name="uni049B" unicode="&#x49b;" horiz-adv-x="728" 
d="M495 0h-49l-144 231h-4v-231h-248v524h248v-229h4l143 229h278l-180 -257l79 -117h101v-295h-228v145z" />
    <glyph glyph-name="uni049C" unicode="&#x49c;" horiz-adv-x="975" 
d="M373 257h-55v-257h-268v700h268v-249h55v114h143v-107l137 242h305l-235 -335l257 -365h-320l-144 255v-115h-143v117z" />
    <glyph glyph-name="uni049D" unicode="&#x49d;" horiz-adv-x="848" 
d="M339 196h-41v-196h-248v524h248v-184h41v95h123v-88l98 177h278l-182 -254l182 -270h-277l-99 188v-88h-123v96z" />
    <glyph glyph-name="uni04A0" unicode="&#x4a0;" horiz-adv-x="985" 
d="M494 700v-275h4l165 275h305l-236 -328l258 -372h-320l-172 297h-4v-297h-268v493h-216v207h484z" />
    <glyph glyph-name="uni04A1" unicode="&#x4a1;" horiz-adv-x="833" 
d="M398 524v-229h4l143 229h278l-180 -257l180 -267h-277l-144 231h-4v-231h-248v374h-140v150h388z" />
    <glyph glyph-name="uni04A2" unicode="&#x4a2;" horiz-adv-x="859" 
d="M318 700v-242h179v242h268v-500h74v-350h-268v150h-74v258h-179v-258h-268v700h268z" />
    <glyph glyph-name="uni04A3" unicode="&#x4a3;" horiz-adv-x="732" 
d="M302 524v-181h90v181h252v-374h71v-295h-228v145h-95v193h-90v-193h-252v524h252z" />
    <glyph glyph-name="uni04A4" unicode="&#x4a4;" horiz-adv-x="1080" 
d="M497 700h573v-200h-305v-500h-268v258h-179v-258h-268v700h268v-242h179v242z" />
    <glyph glyph-name="uni04A5" unicode="&#x4a5;" horiz-adv-x="843" 
d="M302 524v-181h90v181h436v-150h-184v-374h-252v193h-90v-193h-252v524h252z" />
    <glyph glyph-name="uni04AA" unicode="&#x4aa;" horiz-adv-x="654" 
d="M275 9q-63 18 -110.5 50.5t-79.5 76.5t-48.5 98t-16.5 116q0 67 22.5 132t73 116t131.5 82.5t198 31.5q60 0 103.5 -7t67.5 -12l16 -3v-185q-29 11 -64.5 19t-76.5 8q-43 0 -78 -13.5t-59.5 -37t-38 -55.5t-13.5 -70q0 -24 6.5 -55.5t27.5 -59.5t59 -47t101 -19
q20 0 52 5t86 22v-186q-25 -7 -48 -11.5t-43 -7.5v-152h-268v164z" />
    <glyph glyph-name="uni04AB" unicode="&#x4ab;" horiz-adv-x="559" 
d="M224 2q-53 14 -91.5 40t-64 60.5t-37.5 76t-12 86.5q0 43 14 91t50.5 88t98.5 66t158 26q38 0 85.5 -5t102.5 -19v-150q-36 15 -63 19.5t-45 4.5q-57 0 -94 -32.5t-37 -92.5q0 -54 34.5 -88.5t95.5 -34.5q17 0 45 4.5t68 22.5v-151q-21 -7 -41 -11t-39 -7v-146h-228v152z
" />
    <glyph glyph-name="uni04AE" unicode="&#x4ae;" horiz-adv-x="761" 
d="M513 215v-215h-268v215l-260 485h292l108 -293h4l109 293h278z" />
    <glyph glyph-name="uni04AF" unicode="&#x4af;" horiz-adv-x="640" 
d="M258 524l72 -298h3l63 298h247l-187 -524v-219h-252v219l-207 524h261z" />
    <glyph glyph-name="uni04B0" unicode="&#x4b0;" horiz-adv-x="761" 
d="M680 142h-167v-142h-268v142h-167v181h111l-204 377h292l108 -293h4l109 293h278l-207 -377h111v-181z" />
    <glyph glyph-name="uni04B1" unicode="&#x4b1;" horiz-adv-x="640" 
d="M456 -72v-147h-252v147h-143v148h113l-177 448h261l72 -298h3l63 298h247l-160 -448h116v-148h-143z" />
    <glyph glyph-name="uni04B2" unicode="&#x4b2;" horiz-adv-x="861" 
d="M578 0h-44l-128 237h-4l-121 -237h-292l248 359l-218 341h310l101 -207h4l111 207h283l-234 -341l111 -159h141v-350h-268v150z" />
    <glyph glyph-name="uni04B3" unicode="&#x4b3;" horiz-adv-x="688" 
d="M455 0h-41l-81 176h-4l-82 -176h-259l172 282l-160 242h267l69 -163h4l67 163h249l-146 -238l82 -136h91v-295h-228v145z" />
    <glyph glyph-name="uni04B6" unicode="&#x4b6;" horiz-adv-x="842" 
d="M554 0h-74v241q-4 -1 -20.5 -4.5t-40.5 -7.5t-54 -7t-60 -3q-64 0 -108.5 12t-74 32t-46 44.5t-24.5 49t-10 47t-2 37.5v259h268v-223q0 -21 9 -33t21 -18t24.5 -7.5t20.5 -1.5q14 0 38.5 3t58.5 15v265h268v-500h74v-350h-268v150z" />
    <glyph glyph-name="uni04B7" unicode="&#x4b7;" horiz-adv-x="712" 
d="M467 0h-95v184q-32 -9 -68.5 -14.5t-71.5 -5.5t-69.5 7.5t-61.5 26t-44 49.5t-17 78v199h252v-183q0 -4 0.5 -10t4.5 -12t12 -10.5t22 -4.5q10 0 21 3.5t20 8.5v208h252v-374h71v-295h-228v145z" />
    <glyph glyph-name="uni04B8" unicode="&#x4b8;" horiz-adv-x="879" 
d="M361 219q-99 0 -161.5 24t-98 60.5t-48.5 80.5t-13 84v232h262v-168q0 -51 15 -77.5t44 -37.5v115h143v-119q35 6 57 16v271h268v-700h-268v243q-8 -2 -22.5 -5.5t-34.5 -6.5v-109h-143v97z" />
    <glyph glyph-name="uni04B9" unicode="&#x4b9;" horiz-adv-x="796" 
d="M330 159q-11 -1 -25 -1h-28q-56 0 -99.5 9t-74.5 32t-47 61.5t-16 98.5v165h245v-148q0 -32 10.5 -49t34.5 -24v109h123v-107q13 2 22.5 4.5t18.5 6.5v208h252v-524h-252v184q-10 -3 -19 -6t-22 -5v-89h-123v75z" />
    <glyph glyph-name="uni04BA" unicode="&#x4ba;" horiz-adv-x="793" 
d="M318 0h-268v700h268v-268l18 4.5t35.5 7.5t49 7t57.5 3q64 0 108.5 -12t74 -32t46 -44.5t24.5 -49t10 -47t2 -37.5v-232h-268v198q0 21 -9 33t-21 18t-24.5 7.5t-20.5 1.5q-14 0 -31 -3t-51 -15v-240z" />
    <glyph glyph-name="uni04BB" unicode="&#x4bb;" horiz-adv-x="694" 
d="M302 458q19 26 41 41.5t44 23.5t41 10.5t33 2.5q39 0 72.5 -10.5t58 -31.5t38.5 -53.5t14 -76.5v-364h-252v302q0 11 -0.5 23.5t-4.5 23t-13.5 17.5t-26.5 7t-26.5 -7t-13.5 -17.5t-4.5 -23t-0.5 -23.5v-302h-252v754h252v-296z" />
    <glyph glyph-name="uni04C0" unicode="&#x4c0;" horiz-adv-x="378" 
d="M323 700v-700h-268v700h268z" />
    <glyph glyph-name="uni04C3" unicode="&#x4c3;" horiz-adv-x="812" 
d="M516 97q0 42 -11 69.5t-31 43t-48 22t-62 6.5h-46v-238h-268v700h268v-275h4l165 275h305l-228 -316q115 -25 167.5 -93t52.5 -191q0 -67 -18.5 -124t-58.5 -99t-101.5 -65.5t-148.5 -23.5q-28 0 -50 2.5t-41 7.5v150q34 0 62 6.5t47.5 23.5t30 46t10.5 73z" />
    <glyph glyph-name="uni04C4" unicode="&#x4c4;" horiz-adv-x="733" 
d="M298 316h17l130 208h278l-179 -236q85 -23 126.5 -79t41.5 -132q0 -49 -13.5 -98.5t-50 -89t-100.5 -64.5t-165 -25h-38v134q24 2 45.5 8.5t38 21t26.5 39.5t10 63q0 53 -28.5 82.5t-91.5 29.5h-47v-178h-248v524h248v-208z" />
    <glyph glyph-name="uni04C7" unicode="&#x4c7;" horiz-adv-x="815" 
d="M497 700h268v-698q0 -56 -15.5 -95.5t-40.5 -65t-55 -40t-58.5 -22t-52.5 -9t-36 -1.5q-26 0 -59 2t-79 13v189q16 -4 26.5 -4.5t15.5 -0.5q8 0 22.5 2.5t28.5 12.5t24.5 29.5t10.5 52.5v193h-179v-258h-268v700h268v-242h179v242z" />
    <glyph glyph-name="uni04C8" unicode="&#x4c8;" horiz-adv-x="694" 
d="M644 524v-556q0 -10 -1 -28.5t-7 -40.5t-18 -45t-33 -42t-54 -31t-80 -12q-29 0 -70.5 3.5t-83.5 12.5v153q11 -4 22 -5.5t19 -1.5q20 0 31 7.5t16 18t6 21.5t1 18v197h-90v-193h-252v524h252v-181h90v181h252z" />
    <glyph glyph-name="uni04CF" unicode="&#x4cf;" horiz-adv-x="352" 
d="M302 700v-700h-252v700h252z" />
    <glyph glyph-name="uni04D0" unicode="&#x4d0;" horiz-adv-x="825" 
d="M591 700l249 -700h-282l-48 151h-210l-47 -151h-268l245 700h361zM403 534l-72 -219h149l-73 219h-4zM412 730q-106 0 -156 40t-54 122l125 18q4 -44 24.5 -58t60.5 -14t60.5 14t24.5 58l125 -18q-4 -82 -54 -122t-156 -40z" />
    <glyph glyph-name="uni04D1" unicode="&#x4d1;" horiz-adv-x="650" 
d="M384 64h-4q-19 -25 -42 -40t-47 -23t-48 -10.5t-45 -2.5q-47 0 -81.5 12.5t-57 33.5t-33.5 49.5t-11 61.5q0 67 33.5 104.5t84 54.5t108.5 20.5t108 3.5h35v16q0 21 -12 33.5t-30 19t-39.5 9t-40.5 2.5q-2 0 -17.5 -1t-40.5 -5t-57.5 -12t-67.5 -23v137q60 16 125.5 24
t121.5 8q52 0 104 -9.5t92.5 -32.5t66 -62t25.5 -98v-334h-230v64zM371 228q-14 0 -33.5 -0.5t-38 -6t-31.5 -18.5t-13 -38q0 -22 16.5 -36t42.5 -14t48 19.5t22 64.5v29h-13zM326 580q-99 0 -147.5 42t-52.5 120l120 18q4 -40 24 -56t56 -16t56 16t24 56l120 -18
q-4 -78 -52.5 -120t-147.5 -42z" />
    <glyph glyph-name="uni04D2" unicode="&#x4d2;" horiz-adv-x="825" 
d="M591 700l249 -700h-282l-48 151h-210l-47 -151h-268l245 700h361zM403 534l-72 -219h149l-73 219h-4zM370 896v-156h-180v156h180zM634 896v-156h-180v156h180z" />
    <glyph glyph-name="uni04D3" unicode="&#x4d3;" horiz-adv-x="650" 
d="M384 64h-4q-19 -25 -42 -40t-47 -23t-48 -10.5t-45 -2.5q-47 0 -81.5 12.5t-57 33.5t-33.5 49.5t-11 61.5q0 67 33.5 104.5t84 54.5t108.5 20.5t108 3.5h35v16q0 21 -12 33.5t-30 19t-39.5 9t-40.5 2.5q-2 0 -17.5 -1t-40.5 -5t-57.5 -12t-67.5 -23v137q60 16 125.5 24
t121.5 8q52 0 104 -9.5t92.5 -32.5t66 -62t25.5 -98v-334h-230v64zM371 228q-14 0 -33.5 -0.5t-38 -6t-31.5 -18.5t-13 -38q0 -22 16.5 -36t42.5 -14t48 19.5t22 64.5v29h-13zM283 754v-154h-180v154h180zM547 754v-154h-180v154h180z" />
    <glyph glyph-name="uni04D4" unicode="&#x4d4;" horiz-adv-x="1078" 
d="M233 700h806v-165h-390l32 -101h339v-160h-290l33 -109h283v-165h-483l-43 151h-226l-45 -151h-264zM331 320h157l-75 224h-2z" />
    <glyph glyph-name="uni04D5" unicode="&#x4d5;" horiz-adv-x="984" 
d="M82 504q63 20 115.5 26t75.5 6q50 0 87 -8t64 -19t44 -24.5t27 -23.5q16 17 35 31t41.5 23.5t50.5 15t63 5.5q68 0 115.5 -18t78.5 -47t49 -64t26.5 -69t10.5 -63t2 -45v-31h-350q1 -14 6.5 -28.5t19.5 -26.5t38.5 -20t63.5 -8q48 0 92 9.5t92 26.5v-136
q-72 -18 -134 -23t-102 -5q-55 0 -94.5 8.5t-67.5 21.5t-47 29t-32 31q-13 -17 -31.5 -33.5t-45 -29t-63 -20t-84.5 -7.5q-64 0 -105 15.5t-64 38.5t-32 51t-9 52q0 45 15.5 76t42 51.5t61.5 31.5t73.5 16.5t77.5 6.5t75 1h24v7q0 7 -3 19t-16.5 24t-40 21t-72.5 9
q-29 0 -75.5 -9t-97.5 -32v137zM747 306v9q0 28 -6 46t-16 28.5t-21.5 14.5t-21.5 4q-7 0 -18 -2.5t-21.5 -11.5t-18 -27.5t-7.5 -50.5v-10h130zM374 228q-15 0 -35 -0.5t-38 -6t-30.5 -17.5t-12.5 -36q0 -25 17 -38.5t42 -13.5q26 0 48 19t22 64v29h-13z" />
    <glyph glyph-name="uni04D6" unicode="&#x4d6;" 
d="M661 700v-165h-343v-101h328v-160h-328v-109h350v-165h-618v700h611zM355 730q-106 0 -156 40t-54 122l125 18q4 -44 24.5 -58t60.5 -14t60.5 14t24.5 58l125 -18q-4 -82 -54 -122t-156 -40z" />
    <glyph glyph-name="uni04D7" unicode="&#x4d7;" horiz-adv-x="633" 
d="M266 201q1 -14 6.5 -28.5t19.5 -26.5t38.5 -20t63.5 -8q48 0 92 9.5t92 26.5v-136q-64 -17 -123 -23.5t-113 -6.5q-103 0 -166.5 28.5t-99 71.5t-47.5 92.5t-12 90.5q0 61 22.5 110.5t62.5 83.5t96 52.5t122 18.5q48 0 100 -12t95.5 -44t72 -88.5t28.5 -145.5v-45h-350z
M396 308v9q0 28 -6 46.5t-16 29t-21.5 14.5t-21.5 4q-7 0 -18 -2.5t-21.5 -12t-18 -28t-7.5 -50.5v-10h130zM320 580q-99 0 -147.5 42t-52.5 120l120 18q4 -40 24 -56t56 -16t56 16t24 56l120 -18q-4 -78 -52.5 -120t-147.5 -42z" />
    <glyph glyph-name="uni04D8" unicode="&#x4d8;" horiz-adv-x="800" 
d="M20 430h473q-10 50 -58 79t-126 29q-60 0 -116 -10.5t-98 -30.5v189q72 15 132.5 20.5t107.5 5.5q107 0 181.5 -22.5t124 -58t77.5 -78t42 -83t17 -73t3 -47.5q0 -84 -26 -151t-76 -114t-122.5 -72t-165.5 -25q-181 0 -275.5 89.5t-94.5 272.5v80zM390 156q28 0 46.5 11
t30.5 29t18.5 41.5t9.5 48.5h-210q1 -24 7 -47.5t18.5 -41.5t32 -29.5t47.5 -11.5z" />
    <glyph glyph-name="afii10846" unicode="&#x4d9;" horiz-adv-x="637" 
d="M370 318q-1 16 -6 31.5t-19 28t-39 20.5t-64 8q-48 0 -92 -9.5t-92 -26.5v136q64 17 123 23.5t113 6.5q69 0 119.5 -13.5t87 -35.5t59.5 -51t36 -60.5t18 -63.5t5 -59q0 -62 -22.5 -111t-62.5 -83t-96 -52.5t-122 -18.5q-48 0 -100.5 12t-96 44t-71.5 88.5t-28 145.5v40
h350zM240 211v-4q0 -28 6 -46.5t16 -29t21 -14.5t22 -4q7 0 18 2.5t21.5 12t18 28t7.5 50.5v5h-130z" />
    <glyph glyph-name="uni04DA" unicode="&#x4da;" horiz-adv-x="800" 
d="M20 430h473q-10 50 -58 79t-126 29q-60 0 -116 -10.5t-98 -30.5v189q72 15 132.5 20.5t107.5 5.5q107 0 181.5 -22.5t124 -58t77.5 -78t42 -83t17 -73t3 -47.5q0 -84 -26 -151t-76 -114t-122.5 -72t-165.5 -25q-181 0 -275.5 89.5t-94.5 272.5v80zM390 156q28 0 46.5 11
t30.5 29t18.5 41.5t9.5 48.5h-210q1 -24 7 -47.5t18.5 -41.5t32 -29.5t47.5 -11.5zM348 896v-156h-180v156h180zM612 896v-156h-180v156h180z" />
    <glyph glyph-name="uni04DB" unicode="&#x4db;" horiz-adv-x="637" 
d="M370 318q-1 16 -6 31.5t-19 28t-39 20.5t-64 8q-48 0 -92 -9.5t-92 -26.5v136q64 17 123 23.5t113 6.5q69 0 119.5 -13.5t87 -35.5t59.5 -51t36 -60.5t18 -63.5t5 -59q0 -62 -22.5 -111t-62.5 -83t-96 -52.5t-122 -18.5q-48 0 -100.5 12t-96 44t-71.5 88.5t-28 145.5v40
h350zM240 211v-4q0 -28 6 -46.5t16 -29t21 -14.5t22 -4q7 0 18 2.5t21.5 12t18 28t7.5 50.5v5h-130zM250 754v-154h-180v154h180zM514 754v-154h-180v154h180z" />
    <glyph glyph-name="uni04DC" unicode="&#x4dc;" horiz-adv-x="1234" 
d="M488 0v317h-6l-157 -317h-320l250 372l-220 328h290l157 -295h6v295h258v-295h6l157 295h290l-220 -328l250 -372h-320l-157 317h-6v-317h-258zM575 896v-156h-180v156h180zM839 896v-156h-180v156h180z" />
    <glyph glyph-name="uni04DD" unicode="&#x4dd;" horiz-adv-x="1006" 
d="M390 0v231h-4l-127 -231h-249l166 267l-166 257h250l126 -229h4v229h226v-229h4l126 229h250l-166 -257l166 -267h-249l-127 231h-4v-231h-226zM461 754v-154h-180v154h180zM725 754v-154h-180v154h180z" />
    <glyph glyph-name="uni04DE" unicode="&#x4de;" horiz-adv-x="679" 
d="M146 426h127q12 0 29 1.5t33.5 7t28 17.5t11.5 33q0 20 -12.5 31.5t-31 17.5t-39.5 8t-37 2q-47 0 -100 -8.5t-107 -27.5v177q63 14 126.5 20.5t138.5 6.5q108 0 172.5 -21t99 -52t45 -66.5t10.5 -64.5q0 -26 -8.5 -51t-25.5 -45.5t-42.5 -35.5t-59.5 -19v-4
q31 -3 59.5 -14.5t50.5 -31t35 -47t13 -61.5q0 -21 -5.5 -45t-20 -47.5t-40 -45t-65.5 -38t-97 -26t-134 -9.5q-54 0 -117.5 5.5t-152.5 27.5v182q54 -22 116 -34.5t122 -12.5q35 0 57 6.5t34 16.5t16.5 21t4.5 20q0 11 -4 23t-15.5 22t-32 16.5t-52.5 6.5h-130v138z
M302 896v-156h-180v156h180zM566 896v-156h-180v156h180z" />
    <glyph glyph-name="uni04DF" unicode="&#x4df;" horiz-adv-x="571" 
d="M129 317h98q22 0 35.5 4.5t20 11.5t8.5 14.5t2 12.5q0 19 -18 33.5t-68 14.5q-28 0 -74.5 -7t-100.5 -33v136q71 20 132 26t113 6q81 0 130.5 -15.5t77 -38t36.5 -48t9 -45.5q0 -18 -5 -35.5t-15.5 -33.5t-27 -27.5t-40.5 -17.5v-3q51 -6 81.5 -38.5t30.5 -78.5
q0 -25 -12 -54.5t-45 -54.5t-91.5 -41.5t-151.5 -16.5q-50 0 -105 5.5t-129 26.5v138q38 -16 85 -28.5t93 -12.5q27 0 44 5t27.5 13t14.5 17.5t4 18.5q0 16 -8 25.5t-19.5 14t-24 5.5t-22.5 1h-85v100zM243 754v-154h-180v154h180zM507 754v-154h-180v154h180z" />
    <glyph glyph-name="uni04E2" unicode="&#x4e2;" horiz-adv-x="862" 
d="M318 700v-400h4l177 400h313v-700h-268v392h-4l-177 -392h-313v700h268zM224 747v104h414v-104h-414z" />
    <glyph glyph-name="uni04E3" unicode="&#x4e3;" horiz-adv-x="699" 
d="M649 524v-524h-230v245h-5l-115 -245h-249v524h230v-245h5l117 245h247zM142 625v104h414v-104h-414z" />
    <glyph glyph-name="uni04E4" unicode="&#x4e4;" horiz-adv-x="862" 
d="M318 700v-400h4l177 400h313v-700h-268v392h-4l-177 -392h-313v700h268zM398 896v-156h-180v156h180zM662 896v-156h-180v156h180z" />
    <glyph glyph-name="uni04E5" unicode="&#x4e5;" horiz-adv-x="699" 
d="M649 524v-524h-230v245h-5l-115 -245h-249v524h230v-245h5l117 245h247zM307 754v-154h-180v154h180zM571 754v-154h-180v154h180z" />
    <glyph glyph-name="uni04E6" unicode="&#x4e6;" horiz-adv-x="820" 
d="M410 712q93 0 165.5 -25t122.5 -72t76 -114t26 -151t-26 -151t-76 -114t-122.5 -72t-165.5 -25t-165.5 25t-122.5 72t-76 114t-26 151t26 151t76 114t122.5 72t165.5 25zM410 544q-38 0 -59.5 -20t-32.5 -49.5t-13.5 -63.5t-2.5 -61t2.5 -61t13.5 -63.5t32.5 -49.5
t59.5 -20t59.5 20t32.5 49.5t13.5 63.5t2.5 61t-2.5 61t-13.5 63.5t-32.5 49.5t-59.5 20zM368 896v-156h-180v156h180zM632 896v-156h-180v156h180z" />
    <glyph glyph-name="uni04E7" unicode="&#x4e7;" horiz-adv-x="690" 
d="M345 536q75 0 135 -19t102 -54t65 -86t23 -115t-23 -115t-65 -86t-102 -54t-135 -19t-135 19t-102 54t-65 86t-23 115t23 115t65 86t102 54t135 19zM345 386q-20 0 -31.5 -12t-16.5 -30t-6 -40t-1 -42t1 -42t6 -40t16.5 -30t31.5 -12t31 12t16.5 30t6.5 40t1 42t-1 42
t-6.5 40t-16.5 30t-31 12zM303 754v-154h-180v154h180zM567 754v-154h-180v154h180z" />
    <glyph glyph-name="uni04E8" unicode="&#x4e8;" horiz-adv-x="820" 
d="M410 712q93 0 165.5 -25t122.5 -72t76 -114t26 -151t-26 -151t-76 -114t-122.5 -72t-165.5 -25t-165.5 25t-122.5 72t-76 114t-26 151t26 151t76 114t122.5 72t165.5 25zM410 544q-39 0 -69.5 -25.5t-38.5 -71.5h216q-8 46 -38.5 71.5t-69.5 25.5zM302 269
q2 -22 10 -42.5t21.5 -36t32.5 -25t44 -9.5t44 9.5t32.5 25t21.5 36t10 42.5h-216z" />
    <glyph glyph-name="uni04E9" unicode="&#x4e9;" horiz-adv-x="690" 
d="M345 536q75 0 135 -19t102 -54t65 -86t23 -115t-23 -115t-65 -86t-102 -54t-135 -19t-135 19t-102 54t-65 86t-23 115t23 115t65 86t102 54t135 19zM418 331q-3 29 -26 45t-47 16q-25 0 -47.5 -16t-25.5 -45h146zM272 205q0 -17 7 -30.5t17.5 -23t23.5 -14.5t25 -5t25 5
t23.5 14.5t17.5 23t7 30.5h-146z" />
    <glyph glyph-name="uni04EA" unicode="&#x4ea;" horiz-adv-x="820" 
d="M410 712q93 0 165.5 -25t122.5 -72t76 -114t26 -151t-26 -151t-76 -114t-122.5 -72t-165.5 -25t-165.5 25t-122.5 72t-76 114t-26 151t26 151t76 114t122.5 72t165.5 25zM410 544q-39 0 -69.5 -25.5t-38.5 -71.5h216q-8 46 -38.5 71.5t-69.5 25.5zM302 269
q2 -22 10 -42.5t21.5 -36t32.5 -25t44 -9.5t44 9.5t32.5 25t21.5 36t10 42.5h-216zM368 896v-156h-180v156h180zM632 896v-156h-180v156h180z" />
    <glyph glyph-name="uni04EB" unicode="&#x4eb;" horiz-adv-x="690" 
d="M345 536q75 0 135 -19t102 -54t65 -86t23 -115t-23 -115t-65 -86t-102 -54t-135 -19t-135 19t-102 54t-65 86t-23 115t23 115t65 86t102 54t135 19zM418 331q-3 29 -26 45t-47 16q-25 0 -47.5 -16t-25.5 -45h146zM272 205q0 -17 7 -30.5t17.5 -23t23.5 -14.5t25 -5t25 5
t23.5 14.5t17.5 23t7 30.5h-146zM303 754v-154h-180v154h180zM567 754v-154h-180v154h180z" />
    <glyph glyph-name="uni04EE" unicode="&#x4ee;" horiz-adv-x="739" 
d="M291 700l98 -303h4l96 303h264l-223 -529q-12 -28 -30 -60t-47 -59.5t-73.5 -45.5t-108.5 -18q-18 0 -40 1.5t-46 4.5t-48.5 7.5t-46.5 10.5v177q32 -10 53.5 -13t36.5 -3q6 0 14.5 0.5t16 3.5t12.5 8t5 14q0 5 -2 15.5t-14 33.5l-226 452h305zM190 747v104h414v-104
h-414z" />
    <glyph glyph-name="uni04EF" unicode="&#x4ef;" horiz-adv-x="625" 
d="M248 524l72 -330h3l63 330h247l-177 -545q-14 -43 -34.5 -81t-52 -66.5t-76.5 -45.5t-107 -17q-35 0 -78.5 5t-84.5 15v146q17 -5 37.5 -7.5t39.5 -2.5q22 0 36 5t22.5 12.5t12 15t5.5 12.5l5 17l-194 537h261zM105 625v104h414v-104h-414z" />
    <glyph glyph-name="uni04F0" unicode="&#x4f0;" horiz-adv-x="739" 
d="M291 700l98 -303h4l96 303h264l-223 -529q-12 -28 -30 -60t-47 -59.5t-73.5 -45.5t-108.5 -18q-18 0 -40 1.5t-46 4.5t-48.5 7.5t-46.5 10.5v177q32 -10 53.5 -13t36.5 -3q6 0 14.5 0.5t16 3.5t12.5 8t5 14q0 5 -2 15.5t-14 33.5l-226 452h305zM350 896v-156h-180v156
h180zM614 896v-156h-180v156h180z" />
    <glyph glyph-name="uni04F1" unicode="&#x4f1;" horiz-adv-x="625" 
d="M248 524l72 -330h3l63 330h247l-177 -545q-14 -43 -34.5 -81t-52 -66.5t-76.5 -45.5t-107 -17q-35 0 -78.5 5t-84.5 15v146q17 -5 37.5 -7.5t39.5 -2.5q22 0 36 5t22.5 12.5t12 15t5.5 12.5l5 17l-194 537h261zM270 754v-154h-180v154h180zM534 754v-154h-180v154h180z
" />
    <glyph glyph-name="uni04F2" unicode="&#x4f2;" horiz-adv-x="739" 
d="M291 700l98 -303h4l96 303h264l-223 -529q-12 -28 -30 -60t-47 -59.5t-73.5 -45.5t-108.5 -18q-18 0 -40 1.5t-46 4.5t-48.5 7.5t-46.5 10.5v177q32 -10 53.5 -13t36.5 -3q6 0 14.5 0.5t16 3.5t12.5 8t5 14q0 5 -2 15.5t-14 33.5l-226 452h305zM530 896l-216 -156h-134
l108 156h242zM812 896l-216 -156h-134l108 156h242z" />
    <glyph glyph-name="uni04F3" unicode="&#x4f3;" horiz-adv-x="625" 
d="M248 524l72 -330h3l63 330h247l-177 -545q-14 -43 -34.5 -81t-52 -66.5t-76.5 -45.5t-107 -17q-35 0 -78.5 5t-84.5 15v146q17 -5 37.5 -7.5t39.5 -2.5q22 0 36 5t22.5 12.5t12 15t5.5 12.5l5 17l-194 537h261zM434 754l-194 -164h-130l112 164h212zM686 754l-194 -164
h-130l112 164h212z" />
    <glyph glyph-name="uni04F4" unicode="&#x4f4;" horiz-adv-x="798" 
d="M480 700h268v-700h-268v241q-4 -1 -20.5 -4.5t-40.5 -7.5t-54 -7t-60 -3q-64 0 -108.5 12t-74 32t-46 44.5t-24.5 49t-10 47t-2 37.5v259h268v-223q0 -21 9 -33t21 -18t24.5 -7.5t20.5 -1.5q14 0 38.5 3t58.5 15v265zM357 896v-156h-180v156h180zM621 896v-156h-180v156
h180z" />
    <glyph glyph-name="uni04F5" unicode="&#x4f5;" horiz-adv-x="674" 
d="M624 524v-524h-252v184q-32 -9 -68.5 -14.5t-71.5 -5.5t-69.5 7.5t-61.5 26t-44 49.5t-17 78v199h252v-183q0 -4 0.5 -10t4.5 -12t12 -10.5t22 -4.5q10 0 21 3.5t20 8.5v208h252zM290 754v-154h-180v154h180zM554 754v-154h-180v154h180z" />
    <glyph glyph-name="uni04F8" unicode="&#x4f8;" horiz-adv-x="1122" 
d="M50 700h268v-202h147q74 0 127.5 -20t88.5 -54.5t51.5 -79.5t16.5 -95t-16.5 -95t-51.5 -79.5t-88.5 -54.5t-127.5 -20h-415v700zM365 162q10 0 29 2t38 10t33 25.5t14 49.5q0 16 -5 31.5t-18 28t-34.5 20t-55.5 7.5h-55v-174h54zM1072 700v-700h-268v700h268zM519 896
v-156h-180v156h180zM783 896v-156h-180v156h180z" />
    <glyph glyph-name="uni04F9" unicode="&#x4f9;" horiz-adv-x="995" 
d="M50 524h252v-154h88q68 0 115.5 -12.5t77.5 -36.5t44 -58.5t14 -77.5t-14 -77.5t-44 -58.5t-77.5 -36.5t-115.5 -12.5h-340v524zM389 185q0 57 -59 57h-33v-118h33q59 0 59 61zM945 524v-524h-252v524h252zM455 754v-154h-180v154h180zM719 754v-154h-180v154h180z" />
    <glyph glyph-name="uni0531" unicode="&#x531;" horiz-adv-x="898" 
d="M333 700v-415q0 -16 2.5 -36t10.5 -38t24.5 -30.5t45.5 -12.5q28 0 45 12.5t25 30.5t10.5 38t2.5 36v415h268v-412q0 -11 -1.5 -19.5t-3.5 -17.5l106 -46v-217l-185 90q-24 -26 -50.5 -43t-58.5 -27.5t-71 -15t-87 -4.5q-69 0 -114 9.5t-74 21.5q-48 20 -79.5 47.5
t-50 60.5t-26 70.5t-7.5 77.5v425h268z" />
    <glyph glyph-name="uni0532" unicode="&#x532;" horiz-adv-x="825" 
d="M499 409v31q0 48 -25 70t-58 22q-29 0 -45.5 -12t-24.5 -30t-10.5 -38.5t-2.5 -36.5v-100h437v-175h-437v-140h-268v425q0 40 7.5 77.5t26 70.5t50 60.5t79.5 47.5q29 12 74 21.5t114 9.5t114 -9.5t74 -21.5q34 -14 64 -35.5t52 -50.5t34.5 -67.5t12.5 -87.5v-31h-268z
" />
    <glyph glyph-name="uni0533" unicode="&#x533;" horiz-adv-x="893" 
d="M460 0v136q-31 -6 -57.5 -8.5t-55.5 -2.5q-27 0 -56.5 2t-59.5 9t-59.5 19t-55.5 32q-54 40 -75 94t-21 117q0 60 14.5 104.5t36.5 76.5t47.5 53t47.5 33q52 30 108.5 38.5t104.5 8.5q30 0 69.5 -3.5t80.5 -15t80 -34t68 -59.5q34 -45 42.5 -89t8.5 -81v-105h145v-180
h-145v-145h-268zM460 415q0 23 -3.5 48t-18.5 43q-6 7 -20 16.5t-39 9.5q-17 0 -34 -6.5t-30 -25.5q-14 -20 -17 -44t-3 -45q0 -22 4 -44t20 -39q14 -16 31 -19.5t33 -3.5q20 0 40 2.5t37 6.5v101z" />
    <glyph glyph-name="uni0534" unicode="&#x534;" horiz-adv-x="907" 
d="M464 0v415q0 16 -2.5 36t-10.5 38t-25 30.5t-45 12.5q-29 0 -45.5 -12.5t-24.5 -30.5t-10.5 -38t-2.5 -36v-83h-268v93q0 40 7.5 77.5t26 70.5t50 60.5t79.5 47.5q29 12 74 21.5t114 9.5t114 -9.5t74 -21.5q48 -20 79.5 -47.5t50 -60.5t26 -70.5t7.5 -77.5v-100h145v-180
h-145v-145h-268z" />
    <glyph glyph-name="uni0535" unicode="&#x535;" horiz-adv-x="827" 
d="M333 700v-127h439v-175h-439v-113q0 -13 2 -33t10 -38.5t25 -32t47 -13.5q15 0 29.5 5.5t26 17t19 30t7.5 44.5v18h268v-18q0 -27 -5 -60.5t-22.5 -67t-49.5 -65t-86 -53.5q-29 -12 -74 -21.5t-114 -9.5t-114 9.5t-74 21.5q-48 20 -79.5 47.5t-50 60.5t-26 70.5
t-7.5 77.5v425h268z" />
    <glyph glyph-name="uni0536" unicode="&#x536;" horiz-adv-x="941" 
d="M671 -26v16q0 9 -2.5 18t-7.5 16q-11 13 -26 15.5t-25 2.5h-292v-42h-268v206h261v-42h10q14 0 34 11t34 22q27 21 46 43l-1 5q-21 -2 -47 -1.5t-54 5.5t-56.5 16.5t-53.5 31.5q-42 33 -58.5 73.5t-16.5 88.5q0 24 4 50t15.5 52t31 50.5t51.5 45.5q27 18 56.5 29
t60.5 16.5t62 7.5t60 2q25 0 55 -1.5t61.5 -7t63 -17t58.5 -31.5q16 -12 32 -29t28.5 -39.5t20.5 -51t8 -63.5t-10 -72t-30 -69q-17 -27 -40.5 -50t-49.5 -42t-52 -33.5t-47 -24.5v-6h164q51 0 79 -15t42 -32q11 -13 17 -28t8.5 -29.5t3 -28t0.5 -23.5v-45h-230zM553 474
q0 28 -19 49.5t-53 21.5q-30 0 -46 -11t-23.5 -25t-9 -27.5t-1.5 -17.5q0 -28 8 -45t19 -26t24 -12t24 -3q12 0 26.5 3.5t29.5 12.5q21 36 21 80z" />
    <glyph glyph-name="uni0537" unicode="&#x537;" horiz-adv-x="742" 
d="M343 700v-127h373v-175h-373v-231h116q12 0 32 -1.5t42.5 -7t45.5 -16.5t41.5 -31t30 -49.5t11.5 -72.5v-85h-233v24q0 28 -8.5 43t-20.5 21.5t-25 7t-22 0.5h-278v700h268z" />
    <glyph glyph-name="uni0538" unicode="&#x538;" horiz-adv-x="830" 
d="M499 361v54q0 16 -2.5 36t-10.5 38t-25 30.5t-45 12.5q-29 0 -45.5 -12.5t-24.5 -30.5t-10.5 -38t-2.5 -36v-235h439v-180h-707v425q0 40 7.5 77.5t26 70.5t50 60.5t79.5 47.5q29 12 74 21.5t114 9.5t114 -9.5t74 -21.5q48 -20 79.5 -47.5t50 -60.5t26 -70.5t7.5 -77.5
v-64h-268z" />
    <glyph glyph-name="uni0539" unicode="&#x539;" horiz-adv-x="1052" 
d="M959 303v-4q0 -63 -23 -118.5t-65 -90.5q-27 -23 -59 -36.5t-63.5 -20t-58.5 -8t-43 -1.5q-15 0 -39.5 1.5t-52 8t-56 19t-52.5 34.5q-23 21 -36.5 45.5t-20.5 47.5t-8.5 44.5t-1.5 36.5q0 39 11 79.5t48 74.5q20 18 42 28.5t42.5 16.5t38.5 7.5t32 1.5h79q-10 28 -43 44
q-22 10 -45 12.5t-46 2.5q-63 0 -99.5 -11t-56.5 -26q-18 -14 -28 -29.5t-15 -32t-6 -32.5t-1 -31v-366h-268v406q0 60 15 105t43 78t67.5 55t88.5 36q20 6 82.5 17t178.5 11q96 0 154 -9t95 -25q49 -20 79.5 -47.5t48 -55.5t25 -53t10.5 -40h90v-175h-83zM645 320h-6
q-14 0 -27.5 -2.5t-24.5 -15.5q-11 -11 -13 -22.5t-2 -22.5v-5q0 -11 2 -24t12 -23q8 -9 20 -13.5t25 -4.5q21 0 34 10q10 8 16 20.5t9 26.5t4 27.5t1 24.5v24h-50z" />
    <glyph glyph-name="uni053A" unicode="&#x53a;" horiz-adv-x="908" 
d="M733 564h145v-180h-145v-114q0 -26 -4.5 -58t-18.5 -65t-40.5 -63.5t-70.5 -53.5q-54 -28 -110.5 -35t-104.5 -7q-45 0 -97.5 6.5t-106.5 33.5q-25 13 -52.5 33.5t-50 51.5t-37.5 72.5t-15 97.5q0 76 28.5 130t67.5 86q27 22 55.5 34.5t58 19.5t58 9t54.5 2h118v136h268
v-136zM404 384q-20 0 -41 -3.5t-38 -20.5t-21 -42.5t-4 -42.5q0 -22 3 -41t12 -33q12 -20 28.5 -26.5t36.5 -6.5q16 0 32.5 4.5t30.5 21.5q15 18 18.5 42.5t3.5 48.5v99h-61z" />
    <glyph glyph-name="uni053B" unicode="&#x53b;" horiz-adv-x="818" 
d="M75 700h268v-131q24 4 51.5 6.5t57.5 2.5q44 0 98.5 -8.5t103.5 -34.5q37 -21 61.5 -48t38 -58t19 -66t5.5 -72v-73h-268v63v21q0 17 -4.5 36t-18.5 33q-8 9 -26.5 18t-52.5 9q-17 0 -34 -2.5t-31 -6.5v-389h-268v700z" />
    <glyph glyph-name="uni053C" unicode="&#x53c;" horiz-adv-x="628" 
d="M343 700v-520h255v-180h-523v700h268z" />
    <glyph glyph-name="uni053D" unicode="&#x53d;" horiz-adv-x="1168" 
d="M343 700v-131h356v-263q0 -8 1 -25.5t7.5 -35t20 -31t39.5 -13.5q25 0 38.5 13t20 30.5t8 35t1.5 26.5v263h268v-261q0 -31 -5 -66.5t-22 -70t-49.5 -66t-86.5 -53.5q-41 -17 -89.5 -24t-83.5 -7t-83.5 7t-89.5 24q-54 22 -86.5 53.5t-49.5 66t-22 70t-5 66.5v81h-88
v-389h-268v700h268z" />
    <glyph glyph-name="uni053E" unicode="&#x53e;" horiz-adv-x="1007" 
d="M815 468q2 15 -7 29t-41 14h-58v-14q36 -12 59 -31t36 -36q20 -26 31 -61t11 -83q0 -38 -7.5 -69t-19 -56t-25.5 -44t-27 -33q-32 -33 -68.5 -52t-75 -28.5t-76.5 -12.5t-73 -3q-34 0 -70.5 2t-73 10.5t-71.5 24.5t-66 43q-27 23 -43.5 48.5t-26.5 51.5t-13.5 51.5
t-3.5 49.5q0 48 12 87.5t42 74.5q21 25 42.5 38t43.5 21v8h-122q-32 0 -56 10.5t-38 26.5q-20 23 -24 49t-4 43v73h222v-14q0 -14 5 -21t11.5 -11t14.5 -4.5t14 -0.5h581q12 0 26.5 -1t30 -5.5t31.5 -13t30 -22.5q11 -12 23.5 -35.5t12.5 -63.5v-40h-189zM476 450
q-18 0 -41.5 -9.5t-39.5 -42.5q-9 -18 -14 -49t-5 -57q0 -14 3.5 -40.5t14.5 -46.5q3 -7 9.5 -15.5t16.5 -15.5t24 -12t32 -5q17 0 40.5 9t40.5 39q11 20 15 43.5t4 44.5q0 29 -5 58t-16 49q-15 29 -35.5 39.5t-43.5 10.5z" />
    <glyph glyph-name="uni053F" unicode="&#x53f;" horiz-adv-x="843" 
d="M768 0h-268v119q-24 -4 -51 -6.5t-58 -2.5q-75 0 -120.5 12.5t-69.5 24.5q-44 22 -70.5 50.5t-41 61.5t-19.5 68t-5 70v303h268v-293v-22q0 -16 4.5 -35t18.5 -33q18 -18 40.5 -22.5t36.5 -4.5q19 0 36.5 3t30.5 6v241h268v-540z" />
    <glyph glyph-name="uni0540" unicode="&#x540;" horiz-adv-x="808" 
d="M16 251l324 295q9 7 9 18t-7 15l-35 22l122 111l153 -92q13 -8 21.5 -19t8.5 -31q0 -19 -7.5 -30t-15.5 -19l-193 -173l377 -135v-225z" />
    <glyph glyph-name="uni0541" unicode="&#x541;" horiz-adv-x="819" 
d="M606 0q-33 0 -68 9t-70 33q-55 -30 -103 -42t-102 -12q-37 0 -77.5 6.5t-71.5 25.5q-39 23 -54 57t-15 74q0 46 18 79t49 54.5t72 31.5t88 10q52 0 94.5 -15.5t94.5 -45.5q13 29 22 68t9 102q0 17 -3 38t-16 38q-8 11 -22.5 19t-37.5 8q-14 0 -30 -4t-27 -12
q-18 -13 -22.5 -32t-4.5 -33v-26h-268v38q0 39 9.5 70t25 55t34.5 41.5t39 29.5q51 31 116.5 39t140.5 8q27 0 60.5 -1.5t68.5 -7.5t69 -19.5t63 -37.5q12 -10 26 -26t26.5 -38.5t20.5 -52.5t8 -68t-11 -79.5t-37 -83.5q-21 -35 -47.5 -63.5t-48.5 -48.5q17 -11 31 -12.5
t36 -1.5h63v-172h-148zM353 131q-26 18 -49.5 28.5t-46.5 10.5q-10 0 -19.5 -2.5t-16.5 -8.5q-11 -8 -11 -24q0 -18 15 -28q10 -7 21.5 -8t16.5 -1q27 0 50.5 11t39.5 22z" />
    <glyph glyph-name="uni0542" unicode="&#x542;" horiz-adv-x="907" 
d="M464 0v415q0 16 -2.5 36t-10.5 38t-25 30.5t-45 12.5q-29 0 -45.5 -12.5t-24.5 -30.5t-10.5 -38t-2.5 -36v-83h-268v93q0 40 7.5 77.5t26 70.5t50 60.5t79.5 47.5q29 12 74 21.5t114 9.5t114 -9.5t74 -21.5q48 -20 79.5 -47.5t50 -60.5t26 -70.5t7.5 -77.5v-245h145v-180
h-413z" />
    <glyph glyph-name="uni0543" unicode="&#x543;" horiz-adv-x="849" 
d="M75 240q0 48 14.5 102.5t58.5 117.5q-29 3 -71 -2v151q92 8 187 0q27 29 57.5 48t75.5 32q21 6 66.5 14.5t117.5 8.5q45 0 90 -4t84 -10v-166q-11 2 -27 5t-35 6t-39.5 5t-39.5 2q-18 0 -35 -2t-35 -7q36 -8 63 -21t46.5 -26t31 -24.5t16.5 -15.5q24 -26 38.5 -55
t22 -57.5t10 -54.5t2.5 -47v-240h-699v240zM506 175v43q0 47 -8.5 80t-23 55.5t-32 36t-35.5 21.5q-42 -51 -53 -100t-11 -91v-45h163z" />
    <glyph glyph-name="uni0544" unicode="&#x544;" horiz-adv-x="917" 
d="M907 700v-150h-140v-275q0 -40 -7.5 -77.5t-26 -70.5t-50 -60.5t-79.5 -47.5q-29 -12 -74 -21.5t-114 -9.5t-114 9.5t-74 21.5q-48 20 -79.5 47.5t-50 60.5t-26 70.5t-7.5 77.5v425h268v-415q0 -16 2.5 -36t10.5 -38t24.5 -30.5t45.5 -12.5q28 0 45 12.5t25 30.5t10.5 38
t2.5 36v415h408z" />
    <glyph glyph-name="uni0545" unicode="&#x545;" horiz-adv-x="816" 
d="M332 226q-2 -18 3 -30t11 -20q15 -19 34 -23.5t36 -4.5q15 0 31 3.5t30 15.5q10 9 18 23t8 36q0 17 -5.5 31.5t-19.5 25.5q-9 8 -25 13.5t-41 5.5h-346v146h341q14 0 30 4t27 14q16 16 16 39q0 11 -4 20t-10 15q-8 8 -19 10t-21 2q-11 0 -23 -1.5t-23 -9.5
q-10 -8 -12.5 -14.5t-2.5 -9.5h-268q1 13 5.5 32.5t16 41t31.5 42.5t52 38q10 6 28 13t46 13.5t66.5 10.5t90.5 4q22 0 50 -1.5t57.5 -5.5t57 -11t50.5 -19q16 -9 32 -22t28.5 -30.5t20 -41t7.5 -53.5q0 -32 -9.5 -54t-22.5 -37q-14 -16 -34 -28.5t-46 -17.5v-7
q28 -3 54 -13.5t45 -27.5q17 -15 32.5 -43.5t15.5 -74.5t-21.5 -93t-80.5 -85t-128.5 -48.5t-134.5 -10.5q-30 0 -62 2t-64 8t-62.5 17.5t-57.5 31.5q-18 13 -34.5 30t-30 39t-22 49.5t-9.5 60.5h268z" />
    <glyph glyph-name="uni0546" unicode="&#x546;" horiz-adv-x="922" 
d="M423 285q0 -16 2.5 -36t10.5 -38t24.5 -30.5t45.5 -12.5q28 0 45 12.5t25 30.5t10.5 38t2.5 36v70h268v-80q0 -40 -7.5 -77.5t-26 -70.5t-50 -60.5t-79.5 -47.5q-29 -12 -74 -21.5t-114 -9.5t-114 9.5t-74 21.5q-48 20 -79.5 47.5t-50 60.5t-26 70.5t-7.5 77.5v275h-140
v150h408v-415z" />
    <glyph glyph-name="uni0547" unicode="&#x547;" horiz-adv-x="792" 
d="M742 264q-2 -48 -19 -97t-48 -84q-28 -31 -63.5 -49t-73 -27.5t-74.5 -12t-68 -2.5q-66 0 -126 8t-111 37q-63 35 -91 86.5t-28 129.5q0 21 2.5 44t10.5 47t22.5 48.5t38.5 47.5q28 27 62.5 45t79.5 24v7q-16 8 -36 13t-49 5q-32 0 -68 -8t-63 -17v173q49 14 104 22
t100 8q31 0 55 -4t46 -12t43 -20t45 -28q44 -29 88 -57t96 -40q16 -4 33.5 -5.5t33.5 -2t29.5 0t21.5 0.5v-172q-49 -2 -90 0t-77 9t-67.5 20.5t-62.5 34.5q-23 -2 -47 -11.5t-39 -26.5q-23 -26 -27.5 -61.5t-4.5 -66.5q0 -9 0.5 -21t2.5 -25t6.5 -24.5t13.5 -20.5
q8 -8 21 -13.5t35 -5.5q17 0 36.5 7t32.5 30q8 15 10.5 35.5t1.5 31.5h262z" />
    <glyph glyph-name="uni0548" unicode="&#x548;" horiz-adv-x="832" 
d="M499 0v415q0 16 -2.5 36t-10.5 38t-25 30.5t-45 12.5q-29 0 -45.5 -12.5t-24.5 -30.5t-10.5 -38t-2.5 -36v-415h-268v425q0 40 7.5 77.5t26 70.5t50 60.5t79.5 47.5q29 12 74 21.5t114 9.5t114 -9.5t74 -21.5q48 -20 79.5 -47.5t50 -60.5t26 -70.5t7.5 -77.5v-425h-268z
" />
    <glyph glyph-name="uni0549" unicode="&#x549;" horiz-adv-x="800" 
d="M261 270q29 -2 60 4.5t59 22.5q42 23 68.5 64.5t26.5 95.5q0 29 -8 45.5t-17 24.5q-11 11 -23 14t-24 3q-23 0 -40 -9t-26 -22q-8 -11 -11 -25.5t-3 -27.5v-24h-268v20q0 70 26.5 116.5t61.5 73.5q29 23 64.5 36.5t71.5 20t70 8t60 1.5q28 0 63 -2t71.5 -8.5t72 -20
t63.5 -36.5q10 -8 23 -22t25 -33.5t20 -46t8 -60.5q0 -54 -20 -101t-55 -83q-26 -28 -71 -54.5t-109 -34.5v-7l176 -45l-51 -170l-580 142l50 181z" />
    <glyph glyph-name="uni054A" unicode="&#x54a;" horiz-adv-x="1057" 
d="M724 372q0 54 -6.5 80.5t-12.5 37.5q-16 29 -36.5 36t-34.5 6v-388h-246v388q-15 -1 -32.5 -8t-32.5 -31q-15 -23 -20 -57.5t-5 -67.5v-46h-268v71q0 28 4 59t16 62t34 61t58 57q64 47 157.5 63.5t217.5 16.5q72 0 127.5 -2.5t99 -8.5t76.5 -17t60 -29q38 -25 60.5 -54.5
t34 -58.5t14.5 -57t3 -50v-435h-268v372z" />
    <glyph glyph-name="uni054B" unicode="&#x54b;" horiz-adv-x="941" 
d="M587 175h164q51 0 79 -15t42 -32q11 -13 17 -28t8.5 -29.5t3 -28t0.5 -23.5v-45h-230v16q0 9 -2.5 18t-7.5 16q-11 13 -26 15.5t-25 2.5h-292v-42h-268v206h261v-42q32 -4 49.5 13.5t17.5 38.5q0 15 -7.5 30t-30.5 24q-12 5 -23.5 7.5t-24.5 5.5t-27 7.5t-31 13.5
q-48 26 -70.5 69t-22.5 92q0 22 4.5 47.5t17 51t34.5 50t56 45.5q51 31 104.5 42t116.5 11q27 0 57 -2t61.5 -8t62 -16t57.5 -26q59 -38 82 -89.5t23 -100.5q0 -57 -23.5 -105t-59.5 -83q-13 -12 -30.5 -25.5t-37 -26.5t-40 -25.5t-39.5 -22.5v-7zM495 277q16 22 30 51
q13 28 18 53t5 51q0 22 -4 44t-15 39q-20 29 -54 29q-14 0 -25.5 -6t-19.5 -16q-17 -21 -17 -62q0 -22 5 -37t12.5 -25.5t16 -17.5t16.5 -13q9 -8 16.5 -18.5t7.5 -30.5q0 -5 -1.5 -14t-6.5 -20z" />
    <glyph glyph-name="uni054C" unicode="&#x54c;" horiz-adv-x="942" 
d="M499 0v415q0 16 -2.5 36t-10.5 38t-25 30.5t-45 12.5q-29 0 -45.5 -12.5t-24.5 -30.5t-10.5 -38t-2.5 -36v-415h-268v425q0 40 7.5 77.5t26 70.5t50 60.5t79.5 47.5q29 12 74 21.5t114 9.5t114 -9.5t74 -21.5q48 -20 79.5 -47.5t50 -60.5t26 -70.5t7.5 -77.5v-100h145
v-180h-145v-145h-268z" />
    <glyph glyph-name="uni054D" unicode="&#x54d;" horiz-adv-x="832" 
d="M333 700v-415q0 -16 2.5 -36t10.5 -38t24.5 -30.5t45.5 -12.5q28 0 45 12.5t25 30.5t10.5 38t2.5 36v415h268v-425q0 -40 -7.5 -77.5t-26 -70.5t-50 -60.5t-79.5 -47.5q-29 -12 -74 -21.5t-114 -9.5t-114 9.5t-74 21.5q-48 20 -79.5 47.5t-50 60.5t-26 70.5t-7.5 77.5
v425h268z" />
    <glyph glyph-name="uni054E" unicode="&#x54e;" horiz-adv-x="918" 
d="M743 180h145v-180h-413v146q-24 -4 -51 -6.5t-58 -2.5q-75 0 -120.5 12.5t-69.5 24.5q-44 22 -70.5 50.5t-41 61.5t-19.5 68t-5 70v115h268v-105v-22q0 -16 4.5 -35t18.5 -33q8 -9 26.5 -18t52.5 -9q17 0 34 2.5t31 6.5v374h268v-520z" />
    <glyph glyph-name="uni054F" unicode="&#x54f;" horiz-adv-x="798" 
d="M316 244q-2 -16 1.5 -32.5t11.5 -27.5q7 -10 23.5 -19.5t48.5 -9.5q8 0 24.5 2t30.5 11q19 13 19 36q0 13 -4.5 23t-15.5 19t-32 17t-67 21q-23 6 -53 14.5t-61.5 22t-60 32.5t-48.5 46q-23 32 -29 62t-6 47q0 60 24 98.5t63 61.5q10 6 27 13.5t42.5 14.5t60 11.5
t81.5 4.5q23 0 51 -1.5t57.5 -6.5t58.5 -15.5t55 -28.5t42 -38t25 -41t12 -41.5t3 -39.5h-256q3 21 -8 37t-36 16q-5 0 -12 -1t-13.5 -5.5t-11.5 -13t-5 -24.5q0 -14 4.5 -23.5t20.5 -20.5q9 -6 20 -11.5t27 -11.5t38.5 -13.5t52.5 -16.5q73 -23 118 -43.5t71 -48.5
q17 -19 30 -46.5t13 -69.5q0 -57 -23 -96.5t-65 -65.5q-28 -18 -59 -28.5t-64 -16.5t-66 -7.5t-65 -1.5q-84 0 -146.5 11t-107.5 37q-38 22 -60.5 49.5t-34 55.5t-14.5 55t-3 48h271z" />
    <glyph glyph-name="uni0550" unicode="&#x550;" horiz-adv-x="797" 
d="M499 339v76q0 16 -2.5 36t-10.5 38t-25 30.5t-45 12.5q-29 0 -45.5 -12.5t-24.5 -30.5t-10.5 -38t-2.5 -36v-415h-268v425q0 40 7.5 77.5t26 70.5t50 60.5t79.5 47.5q29 12 74 21.5t114 9.5t114 -9.5t74 -21.5q48 -20 79.5 -47.5t50 -60.5t26 -70.5t7.5 -77.5v-86h-268z
" />
    <glyph glyph-name="uni0551" unicode="&#x551;" horiz-adv-x="816" 
d="M49 306q12 30 32.5 53.5t47 40t56.5 25.5t62 11v9q-25 4 -41 12.5t-22 13.5q-23 17 -33.5 38.5t-10.5 47.5q0 32 15 61t52 52q23 14 49 22.5t52 13t51 5.5t47 1q70 0 115 -9t75 -25q35 -19 55.5 -47.5t20.5 -71.5q0 -26 -10 -47t-33 -38q-15 -11 -32.5 -18t-31.5 -11v-9
q5 0 18.5 -1.5t31.5 -6.5t39 -13.5t41 -22.5q42 -30 59 -69t17 -85q0 -60 -23 -107t-75 -82q-29 -20 -62 -31.5t-68.5 -18.5t-71 -9t-68.5 -2q-81 0 -143.5 11.5t-110.5 40.5q-30 18 -49.5 39.5t-31 42.5t-16.5 41.5t-7 37.5h270q2 -12 9.5 -21t23.5 -17q14 -7 28 -8.5
t27 -1.5q17 0 36.5 3t33.5 14q11 8 20.5 23t9.5 41q0 22 -8 41t-23 31q-17 14 -37 17.5t-36 3.5q-23 0 -37.5 -4t-23.5 -9.5t-13.5 -12.5t-6.5 -13zM402 593q-8 0 -23 -2.5t-27 -14.5q-6 -7 -10 -16t-4 -21q0 -27 18 -43q2 -2 14 -8.5t36 -6.5q11 0 24 3t24 14q7 6 11.5 16
t4.5 24q0 23 -15 38q-6 6 -18.5 11.5t-34.5 5.5z" />
    <glyph glyph-name="uni0552" unicode="&#x552;" horiz-adv-x="706" 
d="M65 0v700h268v-132h34q66 0 104.5 -18t54.5 -36q19 -20 28.5 -42.5t19.5 -47.5q6 -14 13 -27t18 -22.5t28 -15t43 -5.5v-198q-33 0 -64.5 3t-59.5 12t-52 26t-41 46q-8 13 -13.5 26.5t-10.5 27.5q-4 9 -7.5 18.5t-8.5 17.5q-13 21 -28.5 29t-34.5 8h-23v-370h-268z" />
    <glyph glyph-name="uni0553" unicode="&#x553;" horiz-adv-x="1020" 
d="M376 0v87q-82 0 -130 10.5t-74 21.5q-34 15 -62 36t-48 50.5t-31 67.5t-11 88q0 91 37 146.5t106 87.5q27 12 57 19.5t59 11.5t54.5 5.5t42.5 1.5v67h268v-67q10 0 34.5 -1t54.5 -5t63 -11.5t61 -20.5q69 -32 106 -88t37 -146q0 -50 -11 -88t-31 -67.5t-48 -50.5t-62 -36
q-26 -11 -74 -21.5t-130 -10.5v-87h-268zM632 248h16q39 0 65.5 31t26.5 80q0 52 -25.5 82.5t-67.5 30.5h-15v-224zM373 472q-42 0 -67.5 -30.5t-25.5 -82.5q0 -49 26.5 -80t65.5 -31h16v224h-15z" />
    <glyph glyph-name="uni0554" unicode="&#x554;" horiz-adv-x="864" 
d="M155 0v60h-110v145h110v236q0 27 3.5 60.5t17 66.5t41 63t74.5 50q46 20 96 25.5t95 5.5q30 0 61 -2t61.5 -8.5t59 -17.5t52.5 -29q51 -38 67.5 -84.5t16.5 -94.5q0 -37 -7 -66t-17.5 -50.5t-24 -37t-26.5 -26.5q-21 -17 -44.5 -27.5t-47 -16t-46 -7t-41.5 -1.5
q-37 0 -66.5 4.5t-59.5 14.5v-63h399v-140h-396v-60h-268zM421 428q16 -7 35 -11t36 -4q8 0 17 2t18 8q15 11 18.5 24.5t3.5 30.5q0 14 -3 28.5t-16 26.5q-10 10 -21 13t-24 3q-10 0 -23 -2.5t-24 -13.5q-4 -4 -10.5 -16.5t-6.5 -38.5v-50z" />
    <glyph glyph-name="uni0555" unicode="&#x555;" horiz-adv-x="820" 
d="M410 712q31 0 65.5 -3t70.5 -12.5t72 -27t69 -45.5q63 -54 88 -123.5t25 -150.5t-25 -150.5t-88 -123.5q-33 -28 -69 -45.5t-72 -27t-70.5 -12.5t-65.5 -3t-65.5 3t-70.5 12.5t-72 27t-69 45.5q-63 54 -88 123.5t-25 150.5t25 150.5t88 123.5q33 28 69 45.5t72 27
t70.5 12.5t65.5 3zM410 544q-16 0 -39 -8t-41 -37q-16 -25 -22 -61.5t-6 -87.5t6 -87.5t22 -61.5q18 -29 41 -37t39 -8t39 8t41 37q16 25 22 61.5t6 87.5t-6 87.5t-22 61.5q-18 29 -41 37t-39 8z" />
    <glyph glyph-name="uni0556" unicode="&#x556;" horiz-adv-x="1053" 
d="M293 250q-1 -23 8.5 -40t22.5 -27q9 -7 21 -11.5t24.5 -7.5t24 -4t19.5 -1v185q-78 3 -135.5 12.5t-99.5 41.5q-29 23 -46 55t-17 77q0 53 20 84.5t42 47.5q30 22 72 30t81 8h317v-202q73 -2 126 -10.5t89.5 -20.5t59.5 -26t37 -26q42 -36 56 -77.5t14 -79.5
q0 -26 -5 -54.5t-18.5 -56.5t-37.5 -54t-62 -46q-63 -34 -157 -46.5t-229 -12.5q-57 0 -99 1t-74 3t-56 5t-44 8q-10 2 -29.5 7.5t-44 16.5t-50 29t-46.5 44.5t-34 63t-12 84.5h262zM428 565h-58q-21 0 -34.5 -12t-13.5 -31q0 -9 4.5 -19t16.5 -17.5t32.5 -11.5t52.5 -2v93z
M647 158q20 -1 42 4t40 17q21 14 29.5 32t8.5 38q0 14 -5.5 30.5t-22.5 30.5q-17 13 -38.5 17t-53.5 5v-174z" />
    <glyph glyph-name="uni0559" unicode="&#x559;" horiz-adv-x="161" 
d="M151 877h-7q-26 0 -35 -13t-9 -27q0 -7 2 -13t4 -10q4 -6 12.5 -11.5t25.5 -5.5h7v-69h-19q-22 0 -42.5 4t-40.5 20q-17 14 -28 36t-11 49q0 29 11 50t28 35q20 16 40.5 20t42.5 4h19v-69z" />
    <glyph glyph-name="uni055A" unicode="&#x55a;" horiz-adv-x="316" 
d="M295 700l-115 -306h-159l62 306h212z" />
    <glyph glyph-name="uni055B" unicode="&#x55b;" horiz-adv-x="10" 
d="M-135 740h-103l88 160h160z" />
    <glyph glyph-name="uni055C" unicode="&#x55c;" horiz-adv-x="10" 
d="M40 900q-2 -20 -9.5 -44t-20.5 -40q-11 -14 -33.5 -27t-61.5 -13q-8 0 -17 0.5t-17 1.5q-11 1 -22.5 2t-22.5 1q-35 0 -48 -14t-16 -27h-74q2 22 9 45t21 40q20 24 44 31.5t50 7.5q20 0 41 -2t41 -2q7 0 16.5 1t18.5 5.5t16.5 12t10.5 21.5h74z" />
    <glyph glyph-name="uni055D" unicode="&#x55d;" horiz-adv-x="89" 
d="M11 900l88 -160h-103l-145 160h160z" />
    <glyph glyph-name="uni055E" unicode="&#x55e;" horiz-adv-x="10" 
d="M-293 734q13 20 30.5 45t32.5 43q13 16 30.5 32t40.5 28q19 10 38 14t38 4q26 0 43.5 -6.5t29.5 -17.5q16 -14 21 -29.5t5 -29.5q0 -17 -3.5 -29t-8.5 -21t-10 -14t-8 -7q-16 -14 -33 -18t-34 -4q-26 0 -47 7l14 37q7 -1 15 1t13 7q7 4 7 18q0 2 -1 6t-4 8q-2 2 -7.5 4.5
t-13.5 2.5q-30 0 -63 -33q-8 -8 -20.5 -22.5t-20.5 -25.5h-84z" />
    <glyph glyph-name="uni055F" unicode="&#x55f;" horiz-adv-x="335" 
d="M325 728h-163q-21 0 -50 4t-53 20q-25 17 -37 42.5t-12 51.5q0 18 6 38.5t19 39.5l88 -29q-5 -10 -9.5 -23.5t-4.5 -25.5q0 -13 5 -20.5t11 -11.5q9 -6 19 -7.5t15 -1.5h166v-77z" />
    <glyph glyph-name="uni0561" unicode="&#x561;" horiz-adv-x="1034" 
d="M746 91h-4q-16 -36 -39 -56.5t-47.5 -31t-48 -13t-40.5 -2.5q-19 0 -41 2.5t-44.5 11t-43 24t-35.5 42.5q-18 -29 -40.5 -45t-45.5 -23.5t-44.5 -9.5t-36.5 -2q-31 0 -67.5 7.5t-69.5 40.5q-18 18 -28 37t-14.5 39t-5.5 41t-1 44v327h252v-302q0 -11 0.5 -23t4.5 -23
t13.5 -18t26.5 -7t26 7t13 17.5t4.5 23t0.5 23.5v302h252v-302q0 -11 0.5 -23.5t4.5 -23t13 -17.5t26 -7t26.5 7t13.5 18t4.5 23t0.5 23v302h252v-524h-238v91z" />
    <glyph glyph-name="uni0562" unicode="&#x562;" horiz-adv-x="690" 
d="M288 433h4q6 15 17.5 32.5t31.5 33.5t50.5 26.5t74.5 10.5q64 0 99.5 -21t52.5 -49t21 -57t4 -45v-100h-252v38q0 10 -0.5 22.5t-5 23t-14 18t-26.5 7.5t-25.5 -7t-12.5 -17.5t-4.5 -23t-0.5 -23.5v-162h343v-140h-343v-219h-252v743h238v-91z" />
    <glyph glyph-name="uni0563" unicode="&#x563;" horiz-adv-x="811" 
d="M661 524v-379h150v-145h-150v-219h-252v286q-18 -26 -40 -42t-43.5 -24t-41.5 -10.5t-35 -2.5q-27 0 -49.5 5t-39.5 11.5t-28 13t-16 10.5q-18 13 -35 32t-30.5 46.5t-22 64.5t-8.5 85q0 44 6.5 78.5t17.5 61t25 46.5t28 34q10 10 25 20.5t35 19.5t45 14.5t55 5.5
q14 0 34.5 -2.5t43.5 -12t46 -27.5t42 -49h4v79h234zM416 255q0 15 -2 34t-8.5 36.5t-19 29t-33.5 11.5t-33.5 -11.5t-19 -29t-8.5 -36.5t-2 -34t2 -34t8.5 -36.5t19 -29t33.5 -11.5t33.5 11.5t19 29t8.5 36.5t2 34z" />
    <glyph glyph-name="uni0564" unicode="&#x564;" horiz-adv-x="793" 
d="M288 433h4q6 15 17.5 33t31.5 33.5t49.5 26t72.5 10.5q7 0 20.5 -0.5t30.5 -3.5t35 -9.5t33 -17.5q8 -6 18.5 -17t20 -28t16 -41t6.5 -55v-219h150v-145h-150v-219h-252v521q0 11 -0.5 23.5t-4.5 23t-13 17.5t-26 7t-26 -7t-13 -17.5t-5 -23t-1 -23.5v-302h-252v524h238
v-91z" />
    <glyph glyph-name="uni0565" unicode="&#x565;" horiz-adv-x="701" 
d="M643 0h-238v90h-2q-21 -49 -64 -75.5t-106 -26.5q-30 0 -63.5 7t-58.5 24q-20 14 -31.5 31.5t-18.5 36t-9 37.5t-2 35v526h252v-161h349v-140h-349v-163q0 -11 0.5 -23.5t4.5 -23t13 -17.5t26 -7t26.5 7t13.5 18t4.5 23t0.5 23v40h252v-261z" />
    <glyph glyph-name="uni0566" unicode="&#x566;" horiz-adv-x="723" 
d="M643 -74h135v-145h-387v295q-14 -30 -35.5 -47.5t-45 -26.5t-46 -11.5t-38.5 -2.5q-26 0 -56.5 5.5t-58.5 25.5q-20 15 -32 32t-18.5 35t-8.5 36.5t-2 36.5v365h252v-303q0 -11 0.5 -23.5t4.5 -23t13 -17.5t26 -7t26.5 7t13.5 18t4.5 23t0.5 23v303h252v-598z" />
    <glyph glyph-name="uni0567" unicode="&#x567;" horiz-adv-x="633" 
d="M618 384h-316v-244h139q42 0 66 -14t36 -29q9 -12 14 -25.5t8 -27t3.5 -25t0.5 -18.5v-92h-207v47q0 31 -13 37.5t-31 6.5h-268v685h252v-161h316v-140z" />
    <glyph glyph-name="uni0568" unicode="&#x568;" horiz-adv-x="693" 
d="M288 433h4q24 57 70.5 80t102.5 23q33 0 64 -7.5t54 -24.5q21 -16 33 -36t18 -39.5t7.5 -37t1.5 -27.5v-348h-252v286q0 11 -0.5 23.5t-4.5 23t-13 17.5t-26 7t-26.5 -7t-13.5 -18t-4.5 -23.5t-0.5 -22.5v-381h340v-140h-592v743h238v-91z" />
    <glyph glyph-name="uni0569" unicode="&#x569;" horiz-adv-x="883" 
d="M50 -219v743h238v-82h5q16 23 34 38t41 26q36 18 73 24t79 6q48 0 101 -10t95 -42q30 -23 54 -63.5t28 -95.5h75v-135h-74q0 -33 -8.5 -58t-19.5 -44t-22.5 -30.5t-18.5 -17.5q-21 -18 -45.5 -29t-50 -16.5t-49.5 -7.5t-44 -2q-31 0 -69.5 6.5t-74.5 34.5q-31 24 -45 56
t-14 74q0 37 12.5 69t44.5 58q17 14 35 22.5t34.5 13t30.5 5.5t24 1h30q-1 23 -10.5 39t-23.5 25.5t-31 13.5t-33 4q-60 0 -99 -36q-19 -17 -34.5 -46.5t-15.5 -74.5v-469h-252zM540 204q-13 0 -29 -3t-27 -17q-5 -7 -9 -16.5t-4 -18.5q0 -8 2.5 -17.5t9.5 -17.5
q13 -15 37 -15q29 0 41 17q2 4 5.5 14.5t3.5 38.5v35h-30z" />
    <glyph glyph-name="uni056A" unicode="&#x56a;" horiz-adv-x="768" 
d="M661 379v-132q0 -26 -4.5 -53.5t-16.5 -54.5t-33.5 -52.5t-54.5 -46.5q-51 -31 -105 -39.5t-105 -8.5q-28 0 -58 2t-60 9t-58 19t-52 32q-15 12 -31.5 30.5t-30.5 45.5t-23 62.5t-9 81.5q0 48 15 95t58 87q25 23 53 36.5t55 20.5t51.5 9t42.5 2h114v161h252v-161h107
v-145h-107zM366 379q-20 0 -41.5 -6.5t-39.5 -31.5q-15 -22 -18.5 -46t-3.5 -42q0 -15 3 -41t17 -44q8 -10 21 -18t34 -8q23 0 36.5 9t21.5 27q6 13 9.5 34.5t3.5 60.5v106h-43z" />
    <glyph glyph-name="uni056B" unicode="&#x56b;" horiz-adv-x="694" 
d="M302 458q19 26 41.5 41.5t44 23.5t41.5 10.5t34 2.5q45 0 79 -12t55 -32q19 -18 33 -48.5t14 -79.5v-364h-252v302q0 11 -0.5 23.5t-4.5 23t-13.5 17.5t-26.5 7t-26.5 -7t-13.5 -17.5t-4.5 -23t-0.5 -23.5v-521h-252v904h252v-227z" />
    <glyph glyph-name="uni056C" unicode="&#x56c;" horiz-adv-x="386" 
d="M302 -74h179v-145h-431v743h252v-598z" />
    <glyph glyph-name="uni056D" unicode="&#x56d;" horiz-adv-x="1013" 
d="M302 685v-161h320v-303q0 -11 0.5 -23t4.5 -23t13.5 -18t26.5 -7t26 7t13 17.5t4.5 23t0.5 23.5v303h252v-524h-238v90h-2q-14 -33 -35 -53t-45 -31t-48.5 -14.5t-45.5 -3.5q-32 0 -61.5 5.5t-55.5 25.5q-20 15 -32.5 32t-19 35t-8.5 36.5t-2 36.5v225h-68v-603h-252v904
h252z" />
    <glyph glyph-name="uni056E" unicode="&#x56e;" horiz-adv-x="709" 
d="M684 399q-21 3 -41 4.5t-39 2.5q35 -48 45.5 -90t10.5 -74q0 -69 -27 -115.5t-67 -75.5q-26 -19 -54.5 -30.5t-58 -18t-59.5 -8.5t-58 -2q-27 0 -57.5 2t-61.5 9.5t-61 22t-57 38.5q-31 28 -55 74t-24 117q0 36 6.5 64.5t16.5 50.5t21.5 37.5t22.5 26.5q26 26 67 44.5
t92 22.5q-20 22 -44.5 41.5t-53.5 39.5l54 103h244l-42 -75q26 -18 53 -39t53 -47q40 0 77.5 -2t73.5 -6zM344 387q-17 -5 -30.5 -15t-24.5 -34q-11 -26 -14 -53t-3 -43q0 -43 13 -69q10 -20 24 -28t34 -8q15 0 28 6.5t23 21.5q8 14 12.5 33.5t4.5 34.5q0 17 -4.5 38
t-11.5 36q-8 16 -23.5 39.5t-27.5 40.5z" />
    <glyph glyph-name="uni056F" unicode="&#x56f;" horiz-adv-x="693" 
d="M643 -219h-252v299q-5 -13 -15 -29t-28.5 -30t-46.5 -23.5t-68 -9.5q-8 0 -21.5 1t-30.5 4t-35.5 9t-34.5 17q-20 14 -31.5 31.5t-18.5 36t-9 37.5t-2 35v526h252v-464q0 -11 0.5 -23.5t4.5 -23t13 -17.5t26 -7t26.5 7t13.5 18t4.5 23t0.5 23v303h252v-743z" />
    <glyph glyph-name="uni0570" unicode="&#x570;" horiz-adv-x="694" 
d="M302 458q58 78 164 78q40 0 74 -12t57 -33q31 -28 39 -61.5t8 -65.5v-364h-252v302q0 11 -0.5 23.5t-4.5 23t-13.5 17.5t-26.5 7t-26.5 -7t-13.5 -17.5t-4.5 -23t-0.5 -23.5v-302h-252v685h252v-227z" />
    <glyph glyph-name="uni0571" unicode="&#x571;" horiz-adv-x="761" 
d="M493 61q-35 -22 -67 -35.5t-62.5 -21t-60.5 -10t-60 -2.5q-107 0 -157.5 36.5t-50.5 105.5q0 42 17 76t43 66l197 231q6 7 6 13q0 7 -8 10l-56 15q-17 5 -17 22q0 7 5 19l47 99h191l-28 -54q-2 -6 -2 -7q0 -9 11 -11l95 -12q10 -2 16.5 -8.5t6.5 -16.5q0 -8 -6 -17
l-45 -61l248 -498h-237zM325 259q-14 -20 -25.5 -38.5t-11.5 -42.5q0 -7 2.5 -15t9 -15.5t19 -12.5t33.5 -5q23 0 50.5 6.5t53.5 19.5l-79 173z" />
    <glyph glyph-name="uni0572" unicode="&#x572;" horiz-adv-x="723" 
d="M288 433h4q15 36 38 56.5t47.5 31t49 13t42.5 2.5q26 0 56 -5.5t57 -25.5q39 -29 50 -67.5t11 -73.5v-438h135v-145h-387v521q0 11 -0.5 23.5t-4.5 23t-13 17.5t-26 7t-26.5 -7t-13.5 -18t-4.5 -23.5t-0.5 -22.5v-302h-252v524h238v-91z" />
    <glyph glyph-name="uni0573" unicode="&#x573;" horiz-adv-x="767" 
d="M507 58q-135 -66 -284 -66q-14 0 -31 1t-35 4t-36 10t-34 19q-22 17 -37 44t-15 69q0 38 11.5 65t22.5 44l125 177q-9 1 -17.5 1h-17.5q-17 0 -34 -1t-33 -3l17 132q21 2 42.5 3t42.5 1t42 -1t43 -3l29 42q17 24 39 46t53 36q27 12 54.5 14.5t53.5 2.5q42 0 78.5 -4.5
t74.5 -15.5v-147q-20 8 -49 14.5t-54 6.5q-34 0 -49.5 -9.5t-23.5 -23.5q33 -10 56 -26.5t38.5 -35.5t24.5 -37.5t14 -31.5l140 -385h-231zM429 284q-7 19 -12.5 32t-10 21.5t-10 14.5t-12.5 11l-77 -127q-5 -9 -10 -23t-5 -26t5 -23t13 -17q14 -11 45 -11q27 0 59 7t59 18z
" />
    <glyph glyph-name="uni0574" unicode="&#x574;" horiz-adv-x="773" 
d="M405 0v90h-2q-21 -49 -64 -75.5t-106 -26.5q-33 0 -66 7t-56 24q-20 14 -31.5 31.5t-18.5 36t-9 37.5t-2 35v365h252v-303q0 -11 0.5 -23.5t4.5 -23t13 -17.5t26 -7t26.5 7t13.5 18t4.5 23t0.5 23v277q0 30 7 68t37 71q9 10 23 20.5t34 19.5t48 14.5t65 5.5q35 0 76.5 -6
t81.5 -15v-150q-20 5 -39 7t-28 2q-19 0 -29.5 -6t-16 -15.5t-6.5 -21t-1 -22.5v-470h-238z" />
    <glyph glyph-name="uni0575" unicode="&#x575;" horiz-adv-x="399" 
d="M332 524v-556q0 -30 -7 -68t-37 -71q-9 -10 -23 -20.5t-34.5 -19.5t-48 -14.5t-63.5 -5.5q-28 0 -68 4.5t-86 16.5v150q8 -3 22.5 -6t37.5 -3q19 0 30 6.5t16.5 16t7 21t1.5 21.5v528h252z" />
    <glyph glyph-name="uni0576" unicode="&#x576;" horiz-adv-x="715" 
d="M665 0h-238v90h-2q-16 -35 -38.5 -55t-47 -30.5t-48 -13.5t-41.5 -3q-29 0 -60 5.5t-57 25.5q-20 15 -31.5 32t-18.5 35.5t-9 37t-2 35.5v401h-142v125h394v-464q0 -11 0.5 -23.5t4.5 -23t13 -17.5t26 -7t26.5 7t13.5 18t4.5 23t0.5 23v303h252v-524z" />
    <glyph glyph-name="uni0577" unicode="&#x577;" horiz-adv-x="566" 
d="M145 -219q-8 0 -20.5 1t-27 4t-29.5 10t-27 19q-12 11 -21.5 31t-9.5 49q0 35 11.5 62.5t31.5 50.5l178 206q26 31 33.5 52.5t7.5 36.5q0 11 -4 28t-21 28q-8 6 -22 9.5t-35 3.5q-32 0 -70 -6.5t-70 -17.5v145q13 4 37.5 11.5t58 14.5t74 12t85.5 5q18 0 39.5 -1.5
t44.5 -7t45.5 -16t42.5 -29.5q32 -31 39.5 -64t7.5 -55q0 -41 -17.5 -82.5t-63.5 -97.5l-132 -162q-8 -9 -17 -21t-9 -29q0 -23 15.5 -34t34.5 -11h196v-145h-386z" />
    <glyph glyph-name="uni0578" unicode="&#x578;" horiz-adv-x="693" 
d="M288 433h4q6 15 17.5 33t31.5 33.5t51 26t76 10.5q26 0 57.5 -5.5t57.5 -25.5q19 -14 31 -31.5t18.5 -36.5t8.5 -37.5t2 -35.5v-364h-252v302q0 11 -0.5 23.5t-4.5 23t-13 17.5t-26 7t-26.5 -7t-13.5 -18t-4.5 -23.5t-0.5 -22.5v-302h-252v524h238v-91z" />
    <glyph glyph-name="uni0579" unicode="&#x579;" horiz-adv-x="498" 
d="M111 -219q-32 0 -52.5 10.5t-32.5 25.5t-16.5 31.5t-4.5 28.5q0 38 26 73l157 204q4 5 7.5 14t3.5 17q0 10 -3.5 15.5t-6.5 7.5l-105 85q-10 8 -14 19.5t-4 20.5q0 8 2 18.5t7 18.5l106 154h236l-88 -109q-15 -21 -19.5 -32t-3.5 -19q2 -11 7.5 -17.5t9.5 -9.5l90 -73
q7 -6 18.5 -20t11.5 -36q0 -19 -9 -34.5t-20 -29.5l-124 -156q-5 -5 -9 -14.5t-4 -17.5q1 -17 10 -23t19 -7h11h211v-145h-417z" />
    <glyph glyph-name="uni057A" unicode="&#x57a;" horiz-adv-x="1034" 
d="M732 72q-16 -28 -37 -44.5t-43 -25.5t-44 -11.5t-41 -2.5t-41 2.5t-44.5 11t-43 24t-35.5 42.5q-17 -26 -37 -41.5t-42 -24t-44 -11.5t-42 -3q-32 0 -69 8t-70 40q-18 18 -28 37t-14.5 39t-5.5 41t-1 44v327h252v-302q0 -11 0.5 -23t4.5 -23t13.5 -18t26.5 -7t26 7
t13 17.5t4.5 23t0.5 23.5v302h252v-302q0 -11 0.5 -23.5t4.5 -23t13 -17.5t26 -7t26.5 7t13.5 18t4.5 23t0.5 23v302h252v-743h-252v291z" />
    <glyph glyph-name="uni057B" unicode="&#x57b;" horiz-adv-x="693" 
d="M161 -219q-21 0 -47 3.5t-48 26.5q-12 12 -16.5 26t-4.5 31q0 12 3 24.5t13.5 26.5t30.5 30.5t53 36.5q7 4 16 9.5t17 14t13.5 20t5.5 26.5q0 10 -3.5 22t-10.5 20q-8 9 -21.5 16t-30.5 15q-18 9 -38.5 23t-35.5 40q-8 14 -15 34.5t-7 50.5q0 56 24 110t77 92
q51 37 106 47t109 10q57 0 118 -10t112 -44q92 -63 92 -186q0 -48 -12 -81t-28 -56q-27 -38 -70 -66t-86 -51l-98 -52q-14 -8 -18.5 -17.5t-4.5 -17.5q0 -15 10 -22q8 -7 20 -7h21h201v-145h-447zM314 96q20 14 38 31.5t32 35.5q41 58 41 135q0 17 -4.5 36.5t-18.5 34.5
q-19 22 -52 22q-26 0 -40.5 -11t-21.5 -22q-13 -20 -15.5 -40.5t-2.5 -28.5q0 -20 4.5 -38t18.5 -36q10 -14 18.5 -26t8.5 -32q0 -9 -4 -21t-15 -32z" />
    <glyph glyph-name="uni057C" unicode="&#x57c;" horiz-adv-x="727" 
d="M288 433h3q13 23 33.5 45t45.5 36t52 18t50 4q33 0 72.5 -9t72.5 -40q24 -23 38.5 -57t14.5 -85q0 -61 -30 -116q-29 -53 -78 -89h115v-140h-321v140q26 26 45 63.5t19 85.5q0 3 -1.5 22t-9.5 34q-10 19 -24 23.5t-22 4.5q-12 0 -24 -5t-22 -18q-10 -14 -12.5 -28
t-2.5 -29v-293h-252v524h238v-91z" />
    <glyph glyph-name="uni057D" unicode="&#x57d;" horiz-adv-x="693" 
d="M405 91h-4q-6 -15 -17 -33t-31.5 -33.5t-51 -26t-75.5 -10.5q-63 0 -98.5 21t-53 49.5t-21 57t-3.5 44.5v364h252v-302q0 -11 0.5 -23.5t4.5 -23t13 -17.5t26 -7t26.5 7t13.5 18t4.5 23t0.5 23v302h252v-524h-238v91z" />
    <glyph glyph-name="uni057E" unicode="&#x57e;" horiz-adv-x="723" 
d="M643 -74h135v-145h-387v286q-7 -12 -19 -25.5t-31 -25.5t-45.5 -20t-62.5 -8q-33 0 -66 7t-56 24q-20 14 -31.5 31.5t-18.5 36t-9 37.5t-2 35v365h252v-303q0 -11 0.5 -23.5t4.5 -23t13 -17.5t26 -7t26.5 7t13.5 18t4.5 23t0.5 23v464h252v-759z" />
    <glyph glyph-name="uni057F" unicode="&#x57f;" horiz-adv-x="1034" 
d="M302 221q0 -11 0.5 -23.5t4.5 -23t13 -17.5t26 -7t26.5 7t13.5 18t4.5 23t0.5 23v303h238v-91h4q41 103 169 103q32 0 64.5 -7t56.5 -24q21 -14 33 -31t18 -35.5t8 -37.5t2 -37v-364h-252v302q0 11 -0.5 23.5t-4.5 23t-13 17.5t-26 7t-26.5 -7t-13.5 -18t-4.5 -23.5
t-0.5 -22.5v-302h-238v90h-2q-6 -15 -18 -33t-32 -33t-49.5 -25.5t-71.5 -10.5q-34 0 -66 7t-55 24q-20 14 -31.5 31.5t-18.5 36t-9 37.5t-2 35v365h252v-303z" />
    <glyph glyph-name="uni0580" unicode="&#x580;" horiz-adv-x="693" 
d="M288 433h4q15 35 37.5 55.5t47.5 31t49 13.5t42 3q21 0 53 -5.5t60 -25.5q20 -15 32.5 -32.5t19 -36.5t8.5 -37.5t2 -34.5v-364h-252v302q0 11 -0.5 23.5t-4.5 23t-13 17.5t-26 7t-26.5 -7t-13.5 -18t-4.5 -23.5t-0.5 -22.5v-521h-252v743h238v-91z" />
    <glyph glyph-name="uni0581" unicode="&#x581;" horiz-adv-x="713" 
d="M66 -51q48 -14 96 -22t90 -8q62 0 96 17.5t51 42.5q14 21 17 43t3 44v21q-31 -42 -75.5 -64.5t-98.5 -22.5q-43 0 -83 14t-71.5 45t-50.5 80.5t-19 120.5q0 58 12.5 101.5t33.5 75.5q19 30 42 49t47 30.5t47.5 15.5t44.5 4q36 0 64 -8.5t49 -21.5t35.5 -29.5t24.5 -31.5
h4v79h238v-448q0 -31 -3.5 -64t-14 -65t-31 -62t-53.5 -54q-31 -22 -66 -34.5t-68.5 -18.5t-63.5 -7.5t-51 -1.5q-90 0 -148 11t-98 24v145zM419 269q0 22 -2.5 41.5t-9.5 34.5t-19.5 23.5t-32.5 8.5t-32.5 -8.5t-19.5 -23.5t-9.5 -34.5t-2.5 -41.5t2.5 -41.5t9.5 -34.5
t19.5 -23.5t32.5 -8.5t32.5 8.5t19.5 23.5t9.5 34.5t2.5 41.5z" />
    <glyph glyph-name="uni0582" unicode="&#x582;" horiz-adv-x="452" 
d="M302 145h130v-145h-382v524h252v-379z" />
    <glyph glyph-name="uni0583" unicode="&#x583;" horiz-adv-x="1034" 
d="M302 221q0 -11 0.5 -23.5t4.5 -23t13 -17.5t26 -7t26.5 7t13.5 18t4.5 23t0.5 23v464h252v-231q7 13 19 27.5t31 26.5t47 20t67 8q23 0 55 -5t61 -26q21 -15 33 -32t18 -35t8 -37t2 -37v-364h-252v302q0 11 -0.5 23.5t-4.5 23t-13 17.5t-26 7t-26.5 -7t-13.5 -18
t-4.5 -23.5t-0.5 -22.5v-521h-252v286q-9 -14 -22 -28.5t-32.5 -25.5t-47 -18t-64.5 -7q-26 0 -56.5 5.5t-57.5 25.5q-21 15 -33.5 33.5t-18.5 37t-7.5 36.5t-1.5 33v365h252v-303z" />
    <glyph glyph-name="uni0584" unicode="&#x584;" horiz-adv-x="756" 
d="M321 445h4q19 31 42 49t46 27.5t44 12t36 2.5q48 0 84.5 -14t67.5 -45q22 -23 36 -49t21.5 -52.5t10.5 -52.5t3 -50q0 -23 -2.5 -47.5t-10 -50t-22 -50t-37.5 -45.5q-23 -22 -61 -38.5t-95 -16.5q-32 0 -71.5 9t-77.5 33v-96h361v-118h-361v-72h-252v72h-130v118h130v553
h234v-79zM332 264q0 -8 1 -25.5t7 -35.5t18.5 -31.5t36.5 -13.5t36.5 13.5t18.5 31.5t7 35.5t1 25.5t-1 25.5t-7 35.5t-18.5 31.5t-36.5 13.5t-36.5 -13.5t-18.5 -31.5t-7 -35.5t-1 -25.5z" />
    <glyph glyph-name="uni0585" unicode="&#x585;" horiz-adv-x="690" 
d="M345 536q24 0 53.5 -2.5t60.5 -10t62.5 -22t60.5 -38.5q48 -40 68 -90.5t20 -110.5t-20 -110.5t-68 -90.5q-29 -24 -60.5 -38.5t-62.5 -22t-60.5 -10t-53.5 -2.5t-53.5 2.5t-60.5 10t-62.5 22t-60.5 38.5q-48 40 -68 90.5t-20 110.5t20 110.5t68 90.5q29 24 60.5 38.5
t62.5 22t60.5 10t53.5 2.5zM345 386q-20 0 -31.5 -12t-16.5 -30t-6 -40t-1 -42t1 -42t6 -40t16.5 -30t31.5 -12t31 12t16.5 30t6.5 40t1 42t-1 42t-6.5 40t-16.5 30t-31 12z" />
    <glyph glyph-name="uni0586" unicode="&#x586;" horiz-adv-x="966" 
d="M357 -20q-13 0 -37 0.5t-53 4t-61 10t-60 18.5q-61 26 -93.5 69.5t-32.5 106.5v30h252v-24q0 -23 8.5 -37t16.5 -21q11 -9 27.5 -15t36.5 -4v237q-92 3 -146.5 21.5t-83 45.5t-37 57.5t-8.5 57.5q0 22 7 48t30 48.5t68 37t120 14.5h298v-189q62 -5 107 -15t77 -22t52 -25
t32 -24q42 -38 55.5 -84t13.5 -92q0 -18 -3 -43t-14 -52t-34.5 -55t-63.5 -52q-26 -15 -56.5 -25t-60.5 -16t-57.5 -8.5t-47.5 -2.5v-199h-252v199zM605 118q20 2 35.5 10.5t25.5 19.5q11 13 19.5 33.5t8.5 50.5q0 24 -6 46t-22 41t-31.5 24.5t-29.5 6.5v-232zM357 579
q-13 0 -27 -1t-22 -9q-7 -6 -10.5 -17t-3.5 -19q0 -14 6.5 -24.5t16.5 -16.5q11 -6 33 -9.5t40 -3.5v100h-33z" />
    <glyph glyph-name="uni0587" unicode="&#x587;" horiz-adv-x="773" 
d="M643 135h120v-135h-358v90h-2q-15 -35 -38 -55.5t-48.5 -31t-50.5 -13t-45 -2.5q-25 0 -54 5.5t-56 25.5q-20 15 -31.5 32t-18.5 35.5t-9 37t-2 35.5v526h252v-464q0 -11 0.5 -23.5t4.5 -23t13 -17.5t26 -7t26.5 7t13.5 18t4.5 23t0.5 23v303h252v-389z" />
    <glyph glyph-name="uni0589" unicode="&#x589;" horiz-adv-x="368" 
d="M75 193h218v-193h-218v193zM75 523h218v-193h-218v193z" />
    <glyph glyph-name="uni058A" unicode="&#x58a;" horiz-adv-x="562" 
d="M163 93q19 -26 39.5 -40.5t40 -21.5t36.5 -9t31 -2q26 0 62 6t81 27l29 -66q-69 -39 -118.5 -48.5t-76.5 -9.5q-49 0 -85.5 12.5t-62 28.5t-40 32t-19.5 22z" />
    <glyph glyph-name="uni058D" unicode="&#x58d;" horiz-adv-x="771" 
d="M444 216q0 45 -30 105q32 -5 58 -20.5t44 -38t28 -49t10 -54.5q0 -33 -13 -63.5t-35.5 -54.5t-53 -38.5t-66.5 -14.5q-25 0 -54 10t-55 27q36 8 66.5 26t53 43.5t35 56.5t12.5 65zM327 484q0 -22 6.5 -48t25.5 -58q-31 7 -57 22t-44.5 36.5t-29 48t-10.5 55.5
q0 32 12.5 63t35 55t53.5 39t69 15q25 0 52 -10t53 -28q-37 -8 -67.5 -25.5t-52.5 -42.5t-34 -56t-12 -66zM200 156q25 0 52.5 8.5t52.5 27t46 48t34 71.5q17 -27 24.5 -54t7.5 -49q0 -30 -12 -59t-34.5 -51.5t-54 -36t-70.5 -13.5q-36 0 -64 12.5t-49 33.5t-34 47.5
t-19 54.5q24 -17 57 -28.5t63 -11.5zM579 164q0 25 -8.5 52.5t-27 52.5t-48.5 46t-73 34q28 15 56.5 23t48.5 8q30 0 58.5 -12t51 -34.5t36 -54t13.5 -71.5q0 -37 -12 -65.5t-32 -49t-45.5 -33t-52.5 -17.5q14 25 24.5 57.5t10.5 63.5zM193 535q0 -25 8.5 -52.5t27 -53
t48.5 -47t73 -34.5q-28 -14 -56.5 -21.5t-47.5 -7.5q-31 0 -60 12t-51.5 34.5t-36.5 54t-14 71.5q0 35 13 62.5t34 48t47 33.5t52 19q-14 -23 -25.5 -55.5t-11.5 -63.5zM573 543q-26 0 -54 -8.5t-53.5 -27t-47 -49t-34.5 -73.5q-14 26 -21.5 55t-7.5 51q0 30 12 59
t34.5 51.5t54.5 36t71 13.5q36 0 63.5 -13t47.5 -34t33 -47t19 -53q-25 16 -56.5 27.5t-60.5 11.5zM247 292q21 0 50 6t61 25q-7 -30 -23 -55.5t-37.5 -44.5t-47.5 -29.5t-54 -10.5q-33 0 -64 13.5t-54.5 36.5t-38 53t-14.5 63q0 56 33 106q8 -30 24.5 -59t41 -52.5
t55.5 -37.5t68 -14zM520 409q-22 0 -48.5 -6.5t-58.5 -26.5q7 30 22.5 56t37 45t48 29.5t55.5 10.5q36 0 67.5 -14t54 -37t35.5 -53.5t13 -63.5q0 -26 -9 -53.5t-26 -52.5q-7 33 -22.5 63t-39 53t-56 36.5t-73.5 13.5z" />
    </font>
</defs>
</svg>
