<?xml version="1.0" standalone="no"?>
<!DOCTYPE svg PUBLIC "-//W3C//DTD SVG 1.1//EN" "http://www.w3.org/Graphics/SVG/1.1/DTD/svg11.dtd" >
<svg xmlns="http://www.w3.org/2000/svg" xmlns:xlink="http://www.w3.org/1999/xlink" version="1.1">
<metadata>
Created by FontForge 20170731 at Thu Mar 22 20:31:55 2018
 By Aleksey,,,
Copyright (c) 1992 ParaType Inc., ParaType Ltd. All rights reserved.
</metadata>
<defs>
<font id="VTBGroupCond-Light" horiz-adv-x="450" >
  <font-face 
    font-family="VTB Group Cond Light"
    font-weight="300"
    font-stretch="condensed"
    units-per-em="1000"
    panose-1="2 11 4 6 5 5 4 2 2 4"
    ascent="773"
    descent="-227"
    x-height="500"
    cap-height="700"
    bbox="-429 -216 930 965"
    underline-thickness="50"
    underline-position="-150"
    unicode-range="U+0020-FEFF"
  />
<missing-glyph horiz-adv-x="200" 
 />
    <glyph glyph-name="IJ" unicode="IJ" horiz-adv-x="522" 
d="M90 700h66v-700h-66v700zM307 -6q-23 0 -39.5 2.5t-35.5 8.5v62q21 -8 36 -10.5t39 -2.5q29 0 49 26.5t20 89.5v530h66v-530q0 -95 -35.5 -135.5t-99.5 -40.5z" />
    <glyph glyph-name="ij" unicode="ij" horiz-adv-x="408" 
d="M70 500h64v-500h-64v500zM57 695h90v-90h-90v90zM244 -216q-23 0 -38 3q-9 1 -16 3v58q6 -2 13 -3q12 -3 31 -3q17 0 28.5 16t11.5 62v580h64v-580q0 -41 -5.5 -67t-17 -41.5t-29 -21.5t-42.5 -6zM261 695h90v-90h-90v90z" />
    <glyph glyph-name="afii10017.var.accented" unicode="&#x410;`" horiz-adv-x="540" 
d="M377 254l-107 356h-2l-107 -356h216zM234 700h72l224 -700h-72l-60 188h-258l-60 -188h-70zM325 890h86l-112 -140h-58z" />
    <glyph glyph-name="afii10022.var.accented" unicode="&#x415;`" horiz-adv-x="430" 
d="M80 700h310v-58h-244v-253h224v-58h-224v-273h254v-58h-320v700zM290 890h86l-112 -140h-58z" />
    <glyph glyph-name="afii10026.var.accented" unicode="&#x418;`" horiz-adv-x="590" 
d="M80 700h68v-630h2l256 630h104v-700h-68v630h-2l-256 -630h-104v700zM350 890h86l-112 -140h-58z" />
    <glyph glyph-name="afii10032.var.accented" unicode="&#x41e;`" horiz-adv-x="600" 
d="M300 54q37 0 69.5 16t57 51.5t39 92t14.5 136.5t-14.5 136.5t-39 92t-57 51.5t-69.5 16t-69.5 -16t-57 -51.5t-39 -92t-14.5 -136.5t14.5 -136.5t39 -92t57 -51.5t69.5 -16zM300 -6q-53 0 -99 20.5t-79.5 64t-52.5 111t-19 160.5t20.5 160t55 110.5t79.5 64.5t95 21
q53 0 99 -21t79.5 -64.5t52.5 -110.5t19 -160t-19 -160.5t-52.5 -111t-79.5 -64t-99 -20.5zM355 890h86l-112 -140h-58z" />
    <glyph glyph-name="afii10037.var.accented" unicode="&#x423;`" horiz-adv-x="460" 
d="M110 -6q-10 0 -25 2t-25 4v62q14 -5 25 -6.5t25 -1.5q9 0 18.5 3.5t19 14t19 29.5t19.5 49l11 34l-187 516h80l143 -420h2l137 420h78l-189 -550q-16 -47 -32 -77.5t-34 -48t-38.5 -24t-46.5 -6.5zM286 890h86l-112 -140h-58z" />
    <glyph glyph-name="afii10045.var.accented" unicode="&#x42b;`" horiz-adv-x="680" 
d="M370 210q0 78 -38.5 115t-111.5 37h-74v-304h74q77 0 113.5 37t36.5 115zM80 700h66v-280h74q113 0 166.5 -54t53.5 -156t-55.5 -156t-164.5 -54h-140v700zM600 700v-700h-68v700h68zM395 890h86l-112 -140h-58z" />
    <glyph glyph-name="afii10047.var.accented" unicode="&#x42d;`" horiz-adv-x="510" 
d="M160 -6q-30 0 -67 6t-63 20v70q26 -18 63 -27t67 -9q100 0 161.5 65.5t67.5 211.5h-289v58h289q-6 132 -67.5 194.5t-161.5 62.5q-30 0 -67 -9t-63 -27v70q26 14 63 20t67 6q69 0 124.5 -21.5t94.5 -65t60 -108t21 -151.5q0 -94 -21 -163t-60 -114t-94.5 -67t-124.5 -22z
M245 890h86l-112 -140h-58z" />
    <glyph glyph-name="afii10048.var.accented" unicode="&#x42e;`" horiz-adv-x="770" 
d="M490 -6q-45 0 -85.5 18.5t-71.5 58.5t-50.5 102t-22.5 148h-114v-321h-66v700h66v-321h114q3 86 22.5 148t50.5 101.5t71.5 58.5t85.5 19q47 0 88.5 -20.5t73 -63.5t50 -110.5t18.5 -161.5t-18.5 -161.5t-50 -110.5t-73 -63.5t-88.5 -20.5zM490 54q31 0 60 15.5t51 50.5
t35.5 91.5t13.5 138.5t-13.5 138.5t-35.5 91.5t-51 50.5t-60 15.5t-60 -15.5t-51 -50.5t-35.5 -91.5t-13.5 -138.5t13.5 -138.5t35.5 -91.5t51 -50.5t60 -15.5zM455 890h86l-112 -140h-58z" />
    <glyph glyph-name="afii10049.var.accented" unicode="&#x42f;`" horiz-adv-x="510" 
d="M183 299q-55 23 -84 72.5t-29 118.5q0 102 55.5 156t164.5 54h140v-700h-66v280h-74q-25 0 -47 3l-131 -283h-72zM140 490q0 -73 39 -112.5t111 -39.5h74v304h-74q-150 0 -150 -152zM335 890h86l-112 -140h-58z" />
    <glyph glyph-name="afii10023.var.accented" unicode="&#x401;`" horiz-adv-x="430" 
d="M80 700h310v-58h-244v-253h224v-58h-224v-273h254v-58h-320v700zM85 860h80v-80h-80v80zM305 860h80v-80h-80v80zM264 965h80l-92 -130h-56z" />
    <glyph glyph-name="afii10065.var.accented" unicode="&#x430;`" horiz-adv-x="435" 
d="M170 -6q-64 0 -102 38t-38 103q0 34 13.5 65t42.5 54.5t74.5 37.5t109.5 14h46v20q0 71 -24 99t-72 28q-38 0 -70.5 -9t-69.5 -28v60q32 14 67 22t73 8q81 0 120.5 -42t39.5 -138v-326h-60v85h-2q-21 -45 -60 -68t-88 -23zM175 52q62 0 101.5 43t39.5 125v30h-46
q-48 0 -81.5 -9.5t-54 -25.5t-29.5 -37t-9 -43q0 -40 21 -61.5t58 -21.5zM268 725h84l-104 -150h-56z" />
    <glyph glyph-name="afii10070.var.accented" unicode="&#x435;`" horiz-adv-x="440" 
d="M108 232q1 -52 10 -86.5t25.5 -55.5t39.5 -29.5t53 -8.5q32 0 55.5 5.5t40.5 12.5q19 8 34 18v-68q-14 -8 -33 -13q-17 -5 -41 -9t-55 -4q-44 0 -80 13t-62 43t-40.5 79.5t-14.5 122.5q0 69 15.5 117.5t41 79t57.5 44t66 13.5q54 0 89 -21t55.5 -56.5t28 -81.5t7.5 -95
v-20h-292zM220 448q-43 0 -74.5 -36t-36.5 -124h222q-2 47 -10.5 78t-22.5 49t-33.5 25.5t-44.5 7.5zM268 725h84l-104 -150h-56z" />
    <glyph glyph-name="afii10074.var.accented" unicode="&#x438;`" horiz-adv-x="470" 
d="M60 500h64v-440h2l186 440h98v-500h-64v440h-2l-186 -440h-98v500zM283 725h84l-104 -150h-56z" />
    <glyph glyph-name="afii10080.var.accented" unicode="&#x43e;`" horiz-adv-x="460" 
d="M230 52q26 0 48.5 10.5t39 34t25.5 61t9 92.5t-9 92.5t-25.5 61t-39 34t-48.5 10.5t-48.5 -9t-39 -31.5t-25.5 -61t-9 -96.5q0 -55 9 -92.5t25.5 -61t39 -34t48.5 -10.5zM230 -6q-43 0 -78 14.5t-60 45.5t-38.5 79.5t-13.5 116.5q0 66 14 114t39.5 79.5t60.5 47t76 15.5
q43 0 78 -14.5t60 -45.5t38.5 -79.5t13.5 -116.5q0 -66 -14 -114.5t-39.5 -80t-60.5 -46.5t-76 -15zM278 725h84l-104 -150h-56z" />
    <glyph glyph-name="afii10085.var.accented" unicode="&#x443;`" horiz-adv-x="400" 
d="M80 -216q-23 0 -36 3q-8 2 -14 4v58q6 -2 14 -4q13 -3 36 -3q13 0 23.5 4t19.5 14.5t17 29.5t17 48l13 44l-160 518h68l124 -420h2l120 420h66l-175 -580q-23 -75 -56.5 -105.5t-78.5 -30.5zM249 725h84l-104 -150h-56z" />
    <glyph glyph-name="afii10093.var.accented" unicode="&#x44b;`" horiz-adv-x="570" 
d="M60 500h64v-190h66q94 0 137 -40t43 -115t-43 -115t-137 -40h-130v500zM302 155q0 51 -26 75t-86 24h-66v-198h66q60 0 86 24t26 75zM446 500h64v-500h-64v500zM333 725h84l-104 -150h-56z" />
    <glyph glyph-name="afii10095.var.accented" unicode="&#x44d;`" horiz-adv-x="385" 
d="M125 -6q-23 0 -41.5 2.5t-31.5 5.5q-16 4 -27 8v66q11 -7 27 -12q13 -5 31.5 -8.5t41.5 -3.5q30 0 56.5 9.5t46.5 31t32.5 55.5t15.5 84h-191v56h191q-6 81 -46.5 120.5t-104.5 39.5q-25 0 -43 -5t-31 -10q-15 -6 -26 -14v66q11 6 26 10q13 4 31 7.5t43 3.5
q102 0 161 -62.5t59 -183.5q0 -66 -16 -116t-45 -83t-69.5 -50t-89.5 -17zM203 725h84l-104 -150h-56z" />
    <glyph glyph-name="afii10096.var.accented" unicode="&#x44e;`" horiz-adv-x="610" 
d="M60 500h64v-212h77q8 112 59 165t125 53q41 0 75 -14.5t58.5 -45.5t38 -79.5t13.5 -116.5q0 -66 -14 -114.5t-39 -80t-59 -46.5t-73 -15q-40 0 -73 13.5t-57.5 42t-38.5 74t-16 108.5h-76v-232h-64v500zM385 52q25 0 46.5 10t37 33.5t24.5 61t9 93.5q0 55 -9 93
t-24.5 61.5t-37 33.5t-46.5 10t-46.5 -8.5t-37 -31t-24.5 -61t-9 -97.5q0 -56 9 -93.5t24.5 -61t37 -33.5t46.5 -10zM363 725h84l-104 -150h-56z" />
    <glyph glyph-name="afii10097.var.accented" unicode="&#x44f;`" horiz-adv-x="420" 
d="M137 204q-51 16 -74 52t-23 91q0 74 43 113.5t137 39.5h140v-500h-64v194h-76h-18l-98 -194h-74zM108 347q0 -49 26 -73t86 -24h76v194h-76q-60 0 -86 -24t-26 -73zM278 725h84l-104 -150h-56z" />
    <glyph glyph-name="afii10071.var.accented" unicode="&#x451;`" horiz-adv-x="440" 
d="M108 232q1 -52 10 -86.5t25.5 -55.5t39.5 -29.5t53 -8.5q32 0 55.5 5.5t40.5 12.5q19 8 34 18v-68q-14 -8 -33 -13q-17 -5 -41 -9t-55 -4q-44 0 -80 13t-62 43t-40.5 79.5t-14.5 122.5q0 69 15.5 117.5t41 79t57.5 44t66 13.5q54 0 89 -21t55.5 -56.5t28 -81.5t7.5 -95
v-20h-292zM220 448q-43 0 -74.5 -36t-36.5 -124h222q-2 47 -10.5 78t-22.5 49t-33.5 25.5t-44.5 7.5zM80 690h80v-80h-80v80zM280 690h80v-80h-80v80zM242 810h82l-84 -140h-54z" />
    <glyph glyph-name="fi" unicode="fi" horiz-adv-x="474" 
d="M90 444h-80v56h80v130q0 69 28 97.5t92 28.5q13 0 25.5 -1t22.5 -3l22 -4v-60q-11 2 -22 5q-10 2 -22.5 3.5t-25.5 1.5q-27 0 -41.5 -16t-14.5 -52v-130h100v-56h-100v-444h-64v444zM340 500h64v-500h-64v500zM327 695h90v-90h-90v90z" />
    <glyph glyph-name="fl" unicode="fl" horiz-adv-x="484" 
d="M90 444h-80v56h80v130q0 69 28 97.5t92 28.5q13 0 25.5 -1t22.5 -3l22 -4v-60q-11 2 -22 5q-10 2 -22.5 3.5t-25.5 1.5q-27 0 -41.5 -16t-14.5 -52v-130h100v-56h-100v-444h-64v444zM350 750h64v-750h-64v750z" />
    <glyph glyph-name=".notdef" horiz-adv-x="200" 
 />
    <glyph glyph-name=".null" horiz-adv-x="0" 
 />
    <glyph glyph-name="nonmarkingreturn" horiz-adv-x="333" 
 />
    <glyph glyph-name="space" unicode=" " horiz-adv-x="200" 
 />
    <glyph glyph-name="exclam" unicode="!" horiz-adv-x="270" 
d="M97 700h76l-8 -530h-60zM90 90h90v-90h-90v90z" />
    <glyph glyph-name="quotedbl" unicode="&#x22;" horiz-adv-x="360" 
d="M86 750h66v-250h-66v250zM209 750h66v-250h-66v250z" />
    <glyph glyph-name="numbersign" unicode="#" 
d="M81 207h-71v56h79l25 175h-76v56h84l29 206h62l-29 -206h123l29 206h62l-29 -206h71v-56h-79l-25 -175h76v-56h-84l-29 -207h-62l29 207h-123l-29 -207h-62zM275 263l24 175h-123l-25 -175h124z" />
    <glyph glyph-name="dollar" unicode="$" 
d="M194 -6q-31 0 -53 2t-39.5 5.5t-32 8t-29.5 10.5v68q16 -8 32 -13.5t33.5 -10t39 -7t49.5 -3.5v291q-35 19 -63.5 39.5t-48.5 43.5t-31 50.5t-11 61.5q0 30 10.5 57t30.5 49t48.5 36.5t64.5 20.5v97h60v-94q21 -1 38 -2.5t32.5 -4.5t31.5 -8t34 -11v-68q-19 9 -35 15
t-31.5 10t-32 6t-37.5 3v-260q85 -47 120.5 -98.5t35.5 -117.5q0 -68 -42 -115.5t-114 -57.5v-97h-60v94zM340 170q0 38 -17 71t-69 68v-251q38 11 62 41.5t24 70.5zM110 540q0 -32 20 -60.5t64 -57.5v221q-44 -8 -64 -34.5t-20 -68.5z" />
    <glyph glyph-name="percent" unicode="%" horiz-adv-x="650" 
d="M160 374q-55 0 -92.5 42t-37.5 124t37.5 124t92.5 42t92.5 -42t37.5 -124t-37.5 -124t-92.5 -42zM481 700h64l-376 -700h-64zM88 540q0 -63 20 -87.5t52 -24.5t52 24.5t20 87.5t-20 87.5t-52 24.5t-52 -24.5t-20 -87.5zM490 -6q-55 0 -92.5 42t-37.5 124t37.5 124
t92.5 42t92.5 -42t37.5 -124t-37.5 -124t-92.5 -42zM418 160q0 -63 20 -87.5t52 -24.5t52 24.5t20 87.5t-20 87.5t-52 24.5t-52 -24.5t-20 -87.5z" />
    <glyph glyph-name="ampersand" unicode="&#x26;" horiz-adv-x="560" 
d="M240 -6q-44 0 -81 13t-63.5 37t-41 58.5t-14.5 77.5q0 34 11 63t29.5 53t42 44.5t49.5 38.5q-41 52 -65.5 90.5t-24.5 80.5q0 34 11.5 62.5t32.5 49.5t50.5 32.5t65.5 11.5t65.5 -11.5t50.5 -32.5t32.5 -49.5t11.5 -62.5q0 -31 -12.5 -56.5t-32.5 -47.5t-46 -41.5
t-53 -38.5l156 -202q21 41 32.5 97t11.5 129h64q0 -91 -17.5 -160.5t-49.5 -118.5l85 -111h-76l-49 63q-35 -35 -79.5 -52t-95.5 -17zM240 52q41 0 76 14.5t62 44.5l-169 220q-42 -31 -71.5 -66.5t-29.5 -84.5q0 -63 37 -95.5t95 -32.5zM242 648q-43 0 -67.5 -25t-24.5 -73
q0 -15 3 -28t11.5 -28t22 -34.5t34.5 -46.5q23 16 43.5 31.5t36 32t24.5 34.5t9 39q0 48 -24.5 73t-67.5 25z" />
    <glyph glyph-name="quotesingle" unicode="'" horiz-adv-x="270" 
d="M102 750h66v-250h-66v250z" />
    <glyph glyph-name="parenleft" unicode="(" horiz-adv-x="270" 
d="M60 305q0 61 10.5 117.5t29 110.5t44 107.5t56.5 109.5h60q-36 -75 -61 -133.5t-40 -109.5t-22 -99.5t-7 -102.5t7 -102.5t22 -99.5t40 -109.5t61 -133.5h-60q-31 56 -56.5 109.5t-44 107.5t-29 110t-10.5 118z" />
    <glyph glyph-name="parenright" unicode=")" horiz-adv-x="270" 
d="M210 305q0 -62 -10.5 -118t-29 -110t-44 -107.5t-56.5 -109.5h-60q36 75 61 133.5t40 109.5t22 99.5t7 102.5t-7 102.5t-22 99.5t-40 109.5t-61 133.5h60q31 -56 56.5 -109.5t44 -107.5t29 -110.5t10.5 -117.5z" />
    <glyph glyph-name="asterisk" unicode="*" horiz-adv-x="350" 
d="M62 413l74 112l-116 41l22 56l108 -48l-8 126h66l-8 -126l108 48l22 -56l-116 -41l74 -112l-52 -32l-61 113l-61 -113z" />
    <glyph glyph-name="plus" unicode="+" 
d="M195 320h-150v60h150v160h60v-160h150v-60h-150v-160h-60v160z" />
    <glyph glyph-name="comma" unicode="," horiz-adv-x="270" 
d="M95 100h90l-70 -220h-60z" />
    <glyph glyph-name="hyphen" unicode="-" horiz-adv-x="320" 
d="M40 329h240v-58h-240v58z" />
    <glyph glyph-name="period" unicode="." horiz-adv-x="270" 
d="M85 100h100v-100h-100v100z" />
    <glyph glyph-name="slash" unicode="/" horiz-adv-x="360" 
d="M289 700h66l-284 -700h-66z" />
    <glyph glyph-name="zero" unicode="0" 
d="M225 56q25 0 46.5 11.5t37.5 43.5t24.5 89.5t8.5 149.5t-8.5 149.5t-24.5 89.5t-37.5 43.5t-46.5 11.5q-26 0 -47 -11.5t-37 -43.5t-24.5 -89.5t-8.5 -149.5t8.5 -149.5t24.5 -89.5t37 -43.5t47 -11.5zM225 -6q-41 0 -75 16t-58.5 56.5t-38 109.5t-13.5 174t13.5 174
t38 109.5t58.5 56.5t75 16t75 -16t58.5 -56.5t38 -109.5t13.5 -174t-13.5 -174t-38 -109.5t-58.5 -56.5t-75 -16z" />
    <glyph glyph-name="one" unicode="1" 
d="M224 622l-138 -122l-36 46l182 154h58v-700h-66v622z" />
    <glyph glyph-name="two" unicode="2" 
d="M40 60q62 77 108 135t78.5 102t53 76.5t32 58.5t16 48.5t4.5 46.5q0 117 -122 117q-45 0 -83.5 -11.5t-76.5 -36.5v74q19 8 36.5 14.5t36 11.5t40 7.5t47.5 2.5q91 0 140.5 -48.5t49.5 -130.5q0 -44 -13.5 -85t-46 -93t-87 -121t-135.5 -168h292v-60h-370v60z" />
    <glyph glyph-name="three" unicode="3" 
d="M175 -6q-30 0 -55.5 4.5t-44.5 9.5q-22 6 -40 14v72q18 -11 40 -19q19 -8 44.5 -13.5t55.5 -5.5q75 0 113.5 37t38.5 102q0 69 -38 104.5t-124 35.5h-50v60h50q42 0 71 10t47 27.5t26 40t8 47.5q0 60 -32 92t-90 32q-38 0 -66 -6t-47 -13q-22 -9 -37 -19v72q18 8 41 14
q20 5 47.5 9.5t61.5 4.5q91 0 140.5 -48t49.5 -128q0 -113 -110 -159v-2q22 -8 44 -21t38.5 -34t27 -50t10.5 -69q0 -91 -57 -146t-163 -55z" />
    <glyph glyph-name="four" unicode="4" 
d="M297 230v400h-2l-214 -400h216zM297 170h-287v60l251 470h102v-470h67v-60h-67v-170h-66v170z" />
    <glyph glyph-name="five" unicode="5" 
d="M190 -6q-41 0 -76.5 5.5t-63.5 18.5v74q25 -14 60 -25t80 -11q73 0 112.5 40.5t39.5 118.5t-39.5 118.5t-112.5 40.5q-42 0 -75.5 -8t-57.5 -16l18 350h325v-60h-269l-11 -213q16 4 33 6.5t37 2.5q101 0 160.5 -55t59.5 -166q0 -51 -15.5 -92t-44 -69.5t-69 -44
t-91.5 -15.5z" />
    <glyph glyph-name="six" unicode="6" 
d="M230 -6q-39 0 -74 16.5t-60.5 53.5t-40.5 95t-15 141q0 115 18 192.5t51 125t79 68t102 20.5q20 0 37 -2t29 -4q14 -3 24 -5v-65q-10 4 -24 8q-12 3 -29 5.5t-37 2.5q-90 0 -134 -71t-54 -225h2q17 45 55 75.5t91 30.5q75 0 122.5 -57.5t47.5 -176.5q0 -63 -15.5 -106.5
t-42 -70.5t-61 -39t-71.5 -12zM230 54q56 0 90 39.5t34 128.5q0 91 -34 133.5t-90 42.5q-22 0 -43.5 -12t-38.5 -35t-27.5 -55.5t-10.5 -73.5q0 -40 10 -71.5t26.5 -53t38 -32.5t45.5 -11z" />
    <glyph glyph-name="seven" unicode="7" 
d="M339 640h-314v60h380v-60l-252 -640h-68z" />
    <glyph glyph-name="eight" unicode="8" 
d="M225 -6q-44 0 -79 13t-60 36.5t-38 56t-13 71.5q0 51 30.5 102t96.5 95q-46 32 -76.5 73.5t-30.5 98.5q0 36 12.5 66.5t35 52.5t53.5 34.5t69 12.5t69.5 -12t54 -34t34.5 -52.5t12 -67.5q0 -49 -26 -90.5t-82 -85.5q37 -25 62 -48.5t39.5 -46.5t20.5 -47.5t6 -50.5
q0 -38 -13.5 -70.5t-38.5 -56t-60 -37t-78 -13.5zM225 56q58 0 90 31t32 85q0 21 -3.5 39t-17.5 37t-41 40.5t-73 48.5q-60 -40 -84.5 -80t-24.5 -86q0 -53 32 -84t90 -31zM225 644q-48 0 -75 -27.5t-27 -76.5q0 -25 7.5 -44.5t22 -37t36 -33t48.5 -31.5q23 19 40 35.5
t28 33t16.5 35.5t5.5 42q0 49 -27 76.5t-75 27.5z" />
    <glyph glyph-name="nine" unicode="9" 
d="M160 -6q-21 0 -37.5 3t-28.5 7q-14 4 -24 11v67q10 -8 24 -14q12 -5 28.5 -9.5t37.5 -4.5q90 0 134 71t54 225h-2q-17 -45 -55 -75.5t-91 -30.5q-75 0 -122.5 57.5t-47.5 176.5q0 63 15.5 106.5t42 70.5t60.5 39t72 12q39 0 74 -16.5t60.5 -53.5t40.5 -95t15 -141
q0 -115 -18 -192.5t-51 -125t-79 -68t-102 -20.5zM220 302q22 0 43.5 12t38.5 35t27.5 55.5t10.5 73.5q0 40 -10 71.5t-26.5 53t-38 32.5t-45.5 11q-56 0 -90 -39.5t-34 -128.5q0 -91 34 -133.5t90 -42.5z" />
    <glyph glyph-name="colon" unicode=":" horiz-adv-x="270" 
d="M85 100h100v-100h-100v100zM85 504h100v-100h-100v100z" />
    <glyph glyph-name="semicolon" unicode=";" horiz-adv-x="270" 
d="M95 100h90l-70 -220h-60zM85 504h100v-100h-100v100z" />
    <glyph glyph-name="less" unicode="&#x3c;" 
d="M45 315v70l360 200v-73l-295 -161l295 -161v-75z" />
    <glyph glyph-name="equal" unicode="=" 
d="M45 300h360v-60h-360v60zM45 460h360v-60h-360v60z" />
    <glyph glyph-name="greater" unicode="&#x3e;" 
d="M405 385v-70l-360 -200v73l295 161l-295 161v75z" />
    <glyph glyph-name="question" unicode="?" horiz-adv-x="360" 
d="M117 200q0 43 11 77t27.5 63t35.5 54t35.5 49.5t27.5 50.5t11 56q0 46 -25 71t-70 25t-82 -13t-63 -30v70q34 17 67 25t78 8q79 0 122 -42t43 -114q0 -35 -11.5 -63.5t-28 -54.5t-36.5 -51t-36.5 -53.5t-28 -62t-11.5 -75.5v-20h-66v30zM105 90h90v-90h-90v90z" />
    <glyph glyph-name="at" unicode="@" horiz-adv-x="800" 
d="M590 -116q-11 -6 -28 -11t-38.5 -9.5t-45.5 -7t-48 -2.5q-83 0 -152.5 29t-120 83t-79 130.5t-28.5 172.5q0 93 28 168t76 128t111.5 82t134.5 29q75 0 139 -26.5t111 -72t73.5 -106.5t26.5 -131t-15 -121.5t-40.5 -85.5t-59 -50.5t-70.5 -16.5q-28 0 -46.5 5t-30 15
t-16.5 23.5t-7 30.5q-17 -30 -47 -52t-73 -22q-25 0 -46.5 10t-38 30.5t-26 51.5t-9.5 72q0 58 13.5 102t36.5 73t53 44t62 15q38 0 66.5 -20t44.5 -54h2l13 70h60l-40 -222q-5 -25 -8.5 -47.5t-3.5 -30.5q0 -17 9 -25.5t32 -8.5q22 0 43.5 11.5t38.5 37t27 66.5t10 99
t-21.5 108.5t-59 88t-90 58.5t-113.5 21q-58 0 -109.5 -23.5t-90.5 -68.5t-61.5 -109.5t-22.5 -145.5q0 -84 23 -150t65 -111.5t99.5 -69.5t126.5 -24q49 0 91.5 10t68.5 24v-64zM360 126q21 0 42.5 11.5t39 34.5t28 56t10.5 77q0 47 -25 73t-65 26q-19 0 -36.5 -9.5
t-31.5 -30.5t-22.5 -54t-8.5 -80q0 -59 18.5 -81.5t50.5 -22.5z" />
    <glyph glyph-name="A" unicode="A" horiz-adv-x="540" 
d="M377 254l-107 356h-2l-107 -356h216zM234 700h72l224 -700h-72l-60 188h-258l-60 -188h-70z" />
    <glyph glyph-name="B" unicode="B" horiz-adv-x="505" 
d="M370 518q0 60 -34 92t-106 32h-84v-248h84q72 0 106 32t34 92zM390 197q0 70 -37 104.5t-124 34.5h-83v-278h84q87 0 123.5 34t36.5 105zM80 700h150q113 0 161.5 -45t48.5 -137q0 -50 -26 -88.5t-74 -58.5v-2q19 -6 40 -17.5t39 -31.5t29.5 -50t11.5 -73q0 -95 -55 -146
t-175 -51h-150v700z" />
    <glyph glyph-name="C" unicode="C" horiz-adv-x="510" 
d="M350 -6q-69 0 -124.5 21t-94.5 64.5t-60 111t-21 159.5q0 88 21.5 155t61 111.5t94.5 67t123 22.5q30 0 67 -6t63 -20v-70q-26 18 -63 27t-67 9q-51 0 -93 -18t-72.5 -54.5t-47.5 -92.5t-17 -131q0 -77 16 -133t46 -92t72.5 -53.5t95.5 -17.5q30 0 67 9t63 27v-70
q-26 -14 -63 -20t-67 -6z" />
    <glyph glyph-name="D" unicode="D" horiz-adv-x="570" 
d="M80 700h130q151 0 230.5 -82.5t79.5 -252.5q0 -191 -80 -278t-230 -87h-130v700zM450 365q0 144 -62 210.5t-178 66.5h-64v-584h64q58 0 103 16.5t75.5 53.5t46 95.5t15.5 141.5z" />
    <glyph glyph-name="E" unicode="E" horiz-adv-x="430" 
d="M80 700h310v-58h-244v-253h224v-58h-224v-273h254v-58h-320v700z" />
    <glyph glyph-name="F" unicode="F" horiz-adv-x="410" 
d="M80 700h300v-58h-234v-253h204v-58h-204v-331h-66v700z" />
    <glyph glyph-name="G" unicode="G" horiz-adv-x="595" 
d="M330 379h190v-349q-26 -12 -69 -24t-111 -12q-66 0 -119.5 21.5t-91.5 66t-58.5 111.5t-20.5 157t21 157t60 111.5t94.5 66t124.5 21.5q45 0 89.5 -11t70.5 -25v-70q-13 9 -31.5 17.5t-39.5 14.5t-44 10t-45 4q-53 0 -95.5 -17.5t-72.5 -53.5t-46 -92t-16 -133t16 -133
t45 -92t69.5 -53.5t89.5 -17.5q35 0 63 4t51 11v252h-124v58z" />
    <glyph glyph-name="H" unicode="H" horiz-adv-x="570" 
d="M80 700h66v-311h278v311h66v-700h-66v331h-278v-331h-66v700z" />
    <glyph glyph-name="I" unicode="I" horiz-adv-x="246" 
d="M90 700h66v-700h-66v700z" />
    <glyph glyph-name="J" unicode="J" horiz-adv-x="310" 
d="M95 -6q-23 0 -39.5 2.5t-35.5 8.5v62q21 -8 36 -10.5t39 -2.5q29 0 49 26.5t20 89.5v530h66v-530q0 -95 -35.5 -135.5t-99.5 -40.5z" />
    <glyph glyph-name="K" unicode="K" horiz-adv-x="510" 
d="M80 700h66v-311h10l242 311h82l-270 -338l290 -362h-86l-258 331h-10v-331h-66v700z" />
    <glyph glyph-name="L" unicode="L" horiz-adv-x="400" 
d="M80 700h66v-642h234v-58h-300v700z" />
    <glyph glyph-name="M" unicode="M" horiz-adv-x="700" 
d="M80 700h95l176 -420l176 420h93v-700h-66v600h-2l-169 -400h-66l-169 400h-2v-600h-66v700z" />
    <glyph glyph-name="N" unicode="N" horiz-adv-x="590" 
d="M80 700h112l248 -630h2v630h68v-700h-112l-248 630h-2v-630h-68v700z" />
    <glyph glyph-name="O" unicode="O" horiz-adv-x="600" 
d="M300 54q37 0 69.5 16t57 51.5t39 92t14.5 136.5t-14.5 136.5t-39 92t-57 51.5t-69.5 16t-69.5 -16t-57 -51.5t-39 -92t-14.5 -136.5t14.5 -136.5t39 -92t57 -51.5t69.5 -16zM300 -6q-53 0 -99 20.5t-79.5 64t-52.5 111t-19 160.5t20.5 160t55 110.5t79.5 64.5t95 21
q53 0 99 -21t79.5 -64.5t52.5 -110.5t19 -160t-19 -160.5t-52.5 -111t-79.5 -64t-99 -20.5z" />
    <glyph glyph-name="P" unicode="P" horiz-adv-x="470" 
d="M370 490q0 78 -36.5 115t-113.5 37h-74v-304h74q73 0 111.5 38.5t38.5 113.5zM80 700h140q109 0 164.5 -54t55.5 -156q0 -98 -57 -154t-163 -56h-74v-280h-66v700z" />
    <glyph glyph-name="Q" unicode="Q" horiz-adv-x="600" 
d="M342 -2q-11 -2 -21 -3t-21 -1q-53 0 -99 20.5t-79.5 64t-52.5 111t-19 160.5t20.5 160t55 110.5t79.5 64.5t95 21q53 0 99 -21t79.5 -64.5t52.5 -110.5t19 -160q0 -68 -10.5 -122t-29.5 -95t-45.5 -69.5t-58.5 -45.5l134 -158h-82zM300 54q37 0 69.5 16t57 51.5t39 92
t14.5 136.5t-14.5 136.5t-39 92t-57 51.5t-69.5 16t-69.5 -16t-57 -51.5t-39 -92t-14.5 -136.5t14.5 -136.5t39 -92t57 -51.5t69.5 -16z" />
    <glyph glyph-name="R" unicode="R" horiz-adv-x="500" 
d="M80 700h130q109 0 164.5 -54t55.5 -156q0 -67 -27 -114.5t-79 -72.5l136 -303h-74l-123 284q-23 -4 -53 -4h-64v-280h-66v700zM360 490q0 152 -150 152h-64v-304h64q72 0 111 39.5t39 112.5z" />
    <glyph glyph-name="S" unicode="S" horiz-adv-x="440" 
d="M200 -6q-29 0 -51.5 1.5t-41.5 5t-35 8.5t-32 11v70q36 -17 72 -27.5t88 -10.5q60 0 95 35t35 93q0 27 -8 49t-25 40.5t-43.5 36t-63.5 36.5q-29 15 -56 32t-48 39t-33.5 50.5t-12.5 66.5t13.5 70t39.5 55.5t63 37t84 13.5q36 0 67.5 -6t72.5 -20v-70q-42 20 -73.5 29
t-66.5 9q-68 0 -99 -30t-31 -88q0 -20 7 -37.5t23 -34t42 -33.5t64 -37q41 -22 70.5 -43t48 -45.5t27 -53.5t8.5 -66q0 -42 -13.5 -76t-39.5 -58.5t-63 -38t-84 -13.5z" />
    <glyph glyph-name="T" unicode="T" 
d="M192 642h-172v58h410v-58h-172v-642h-66v642z" />
    <glyph glyph-name="U" unicode="U" horiz-adv-x="540" 
d="M270 -6q-98 0 -149 57t-51 189v460h66v-460q0 -102 35.5 -144t98.5 -42t98.5 42t35.5 144v460h66v-460q0 -132 -51.5 -189t-148.5 -57z" />
    <glyph glyph-name="V" unicode="V" horiz-adv-x="520" 
d="M10 700h72l178 -610h2l178 610h70l-214 -700h-72z" />
    <glyph glyph-name="W" unicode="W" horiz-adv-x="790" 
d="M20 700h70l128 -600h2l133 600h84l135 -600h2l128 600h68l-155 -700h-84l-136 610h-2l-134 -610h-84z" />
    <glyph glyph-name="X" unicode="X" horiz-adv-x="510" 
d="M220 366l-190 334h72l154 -270l154 270h70l-190 -331l210 -369h-72l-174 306l-174 -306h-70z" />
    <glyph glyph-name="Y" unicode="Y" horiz-adv-x="480" 
d="M207 300l-197 400h72l159 -335l159 335h70l-197 -400v-300h-66v300z" />
    <glyph glyph-name="Z" unicode="Z" 
d="M40 58l306 584h-296v58h360v-58l-306 -584h306v-58h-370v58z" />
    <glyph glyph-name="bracketleft" unicode="[" horiz-adv-x="270" 
d="M90 750h160v-58h-94v-774h94v-58h-160v890z" />
    <glyph glyph-name="backslash" unicode="\" horiz-adv-x="360" 
d="M5 700h68l282 -700h-68z" />
    <glyph glyph-name="bracketright" unicode="]" horiz-adv-x="270" 
d="M20 -82h94v774h-94v58h160v-890h-160v58z" />
    <glyph glyph-name="asciicircum" unicode="^" 
d="M190 700h70l170 -350h-70l-135 290l-137 -290h-68z" />
    <glyph glyph-name="underscore" unicode="_" horiz-adv-x="360" 
d="M0 -75h360v-50h-360v50z" />
    <glyph glyph-name="grave" unicode="`" horiz-adv-x="200" 
d="M20 725h84l76 -150h-56z" />
    <glyph glyph-name="a" unicode="a" horiz-adv-x="435" 
d="M170 -6q-64 0 -102 38t-38 103q0 34 13.5 65t42.5 54.5t74.5 37.5t109.5 14h46v20q0 71 -24 99t-72 28q-38 0 -70.5 -9t-69.5 -28v60q32 14 67 22t73 8q81 0 120.5 -42t39.5 -138v-326h-60v85h-2q-21 -45 -60 -68t-88 -23zM175 52q62 0 101.5 43t39.5 125v30h-46
q-48 0 -81.5 -9.5t-54 -25.5t-29.5 -37t-9 -43q0 -40 21 -61.5t58 -21.5z" />
    <glyph glyph-name="b" unicode="b" horiz-adv-x="480" 
d="M260 -6q-42 0 -79.5 23.5t-58.5 72.5h-2v-90h-60v750h64v-325h2q26 45 63 65t71 20q39 0 72 -14.5t57 -46t37.5 -80t13.5 -117.5q0 -67 -14 -115.5t-38.5 -80t-57.5 -47t-70 -15.5zM250 52q27 0 49.5 10t38.5 33.5t25 62t9 94.5t-9 94.5t-25 62t-38.5 33.5t-49.5 10
q-25 0 -47.5 -11.5t-40 -36t-28 -62.5t-10.5 -90q0 -53 10.5 -90.5t28 -62t40 -36t47.5 -11.5z" />
    <glyph glyph-name="c" unicode="c" horiz-adv-x="385" 
d="M260 -6q-102 0 -161 63.5t-59 192.5q0 62 16 110t45 80.5t69.5 49t89.5 16.5q24 0 42.5 -3.5t31.5 -7.5q15 -4 26 -10v-66q-11 8 -26 14q-13 5 -31.5 10t-42.5 5q-33 0 -60.5 -11t-48 -34.5t-32 -61t-11.5 -91.5q0 -104 41.5 -151t110.5 -47q23 0 40.5 3.5t31.5 8.5
q15 5 28 12v-66q-13 -4 -28 -8q-14 -3 -31.5 -5.5t-40.5 -2.5z" />
    <glyph glyph-name="d" unicode="d" horiz-adv-x="480" 
d="M220 -6q-39 0 -72 14.5t-57 45t-37.5 79t-13.5 117.5q0 67 14 115t39 79.5t59 46.5t73 15q42 0 72.5 -19t56.5 -61h2v324h64v-750h-60v90h-2q-21 -49 -58.5 -72.5t-79.5 -23.5zM230 52q25 0 47.5 11.5t40 35.5t28 61.5t10.5 89.5t-9.5 89.5t-26 61.5t-38.5 35.5t-47 11.5
q-29 0 -52.5 -10t-40 -33.5t-25.5 -61.5t-9 -93q0 -56 9 -93.5t25 -61t38.5 -33.5t49.5 -10z" />
    <glyph glyph-name="e" unicode="e" horiz-adv-x="440" 
d="M108 232q1 -52 10 -86.5t25.5 -55.5t39.5 -29.5t53 -8.5q32 0 55.5 5.5t40.5 12.5q19 8 34 18v-68q-14 -8 -33 -13q-17 -5 -41 -9t-55 -4q-44 0 -80 13t-62 43t-40.5 79.5t-14.5 122.5q0 69 15.5 117.5t41 79t57.5 44t66 13.5q54 0 89 -21t55.5 -56.5t28 -81.5t7.5 -95
v-20h-292zM220 448q-43 0 -74.5 -36t-36.5 -124h222q-2 47 -10.5 78t-22.5 49t-33.5 25.5t-44.5 7.5z" />
    <glyph glyph-name="f" unicode="f" horiz-adv-x="270" 
d="M90 444h-80v56h80v130q0 69 28 97.5t92 28.5q13 0 25.5 -1t22.5 -3l22 -4v-60q-11 2 -22 5q-10 2 -22.5 3.5t-25.5 1.5q-27 0 -41.5 -16t-14.5 -52v-130h100v-56h-100v-444h-64v444z" />
    <glyph glyph-name="g" unicode="g" horiz-adv-x="480" 
d="M220 -216q-36 0 -74 5.5t-76 20.5v68q38 -19 71.5 -27.5t78.5 -8.5q65 0 100.5 38.5t35.5 119.5v75h-2q-26 -42 -59 -61.5t-75 -19.5q-39 0 -72 14.5t-57 45.5t-37.5 79.5t-13.5 116.5q0 66 14 114t39 79.5t59 47t73 15.5q42 0 77 -22.5t56 -68.5h2v85h60v-500
q0 -110 -51 -163t-149 -53zM230 52q25 0 47.5 11.5t40 35.5t28 61.5t10.5 89.5t-10.5 89.5t-27.5 61.5t-38.5 35.5t-44.5 11.5q-29 0 -52.5 -10t-40 -33.5t-25.5 -61.5t-9 -93q0 -56 9 -93.5t25 -61t38.5 -33.5t49.5 -10z" />
    <glyph glyph-name="h" unicode="h" horiz-adv-x="455" 
d="M60 750h64v-330h2q15 34 48 60t86 26q64 0 102 -44.5t38 -145.5v-316h-64v316q0 73 -25 102.5t-71 29.5q-21 0 -42 -11t-37.5 -30.5t-26.5 -48t-10 -62.5v-296h-64v750z" />
    <glyph glyph-name="i" unicode="i" horiz-adv-x="204" 
d="M70 500h64v-500h-64v500zM57 695h90v-90h-90v90z" />
    <glyph glyph-name="j" unicode="j" horiz-adv-x="204" 
d="M40 -216q-23 0 -38 3q-9 1 -16 3v58q6 -2 13 -3q12 -3 31 -3q17 0 28.5 16t11.5 62v580h64v-580q0 -41 -5.5 -67t-17 -41.5t-29 -21.5t-42.5 -6zM57 695h90v-90h-90v90z" />
    <glyph glyph-name="k" unicode="k" horiz-adv-x="410" 
d="M60 750h64v-462h10l166 212h80l-196 -238l216 -262h-84l-182 232h-10v-232h-64v750z" />
    <glyph glyph-name="l" unicode="l" horiz-adv-x="204" 
d="M70 750h64v-750h-64v750z" />
    <glyph glyph-name="m" unicode="m" horiz-adv-x="690" 
d="M60 500h60v-80h2q18 34 48.5 60t79.5 26q40 0 70.5 -22t45.5 -68q26 48 59 69t80 21q28 0 52 -10.5t41 -33.5t27 -59t10 -87v-316h-64v316q0 73 -24 102.5t-62 29.5q-19 0 -37.5 -9.5t-33.5 -28.5t-24.5 -46t-10.5 -61v-303h-64v316q0 73 -23.5 102.5t-61.5 29.5
q-17 0 -36 -11t-34.5 -30.5t-25.5 -48t-10 -62.5v-296h-64v500z" />
    <glyph glyph-name="n" unicode="n" horiz-adv-x="455" 
d="M60 500h60v-80h2q15 35 50 60.5t88 25.5q64 0 102 -44.5t38 -145.5v-316h-64v316q0 73 -25 102.5t-71 29.5q-21 0 -42 -11t-37.5 -30.5t-26.5 -48t-10 -62.5v-296h-64v500z" />
    <glyph glyph-name="o" unicode="o" horiz-adv-x="460" 
d="M230 52q26 0 48.5 10.5t39 34t25.5 61t9 92.5t-9 92.5t-25.5 61t-39 34t-48.5 10.5t-48.5 -9t-39 -31.5t-25.5 -61t-9 -96.5q0 -55 9 -92.5t25.5 -61t39 -34t48.5 -10.5zM230 -6q-43 0 -78 14.5t-60 45.5t-38.5 79.5t-13.5 116.5q0 66 14 114t39.5 79.5t60.5 47t76 15.5
q43 0 78 -14.5t60 -45.5t38.5 -79.5t13.5 -116.5q0 -66 -14 -114.5t-39.5 -80t-60.5 -46.5t-76 -15z" />
    <glyph glyph-name="p" unicode="p" horiz-adv-x="480" 
d="M60 500h60v-85h2q26 49 65 70t73 21q39 0 72 -14.5t57 -46t37.5 -80t13.5 -115.5q0 -66 -14 -114.5t-38.5 -80t-57.5 -46.5t-70 -15q-42 0 -75 19.5t-59 61.5h-2v-285h-64v710zM250 52q27 0 49.5 10t38.5 33.5t25 61t9 93.5q0 55 -9 93t-25 61.5t-38.5 33.5t-49.5 10
q-25 0 -47.5 -11.5t-40 -35.5t-28 -61.5t-10.5 -89.5t10.5 -89.5t28 -61.5t40 -35.5t47.5 -11.5z" />
    <glyph glyph-name="q" unicode="q" horiz-adv-x="480" 
d="M220 -6q-39 0 -72 14.5t-57 45.5t-37.5 79.5t-13.5 116.5q0 66 14 114t39 79.5t59 47t73 15.5q42 0 77 -22.5t56 -68.5h2v85h60v-710h-64v285h-2q-26 -42 -59 -61.5t-75 -19.5zM230 52q25 0 47.5 11.5t40 35.5t28 61.5t10.5 89.5t-10.5 89.5t-27.5 61.5t-38.5 35.5
t-44.5 11.5q-29 0 -52.5 -10t-40 -33.5t-25.5 -61.5t-9 -93q0 -56 9 -93.5t25 -61t38.5 -33.5t49.5 -10z" />
    <glyph glyph-name="r" unicode="r" horiz-adv-x="290" 
d="M60 500h63v-84h2q7 17 19.5 33t29.5 29t38.5 20.5t47.5 7.5q10 0 20 -2v-58q-10 2 -20 2q-29 0 -54 -11t-43.5 -30.5t-29 -48t-10.5 -62.5v-296h-63v500z" />
    <glyph glyph-name="s" unicode="s" horiz-adv-x="340" 
d="M150 -6q-25 0 -46.5 4t-38.5 9q-19 5 -35 13v68q16 -10 35 -18q17 -7 38.5 -12.5t46.5 -5.5q47 0 69.5 21.5t22.5 61.5q0 13 -4 24t-14 22.5t-28 23.5t-45 28q-36 21 -59.5 38t-37 33.5t-19 33.5t-5.5 38q0 57 39 93.5t111 36.5q24 0 44 -4t35 -9q17 -6 31 -13v-68
q-14 10 -31 18q-15 7 -35 12.5t-44 5.5q-43 0 -62.5 -18.5t-19.5 -53.5q0 -11 4 -21.5t14.5 -21t28.5 -23t45 -27.5q36 -20 59 -38t36.5 -35.5t19 -35.5t5.5 -39q0 -65 -40.5 -103t-119.5 -38z" />
    <glyph glyph-name="t" unicode="t" horiz-adv-x="270" 
d="M200 -6q-57 0 -83.5 28.5t-26.5 97.5v324h-80v56h80v130l64 20v-150h96v-56h-96v-324q0 -36 13 -52t33 -16q9 0 18 1t16 3l16 4v-60q-8 -2 -16 -3q-14 -3 -34 -3z" />
    <glyph glyph-name="u" unicode="u" horiz-adv-x="455" 
d="M395 0h-60v80h-2q-15 -35 -50 -60.5t-88 -25.5q-64 0 -102 44.5t-38 145.5v316h64v-316q0 -73 25 -102.5t71 -29.5q21 0 41.5 11t37 30.5t27 47.5t10.5 63v296h64v-500z" />
    <glyph glyph-name="v" unicode="v" horiz-adv-x="400" 
d="M10 500h66l124 -420h2l124 420h64l-154 -500h-72z" />
    <glyph glyph-name="w" unicode="w" horiz-adv-x="630" 
d="M20 500h68l83 -420h2l101 420h82l103 -420h2l83 420h66l-109 -500h-82l-103 430h-2l-103 -430h-82z" />
    <glyph glyph-name="x" unicode="x" horiz-adv-x="380" 
d="M189 202l-113 -202h-66l147 258l-137 242h68l102 -184l104 184h66l-137 -240l147 -260h-68z" />
    <glyph glyph-name="y" unicode="y" horiz-adv-x="400" 
d="M80 -216q-23 0 -36 3q-8 2 -14 4v58q6 -2 14 -4q13 -3 36 -3q13 0 23.5 4t19.5 14.5t17 29.5t17 48l13 44l-160 518h68l124 -420h2l120 420h66l-175 -580q-23 -75 -56.5 -105.5t-78.5 -30.5z" />
    <glyph glyph-name="z" unicode="z" horiz-adv-x="370" 
d="M30 56l244 388h-234v56h300v-56l-244 -388h244v-56h-310v56z" />
    <glyph glyph-name="braceleft" unicode="{" horiz-adv-x="270" 
d="M235 -140q-64 0 -99.5 35.5t-35.5 99.5v175q0 43 -16 66t-54 31v76q38 8 54 31t16 66v175q0 64 35.5 99.5t99.5 35.5h25v-58h-25q-33 0 -51 -18t-18 -51v-203q0 -24 -6 -43.5t-15.5 -33.5t-21 -23.5t-23.5 -13.5v-2q12 -4 23.5 -13.5t21 -23.5t15.5 -33.5t6 -43.5v-203
q0 -33 18 -51t51 -18h25v-58h-25z" />
    <glyph glyph-name="bar" unicode="|" horiz-adv-x="270" 
d="M102 750h66v-890h-66v890z" />
    <glyph glyph-name="braceright" unicode="}" horiz-adv-x="270" 
d="M10 -82h25q33 0 51 18t18 51v203q0 24 6 43.5t15.5 33.5t21 23.5t23.5 13.5v2q-12 4 -23.5 13.5t-21 23.5t-15.5 33.5t-6 43.5v203q0 33 -18 51t-51 18h-25v58h25q64 0 99.5 -35.5t35.5 -99.5v-175q0 -43 16 -66t54 -31v-76q-38 -8 -54 -31t-16 -66v-175
q0 -64 -35.5 -99.5t-99.5 -35.5h-25v58z" />
    <glyph glyph-name="asciitilde" unicode="~" 
d="M20 322q7 16 18 32.5t27 30t36 21.5t44 8q23 0 45.5 -10.5t43 -22.5t38.5 -22.5t33 -10.5q24 0 44.5 14.5t40.5 56.5l40 -41q-7 -17 -18.5 -33t-27 -29.5t-35.5 -21.5t-44 -8t-46 10.5t-42.5 22.5t-38.5 22.5t-33 10.5q-24 0 -44.5 -14.5t-40.5 -56.5z" />
    <glyph glyph-name="uni00A0" unicode="&#xa0;" horiz-adv-x="200" 
 />
    <glyph glyph-name="exclamdown" unicode="&#xa1;" horiz-adv-x="270" 
d="M105 330h60l8 -540h-76zM90 500h90v-90h-90v90z" />
    <glyph glyph-name="cent" unicode="&#xa2;" 
d="M240 -2q-87 14 -133.5 76t-46.5 176q0 109 48 173t132 79v98h60v-94q26 -1 44 -4t31 -7q14 -4 25 -10v-66q-11 8 -27 14q-14 5 -34.5 10t-48.5 5q-73 0 -117.5 -45.5t-44.5 -152.5q0 -104 42.5 -151t119.5 -47q26 0 46.5 3.5t34.5 8.5q17 5 29 12v-66q-11 -3 -26 -7
q-13 -3 -31.5 -5.5t-42.5 -3.5v-94h-60v98z" />
    <glyph glyph-name="sterling" unicode="&#xa3;" 
d="M40 60h80v274h-80v52h80v104q0 114 47.5 165t139.5 51q23 0 43 -3.5t36 -7.5q18 -5 34 -11v-70q-16 8 -34 15q-16 5 -36 10t-43 5q-61 0 -91 -34.5t-30 -119.5v-104h151v-52h-151v-274h234v-60h-380v60z" />
    <glyph glyph-name="currency" unicode="&#xa4;" 
d="M20 186l51 51q-36 50 -36 113q0 32 9.5 60.5t26.5 51.5l-51 52l41 41l51 -52q24 17 52.5 27t60.5 10t60.5 -10t51.5 -27l52 52l41 -41l-52 -52q17 -23 27 -51.5t10 -60.5t-10 -60.5t-27 -52.5l52 -51l-41 -41l-52 51q-23 -17 -51.5 -26.5t-60.5 -9.5q-63 0 -113 36
l-51 -51zM225 224q26 0 49 10t40 27t27 40t10 49t-10 49t-27 40t-40 27t-49 10t-49 -10t-40 -27t-27 -40t-10 -49t10 -49t27 -40t40 -27t49 -10z" />
    <glyph glyph-name="yen" unicode="&#xa5;" 
d="M192 175h-142v52h142v67h-142v52h121l-161 354h72l144 -335l144 335h70l-161 -354h121v-52h-142v-67h142v-52h-142v-175h-66v175z" />
    <glyph glyph-name="brokenbar" unicode="&#xa6;" horiz-adv-x="270" 
d="M102 215h66v-355h-66v355zM102 750h66v-355h-66v355z" />
    <glyph glyph-name="section" unicode="&#xa7;" horiz-adv-x="500" 
d="M245 -146q-29 0 -50 2t-38.5 6t-32 9.5t-29.5 11.5v68q27 -14 62.5 -26.5t87.5 -12.5q54 0 78 21t24 57q0 25 -20 45.5t-50.5 40.5t-65.5 40.5t-65.5 44.5t-50.5 54.5t-20 69.5q0 45 27 86.5t63 73.5q-34 23 -57 53t-23 72q0 28 11 53t32.5 43.5t53.5 29t73 10.5
q49 0 79.5 -8t60.5 -21v-68q-27 14 -61 26.5t-79 12.5q-54 0 -78 -21t-24 -57q0 -25 20 -45.5t50.5 -40.5t65.5 -40.5t65.5 -44.5t50.5 -54.5t20 -69.5q0 -45 -27 -86.5t-63 -73.5q34 -24 57 -53.5t23 -71.5q0 -29 -11 -53.5t-32.5 -43t-53.5 -29t-73 -10.5zM357 275
q0 23 -12.5 42t-32.5 35t-45 31t-51 30q-38 -33 -55.5 -61.5t-17.5 -66.5q0 -24 12 -42.5t32 -35t45.5 -31t51.5 -29.5q37 33 55 61.5t18 66.5z" />
    <glyph glyph-name="dieresis" unicode="&#xa8;" horiz-adv-x="280" 
d="M20 690h80v-80h-80v80zM180 690h80v-80h-80v80z" />
    <glyph glyph-name="copyright" unicode="&#xa9;" horiz-adv-x="800" 
d="M400 -6q-74 0 -139 28t-113 76t-76 113t-28 139t28 139t76 113t113 76t139 28t139 -28t113 -76t76 -113t28 -139t-28 -139t-76 -113t-113 -76t-139 -28zM400 54q61 0 115 23.5t94 63.5t63.5 94t23.5 115t-23.5 115t-63.5 94t-94 63.5t-115 23.5t-115 -23.5t-94 -63.5
t-63.5 -94t-23.5 -115t23.5 -115t63.5 -94t94 -63.5t115 -23.5zM422 132q-46 0 -83.5 15t-64.5 43.5t-42 68.5t-15 91t15 91t41.5 68.5t63 43.5t80.5 15q32 0 57 -6.5t33 -9.5v-61q-7 3 -31.5 11t-53.5 8q-64 0 -104.5 -42.5t-40.5 -117.5q0 -76 40.5 -118t104.5 -42
q28 0 51.5 5.5t33.5 12.5v-65q-10 -5 -33 -8t-52 -3z" />
    <glyph glyph-name="ordfeminine" unicode="&#xaa;" horiz-adv-x="300" 
d="M115 391q-44 0 -67 23t-23 66q0 45 36.5 76.5t113.5 31.5h44v12q0 24 -15.5 38t-48.5 14q-26 0 -45.5 -5t-33.5 -11q-16 -7 -27 -16v58q13 7 30 13q14 5 33.5 9t42.5 4q60 0 90 -28t30 -76v-205h-52v55h-2q-20 -28 -43 -43.5t-63 -15.5zM125 443q21 0 38.5 7.5t29.5 20.5
t19 30t7 36h-44q-53 0 -72.5 -15.5t-19.5 -41.5q0 -37 42 -37z" />
    <glyph glyph-name="guillemotleft" unicode="&#xab;" horiz-adv-x="410" 
d="M176 510h64l-114 -210l114 -210h-64l-126 210zM316 510h64l-114 -210l114 -210h-64l-126 210z" />
    <glyph glyph-name="logicalnot" unicode="&#xac;" 
d="M339 320h-294v60h360v-250h-66v190z" />
    <glyph glyph-name="uni00AD" unicode="&#xad;" horiz-adv-x="320" 
d="M40 329h240v-58h-240v58z" />
    <glyph glyph-name="registered" unicode="&#xae;" horiz-adv-x="800" 
d="M400 -6q-74 0 -139 28t-113 76t-76 113t-28 139t28 139t76 113t113 76t139 28t139 -28t113 -76t76 -113t28 -139t-28 -139t-76 -113t-113 -76t-139 -28zM400 54q61 0 115 23.5t94 63.5t63.5 94t23.5 115t-23.5 115t-63.5 94t-94 63.5t-115 23.5t-115 -23.5t-94 -63.5
t-63.5 -94t-23.5 -115t23.5 -115t63.5 -94t94 -63.5t115 -23.5zM414 300q-5 -1 -10 -1h-10h-68v-159h-58v420h126q71 0 107.5 -35t36.5 -96q0 -85 -69 -116l69 -173h-65zM478 429q0 35 -20.5 55t-63.5 20h-68v-149h68q43 0 63.5 20t20.5 54z" />
    <glyph glyph-name="macron" unicode="&#xaf;" horiz-adv-x="260" 
d="M20 677h220v-54h-220v54z" />
    <glyph glyph-name="degree" unicode="&#xb0;" horiz-adv-x="290" 
d="M145 456q-26 0 -48.5 10t-39.5 27t-27 39.5t-10 48.5t10 48.5t27 39.5t39.5 27t48.5 10t48.5 -10t39.5 -27t27 -39.5t10 -48.5t-10 -48.5t-27 -39.5t-39.5 -27t-48.5 -10zM145 510q29 0 50 21t21 50t-21 50t-50 21t-50 -21t-21 -50t21 -50t50 -21z" />
    <glyph glyph-name="plusminus" unicode="&#xb1;" 
d="M45 166h360v-60h-360v60zM195 415h-150v60h150v160h60v-160h150v-60h-150v-160h-60v160z" />
    <glyph glyph-name="twosuperior" unicode="&#xb2;" horiz-adv-x="300" 
d="M25 333q50 55 83.5 94.5t53.5 69t28 51t8 42.5q0 24 -15.5 38t-47.5 14q-25 0 -43 -4t-31 -9q-15 -5 -26 -12v63q11 6 27 10q13 4 31.5 7t41.5 3q64 0 94.5 -28.5t30.5 -81.5q0 -26 -10.5 -52t-31.5 -56.5t-52 -66.5t-71 -82h170v-56h-240v56z" />
    <glyph glyph-name="threesuperior" unicode="&#xb3;" horiz-adv-x="300" 
d="M125 276q-23 0 -41.5 3t-31.5 7q-16 4 -27 10v60q11 -7 27 -11q13 -5 31.5 -8t41.5 -3q48 0 68 17.5t20 48.5q0 30 -22 47.5t-79 17.5h-37v56h37q50 0 70.5 17t20.5 46q0 28 -19 45t-59 17q-19 0 -35.5 -2.5t-28.5 -4.5q-14 -4 -26 -7v56q12 4 26 8q12 3 28.5 5.5
t35.5 2.5q75 0 107.5 -29t32.5 -86q0 -29 -20 -54.5t-50 -33.5v-2q38 -11 59 -36t21 -63q0 -56 -37.5 -90t-112.5 -34z" />
    <glyph glyph-name="acute" unicode="&#xb4;" horiz-adv-x="200" 
d="M96 725h84l-104 -150h-56z" />
    <glyph glyph-name="mu" unicode="&#xb5;" horiz-adv-x="460" 
d="M60 500h64v-316q0 -73 25 -102.5t71 -29.5q21 0 41.5 11t37 30.5t27 47.5t10.5 63v296h64v-500h-60v80h-2q-15 -35 -50 -60.5t-88 -25.5q-45 0 -76 21v-225h-64v710z" />
    <glyph glyph-name="paragraph" unicode="&#xb6;" horiz-adv-x="500" 
d="M195 350q-36 0 -68 13.5t-56 37.5t-37.5 56t-13.5 68t13.5 68t37.5 56t56 37.5t68 13.5h225v-840h-64v784h-97v-784h-64v490z" />
    <glyph glyph-name="periodcentered" unicode="&#xb7;" horiz-adv-x="270" 
d="M85 350h100v-100h-100v100z" />
    <glyph glyph-name="cedilla" unicode="&#xb8;" horiz-adv-x="220" 
d="M110 -216q-34 0 -53.5 7t-36.5 17l18 40q14 -9 26 -12.5t26 -3.5q25 0 38.5 12.5t13.5 32.5q0 43 -52 43q-10 0 -20 -2q-4 -1 -8 -1l25 83h46l-12 -47q31 -3 55 -21.5t24 -59.5q0 -42 -23.5 -65t-66.5 -23z" />
    <glyph glyph-name="onesuperior" unicode="&#xb9;" horiz-adv-x="300" 
d="M140 640l-98 -78l-32 40l130 98h60v-420h-60v360z" />
    <glyph glyph-name="ordmasculine" unicode="&#xba;" horiz-adv-x="300" 
d="M150 440q32 0 52 24t20 81t-20 81t-52 24t-52 -24t-20 -81t20 -81t52 -24zM150 386q-57 0 -93.5 40.5t-36.5 118.5t36.5 118.5t93.5 40.5t93.5 -40.5t36.5 -118.5t-36.5 -118.5t-93.5 -40.5z" />
    <glyph glyph-name="guillemotright" unicode="&#xbb;" horiz-adv-x="410" 
d="M95 90h-64l114 210l-114 210h64l126 -210zM234 90h-64l114 210l-114 210h64l126 -210z" />
    <glyph glyph-name="onequarter" unicode="&#xbc;" horiz-adv-x="800" 
d="M170 640l-98 -78l-32 40l130 98h60v-420h-60v360zM566 700h64l-376 -700h-64zM655 148v226h-2l-115 -226h117zM655 92h-175v56l141 276h94v-276h45v-56h-45v-88h-60v88z" />
    <glyph glyph-name="onehalf" unicode="&#xbd;" horiz-adv-x="800" 
d="M170 640l-98 -78l-32 40l130 98h60v-420h-60v360zM556 700h64l-376 -700h-64zM520 57q50 55 83.5 94.5t53.5 69t28 51t8 42.5q0 24 -15.5 38t-47.5 14q-25 0 -43 -4t-31 -9q-15 -5 -26 -12v63q11 6 27 10q13 4 31.5 7t41.5 3q64 0 94.5 -28.5t30.5 -81.5q0 -26 -10.5 -52
t-31.5 -56.5t-52 -66.5t-71 -82h170v-56h-240v56z" />
    <glyph glyph-name="threequarters" unicode="&#xbe;" horiz-adv-x="800" 
d="M150 276q-23 0 -41.5 3t-31.5 7q-16 4 -27 10v60q11 -7 27 -11q13 -5 31.5 -8t41.5 -3q48 0 68 17.5t20 48.5q0 30 -22 47.5t-79 17.5h-37v56h37q50 0 70.5 17t20.5 46q0 28 -19 45t-59 17q-19 0 -35.5 -2.5t-28.5 -4.5q-14 -4 -26 -7v56q12 4 26 8q12 3 28.5 5.5
t35.5 2.5q75 0 107.5 -29t32.5 -86q0 -29 -20 -54.5t-50 -33.5v-2q38 -11 59 -36t21 -63q0 -56 -37.5 -90t-112.5 -34zM576 700h64l-376 -700h-64zM645 148v226h-2l-115 -226h117zM645 92h-175v56l141 276h94v-276h45v-56h-45v-88h-60v88z" />
    <glyph glyph-name="questiondown" unicode="&#xbf;" horiz-adv-x="398" 
d="M190 -216q-79 0 -122 42t-43 114q0 35 11.5 63t28 54t36.5 51.5t36.5 55t28 65t11.5 81.5v20h66v-30q0 -46 -11 -82t-27.5 -66t-35.5 -56t-35.5 -50.5t-27.5 -50t-11 -55.5q0 -46 25 -71t70 -25q53 0 86 10.5t59 27.5v-70q-15 -6 -30 -11.5t-31.5 -9t-37 -5.5t-46.5 -2z
M165 500h90v-90h-90v90z" />
    <glyph glyph-name="Agrave" unicode="&#xc0;" horiz-adv-x="540" 
d="M377 254l-107 356h-2l-107 -356h216zM234 700h72l224 -700h-72l-60 188h-258l-60 -188h-70zM129 890h86l84 -140h-58z" />
    <glyph glyph-name="Aacute" unicode="&#xc1;" horiz-adv-x="540" 
d="M377 254l-107 356h-2l-107 -356h216zM234 700h72l224 -700h-72l-60 188h-258l-60 -188h-70zM325 890h86l-112 -140h-58z" />
    <glyph glyph-name="Acircumflex" unicode="&#xc2;" horiz-adv-x="540" 
d="M377 254l-107 356h-2l-107 -356h216zM234 700h72l224 -700h-72l-60 188h-258l-60 -188h-70zM243 890h54l113 -140h-70l-70 86l-70 -86h-70z" />
    <glyph glyph-name="Atilde" unicode="&#xc3;" horiz-adv-x="540" 
d="M377 254l-107 356h-2l-107 -356h216zM234 700h72l224 -700h-72l-60 188h-258l-60 -188h-70zM130 765q0 57 23.5 83.5t61.5 26.5q19 0 34.5 -7.5t29 -16.5t26 -16.5t25.5 -7.5q18 0 27 10.5t9 37.5h44q0 -57 -23.5 -83.5t-61.5 -26.5q-19 0 -34.5 7.5t-29 16.5t-26 16.5
t-25.5 7.5q-14 0 -25 -12.5t-11 -35.5h-44v0z" />
    <glyph glyph-name="Adieresis" unicode="&#xc4;" horiz-adv-x="540" 
d="M377 254l-107 356h-2l-107 -356h216zM234 700h72l224 -700h-72l-60 188h-258l-60 -188h-70zM145 860h80v-80h-80v80zM315 860h80v-80h-80v80z" />
    <glyph glyph-name="Aring" unicode="&#xc5;" horiz-adv-x="540" 
d="M377 254l-107 356h-2l-107 -356h216zM234 700h72l224 -700h-72l-60 188h-258l-60 -188h-70zM270 720q-42 0 -71 29t-29 71t29 71t71 29t71 -29t29 -71t-29 -71t-71 -29zM270 772q20 0 34 14t14 34t-14 34t-34 14t-34 -14t-14 -34t14 -34t34 -14z" />
    <glyph glyph-name="AE" unicode="&#xc6;" horiz-adv-x="710" 
d="M360 188h-197l-83 -188h-70l308 700h352v-58h-244v-248h224v-58h-224v-278h254v-58h-320v188zM192 254h168v388h-2z" />
    <glyph glyph-name="Ccedilla" unicode="&#xc7;" horiz-adv-x="510" 
d="M350 -6q-69 0 -124.5 21t-94.5 64.5t-60 111t-21 159.5q0 88 21.5 155t61 111.5t94.5 67t123 22.5q30 0 67 -6t63 -20v-70q-26 18 -63 27t-67 9q-51 0 -93 -18t-72.5 -54.5t-47.5 -92.5t-17 -131q0 -77 16 -133t46 -92t72.5 -53.5t95.5 -17.5q30 0 67 9t63 27v-70
q-26 -14 -63 -20t-67 -6zM320 -216q-38 0 -60.5 8t-39.5 18l19 44q14 -9 30.5 -14.5t35.5 -5.5q26 0 40.5 13t14.5 30q0 18 -14 29.5t-47 11.5q-7 0 -12 -0.5t-9 -0.5q-4 -1 -8 -1l25 84h50l-11 -42q14 -2 29 -7t28 -15.5t21 -26t8 -37.5q0 -38 -26.5 -63t-73.5 -25z" />
    <glyph glyph-name="Egrave" unicode="&#xc8;" horiz-adv-x="430" 
d="M80 700h310v-58h-244v-253h224v-58h-224v-273h254v-58h-320v700zM94 890h86l84 -140h-58z" />
    <glyph glyph-name="Eacute" unicode="&#xc9;" horiz-adv-x="430" 
d="M80 700h310v-58h-244v-253h224v-58h-224v-273h254v-58h-320v700zM290 890h86l-112 -140h-58z" />
    <glyph glyph-name="Ecircumflex" unicode="&#xca;" horiz-adv-x="430" 
d="M80 700h310v-58h-244v-253h224v-58h-224v-273h254v-58h-320v700zM208 890h54l113 -140h-70l-70 86l-70 -86h-70z" />
    <glyph glyph-name="Edieresis" unicode="&#xcb;" horiz-adv-x="430" 
d="M80 700h310v-58h-244v-253h224v-58h-224v-273h254v-58h-320v700zM110 860h80v-80h-80v80zM280 860h80v-80h-80v80z" />
    <glyph glyph-name="Igrave" unicode="&#xcc;" horiz-adv-x="246" 
d="M90 700h66v-700h-66v700zM-17 890h86l84 -140h-58z" />
    <glyph glyph-name="Iacute" unicode="&#xcd;" horiz-adv-x="246" 
d="M90 700h66v-700h-66v700zM178 890h86l-112 -140h-58z" />
    <glyph glyph-name="Icircumflex" unicode="&#xce;" horiz-adv-x="246" 
d="M90 700h66v-700h-66v700zM97 890h54l113 -140h-70l-70 86l-70 -86h-70z" />
    <glyph glyph-name="Idieresis" unicode="&#xcf;" horiz-adv-x="246" 
d="M90 700h66v-700h-66v700zM-1 860h80v-80h-80v80zM169 860h80v-80h-80v80z" />
    <glyph glyph-name="Eth" unicode="&#xd0;" horiz-adv-x="580" 
d="M90 333h-80v54h80v313h130q151 0 230.5 -82.5t79.5 -252.5q0 -191 -80 -278t-230 -87h-130v333zM460 365q0 144 -62 210.5t-178 66.5h-64v-255h154v-54h-154v-275h64q58 0 103 16.5t75.5 53.5t46 95.5t15.5 141.5z" />
    <glyph glyph-name="Ntilde" unicode="&#xd1;" horiz-adv-x="590" 
d="M80 700h112l248 -630h2v630h68v-700h-112l-248 630h-2v-630h-68v700zM155 765q0 57 23.5 83.5t61.5 26.5q19 0 34.5 -7.5t29 -16.5t26 -16.5t25.5 -7.5q18 0 27 10.5t9 37.5h44q0 -57 -23.5 -83.5t-61.5 -26.5q-19 0 -34.5 7.5t-29 16.5t-26 16.5t-25.5 7.5
q-14 0 -25 -12.5t-11 -35.5h-44v0z" />
    <glyph glyph-name="Ograve" unicode="&#xd2;" horiz-adv-x="600" 
d="M300 54q37 0 69.5 16t57 51.5t39 92t14.5 136.5t-14.5 136.5t-39 92t-57 51.5t-69.5 16t-69.5 -16t-57 -51.5t-39 -92t-14.5 -136.5t14.5 -136.5t39 -92t57 -51.5t69.5 -16zM300 -6q-53 0 -99 20.5t-79.5 64t-52.5 111t-19 160.5t20.5 160t55 110.5t79.5 64.5t95 21
q53 0 99 -21t79.5 -64.5t52.5 -110.5t19 -160t-19 -160.5t-52.5 -111t-79.5 -64t-99 -20.5zM159 890h86l84 -140h-58z" />
    <glyph glyph-name="Oacute" unicode="&#xd3;" horiz-adv-x="600" 
d="M300 54q37 0 69.5 16t57 51.5t39 92t14.5 136.5t-14.5 136.5t-39 92t-57 51.5t-69.5 16t-69.5 -16t-57 -51.5t-39 -92t-14.5 -136.5t14.5 -136.5t39 -92t57 -51.5t69.5 -16zM300 -6q-53 0 -99 20.5t-79.5 64t-52.5 111t-19 160.5t20.5 160t55 110.5t79.5 64.5t95 21
q53 0 99 -21t79.5 -64.5t52.5 -110.5t19 -160t-19 -160.5t-52.5 -111t-79.5 -64t-99 -20.5zM355 890h86l-112 -140h-58z" />
    <glyph glyph-name="Ocircumflex" unicode="&#xd4;" horiz-adv-x="600" 
d="M300 54q37 0 69.5 16t57 51.5t39 92t14.5 136.5t-14.5 136.5t-39 92t-57 51.5t-69.5 16t-69.5 -16t-57 -51.5t-39 -92t-14.5 -136.5t14.5 -136.5t39 -92t57 -51.5t69.5 -16zM300 -6q-53 0 -99 20.5t-79.5 64t-52.5 111t-19 160.5t20.5 160t55 110.5t79.5 64.5t95 21
q53 0 99 -21t79.5 -64.5t52.5 -110.5t19 -160t-19 -160.5t-52.5 -111t-79.5 -64t-99 -20.5zM273 890h54l113 -140h-70l-70 86l-70 -86h-70z" />
    <glyph glyph-name="Otilde" unicode="&#xd5;" horiz-adv-x="600" 
d="M300 54q37 0 69.5 16t57 51.5t39 92t14.5 136.5t-14.5 136.5t-39 92t-57 51.5t-69.5 16t-69.5 -16t-57 -51.5t-39 -92t-14.5 -136.5t14.5 -136.5t39 -92t57 -51.5t69.5 -16zM300 -6q-53 0 -99 20.5t-79.5 64t-52.5 111t-19 160.5t20.5 160t55 110.5t79.5 64.5t95 21
q53 0 99 -21t79.5 -64.5t52.5 -110.5t19 -160t-19 -160.5t-52.5 -111t-79.5 -64t-99 -20.5zM160 765q0 57 23.5 83.5t61.5 26.5q19 0 34.5 -7.5t29 -16.5t26 -16.5t25.5 -7.5q18 0 27 10.5t9 37.5h44q0 -57 -23.5 -83.5t-61.5 -26.5q-19 0 -34.5 7.5t-29 16.5t-26 16.5
t-25.5 7.5q-14 0 -25 -12.5t-11 -35.5h-44v0z" />
    <glyph glyph-name="Odieresis" unicode="&#xd6;" horiz-adv-x="600" 
d="M300 54q37 0 69.5 16t57 51.5t39 92t14.5 136.5t-14.5 136.5t-39 92t-57 51.5t-69.5 16t-69.5 -16t-57 -51.5t-39 -92t-14.5 -136.5t14.5 -136.5t39 -92t57 -51.5t69.5 -16zM300 -6q-53 0 -99 20.5t-79.5 64t-52.5 111t-19 160.5t20.5 160t55 110.5t79.5 64.5t95 21
q53 0 99 -21t79.5 -64.5t52.5 -110.5t19 -160t-19 -160.5t-52.5 -111t-79.5 -64t-99 -20.5zM175 860h80v-80h-80v80zM345 860h80v-80h-80v80z" />
    <glyph glyph-name="multiply" unicode="&#xd7;" 
d="M50 216l133 133l-133 133l43 43l133 -133l133 133l41 -41l-133 -133l133 -133l-43 -43l-133 133l-133 -133z" />
    <glyph glyph-name="Oslash" unicode="&#xd8;" horiz-adv-x="600" 
d="M50 15l56 86q-26 43 -41 105t-15 144q0 93 20.5 160t55 110.5t79.5 64.5t95 21q47 0 88 -16t73 -50l48 72l41 -27l-57 -86q27 -44 42 -105.5t15 -143.5q0 -93 -19 -160.5t-52.5 -111t-79.5 -64t-99 -20.5q-48 0 -89 16t-73 49l-47 -71zM300 54q37 0 69.5 16t57 51.5
t39 92t14.5 136.5q0 59 -8 104t-22 80l-274 -416q25 -34 56.5 -49t67.5 -15zM300 646q-37 0 -69.5 -16t-57 -51.5t-39 -92t-14.5 -136.5q0 -59 7.5 -104t21.5 -80l274 416q-24 33 -56 48.5t-67 15.5z" />
    <glyph glyph-name="Ugrave" unicode="&#xd9;" horiz-adv-x="540" 
d="M270 -6q-98 0 -149 57t-51 189v460h66v-460q0 -102 35.5 -144t98.5 -42t98.5 42t35.5 144v460h66v-460q0 -132 -51.5 -189t-148.5 -57zM129 890h86l84 -140h-58z" />
    <glyph glyph-name="Uacute" unicode="&#xda;" horiz-adv-x="540" 
d="M270 -6q-98 0 -149 57t-51 189v460h66v-460q0 -102 35.5 -144t98.5 -42t98.5 42t35.5 144v460h66v-460q0 -132 -51.5 -189t-148.5 -57zM325 890h86l-112 -140h-58z" />
    <glyph glyph-name="Ucircumflex" unicode="&#xdb;" horiz-adv-x="540" 
d="M270 -6q-98 0 -149 57t-51 189v460h66v-460q0 -102 35.5 -144t98.5 -42t98.5 42t35.5 144v460h66v-460q0 -132 -51.5 -189t-148.5 -57zM243 890h54l113 -140h-70l-70 86l-70 -86h-70z" />
    <glyph glyph-name="Udieresis" unicode="&#xdc;" horiz-adv-x="540" 
d="M270 -6q-98 0 -149 57t-51 189v460h66v-460q0 -102 35.5 -144t98.5 -42t98.5 42t35.5 144v460h66v-460q0 -132 -51.5 -189t-148.5 -57zM145 860h80v-80h-80v80zM315 860h80v-80h-80v80z" />
    <glyph glyph-name="Yacute" unicode="&#xdd;" horiz-adv-x="480" 
d="M207 300l-197 400h72l159 -335l159 335h70l-197 -400v-300h-66v300zM296 890h86l-112 -140h-58z" />
    <glyph glyph-name="Thorn" unicode="&#xde;" horiz-adv-x="470" 
d="M370 365q0 152 -150 152h-74v-304h74q72 0 111 39.5t39 112.5zM80 700h66v-125h74q109 0 164.5 -54t55.5 -156q0 -98 -57 -154t-163 -56h-74v-155h-66v700z" />
    <glyph glyph-name="germandbls" unicode="&#xdf;" horiz-adv-x="465" 
d="M230 -6q-38 0 -54 3q-10 1 -16 3v62q6 -2 16 -4q8 -2 21.5 -3t32.5 -1q66 0 101.5 38.5t35.5 120.5q0 81 -41 119.5t-136 38.5v58q66 0 101.5 36t35.5 104q0 67 -27.5 98t-74.5 31q-48 0 -76 -31t-28 -97v-570h-66v570q0 43 12.5 77.5t35 58.5t53.5 37t69 13
q37 0 68.5 -13t54 -37t35 -58.5t12.5 -78.5q0 -39 -10 -67.5t-25 -48t-33 -31.5t-34 -17v-2q25 -5 50.5 -17.5t45.5 -35.5t33 -56.5t13 -80.5q0 -105 -55.5 -162t-149.5 -57z" />
    <glyph glyph-name="agrave" unicode="&#xe0;" horiz-adv-x="435" 
d="M170 -6q-64 0 -102 38t-38 103q0 34 13.5 65t42.5 54.5t74.5 37.5t109.5 14h46v20q0 71 -24 99t-72 28q-38 0 -70.5 -9t-69.5 -28v60q32 14 67 22t73 8q81 0 120.5 -42t39.5 -138v-326h-60v85h-2q-21 -45 -60 -68t-88 -23zM175 52q62 0 101.5 43t39.5 125v30h-46
q-48 0 -81.5 -9.5t-54 -25.5t-29.5 -37t-9 -43q0 -40 21 -61.5t58 -21.5zM88 725h84l76 -150h-56z" />
    <glyph glyph-name="aacute" unicode="&#xe1;" horiz-adv-x="435" 
d="M170 -6q-64 0 -102 38t-38 103q0 34 13.5 65t42.5 54.5t74.5 37.5t109.5 14h46v20q0 71 -24 99t-72 28q-38 0 -70.5 -9t-69.5 -28v60q32 14 67 22t73 8q81 0 120.5 -42t39.5 -138v-326h-60v85h-2q-21 -45 -60 -68t-88 -23zM175 52q62 0 101.5 43t39.5 125v30h-46
q-48 0 -81.5 -9.5t-54 -25.5t-29.5 -37t-9 -43q0 -40 21 -61.5t58 -21.5zM268 725h84l-104 -150h-56z" />
    <glyph glyph-name="acircumflex" unicode="&#xe2;" horiz-adv-x="435" 
d="M170 -6q-64 0 -102 38t-38 103q0 34 13.5 65t42.5 54.5t74.5 37.5t109.5 14h46v20q0 71 -24 99t-72 28q-38 0 -70.5 -9t-69.5 -28v60q32 14 67 22t73 8q81 0 120.5 -42t39.5 -138v-326h-60v85h-2q-21 -45 -60 -68t-88 -23zM175 52q62 0 101.5 43t39.5 125v30h-46
q-48 0 -81.5 -9.5t-54 -25.5t-29.5 -37t-9 -43q0 -40 21 -61.5t58 -21.5zM194 725h52l104 -150h-68l-62 98l-62 -98h-68z" />
    <glyph glyph-name="atilde" unicode="&#xe3;" horiz-adv-x="435" 
d="M170 -6q-64 0 -102 38t-38 103q0 34 13.5 65t42.5 54.5t74.5 37.5t109.5 14h46v20q0 71 -24 99t-72 28q-38 0 -70.5 -9t-69.5 -28v60q32 14 67 22t73 8q81 0 120.5 -42t39.5 -138v-326h-60v85h-2q-21 -45 -60 -68t-88 -23zM175 52q62 0 101.5 43t39.5 125v30h-46
q-48 0 -81.5 -9.5t-54 -25.5t-29.5 -37t-9 -43q0 -40 21 -61.5t58 -21.5zM90 600q0 53 20.5 76.5t54.5 23.5q19 0 34 -6.5t28.5 -14.5t25 -14.5t22.5 -6.5q14 0 22.5 9.5t8.5 32.5h44q0 -53 -20.5 -76.5t-54.5 -23.5q-19 0 -34 6.5t-28.5 14.5t-25 14.5t-22.5 6.5
q-14 0 -22.5 -9.5t-8.5 -32.5h-44v0z" />
    <glyph glyph-name="adieresis" unicode="&#xe4;" horiz-adv-x="435" 
d="M170 -6q-64 0 -102 38t-38 103q0 34 13.5 65t42.5 54.5t74.5 37.5t109.5 14h46v20q0 71 -24 99t-72 28q-38 0 -70.5 -9t-69.5 -28v60q32 14 67 22t73 8q81 0 120.5 -42t39.5 -138v-326h-60v85h-2q-21 -45 -60 -68t-88 -23zM175 52q62 0 101.5 43t39.5 125v30h-46
q-48 0 -81.5 -9.5t-54 -25.5t-29.5 -37t-9 -43q0 -40 21 -61.5t58 -21.5zM100 690h80v-80h-80v80zM260 690h80v-80h-80v80z" />
    <glyph glyph-name="aring" unicode="&#xe5;" horiz-adv-x="435" 
d="M170 -6q-64 0 -102 38t-38 103q0 34 13.5 65t42.5 54.5t74.5 37.5t109.5 14h46v20q0 71 -24 99t-72 28q-38 0 -70.5 -9t-69.5 -28v60q32 14 67 22t73 8q81 0 120.5 -42t39.5 -138v-326h-60v85h-2q-21 -45 -60 -68t-88 -23zM175 52q62 0 101.5 43t39.5 125v30h-46
q-48 0 -81.5 -9.5t-54 -25.5t-29.5 -37t-9 -43q0 -40 21 -61.5t58 -21.5zM220 550q-42 0 -71 29t-29 71t29 71t71 29t71 -29t29 -71t-29 -71t-71 -29zM220 600q21 0 35.5 14.5t14.5 35.5t-14.5 35.5t-35.5 14.5t-35.5 -14.5t-14.5 -35.5t14.5 -35.5t35.5 -14.5z" />
    <glyph glyph-name="ae" unicode="&#xe6;" horiz-adv-x="712" 
d="M170 -6q-64 0 -102 38t-38 103q0 31 13 59.5t41.5 50.5t74 35t111.5 13h46v33q0 71 -24 99t-72 28q-38 0 -70.5 -9t-69.5 -28v60q32 14 67 22t73 8q53 0 88 -19t53 -65q26 47 60.5 65.5t70.5 18.5q54 0 89 -21t55.5 -56.5t28 -81.5t7.5 -95v-15h-292q1 -54 10 -89.5
t25 -56.5t39.5 -30t53.5 -9q32 0 55.5 5.5t40.5 12.5q19 8 34 18v-68q-14 -8 -33 -13q-17 -5 -41 -9t-55 -4q-60 0 -103.5 26.5t-63.5 90.5q-18 -50 -62.5 -83.5t-109.5 -33.5zM175 52q62 0 101.5 43t39.5 125v17h-46q-50 0 -83.5 -8.5t-53.5 -23t-28.5 -33t-8.5 -37.5
q0 -40 21 -61.5t58 -21.5zM492 448q-21 0 -39.5 -8t-33.5 -26.5t-25 -48t-13 -72.5h222q-3 46 -11.5 76t-22.5 47.5t-33.5 24.5t-43.5 7z" />
    <glyph glyph-name="ccedilla" unicode="&#xe7;" horiz-adv-x="385" 
d="M260 -6q-102 0 -161 63.5t-59 192.5q0 62 16 110t45 80.5t69.5 49t89.5 16.5q24 0 42.5 -3.5t31.5 -7.5q15 -4 26 -10v-66q-11 8 -26 14q-13 5 -31.5 10t-42.5 5q-33 0 -60.5 -11t-48 -34.5t-32 -61t-11.5 -91.5q0 -104 41.5 -151t110.5 -47q23 0 40.5 3.5t31.5 8.5
q15 5 28 12v-66q-13 -4 -28 -8q-14 -3 -31.5 -5.5t-40.5 -2.5zM240 -216q-34 0 -53.5 7t-36.5 17l18 40q14 -9 26 -12.5t26 -3.5q25 0 38.5 12.5t13.5 32.5q0 43 -52 43q-10 0 -20 -2q-4 -1 -8 -1l25 83h46l-12 -47q31 -3 55 -21.5t24 -59.5q0 -42 -23.5 -65t-66.5 -23z" />
    <glyph glyph-name="egrave" unicode="&#xe8;" horiz-adv-x="440" 
d="M108 232q1 -52 10 -86.5t25.5 -55.5t39.5 -29.5t53 -8.5q32 0 55.5 5.5t40.5 12.5q19 8 34 18v-68q-14 -8 -33 -13q-17 -5 -41 -9t-55 -4q-44 0 -80 13t-62 43t-40.5 79.5t-14.5 122.5q0 69 15.5 117.5t41 79t57.5 44t66 13.5q54 0 89 -21t55.5 -56.5t28 -81.5t7.5 -95
v-20h-292zM220 448q-43 0 -74.5 -36t-36.5 -124h222q-2 47 -10.5 78t-22.5 49t-33.5 25.5t-44.5 7.5zM88 725h84l76 -150h-56z" />
    <glyph glyph-name="eacute" unicode="&#xe9;" horiz-adv-x="440" 
d="M108 232q1 -52 10 -86.5t25.5 -55.5t39.5 -29.5t53 -8.5q32 0 55.5 5.5t40.5 12.5q19 8 34 18v-68q-14 -8 -33 -13q-17 -5 -41 -9t-55 -4q-44 0 -80 13t-62 43t-40.5 79.5t-14.5 122.5q0 69 15.5 117.5t41 79t57.5 44t66 13.5q54 0 89 -21t55.5 -56.5t28 -81.5t7.5 -95
v-20h-292zM220 448q-43 0 -74.5 -36t-36.5 -124h222q-2 47 -10.5 78t-22.5 49t-33.5 25.5t-44.5 7.5zM268 725h84l-104 -150h-56z" />
    <glyph glyph-name="ecircumflex" unicode="&#xea;" horiz-adv-x="440" 
d="M108 232q1 -52 10 -86.5t25.5 -55.5t39.5 -29.5t53 -8.5q32 0 55.5 5.5t40.5 12.5q19 8 34 18v-68q-14 -8 -33 -13q-17 -5 -41 -9t-55 -4q-44 0 -80 13t-62 43t-40.5 79.5t-14.5 122.5q0 69 15.5 117.5t41 79t57.5 44t66 13.5q54 0 89 -21t55.5 -56.5t28 -81.5t7.5 -95
v-20h-292zM220 448q-43 0 -74.5 -36t-36.5 -124h222q-2 47 -10.5 78t-22.5 49t-33.5 25.5t-44.5 7.5zM194 725h52l104 -150h-68l-62 98l-62 -98h-68z" />
    <glyph glyph-name="edieresis" unicode="&#xeb;" horiz-adv-x="440" 
d="M108 232q1 -52 10 -86.5t25.5 -55.5t39.5 -29.5t53 -8.5q32 0 55.5 5.5t40.5 12.5q19 8 34 18v-68q-14 -8 -33 -13q-17 -5 -41 -9t-55 -4q-44 0 -80 13t-62 43t-40.5 79.5t-14.5 122.5q0 69 15.5 117.5t41 79t57.5 44t66 13.5q54 0 89 -21t55.5 -56.5t28 -81.5t7.5 -95
v-20h-292zM220 448q-43 0 -74.5 -36t-36.5 -124h222q-2 47 -10.5 78t-22.5 49t-33.5 25.5t-44.5 7.5zM100 690h80v-80h-80v80zM260 690h80v-80h-80v80z" />
    <glyph glyph-name="igrave" unicode="&#xec;" horiz-adv-x="204" 
d="M70 500h64v-500h-64v500zM-29 725h84l76 -150h-56z" />
    <glyph glyph-name="iacute" unicode="&#xed;" horiz-adv-x="204" 
d="M70 500h64v-500h-64v500zM150 725h84l-104 -150h-56z" />
    <glyph glyph-name="icircumflex" unicode="&#xee;" horiz-adv-x="204" 
d="M70 500h64v-500h-64v500zM78 725h52l104 -150h-68l-62 98l-62 -98h-68z" />
    <glyph glyph-name="idieresis" unicode="&#xef;" horiz-adv-x="204" 
d="M70 500h64v-500h-64v500zM-17 690h80v-80h-80v80zM143 690h80v-80h-80v80z" />
    <glyph glyph-name="eth" unicode="&#xf0;" horiz-adv-x="460" 
d="M151 527l28 69q-18 7 -39 13.5t-45 11.5l15 53q24 -5 47 -11.5t44 -14.5l26 64l42 -16l-27 -66q81 -44 127 -124.5t46 -215.5q0 -79 -15 -135t-40.5 -92t-60.5 -52.5t-74 -16.5q-38 0 -72 12t-60.5 39t-42 70.5t-15.5 106.5q0 61 13 107t36 76.5t54 45.5t67 15
q49 0 84.5 -22.5t52.5 -63.5h2q-8 66 -36.5 115.5t-87.5 81.5l-28 -67zM225 54q22 0 42 10.5t35 31.5t24 52.5t9 73.5q0 94 -31 140t-79 46q-56 0 -90 -44t-34 -142q0 -89 34 -128.5t90 -39.5z" />
    <glyph glyph-name="ntilde" unicode="&#xf1;" horiz-adv-x="455" 
d="M60 500h60v-80h2q15 35 50 60.5t88 25.5q64 0 102 -44.5t38 -145.5v-316h-64v316q0 73 -25 102.5t-71 29.5q-21 0 -42 -11t-37.5 -30.5t-26.5 -48t-10 -62.5v-296h-64v500zM100 600q0 53 20.5 76.5t54.5 23.5q19 0 34 -6.5t28.5 -14.5t25 -14.5t22.5 -6.5q14 0 22.5 9.5
t8.5 32.5h44q0 -53 -20.5 -76.5t-54.5 -23.5q-19 0 -34 6.5t-28.5 14.5t-25 14.5t-22.5 6.5q-14 0 -22.5 -9.5t-8.5 -32.5h-44v0z" />
    <glyph glyph-name="ograve" unicode="&#xf2;" horiz-adv-x="460" 
d="M230 52q26 0 48.5 10.5t39 34t25.5 61t9 92.5t-9 92.5t-25.5 61t-39 34t-48.5 10.5t-48.5 -9t-39 -31.5t-25.5 -61t-9 -96.5q0 -55 9 -92.5t25.5 -61t39 -34t48.5 -10.5zM230 -6q-43 0 -78 14.5t-60 45.5t-38.5 79.5t-13.5 116.5q0 66 14 114t39.5 79.5t60.5 47t76 15.5
q43 0 78 -14.5t60 -45.5t38.5 -79.5t13.5 -116.5q0 -66 -14 -114.5t-39.5 -80t-60.5 -46.5t-76 -15zM98 725h84l76 -150h-56z" />
    <glyph glyph-name="oacute" unicode="&#xf3;" horiz-adv-x="460" 
d="M230 52q26 0 48.5 10.5t39 34t25.5 61t9 92.5t-9 92.5t-25.5 61t-39 34t-48.5 10.5t-48.5 -9t-39 -31.5t-25.5 -61t-9 -96.5q0 -55 9 -92.5t25.5 -61t39 -34t48.5 -10.5zM230 -6q-43 0 -78 14.5t-60 45.5t-38.5 79.5t-13.5 116.5q0 66 14 114t39.5 79.5t60.5 47t76 15.5
q43 0 78 -14.5t60 -45.5t38.5 -79.5t13.5 -116.5q0 -66 -14 -114.5t-39.5 -80t-60.5 -46.5t-76 -15zM278 725h84l-104 -150h-56z" />
    <glyph glyph-name="ocircumflex" unicode="&#xf4;" horiz-adv-x="460" 
d="M230 52q26 0 48.5 10.5t39 34t25.5 61t9 92.5t-9 92.5t-25.5 61t-39 34t-48.5 10.5t-48.5 -9t-39 -31.5t-25.5 -61t-9 -96.5q0 -55 9 -92.5t25.5 -61t39 -34t48.5 -10.5zM230 -6q-43 0 -78 14.5t-60 45.5t-38.5 79.5t-13.5 116.5q0 66 14 114t39.5 79.5t60.5 47t76 15.5
q43 0 78 -14.5t60 -45.5t38.5 -79.5t13.5 -116.5q0 -66 -14 -114.5t-39.5 -80t-60.5 -46.5t-76 -15zM204 725h52l104 -150h-68l-62 98l-62 -98h-68z" />
    <glyph glyph-name="otilde" unicode="&#xf5;" horiz-adv-x="460" 
d="M230 52q26 0 48.5 10.5t39 34t25.5 61t9 92.5t-9 92.5t-25.5 61t-39 34t-48.5 10.5t-48.5 -9t-39 -31.5t-25.5 -61t-9 -96.5q0 -55 9 -92.5t25.5 -61t39 -34t48.5 -10.5zM230 -6q-43 0 -78 14.5t-60 45.5t-38.5 79.5t-13.5 116.5q0 66 14 114t39.5 79.5t60.5 47t76 15.5
q43 0 78 -14.5t60 -45.5t38.5 -79.5t13.5 -116.5q0 -66 -14 -114.5t-39.5 -80t-60.5 -46.5t-76 -15zM100 600q0 53 20.5 76.5t54.5 23.5q19 0 34 -6.5t28.5 -14.5t25 -14.5t22.5 -6.5q14 0 22.5 9.5t8.5 32.5h44q0 -53 -20.5 -76.5t-54.5 -23.5q-19 0 -34 6.5t-28.5 14.5
t-25 14.5t-22.5 6.5q-14 0 -22.5 -9.5t-8.5 -32.5h-44v0z" />
    <glyph glyph-name="odieresis" unicode="&#xf6;" horiz-adv-x="460" 
d="M230 52q26 0 48.5 10.5t39 34t25.5 61t9 92.5t-9 92.5t-25.5 61t-39 34t-48.5 10.5t-48.5 -9t-39 -31.5t-25.5 -61t-9 -96.5q0 -55 9 -92.5t25.5 -61t39 -34t48.5 -10.5zM230 -6q-43 0 -78 14.5t-60 45.5t-38.5 79.5t-13.5 116.5q0 66 14 114t39.5 79.5t60.5 47t76 15.5
q43 0 78 -14.5t60 -45.5t38.5 -79.5t13.5 -116.5q0 -66 -14 -114.5t-39.5 -80t-60.5 -46.5t-76 -15zM110 690h80v-80h-80v80zM270 690h80v-80h-80v80z" />
    <glyph glyph-name="divide" unicode="&#xf7;" 
d="M45 380h360v-60h-360v60zM225 110q-25 0 -42.5 17.5t-17.5 42.5t17.5 42.5t42.5 17.5t42.5 -17.5t17.5 -42.5t-17.5 -42.5t-42.5 -17.5zM225 470q-25 0 -42.5 17.5t-17.5 42.5t17.5 42.5t42.5 17.5t42.5 -17.5t17.5 -42.5t-17.5 -42.5t-42.5 -17.5z" />
    <glyph glyph-name="oslash" unicode="&#xf8;" horiz-adv-x="460" 
d="M40 14l39 58q-19 31 -29 75t-10 103q0 66 14 114t39.5 79.5t60.5 47t76 15.5q36 0 66.5 -10t53.5 -32l33 48l37 -26l-40 -58q40 -65 40 -178q0 -66 -14 -114.5t-39.5 -80t-60.5 -46.5t-76 -15q-74 0 -121 41l-32 -47zM230 448q-26 0 -48.5 -9t-39 -31.5t-25.5 -61
t-9 -96.5q0 -71 15 -114l190 273q-17 20 -38 29.5t-45 9.5zM230 52q26 0 48.5 10.5t39 34t25.5 61t9 92.5q0 35 -4 63t-12 51l-189 -274q16 -20 37 -29t46 -9z" />
    <glyph glyph-name="ugrave" unicode="&#xf9;" horiz-adv-x="455" 
d="M395 0h-60v80h-2q-15 -35 -50 -60.5t-88 -25.5q-64 0 -102 44.5t-38 145.5v316h64v-316q0 -73 25 -102.5t71 -29.5q21 0 41.5 11t37 30.5t27 47.5t10.5 63v296h64v-500zM93 725h84l76 -150h-56z" />
    <glyph glyph-name="uacute" unicode="&#xfa;" horiz-adv-x="455" 
d="M395 0h-60v80h-2q-15 -35 -50 -60.5t-88 -25.5q-64 0 -102 44.5t-38 145.5v316h64v-316q0 -73 25 -102.5t71 -29.5q21 0 41.5 11t37 30.5t27 47.5t10.5 63v296h64v-500zM273 725h84l-104 -150h-56z" />
    <glyph glyph-name="ucircumflex" unicode="&#xfb;" horiz-adv-x="455" 
d="M395 0h-60v80h-2q-15 -35 -50 -60.5t-88 -25.5q-64 0 -102 44.5t-38 145.5v316h64v-316q0 -73 25 -102.5t71 -29.5q21 0 41.5 11t37 30.5t27 47.5t10.5 63v296h64v-500zM199 725h52l104 -150h-68l-62 98l-62 -98h-68z" />
    <glyph glyph-name="udieresis" unicode="&#xfc;" horiz-adv-x="455" 
d="M395 0h-60v80h-2q-15 -35 -50 -60.5t-88 -25.5q-64 0 -102 44.5t-38 145.5v316h64v-316q0 -73 25 -102.5t71 -29.5q21 0 41.5 11t37 30.5t27 47.5t10.5 63v296h64v-500zM105 690h80v-80h-80v80zM265 690h80v-80h-80v80z" />
    <glyph glyph-name="yacute" unicode="&#xfd;" horiz-adv-x="400" 
d="M80 -216q-23 0 -36 3q-8 2 -14 4v58q6 -2 14 -4q13 -3 36 -3q13 0 23.5 4t19.5 14.5t17 29.5t17 48l13 44l-160 518h68l124 -420h2l120 420h66l-175 -580q-23 -75 -56.5 -105.5t-78.5 -30.5zM249 725h84l-104 -150h-56z" />
    <glyph glyph-name="thorn" unicode="&#xfe;" horiz-adv-x="480" 
d="M60 750h64v-330h2q26 45 63 65.5t71 20.5q39 0 72 -14.5t57 -45.5t37.5 -79.5t13.5 -116.5q0 -66 -14 -114.5t-38.5 -80t-57.5 -46.5t-70 -15q-42 0 -75 19.5t-59 61.5h-2v-285h-64v960zM250 52q27 0 49.5 10t38.5 33.5t25 61t9 93.5q0 55 -9 93t-25 61.5t-38.5 33.5
t-49.5 10q-25 0 -47.5 -11.5t-40 -35.5t-28 -61.5t-10.5 -89.5t10.5 -89.5t28 -61.5t40 -35.5t47.5 -11.5z" />
    <glyph glyph-name="ydieresis" unicode="&#xff;" horiz-adv-x="400" 
d="M80 -216q-23 0 -36 3q-8 2 -14 4v58q6 -2 14 -4q13 -3 36 -3q13 0 23.5 4t19.5 14.5t17 29.5t17 48l13 44l-160 518h68l124 -420h2l120 420h66l-175 -580q-23 -75 -56.5 -105.5t-78.5 -30.5zM81 690h80v-80h-80v80zM241 690h80v-80h-80v80z" />
    <glyph glyph-name="Amacron" unicode="&#x100;" horiz-adv-x="540" 
d="M377 254l-107 356h-2l-107 -356h216zM234 700h72l224 -700h-72l-60 188h-258l-60 -188h-70zM150 848h240v-56h-240v56z" />
    <glyph glyph-name="amacron" unicode="&#x101;" horiz-adv-x="435" 
d="M170 -6q-64 0 -102 38t-38 103q0 34 13.5 65t42.5 54.5t74.5 37.5t109.5 14h46v20q0 71 -24 99t-72 28q-38 0 -70.5 -9t-69.5 -28v60q32 14 67 22t73 8q81 0 120.5 -42t39.5 -138v-326h-60v85h-2q-21 -45 -60 -68t-88 -23zM175 52q62 0 101.5 43t39.5 125v30h-46
q-48 0 -81.5 -9.5t-54 -25.5t-29.5 -37t-9 -43q0 -40 21 -61.5t58 -21.5zM110 677h220v-54h-220v54z" />
    <glyph glyph-name="Abreve" unicode="&#x102;" horiz-adv-x="540" 
d="M377 254l-107 356h-2l-107 -356h216zM234 700h72l224 -700h-72l-60 188h-258l-60 -188h-70zM270 760q-25 0 -48 6t-40.5 19.5t-28.5 35t-13 51.5l52 8q8 -36 25.5 -51t52.5 -15t52.5 15t25.5 51l52 -8q-2 -30 -13 -51.5t-28.5 -35t-40.5 -19.5t-48 -6z" />
    <glyph glyph-name="abreve" unicode="&#x103;" horiz-adv-x="435" 
d="M170 -6q-64 0 -102 38t-38 103q0 34 13.5 65t42.5 54.5t74.5 37.5t109.5 14h46v20q0 71 -24 99t-72 28q-38 0 -70.5 -9t-69.5 -28v60q32 14 67 22t73 8q81 0 120.5 -42t39.5 -138v-326h-60v85h-2q-21 -45 -60 -68t-88 -23zM175 52q62 0 101.5 43t39.5 125v30h-46
q-48 0 -81.5 -9.5t-54 -25.5t-29.5 -37t-9 -43q0 -40 21 -61.5t58 -21.5zM220 595q-21 0 -42 5.5t-37.5 17.5t-27.5 31.5t-13 47.5l50 8q14 -58 70 -58q29 0 45.5 14t24.5 44l50 -8q-2 -28 -13 -47.5t-27.5 -31.5t-37.5 -17.5t-42 -5.5z" />
    <glyph glyph-name="Aogonek" unicode="&#x104;" horiz-adv-x="540" 
d="M377 254l-107 356h-2l-107 -356h216zM234 700h72l224 -700h-72l-60 188h-258l-60 -188h-70zM450 -216q-51 0 -75.5 22.5t-24.5 58.5q0 34 27 67.5t87 67.5h66q-38 -26 -60.5 -45t-35 -33.5t-16.5 -26.5t-4 -25q0 -14 11 -23t40 -9q13 0 25 2.5t21 5.5q11 4 19 8v-56
q-15 -6 -30.5 -10t-49.5 -4z" />
    <glyph glyph-name="aogonek" unicode="&#x105;" horiz-adv-x="435" 
d="M170 -6q-64 0 -102 38t-38 103q0 34 13.5 65t42.5 54.5t74.5 37.5t109.5 14h46v20q0 71 -24 99t-72 28q-38 0 -70.5 -9t-69.5 -28v60q32 14 67 22t73 8q81 0 120.5 -42t39.5 -138v-326h-60v85h-2q-21 -45 -60 -68t-88 -23zM175 52q62 0 101.5 43t39.5 125v30h-46
q-48 0 -81.5 -9.5t-54 -25.5t-29.5 -37t-9 -43q0 -40 21 -61.5t58 -21.5zM310 -216q-43 0 -66.5 22.5t-23.5 58.5q0 34 27.5 69t72.5 66h60q-31 -27 -50 -46t-29.5 -33t-14.5 -26t-4 -25q0 -34 43 -34q13 0 23.5 2.5t17.5 5.5q8 4 14 8v-54q-8 -3 -13.5 -5.5t-12.5 -4.5
t-17 -3t-27 -1z" />
    <glyph glyph-name="Cacute" unicode="&#x106;" horiz-adv-x="510" 
d="M350 -6q-69 0 -124.5 21t-94.5 64.5t-60 111t-21 159.5q0 88 21.5 155t61 111.5t94.5 67t123 22.5q30 0 67 -6t63 -20v-70q-26 18 -63 27t-67 9q-51 0 -93 -18t-72.5 -54.5t-47.5 -92.5t-17 -131q0 -77 16 -133t46 -92t72.5 -53.5t95.5 -17.5q30 0 67 9t63 27v-70
q-26 -14 -63 -20t-67 -6zM375 890h86l-112 -140h-58z" />
    <glyph glyph-name="cacute" unicode="&#x107;" horiz-adv-x="385" 
d="M260 -6q-102 0 -161 63.5t-59 192.5q0 62 16 110t45 80.5t69.5 49t89.5 16.5q24 0 42.5 -3.5t31.5 -7.5q15 -4 26 -10v-66q-11 8 -26 14q-13 5 -31.5 10t-42.5 5q-33 0 -60.5 -11t-48 -34.5t-32 -61t-11.5 -91.5q0 -104 41.5 -151t110.5 -47q23 0 40.5 3.5t31.5 8.5
q15 5 28 12v-66q-13 -4 -28 -8q-14 -3 -31.5 -5.5t-40.5 -2.5zM288 725h84l-104 -150h-56z" />
    <glyph glyph-name="Ccircumflex" unicode="&#x108;" horiz-adv-x="510" 
d="M350 -6q-69 0 -124.5 21t-94.5 64.5t-60 111t-21 159.5q0 88 21.5 155t61 111.5t94.5 67t123 22.5q30 0 67 -6t63 -20v-70q-26 18 -63 27t-67 9q-51 0 -93 -18t-72.5 -54.5t-47.5 -92.5t-17 -131q0 -77 16 -133t46 -92t72.5 -53.5t95.5 -17.5q30 0 67 9t63 27v-70
q-26 -14 -63 -20t-67 -6zM293 890h54l113 -140h-70l-70 86l-70 -86h-70z" />
    <glyph glyph-name="ccircumflex" unicode="&#x109;" horiz-adv-x="385" 
d="M260 -6q-102 0 -161 63.5t-59 192.5q0 62 16 110t45 80.5t69.5 49t89.5 16.5q24 0 42.5 -3.5t31.5 -7.5q15 -4 26 -10v-66q-11 8 -26 14q-13 5 -31.5 10t-42.5 5q-33 0 -60.5 -11t-48 -34.5t-32 -61t-11.5 -91.5q0 -104 41.5 -151t110.5 -47q23 0 40.5 3.5t31.5 8.5
q15 5 28 12v-66q-13 -4 -28 -8q-14 -3 -31.5 -5.5t-40.5 -2.5zM214 725h52l104 -150h-68l-62 98l-62 -98h-68z" />
    <glyph glyph-name="Cdotaccent" unicode="&#x10a;" horiz-adv-x="510" 
d="M350 -6q-69 0 -124.5 21t-94.5 64.5t-60 111t-21 159.5q0 88 21.5 155t61 111.5t94.5 67t123 22.5q30 0 67 -6t63 -20v-70q-26 18 -63 27t-67 9q-51 0 -93 -18t-72.5 -54.5t-47.5 -92.5t-17 -131q0 -77 16 -133t46 -92t72.5 -53.5t95.5 -17.5q30 0 67 9t63 27v-70
q-26 -14 -63 -20t-67 -6zM275 865h90v-90h-90v90z" />
    <glyph glyph-name="cdotaccent" unicode="&#x10b;" horiz-adv-x="385" 
d="M260 -6q-102 0 -161 63.5t-59 192.5q0 62 16 110t45 80.5t69.5 49t89.5 16.5q24 0 42.5 -3.5t31.5 -7.5q15 -4 26 -10v-66q-11 8 -26 14q-13 5 -31.5 10t-42.5 5q-33 0 -60.5 -11t-48 -34.5t-32 -61t-11.5 -91.5q0 -104 41.5 -151t110.5 -47q23 0 40.5 3.5t31.5 8.5
q15 5 28 12v-66q-13 -4 -28 -8q-14 -3 -31.5 -5.5t-40.5 -2.5zM195 695h90v-90h-90v90z" />
    <glyph glyph-name="Ccaron" unicode="&#x10c;" horiz-adv-x="510" 
d="M350 -6q-69 0 -124.5 21t-94.5 64.5t-60 111t-21 159.5q0 88 21.5 155t61 111.5t94.5 67t123 22.5q30 0 67 -6t63 -20v-70q-26 18 -63 27t-67 9q-51 0 -93 -18t-72.5 -54.5t-47.5 -92.5t-17 -131q0 -77 16 -133t46 -92t72.5 -53.5t95.5 -17.5q30 0 67 9t63 27v-70
q-26 -14 -63 -20t-67 -6zM180 890h60l80 -88l80 88h60l-107 -140h-66z" />
    <glyph glyph-name="ccaron" unicode="&#x10d;" horiz-adv-x="385" 
d="M260 -6q-102 0 -161 63.5t-59 192.5q0 62 16 110t45 80.5t69.5 49t89.5 16.5q24 0 42.5 -3.5t31.5 -7.5q15 -4 26 -10v-66q-11 8 -26 14q-13 5 -31.5 10t-42.5 5q-33 0 -60.5 -11t-48 -34.5t-32 -61t-11.5 -91.5q0 -104 41.5 -151t110.5 -47q23 0 40.5 3.5t31.5 8.5
q15 5 28 12v-66q-13 -4 -28 -8q-14 -3 -31.5 -5.5t-40.5 -2.5zM110 725h58l72 -100l72 100h58l-98 -150h-64z" />
    <glyph glyph-name="Dcaron" unicode="&#x10e;" horiz-adv-x="570" 
d="M80 700h130q151 0 230.5 -82.5t79.5 -252.5q0 -191 -80 -278t-230 -87h-130v700zM450 365q0 144 -62 210.5t-178 66.5h-64v-584h64q58 0 103 16.5t75.5 53.5t46 95.5t15.5 141.5zM120 890h60l80 -88l80 88h60l-107 -140h-66z" />
    <glyph glyph-name="dcaron" unicode="&#x10f;" horiz-adv-x="570" 
d="M220 -6q-39 0 -72 14.5t-57 45.5t-37.5 79.5t-13.5 116.5q0 66 14 114t39 79.5t59 47t73 15.5q42 0 72.5 -19t56.5 -61h2v324h64v-750h-60v90h-2q-21 -49 -58.5 -72.5t-79.5 -23.5zM230 52q25 0 47.5 11.5t40 35.5t28 61.5t10.5 89.5t-9.5 89.5t-26 61.5t-38.5 35.5
t-47 11.5q-29 0 -52.5 -10t-40 -33.5t-25.5 -61.5t-9 -93q0 -56 9 -93.5t25 -61t38.5 -33.5t49.5 -10zM494 750h76l-44 -210h-56z" />
    <glyph glyph-name="Dcroat" unicode="&#x110;" horiz-adv-x="580" 
d="M90 333h-80v54h80v313h130q151 0 230.5 -82.5t79.5 -252.5q0 -191 -80 -278t-230 -87h-130v333zM460 365q0 144 -62 210.5t-178 66.5h-64v-255h154v-54h-154v-275h64q58 0 103 16.5t75.5 53.5t46 95.5t15.5 141.5z" />
    <glyph glyph-name="dcroat" unicode="&#x111;" horiz-adv-x="480" 
d="M220 -6q-39 0 -72 14.5t-57 45.5t-37.5 79.5t-13.5 116.5q0 66 14 114.5t39 80.5t59 47.5t73 15.5q42 0 72.5 -20t56.5 -62h2v168h-166v52h166v104h64v-104h80v-52h-80v-594h-60v90h-2q-21 -49 -58.5 -72.5t-79.5 -23.5zM230 52q25 0 47.5 11.5t40 35.5t28 61.5
t10.5 89.5t-9.5 89.5t-26 61.5t-38.5 35.5t-47 11.5q-29 0 -52.5 -10t-40 -33.5t-25.5 -61.5t-9 -93q0 -56 9 -93.5t25 -61t38.5 -33.5t49.5 -10z" />
    <glyph glyph-name="Emacron" unicode="&#x112;" horiz-adv-x="430" 
d="M80 700h310v-58h-244v-253h224v-58h-224v-273h254v-58h-320v700zM115 848h240v-56h-240v56z" />
    <glyph glyph-name="emacron" unicode="&#x113;" horiz-adv-x="440" 
d="M108 232q1 -52 10 -86.5t25.5 -55.5t39.5 -29.5t53 -8.5q32 0 55.5 5.5t40.5 12.5q19 8 34 18v-68q-14 -8 -33 -13q-17 -5 -41 -9t-55 -4q-44 0 -80 13t-62 43t-40.5 79.5t-14.5 122.5q0 69 15.5 117.5t41 79t57.5 44t66 13.5q54 0 89 -21t55.5 -56.5t28 -81.5t7.5 -95
v-20h-292zM220 448q-43 0 -74.5 -36t-36.5 -124h222q-2 47 -10.5 78t-22.5 49t-33.5 25.5t-44.5 7.5zM110 677h220v-54h-220v54z" />
    <glyph glyph-name="Edotaccent" unicode="&#x116;" horiz-adv-x="430" 
d="M80 700h310v-58h-244v-253h224v-58h-224v-273h254v-58h-320v700zM190 865h90v-90h-90v90z" />
    <glyph glyph-name="edotaccent" unicode="&#x117;" horiz-adv-x="440" 
d="M108 232q1 -52 10 -86.5t25.5 -55.5t39.5 -29.5t53 -8.5q32 0 55.5 5.5t40.5 12.5q19 8 34 18v-68q-14 -8 -33 -13q-17 -5 -41 -9t-55 -4q-44 0 -80 13t-62 43t-40.5 79.5t-14.5 122.5q0 69 15.5 117.5t41 79t57.5 44t66 13.5q54 0 89 -21t55.5 -56.5t28 -81.5t7.5 -95
v-20h-292zM220 448q-43 0 -74.5 -36t-36.5 -124h222q-2 47 -10.5 78t-22.5 49t-33.5 25.5t-44.5 7.5zM175 695h90v-90h-90v90z" />
    <glyph glyph-name="Eogonek" unicode="&#x118;" horiz-adv-x="430" 
d="M80 700h310v-58h-244v-253h224v-58h-224v-273h254v-58h-320v700zM320 -216q-51 0 -75.5 22.5t-24.5 58.5q0 34 27 67.5t87 67.5h66q-38 -26 -60.5 -45t-35 -33.5t-16.5 -26.5t-4 -25q0 -14 11 -23t40 -9q13 0 25 2.5t21 5.5q11 4 19 8v-56q-15 -6 -30.5 -10t-49.5 -4z
" />
    <glyph glyph-name="eogonek" unicode="&#x119;" horiz-adv-x="440" 
d="M260 -216q-43 0 -66.5 22.5t-23.5 58.5q0 32 25 65t79 65v2q-15 -3 -37 -3q-44 0 -80 13t-62 43t-40.5 79.5t-14.5 122.5q0 69 15.5 117.5t41 79t57.5 44t66 13.5q54 0 89 -21t55.5 -56.5t28 -81.5t7.5 -95v-20h-292q1 -52 10 -86.5t25.5 -55.5t39.5 -29.5t53 -8.5
q32 0 55.5 5.5t40.5 12.5q19 8 34 18v-68q-43 -30 -69.5 -52t-40.5 -39.5t-19 -31.5t-5 -27q0 -34 43 -34q13 0 23.5 2.5t17.5 5.5q8 4 14 8v-54q-8 -3 -13.5 -5.5t-12.5 -4.5t-17 -3t-27 -1zM220 448q-43 0 -74.5 -36t-36.5 -124h222q-2 47 -10.5 78t-22.5 49t-33.5 25.5
t-44.5 7.5z" />
    <glyph glyph-name="Ecaron" unicode="&#x11a;" horiz-adv-x="430" 
d="M80 700h310v-58h-244v-253h224v-58h-224v-273h254v-58h-320v700zM95 890h60l80 -88l80 88h60l-107 -140h-66z" />
    <glyph glyph-name="ecaron" unicode="&#x11b;" horiz-adv-x="440" 
d="M108 232q1 -52 10 -86.5t25.5 -55.5t39.5 -29.5t53 -8.5q32 0 55.5 5.5t40.5 12.5q19 8 34 18v-68q-14 -8 -33 -13q-17 -5 -41 -9t-55 -4q-44 0 -80 13t-62 43t-40.5 79.5t-14.5 122.5q0 69 15.5 117.5t41 79t57.5 44t66 13.5q54 0 89 -21t55.5 -56.5t28 -81.5t7.5 -95
v-20h-292zM220 448q-43 0 -74.5 -36t-36.5 -124h222q-2 47 -10.5 78t-22.5 49t-33.5 25.5t-44.5 7.5zM90 725h58l72 -100l72 100h58l-98 -150h-64z" />
    <glyph glyph-name="Gcircumflex" unicode="&#x11c;" horiz-adv-x="595" 
d="M330 379h190v-349q-26 -12 -69 -24t-111 -12q-66 0 -119.5 21.5t-91.5 66t-58.5 111.5t-20.5 157t21 157t60 111.5t94.5 66t124.5 21.5q45 0 89.5 -11t70.5 -25v-70q-13 9 -31.5 17.5t-39.5 14.5t-44 10t-45 4q-53 0 -95.5 -17.5t-72.5 -53.5t-46 -92t-16 -133t16 -133
t45 -92t69.5 -53.5t89.5 -17.5q35 0 63 4t51 11v252h-124v58zM313 890h54l113 -140h-70l-70 86l-70 -86h-70z" />
    <glyph glyph-name="gcircumflex" unicode="&#x11d;" horiz-adv-x="480" 
d="M220 -216q-36 0 -74 5.5t-76 20.5v68q38 -19 71.5 -27.5t78.5 -8.5q65 0 100.5 38.5t35.5 119.5v75h-2q-26 -42 -59 -61.5t-75 -19.5q-39 0 -72 14.5t-57 45.5t-37.5 79.5t-13.5 116.5q0 66 14 114t39 79.5t59 47t73 15.5q42 0 77 -22.5t56 -68.5h2v85h60v-500
q0 -110 -51 -163t-149 -53zM230 52q25 0 47.5 11.5t40 35.5t28 61.5t10.5 89.5t-10.5 89.5t-27.5 61.5t-38.5 35.5t-44.5 11.5q-29 0 -52.5 -10t-40 -33.5t-25.5 -61.5t-9 -93q0 -56 9 -93.5t25 -61t38.5 -33.5t49.5 -10zM204 725h52l104 -150h-68l-62 98l-62 -98h-68z" />
    <glyph glyph-name="Gbreve" unicode="&#x11e;" horiz-adv-x="595" 
d="M330 379h190v-349q-26 -12 -69 -24t-111 -12q-66 0 -119.5 21.5t-91.5 66t-58.5 111.5t-20.5 157t21 157t60 111.5t94.5 66t124.5 21.5q45 0 89.5 -11t70.5 -25v-70q-13 9 -31.5 17.5t-39.5 14.5t-44 10t-45 4q-53 0 -95.5 -17.5t-72.5 -53.5t-46 -92t-16 -133t16 -133
t45 -92t69.5 -53.5t89.5 -17.5q35 0 63 4t51 11v252h-124v58zM340 760q-25 0 -48 6t-40.5 19.5t-28.5 35t-13 51.5l52 8q8 -36 25.5 -51t52.5 -15t52.5 15t25.5 51l52 -8q-2 -30 -13 -51.5t-28.5 -35t-40.5 -19.5t-48 -6z" />
    <glyph glyph-name="gbreve" unicode="&#x11f;" horiz-adv-x="480" 
d="M220 -216q-36 0 -74 5.5t-76 20.5v68q38 -19 71.5 -27.5t78.5 -8.5q65 0 100.5 38.5t35.5 119.5v75h-2q-26 -42 -59 -61.5t-75 -19.5q-39 0 -72 14.5t-57 45.5t-37.5 79.5t-13.5 116.5q0 66 14 114t39 79.5t59 47t73 15.5q42 0 77 -22.5t56 -68.5h2v85h60v-500
q0 -110 -51 -163t-149 -53zM230 52q25 0 47.5 11.5t40 35.5t28 61.5t10.5 89.5t-10.5 89.5t-27.5 61.5t-38.5 35.5t-44.5 11.5q-29 0 -52.5 -10t-40 -33.5t-25.5 -61.5t-9 -93q0 -56 9 -93.5t25 -61t38.5 -33.5t49.5 -10zM230 595q-21 0 -42 5.5t-37.5 17.5t-27.5 31.5
t-13 47.5l50 8q14 -58 70 -58q29 0 45.5 14t24.5 44l50 -8q-2 -28 -13 -47.5t-27.5 -31.5t-37.5 -17.5t-42 -5.5z" />
    <glyph glyph-name="Gdotaccent" unicode="&#x120;" horiz-adv-x="595" 
d="M330 379h190v-349q-26 -12 -69 -24t-111 -12q-66 0 -119.5 21.5t-91.5 66t-58.5 111.5t-20.5 157t21 157t60 111.5t94.5 66t124.5 21.5q45 0 89.5 -11t70.5 -25v-70q-13 9 -31.5 17.5t-39.5 14.5t-44 10t-45 4q-53 0 -95.5 -17.5t-72.5 -53.5t-46 -92t-16 -133t16 -133
t45 -92t69.5 -53.5t89.5 -17.5q35 0 63 4t51 11v252h-124v58zM295 865h90v-90h-90v90z" />
    <glyph glyph-name="gdotaccent" unicode="&#x121;" horiz-adv-x="480" 
d="M220 -216q-36 0 -74 5.5t-76 20.5v68q38 -19 71.5 -27.5t78.5 -8.5q65 0 100.5 38.5t35.5 119.5v75h-2q-26 -42 -59 -61.5t-75 -19.5q-39 0 -72 14.5t-57 45.5t-37.5 79.5t-13.5 116.5q0 66 14 114t39 79.5t59 47t73 15.5q42 0 77 -22.5t56 -68.5h2v85h60v-500
q0 -110 -51 -163t-149 -53zM230 52q25 0 47.5 11.5t40 35.5t28 61.5t10.5 89.5t-10.5 89.5t-27.5 61.5t-38.5 35.5t-44.5 11.5q-29 0 -52.5 -10t-40 -33.5t-25.5 -61.5t-9 -93q0 -56 9 -93.5t25 -61t38.5 -33.5t49.5 -10zM185 695h90v-90h-90v90z" />
    <glyph glyph-name="Gcommaaccent" unicode="&#x122;" horiz-adv-x="595" 
d="M330 379h190v-349q-26 -12 -69 -24t-111 -12q-66 0 -119.5 21.5t-91.5 66t-58.5 111.5t-20.5 157t21 157t60 111.5t94.5 66t124.5 21.5q45 0 89.5 -11t70.5 -25v-70q-13 9 -31.5 17.5t-39.5 14.5t-44 10t-45 4q-53 0 -95.5 -17.5t-72.5 -53.5t-46 -92t-16 -133t16 -133
t45 -92t69.5 -53.5t89.5 -17.5q35 0 63 4t51 11v252h-124v58zM295 -50h84l-84 -150h-56z" />
    <glyph glyph-name="gcommaaccent" unicode="&#x123;" horiz-adv-x="480" 
d="M220 -216q-36 0 -74 5.5t-76 20.5v68q38 -19 71.5 -27.5t78.5 -8.5q65 0 100.5 38.5t35.5 119.5v75h-2q-26 -42 -59 -61.5t-75 -19.5q-39 0 -72 14.5t-57 45.5t-37.5 79.5t-13.5 116.5q0 66 14 114t39 79.5t59 47t73 15.5q42 0 77 -22.5t56 -68.5h2v85h60v-500
q0 -110 -51 -163t-149 -53zM230 52q25 0 47.5 11.5t40 35.5t28 61.5t10.5 89.5t-10.5 89.5t-27.5 61.5t-38.5 35.5t-44.5 11.5q-29 0 -52.5 -10t-40 -33.5t-25.5 -61.5t-9 -93q0 -56 9 -93.5t25 -61t38.5 -33.5t49.5 -10zM272.01 574.994h-83.9902l83.9902 149.981h55.9922z
" />
    <glyph glyph-name="Hcircumflex" unicode="&#x124;" horiz-adv-x="570" 
d="M80 700h66v-311h278v311h66v-700h-66v331h-278v-331h-66v700zM258 890h54l113 -140h-70l-70 86l-70 -86h-70z" />
    <glyph glyph-name="hcircumflex" unicode="&#x125;" horiz-adv-x="455" 
d="M60 750h64v-330h2q15 34 48 60t86 26q64 0 102 -44.5t38 -145.5v-316h-64v316q0 73 -25 102.5t-71 29.5q-21 0 -42 -11t-37.5 -30.5t-26.5 -48t-10 -62.5v-296h-64v750zM67 945h52l104 -150h-68l-62 98l-62 -98h-68z" />
    <glyph glyph-name="Hbar" unicode="&#x126;" horiz-adv-x="590" 
d="M90 523h-80v54h80v123h66v-123h278v123h66v-123h80v-54h-80v-523h-66v336h-278v-336h-66v523zM434 394v129h-278v-129h278z" />
    <glyph glyph-name="hbar" unicode="&#x127;" horiz-adv-x="475" 
d="M80 594h-90v52h90v104h64v-104h156v-52h-156v-174h2q15 34 48 60t86 26q64 0 102 -44.5t38 -145.5v-316h-64v316q0 73 -25 102.5t-71 29.5q-21 0 -42 -11t-37.5 -30.5t-26.5 -48t-10 -62.5v-296h-64v594z" />
    <glyph glyph-name="Imacron" unicode="&#x12a;" horiz-adv-x="246" 
d="M90 700h66v-700h-66v700zM4 848h240v-56h-240v56z" />
    <glyph glyph-name="imacron" unicode="&#x12b;" horiz-adv-x="204" 
d="M70 500h64v-500h-64v500zM-7 677h220v-54h-220v54z" />
    <glyph glyph-name="Iogonek" unicode="&#x12e;" horiz-adv-x="246" 
d="M90 700h66v-700h-66v700zM77 -216q-51 0 -75.5 22.5t-24.5 58.5q0 34 27 67.5t87 67.5h66q-38 -26 -60.5 -45t-35 -33.5t-16.5 -26.5t-4 -25q0 -14 11 -23t40 -9q13 0 25 2.5t21 5.5q11 4 19 8v-56q-15 -6 -30.5 -10t-49.5 -4z" />
    <glyph glyph-name="iogonek" unicode="&#x12f;" horiz-adv-x="204" 
d="M70 500h64v-500h-64v500zM65 -216q-43 0 -66.5 22.5t-23.5 58.5q0 34 27.5 69t72.5 66h60q-31 -27 -50 -46t-29.5 -33t-14.5 -26t-4 -25q0 -34 43 -34q13 0 23.5 2.5t17.5 5.5q8 4 14 8v-54q-8 -3 -13.5 -5.5t-12.5 -4.5t-17 -3t-27 -1z" />
    <glyph glyph-name="Idotaccent" unicode="&#x130;" horiz-adv-x="246" 
d="M90 700h66v-700h-66v700zM78 865h90v-90h-90v90z" />
    <glyph glyph-name="dotlessi" unicode="&#x131;" horiz-adv-x="204" 
d="M70 500h64v-500h-64v500z" />
    <glyph glyph-name="Jcircumflex" unicode="&#x134;" horiz-adv-x="310" 
d="M95 -6q-23 0 -39.5 2.5t-35.5 8.5v62q21 -8 36 -10.5t39 -2.5q29 0 49 26.5t20 89.5v530h66v-530q0 -95 -35.5 -135.5t-99.5 -40.5zM170 890h54l113 -140h-70l-70 86l-70 -86h-70z" />
    <glyph glyph-name="jcircumflex" unicode="&#x135;" horiz-adv-x="204" 
d="M40 -216q-23 0 -38 3q-9 1 -16 3v58q6 -2 13 -3q12 -3 31 -3q17 0 28.5 16t11.5 62v580h64v-580q0 -41 -5.5 -67t-17 -41.5t-29 -21.5t-42.5 -6zM77 725h52l104 -150h-68l-62 98l-62 -98h-68z" />
    <glyph glyph-name="Kcommaaccent" unicode="&#x136;" horiz-adv-x="510" 
d="M80 700h66v-311h10l242 311h82l-270 -338l290 -362h-86l-258 331h-10v-331h-66v700zM238 -50h84l-84 -150h-56z" />
    <glyph glyph-name="kcommaaccent" unicode="&#x137;" horiz-adv-x="410" 
d="M60 750h64v-462h10l166 212h80l-196 -238l216 -262h-84l-182 232h-10v-232h-64v750zM178 -50h84l-84 -150h-56z" />
    <glyph glyph-name="Lacute" unicode="&#x139;" horiz-adv-x="400" 
d="M80 700h66v-642h234v-58h-300v700zM168 890h86l-112 -140h-58z" />
    <glyph glyph-name="lacute" unicode="&#x13a;" horiz-adv-x="204" 
d="M70 750h64v-750h-64v750zM150 935h84l-104 -150h-56z" />
    <glyph glyph-name="Lcommaaccent" unicode="&#x13b;" horiz-adv-x="400" 
d="M80 700h66v-642h234v-58h-300v700zM188 -50h84l-84 -150h-56z" />
    <glyph glyph-name="lcommaaccent" unicode="&#x13c;" horiz-adv-x="204" 
d="M70 750h64v-750h-64v750zM61 -50h84l-84 -150h-56z" />
    <glyph glyph-name="Lcaron" unicode="&#x13d;" horiz-adv-x="400" 
d="M301 700h76l-44 -210h-56zM80 700h66v-642h234v-58h-300v700z" />
    <glyph glyph-name="lcaron" unicode="&#x13e;" horiz-adv-x="284" 
d="M70 750h64v-750h-64v750zM208 750h76l-44 -210h-56z" />
    <glyph glyph-name="Ldot" unicode="&#x13f;" horiz-adv-x="400" 
d="M263 410h100v-100h-100v100zM80 700h66v-642h234v-58h-300v700z" />
    <glyph glyph-name="ldot" unicode="&#x140;" horiz-adv-x="304" 
d="M70 750h64v-750h-64v750zM204 410h100v-100h-100v100z" />
    <glyph glyph-name="Lslash" unicode="&#x141;" horiz-adv-x="400" 
d="M80 299l-80 -67v68l80 67v333h66v-278l108 90v-68l-108 -90v-296h234v-58h-300v299z" />
    <glyph glyph-name="lslash" unicode="&#x142;" horiz-adv-x="204" 
d="M70 315l-70 -58v64l70 58v371h64v-317l70 59v-64l-70 -59v-369h-64v315z" />
    <glyph glyph-name="Nacute" unicode="&#x143;" horiz-adv-x="590" 
d="M80 700h112l248 -630h2v630h68v-700h-112l-248 630h-2v-630h-68v700zM350 890h86l-112 -140h-58z" />
    <glyph glyph-name="nacute" unicode="&#x144;" horiz-adv-x="455" 
d="M60 500h60v-80h2q15 35 50 60.5t88 25.5q64 0 102 -44.5t38 -145.5v-316h-64v316q0 73 -25 102.5t-71 29.5q-21 0 -42 -11t-37.5 -30.5t-26.5 -48t-10 -62.5v-296h-64v500zM278 725h84l-104 -150h-56z" />
    <glyph glyph-name="Ncommaaccent" unicode="&#x145;" horiz-adv-x="590" 
d="M80 700h112l248 -630h2v630h68v-700h-112l-248 630h-2v-630h-68v700zM253 -50h84l-84 -150h-56z" />
    <glyph glyph-name="ncommaaccent" unicode="&#x146;" horiz-adv-x="455" 
d="M60 500h60v-80h2q15 35 50 60.5t88 25.5q64 0 102 -44.5t38 -145.5v-316h-64v316q0 73 -25 102.5t-71 29.5q-21 0 -42 -11t-37.5 -30.5t-26.5 -48t-10 -62.5v-296h-64v500zM188 -50h84l-84 -150h-56z" />
    <glyph glyph-name="Ncaron" unicode="&#x147;" horiz-adv-x="590" 
d="M80 700h112l248 -630h2v630h68v-700h-112l-248 630h-2v-630h-68v700zM155 890h60l80 -88l80 88h60l-107 -140h-66z" />
    <glyph glyph-name="ncaron" unicode="&#x148;" horiz-adv-x="455" 
d="M60 500h60v-80h2q15 35 50 60.5t88 25.5q64 0 102 -44.5t38 -145.5v-316h-64v316q0 73 -25 102.5t-71 29.5q-21 0 -42 -11t-37.5 -30.5t-26.5 -48t-10 -62.5v-296h-64v500zM100 725h58l72 -100l72 100h58l-98 -150h-64z" />
    <glyph glyph-name="Omacron" unicode="&#x14c;" horiz-adv-x="600" 
d="M300 54q37 0 69.5 16t57 51.5t39 92t14.5 136.5t-14.5 136.5t-39 92t-57 51.5t-69.5 16t-69.5 -16t-57 -51.5t-39 -92t-14.5 -136.5t14.5 -136.5t39 -92t57 -51.5t69.5 -16zM300 -6q-53 0 -99 20.5t-79.5 64t-52.5 111t-19 160.5t20.5 160t55 110.5t79.5 64.5t95 21
q53 0 99 -21t79.5 -64.5t52.5 -110.5t19 -160t-19 -160.5t-52.5 -111t-79.5 -64t-99 -20.5zM180 848h240v-56h-240v56z" />
    <glyph glyph-name="omacron" unicode="&#x14d;" horiz-adv-x="460" 
d="M230 52q26 0 48.5 10.5t39 34t25.5 61t9 92.5t-9 92.5t-25.5 61t-39 34t-48.5 10.5t-48.5 -9t-39 -31.5t-25.5 -61t-9 -96.5q0 -55 9 -92.5t25.5 -61t39 -34t48.5 -10.5zM230 -6q-43 0 -78 14.5t-60 45.5t-38.5 79.5t-13.5 116.5q0 66 14 114t39.5 79.5t60.5 47t76 15.5
q43 0 78 -14.5t60 -45.5t38.5 -79.5t13.5 -116.5q0 -66 -14 -114.5t-39.5 -80t-60.5 -46.5t-76 -15zM120 677h220v-54h-220v54z" />
    <glyph glyph-name="Obreve" unicode="&#x14e;" horiz-adv-x="600" 
d="M300 54q37 0 69.5 16t57 51.5t39 92t14.5 136.5t-14.5 136.5t-39 92t-57 51.5t-69.5 16t-69.5 -16t-57 -51.5t-39 -92t-14.5 -136.5t14.5 -136.5t39 -92t57 -51.5t69.5 -16zM300 -6q-53 0 -99 20.5t-79.5 64t-52.5 111t-19 160.5t20.5 160t55 110.5t79.5 64.5t95 21
q53 0 99 -21t79.5 -64.5t52.5 -110.5t19 -160t-19 -160.5t-52.5 -111t-79.5 -64t-99 -20.5zM300 760q-25 0 -48 6t-40.5 19.5t-28.5 35t-13 51.5l52 8q8 -36 25.5 -51t52.5 -15t52.5 15t25.5 51l52 -8q-2 -30 -13 -51.5t-28.5 -35t-40.5 -19.5t-48 -6z" />
    <glyph glyph-name="obreve" unicode="&#x14f;" horiz-adv-x="460" 
d="M230 52q26 0 48.5 10.5t39 34t25.5 61t9 92.5t-9 92.5t-25.5 61t-39 34t-48.5 10.5t-48.5 -9t-39 -31.5t-25.5 -61t-9 -96.5q0 -55 9 -92.5t25.5 -61t39 -34t48.5 -10.5zM230 -6q-43 0 -78 14.5t-60 45.5t-38.5 79.5t-13.5 116.5q0 66 14 114t39.5 79.5t60.5 47t76 15.5
q43 0 78 -14.5t60 -45.5t38.5 -79.5t13.5 -116.5q0 -66 -14 -114.5t-39.5 -80t-60.5 -46.5t-76 -15zM230 595q-21 0 -42 5.5t-37.5 17.5t-27.5 31.5t-13 47.5l50 8q14 -58 70 -58q29 0 45.5 14t24.5 44l50 -8q-2 -28 -13 -47.5t-27.5 -31.5t-37.5 -17.5t-42 -5.5z" />
    <glyph glyph-name="Ohungarumlaut" unicode="&#x150;" horiz-adv-x="600" 
d="M300 54q37 0 69.5 16t57 51.5t39 92t14.5 136.5t-14.5 136.5t-39 92t-57 51.5t-69.5 16t-69.5 -16t-57 -51.5t-39 -92t-14.5 -136.5t14.5 -136.5t39 -92t57 -51.5t69.5 -16zM300 -6q-53 0 -99 20.5t-79.5 64t-52.5 111t-19 160.5t20.5 160t55 110.5t79.5 64.5t95 21
q53 0 99 -21t79.5 -64.5t52.5 -110.5t19 -160t-19 -160.5t-52.5 -111t-79.5 -64t-99 -20.5zM272 890h84l-84 -140h-56zM410 890h86l-112 -140h-58z" />
    <glyph glyph-name="ohungarumlaut" unicode="&#x151;" horiz-adv-x="460" 
d="M230 52q26 0 48.5 10.5t39 34t25.5 61t9 92.5t-9 92.5t-25.5 61t-39 34t-48.5 10.5t-48.5 -9t-39 -31.5t-25.5 -61t-9 -96.5q0 -55 9 -92.5t25.5 -61t39 -34t48.5 -10.5zM230 -6q-43 0 -78 14.5t-60 45.5t-38.5 79.5t-13.5 116.5q0 66 14 114t39.5 79.5t60.5 47t76 15.5
q43 0 78 -14.5t60 -45.5t38.5 -79.5t13.5 -116.5q0 -66 -14 -114.5t-39.5 -80t-60.5 -46.5t-76 -15zM183 725h82l-64 -150h-54zM323 725h84l-94 -150h-56z" />
    <glyph glyph-name="OE" unicode="&#x152;" horiz-adv-x="780" 
d="M350 -6q-69 0 -124.5 21t-94.5 64.5t-60 111t-21 159.5q0 88 21.5 155t61 111.5t94.5 67t123 22.5q18 0 39.5 -1t42.5 -5h308v-58h-244v-253h224v-58h-224v-273h254v-58h-318q-21 -4 -42.5 -5t-39.5 -1zM350 54q18 0 39 2t41 7v573q-20 5 -41 7.5t-39 2.5q-51 0 -93 -18
t-72.5 -54.5t-47.5 -92.5t-17 -131q0 -77 16 -133t46 -92t72.5 -53.5t95.5 -17.5z" />
    <glyph glyph-name="oe" unicode="&#x153;" horiz-adv-x="750" 
d="M229 -6q-43 0 -78 14.5t-59.5 45.5t-38 79.5t-13.5 116.5q0 66 14 114t39.5 79.5t60 47t75.5 15.5q56 0 93.5 -24t62.5 -79q26 57 63 80t82 23q54 0 89 -21t55.5 -56.5t28 -81.5t7.5 -95v-20h-292q1 -52 10 -86.5t25.5 -55.5t39.5 -29.5t53 -8.5q32 0 55.5 5.5t40.5 12.5
q19 8 34 18v-68q-14 -8 -33 -13q-17 -5 -41 -9t-55 -4q-59 0 -99 22t-66 82q-25 -57 -62.5 -80.5t-90.5 -23.5zM229 52q26 0 48 10.5t38.5 34t25.5 61t9 92.5t-9 92.5t-25.5 61t-38.5 34t-48 10.5t-48 -9t-38.5 -31.5t-25.5 -61t-9 -96.5q0 -55 9 -92.5t25.5 -61t38.5 -34
t48 -10.5zM530 448q-43 0 -74.5 -36t-36.5 -124h222q-2 47 -10.5 78t-22.5 49t-33.5 25.5t-44.5 7.5z" />
    <glyph glyph-name="Racute" unicode="&#x154;" horiz-adv-x="500" 
d="M80 700h130q109 0 164.5 -54t55.5 -156q0 -67 -27 -114.5t-79 -72.5l136 -303h-74l-123 284q-23 -4 -53 -4h-64v-280h-66v700zM360 490q0 152 -150 152h-64v-304h64q72 0 111 39.5t39 112.5zM285 890h86l-112 -140h-58z" />
    <glyph glyph-name="racute" unicode="&#x155;" horiz-adv-x="290" 
d="M60 500h63v-84h2q7 17 19.5 33t29.5 29t38.5 20.5t47.5 7.5q10 0 20 -2v-58q-10 2 -20 2q-29 0 -54 -11t-43.5 -30.5t-29 -48t-10.5 -62.5v-296h-63v500zM218 725h84l-104 -150h-56z" />
    <glyph glyph-name="Rcommaaccent" unicode="&#x156;" horiz-adv-x="500" 
d="M80 700h130q109 0 164.5 -54t55.5 -156q0 -67 -27 -114.5t-79 -72.5l136 -303h-74l-123 284q-23 -4 -53 -4h-64v-280h-66v700zM360 490q0 152 -150 152h-64v-304h64q72 0 111 39.5t39 112.5zM224 -50h84l-84 -150h-56z" />
    <glyph glyph-name="rcommaaccent" unicode="&#x157;" horiz-adv-x="290" 
d="M60 500h63v-84h2q7 17 19.5 33t29.5 29t38.5 20.5t47.5 7.5q10 0 20 -2v-58q-10 2 -20 2q-29 0 -54 -11t-43.5 -30.5t-29 -48t-10.5 -62.5v-296h-63v500zM50 -50h84l-84 -150h-56z" />
    <glyph glyph-name="Rcaron" unicode="&#x158;" horiz-adv-x="500" 
d="M80 700h130q109 0 164.5 -54t55.5 -156q0 -67 -27 -114.5t-79 -72.5l136 -303h-74l-123 284q-23 -4 -53 -4h-64v-280h-66v700zM360 490q0 152 -150 152h-64v-304h64q72 0 111 39.5t39 112.5zM90 890h60l80 -88l80 88h60l-107 -140h-66z" />
    <glyph glyph-name="rcaron" unicode="&#x159;" horiz-adv-x="290" 
d="M60 500h63v-84h2q7 17 19.5 33t29.5 29t38.5 20.5t47.5 7.5q10 0 20 -2v-58q-10 2 -20 2q-29 0 -54 -11t-43.5 -30.5t-29 -48t-10.5 -62.5v-296h-63v500zM40 725h58l72 -100l72 100h58l-98 -150h-64z" />
    <glyph glyph-name="Sacute" unicode="&#x15a;" horiz-adv-x="440" 
d="M200 -6q-29 0 -51.5 1.5t-41.5 5t-35 8.5t-32 11v70q36 -17 72 -27.5t88 -10.5q60 0 95 35t35 93q0 27 -8 49t-25 40.5t-43.5 36t-63.5 36.5q-29 15 -56 32t-48 39t-33.5 50.5t-12.5 66.5t13.5 70t39.5 55.5t63 37t84 13.5q36 0 67.5 -6t72.5 -20v-70q-42 20 -73.5 29
t-66.5 9q-68 0 -99 -30t-31 -88q0 -20 7 -37.5t23 -34t42 -33.5t64 -37q41 -22 70.5 -43t48 -45.5t27 -53.5t8.5 -66q0 -42 -13.5 -76t-39.5 -58.5t-63 -38t-84 -13.5zM275 890h86l-112 -140h-58z" />
    <glyph glyph-name="sacute" unicode="&#x15b;" horiz-adv-x="340" 
d="M150 -6q-25 0 -46.5 4t-38.5 9q-19 5 -35 13v68q16 -10 35 -18q17 -7 38.5 -12.5t46.5 -5.5q47 0 69.5 21.5t22.5 61.5q0 13 -4 24t-14 22.5t-28 23.5t-45 28q-36 21 -59.5 38t-37 33.5t-19 33.5t-5.5 38q0 57 39 93.5t111 36.5q24 0 44 -4t35 -9q17 -6 31 -13v-68
q-14 10 -31 18q-15 7 -35 12.5t-44 5.5q-43 0 -62.5 -18.5t-19.5 -53.5q0 -11 4 -21.5t14.5 -21t28.5 -23t45 -27.5q36 -20 59 -38t36.5 -35.5t19 -35.5t5.5 -39q0 -65 -40.5 -103t-119.5 -38zM213 725h84l-104 -150h-56z" />
    <glyph glyph-name="Scircumflex" unicode="&#x15c;" horiz-adv-x="440" 
d="M200 -6q-29 0 -51.5 1.5t-41.5 5t-35 8.5t-32 11v70q36 -17 72 -27.5t88 -10.5q60 0 95 35t35 93q0 27 -8 49t-25 40.5t-43.5 36t-63.5 36.5q-29 15 -56 32t-48 39t-33.5 50.5t-12.5 66.5t13.5 70t39.5 55.5t63 37t84 13.5q36 0 67.5 -6t72.5 -20v-70q-42 20 -73.5 29
t-66.5 9q-68 0 -99 -30t-31 -88q0 -20 7 -37.5t23 -34t42 -33.5t64 -37q41 -22 70.5 -43t48 -45.5t27 -53.5t8.5 -66q0 -42 -13.5 -76t-39.5 -58.5t-63 -38t-84 -13.5zM193 890h54l113 -140h-70l-70 86l-70 -86h-70z" />
    <glyph glyph-name="scircumflex" unicode="&#x15d;" horiz-adv-x="340" 
d="M150 -6q-25 0 -46.5 4t-38.5 9q-19 5 -35 13v68q16 -10 35 -18q17 -7 38.5 -12.5t46.5 -5.5q47 0 69.5 21.5t22.5 61.5q0 13 -4 24t-14 22.5t-28 23.5t-45 28q-36 21 -59.5 38t-37 33.5t-19 33.5t-5.5 38q0 57 39 93.5t111 36.5q24 0 44 -4t35 -9q17 -6 31 -13v-68
q-14 10 -31 18q-15 7 -35 12.5t-44 5.5q-43 0 -62.5 -18.5t-19.5 -53.5q0 -11 4 -21.5t14.5 -21t28.5 -23t45 -27.5q36 -20 59 -38t36.5 -35.5t19 -35.5t5.5 -39q0 -65 -40.5 -103t-119.5 -38zM139 725h52l104 -150h-68l-62 98l-62 -98h-68z" />
    <glyph glyph-name="Scedilla" unicode="&#x15e;" horiz-adv-x="440" 
d="M200 -6q-29 0 -51.5 1.5t-41.5 5t-35 8.5t-32 11v70q36 -17 72 -27.5t88 -10.5q60 0 95 35t35 93q0 27 -8 49t-25 40.5t-43.5 36t-63.5 36.5q-29 15 -56 32t-48 39t-33.5 50.5t-12.5 66.5t13.5 70t39.5 55.5t63 37t84 13.5q36 0 67.5 -6t72.5 -20v-70q-42 20 -73.5 29
t-66.5 9q-68 0 -99 -30t-31 -88q0 -20 7 -37.5t23 -34t42 -33.5t64 -37q41 -22 70.5 -43t48 -45.5t27 -53.5t8.5 -66q0 -42 -13.5 -76t-39.5 -58.5t-63 -38t-84 -13.5zM220 -216q-38 0 -60.5 8t-39.5 18l19 44q14 -9 30.5 -14.5t35.5 -5.5q26 0 40.5 13t14.5 30
q0 18 -14 29.5t-47 11.5q-7 0 -12 -0.5t-9 -0.5q-4 -1 -8 -1l25 84h50l-11 -42q14 -2 29 -7t28 -15.5t21 -26t8 -37.5q0 -38 -26.5 -63t-73.5 -25z" />
    <glyph glyph-name="scedilla" unicode="&#x15f;" horiz-adv-x="340" 
d="M150 -6q-25 0 -46.5 4t-38.5 9q-19 5 -35 13v68q16 -10 35 -18q17 -7 38.5 -12.5t46.5 -5.5q47 0 69.5 21.5t22.5 61.5q0 13 -4 24t-14 22.5t-28 23.5t-45 28q-36 21 -59.5 38t-37 33.5t-19 33.5t-5.5 38q0 57 39 93.5t111 36.5q24 0 44 -4t35 -9q17 -6 31 -13v-68
q-14 10 -31 18q-15 7 -35 12.5t-44 5.5q-43 0 -62.5 -18.5t-19.5 -53.5q0 -11 4 -21.5t14.5 -21t28.5 -23t45 -27.5q36 -20 59 -38t36.5 -35.5t19 -35.5t5.5 -39q0 -65 -40.5 -103t-119.5 -38zM165 -216q-34 0 -53.5 7t-36.5 17l18 40q14 -9 26 -12.5t26 -3.5
q25 0 38.5 12.5t13.5 32.5q0 43 -52 43q-10 0 -20 -2q-4 -1 -8 -1l25 83h46l-12 -47q31 -3 55 -21.5t24 -59.5q0 -42 -23.5 -65t-66.5 -23z" />
    <glyph glyph-name="Scaron" unicode="&#x160;" horiz-adv-x="440" 
d="M200 -6q-29 0 -51.5 1.5t-41.5 5t-35 8.5t-32 11v70q36 -17 72 -27.5t88 -10.5q60 0 95 35t35 93q0 27 -8 49t-25 40.5t-43.5 36t-63.5 36.5q-29 15 -56 32t-48 39t-33.5 50.5t-12.5 66.5t13.5 70t39.5 55.5t63 37t84 13.5q36 0 67.5 -6t72.5 -20v-70q-42 20 -73.5 29
t-66.5 9q-68 0 -99 -30t-31 -88q0 -20 7 -37.5t23 -34t42 -33.5t64 -37q41 -22 70.5 -43t48 -45.5t27 -53.5t8.5 -66q0 -42 -13.5 -76t-39.5 -58.5t-63 -38t-84 -13.5zM80 890h60l80 -88l80 88h60l-107 -140h-66z" />
    <glyph glyph-name="scaron" unicode="&#x161;" horiz-adv-x="340" 
d="M150 -6q-25 0 -46.5 4t-38.5 9q-19 5 -35 13v68q16 -10 35 -18q17 -7 38.5 -12.5t46.5 -5.5q47 0 69.5 21.5t22.5 61.5q0 13 -4 24t-14 22.5t-28 23.5t-45 28q-36 21 -59.5 38t-37 33.5t-19 33.5t-5.5 38q0 57 39 93.5t111 36.5q24 0 44 -4t35 -9q17 -6 31 -13v-68
q-14 10 -31 18q-15 7 -35 12.5t-44 5.5q-43 0 -62.5 -18.5t-19.5 -53.5q0 -11 4 -21.5t14.5 -21t28.5 -23t45 -27.5q36 -20 59 -38t36.5 -35.5t19 -35.5t5.5 -39q0 -65 -40.5 -103t-119.5 -38zM35 725h58l72 -100l72 100h58l-98 -150h-64z" />
    <glyph glyph-name="Tcedilla" unicode="&#x162;" 
d="M192 642h-172v58h410v-58h-172v-642h-66v642zM225 -216q-38 0 -60.5 8t-39.5 18l19 44q14 -9 30.5 -14.5t35.5 -5.5q26 0 40.5 13t14.5 30q0 18 -14 29.5t-47 11.5q-7 0 -12 -0.5t-9 -0.5q-4 -1 -8 -1l25 84h50l-11 -42q14 -2 29 -7t28 -15.5t21 -26t8 -37.5
q0 -38 -26.5 -63t-73.5 -25z" />
    <glyph glyph-name="tcedilla" unicode="&#x163;" horiz-adv-x="270" 
d="M200 -6q-57 0 -83.5 28.5t-26.5 97.5v324h-80v56h80v130l64 20v-150h96v-56h-96v-324q0 -36 13 -52t33 -16q9 0 18 1t16 3l16 4v-60q-8 -2 -16 -3q-14 -3 -34 -3zM180 -216q-34 0 -53.5 7t-36.5 17l18 40q14 -9 26 -12.5t26 -3.5q25 0 38.5 12.5t13.5 32.5q0 43 -52 43
q-10 0 -20 -2q-4 -1 -8 -1l25 83h46l-12 -47q31 -3 55 -21.5t24 -59.5q0 -42 -23.5 -65t-66.5 -23z" />
    <glyph glyph-name="Tcaron" unicode="&#x164;" 
d="M192 642h-172v58h410v-58h-172v-642h-66v642zM85 890h60l80 -88l80 88h60l-107 -140h-66z" />
    <glyph glyph-name="tcaron" unicode="&#x165;" horiz-adv-x="270" 
d="M228 770h76l-44 -210h-56zM200 -6q-57 0 -83.5 28.5t-26.5 97.5v324h-80v56h80v130l64 20v-150h96v-56h-96v-324q0 -36 13 -52t33 -16q9 0 18 1t16 3l16 4v-60q-8 -2 -16 -3q-14 -3 -34 -3z" />
    <glyph glyph-name="Umacron" unicode="&#x16a;" horiz-adv-x="540" 
d="M270 -6q-98 0 -149 57t-51 189v460h66v-460q0 -102 35.5 -144t98.5 -42t98.5 42t35.5 144v460h66v-460q0 -132 -51.5 -189t-148.5 -57zM150 848h240v-56h-240v56z" />
    <glyph glyph-name="umacron" unicode="&#x16b;" horiz-adv-x="455" 
d="M395 0h-60v80h-2q-15 -35 -50 -60.5t-88 -25.5q-64 0 -102 44.5t-38 145.5v316h64v-316q0 -73 25 -102.5t71 -29.5q21 0 41.5 11t37 30.5t27 47.5t10.5 63v296h64v-500zM115 677h220v-54h-220v54z" />
    <glyph glyph-name="Ubreve" unicode="&#x16c;" horiz-adv-x="540" 
d="M270 -6q-98 0 -149 57t-51 189v460h66v-460q0 -102 35.5 -144t98.5 -42t98.5 42t35.5 144v460h66v-460q0 -132 -51.5 -189t-148.5 -57zM270 760q-25 0 -48 6t-40.5 19.5t-28.5 35t-13 51.5l52 8q8 -36 25.5 -51t52.5 -15t52.5 15t25.5 51l52 -8q-2 -30 -13 -51.5
t-28.5 -35t-40.5 -19.5t-48 -6z" />
    <glyph glyph-name="ubreve" unicode="&#x16d;" horiz-adv-x="455" 
d="M395 0h-60v80h-2q-15 -35 -50 -60.5t-88 -25.5q-64 0 -102 44.5t-38 145.5v316h64v-316q0 -73 25 -102.5t71 -29.5q21 0 41.5 11t37 30.5t27 47.5t10.5 63v296h64v-500zM225 595q-21 0 -42 5.5t-37.5 17.5t-27.5 31.5t-13 47.5l50 8q14 -58 70 -58q29 0 45.5 14t24.5 44
l50 -8q-2 -28 -13 -47.5t-27.5 -31.5t-37.5 -17.5t-42 -5.5z" />
    <glyph glyph-name="Uring" unicode="&#x16e;" horiz-adv-x="540" 
d="M270 -6q-98 0 -149 57t-51 189v460h66v-460q0 -102 35.5 -144t98.5 -42t98.5 42t35.5 144v460h66v-460q0 -132 -51.5 -189t-148.5 -57zM270 720q-42 0 -71 29t-29 71t29 71t71 29t71 -29t29 -71t-29 -71t-71 -29zM270 772q20 0 34 14t14 34t-14 34t-34 14t-34 -14
t-14 -34t14 -34t34 -14z" />
    <glyph glyph-name="uring" unicode="&#x16f;" horiz-adv-x="455" 
d="M395 0h-60v80h-2q-15 -35 -50 -60.5t-88 -25.5q-64 0 -102 44.5t-38 145.5v316h64v-316q0 -73 25 -102.5t71 -29.5q21 0 41.5 11t37 30.5t27 47.5t10.5 63v296h64v-500zM225 550q-42 0 -71 29t-29 71t29 71t71 29t71 -29t29 -71t-29 -71t-71 -29zM225 600q21 0 35.5 14.5
t14.5 35.5t-14.5 35.5t-35.5 14.5t-35.5 -14.5t-14.5 -35.5t14.5 -35.5t35.5 -14.5z" />
    <glyph glyph-name="Uhungarumlaut" unicode="&#x170;" horiz-adv-x="540" 
d="M270 -6q-98 0 -149 57t-51 189v460h66v-460q0 -102 35.5 -144t98.5 -42t98.5 42t35.5 144v460h66v-460q0 -132 -51.5 -189t-148.5 -57zM242 890h84l-84 -140h-56zM380 890h86l-112 -140h-58z" />
    <glyph glyph-name="uhungarumlaut" unicode="&#x171;" horiz-adv-x="455" 
d="M395 0h-60v80h-2q-15 -35 -50 -60.5t-88 -25.5q-64 0 -102 44.5t-38 145.5v316h64v-316q0 -73 25 -102.5t71 -29.5q21 0 41.5 11t37 30.5t27 47.5t10.5 63v296h64v-500zM178 725h82l-64 -150h-54zM318 725h84l-94 -150h-56z" />
    <glyph glyph-name="Uogonek" unicode="&#x172;" horiz-adv-x="540" 
d="M305 -216q-51 0 -75.5 22.5t-24.5 58.5q0 35 20.5 63t65.5 65v2q-6 -1 -10.5 -1h-10.5q-98 0 -149 57t-51 189v460h66v-460q0 -102 35.5 -144t98.5 -42t98.5 42t35.5 144v460h66v-460q0 -85 -20 -135t-58 -79t-62 -51.5t-37.5 -41t-18.5 -33t-5 -25.5q0 -18 11 -27.5
t40 -9.5q13 0 25 2.5t21 5.5q11 4 19 8v-56q-15 -6 -30.5 -10t-49.5 -4z" />
    <glyph glyph-name="uogonek" unicode="&#x173;" horiz-adv-x="455" 
d="M395 0h-60v80h-2q-15 -35 -50 -60.5t-88 -25.5q-64 0 -102 44.5t-38 145.5v316h64v-316q0 -73 25 -102.5t71 -29.5q21 0 41.5 11t37 30.5t27 47.5t10.5 63v296h64v-500zM325 -216q-43 0 -66.5 22.5t-23.5 58.5q0 34 27.5 69t72.5 66h60q-31 -27 -50 -46t-29.5 -33
t-14.5 -26t-4 -25q0 -34 43 -34q13 0 23.5 2.5t17.5 5.5q8 4 14 8v-54q-8 -3 -13.5 -5.5t-12.5 -4.5t-17 -3t-27 -1z" />
    <glyph glyph-name="Ydieresis" unicode="&#x178;" horiz-adv-x="480" 
d="M207 300l-197 400h72l159 -335l159 335h70l-197 -400v-300h-66v300zM116 860h80v-80h-80v80zM286 860h80v-80h-80v80z" />
    <glyph glyph-name="Zacute" unicode="&#x179;" 
d="M40 58l306 584h-296v58h360v-58l-306 -584h306v-58h-370v58zM285 890h86l-112 -140h-58z" />
    <glyph glyph-name="zacute" unicode="&#x17a;" horiz-adv-x="370" 
d="M30 56l244 388h-234v56h300v-56l-244 -388h244v-56h-310v56zM238 725h84l-104 -150h-56z" />
    <glyph glyph-name="Zdotaccent" unicode="&#x17b;" 
d="M40 58l306 584h-296v58h360v-58l-306 -584h306v-58h-370v58zM185 865h90v-90h-90v90z" />
    <glyph glyph-name="zdotaccent" unicode="&#x17c;" horiz-adv-x="370" 
d="M30 56l244 388h-234v56h300v-56l-244 -388h244v-56h-310v56zM145 695h90v-90h-90v90z" />
    <glyph glyph-name="Zcaron" unicode="&#x17d;" 
d="M40 58l306 584h-296v58h360v-58l-306 -584h306v-58h-370v58zM90 890h60l80 -88l80 88h60l-107 -140h-66z" />
    <glyph glyph-name="zcaron" unicode="&#x17e;" horiz-adv-x="370" 
d="M30 56l244 388h-234v56h300v-56l-244 -388h244v-56h-310v56zM60 725h58l72 -100l72 100h58l-98 -150h-64z" />
    <glyph glyph-name="uni018F" unicode="&#x18f;" horiz-adv-x="600" 
d="M300 -6q-53 0 -99 21t-79.5 66t-52.5 115t-19 169v49h428q-5 61 -21 105t-41.5 72t-59 41.5t-72.5 13.5t-72 -6t-57 -14q-28 -9 -51 -20v68q23 9 51 16q24 6 56.5 11t71.5 5q60 0 109 -20.5t84 -62.5t54.5 -106.5t19.5 -151.5q0 -99 -19 -169t-52.5 -115t-79.5 -66
t-99 -21zM300 54q36 0 68.5 16t57 52t39 93.5t15.5 140.5h-360q1 -83 15.5 -140.5t39 -93.5t57 -52t68.5 -16z" />
    <glyph glyph-name="florin" unicode="&#x192;" 
d="M20 -216q-21 0 -36 5q-8 2 -14 5v60q6 -3 14 -6q7 -2 16 -4t20 -2q15 0 30 6.5t29 24t26 48t21 79.5l63 351h-114l9 56h114l18 93q13 67 27.5 108t32.5 62.5t41 28.5t53 7q11 0 22.5 -1.5t19.5 -3.5q10 -3 18 -5v-60q-9 3 -19 6q-8 2 -19 4t-22 2q-15 0 -28 -6t-23.5 -22
t-20 -45t-18.5 -75l-18 -93h114l-9 -56h-114l-63 -351q-11 -64 -28 -105.5t-38.5 -66t-47.5 -34.5t-56 -10z" />
    <glyph glyph-name="uni01CF" unicode="&#x1cf;" horiz-adv-x="246" 
d="M90 700h66v-700h-66v700zM-16 890h60l80 -88l80 88h60l-107 -140h-66z" />
    <glyph glyph-name="uni01D0" unicode="&#x1d0;" horiz-adv-x="204" 
d="M70 500h64v-500h-64v500zM-27 725h58l72 -100l72 100h58l-98 -150h-64z" />
    <glyph glyph-name="uni01DD" unicode="&#x1dd;" horiz-adv-x="440" 
d="M40 272h291q-2 51 -10.5 84.5t-24.5 54t-39 29t-53 8.5q-32 0 -56 -5t-41 -10q-19 -7 -33 -15v66q14 6 33 11q17 4 40.5 7.5t55.5 3.5q44 0 80 -13t62 -43t40.5 -78.5t14.5 -119.5t-15.5 -120t-41 -80t-57.5 -44.5t-66 -13.5q-56 0 -91.5 20.5t-55 55.5t-26.5 82t-7 100
v20zM220 52q21 0 40 8.5t33.5 28t24.5 50.5t13 77h-223q2 -49 10.5 -80.5t22.5 -50t34 -26t45 -7.5z" />
    <glyph glyph-name="Gcaron" unicode="&#x1e6;" horiz-adv-x="595" 
d="M330 379h190v-349q-26 -12 -69 -24t-111 -12q-66 0 -119.5 21.5t-91.5 66t-58.5 111.5t-20.5 157t21 157t60 111.5t94.5 66t124.5 21.5q45 0 89.5 -11t70.5 -25v-70q-13 9 -31.5 17.5t-39.5 14.5t-44 10t-45 4q-53 0 -95.5 -17.5t-72.5 -53.5t-46 -92t-16 -133t16 -133
t45 -92t69.5 -53.5t89.5 -17.5q35 0 63 4t51 11v252h-124v58zM200 890h60l80 -88l80 88h60l-107 -140h-66z" />
    <glyph glyph-name="gcaron" unicode="&#x1e7;" horiz-adv-x="480" 
d="M220 -216q-36 0 -74 5.5t-76 20.5v68q38 -19 71.5 -27.5t78.5 -8.5q65 0 100.5 38.5t35.5 119.5v75h-2q-26 -42 -59 -61.5t-75 -19.5q-39 0 -72 14.5t-57 45.5t-37.5 79.5t-13.5 116.5q0 66 14 114t39 79.5t59 47t73 15.5q42 0 77 -22.5t56 -68.5h2v85h60v-500
q0 -110 -51 -163t-149 -53zM230 52q25 0 47.5 11.5t40 35.5t28 61.5t10.5 89.5t-10.5 89.5t-27.5 61.5t-38.5 35.5t-44.5 11.5q-29 0 -52.5 -10t-40 -33.5t-25.5 -61.5t-9 -93q0 -56 9 -93.5t25 -61t38.5 -33.5t49.5 -10zM100 725h58l72 -100l72 100h58l-98 -150h-64z" />
    <glyph glyph-name="Scommaaccent" unicode="&#x218;" horiz-adv-x="440" 
d="M200 -6q-29 0 -51.5 1.5t-41.5 5t-35 8.5t-32 11v70q36 -17 72 -27.5t88 -10.5q60 0 95 35t35 93q0 27 -8 49t-25 40.5t-43.5 36t-63.5 36.5q-29 15 -56 32t-48 39t-33.5 50.5t-12.5 66.5t13.5 70t39.5 55.5t63 37t84 13.5q36 0 67.5 -6t72.5 -20v-70q-42 20 -73.5 29
t-66.5 9q-68 0 -99 -30t-31 -88q0 -20 7 -37.5t23 -34t42 -33.5t64 -37q41 -22 70.5 -43t48 -45.5t27 -53.5t8.5 -66q0 -42 -13.5 -76t-39.5 -58.5t-63 -38t-84 -13.5zM178 -50h84l-84 -150h-56z" />
    <glyph glyph-name="scommaaccent" unicode="&#x219;" horiz-adv-x="340" 
d="M150 -6q-25 0 -46.5 4t-38.5 9q-19 5 -35 13v68q16 -10 35 -18q17 -7 38.5 -12.5t46.5 -5.5q47 0 69.5 21.5t22.5 61.5q0 13 -4 24t-14 22.5t-28 23.5t-45 28q-36 21 -59.5 38t-37 33.5t-19 33.5t-5.5 38q0 57 39 93.5t111 36.5q24 0 44 -4t35 -9q17 -6 31 -13v-68
q-14 10 -31 18q-15 7 -35 12.5t-44 5.5q-43 0 -62.5 -18.5t-19.5 -53.5q0 -11 4 -21.5t14.5 -21t28.5 -23t45 -27.5q36 -20 59 -38t36.5 -35.5t19 -35.5t5.5 -39q0 -65 -40.5 -103t-119.5 -38zM123 -50h84l-84 -150h-56z" />
    <glyph glyph-name="Tcommaaccent" unicode="&#x21a;" 
d="M192 642h-172v58h410v-58h-172v-642h-66v642zM180 -50h84l-84 -150h-56z" />
    <glyph glyph-name="tcommaaccent" unicode="&#x21b;" horiz-adv-x="270" 
d="M200 -6q-57 0 -83.5 28.5t-26.5 97.5v324h-80v56h80v130l64 20v-150h96v-56h-96v-324q0 -36 13 -52t33 -16q9 0 18 1t16 3l16 4v-60q-8 -2 -16 -3q-14 -3 -34 -3zM139 -50h84l-84 -150h-56z" />
    <glyph glyph-name="uni0237" unicode="&#x237;" horiz-adv-x="204" 
d="M40 -216q-23 0 -38 3q-9 1 -16 3v58q6 -2 13 -3q12 -3 31 -3q17 0 28.5 16t11.5 62v580h64v-580q0 -41 -5.5 -67t-17 -41.5t-29 -21.5t-42.5 -6z" />
    <glyph glyph-name="uni0259" unicode="&#x259;" horiz-adv-x="440" 
d="M40 272h291q-2 51 -10.5 84.5t-24.5 54t-39 29t-53 8.5q-32 0 -56 -5t-41 -10q-19 -7 -33 -15v66q14 6 33 11q17 4 40.5 7.5t55.5 3.5q44 0 80 -13t62 -43t40.5 -78.5t14.5 -119.5t-15.5 -120t-41 -80t-57.5 -44.5t-66 -13.5q-56 0 -91.5 20.5t-55 55.5t-26.5 82t-7 100
v20zM220 52q21 0 40 8.5t33.5 28t24.5 50.5t13 77h-223q2 -49 10.5 -80.5t22.5 -50t34 -26t45 -7.5z" />
    <glyph glyph-name="afii57929" unicode="&#x2bc;" horiz-adv-x="150" 
d="M60 750h90l-82 -250h-58z" />
    <glyph glyph-name="circumflex" unicode="&#x2c6;" horiz-adv-x="300" 
d="M124 725h52l104 -150h-68l-62 98l-62 -98h-68z" />
    <glyph glyph-name="caron" unicode="&#x2c7;" horiz-adv-x="300" 
d="M20 725h58l72 -100l72 100h58l-98 -150h-64z" />
    <glyph glyph-name="uni02C9" unicode="&#x2c9;" horiz-adv-x="260" 
d="M20 677h220v-54h-220v54z" />
    <glyph glyph-name="breve" unicode="&#x2d8;" horiz-adv-x="280" 
d="M140 595q-21 0 -42 5.5t-37.5 17.5t-27.5 31.5t-13 47.5l50 8q14 -58 70 -58q29 0 45.5 14t24.5 44l50 -8q-2 -28 -13 -47.5t-27.5 -31.5t-37.5 -17.5t-42 -5.5z" />
    <glyph glyph-name="dotaccent" unicode="&#x2d9;" horiz-adv-x="120" 
d="M15 695h90v-90h-90v90z" />
    <glyph glyph-name="ring" unicode="&#x2da;" horiz-adv-x="240" 
d="M120 550q-42 0 -71 29t-29 71t29 71t71 29t71 -29t29 -71t-29 -71t-71 -29zM120 600q21 0 35.5 14.5t14.5 35.5t-14.5 35.5t-35.5 14.5t-35.5 -14.5t-14.5 -35.5t14.5 -35.5t35.5 -14.5z" />
    <glyph glyph-name="ogonek" unicode="&#x2db;" horiz-adv-x="200" 
d="M110 -216q-43 0 -66.5 22.5t-23.5 58.5q0 34 27.5 69t72.5 66h60q-31 -27 -50 -46t-29.5 -33t-14.5 -26t-4 -25q0 -34 43 -34q13 0 23.5 2.5t17.5 5.5q8 4 14 8v-54q-8 -3 -13.5 -5.5t-12.5 -4.5t-17 -3t-27 -1z" />
    <glyph glyph-name="tilde" unicode="&#x2dc;" horiz-adv-x="320" 
d="M30 600q0 53 20.5 76.5t54.5 23.5q19 0 34 -6.5t28.5 -14.5t25 -14.5t22.5 -6.5q14 0 22.5 9.5t8.5 32.5h44q0 -53 -20.5 -76.5t-54.5 -23.5q-19 0 -34 6.5t-28.5 14.5t-25 14.5t-22.5 6.5q-14 0 -22.5 -9.5t-8.5 -32.5h-44v0z" />
    <glyph glyph-name="hungarumlaut" unicode="&#x2dd;" horiz-adv-x="300" 
d="M56 725h82l-64 -150h-54zM196 725h84l-94 -150h-56z" />
    <glyph glyph-name="gravecomb" unicode="&#x300;" horiz-adv-x="0" 
d="M-359 725h84l76 -150h-56z" />
    <glyph glyph-name="acutecomb" unicode="&#x301;" horiz-adv-x="0" 
d="M-163 725h84l-104 -150h-56z" />
    <glyph glyph-name="uni037E" unicode="&#x37e;" horiz-adv-x="270" 
d="M95 100h90l-70 -220h-60zM85 504h100v-100h-100v100z" />
    <glyph glyph-name="uni0394" unicode="&#x394;" horiz-adv-x="540" 
d="M234 700h72l224 -700h-520zM437 66l-167 524h-2l-167 -524h336z" />
    <glyph glyph-name="uni03A9" unicode="&#x3a9;" horiz-adv-x="640" 
d="M56 136h56v-78h102v54q-77 29 -120.5 101.5t-43.5 186.5q0 74 21 131t57 96t85.5 59t106.5 20q61 0 110.5 -20t85 -59t55 -96t19.5 -131q0 -114 -44 -186.5t-120 -101.5v-54h102v78h56v-136h-224v157q72 13 116 73.5t44 169.5q0 61 -14.5 107.5t-41 77t-63.5 46t-81 15.5
t-81 -15.5t-63.5 -46t-41 -77t-14.5 -107.5q0 -109 44 -169.5t116 -73.5v-157h-224v136z" />
    <glyph glyph-name="uni03BC" unicode="&#x3bc;" horiz-adv-x="460" 
d="M60 500h64v-316q0 -73 25 -102.5t71 -29.5q21 0 41.5 11t37 30.5t27 47.5t10.5 63v296h64v-500h-60v80h-2q-15 -35 -50 -60.5t-88 -25.5q-45 0 -76 21v-225h-64v710z" />
    <glyph glyph-name="pi" unicode="&#x3c0;" horiz-adv-x="500" 
d="M100 445h-4q-17 0 -30.5 -5t-22.5 -10q-11 -6 -18 -14l-25 50q10 9 24 17q12 6 31 11.5t45 5.5h380v-55h-80v-445h-64v445h-172v-445h-64v445z" />
    <glyph glyph-name="afii10023" unicode="&#x401;" horiz-adv-x="430" 
d="M80 700h310v-58h-244v-253h224v-58h-224v-273h254v-58h-320v700zM110 860h80v-80h-80v80zM280 860h80v-80h-80v80z" />
    <glyph glyph-name="afii10051" unicode="&#x402;" horiz-adv-x="600" 
d="M355 -6q-23 0 -36 3q-8 1 -14 3v62q6 -2 14 -4q7 -2 16 -3t20 -1q64 0 99.5 40.5t35.5 135.5q0 88 -35.5 127t-99.5 39q-23 0 -40.5 -3.5t-30.5 -8.5q-15 -5 -26 -12v-372h-66v642h-172v58h410v-58h-172v-208q11 6 26 11q13 4 30.5 7.5t40.5 3.5q97 0 151 -57t54 -169
q0 -118 -55.5 -177t-149.5 -59z" />
    <glyph glyph-name="afii10052" unicode="&#x403;" horiz-adv-x="400" 
d="M80 700h300v-58h-234v-642h-66v700zM285 890h86l-112 -140h-58z" />
    <glyph glyph-name="afii10053" unicode="&#x404;" horiz-adv-x="510" 
d="M350 -6q-71 0 -127 21t-94.5 66t-58.5 114t-20 165q0 85 21.5 149.5t61 108t94.5 66t123 22.5q30 0 67 -6t63 -20v-70q-26 18 -63 27t-67 9q-48 0 -88.5 -16t-71 -48.5t-49 -80.5t-21.5 -112h290v-58h-290q3 -73 20.5 -125.5t47.5 -86t71 -49.5t91 -16q30 0 67 9t63 27
v-70q-26 -14 -63 -20t-67 -6z" />
    <glyph glyph-name="afii10054" unicode="&#x405;" horiz-adv-x="440" 
d="M200 -6q-29 0 -51.5 1.5t-41.5 5t-35 8.5t-32 11v70q36 -17 72 -27.5t88 -10.5q60 0 95 35t35 93q0 27 -8 49t-25 40.5t-43.5 36t-63.5 36.5q-29 15 -56 32t-48 39t-33.5 50.5t-12.5 66.5t13.5 70t39.5 55.5t63 37t84 13.5q36 0 67.5 -6t72.5 -20v-70q-42 20 -73.5 29
t-66.5 9q-68 0 -99 -30t-31 -88q0 -20 7 -37.5t23 -34t42 -33.5t64 -37q41 -22 70.5 -43t48 -45.5t27 -53.5t8.5 -66q0 -42 -13.5 -76t-39.5 -58.5t-63 -38t-84 -13.5z" />
    <glyph glyph-name="afii10055" unicode="&#x406;" horiz-adv-x="246" 
d="M90 700h66v-700h-66v700z" />
    <glyph glyph-name="afii10056" unicode="&#x407;" horiz-adv-x="246" 
d="M90 700h66v-700h-66v700zM-1 860h80v-80h-80v80zM169 860h80v-80h-80v80z" />
    <glyph glyph-name="afii10057" unicode="&#x408;" horiz-adv-x="310" 
d="M95 -6q-23 0 -39.5 2.5t-35.5 8.5v62q21 -8 36 -10.5t39 -2.5q29 0 49 26.5t20 89.5v530h66v-530q0 -95 -35.5 -135.5t-99.5 -40.5z" />
    <glyph glyph-name="afii10058" unicode="&#x409;" horiz-adv-x="710" 
d="M20 -6q-5 0 -13 1.5t-17 4.5v60q8 -2 15 -4t15 -2q15 0 27 3.5t20.5 19t15 47t10 86.5t5.5 138t2 202v150h306v-280h54q113 0 166.5 -54t53.5 -156t-55.5 -156t-164.5 -54h-120v642h-174v-92q0 -131 -3 -223t-10 -153.5t-18 -97.5t-27 -54t-38 -23t-50 -5zM610 210
q0 78 -38.5 115t-111.5 37h-54v-304h54q77 0 113.5 37t36.5 115z" />
    <glyph glyph-name="afii10059" unicode="&#x40a;" horiz-adv-x="794" 
d="M80 700h66v-296h258v296h66v-296h74q113 0 166.5 -53t53.5 -149t-55.5 -149t-164.5 -53h-140v346h-258v-346h-66v700zM694 202q0 72 -38.5 108t-111.5 36h-74v-288h74q77 0 113.5 36t36.5 108z" />
    <glyph glyph-name="afii10060" unicode="&#x40b;" horiz-adv-x="630" 
d="M192 642h-172v58h410v-58h-172v-236q17 7 38 12q18 5 43.5 8.5t55.5 3.5q39 0 71.5 -12.5t55.5 -35t35.5 -54t12.5 -68.5v-260h-66v260q0 53 -28.5 81.5t-80.5 28.5q-30 0 -55.5 -5t-43.5 -10q-21 -7 -38 -15v-340h-66v642z" />
    <glyph glyph-name="afii10061" unicode="&#x40c;" horiz-adv-x="510" 
d="M80 700h66v-311h10l242 311h82l-270 -338l290 -362h-86l-258 331h-10v-331h-66v700zM327 890h86l-112 -140h-58z" />
    <glyph glyph-name="afii10062" unicode="&#x40e;" horiz-adv-x="460" 
d="M110 -6q-10 0 -25 2t-25 4v62q14 -5 25 -6.5t25 -1.5q9 0 18.5 3.5t19 14t19 29.5t19.5 49l11 34l-187 516h80l143 -420h2l137 420h78l-189 -550q-16 -47 -32 -77.5t-34 -48t-38.5 -24t-46.5 -6.5zM231 760q-25 0 -48 6t-40.5 19.5t-28.5 35t-13 51.5l58 8
q4 -39 22 -54.5t50 -15.5q33 0 50.5 15.5t21.5 54.5l58 -8q-2 -30 -13 -51.5t-28.5 -35t-40.5 -19.5t-48 -6z" />
    <glyph glyph-name="afii10145" unicode="&#x40f;" horiz-adv-x="560" 
d="M247 0h-167v700h66v-642h268v642h66v-700h-167v-150h-66v150z" />
    <glyph glyph-name="afii10017" unicode="&#x410;" horiz-adv-x="540" 
d="M377 254l-107 356h-2l-107 -356h216zM234 700h72l224 -700h-72l-60 188h-258l-60 -188h-70z" />
    <glyph glyph-name="afii10018" unicode="&#x411;" horiz-adv-x="470" 
d="M80 700h330v-58h-264v-222h74q113 0 166.5 -54t53.5 -156t-55.5 -156t-164.5 -54h-140v700zM370 210q0 77 -39 114.5t-111 37.5h-74v-304h74q150 0 150 152z" />
    <glyph glyph-name="afii10019" unicode="&#x412;" horiz-adv-x="505" 
d="M370 518q0 60 -34 92t-106 32h-84v-248h84q72 0 106 32t34 92zM390 197q0 70 -37 104.5t-124 34.5h-83v-278h84q87 0 123.5 34t36.5 105zM80 700h150q113 0 161.5 -45t48.5 -137q0 -50 -26 -88.5t-74 -58.5v-2q19 -6 40 -17.5t39 -31.5t29.5 -50t11.5 -73q0 -95 -55 -146
t-175 -51h-150v700z" />
    <glyph glyph-name="afii10020" unicode="&#x413;" horiz-adv-x="400" 
d="M80 700h300v-58h-234v-642h-66v700z" />
    <glyph glyph-name="afii10021" unicode="&#x414;" horiz-adv-x="550" 
d="M10 58h50q19 38 32 80t21.5 102t12.5 146t4 214v100h330v-642h60v-208h-66v150h-378v-150h-66v208zM394 58v584h-200v-42q0 -128 -4.5 -215.5t-12.5 -148.5t-20 -102.5t-27 -75.5h264z" />
    <glyph glyph-name="afii10022" unicode="&#x415;" horiz-adv-x="430" 
d="M80 700h310v-58h-244v-253h224v-58h-224v-273h254v-58h-320v700z" />
    <glyph glyph-name="afii10024" unicode="&#x416;" horiz-adv-x="670" 
d="M237 358l-207 342h82l180 -311h10v311h66v-311h10l182 311h80l-207 -337l227 -363h-82l-200 331h-10v-331h-66v331h-10l-202 -331h-80z" />
    <glyph glyph-name="afii10025" unicode="&#x417;" horiz-adv-x="445" 
d="M180 -6q-34 0 -61.5 5.5t-47.5 13.5q-23 8 -41 19v72q18 -14 41 -25q20 -10 47.5 -17.5t61.5 -7.5q72 0 111 38t39 103q0 69 -38.5 105t-121.5 36h-40v58h40q40 0 68.5 10.5t46.5 29t26.5 43.5t8.5 53q0 54 -31.5 85t-88.5 31q-38 0 -68 -8t-50 -17q-25 -11 -42 -25v72
q17 10 42 19q20 7 50 13t68 6q91 0 140.5 -48t49.5 -128q0 -57 -30 -100t-90 -59v-2q22 -6 45.5 -17.5t42 -32t30.5 -51t12 -73.5q0 -91 -57 -146t-163 -55z" />
    <glyph glyph-name="afii10026" unicode="&#x418;" horiz-adv-x="590" 
d="M80 700h68v-630h2l256 630h104v-700h-68v630h-2l-256 -630h-104v700z" />
    <glyph glyph-name="afii10027" unicode="&#x419;" horiz-adv-x="590" 
d="M80 700h68v-630h2l256 630h104v-700h-68v630h-2l-256 -630h-104v700zM295 760q-25 0 -48 6t-40.5 19.5t-28.5 35t-13 51.5l58 8q4 -39 22 -54.5t50 -15.5q33 0 50.5 15.5t21.5 54.5l58 -8q-2 -30 -13 -51.5t-28.5 -35t-40.5 -19.5t-48 -6z" />
    <glyph glyph-name="afii10028" unicode="&#x41a;" horiz-adv-x="510" 
d="M80 700h66v-311h10l242 311h82l-270 -338l290 -362h-86l-258 331h-10v-331h-66v700z" />
    <glyph glyph-name="afii10029" unicode="&#x41b;" horiz-adv-x="490" 
d="M20 -6q-5 0 -13 1.5t-17 4.5v60q8 -2 15 -4t15 -2q15 0 27 3.5t20.5 19t15 47t10 86.5t5.5 138t2 202v150h310v-700h-66v642h-180v-92q0 -131 -3 -223t-9.5 -153.5t-17.5 -97.5t-27 -54t-37.5 -23t-49.5 -5z" />
    <glyph glyph-name="afii10030" unicode="&#x41c;" horiz-adv-x="700" 
d="M80 700h95l176 -420l176 420h93v-700h-66v600h-2l-169 -400h-66l-169 400h-2v-600h-66v700z" />
    <glyph glyph-name="afii10031" unicode="&#x41d;" horiz-adv-x="570" 
d="M80 700h66v-311h278v311h66v-700h-66v331h-278v-331h-66v700z" />
    <glyph glyph-name="afii10032" unicode="&#x41e;" horiz-adv-x="600" 
d="M300 54q37 0 69.5 16t57 51.5t39 92t14.5 136.5t-14.5 136.5t-39 92t-57 51.5t-69.5 16t-69.5 -16t-57 -51.5t-39 -92t-14.5 -136.5t14.5 -136.5t39 -92t57 -51.5t69.5 -16zM300 -6q-53 0 -99 20.5t-79.5 64t-52.5 111t-19 160.5t20.5 160t55 110.5t79.5 64.5t95 21
q53 0 99 -21t79.5 -64.5t52.5 -110.5t19 -160t-19 -160.5t-52.5 -111t-79.5 -64t-99 -20.5z" />
    <glyph glyph-name="afii10033" unicode="&#x41f;" horiz-adv-x="560" 
d="M80 700h400v-700h-66v642h-268v-642h-66v700z" />
    <glyph glyph-name="afii10034" unicode="&#x420;" horiz-adv-x="470" 
d="M370 490q0 78 -36.5 115t-113.5 37h-74v-304h74q73 0 111.5 38.5t38.5 113.5zM80 700h140q109 0 164.5 -54t55.5 -156q0 -98 -57 -154t-163 -56h-74v-280h-66v700z" />
    <glyph glyph-name="afii10035" unicode="&#x421;" horiz-adv-x="510" 
d="M350 -6q-69 0 -124.5 21t-94.5 64.5t-60 111t-21 159.5q0 88 21.5 155t61 111.5t94.5 67t123 22.5q30 0 67 -6t63 -20v-70q-26 18 -63 27t-67 9q-51 0 -93 -18t-72.5 -54.5t-47.5 -92.5t-17 -131q0 -77 16 -133t46 -92t72.5 -53.5t95.5 -17.5q30 0 67 9t63 27v-70
q-26 -14 -63 -20t-67 -6z" />
    <glyph glyph-name="afii10036" unicode="&#x422;" 
d="M192 642h-172v58h410v-58h-172v-642h-66v642z" />
    <glyph glyph-name="afii10037" unicode="&#x423;" horiz-adv-x="460" 
d="M110 -6q-10 0 -25 2t-25 4v62q14 -5 25 -6.5t25 -1.5q9 0 18.5 3.5t19 14t19 29.5t19.5 49l11 34l-187 516h80l143 -420h2l137 420h78l-189 -550q-16 -47 -32 -77.5t-34 -48t-38.5 -24t-46.5 -6.5z" />
    <glyph glyph-name="afii10038" unicode="&#x424;" horiz-adv-x="700" 
d="M100 350q0 -107 49.5 -159.5t140.5 -52.5h26v424h-26q-91 0 -140.5 -52.5t-49.5 -159.5zM317 80h-27q-60 0 -108 18.5t-82 53t-52 84.5t-18 114t18 114t52 84.5t82 53t108 18.5h27v86h66v-86h27q60 0 108 -18.5t82 -53t52 -84.5t18 -114t-18 -114t-52 -84.5t-82 -53
t-108 -18.5h-27v-86h-66v86zM600 350q0 107 -49.5 159.5t-140.5 52.5h-26v-424h26q91 0 140.5 52.5t49.5 159.5z" />
    <glyph glyph-name="afii10039" unicode="&#x425;" horiz-adv-x="510" 
d="M220 366l-190 334h72l154 -270l154 270h70l-190 -331l210 -369h-72l-174 306l-174 -306h-70z" />
    <glyph glyph-name="afii10040" unicode="&#x426;" horiz-adv-x="570" 
d="M474 0h-394v700h66v-642h268v642h66v-642h60v-208h-66v150z" />
    <glyph glyph-name="afii10041" unicode="&#x427;" horiz-adv-x="500" 
d="M354 262q-17 -3 -36 -6q-17 -2 -39.5 -4t-48.5 -2q-101 0 -145.5 44.5t-44.5 145.5v260h66v-260q0 -71 28.5 -100.5t95.5 -29.5q26 0 48.5 2t39.5 5q19 3 36 7v376h66v-700h-66v262z" />
    <glyph glyph-name="afii10042" unicode="&#x428;" horiz-adv-x="830" 
d="M80 700h66v-642h236v642h66v-642h236v642h66v-700h-670v700z" />
    <glyph glyph-name="afii10043" unicode="&#x429;" horiz-adv-x="840" 
d="M744 0h-664v700h66v-642h236v642h66v-642h236v642h66v-642h60v-208h-66v150z" />
    <glyph glyph-name="afii10044" unicode="&#x42a;" horiz-adv-x="490" 
d="M-20 700h186v-280h74q113 0 166.5 -54t53.5 -156t-55.5 -156t-164.5 -54h-140v642h-120v58zM390 210q0 78 -38.5 115t-111.5 37h-74v-304h74q77 0 113.5 37t36.5 115z" />
    <glyph glyph-name="afii10045" unicode="&#x42b;" horiz-adv-x="680" 
d="M370 210q0 78 -38.5 115t-111.5 37h-74v-304h74q77 0 113.5 37t36.5 115zM80 700h66v-280h74q113 0 166.5 -54t53.5 -156t-55.5 -156t-164.5 -54h-140v700zM600 700v-700h-68v700h68z" />
    <glyph glyph-name="afii10046" unicode="&#x42c;" horiz-adv-x="470" 
d="M370 210q0 78 -38.5 115t-111.5 37h-74v-304h74q77 0 113.5 37t36.5 115zM80 700h66v-280h74q113 0 166.5 -54t53.5 -156t-55.5 -156t-164.5 -54h-140v700z" />
    <glyph glyph-name="afii10047" unicode="&#x42d;" horiz-adv-x="510" 
d="M160 -6q-30 0 -67 6t-63 20v70q26 -18 63 -27t67 -9q100 0 161.5 65.5t67.5 211.5h-289v58h289q-6 132 -67.5 194.5t-161.5 62.5q-30 0 -67 -9t-63 -27v70q26 14 63 20t67 6q69 0 124.5 -21.5t94.5 -65t60 -108t21 -151.5q0 -94 -21 -163t-60 -114t-94.5 -67t-124.5 -22z
" />
    <glyph glyph-name="afii10048" unicode="&#x42e;" horiz-adv-x="770" 
d="M490 -6q-45 0 -85.5 18.5t-71.5 58.5t-50.5 102t-22.5 148h-114v-321h-66v700h66v-321h114q3 86 22.5 148t50.5 101.5t71.5 58.5t85.5 19q47 0 88.5 -20.5t73 -63.5t50 -110.5t18.5 -161.5t-18.5 -161.5t-50 -110.5t-73 -63.5t-88.5 -20.5zM490 54q31 0 60 15.5t51 50.5
t35.5 91.5t13.5 138.5t-13.5 138.5t-35.5 91.5t-51 50.5t-60 15.5t-60 -15.5t-51 -50.5t-35.5 -91.5t-13.5 -138.5t13.5 -138.5t35.5 -91.5t51 -50.5t60 -15.5z" />
    <glyph glyph-name="afii10049" unicode="&#x42f;" horiz-adv-x="510" 
d="M183 299q-55 23 -84 72.5t-29 118.5q0 102 55.5 156t164.5 54h140v-700h-66v280h-74q-25 0 -47 3l-131 -283h-72zM140 490q0 -73 39 -112.5t111 -39.5h74v304h-74q-150 0 -150 -152z" />
    <glyph glyph-name="afii10065" unicode="&#x430;" horiz-adv-x="435" 
d="M170 -6q-64 0 -102 38t-38 103q0 34 13.5 65t42.5 54.5t74.5 37.5t109.5 14h46v20q0 71 -24 99t-72 28q-38 0 -70.5 -9t-69.5 -28v60q32 14 67 22t73 8q81 0 120.5 -42t39.5 -138v-326h-60v85h-2q-21 -45 -60 -68t-88 -23zM175 52q62 0 101.5 43t39.5 125v30h-46
q-48 0 -81.5 -9.5t-54 -25.5t-29.5 -37t-9 -43q0 -40 21 -61.5t58 -21.5z" />
    <glyph glyph-name="afii10066" unicode="&#x431;" horiz-adv-x="470" 
d="M240 -6q-43 0 -78 16t-60 56.5t-38.5 109.5t-13.5 174q0 82 9 140t27 98t44 65.5t60 42.5q27 14 52 20t50 10.5t51.5 10t56.5 19.5v-62q-26 -11 -49.5 -16t-46 -8.5t-44.5 -8.5t-45 -17q-50 -25 -74 -78t-31 -151h2q26 52 61 71.5t77 19.5q39 0 72 -14.5t57 -45.5
t37.5 -79.5t13.5 -116.5q0 -66 -14 -114.5t-39.5 -80t-60.5 -46.5t-76 -15zM240 52q27 0 49.5 10t38.5 33.5t25 61t9 93.5q0 55 -9 93t-25 61.5t-38.5 33.5t-49.5 10q-25 0 -47.5 -11t-39 -34.5t-26 -61t-9.5 -91.5t9.5 -91.5t26 -61t39 -34.5t47.5 -11z" />
    <glyph glyph-name="afii10067" unicode="&#x432;" horiz-adv-x="390" 
d="M60 500h120q83 0 121.5 -34t38.5 -90q0 -47 -25 -74.5t-55 -35.5v-2q38 -8 64 -38.5t26 -81.5q0 -71 -38.5 -107.5t-121.5 -36.5h-130v500zM272 366q0 36 -22.5 57t-69.5 21h-56v-156h56q47 0 69.5 21t22.5 57zM282 144q0 42 -23.5 65t-68.5 23h-66v-176h66q45 0 68.5 23
t23.5 65z" />
    <glyph glyph-name="afii10068" unicode="&#x433;" horiz-adv-x="330" 
d="M60 500h250v-56h-186v-444h-64v500z" />
    <glyph glyph-name="afii10069" unicode="&#x434;" horiz-adv-x="460" 
d="M10 56h40q18 31 29 65t17 75t8 91t2 114v99h284v-444h50v-196h-64v140h-302v-140h-64v196zM326 56v388h-158v-44q0 -64 -3 -115t-9 -93t-16 -75t-24 -61h210z" />
    <glyph glyph-name="afii10070" unicode="&#x435;" horiz-adv-x="440" 
d="M108 232q1 -52 10 -86.5t25.5 -55.5t39.5 -29.5t53 -8.5q32 0 55.5 5.5t40.5 12.5q19 8 34 18v-68q-14 -8 -33 -13q-17 -5 -41 -9t-55 -4q-44 0 -80 13t-62 43t-40.5 79.5t-14.5 122.5q0 69 15.5 117.5t41 79t57.5 44t66 13.5q54 0 89 -21t55.5 -56.5t28 -81.5t7.5 -95
v-20h-292zM220 448q-43 0 -74.5 -36t-36.5 -124h222q-2 47 -10.5 78t-22.5 49t-33.5 25.5t-44.5 7.5z" />
    <glyph glyph-name="afii10072" unicode="&#x436;" horiz-adv-x="570" 
d="M193 257l-163 243h80l132 -212h11v212h64v-212h10l135 212h78l-163 -237l183 -263h-80l-153 232h-10v-232h-64v232h-11l-154 -232h-78z" />
    <glyph glyph-name="afii10073" unicode="&#x437;" horiz-adv-x="355" 
d="M145 -6q-25 0 -46 5.5t-38 12.5q-19 8 -36 18v70q16 -13 34 -24q16 -9 38 -16.5t48 -7.5q51 0 76.5 24t25.5 68q0 42 -24.5 65t-77.5 23h-40v56h40q43 0 67.5 23t24.5 55q0 39 -21.5 60.5t-60.5 21.5q-26 0 -48 -7.5t-38 -15.5q-18 -11 -34 -23v68q17 10 36 18
q17 7 38 12.5t46 5.5q75 0 112.5 -35t37.5 -95q0 -44 -23.5 -71.5t-61.5 -38.5v-2q45 -11 70 -40.5t25 -79.5q0 -68 -43.5 -109t-126.5 -41z" />
    <glyph glyph-name="afii10074" unicode="&#x438;" horiz-adv-x="470" 
d="M60 500h64v-440h2l186 440h98v-500h-64v440h-2l-186 -440h-98v500z" />
    <glyph glyph-name="afii10075" unicode="&#x439;" horiz-adv-x="470" 
d="M60 500h64v-440h2l186 440h98v-500h-64v440h-2l-186 -440h-98v500zM235 595q-21 0 -42 5.5t-37.5 17.5t-27.5 31.5t-13 47.5l60 8q4 -35 19.5 -47.5t40.5 -12.5q26 0 41 12.5t19 47.5l60 -8q-2 -28 -13 -47.5t-27.5 -31.5t-37.5 -17.5t-42 -5.5z" />
    <glyph glyph-name="afii10076" unicode="&#x43a;" horiz-adv-x="410" 
d="M60 500h64v-212h10l176 212h80l-206 -237l216 -263h-84l-182 232h-10v-232h-64v500z" />
    <glyph glyph-name="afii10077" unicode="&#x43b;" horiz-adv-x="420" 
d="M35 -6q-16 0 -25 3q-5 1 -10 3v58q4 -2 9 -3q9 -3 21 -3q13 0 23.5 7.5t18 37.5t11 89.5t3.5 163.5v150h274v-500h-64v444h-148v-94q0 -120 -6.5 -191t-20.5 -107.5t-35.5 -47t-50.5 -10.5z" />
    <glyph glyph-name="afii10078" unicode="&#x43c;" horiz-adv-x="560" 
d="M60 500h107l114 -285l114 285h105v-500h-64v440h-2l-122 -300h-64l-122 300h-2v-440h-64v500z" />
    <glyph glyph-name="afii10079" unicode="&#x43d;" horiz-adv-x="460" 
d="M60 500h64v-212h212v212h64v-500h-64v232h-212v-232h-64v500z" />
    <glyph glyph-name="afii10080" unicode="&#x43e;" horiz-adv-x="460" 
d="M230 52q26 0 48.5 10.5t39 34t25.5 61t9 92.5t-9 92.5t-25.5 61t-39 34t-48.5 10.5t-48.5 -9t-39 -31.5t-25.5 -61t-9 -96.5q0 -55 9 -92.5t25.5 -61t39 -34t48.5 -10.5zM230 -6q-43 0 -78 14.5t-60 45.5t-38.5 79.5t-13.5 116.5q0 66 14 114t39.5 79.5t60.5 47t76 15.5
q43 0 78 -14.5t60 -45.5t38.5 -79.5t13.5 -116.5q0 -66 -14 -114.5t-39.5 -80t-60.5 -46.5t-76 -15z" />
    <glyph glyph-name="afii10081" unicode="&#x43f;" horiz-adv-x="460" 
d="M60 500h340v-500h-64v444h-212v-444h-64v500z" />
    <glyph glyph-name="afii10082" unicode="&#x440;" horiz-adv-x="480" 
d="M60 500h60v-85h2q26 49 65 70t73 21q39 0 72 -14.5t57 -46t37.5 -80t13.5 -115.5q0 -66 -14 -114.5t-38.5 -80t-57.5 -46.5t-70 -15q-42 0 -75 19.5t-59 61.5h-2v-285h-64v710zM250 52q27 0 49.5 10t38.5 33.5t25 61t9 93.5q0 55 -9 93t-25 61.5t-38.5 33.5t-49.5 10
q-25 0 -47.5 -11.5t-40 -35.5t-28 -61.5t-10.5 -89.5t10.5 -89.5t28 -61.5t40 -35.5t47.5 -11.5z" />
    <glyph glyph-name="afii10083" unicode="&#x441;" horiz-adv-x="385" 
d="M260 -6q-102 0 -161 63.5t-59 192.5q0 62 16 110t45 80.5t69.5 49t89.5 16.5q24 0 42.5 -3.5t31.5 -7.5q15 -4 26 -10v-66q-11 8 -26 14q-13 5 -31.5 10t-42.5 5q-33 0 -60.5 -11t-48 -34.5t-32 -61t-11.5 -91.5q0 -104 41.5 -151t110.5 -47q23 0 40.5 3.5t31.5 8.5
q15 5 28 12v-66q-13 -4 -28 -8q-14 -3 -31.5 -5.5t-40.5 -2.5z" />
    <glyph glyph-name="afii10084" unicode="&#x442;" horiz-adv-x="370" 
d="M153 444h-133v56h330v-56h-133v-444h-64v444z" />
    <glyph glyph-name="afii10085" unicode="&#x443;" horiz-adv-x="400" 
d="M80 -216q-23 0 -36 3q-8 2 -14 4v58q6 -2 14 -4q13 -3 36 -3q13 0 23.5 4t19.5 14.5t17 29.5t17 48l13 44l-160 518h68l124 -420h2l120 420h66l-175 -580q-23 -75 -56.5 -105.5t-78.5 -30.5z" />
    <glyph glyph-name="afii10086" unicode="&#x444;" horiz-adv-x="620" 
d="M108 250q0 -56 9 -94.5t26 -62t41.5 -33.5t55.5 -10h12t12 1q6 0 12 1v396q-6 0 -12 1q-5 0 -12 0.5t-12 0.5q-31 0 -55.5 -10t-41.5 -33.5t-26 -62t-9 -94.5zM278 -4q-6 -1 -13 -1q-6 -1 -13 -1h-12q-90 0 -145 62t-55 194t55 194t145 62q5 0 12 -0.5t13 -0.5
q7 -1 13 -1v246h64v-246q6 0 13 1q6 0 12.5 0.5t12.5 0.5q90 0 145 -62t55 -194t-55 -194t-145 -62h-12.5t-12.5 1q-7 0 -13 1v-206h-64v206zM512 250q0 56 -9 94.5t-26 62t-41.5 33.5t-55.5 10q-6 0 -12.5 -0.5t-11.5 -0.5q-6 -1 -12 -1v-396q6 -1 12 -1q5 -1 11.5 -1h12.5
q31 0 55.5 10t41.5 33.5t26 62t9 94.5z" />
    <glyph glyph-name="afii10087" unicode="&#x445;" horiz-adv-x="380" 
d="M189 202l-113 -202h-66l147 258l-137 242h68l102 -184l104 184h66l-137 -240l147 -260h-68z" />
    <glyph glyph-name="afii10088" unicode="&#x446;" horiz-adv-x="470" 
d="M386 0h-326v500h64v-444h212v444h64v-444h50v-196h-64v140z" />
    <glyph glyph-name="afii10089" unicode="&#x447;" horiz-adv-x="400" 
d="M276 202q-13 -3 -29 -6q-14 -2 -31 -3.5t-36 -1.5q-75 0 -112.5 38.5t-37.5 120.5v150h64v-150q0 -57 20 -79t66 -22q19 0 36 1.5t31 3.5q16 3 29 6v240h64v-500h-64v202z" />
    <glyph glyph-name="afii10090" unicode="&#x448;" horiz-adv-x="620" 
d="M60 500h64v-444h154v444h64v-444h154v444h64v-500h-500v500z" />
    <glyph glyph-name="afii10091" unicode="&#x449;" horiz-adv-x="630" 
d="M546 0h-486v500h64v-444h154v444h64v-444h154v444h64v-444h50v-196h-64v140z" />
    <glyph glyph-name="afii10092" unicode="&#x44a;" horiz-adv-x="430" 
d="M0 500h164v-190h66q94 0 137 -40t43 -115t-43 -115t-137 -40h-130v444h-100v56zM342 155q0 51 -26 75t-86 24h-66v-198h66q60 0 86 24t26 75z" />
    <glyph glyph-name="afii10093" unicode="&#x44b;" horiz-adv-x="570" 
d="M60 500h64v-190h66q94 0 137 -40t43 -115t-43 -115t-137 -40h-130v500zM302 155q0 51 -26 75t-86 24h-66v-198h66q60 0 86 24t26 75zM446 500h64v-500h-64v500z" />
    <glyph glyph-name="afii10094" unicode="&#x44c;" horiz-adv-x="390" 
d="M60 500h64v-190h66q94 0 137 -40t43 -115t-43 -115t-137 -40h-130v500zM302 155q0 51 -26 75t-86 24h-66v-198h66q60 0 86 24t26 75z" />
    <glyph glyph-name="afii10095" unicode="&#x44d;" horiz-adv-x="385" 
d="M125 -6q-23 0 -41.5 2.5t-31.5 5.5q-16 4 -27 8v66q11 -7 27 -12q13 -5 31.5 -8.5t41.5 -3.5q30 0 56.5 9.5t46.5 31t32.5 55.5t15.5 84h-191v56h191q-6 81 -46.5 120.5t-104.5 39.5q-25 0 -43 -5t-31 -10q-15 -6 -26 -14v66q11 6 26 10q13 4 31 7.5t43 3.5
q102 0 161 -62.5t59 -183.5q0 -66 -16 -116t-45 -83t-69.5 -50t-89.5 -17z" />
    <glyph glyph-name="afii10096" unicode="&#x44e;" horiz-adv-x="610" 
d="M60 500h64v-212h77q8 112 59 165t125 53q41 0 75 -14.5t58.5 -45.5t38 -79.5t13.5 -116.5q0 -66 -14 -114.5t-39 -80t-59 -46.5t-73 -15q-40 0 -73 13.5t-57.5 42t-38.5 74t-16 108.5h-76v-232h-64v500zM385 52q25 0 46.5 10t37 33.5t24.5 61t9 93.5q0 55 -9 93
t-24.5 61.5t-37 33.5t-46.5 10t-46.5 -8.5t-37 -31t-24.5 -61t-9 -97.5q0 -56 9 -93.5t24.5 -61t37 -33.5t46.5 -10z" />
    <glyph glyph-name="afii10097" unicode="&#x44f;" horiz-adv-x="420" 
d="M137 204q-51 16 -74 52t-23 91q0 74 43 113.5t137 39.5h140v-500h-64v194h-76h-18l-98 -194h-74zM108 347q0 -49 26 -73t86 -24h76v194h-76q-60 0 -86 -24t-26 -73z" />
    <glyph glyph-name="afii10071" unicode="&#x451;" horiz-adv-x="440" 
d="M108 232q1 -52 10 -86.5t25.5 -55.5t39.5 -29.5t53 -8.5q32 0 55.5 5.5t40.5 12.5q19 8 34 18v-68q-14 -8 -33 -13q-17 -5 -41 -9t-55 -4q-44 0 -80 13t-62 43t-40.5 79.5t-14.5 122.5q0 69 15.5 117.5t41 79t57.5 44t66 13.5q54 0 89 -21t55.5 -56.5t28 -81.5t7.5 -95
v-20h-292zM220 448q-43 0 -74.5 -36t-36.5 -124h222q-2 47 -10.5 78t-22.5 49t-33.5 25.5t-44.5 7.5zM100 690h80v-80h-80v80zM260 690h80v-80h-80v80z" />
    <glyph glyph-name="afii10099" unicode="&#x452;" horiz-adv-x="475" 
d="M326 -216q-23 0 -38 3q-9 1 -16 3v58q6 -2 13 -3q12 -3 31 -3q17 0 28.5 16t11.5 62v396q0 73 -25 102.5t-71 29.5q-21 0 -42 -11t-37.5 -30.5t-26.5 -48t-10 -62.5v-296h-64v592h-90v56h90v102h64v-102h156v-56h-156v-172h2q15 34 48 60t86 26q64 0 102 -44.5t38 -145.5
v-396q0 -41 -5.5 -67t-17 -41.5t-29 -21.5t-42.5 -6z" />
    <glyph glyph-name="afii10100" unicode="&#x453;" horiz-adv-x="330" 
d="M60 500h250v-56h-186v-444h-64v500zM233 725h84l-104 -150h-56z" />
    <glyph glyph-name="afii10101" unicode="&#x454;" horiz-adv-x="385" 
d="M260 -6q-101 0 -160.5 65t-59.5 201q0 58 16 104t45 77.5t69.5 48t89.5 16.5q24 0 42.5 -3.5t31.5 -7.5q15 -4 26 -10v-66q-11 8 -26 14q-13 5 -31.5 10t-42.5 5q-61 0 -103 -38t-48 -122h191v-56h-191q5 -96 45.5 -138t105.5 -42q23 0 40.5 3.5t31.5 8.5q15 5 28 12v-66
q-13 -4 -28 -8q-14 -3 -31.5 -5.5t-40.5 -2.5z" />
    <glyph glyph-name="afii10102" unicode="&#x455;" horiz-adv-x="340" 
d="M150 -6q-25 0 -46.5 4t-38.5 9q-19 5 -35 13v68q16 -10 35 -18q17 -7 38.5 -12.5t46.5 -5.5q47 0 69.5 21.5t22.5 61.5q0 13 -4 24t-14 22.5t-28 23.5t-45 28q-36 21 -59.5 38t-37 33.5t-19 33.5t-5.5 38q0 57 39 93.5t111 36.5q24 0 44 -4t35 -9q17 -6 31 -13v-68
q-14 10 -31 18q-15 7 -35 12.5t-44 5.5q-43 0 -62.5 -18.5t-19.5 -53.5q0 -11 4 -21.5t14.5 -21t28.5 -23t45 -27.5q36 -20 59 -38t36.5 -35.5t19 -35.5t5.5 -39q0 -65 -40.5 -103t-119.5 -38z" />
    <glyph glyph-name="afii10103" unicode="&#x456;" horiz-adv-x="204" 
d="M70 500h64v-500h-64v500zM57 695h90v-90h-90v90z" />
    <glyph glyph-name="afii10104" unicode="&#x457;" horiz-adv-x="204" 
d="M70 500h64v-500h-64v500zM-17 690h80v-80h-80v80zM143 690h80v-80h-80v80z" />
    <glyph glyph-name="afii10105" unicode="&#x458;" horiz-adv-x="204" 
d="M40 -216q-23 0 -38 3q-9 1 -16 3v58q6 -2 13 -3q12 -3 31 -3q17 0 28.5 16t11.5 62v580h64v-580q0 -41 -5.5 -67t-17 -41.5t-29 -21.5t-42.5 -6zM57 695h90v-90h-90v90z" />
    <glyph glyph-name="afii10106" unicode="&#x459;" horiz-adv-x="600" 
d="M35 -6q-16 0 -25 3q-5 1 -10 3v58q4 -2 9 -3q9 -3 21 -3q13 0 23.5 7.5t18 37.5t11 89.5t3.5 163.5v150h268v-190h46q94 0 137 -40t43 -115t-40 -115t-134 -40h-116v444h-140v-94q0 -120 -6.5 -191t-21 -107.5t-36 -47t-51.5 -10.5zM512 155q0 51 -26 75t-86 24h-46v-198
h46q60 0 86 24t26 75z" />
    <glyph glyph-name="afii10107" unicode="&#x45a;" horiz-adv-x="656" 
d="M60 500h64v-202h202v202h64v-202h66q94 0 137 -39t43 -110t-43 -110t-137 -39h-130v242h-202v-242h-64v500zM568 149q0 46 -26 69.5t-86 23.5h-66v-186h66q60 0 86 23.5t26 69.5z" />
    <glyph glyph-name="afii10108" unicode="&#x45b;" horiz-adv-x="475" 
d="M80 594h-90v52h90v104h64v-104h156v-52h-156v-174h2q15 34 48 60t86 26q64 0 102 -44.5t38 -145.5v-316h-64v316q0 73 -25 102.5t-71 29.5q-21 0 -42 -11t-37.5 -30.5t-26.5 -48t-10 -62.5v-296h-64v594z" />
    <glyph glyph-name="afii10109" unicode="&#x45c;" horiz-adv-x="410" 
d="M60 500h64v-212h10l176 212h80l-206 -237l216 -263h-84l-182 232h-10v-232h-64v500zM265 725h84l-104 -150h-56z" />
    <glyph glyph-name="afii10110" unicode="&#x45e;" horiz-adv-x="400" 
d="M80 -216q-23 0 -36 3q-8 2 -14 4v58q6 -2 14 -4q13 -3 36 -3q13 0 23.5 4t19.5 14.5t17 29.5t17 48l13 44l-160 518h68l124 -420h2l120 420h66l-175 -580q-23 -75 -56.5 -105.5t-78.5 -30.5zM201 595q-21 0 -42 5.5t-37.5 17.5t-27.5 31.5t-13 47.5l60 8
q4 -35 19.5 -47.5t40.5 -12.5q26 0 41 12.5t19 47.5l60 -8q-2 -28 -13 -47.5t-27.5 -31.5t-37.5 -17.5t-42 -5.5z" />
    <glyph glyph-name="afii10193" unicode="&#x45f;" horiz-adv-x="460" 
d="M198 0h-138v500h64v-444h212v444h64v-500h-138v-140h-64v140z" />
    <glyph glyph-name="afii10146" unicode="&#x462;" horiz-adv-x="490" 
d="M100 523h-100v54h100v123h66v-123h154v-54h-154v-103h74q113 0 166.5 -54t53.5 -156t-55.5 -156t-164.5 -54h-140v523zM390 210q0 77 -39 114.5t-111 37.5h-74v-304h74q150 0 150 152z" />
    <glyph glyph-name="afii10194" unicode="&#x463;" horiz-adv-x="430" 
d="M0 500h100v200h64v-200h146v-52h-146v-138h66q94 0 137 -40t43 -115t-43 -115t-137 -40h-130v448h-100v52zM342 155q0 51 -26 75t-86 24h-66v-198h66q60 0 86 24t26 75z" />
    <glyph glyph-name="afii10147" unicode="&#x472;" horiz-adv-x="600" 
d="M300 -6q-53 0 -98.5 21t-79 64.5t-53 111t-19.5 159.5t21 159.5t55.5 111t79.5 64.5t94 21q52 0 98 -21t79.5 -64.5t53 -111t19.5 -159.5t-19.5 -159.5t-53 -111t-79.5 -64.5t-98 -21zM300 646q-35 0 -66.5 -14.5t-56 -47t-39.5 -83t-18 -122.5h359q-3 72 -18 122.5
t-39 83t-55.5 47t-66.5 14.5zM300 54q35 0 66.5 14.5t55.5 46.5t39 83t18 123h-359q3 -72 18 -123t39.5 -83t56 -46.5t66.5 -14.5z" />
    <glyph glyph-name="afii10195" unicode="&#x473;" horiz-adv-x="460" 
d="M230 -6q-43 0 -78 14.5t-60 45.5t-38.5 79.5t-13.5 116.5q0 66 14 114t39.5 79.5t60.5 47t76 15.5q43 0 78 -14.5t60 -45.5t38.5 -79.5t13.5 -116.5q0 -66 -14 -114.5t-39.5 -80t-60.5 -46.5t-76 -15zM230 448q-25 0 -46 -8t-37.5 -27.5t-26.5 -52t-12 -82.5h243
q-3 46 -13 78.5t-26 53t-37 29.5t-45 9zM230 52q24 0 45 9t37 29t26 52.5t13 79.5h-242q5 -94 38 -132t83 -38z" />
    <glyph glyph-name="afii10148" unicode="&#x474;" horiz-adv-x="530" 
d="M10 700h72l178 -610h2l141 517q16 58 42.5 78.5t64.5 20.5q8 0 14.5 -0.5t12.5 -1.5t13 -2v-60q-5 1 -9 2q-10 2 -21 2q-19 0 -31 -10t-23 -46l-170 -590h-72z" />
    <glyph glyph-name="afii10196" unicode="&#x475;" horiz-adv-x="410" 
d="M10 500h66l124 -420h2l91 336q14 52 39 71t63 19q8 0 14 -0.5t11 -1.5l10 -2v-58q-3 1 -7 2q-8 2 -18 2q-19 0 -32.5 -10t-22.5 -42l-114 -396h-72z" />
    <glyph glyph-name="afii10050" unicode="&#x490;" horiz-adv-x="400" 
d="M80 700h244v100h56v-158h-234v-642h-66v700z" />
    <glyph glyph-name="afii10098" unicode="&#x491;" horiz-adv-x="330" 
d="M60 500h196v100h54v-156h-186v-444h-64v500z" />
    <glyph glyph-name="uni0492" unicode="&#x492;" horiz-adv-x="400" 
d="M80 323h-80v54h80v323h300v-58h-234v-265h144v-54h-144v-323h-66v323z" />
    <glyph glyph-name="uni0493" unicode="&#x493;" horiz-adv-x="330" 
d="M0 278h60v222h250v-56h-186v-166h106v-52h-106v-226h-64v226h-60v52z" />
    <glyph glyph-name="uni0494" unicode="&#x494;" horiz-adv-x="510" 
d="M80 700h300v-58h-234v-253h79q113 0 179 -69t66 -201q0 -60 -18 -110.5t-51 -87t-79 -57t-102 -20.5v60q42 0 76 15.5t58 43.5t36.5 67.5t12.5 87.5q0 111 -46.5 162t-131.5 51h-79v-331h-66v700z" />
    <glyph glyph-name="uni0495" unicode="&#x495;" horiz-adv-x="410" 
d="M160 -88q75 0 115 40.5t40 119.5t-40 119.5t-115 40.5h-36v-232h-64v500h250v-56h-186v-156h36q106 0 163 -56.5t57 -158.5q0 -105 -57 -162t-163 -57v58z" />
    <glyph glyph-name="uni0496" unicode="&#x496;" horiz-adv-x="670" 
d="M604 0h-26l-200 331h-10v-331h-66v331h-10l-202 -331h-80l227 358l-207 342h82l180 -311h10v311h66v-311h10l182 311h80l-207 -337l191 -305h46v-208h-66v150z" />
    <glyph glyph-name="uni0497" unicode="&#x497;" horiz-adv-x="570" 
d="M506 0h-26l-153 232h-10v-232h-64v232h-11l-154 -232h-78l183 257l-163 243h80l132 -212h11v212h64v-212h10l135 212h78l-163 -237l144 -207h49v-196h-64v140z" />
    <glyph glyph-name="uni0498" unicode="&#x498;" horiz-adv-x="445" 
d="M182 -6q-35 0 -63 5.5t-48 13.5q-24 8 -41 19v72q18 -14 41 -25q20 -10 47.5 -17.5t61.5 -7.5q72 0 111 37.5t39 103.5q0 69 -38.5 105t-121.5 36h-40v58h40q40 0 68.5 10.5t46.5 29t26.5 43.5t8.5 53q0 54 -31.5 85t-88.5 31q-38 0 -68 -8t-50 -17q-25 -11 -42 -25v72
q17 10 42 19q20 7 50 13t68 6q91 0 140.5 -48t49.5 -128q0 -57 -30 -100t-90 -59v-2q22 -6 45.5 -19t42 -34t30.5 -51t12 -70q0 -75 -39.5 -126t-112.5 -68v-151h-66v144z" />
    <glyph glyph-name="uni0499" unicode="&#x499;" horiz-adv-x="355" 
d="M128 -5q-22 2 -40.5 7.5t-32.5 11.5q-17 7 -30 16v70q16 -13 34 -24q16 -9 38 -16.5t48 -7.5q51 0 76.5 24t25.5 68q0 42 -24.5 65t-77.5 23h-40v56h40q43 0 67.5 23t24.5 55q0 39 -21.5 60.5t-60.5 21.5q-26 0 -48 -7.5t-38 -15.5q-18 -11 -34 -23v68q17 10 36 18
q17 7 38 12.5t46 5.5q75 0 112.5 -35t37.5 -95q0 -44 -23.5 -71.5t-61.5 -38.5v-2q45 -11 70 -40.5t25 -79.5q0 -57 -31.5 -96t-91.5 -50v-138h-64v135z" />
    <glyph glyph-name="uni049A" unicode="&#x49a;" horiz-adv-x="510" 
d="M444 0h-30l-258 331h-10v-331h-66v700h66v-311h10l242 311h82l-270 -338l244 -304h56v-208h-66v150z" />
    <glyph glyph-name="uni049B" unicode="&#x49b;" horiz-adv-x="407" 
d="M343 0h-27l-182 232h-10v-232h-64v500h64v-212h10l176 212h80l-206 -237l170 -207h53v-196h-64v140z" />
    <glyph glyph-name="uni049C" unicode="&#x49c;" horiz-adv-x="540" 
d="M80 700h66v-311h40v111h56v-111h30l162 311h76l-185 -336l205 -364h-80l-178 331h-30v-111h-56v111h-40v-331h-66v700z" />
    <glyph glyph-name="uni049D" unicode="&#x49d;" 
d="M154 232h-30v-232h-64v500h64v-212h30v92h52v-92h20l130 212h74l-154 -236l164 -264h-78l-136 232h-20v-92h-52v92z" />
    <glyph glyph-name="uni04A0" unicode="&#x4a0;" horiz-adv-x="610" 
d="M180 642h-160v58h226v-311h10l242 311h82l-270 -338l290 -362h-86l-258 331h-10v-331h-66v642z" />
    <glyph glyph-name="uni04A1" unicode="&#x4a1;" horiz-adv-x="490" 
d="M140 444h-120v56h184v-212h10l176 212h80l-206 -237l216 -263h-84l-182 232h-10v-232h-64v444z" />
    <glyph glyph-name="uni04A2" unicode="&#x4a2;" horiz-adv-x="580" 
d="M484 0h-60v336h-278v-336h-66v700h66v-306h278v306h66v-642h60v-208h-66v150z" />
    <glyph glyph-name="uni04A3" unicode="&#x4a3;" horiz-adv-x="470" 
d="M386 0h-50v232h-212v-232h-64v500h64v-212h212v212h64v-444h50v-196h-64v140z" />
    <glyph glyph-name="uni04A4" unicode="&#x4a4;" horiz-adv-x="740" 
d="M80 700h66v-306h278v306h296v-58h-230v-642h-66v336h-278v-336h-66v700z" />
    <glyph glyph-name="uni04A5" unicode="&#x4a5;" horiz-adv-x="600" 
d="M336 232h-212v-232h-64v500h64v-212h212v212h244v-56h-180v-444h-64v232z" />
    <glyph glyph-name="uni04AA" unicode="&#x4aa;" horiz-adv-x="510" 
d="M287 -1q-111 17 -174 102.5t-63 248.5q0 88 21.5 155t61 111.5t94.5 67t123 22.5q30 0 67 -6t63 -20v-70q-26 18 -63 27t-67 9q-51 0 -93 -18t-72.5 -54.5t-47.5 -92.5t-17 -131q0 -77 16 -133t46 -92t72.5 -53.5t95.5 -17.5q30 0 67 9t63 27v-70q-13 -7 -29 -11.5
t-33 -7.5t-33.5 -5t-31.5 -2v-144h-66v149z" />
    <glyph glyph-name="uni04AB" unicode="&#x4ab;" horiz-adv-x="385" 
d="M208 -1q-79 14 -123.5 76.5t-44.5 174.5q0 62 16 110t45 80.5t69.5 49t89.5 16.5q24 0 42.5 -3.5t31.5 -7.5q15 -4 26 -10v-66q-11 8 -26 14q-13 5 -31.5 10t-42.5 5q-33 0 -60.5 -11t-48 -34.5t-32 -61t-11.5 -91.5q0 -104 41.5 -151t110.5 -47q23 0 40.5 3.5t31.5 8.5
q15 5 28 12v-66q-11 -3 -24 -7q-11 -3 -27.5 -5.5t-36.5 -3.5v-134h-64v139z" />
    <glyph glyph-name="uni04AE" unicode="&#x4ae;" horiz-adv-x="480" 
d="M207 300l-197 400h72l159 -335l159 335h70l-197 -400v-300h-66v300z" />
    <glyph glyph-name="uni04AF" unicode="&#x4af;" horiz-adv-x="400" 
d="M168 -13l-158 513h66l124 -430h2l124 430h64l-158 -513v-197h-64v197z" />
    <glyph glyph-name="uni04B0" unicode="&#x4b0;" horiz-adv-x="480" 
d="M207 221h-107v58h107v21l-197 400h72l159 -330l159 330h70l-197 -400v-21h107v-58h-107v-221h-66v221z" />
    <glyph glyph-name="uni04B1" unicode="&#x4b1;" horiz-adv-x="400" 
d="M168 -43h-98v56h90l-150 487h66l124 -430h2l124 430h64l-150 -487h90v-56h-98v-167h-64v167z" />
    <glyph glyph-name="uni04B2" unicode="&#x4b2;" horiz-adv-x="520" 
d="M454 0h-26l-174 306l-174 -306h-70l210 366l-190 334h72l154 -270l154 270h70l-190 -331l177 -311h53v-208h-66v150z" />
    <glyph glyph-name="uni04B3" unicode="&#x4b3;" horiz-adv-x="390" 
d="M189 202l-113 -202h-66l147 258l-137 242h68l102 -184l104 184h66l-137 -240l115 -204h52v-196h-64v140h-24z" />
    <glyph glyph-name="uni04B6" unicode="&#x4b6;" horiz-adv-x="500" 
d="M414 0h-60v262q-17 -3 -36 -6q-17 -2 -39.5 -4t-48.5 -2q-101 0 -145.5 44.5t-44.5 145.5v260h66v-260q0 -71 28.5 -100.5t95.5 -29.5q26 0 48.5 2t39.5 5q19 3 36 7v376h66v-642h60v-208h-66v150z" />
    <glyph glyph-name="uni04B7" unicode="&#x4b7;" horiz-adv-x="400" 
d="M326 0h-50v202q-13 -3 -29 -6q-14 -2 -31 -3.5t-36 -1.5q-75 0 -112.5 38.5t-37.5 120.5v150h64v-150q0 -57 20 -79t66 -22q19 0 36 1.5t31 3.5q16 3 29 6v240h64v-444h50v-196h-64v140z" />
    <glyph glyph-name="uni04B8" unicode="&#x4b8;" horiz-adv-x="500" 
d="M354 262q-12 -2 -26 -5q-12 -2 -28.5 -4t-36.5 -3v-99h-56v99q-89 5 -128 49.5t-39 140.5v260h66v-260q0 -66 23.5 -95t77.5 -34v120h56v-120q20 1 36.5 3.5t28.5 4.5q14 3 26 5v376h66v-700h-66v262z" />
    <glyph glyph-name="uni04B9" unicode="&#x4b9;" horiz-adv-x="400" 
d="M276 202q-8 -2 -18 -4q-8 -2 -19 -3.5t-23 -2.5v-88h-52v87q-67 5 -100.5 43t-33.5 116v150h64v-150q0 -52 16 -74.5t54 -26.5v95h52v-94q13 1 24 2.5t19 3.5q10 2 17 4v240h64v-500h-64v202z" />
    <glyph glyph-name="uni04BA" unicode="&#x4ba;" horiz-adv-x="518" 
d="M80 700h66v-294q17 7 38 12q18 5 43.5 8.5t55.5 3.5q39 0 71.5 -12.5t55.5 -35t35.5 -54t12.5 -68.5v-260h-66v260q0 53 -28.5 81.5t-80.5 28.5q-30 0 -55.5 -5t-43.5 -10q-21 -7 -38 -15v-340h-66v700z" />
    <glyph glyph-name="uni04BB" unicode="&#x4bb;" horiz-adv-x="455" 
d="M60 750h64v-330h2q15 34 48 60t86 26q64 0 102 -44.5t38 -145.5v-316h-64v316q0 73 -25 102.5t-71 29.5q-21 0 -42 -11t-37.5 -30.5t-26.5 -48t-10 -62.5v-296h-64v750z" />
    <glyph glyph-name="uni04C0" unicode="&#x4c0;" horiz-adv-x="246" 
d="M90 700h66v-700h-66v700z" />
    <glyph glyph-name="uni04C3" unicode="&#x4c3;" horiz-adv-x="510" 
d="M220 -96q42 0 76 15.5t58 43.5t36.5 67.5t12.5 87.5q0 111 -46.5 162t-131.5 51h-79v-331h-66v700h66v-311h10l242 311h82l-249 -311q55 -1 99 -19t75 -52.5t48 -84.5t17 -114q0 -60 -18 -110.5t-51 -87t-79 -57t-102 -20.5v60z" />
    <glyph glyph-name="uni04C4" unicode="&#x4c4;" horiz-adv-x="410" 
d="M160 -88q75 0 115 40.5t40 119.5t-40 119.5t-115 40.5h-36v-232h-64v500h64v-212h10l176 212h80l-187 -215q85 -11 131 -66t46 -146q0 -105 -57 -162t-163 -57v58z" />
    <glyph glyph-name="uni04C7" unicode="&#x4c7;" horiz-adv-x="570" 
d="M355 -216q-23 0 -39.5 2.5t-35.5 8.5v62q21 -8 36 -10.5t39 -2.5q29 0 49 26.5t20 89.5v376h-278v-336h-66v700h66v-306h278v306h66v-740q0 -95 -35.5 -135.5t-99.5 -40.5z" />
    <glyph glyph-name="uni04C8" unicode="&#x4c8;" horiz-adv-x="460" 
d="M306 -216q-23 0 -38 3q-9 1 -16 3v58q6 -2 13 -3q12 -3 31 -3q17 0 28.5 16t11.5 62v312h-212v-232h-64v500h64v-212h212v212h64v-580q0 -41 -5.5 -67t-17 -41.5t-29 -21.5t-42.5 -6z" />
    <glyph glyph-name="uni04CF" unicode="&#x4cf;" horiz-adv-x="204" 
d="M70 700h64v-700h-64v700z" />
    <glyph glyph-name="uni04D0" unicode="&#x4d0;" horiz-adv-x="540" 
d="M377 254l-107 356h-2l-107 -356h216zM234 700h72l224 -700h-72l-60 188h-258l-60 -188h-70zM270 760q-25 0 -48 6t-40.5 19.5t-28.5 35t-13 51.5l58 8q4 -39 22 -54.5t50 -15.5q33 0 50.5 15.5t21.5 54.5l58 -8q-2 -30 -13 -51.5t-28.5 -35t-40.5 -19.5t-48 -6z" />
    <glyph glyph-name="uni04D1" unicode="&#x4d1;" horiz-adv-x="435" 
d="M170 -6q-64 0 -102 38t-38 103q0 34 13.5 65t42.5 54.5t74.5 37.5t109.5 14h46v20q0 71 -24 99t-72 28q-38 0 -70.5 -9t-69.5 -28v60q32 14 67 22t73 8q81 0 120.5 -42t39.5 -138v-326h-60v85h-2q-21 -45 -60 -68t-88 -23zM175 52q62 0 101.5 43t39.5 125v30h-46
q-48 0 -81.5 -9.5t-54 -25.5t-29.5 -37t-9 -43q0 -40 21 -61.5t58 -21.5zM220 595q-21 0 -42 5.5t-37.5 17.5t-27.5 31.5t-13 47.5l60 8q4 -35 19.5 -47.5t40.5 -12.5q26 0 41 12.5t19 47.5l60 -8q-2 -28 -13 -47.5t-27.5 -31.5t-37.5 -17.5t-42 -5.5z" />
    <glyph glyph-name="uni04D2" unicode="&#x4d2;" horiz-adv-x="540" 
d="M377 254l-107 356h-2l-107 -356h216zM234 700h72l224 -700h-72l-60 188h-258l-60 -188h-70zM145 860h80v-80h-80v80zM315 860h80v-80h-80v80z" />
    <glyph glyph-name="uni04D3" unicode="&#x4d3;" horiz-adv-x="435" 
d="M170 -6q-64 0 -102 38t-38 103q0 34 13.5 65t42.5 54.5t74.5 37.5t109.5 14h46v20q0 71 -24 99t-72 28q-38 0 -70.5 -9t-69.5 -28v60q32 14 67 22t73 8q81 0 120.5 -42t39.5 -138v-326h-60v85h-2q-21 -45 -60 -68t-88 -23zM175 52q62 0 101.5 43t39.5 125v30h-46
q-48 0 -81.5 -9.5t-54 -25.5t-29.5 -37t-9 -43q0 -40 21 -61.5t58 -21.5zM100 690h80v-80h-80v80zM260 690h80v-80h-80v80z" />
    <glyph glyph-name="uni04D4" unicode="&#x4d4;" horiz-adv-x="710" 
d="M360 188h-197l-83 -188h-70l308 700h352v-58h-244v-248h224v-58h-224v-278h254v-58h-320v188zM192 254h168v388h-2z" />
    <glyph glyph-name="uni04D5" unicode="&#x4d5;" horiz-adv-x="712" 
d="M170 -6q-64 0 -102 38t-38 103q0 31 13 59.5t41.5 50.5t74 35t111.5 13h46v33q0 71 -24 99t-72 28q-38 0 -70.5 -9t-69.5 -28v60q32 14 67 22t73 8q53 0 88 -19t53 -65q26 47 60.5 65.5t70.5 18.5q54 0 89 -21t55.5 -56.5t28 -81.5t7.5 -95v-15h-292q1 -54 10 -89.5
t25 -56.5t39.5 -30t53.5 -9q32 0 55.5 5.5t40.5 12.5q19 8 34 18v-68q-14 -8 -33 -13q-17 -5 -41 -9t-55 -4q-60 0 -103.5 26.5t-63.5 90.5q-18 -50 -62.5 -83.5t-109.5 -33.5zM175 52q62 0 101.5 43t39.5 125v17h-46q-50 0 -83.5 -8.5t-53.5 -23t-28.5 -33t-8.5 -37.5
q0 -40 21 -61.5t58 -21.5zM492 448q-21 0 -39.5 -8t-33.5 -26.5t-25 -48t-13 -72.5h222q-3 46 -11.5 76t-22.5 47.5t-33.5 24.5t-43.5 7z" />
    <glyph glyph-name="uni04D6" unicode="&#x4d6;" horiz-adv-x="430" 
d="M80 700h310v-58h-244v-253h224v-58h-224v-273h254v-58h-320v700zM235 760q-25 0 -48 6t-40.5 19.5t-28.5 35t-13 51.5l58 8q4 -39 22 -54.5t50 -15.5q33 0 50.5 15.5t21.5 54.5l58 -8q-2 -30 -13 -51.5t-28.5 -35t-40.5 -19.5t-48 -6z" />
    <glyph glyph-name="uni04D7" unicode="&#x4d7;" horiz-adv-x="440" 
d="M108 232q1 -52 10 -86.5t25.5 -55.5t39.5 -29.5t53 -8.5q32 0 55.5 5.5t40.5 12.5q19 8 34 18v-68q-14 -8 -33 -13q-17 -5 -41 -9t-55 -4q-44 0 -80 13t-62 43t-40.5 79.5t-14.5 122.5q0 69 15.5 117.5t41 79t57.5 44t66 13.5q54 0 89 -21t55.5 -56.5t28 -81.5t7.5 -95
v-20h-292zM220 448q-43 0 -74.5 -36t-36.5 -124h222q-2 47 -10.5 78t-22.5 49t-33.5 25.5t-44.5 7.5zM220 595q-21 0 -42 5.5t-37.5 17.5t-27.5 31.5t-13 47.5l60 8q4 -35 19.5 -47.5t40.5 -12.5q26 0 41 12.5t19 47.5l60 -8q-2 -28 -13 -47.5t-27.5 -31.5t-37.5 -17.5
t-42 -5.5z" />
    <glyph glyph-name="uni04D8" unicode="&#x4d8;" horiz-adv-x="600" 
d="M300 -6q-53 0 -99 21t-79.5 66t-52.5 115t-19 169v49h428q-5 61 -21 105t-41.5 72t-59 41.5t-72.5 13.5t-72 -6t-57 -14q-28 -9 -51 -20v68q23 9 51 16q24 6 56.5 11t71.5 5q60 0 109 -20.5t84 -62.5t54.5 -106.5t19.5 -151.5q0 -99 -19 -169t-52.5 -115t-79.5 -66
t-99 -21zM300 54q36 0 68.5 16t57 52t39 93.5t15.5 140.5h-360q1 -83 15.5 -140.5t39 -93.5t57 -52t68.5 -16z" />
    <glyph glyph-name="afii10846" unicode="&#x4d9;" horiz-adv-x="440" 
d="M40 272h291q-2 51 -10.5 84.5t-24.5 54t-39 29t-53 8.5q-32 0 -56 -5t-41 -10q-19 -7 -33 -15v66q14 6 33 11q17 4 40.5 7.5t55.5 3.5q44 0 80 -13t62 -43t40.5 -78.5t14.5 -119.5t-15.5 -120t-41 -80t-57.5 -44.5t-66 -13.5q-56 0 -91.5 20.5t-55 55.5t-26.5 82t-7 100
v20zM220 52q21 0 40 8.5t33.5 28t24.5 50.5t13 77h-223q2 -49 10.5 -80.5t22.5 -50t34 -26t45 -7.5z" />
    <glyph glyph-name="uni04DA" unicode="&#x4da;" horiz-adv-x="600" 
d="M300 -6q-53 0 -99 21t-79.5 66t-52.5 115t-19 169v49h428q-5 61 -21 105t-41.5 72t-59 41.5t-72.5 13.5t-72 -6t-57 -14q-28 -9 -51 -20v68q23 9 51 16q24 6 56.5 11t71.5 5q60 0 109 -20.5t84 -62.5t54.5 -106.5t19.5 -151.5q0 -99 -19 -169t-52.5 -115t-79.5 -66
t-99 -21zM300 54q36 0 68.5 16t57 52t39 93.5t15.5 140.5h-360q1 -83 15.5 -140.5t39 -93.5t57 -52t68.5 -16zM175 860h80v-80h-80v80zM345 860h80v-80h-80v80z" />
    <glyph glyph-name="uni04DB" unicode="&#x4db;" horiz-adv-x="440" 
d="M40 272h291q-2 51 -10.5 84.5t-24.5 54t-39 29t-53 8.5q-32 0 -56 -5t-41 -10q-19 -7 -33 -15v66q14 6 33 11q17 4 40.5 7.5t55.5 3.5q44 0 80 -13t62 -43t40.5 -78.5t14.5 -119.5t-15.5 -120t-41 -80t-57.5 -44.5t-66 -13.5q-56 0 -91.5 20.5t-55 55.5t-26.5 82t-7 100
v20zM220 52q21 0 40 8.5t33.5 28t24.5 50.5t13 77h-223q2 -49 10.5 -80.5t22.5 -50t34 -26t45 -7.5zM100 690h80v-80h-80v80zM260 690h80v-80h-80v80z" />
    <glyph glyph-name="uni04DC" unicode="&#x4dc;" horiz-adv-x="670" 
d="M237 358l-207 342h82l180 -311h10v311h66v-311h10l182 311h80l-207 -337l227 -363h-82l-200 331h-10v-331h-66v331h-10l-202 -331h-80zM210 860h80v-80h-80v80zM380 860h80v-80h-80v80z" />
    <glyph glyph-name="uni04DD" unicode="&#x4dd;" horiz-adv-x="570" 
d="M193 257l-163 243h80l132 -212h11v212h64v-212h10l135 212h78l-163 -237l183 -263h-80l-153 232h-10v-232h-64v232h-11l-154 -232h-78zM165 690h80v-80h-80v80zM325 690h80v-80h-80v80z" />
    <glyph glyph-name="uni04DE" unicode="&#x4de;" horiz-adv-x="445" 
d="M180 -6q-34 0 -61.5 5.5t-47.5 13.5q-23 8 -41 19v72q18 -14 41 -25q20 -10 47.5 -17.5t61.5 -7.5q72 0 111 38t39 103q0 69 -38.5 105t-121.5 36h-40v58h40q40 0 68.5 10.5t46.5 29t26.5 43.5t8.5 53q0 54 -31.5 85t-88.5 31q-38 0 -68 -8t-50 -17q-25 -11 -42 -25v72
q17 10 42 19q20 7 50 13t68 6q91 0 140.5 -48t49.5 -128q0 -57 -30 -100t-90 -59v-2q22 -6 45.5 -17.5t42 -32t30.5 -51t12 -73.5q0 -91 -57 -146t-163 -55zM90 860h80v-80h-80v80zM260 860h80v-80h-80v80z" />
    <glyph glyph-name="uni04DF" unicode="&#x4df;" horiz-adv-x="355" 
d="M145 -6q-25 0 -46 5.5t-38 12.5q-19 8 -36 18v70q16 -13 34 -24q16 -9 38 -16.5t48 -7.5q51 0 76.5 24t25.5 68q0 42 -24.5 65t-77.5 23h-40v56h40q43 0 67.5 23t24.5 55q0 39 -21.5 60.5t-60.5 21.5q-26 0 -48 -7.5t-38 -15.5q-18 -11 -34 -23v68q17 10 36 18
q17 7 38 12.5t46 5.5q75 0 112.5 -35t37.5 -95q0 -44 -23.5 -71.5t-61.5 -38.5v-2q45 -11 70 -40.5t25 -79.5q0 -68 -43.5 -109t-126.5 -41zM40 690h80v-80h-80v80zM200 690h80v-80h-80v80z" />
    <glyph glyph-name="uni04E2" unicode="&#x4e2;" horiz-adv-x="590" 
d="M80 700h68v-630h2l256 630h104v-700h-68v630h-2l-256 -630h-104v700zM175 848h240v-56h-240v56z" />
    <glyph glyph-name="uni04E3" unicode="&#x4e3;" horiz-adv-x="470" 
d="M60 500h64v-440h2l186 440h98v-500h-64v440h-2l-186 -440h-98v500zM125 677h220v-54h-220v54z" />
    <glyph glyph-name="uni04E4" unicode="&#x4e4;" horiz-adv-x="590" 
d="M80 700h68v-630h2l256 630h104v-700h-68v630h-2l-256 -630h-104v700zM170 860h80v-80h-80v80zM340 860h80v-80h-80v80z" />
    <glyph glyph-name="uni04E5" unicode="&#x4e5;" horiz-adv-x="470" 
d="M60 500h64v-440h2l186 440h98v-500h-64v440h-2l-186 -440h-98v500zM115 690h80v-80h-80v80zM275 690h80v-80h-80v80z" />
    <glyph glyph-name="uni04E6" unicode="&#x4e6;" horiz-adv-x="600" 
d="M300 54q37 0 69.5 16t57 51.5t39 92t14.5 136.5t-14.5 136.5t-39 92t-57 51.5t-69.5 16t-69.5 -16t-57 -51.5t-39 -92t-14.5 -136.5t14.5 -136.5t39 -92t57 -51.5t69.5 -16zM300 -6q-53 0 -99 20.5t-79.5 64t-52.5 111t-19 160.5t20.5 160t55 110.5t79.5 64.5t95 21
q53 0 99 -21t79.5 -64.5t52.5 -110.5t19 -160t-19 -160.5t-52.5 -111t-79.5 -64t-99 -20.5zM175 860h80v-80h-80v80zM345 860h80v-80h-80v80z" />
    <glyph glyph-name="uni04E7" unicode="&#x4e7;" horiz-adv-x="460" 
d="M230 52q26 0 48.5 10.5t39 34t25.5 61t9 92.5t-9 92.5t-25.5 61t-39 34t-48.5 10.5t-48.5 -9t-39 -31.5t-25.5 -61t-9 -96.5q0 -55 9 -92.5t25.5 -61t39 -34t48.5 -10.5zM230 -6q-43 0 -78 14.5t-60 45.5t-38.5 79.5t-13.5 116.5q0 66 14 114t39.5 79.5t60.5 47t76 15.5
q43 0 78 -14.5t60 -45.5t38.5 -79.5t13.5 -116.5q0 -66 -14 -114.5t-39.5 -80t-60.5 -46.5t-76 -15zM110 690h80v-80h-80v80zM270 690h80v-80h-80v80z" />
    <glyph glyph-name="uni04E8" unicode="&#x4e8;" horiz-adv-x="600" 
d="M300 -6q-53 0 -98.5 21t-79 64.5t-53 111t-19.5 159.5t21 159.5t55.5 111t79.5 64.5t94 21q52 0 98 -21t79.5 -64.5t53 -111t19.5 -159.5t-19.5 -159.5t-53 -111t-79.5 -64.5t-98 -21zM300 646q-35 0 -66.5 -14.5t-56 -47t-39.5 -83t-18 -122.5h359q-3 72 -18 122.5
t-39 83t-55.5 47t-66.5 14.5zM300 54q35 0 66.5 14.5t55.5 46.5t39 83t18 123h-359q3 -72 18 -123t39.5 -83t56 -46.5t66.5 -14.5z" />
    <glyph glyph-name="uni04E9" unicode="&#x4e9;" horiz-adv-x="460" 
d="M230 -6q-43 0 -78 14.5t-60 45.5t-38.5 79.5t-13.5 116.5q0 66 14 114t39.5 79.5t60.5 47t76 15.5q43 0 78 -14.5t60 -45.5t38.5 -79.5t13.5 -116.5q0 -66 -14 -114.5t-39.5 -80t-60.5 -46.5t-76 -15zM230 448q-25 0 -46 -8t-37.5 -27.5t-26.5 -52t-12 -82.5h243
q-3 46 -13 78.5t-26 53t-37 29.5t-45 9zM230 52q24 0 45 9t37 29t26 52.5t13 79.5h-242q5 -94 38 -132t83 -38z" />
    <glyph glyph-name="uni04EA" unicode="&#x4ea;" horiz-adv-x="600" 
d="M300 -6q-53 0 -98.5 21t-79 64.5t-53 111t-19.5 159.5t21 159.5t55.5 111t79.5 64.5t94 21q52 0 98 -21t79.5 -64.5t53 -111t19.5 -159.5t-19.5 -159.5t-53 -111t-79.5 -64.5t-98 -21zM300 646q-35 0 -66.5 -14.5t-56 -47t-39.5 -83t-18 -122.5h359q-3 72 -18 122.5
t-39 83t-55.5 47t-66.5 14.5zM300 54q35 0 66.5 14.5t55.5 46.5t39 83t18 123h-359q3 -72 18 -123t39.5 -83t56 -46.5t66.5 -14.5zM175 860h80v-80h-80v80zM345 860h80v-80h-80v80z" />
    <glyph glyph-name="uni04EB" unicode="&#x4eb;" horiz-adv-x="460" 
d="M230 -6q-43 0 -78 14.5t-60 45.5t-38.5 79.5t-13.5 116.5q0 66 14 114t39.5 79.5t60.5 47t76 15.5q43 0 78 -14.5t60 -45.5t38.5 -79.5t13.5 -116.5q0 -66 -14 -114.5t-39.5 -80t-60.5 -46.5t-76 -15zM230 448q-25 0 -46 -8t-37.5 -27.5t-26.5 -52t-12 -82.5h243
q-3 46 -13 78.5t-26 53t-37 29.5t-45 9zM230 52q24 0 45 9t37 29t26 52.5t13 79.5h-242q5 -94 38 -132t83 -38zM110 690h80v-80h-80v80zM270 690h80v-80h-80v80z" />
    <glyph glyph-name="uni04EE" unicode="&#x4ee;" horiz-adv-x="460" 
d="M110 -6q-10 0 -25 2t-25 4v62q14 -5 25 -6.5t25 -1.5q9 0 18.5 3.5t19 14t19 29.5t19.5 49l11 34l-187 516h80l143 -420h2l137 420h78l-189 -550q-16 -47 -32 -77.5t-34 -48t-38.5 -24t-46.5 -6.5zM111 848h240v-56h-240v56z" />
    <glyph glyph-name="uni04EF" unicode="&#x4ef;" horiz-adv-x="400" 
d="M80 -216q-23 0 -36 3q-8 2 -14 4v58q6 -2 14 -4q13 -3 36 -3q13 0 23.5 4t19.5 14.5t17 29.5t17 48l13 44l-160 518h68l124 -420h2l120 420h66l-175 -580q-23 -75 -56.5 -105.5t-78.5 -30.5zM91 677h220v-54h-220v54z" />
    <glyph glyph-name="uni04F0" unicode="&#x4f0;" horiz-adv-x="460" 
d="M110 -6q-10 0 -25 2t-25 4v62q14 -5 25 -6.5t25 -1.5q9 0 18.5 3.5t19 14t19 29.5t19.5 49l11 34l-187 516h80l143 -420h2l137 420h78l-189 -550q-16 -47 -32 -77.5t-34 -48t-38.5 -24t-46.5 -6.5zM106 860h80v-80h-80v80zM276 860h80v-80h-80v80z" />
    <glyph glyph-name="uni04F1" unicode="&#x4f1;" horiz-adv-x="400" 
d="M80 -216q-23 0 -36 3q-8 2 -14 4v58q6 -2 14 -4q13 -3 36 -3q13 0 23.5 4t19.5 14.5t17 29.5t17 48l13 44l-160 518h68l124 -420h2l120 420h66l-175 -580q-23 -75 -56.5 -105.5t-78.5 -30.5zM81 690h80v-80h-80v80zM241 690h80v-80h-80v80z" />
    <glyph glyph-name="uni04F2" unicode="&#x4f2;" horiz-adv-x="460" 
d="M110 -6q-10 0 -25 2t-25 4v62q14 -5 25 -6.5t25 -1.5q9 0 18.5 3.5t19 14t19 29.5t19.5 49l11 34l-187 516h80l143 -420h2l137 420h78l-189 -550q-16 -47 -32 -77.5t-34 -48t-38.5 -24t-46.5 -6.5zM203 890h84l-84 -140h-56zM341 890h86l-112 -140h-58z" />
    <glyph glyph-name="uni04F3" unicode="&#x4f3;" horiz-adv-x="400" 
d="M80 -216q-23 0 -36 3q-8 2 -14 4v58q6 -2 14 -4q13 -3 36 -3q13 0 23.5 4t19.5 14.5t17 29.5t17 48l13 44l-160 518h68l124 -420h2l120 420h66l-175 -580q-23 -75 -56.5 -105.5t-78.5 -30.5zM154 725h82l-64 -150h-54zM294 725h84l-94 -150h-56z" />
    <glyph glyph-name="uni04F4" unicode="&#x4f4;" horiz-adv-x="500" 
d="M354 262q-17 -3 -36 -6q-17 -2 -39.5 -4t-48.5 -2q-101 0 -145.5 44.5t-44.5 145.5v260h66v-260q0 -71 28.5 -100.5t95.5 -29.5q26 0 48.5 2t39.5 5q19 3 36 7v376h66v-700h-66v262zM105 860h80v-80h-80v80zM275 860h80v-80h-80v80z" />
    <glyph glyph-name="uni04F5" unicode="&#x4f5;" horiz-adv-x="400" 
d="M276 202q-13 -3 -29 -6q-14 -2 -31 -3.5t-36 -1.5q-75 0 -112.5 38.5t-37.5 120.5v150h64v-150q0 -57 20 -79t66 -22q19 0 36 1.5t31 3.5q16 3 29 6v240h64v-500h-64v202zM65 690h80v-80h-80v80zM225 690h80v-80h-80v80z" />
    <glyph glyph-name="uni04F8" unicode="&#x4f8;" horiz-adv-x="680" 
d="M370 210q0 78 -38.5 115t-111.5 37h-74v-304h74q77 0 113.5 37t36.5 115zM80 700h66v-280h74q113 0 166.5 -54t53.5 -156t-55.5 -156t-164.5 -54h-140v700zM600 700v-700h-68v700h68zM215 860h80v-80h-80v80zM385 860h80v-80h-80v80z" />
    <glyph glyph-name="uni04F9" unicode="&#x4f9;" horiz-adv-x="570" 
d="M60 500h64v-190h66q94 0 137 -40t43 -115t-43 -115t-137 -40h-130v500zM302 155q0 51 -26 75t-86 24h-66v-198h66q60 0 86 24t26 75zM446 500h64v-500h-64v500zM165 690h80v-80h-80v80zM325 690h80v-80h-80v80z" />
    <glyph glyph-name="uni058F" unicode="&#x58f;" 
d="M324 168h-129v56h129v82h-129v56h129v98q0 51 -10 87t-27 59t-40.5 33.5t-51.5 10.5q-56 0 -92.5 -44.5t-36.5 -145.5v-50h-66v50q0 61 15 107.5t41 77.5t62 47t77 16t76.5 -16t62 -47t41.5 -77.5t15 -107.5v-98h60v-56h-60v-82h60v-56h-60v-168h-66v168z" />
    <glyph glyph-name="uni1E9E" unicode="&#x1e9e;" horiz-adv-x="540" 
d="M290 -6q-29 0 -49 4.5t-34 10.5q-16 6 -27 15v70q12 -11 29 -20q14 -8 34.5 -14t46.5 -6q68 0 104 38t36 118q0 32 -11 58.5t-30.5 46t-47.5 30t-61 10.5h-30v53l121 197q-30 20 -56 30.5t-55 10.5q-32 0 -55 -8.5t-38.5 -28.5t-23 -54t-7.5 -85v-470h-66v470
q0 66 11.5 111t35 73t59 40t84.5 12q45 0 94.5 -19t97.5 -62l-130 -211q79 -12 128.5 -64.5t49.5 -139.5q0 -103 -56 -159.5t-154 -56.5z" />
    <glyph glyph-name="uni2010" unicode="&#x2010;" horiz-adv-x="320" 
d="M40 329h240v-58h-240v58z" />
    <glyph glyph-name="uni2011" unicode="&#x2011;" horiz-adv-x="320" 
d="M40 329h240v-58h-240v58z" />
    <glyph glyph-name="figuredash" unicode="&#x2012;" horiz-adv-x="500" 
d="M40 378h420v-58h-420v58z" />
    <glyph glyph-name="endash" unicode="&#x2013;" horiz-adv-x="500" 
d="M40 328h420v-58h-420v58z" />
    <glyph glyph-name="emdash" unicode="&#x2014;" horiz-adv-x="600" 
d="M40 328h520v-58h-520v58z" />
    <glyph glyph-name="afii00208" unicode="&#x2015;" horiz-adv-x="600" 
d="M40 328h520v-58h-520v58z" />
    <glyph glyph-name="quoteleft" unicode="&#x2018;" horiz-adv-x="230" 
d="M120 750h60l-40 -220h-90z" />
    <glyph glyph-name="quoteright" unicode="&#x2019;" horiz-adv-x="230" 
d="M100 750h90l-70 -220h-60z" />
    <glyph glyph-name="quotesinglbase" unicode="&#x201a;" horiz-adv-x="230" 
d="M80 100h90l-70 -220h-60z" />
    <glyph glyph-name="quotedblleft" unicode="&#x201c;" horiz-adv-x="390" 
d="M120 750h60l-40 -220h-90zM280 750h60l-40 -220h-90z" />
    <glyph glyph-name="quotedblright" unicode="&#x201d;" horiz-adv-x="390" 
d="M100 750h90l-70 -220h-60zM260 750h90l-70 -220h-60z" />
    <glyph glyph-name="quotedblbase" unicode="&#x201e;" horiz-adv-x="390" 
d="M80 100h90l-70 -220h-60zM240 100h90l-70 -220h-60z" />
    <glyph glyph-name="dagger" unicode="&#x2020;" horiz-adv-x="400" 
d="M167 442h-137v58h137v200h66v-200h137v-58h-137v-582h-66v582z" />
    <glyph glyph-name="daggerdbl" unicode="&#x2021;" horiz-adv-x="400" 
d="M167 75h-137v58h137v309h-137v58h137v200h66v-200h137v-58h-137v-309h137v-58h-137v-215h-66v215z" />
    <glyph glyph-name="bullet" unicode="&#x2022;" horiz-adv-x="400" 
d="M200 150q-31 0 -58.5 12t-47.5 32t-32 47.5t-12 58.5t12 58.5t32 47.5t47.5 32t58.5 12t58.5 -12t47.5 -32t32 -47.5t12 -58.5t-12 -58.5t-32 -47.5t-47.5 -32t-58.5 -12z" />
    <glyph glyph-name="ellipsis" unicode="&#x2026;" horiz-adv-x="890" 
d="M85 100h100v-100h-100v100zM395 100h100v-100h-100v100zM705 100h100v-100h-100v100z" />
    <glyph glyph-name="perthousand" unicode="&#x2030;" horiz-adv-x="960" 
d="M160 374q-55 0 -92.5 42t-37.5 124t37.5 124t92.5 42t92.5 -42t37.5 -124t-37.5 -124t-92.5 -42zM481 700h64l-376 -700h-64zM88 540q0 -63 20 -87.5t52 -24.5t52 24.5t20 87.5t-20 87.5t-52 24.5t-52 -24.5t-20 -87.5zM490 -6q-55 0 -92.5 42t-37.5 124t37.5 124
t92.5 42t92.5 -42t37.5 -124t-37.5 -124t-92.5 -42zM418 160q0 -63 20 -87.5t52 -24.5t52 24.5t20 87.5t-20 87.5t-52 24.5t-52 -24.5t-20 -87.5zM800 -6q-55 0 -92.5 42t-37.5 124t37.5 124t92.5 42t92.5 -42t37.5 -124t-37.5 -124t-92.5 -42zM728 160q0 -63 20 -87.5
t52 -24.5t52 24.5t20 87.5t-20 87.5t-52 24.5t-52 -24.5t-20 -87.5z" />
    <glyph glyph-name="guilsinglleft" unicode="&#x2039;" horiz-adv-x="270" 
d="M156 510h64l-114 -210l114 -210h-64l-126 210z" />
    <glyph glyph-name="guilsinglright" unicode="&#x203a;" horiz-adv-x="270" 
d="M114 90h-64l114 210l-114 210h64l126 -210z" />
    <glyph glyph-name="fraction" unicode="&#x2044;" horiz-adv-x="240" 
d="M276 700h64l-376 -700h-64z" />
    <glyph glyph-name="uni2074" unicode="&#x2074;" horiz-adv-x="300" 
d="M185 424v226h-2l-115 -226h117zM185 368h-175v56l141 276h94v-276h45v-56h-45v-88h-60v88z" />
    <glyph glyph-name="franc" unicode="&#x20a3;" 
d="M105 142h-80v56h80v502h300v-58h-234v-253h204v-58h-204v-133h134v-56h-134v-142h-66v142z" />
    <glyph glyph-name="Euro" unicode="&#x20ac;" 
d="M320 -6q-50 0 -92.5 15.5t-76 48.5t-55.5 84t-31 122h-75l13 52h58q-1 8 -1 16.5v17.5v34h-70l13 52h62q8 71 29.5 122t53.5 84t73 48.5t89 15.5q34 0 58.5 -3.5t41.5 -8.5q19 -5 32 -12l-16 -62q-14 7 -32 12q-15 5 -36.5 8.5t-47.5 3.5q-33 0 -62.5 -11.5t-53 -36.5
t-40 -64.5t-23.5 -95.5h247l-13 -52h-239v-34v-34h221l-14 -52h-202q16 -110 67.5 -159t121.5 -49q23 0 42.5 2.5t34.5 6.5q18 4 33 9v-66q-15 -4 -33 -7q-15 -3 -34.5 -5t-42.5 -2z" />
    <glyph glyph-name="uni20B4" unicode="&#x20b4;" 
d="M240 -6q-36 0 -65.5 11.5t-50.5 32.5t-32.5 49.5t-11.5 62.5q0 35 6.5 62t20.5 53h-72v52h108l63 67h-171v52h220q17 19 28 35t17.5 30.5t9 28.5t2.5 30q0 40 -22.5 62t-69.5 22q-26 0 -51 -7.5t-45 -15.5q-23 -11 -44 -23v72q21 10 44 18q20 7 45 12.5t51 5.5
q77 0 118.5 -40t41.5 -106q0 -40 -11.5 -69.5t-30.5 -54.5h87v-52h-131l-63 -67h194v-52h-237q-20 -28 -30 -55t-10 -60q0 -20 7 -37t19.5 -30t29.5 -20t36 -7q30 0 57 7t48 16q24 10 45 23v-72q-18 -10 -41 -18q-20 -7 -47.5 -12.5t-61.5 -5.5z" />
    <glyph glyph-name="uni20B8" unicode="&#x20b8;" 
d="M192 544h-172v52h410v-52h-172v-544h-66v544zM20 700h410v-52h-410v52z" />
    <glyph glyph-name="uni20BC" unicode="&#x20bc;" 
d="M10 0q0 155 14 258t39 166.5t58 93t71 36.5v146h66v-146q37 -7 70.5 -36.5t58 -93t39 -166.5t14.5 -258h-68q0 138 -9 229t-24 147t-36 82.5t-45 34.5v-493h-66v493q-24 -8 -45 -34.5t-36 -82.5t-24 -147t-9 -229h-68v0z" />
    <glyph glyph-name="uni20BD" unicode="&#x20bd;" 
d="M90 164h-80v52h80v84h-80v58h80v342h130q102 0 156 -53t54 -147q0 -45 -14.5 -82t-41.5 -63t-66 -40.5t-88 -14.5h-64v-84h144v-52h-144v-164h-66v164zM360 500q0 142 -140 142h-64v-284h64q66 0 103 37.5t37 104.5z" />
    <glyph glyph-name="uni20BE" unicode="&#x20be;" 
d="M18 57h107q-54 39 -84.5 111.5t-30.5 181.5q0 75 11.5 132.5t31 99.5t46.5 69.5t57 41.5v107h44v-94q5 1 11.5 1.5t13.5 0.5q6 0 13 -0.5t12 -1.5v94h44v-107q30 -14 57 -41.5t46.5 -69.5t31 -99.5t11.5 -132.5h-68q0 112 -22.5 176.5t-55.5 93.5v-270h-44v295
q-14 3 -25 3q-13 0 -25 -3v-295h-44v270q-33 -29 -55.5 -93.5t-22.5 -176.5q0 -76 16 -131t43 -91t62.5 -53.5t75.5 -17.5h131v-57h-388v57z" />
    <glyph glyph-name="afii61352" unicode="&#x2116;" horiz-adv-x="860" 
d="M80 700h112l248 -630h2v630h68v-700h-112l-248 630h-2v-630h-68v700zM595 318h230v-56h-230v56zM710 360q-53 0 -86.5 40.5t-33.5 132.5t33.5 132.5t86.5 40.5q26 0 48 -9.5t38 -30.5t25 -54t9 -79t-9 -79t-25 -54t-38 -30.5t-48 -9.5zM710 414q13 0 24.5 5.5t20 19
t13 36.5t4.5 58t-4.5 58t-13 36.5t-20 19t-24.5 5.5q-14 0 -25 -5.5t-19.5 -19t-13 -36.5t-4.5 -58t4.5 -58t13 -36.5t19.5 -19t25 -5.5z" />
    <glyph glyph-name="uni2117" unicode="&#x2117;" horiz-adv-x="800" 
d="M287 560h126q71 0 107.5 -35t36.5 -96q0 -60 -36.5 -95t-107.5 -35h-68v-159h-58v420zM497 429q0 35 -20.5 55t-63.5 20h-68v-149h68q43 0 63.5 20t20.5 54zM400 -6q-74 0 -139 28t-113 76t-76 113t-28 139t28 139t76 113t113 76t139 28t139 -28t113 -76t76 -113t28 -139
t-28 -139t-76 -113t-113 -76t-139 -28zM400 54q61 0 115 23.5t94 63.5t63.5 94t23.5 115t-23.5 115t-63.5 94t-94 63.5t-115 23.5t-115 -23.5t-94 -63.5t-63.5 -94t-23.5 -115t23.5 -115t63.5 -94t94 -63.5t115 -23.5z" />
    <glyph glyph-name="trademark" unicode="&#x2122;" horiz-adv-x="757" 
d="M347 700h94l86 -225l86 225h94v-415h-60v355h-2l-88 -230h-60l-88 230h-2v-355h-60v415zM115 650h-105v50h270v-50h-105v-365h-60v365z" />
    <glyph glyph-name="Omega" unicode="&#x2126;" horiz-adv-x="640" 
d="M56 136h56v-78h102v54q-77 29 -120.5 101.5t-43.5 186.5q0 74 21 131t57 96t85.5 59t106.5 20q61 0 110.5 -20t85 -59t55 -96t19.5 -131q0 -114 -44 -186.5t-120 -101.5v-54h102v78h56v-136h-224v157q72 13 116 73.5t44 169.5q0 61 -14.5 107.5t-41 77t-63.5 46t-81 15.5
t-81 -15.5t-63.5 -46t-41 -77t-14.5 -107.5q0 -109 44 -169.5t116 -73.5v-157h-224v136z" />
    <glyph glyph-name="arrowleft" unicode="&#x2190;" horiz-adv-x="700" 
d="M235 565h76l-185 -185h554v-60h-554l185 -185h-76l-215 215z" />
    <glyph glyph-name="arrowup" unicode="&#x2191;" horiz-adv-x="700" 
d="M565 485v-76l-185 185v-594h-60v594l-185 -185v76l215 215z" />
    <glyph glyph-name="arrowright" unicode="&#x2192;" horiz-adv-x="700" 
d="M465 135h-76l185 185h-554v60h554l-185 185h76l215 -215z" />
    <glyph glyph-name="arrowdown" unicode="&#x2193;" horiz-adv-x="700" 
d="M135 215v76l185 -185v594h60v-594l185 185v-76l-215 -215z" />
    <glyph glyph-name="partialdiff" unicode="&#x2202;" horiz-adv-x="510" 
d="M210 -6q-33 0 -62.5 13t-51 39t-34 64.5t-12.5 89.5q0 68 19.5 123t49.5 93.5t67.5 59t73.5 20.5q46 0 79.5 -18.5t59.5 -67.5h2q-2 30 -11 69t-32.5 76t-65.5 67t-109 43l17 41q48 -5 94.5 -26t83 -59.5t59.5 -95.5t23 -135q0 -104 -21 -178.5t-55.5 -123t-79.5 -71.5
t-94 -23zM215 52q29 0 58.5 15t53.5 46t39.5 77.5t15.5 109.5q0 70 -31.5 104t-85.5 34q-27 0 -55 -15.5t-50.5 -46t-37 -75t-14.5 -101.5q0 -78 30 -113t77 -35z" />
    <glyph glyph-name="Delta" unicode="&#x2206;" horiz-adv-x="540" 
d="M234 700h72l224 -700h-520zM437 66l-167 524h-2l-167 -524h336z" />
    <glyph glyph-name="product" unicode="&#x220f;" horiz-adv-x="500" 
d="M20 -152h60v794h-60v58h460v-58h-60v-794h60v-58h-186v58h60v794h-208v-794h60v-58h-186v58z" />
    <glyph glyph-name="summation" unicode="&#x2211;" horiz-adv-x="500" 
d="M40 -152l240 396l-240 398v58h420v-178h-64v120h-278l238 -396l-240 -398h280v120h64v-178h-420v58z" />
    <glyph glyph-name="minus" unicode="&#x2212;" 
d="M45 380h360v-60h-360v60z" />
    <glyph glyph-name="uni2215" unicode="&#x2215;" 
d="M367 700h68l-352 -700h-68z" />
    <glyph glyph-name="uni2219" unicode="&#x2219;" horiz-adv-x="270" 
d="M85 350h100v-100h-100v100z" />
    <glyph glyph-name="radical" unicode="&#x221a;" 
d="M100 420h-80v60h159l101 -390l100 710h150v-60h-101l-123 -840h-64z" />
    <glyph glyph-name="infinity" unicode="&#x221e;" horiz-adv-x="700" 
d="M180 180q-32 0 -60 12.5t-49 35t-33.5 53.5t-12.5 69q0 37 12.5 68.5t33.5 54t49 35t60 12.5q34 0 59 -11.5t44.5 -29t35.5 -38.5t31 -40q15 19 31 40t35.5 38.5t44.5 29t59 11.5q32 0 60 -12.5t49 -35t33.5 -54t12.5 -68.5q0 -38 -12.5 -69t-33.5 -53.5t-49 -35
t-60 -12.5q-34 0 -59 11.5t-44.5 29t-35.5 38.5t-31 40q-15 -19 -31 -40t-35.5 -38.5t-44.5 -29t-59 -11.5zM180 242q21 0 38 10t32 25.5t29.5 34.5t29.5 38q-15 19 -29.5 38t-29.5 34.5t-32 25.5t-38 10q-35 0 -61 -28.5t-26 -79.5t26 -79.5t61 -28.5zM520 242
q35 0 61 28.5t26 79.5t-26 79.5t-61 28.5q-21 0 -38 -10t-32 -25.5t-29.5 -34.5t-29.5 -38q15 -19 29.5 -38t29.5 -34.5t32 -25.5t38 -10z" />
    <glyph glyph-name="integral" unicode="&#x222b;" horiz-adv-x="270" 
d="M60 -216q-25 0 -43 5q-10 2 -17 5v58l16 -6q7 -2 15.5 -4t18.5 -2q24 0 38 15t14 45v740q0 54 30 85t78 31q13 0 24 -1.5t19 -3.5q10 -3 17 -5v-58l-16 6q-8 2 -16.5 4t-18.5 2q-23 0 -37 -15t-14 -45v-740q0 -54 -30 -85t-78 -31z" />
    <glyph glyph-name="approxequal" unicode="&#x2248;" 
d="M20 223q7 16 18 32.5t27 30t36 21.5t44 8q23 0 45.5 -10.5t43 -22.5t38.5 -22.5t33 -10.5q24 0 44.5 14.5t40.5 56.5l40 -41q-7 -17 -18.5 -33t-27 -29.5t-35.5 -21.5t-44 -8t-46 10.5t-42.5 22.5t-38.5 22.5t-33 10.5q-24 0 -44.5 -14.5t-40.5 -56.5zM20 422
q7 16 18 32.5t27 30t36 21.5t44 8q23 0 45.5 -10.5t43 -22.5t38.5 -22.5t33 -10.5q24 0 44.5 14.5t40.5 56.5l40 -41q-7 -17 -18.5 -33t-27 -29.5t-35.5 -21.5t-44 -8t-46 10.5t-42.5 22.5t-38.5 22.5t-33 10.5q-24 0 -44.5 -14.5t-40.5 -56.5z" />
    <glyph glyph-name="notequal" unicode="&#x2260;" 
d="M150 240h-105v60h132l46 100h-178v60h205l50 110h60l-50 -110h95v-60h-122l-46 -100h168v-60h-195l-50 -110h-60z" />
    <glyph glyph-name="lessequal" unicode="&#x2264;" horiz-adv-x="500" 
d="M70 110h360v-60h-360v60zM70 345v70l360 200v-73l-295 -161l295 -161v-75z" />
    <glyph glyph-name="greaterequal" unicode="&#x2265;" horiz-adv-x="500" 
d="M70 110h360v-60h-360v60zM405 415v-70l-360 -200v73l295 161l-295 161v75z" />
    <glyph glyph-name="dotmath" unicode="&#x22c5;" horiz-adv-x="270" 
d="M85 400h100v-100h-100v100z" />
    <glyph glyph-name="lozenge" unicode="&#x25ca;" 
d="M20 350l205 356l205 -356l-205 -356zM356 350l-131 238l-131 -238l131 -238z" />
    <glyph glyph-name="uniF400" unicode="&#xf400;" horiz-adv-x="0" 
d="M-163 725h84l-104 -150h-56z" />
    <glyph glyph-name="uniF401" unicode="&#xf401;" horiz-adv-x="0" 
d="M-255 890h86l-112 -140h-58z" />
    <glyph glyph-name="uniF406" unicode="&#xf406;" horiz-adv-x="300" 
d="M150 760q-25 0 -48 6t-40.5 19.5t-28.5 35t-13 51.5l52 8q8 -36 25.5 -51t52.5 -15t52.5 15t25.5 51l52 -8q-2 -30 -13 -51.5t-28.5 -35t-40.5 -19.5t-48 -6z" />
    <glyph glyph-name="uniF407" unicode="&#xf407;" horiz-adv-x="240" 
d="M120 -216q-38 0 -60.5 8t-39.5 18l19 44q14 -9 30.5 -14.5t35.5 -5.5q26 0 40.5 13t14.5 30q0 18 -14 29.5t-47 11.5q-7 0 -12 -0.5t-9 -0.5q-4 -1 -8 -1l25 84h50l-11 -42q14 -2 29 -7t28 -15.5t21 -26t8 -37.5q0 -38 -26.5 -63t-73.5 -25z" />
    <glyph glyph-name="uniF408" unicode="&#xf408;" horiz-adv-x="320" 
d="M133 890h54l113 -140h-70l-70 86l-70 -86h-70z" />
    <glyph glyph-name="uniF409" unicode="&#xf409;" horiz-adv-x="180" 
d="M76 -50h84l-84 -150h-56z" />
    <glyph glyph-name="uniF40A" unicode="&#xf40a;" horiz-adv-x="150" 
d="M60 700h90l-82 -250h-58z" />
    <glyph glyph-name="uniF40B" unicode="&#xf40b;" horiz-adv-x="120" 
d="M15 865h90v-90h-90v90z" />
    <glyph glyph-name="uniF40C" unicode="&#xf40c;" horiz-adv-x="240" 
d="M120 720q-42 0 -71 29t-29 71t29 71t71 29t71 -29t29 -71t-29 -71t-71 -29zM120 772q20 0 34 14t14 34t-14 34t-34 14t-34 -14t-14 -34t14 -34t34 -14z" />
    <glyph glyph-name="uniF40D" unicode="&#xf40d;" horiz-adv-x="320" 
d="M20 765q0 57 23.5 83.5t61.5 26.5q19 0 34.5 -7.5t29 -16.5t26 -16.5t25.5 -7.5q18 0 27 10.5t9 37.5h44q0 -57 -23.5 -83.5t-61.5 -26.5q-19 0 -34.5 7.5t-29 16.5t-26 16.5t-25.5 7.5q-14 0 -25 -12.5t-11 -35.5h-44v0z" />
    <glyph glyph-name="uniF40E" unicode="&#xf40e;" horiz-adv-x="220" 
d="M120 -216q-51 0 -75.5 22.5t-24.5 58.5q0 34 27 67.5t87 67.5h66q-38 -26 -60.5 -45t-35 -33.5t-16.5 -26.5t-4 -25q0 -14 11 -23t40 -9q13 0 25 2.5t21 5.5q11 4 19 8v-56q-15 -6 -30.5 -10t-49.5 -4z" />
    <glyph glyph-name="uniF410" unicode="&#xf410;" horiz-adv-x="0" 
d="M-429 890h86l84 -140h-58z" />
    <glyph glyph-name="uniF47E" unicode="&#xf47e;" horiz-adv-x="540" 
d="M270 -6q-98 0 -149 57t-51 189v460h66v-460q0 -102 35.5 -144t98.5 -42t98.5 42t35.5 144v460h66v-460q0 -132 -51.5 -189t-148.5 -57zM225 865h90v-90h-90v90z" />
    <glyph glyph-name="uniF47F" unicode="&#xf47f;" horiz-adv-x="455" 
d="M395 0h-60v80h-2q-15 -35 -50 -60.5t-88 -25.5q-64 0 -102 44.5t-38 145.5v316h64v-316q0 -73 25 -102.5t71 -29.5q21 0 41.5 11t37 30.5t27 47.5t10.5 63v296h64v-500zM180 695h90v-90h-90v90z" />
    <glyph glyph-name="uniF4C6" unicode="&#xf4c6;" horiz-adv-x="500" 
d="M285 -216q-23 0 -39.5 2.5t-35.5 8.5v62q21 -8 36 -10.5t39 -2.5q29 0 49 26.5t20 89.5v302q-17 -3 -36 -6q-17 -2 -39.5 -4t-48.5 -2q-101 0 -145.5 44.5t-44.5 145.5v260h66v-260q0 -71 28.5 -100.5t95.5 -29.5q26 0 48.5 2t39.5 5q19 3 36 7v376h66v-740
q0 -95 -35.5 -135.5t-99.5 -40.5z" />
    <glyph glyph-name="uniF4C7" unicode="&#xf4c7;" horiz-adv-x="400" 
d="M246 -216q-23 0 -38 3q-9 1 -16 3v58q6 -2 13 -3q12 -3 31 -3q17 0 28.5 16t11.5 62v282q-13 -3 -29 -6q-14 -2 -31 -3.5t-36 -1.5q-75 0 -112.5 38.5t-37.5 120.5v150h64v-150q0 -57 20 -79t66 -22q19 0 36 1.5t31 3.5q16 3 29 6v240h64v-580q0 -41 -5.5 -67t-17 -41.5
t-29 -21.5t-42.5 -6z" />
    <glyph glyph-name="uniF4C8" unicode="&#xf4c8;" horiz-adv-x="510" 
d="M350 -6q-69 0 -124.5 21t-94.5 64.5t-60 111t-21 159.5q0 88 21.5 155t61 111.5t94.5 67t123 22.5q30 0 67 -6t63 -20v-70q-26 18 -63 27t-67 9q-51 0 -93 -18t-72.5 -54.5t-47.5 -92.5t-17 -131q0 -77 16 -133t46 -92t72.5 -53.5t95.5 -17.5q30 0 67 9t63 27v-70
q-26 -14 -63 -20t-67 -6zM320 -216q-38 0 -60.5 8t-39.5 18l19 44q14 -9 30.5 -14.5t35.5 -5.5q26 0 40.5 13t14.5 30q0 18 -14 29.5t-47 11.5q-7 0 -12 -0.5t-9 -0.5q-4 -1 -8 -1l25 84h50l-11 -42q14 -2 29 -7t28 -15.5t21 -26t8 -37.5q0 -38 -26.5 -63t-73.5 -25z" />
    <glyph glyph-name="uniF4C9" unicode="&#xf4c9;" horiz-adv-x="385" 
d="M260 -6q-102 0 -161 63.5t-59 192.5q0 62 16 110t45 80.5t69.5 49t89.5 16.5q24 0 42.5 -3.5t31.5 -7.5q15 -4 26 -10v-66q-11 8 -26 14q-13 5 -31.5 10t-42.5 5q-33 0 -60.5 -11t-48 -34.5t-32 -61t-11.5 -91.5q0 -104 41.5 -151t110.5 -47q23 0 40.5 3.5t31.5 8.5
q15 5 28 12v-66q-13 -4 -28 -8q-14 -3 -31.5 -5.5t-40.5 -2.5zM240 -216q-34 0 -53.5 7t-36.5 17l18 40q14 -9 26 -12.5t26 -3.5q25 0 38.5 12.5t13.5 32.5q0 43 -52 43q-10 0 -20 -2q-4 -1 -8 -1l25 83h46l-12 -47q31 -3 55 -21.5t24 -59.5q0 -42 -23.5 -65t-66.5 -23z" />
    <glyph glyph-name="uniF4CC" unicode="&#xf4cc;" horiz-adv-x="460" 
d="M110 -6q-10 0 -25 2t-25 4v62q14 -5 25 -6.5t25 -1.5q9 0 18.5 3.5t19 14t19 29.5t19.5 49l11 34l-187 516h80l143 -420h2l137 420h78l-189 -550q-16 -47 -32 -77.5t-34 -48t-38.5 -24t-46.5 -6.5zM286 890h86l-112 -140h-58z" />
    <glyph glyph-name="uniF4CD" unicode="&#xf4cd;" horiz-adv-x="400" 
d="M80 -216q-23 0 -36 3q-8 2 -14 4v58q6 -2 14 -4q13 -3 36 -3q13 0 23.5 4t19.5 14.5t17 29.5t17 48l13 44l-160 518h68l124 -420h2l120 420h66l-175 -580q-23 -75 -56.5 -105.5t-78.5 -30.5zM249 725h84l-104 -150h-56z" />
    <glyph glyph-name="dollar.fitted" unicode="&#xf5f5;" 
d="M194 -6q-31 0 -53 2t-39.5 5.5t-32 8t-29.5 10.5v68q16 -8 32 -13.5t33.5 -10t39 -7t49.5 -3.5v291q-35 19 -63.5 39.5t-48.5 43.5t-31 50.5t-11 61.5q0 30 10.5 57t30.5 49t48.5 36.5t64.5 20.5v97h60v-94q21 -1 38 -2.5t32.5 -4.5t31.5 -8t34 -11v-68q-19 9 -35 15
t-31.5 10t-32 6t-37.5 3v-260q85 -47 120.5 -98.5t35.5 -117.5q0 -68 -42 -115.5t-114 -57.5v-97h-60v94zM340 170q0 38 -17 71t-69 68v-251q38 11 62 41.5t24 70.5zM110 540q0 -32 20 -60.5t64 -57.5v221q-44 -8 -64 -34.5t-20 -68.5z" />
    <glyph glyph-name="Euro.fitted" unicode="&#xf5f6;" horiz-adv-x="500" 
d="M350 -6q-50 0 -92.5 15.5t-76 48.5t-55.5 84t-31 122h-75l13 52h58q-1 8 -1 16.5v17.5v34h-70l13 52h62q8 71 29.5 122t53.5 84t73 48.5t89 15.5q34 0 58.5 -3.5t41.5 -8.5q19 -5 32 -12l-16 -62q-14 7 -32 12q-15 5 -36.5 8.5t-47.5 3.5q-33 0 -62.5 -11.5t-53 -36.5
t-40 -64.5t-23.5 -95.5h247l-13 -52h-239v-34v-34h221l-14 -52h-202q16 -110 67.5 -159t121.5 -49q23 0 42.5 2.5t34.5 6.5q18 4 33 9v-66q-15 -4 -33 -7q-15 -3 -34.5 -5t-42.5 -2z" />
    <glyph glyph-name="cent.fitted" unicode="&#xf5f7;" horiz-adv-x="405" 
d="M221 -2q-87 14 -133.5 76t-46.5 176q0 109 48 173t132 79v98h60v-94q26 -1 44 -4t31 -7q14 -4 25 -10v-66q-11 8 -27 14q-14 5 -34.5 10t-48.5 5q-73 0 -117.5 -45.5t-44.5 -152.5q0 -104 42.5 -151t119.5 -47q26 0 46.5 3.5t34.5 8.5q17 5 29 12v-66q-11 -3 -26 -7
q-13 -3 -31.5 -5.5t-42.5 -3.5v-94h-60v98z" />
    <glyph glyph-name="sterling.fitted" unicode="&#xf5f8;" 
d="M40 60h80v274h-80v52h80v104q0 114 47.5 165t139.5 51q23 0 43 -3.5t36 -7.5q18 -5 34 -11v-70q-16 8 -34 15q-16 5 -36 10t-43 5q-61 0 -91 -34.5t-30 -119.5v-104h151v-52h-151v-274h234v-60h-380v60z" />
    <glyph glyph-name="yen.fitted" unicode="&#xf5f9;" 
d="M192 175h-142v52h142v67h-142v52h121l-161 354h72l144 -335l144 335h70l-161 -354h121v-52h-142v-67h142v-52h-142v-175h-66v175z" />
    <glyph glyph-name="florin.fitted" unicode="&#xf5fa;" horiz-adv-x="380" 
d="M-29 -216q-21 0 -36 5q-8 2 -14 5v60q6 -3 14 -6q7 -2 16 -4t20 -2q15 0 30 6.5t29 24t26 48t21 79.5l63 351h-114l9 56h114l18 93q13 67 27.5 108t32.5 62.5t41 28.5t53 7q11 0 22.5 -1.5t19.5 -3.5q10 -3 18 -5v-60q-9 3 -19 6q-8 2 -19 4t-22 2q-15 0 -28 -6
t-23.5 -22t-20 -45t-18.5 -75l-18 -93h114l-9 -56h-114l-63 -351q-11 -64 -28 -105.5t-38.5 -66t-47.5 -34.5t-56 -10z" />
    <glyph glyph-name="uni20B4.fitted" unicode="&#xf5fb;" 
d="M240 -6q-36 0 -65.5 11.5t-50.5 32.5t-32.5 49.5t-11.5 62.5q0 35 6.5 62t20.5 53h-72v52h108l63 67h-171v52h220q17 19 28 35t17.5 30.5t9 28.5t2.5 30q0 40 -22.5 62t-69.5 22q-26 0 -51 -7.5t-45 -15.5q-23 -11 -44 -23v72q21 10 44 18q20 7 45 12.5t51 5.5
q77 0 118.5 -40t41.5 -106q0 -40 -11.5 -69.5t-30.5 -54.5h87v-52h-131l-63 -67h194v-52h-237q-20 -28 -30 -55t-10 -60q0 -20 7 -37t19.5 -30t29.5 -20t36 -7q30 0 57 7t48 16q24 10 45 23v-72q-18 -10 -41 -18q-20 -7 -47.5 -12.5t-61.5 -5.5z" />
    <glyph glyph-name="uni20BD.fitted" unicode="&#xf5fc;" horiz-adv-x="470" 
d="M100 164h-80v52h80v84h-80v58h80v342h130q102 0 156 -53t54 -147q0 -45 -14.5 -82t-41.5 -63t-66 -40.5t-88 -14.5h-64v-84h144v-52h-144v-164h-66v164zM370 500q0 142 -140 142h-64v-284h64q66 0 103 37.5t37 104.5z" />
    <glyph glyph-name="uni20B8.fitted" unicode="&#xf5fd;" 
d="M192 544h-172v52h410v-52h-172v-544h-66v544zM20 700h410v-52h-410v52z" />
    <glyph glyph-name="currency.fitted" unicode="&#xf5fe;" 
d="M20 186l51 51q-36 50 -36 113q0 32 9.5 60.5t26.5 51.5l-51 52l41 41l51 -52q24 17 52.5 27t60.5 10t60.5 -10t51.5 -27l52 52l41 -41l-52 -52q17 -23 27 -51.5t10 -60.5t-10 -60.5t-27 -52.5l52 -51l-41 -41l-52 51q-23 -17 -51.5 -26.5t-60.5 -9.5q-63 0 -113 36
l-51 -51zM225 224q26 0 49 10t40 27t27 40t10 49t-10 49t-27 40t-40 27t-49 10t-49 -10t-40 -27t-27 -40t-10 -49t10 -49t27 -40t40 -27t49 -10z" />
    <glyph glyph-name="numbersign.fitted" unicode="&#xf5ff;" 
d="M81 207h-71v56h79l25 175h-76v56h84l29 206h62l-29 -206h123l29 206h62l-29 -206h71v-56h-79l-25 -175h76v-56h-84l-29 -207h-62l29 207h-123l-29 -207h-62zM275 263l24 175h-123l-25 -175h124z" />
    <glyph glyph-name="uniF639" unicode="&#xf639;" horiz-adv-x="470" 
d="M235 56q25 0 46.5 11.5t37.5 43.5t24.5 89.5t8.5 149.5t-8.5 149.5t-24.5 89.5t-37.5 43.5t-46.5 11.5q-26 0 -47 -11.5t-37 -43.5t-24.5 -89.5t-8.5 -149.5t8.5 -149.5t24.5 -89.5t37 -43.5t47 -11.5zM235 -6q-41 0 -75 16t-58.5 56.5t-38 109.5t-13.5 174t13.5 174
t38 109.5t58.5 56.5t75 16t75 -16t58.5 -56.5t38 -109.5t13.5 -174t-13.5 -174t-38 -109.5t-58.5 -56.5t-75 -16z" />
    <glyph glyph-name="uniF63A" unicode="&#xf63a;" 
d="M40 60q62 77 108 135t78.5 102t53 76.5t32 58.5t16 48.5t4.5 46.5q0 117 -122 117q-45 0 -83.5 -11.5t-76.5 -36.5v74q19 8 36.5 14.5t36 11.5t40 7.5t47.5 2.5q91 0 140.5 -48.5t49.5 -130.5q0 -44 -13.5 -85t-46 -93t-87 -121t-135.5 -168h292v-60h-370v60z" />
    <glyph glyph-name="uniF63B" unicode="&#xf63b;" 
d="M175 -6q-30 0 -55.5 4.5t-44.5 9.5q-22 6 -40 14v72q18 -11 40 -19q19 -8 44.5 -13.5t55.5 -5.5q75 0 113.5 37t38.5 102q0 69 -38 104.5t-124 35.5h-50v60h50q42 0 71 10t47 27.5t26 40t8 47.5q0 60 -32 92t-90 32q-38 0 -66 -6t-47 -13q-22 -9 -37 -19v72q18 8 41 14
q20 5 47.5 9.5t61.5 4.5q91 0 140.5 -48t49.5 -128q0 -113 -110 -159v-2q22 -8 44 -21t38.5 -34t27 -50t10.5 -69q0 -91 -57 -146t-163 -55z" />
    <glyph glyph-name="uniF63C" unicode="&#xf63c;" horiz-adv-x="470" 
d="M307 230v400h-2l-214 -400h216zM307 170h-287v60l251 470h102v-470h67v-60h-67v-170h-66v170z" />
    <glyph glyph-name="uniF63D" unicode="&#xf63d;" horiz-adv-x="460" 
d="M205 -6q-41 0 -76.5 5.5t-63.5 18.5v74q25 -14 60 -25t80 -11q73 0 112.5 40.5t39.5 118.5t-39.5 118.5t-112.5 40.5q-42 0 -75.5 -8t-57.5 -16l18 350h325v-60h-269l-11 -213q16 4 33 6.5t37 2.5q101 0 160.5 -55t59.5 -166q0 -51 -15.5 -92t-44 -69.5t-69 -44
t-91.5 -15.5z" />
    <glyph glyph-name="uniF63E" unicode="&#xf63e;" horiz-adv-x="475" 
d="M245 -6q-39 0 -74 16.5t-60.5 53.5t-40.5 95t-15 141q0 115 18 192.5t51 125t79 68t102 20.5q20 0 37 -2t29 -4q14 -3 24 -5v-65q-10 4 -24 8q-12 3 -29 5.5t-37 2.5q-90 0 -134 -71t-54 -225h2q17 45 55 75.5t91 30.5q75 0 122.5 -57.5t47.5 -176.5q0 -63 -15.5 -106.5
t-42 -70.5t-61 -39t-71.5 -12zM245 54q56 0 90 39.5t34 128.5q0 91 -34 133.5t-90 42.5q-22 0 -43.5 -12t-38.5 -35t-27.5 -55.5t-10.5 -73.5q0 -40 10 -71.5t26.5 -53t38 -32.5t45.5 -11z" />
    <glyph glyph-name="uniF63F" unicode="&#xf63f;" horiz-adv-x="420" 
d="M335 640h-314v60h380v-60l-252 -640h-68z" />
    <glyph glyph-name="uniF640" unicode="&#xf640;" horiz-adv-x="490" 
d="M245 -6q-44 0 -79 13t-60 36.5t-38 56t-13 71.5q0 51 30.5 102t96.5 95q-46 32 -76.5 73.5t-30.5 98.5q0 36 12.5 66.5t35 52.5t53.5 34.5t69 12.5t69.5 -12t54 -34t34.5 -52.5t12 -67.5q0 -49 -26 -90.5t-82 -85.5q37 -25 62 -48.5t39.5 -46.5t20.5 -47.5t6 -50.5
q0 -38 -13.5 -70.5t-38.5 -56t-60 -37t-78 -13.5zM245 56q58 0 90 31t32 85q0 21 -3.5 39t-17.5 37t-41 40.5t-73 48.5q-60 -40 -84.5 -80t-24.5 -86q0 -53 32 -84t90 -31zM245 644q-48 0 -75 -27.5t-27 -76.5q0 -25 7.5 -44.5t22 -37t36 -33t48.5 -31.5q23 19 40 35.5
t28 33t16.5 35.5t5.5 42q0 49 -27 76.5t-75 27.5z" />
    <glyph glyph-name="uniF641" unicode="&#xf641;" horiz-adv-x="475" 
d="M170 -6q-21 0 -37.5 3t-28.5 7q-14 4 -24 11v67q10 -8 24 -14q12 -5 28.5 -9.5t37.5 -4.5q90 0 134 71t54 225h-2q-17 -45 -55 -75.5t-91 -30.5q-75 0 -122.5 57.5t-47.5 176.5q0 63 15.5 106.5t42 70.5t60.5 39t72 12q39 0 74 -16.5t60.5 -53.5t40.5 -95t15 -141
q0 -115 -18 -192.5t-51 -125t-79 -68t-102 -20.5zM230 302q22 0 43.5 12t38.5 35t27.5 55.5t10.5 73.5q0 40 -10 71.5t-26.5 53t-38 32.5t-45.5 11q-56 0 -90 -39.5t-34 -128.5q0 -91 34 -133.5t90 -42.5z" />
    <glyph glyph-name="uniF643" unicode="&#xf643;" 
d="M225 56q24 0 46.5 11t39 35t26.5 61t10 89t-10 89t-26.5 61t-39 35t-46.5 11t-46.5 -9.5t-39 -32.5t-26.5 -60.5t-10 -93.5q0 -52 10 -89t26.5 -61t39 -35t46.5 -11zM225 -6q-41 0 -76 15.5t-60.5 47t-39.5 80t-14 115.5q0 65 15 113.5t40.5 80.5t60.5 48t74 16
q41 0 76 -15.5t60.5 -47t39.5 -80t14 -115.5q0 -65 -15 -113.5t-40.5 -80.5t-60.5 -48t-74 -16z" />
    <glyph glyph-name="uniF644" unicode="&#xf644;" 
d="M224 426l-118 -104l-36 46l162 136h58v-504h-66v426z" />
    <glyph glyph-name="uniF645" unicode="&#xf645;" 
d="M55 60q81 64 132 109.5t80 79.5t39.5 60t10.5 51q0 44 -25 66t-87 22q-26 0 -49.5 -5.5t-41.5 -11.5q-21 -7 -39 -16v71l10.5 3.5t28.5 8t41.5 8.5t49.5 4q98 0 139 -37.5t41 -112.5q0 -28 -12 -58t-40.5 -65.5t-74.5 -79t-113 -97.5h250v-60h-340v60z" />
    <glyph glyph-name="uniF646" unicode="&#xf646;" 
d="M166 -192q-30 0 -55.5 4.5t-44.5 9.5q-22 6 -40 14v72q18 -11 40 -19q19 -8 44.5 -13.5t55.5 -5.5q75 0 113.5 37t38.5 102q0 69 -38 104.5t-124 35.5h-50v60h50q42 0 71 10t47 27.5t26 40t8 47.5q0 60 -32 92t-90 32q-38 0 -66 -6t-47 -13q-22 -9 -37 -19v72q18 8 41 14
q20 5 47.5 9.5t61.5 4.5q91 0 140.5 -48t49.5 -128q0 -113 -110 -159v-2q22 -8 44 -21t38.5 -34t27 -50t10.5 -69q0 -91 -57 -146t-163 -55z" />
    <glyph glyph-name="uniF647" unicode="&#xf647;" 
d="M307 60v374h-2l-214 -374h216zM307 0h-287v60l255 444h98v-444h67v-60h-67v-170h-66v170z" />
    <glyph glyph-name="uniF648" unicode="&#xf648;" 
d="M190 -192q-41 0 -76.5 5.5t-63.5 18.5v74q25 -14 60 -25t80 -11q73 0 112.5 40.5t39.5 118.5t-39.5 118.5t-112.5 40.5q-42 0 -75.5 -8t-57.5 -16l18 350h325v-60h-269l-11 -213q16 4 33 6.5t37 2.5q101 0 160.5 -55t59.5 -166q0 -51 -15.5 -92t-44 -69.5t-69 -44
t-91.5 -15.5z" />
    <glyph glyph-name="uniF649" unicode="&#xf649;" 
d="M226 -6q-39 0 -74 16.5t-60.5 53.5t-40.5 95t-15 141q0 115 18 192.5t51 125t79 68t102 20.5q20 0 37 -2t29 -4q14 -3 24 -5v-65q-10 4 -24 8q-12 3 -29 5.5t-37 2.5q-90 0 -134 -71t-54 -225h2q17 45 55 75.5t91 30.5q75 0 122.5 -57.5t47.5 -176.5q0 -63 -15.5 -106.5
t-42 -70.5t-61 -39t-71.5 -12zM226 54q56 0 90 39.5t34 128.5q0 91 -34 133.5t-90 42.5q-22 0 -43.5 -12t-38.5 -35t-27.5 -55.5t-10.5 -73.5q0 -40 10 -71.5t26.5 -53t38 -32.5t45.5 -11z" />
    <glyph glyph-name="uniF64A" unicode="&#xf64a;" 
d="M344 456h-314v60h380v-60l-252 -640h-68z" />
    <glyph glyph-name="uniF64B" unicode="&#xf64b;" 
d="M225 -6q-44 0 -79 13t-60 36.5t-38 56t-13 71.5q0 51 30.5 102t96.5 95q-46 32 -76.5 73.5t-30.5 98.5q0 36 12.5 66.5t35 52.5t53.5 34.5t69 12.5t69.5 -12t54 -34t34.5 -52.5t12 -67.5q0 -49 -26 -90.5t-82 -85.5q37 -25 62 -48.5t39.5 -46.5t20.5 -47.5t6 -50.5
q0 -38 -13.5 -70.5t-38.5 -56t-60 -37t-78 -13.5zM225 56q58 0 90 31t32 85q0 21 -3.5 39t-17.5 37t-41 40.5t-73 48.5q-60 -40 -84.5 -80t-24.5 -86q0 -53 32 -84t90 -31zM225 644q-48 0 -75 -27.5t-27 -76.5q0 -25 7.5 -44.5t22 -37t36 -33t48.5 -31.5q23 19 40 35.5
t28 33t16.5 35.5t5.5 42q0 49 -27 76.5t-75 27.5z" />
    <glyph glyph-name="uniF64C" unicode="&#xf64c;" 
d="M160 -192q-21 0 -37.5 3t-28.5 7q-14 4 -24 11v67q10 -8 24 -14q12 -5 28.5 -9.5t37.5 -4.5q90 0 134 71t54 225h-2q-17 -45 -55 -75.5t-91 -30.5q-75 0 -122.5 57.5t-47.5 176.5q0 63 15.5 106.5t42 70.5t60.5 39t72 12q39 0 74 -16.5t60.5 -53.5t40.5 -95t15 -141
q0 -115 -18 -192.5t-51 -125t-79 -68t-102 -20.5zM220 116q22 0 43.5 12t38.5 35t27.5 55.5t10.5 73.5q0 40 -10 71.5t-26.5 53t-38 32.5t-45.5 11q-56 0 -90 -39.5t-34 -128.5q0 -91 34 -133.5t90 -42.5z" />
    <glyph glyph-name="uniF6BA" unicode="&#xf6ba;" horiz-adv-x="320" 
d="M40 329h240v-58h-240v58z" />
    <glyph glyph-name="uniF6BB" unicode="&#xf6bb;" horiz-adv-x="500" 
d="M40 328h420v-58h-420v58z" />
    <glyph glyph-name="uniF6BC" unicode="&#xf6bc;" horiz-adv-x="600" 
d="M40 328h520v-58h-520v58z" />
    <glyph glyph-name="uniF6C3" unicode="&#xf6c3;" horiz-adv-x="180" 
d="M76 -50h84l-84 -150h-56z" />
    <glyph glyph-name="uniF6C9" unicode="&#xf6c9;" horiz-adv-x="210" 
d="M104 890h86l-112 -140h-58z" />
    <glyph glyph-name="uniF6CA" unicode="&#xf6ca;" horiz-adv-x="320" 
d="M20 890h60l80 -88l80 88h60l-107 -140h-66z" />
    <glyph glyph-name="uniF6CB" unicode="&#xf6cb;" horiz-adv-x="290" 
d="M20 860h80v-80h-80v80zM190 860h80v-80h-80v80z" />
    <glyph glyph-name="uniF6CC" unicode="&#xf6cc;" horiz-adv-x="340" 
d="M20 860h80v-80h-80v80zM240 860h80v-80h-80v80zM199 965h80l-92 -130h-56z" />
    <glyph glyph-name="uniF6CE" unicode="&#xf6ce;" horiz-adv-x="210" 
d="M20 890h86l84 -140h-58z" />
    <glyph glyph-name="uniF6CF" unicode="&#xf6cf;" horiz-adv-x="320" 
d="M76 890h84l-84 -140h-56zM214 890h86l-112 -140h-58z" />
    <glyph glyph-name="uniF6D0" unicode="&#xf6d0;" horiz-adv-x="280" 
d="M20 848h240v-56h-240v56z" />
    <glyph glyph-name="uniF6D1" unicode="&#xf6d1;" horiz-adv-x="300" 
d="M150 760q-25 0 -48 6t-40.5 19.5t-28.5 35t-13 51.5l58 8q4 -39 22 -54.5t50 -15.5q33 0 50.5 15.5t21.5 54.5l58 -8q-2 -30 -13 -51.5t-28.5 -35t-40.5 -19.5t-48 -6z" />
    <glyph glyph-name="uniF6D4" unicode="&#xf6d4;" horiz-adv-x="280" 
d="M140 595q-21 0 -42 5.5t-37.5 17.5t-27.5 31.5t-13 47.5l60 8q4 -35 19.5 -47.5t40.5 -12.5q26 0 41 12.5t19 47.5l60 -8q-2 -28 -13 -47.5t-27.5 -31.5t-37.5 -17.5t-42 -5.5z" />
    <glyph glyph-name="uniF6D7" unicode="&#xf6d7;" horiz-adv-x="320" 
d="M20 690h80v-80h-80v80zM220 690h80v-80h-80v80zM182 810h82l-84 -140h-54z" />
    <glyph glyph-name="uniF6DC" unicode="&#xf6dc;" horiz-adv-x="330" 
d="M175 622l-138 -122l-36 46l182 154h58v-700h-66v622z" />
    <glyph glyph-name="uniF6DE" unicode="&#xf6de;" horiz-adv-x="500" 
d="M40 328h420v-58h-420v58z" />
    <glyph glyph-name="uniF6E1" unicode="&#xf6e1;" horiz-adv-x="280" 
d="M111 -59h84l-84 -150h-56z" />
    <glyph glyph-name="uniF6E2" unicode="&#xf6e2;" horiz-adv-x="280" 
d="M111 750h84l-84 -150h-56z" />
    <glyph glyph-name="uniF730" unicode="&#xf730;" 
d="M225 56q24 0 46.5 11t39 35t26.5 61t10 89t-10 89t-26.5 61t-39 35t-46.5 11t-46.5 -9.5t-39 -32.5t-26.5 -60.5t-10 -93.5q0 -52 10 -89t26.5 -61t39 -35t46.5 -11zM225 -6q-41 0 -76 15.5t-60.5 47t-39.5 80t-14 115.5q0 65 15 113.5t40.5 80.5t60.5 48t74 16
q41 0 76 -15.5t60.5 -47t39.5 -80t14 -115.5q0 -65 -15 -113.5t-40.5 -80.5t-60.5 -48t-74 -16z" />
    <glyph glyph-name="uniF731" unicode="&#xf731;" horiz-adv-x="300" 
d="M154 426l-118 -104l-36 46l162 136h58v-504h-66v426z" />
    <glyph glyph-name="uniF732" unicode="&#xf732;" horiz-adv-x="420" 
d="M40 60q81 64 132 109.5t80 79.5t39.5 60t10.5 51q0 44 -25 66t-87 22q-26 0 -49.5 -5.5t-41.5 -11.5q-21 -7 -39 -16v71l10.5 3.5t28.5 8t41.5 8.5t49.5 4q98 0 139 -37.5t41 -112.5q0 -28 -12 -58t-40.5 -65.5t-74.5 -79t-113 -97.5h250v-60h-340v60z" />
    <glyph glyph-name="uniF733" unicode="&#xf733;" horiz-adv-x="430" 
d="M161 -192q-30 0 -55.5 4.5t-44.5 9.5q-22 6 -40 14v72q18 -11 40 -19q19 -8 44.5 -13.5t55.5 -5.5q75 0 113.5 37t38.5 102q0 69 -38 104.5t-124 35.5h-50v60h50q42 0 71 10t47 27.5t26 40t8 47.5q0 60 -32 92t-90 32q-38 0 -66 -6t-47 -13q-22 -9 -37 -19v72q18 8 41 14
q20 5 47.5 9.5t61.5 4.5q91 0 140.5 -48t49.5 -128q0 -113 -110 -159v-2q22 -8 44 -21t38.5 -34t27 -50t10.5 -69q0 -91 -57 -146t-163 -55z" />
    <glyph glyph-name="uniF734" unicode="&#xf734;" horiz-adv-x="460" 
d="M307 60v374h-2l-214 -374h216zM307 0h-287v60l255 444h98v-444h67v-60h-67v-170h-66v170z" />
    <glyph glyph-name="uniF735" unicode="&#xf735;" horiz-adv-x="460" 
d="M190 -213q-41 0 -76.5 5.5t-63.5 18.5v74q25 -14 60 -25t80 -11q73 0 112.5 40.5t39.5 118.5t-39.5 118.5t-112.5 40.5q-42 0 -75.5 -8t-57.5 -16l18 350h325v-60h-269l-11 -213q16 4 33 6.5t37 2.5q101 0 160.5 -55t59.5 -166q0 -51 -15.5 -92t-44 -69.5t-69 -44
t-91.5 -15.5z" />
    <glyph glyph-name="uniF736" unicode="&#xf736;" horiz-adv-x="460" 
d="M235 -6q-39 0 -74 16.5t-60.5 53.5t-40.5 95t-15 141q0 115 18 192.5t51 125t79 68t102 20.5q20 0 37 -2t29 -4q14 -3 24 -5v-65q-10 4 -24 8q-12 3 -29 5.5t-37 2.5q-90 0 -134 -71t-54 -225h2q17 45 55 75.5t91 30.5q75 0 122.5 -57.5t47.5 -176.5q0 -63 -15.5 -106.5
t-42 -70.5t-61 -39t-71.5 -12zM235 54q56 0 90 39.5t34 128.5q0 91 -34 133.5t-90 42.5q-22 0 -43.5 -12t-38.5 -35t-27.5 -55.5t-10.5 -73.5q0 -40 10 -71.5t26.5 -53t38 -32.5t45.5 -11z" />
    <glyph glyph-name="uniF737" unicode="&#xf737;" horiz-adv-x="420" 
d="M335 454h-314v60h380v-60l-252 -640h-68z" />
    <glyph glyph-name="uniF738" unicode="&#xf738;" 
d="M225 -6q-44 0 -79 13t-60 36.5t-38 56t-13 71.5q0 51 30.5 102t96.5 95q-46 32 -76.5 73.5t-30.5 98.5q0 36 12.5 66.5t35 52.5t53.5 34.5t69 12.5t69.5 -12t54 -34t34.5 -52.5t12 -67.5q0 -49 -26 -90.5t-82 -85.5q37 -25 62 -48.5t39.5 -46.5t20.5 -47.5t6 -50.5
q0 -38 -13.5 -70.5t-38.5 -56t-60 -37t-78 -13.5zM225 56q58 0 90 31t32 85q0 21 -3.5 39t-17.5 37t-41 40.5t-73 48.5q-60 -40 -84.5 -80t-24.5 -86q0 -53 32 -84t90 -31zM225 644q-48 0 -75 -27.5t-27 -76.5q0 -25 7.5 -44.5t22 -37t36 -33t48.5 -31.5q23 19 40 35.5
t28 33t16.5 35.5t5.5 42q0 49 -27 76.5t-75 27.5z" />
    <glyph glyph-name="uniF739" unicode="&#xf739;" horiz-adv-x="460" 
d="M165 -192q-21 0 -37.5 3t-28.5 7q-14 4 -24 11v67q10 -8 24 -14q12 -5 28.5 -9.5t37.5 -4.5q90 0 134 71t54 225h-2q-17 -45 -55 -75.5t-91 -30.5q-75 0 -122.5 57.5t-47.5 176.5q0 63 15.5 106.5t42 70.5t60.5 39t72 12q39 0 74 -16.5t60.5 -53.5t40.5 -95t15 -141
q0 -115 -18 -192.5t-51 -125t-79 -68t-102 -20.5zM225 116q22 0 43.5 12t38.5 35t27.5 55.5t10.5 73.5q0 40 -10 71.5t-26.5 53t-38 32.5t-45.5 11q-56 0 -90 -39.5t-34 -128.5q0 -91 34 -133.5t90 -42.5z" />
    <glyph glyph-name="uniFEFF" unicode="&#xfeff;" horiz-adv-x="0" 
 />
    <glyph glyph-name="dotlessi1" horiz-adv-x="204" 
d="M70 500h64v-500h-64v500z" />
    <glyph glyph-name="franc.fitted" horiz-adv-x="420" 
d="M91 142h-80v56h80v502h300v-58h-234v-253h204v-58h-204v-133h134v-56h-134v-142h-66v142z" />
    <glyph glyph-name="uni20BC.fitted" horiz-adv-x="570" 
d="M30 0q0 151 17.5 254t48 167.5t71 95.5t85.5 38v145h66v-145q45 -7 85.5 -38t71 -95.5t48 -167.5t17.5 -254h-68q0 136 -12 227.5t-33 148.5t-49 83.5t-60 34.5v-494h-66v494q-32 -8 -60 -34.5t-49 -83.5t-33 -148.5t-12 -227.5h-68v0z" />
    <glyph glyph-name="uni20BE.fitted" horiz-adv-x="530" 
d="M68 57h107q-54 39 -84.5 111.5t-30.5 181.5q0 75 11.5 132.5t31 99.5t46.5 69.5t57 41.5v107h44v-94q5 1 11.5 1.5t13.5 0.5q6 0 13 -0.5t12 -1.5v94h44v-107q30 -14 57 -41.5t46.5 -69.5t31 -99.5t11.5 -132.5h-68q0 112 -22.5 176.5t-55.5 93.5v-270h-44v295
q-14 3 -25 3q-13 0 -25 -3v-295h-44v270q-33 -29 -55.5 -93.5t-22.5 -176.5q0 -76 16 -131t43 -91t62.5 -53.5t75.5 -17.5h131v-57h-388v57z" />
    <glyph glyph-name="uni058F.fitted" horiz-adv-x="500" 
d="M344 168h-129v56h129v82h-129v56h129v98q0 51 -10 87t-27 59t-40.5 33.5t-51.5 10.5q-56 0 -92.5 -44.5t-36.5 -145.5v-50h-66v50q0 61 15 107.5t41 77.5t62 47t77 16t76.5 -16t62 -47t41.5 -77.5t15 -107.5v-98h60v-56h-60v-82h60v-56h-60v-168h-66v168z" />
    </font>
</defs>
</svg>
