<svg xmlns="http://www.w3.org/2000/svg" xmlns:xlink="http://www.w3.org/1999/xlink" width="51" height="48" viewBox="0 0 51 48">
    <defs>
        <path id="a" d="M.4.596h18.375v7.667H.4z"/>
    </defs>
    <g fill="none" fill-rule="evenodd">
        <path stroke="#002882" stroke-width="2" d="M44.867 47H6.133C3.3 47 1 44.712 1 41.89V6.11C1 3.287 3.299 1 6.133 1h38.734C47.702 1 50 3.288 50 6.11v35.78c0 2.822-2.298 5.11-5.133 5.11z"/>
        <path stroke="#0AF" stroke-width="2" d="M44.989 24.277c0-10.713-8.726-19.397-19.49-19.397-10.762 0-19.488 8.684-19.488 19.397S14.737 43.675 25.5 43.675s19.489-8.685 19.489-19.398z"/>
        <g transform="translate(16.313 20.167)">
            <mask id="b" fill="#fff">
                <use xlink:href="#a"/>
            </mask>
            <path fill="#002882" d="M4.6 4.178v.026c.306.106.6.292.753.411.474.372.684.863.684 1.5 0 1.047-.587 1.803-1.55 2.042-.292.08-.6.106-1.171.106H.4V.596h2.58c.531 0 .894.027 1.215.106.935.24 1.548.85 1.548 1.818 0 .517-.195.955-.516 1.246a1.96 1.96 0 0 1-.628.412zm-2.582.809v2.016h1.116c.335 0 .642-.027.865-.226.224-.199.321-.45.321-.782 0-.252-.07-.49-.209-.663-.237-.279-.53-.345-1.032-.345h-1.06zM2.004 3.66h.907c.28 0 .419 0 .558-.04.377-.106.614-.424.614-.862 0-.517-.251-.742-.614-.849-.153-.04-.307-.053-.614-.053h-.85V3.66zm6.46 4.603v-6.38h-2.33V.596h6.474l-.46 1.287h-2.065v6.38H8.464zm4.646 0V.596h5.246l-.46 1.287h-3.181V3.58h1.297c1.047 0 1.59.238 1.968.544.292.238.795.769.795 1.817 0 1.034-.516 1.605-.949 1.897-.502.331-1.032.424-2.107.424H13.11zm1.605-1.287h1.214c.46 0 .739-.106.934-.344.098-.12.237-.332.237-.73 0-.398-.139-.677-.418-.875-.167-.12-.39-.186-.767-.186h-1.2v2.135z" mask="url(#b)"/>
        </g>
    </g>
</svg>
