<svg xmlns="http://www.w3.org/2000/svg" width="66" height="62" viewBox="0 0 66 62"><defs><clipPath id="9t4ja"><path d="M21.52 26.78h24v10h-24z"/></clipPath></defs><g><g><g><path fill="none" stroke="#002882" stroke-miterlimit="50" stroke-width="2" d="M58.295 61H7.705C4.002 61 1 58.016 1 54.336V7.664C1 3.984 4.002 1 7.705 1h50.59C62 1 65 3.984 65 7.664v46.672C65 58.016 61.999 61 58.295 61z"/></g><g><path fill="none" stroke="#002882" stroke-miterlimit="50" stroke-width="2" d="M58.46 31.361c0-13.973-11.397-25.301-25.455-25.301C18.946 6.06 7.55 17.388 7.55 31.361c0 13.974 11.396 25.301 25.455 25.301 14.058 0 25.454-11.327 25.454-25.3z"/></g><g><g/><g clip-path="url(#9t4ja)"><path fill="#002882" d="M40.217 32.316h1.562c.49 0 .781.087 1 .242.363.258.544.62.544 1.138 0 .517-.181.792-.308.948-.255.31-.618.448-1.218.448h-1.58zm1.312 4.464c1.403 0 2.096-.121 2.752-.553.565-.381 1.239-1.125 1.239-2.474 0-1.367-.656-2.06-1.039-2.37-.492-.399-1.202-.71-2.57-.71h-1.694v-2.215h4.155l.601-1.678h-6.852v10zm-7.362 0v-8.322h2.697l.601-1.678H29.01v1.678h3.043v8.322zm-10.551-8.356h1.107c.4 0 .6.017.8.07.471.138.798.434.798 1.111 0 .573-.309.99-.799 1.13-.181.052-.363.052-.726.052h-1.18zm1.403 4.083c.656 0 1.039.086 1.348.45.183.224.274.536.274.865 0 .432-.128.76-.42 1.02-.29.26-.692.294-1.13.294h-1.457v-2.63zm1.986-1.056a2.56 2.56 0 0 0 .82-.536c.42-.38.674-.951.674-1.626 0-1.263-.801-2.06-2.022-2.37-.42-.104-.893-.139-1.586-.139H21.52v10h3.809c.747 0 1.148-.035 1.53-.138 1.258-.312 2.023-1.298 2.023-2.665 0-.83-.273-1.47-.893-1.955a3.746 3.746 0 0 0-.984-.536z"/></g></g></g></g></svg>