<svg xmlns="http://www.w3.org/2000/svg" width="68" height="70" viewBox="0 0 68 70"><defs><clipPath id="shi2a"><path d="M0 .51h68v68.981H0z"/></clipPath></defs><g><g><g><g/><g clip-path="url(#shi2a)"><path fill="#002882" d="M0 32.843c.19-1.321.338-2.65.577-3.962 1.413-7.754 5.067-14.253 10.82-19.516C16.485 4.709 22.45 1.826 29.242.868c8.63-1.217 16.616.668 23.793 5.676 7.624 5.32 12.404 12.636 14.302 21.845.255 1.236.346 2.506.52 3.76.031.234.094.463.143.694v4.311c-.125.944-.237 1.89-.378 2.83-1.02 6.803-3.796 12.785-8.32 17.896-5.193 5.865-11.615 9.583-19.278 11.025-1.29.244-2.599.393-3.899.586h-4.25c-.93-.126-1.86-.24-2.787-.382-6.706-1.035-12.605-3.846-17.643-8.437-5.78-5.268-9.45-11.78-10.868-19.558-.239-1.311-.387-2.64-.577-3.96zm34.178 34.36c17.608-.119 31.65-14.432 31.578-32.185C65.68 16.949 51.582 2.703 33.863 2.793c-17.63.089-31.713 14.446-31.609 32.22.106 18.085 14.213 32.31 31.924 32.19z"/></g></g><g><path fill="#002882" d="M32.018 26.95c0-2.585-.002-5.17 0-7.755.002-.932.4-1.444 1.11-1.445.713-.001 1.114.51 1.114 1.441.002 4.856.01 9.712-.012 14.568-.002.535.16.886.533 1.242 5.174 4.947 10.335 9.91 15.498 14.868.103.099.21.194.308.297.516.545.572 1.185.15 1.678-.442.519-1.116.542-1.681.007-1.417-1.34-2.816-2.7-4.222-4.05-4.014-3.855-8.02-7.719-12.051-11.555-.547-.52-.776-1.065-.765-1.831.039-2.488.015-4.977.015-7.465z"/></g></g></g></svg>