<svg xmlns="http://www.w3.org/2000/svg" xmlns:xlink="http://www.w3.org/1999/xlink" width="68" height="70" viewBox="0 0 68 70">
    <defs>
        <path id="a" d="M0 .004h68v68.981H0z"/>
    </defs>
    <g fill="none" fill-rule="evenodd">
        <g transform="translate(0 .507)">
            <mask id="b" fill="#fff">
                <use xlink:href="#a"/>
            </mask>
            <path fill="#0A2896" d="M2.254 34.507c.106 18.085 14.211 32.31 31.92 32.19 17.604-.118 31.645-14.432 31.572-32.185C65.67 16.443 51.574 2.197 33.858 2.287c-17.626.09-31.708 14.446-31.604 32.22zM0 32.337c.19-1.321.338-2.65.577-3.962C1.99 20.622 5.644 14.123 11.397 8.86 16.485 4.204 22.45 1.32 29.242.362c8.63-1.217 16.616.668 23.793 5.676 7.624 5.32 12.404 12.636 14.302 21.845.255 1.236.346 2.507.52 3.76.031.234.094.463.143.694v4.311c-.125.944-.237 1.89-.378 2.83-1.02 6.803-3.796 12.785-8.32 17.896-5.193 5.865-11.615 9.583-19.278 11.026-1.29.243-2.599.393-3.9.585h-4.25c-.928-.126-1.86-.239-2.786-.382-6.706-1.035-12.605-3.846-17.643-8.437-5.78-5.268-9.45-11.78-10.868-19.557-.239-1.312-.387-2.64-.577-3.96v-4.312z" mask="url(#b)"/>
        </g>
        <path fill="#0AF" d="M32.018 26.954c0-2.585-.002-5.17 0-7.755.002-.932.4-1.445 1.11-1.445.713-.001 1.114.51 1.114 1.44.002 4.857.01 9.713-.012 14.568-.002.535.16.886.533 1.243 5.174 4.947 10.335 9.909 15.498 14.867.103.1.21.194.308.298.516.545.572 1.184.15 1.678-.442.518-1.116.542-1.681.007-1.417-1.34-2.816-2.7-4.222-4.05-4.014-3.856-8.02-7.719-12.051-11.556-.547-.52-.776-1.064-.765-1.83.039-2.488.015-4.977.015-7.465h.003z"/>
    </g>
</svg>
