<svg xmlns="http://www.w3.org/2000/svg" width="53" height="68" viewBox="0 0 53 68">
    <g fill="none" fill-rule="evenodd" stroke-width="2">
        <path stroke="#0A2896" d="M26.628 67h-.248c-.217-.192-.422-.395-.65-.571-5.703-4.39-10.854-9.371-15.274-15.14-3-3.913-5.552-8.098-7.288-12.768-2.552-6.87-3.055-13.805-.405-20.79 1.626-4.29 4.173-7.91 7.64-10.804 4.122-3.442 8.836-5.416 14.15-5.842 5.042-.408 9.788.658 14.198 3.159 4.87 2.762 8.511 6.77 10.862 11.979 2.469 5.468 3.005 11.15 1.69 17.022-1.028 4.594-2.981 8.776-5.454 12.704-4.414 7.016-9.949 12.999-16.125 18.377-1.028.895-2.063 1.783-3.096 2.674z"/>
        <path stroke="#0AF" d="M38 26.5C38 20.701 33.299 16 27.5 16S17 20.701 17 26.5 21.701 37 27.5 37 38 32.299 38 26.5z"/>
    </g>
</svg>
