<svg xmlns="http://www.w3.org/2000/svg" width="60" height="59" viewBox="0 0 60 59"><defs><clipPath id="tzbqa"><path d="M0 .15h59.266v58.106H0z"/></clipPath></defs><g><g><g><g/><g clip-path="url(#tzbqa)"><path fill="#fff" d="M59.255 28.921c.102 14.803-11.15 27.353-26.046 29.127C18.3 59.822 4.174 50.114.77 35.752-3.203 18.997 8.654 2.339 26.058.309c2.01-.235 4.066-.15 6.099-.115.995.017 1.155.371.852 1.308-1.318 4.095.862 7.752 5.151 8.64 1.034.215 1.145.428.81 1.443-.863 2.612-.47 5.019 1.536 6.968 2.005 1.947 4.456 2.328 7.116 1.46.982-.321 1.282-.15 1.455.843.683 3.959 4.605 6.286 8.562 5.081 1.29-.392 1.542-.234 1.61 1.077.033.634.006 1.271.006 1.907M31.315 1.655C22.967.856 11.154 4.675 4.9 15.869-1.082 26.581.905 40.144 9.687 48.75c8.797 8.622 22.647 10.564 33.522 4.707 11.463-6.173 15.308-17.826 14.493-25.92-5.014.751-8.308-1.35-10.096-5.91-6.27 1.612-11.908-3.867-10.273-10.066-4.665-1.746-6.773-4.994-6.019-9.906"/></g></g><g><path fill="#fff" d="M26.042 34.99c3.574.045 6.627 3.129 6.585 6.654-.04 3.447-3.188 6.462-6.718 6.435-3.62-.028-6.69-3.13-6.628-6.702.06-3.445 3.219-6.43 6.761-6.387m5.105 6.562c.007-2.873-2.213-5.085-5.127-5.108-2.983-.022-5.248 2.164-5.256 5.07-.008 2.911 2.247 5.121 5.215 5.11 2.921-.007 5.16-2.207 5.168-5.072"/></g><g><path fill="#fff" d="M19.28 25.482c.021-2.677 2.454-5.042 5.188-5.042 2.77 0 5.21 2.414 5.19 5.132-.02 2.671-2.464 5.047-5.188 5.046-2.772-.001-5.209-2.413-5.19-5.136m5.317-3.587c-2.135-.05-3.763 1.423-3.832 3.467-.073 2.13 1.449 3.741 3.586 3.8 2.122.059 3.764-1.426 3.833-3.467.072-2.128-1.46-3.752-3.587-3.8"/></g><g><path fill="#fff" d="M9.629 32.07c-1.91 0-3.682-1.726-3.699-3.598-.016-1.918 1.755-3.67 3.713-3.672 1.906-.001 3.68 1.722 3.7 3.594.02 1.911-1.765 3.678-3.714 3.676m2.232-3.666c-.018-1.28-.927-2.153-2.238-2.147-1.346.005-2.247.928-2.208 2.262.036 1.271.968 2.132 2.28 2.104 1.297-.027 2.183-.934 2.166-2.22"/></g><g><path fill="#fff" d="M45.225 40.8c-1.908-.002-3.68-1.727-3.695-3.598-.015-1.92 1.758-3.672 3.714-3.672 1.907 0 3.68 1.725 3.699 3.598.018 1.91-1.767 3.676-3.718 3.672m2.235-3.616c.009-1.284-.88-2.18-2.182-2.198-1.32-.02-2.235.836-2.264 2.114-.031 1.325.883 2.248 2.224 2.247 1.309-.002 2.212-.883 2.222-2.163"/></g><g><path fill="#fff" d="M23.726 11.737c-.018 1.495-1.476 2.895-2.996 2.876-1.529-.02-2.949-1.443-2.93-2.939.019-1.5 1.468-2.891 2.994-2.874 1.53.019 2.95 1.442 2.932 2.937m-2.929 1.42c.899-.014 1.488-.62 1.46-1.503-.026-.846-.6-1.39-1.473-1.395-.917-.006-1.503.562-1.502 1.455.002.884.603 1.458 1.515 1.443"/></g><g><path fill="#fff" d="M38.56 21.973c-.05 1.497-1.53 2.876-3.044 2.832-1.528-.045-2.93-1.495-2.885-2.986.046-1.507 1.514-2.872 3.04-2.828 1.53.044 2.937 1.498 2.888 2.982m-2.92 1.38c.894-.022 1.47-.634 1.438-1.522-.034-.879-.658-1.428-1.574-1.387-.858.039-1.4.616-1.387 1.473.013.889.616 1.458 1.523 1.436"/></g><g><path fill="#fff" d="M41.516 45.15c.01 1.494-1.424 2.915-2.948 2.922-1.526.01-2.969-1.393-2.978-2.89-.01-1.5 1.418-2.913 2.947-2.922 1.526-.01 2.97 1.393 2.979 2.89m-2.883-1.434c-.92-.033-1.532.516-1.558 1.4-.027.89.551 1.49 1.454 1.504.869.014 1.469-.523 1.515-1.358.048-.893-.517-1.513-1.411-1.546"/></g></g></g></svg>