<svg xmlns="http://www.w3.org/2000/svg" width="177" height="14" viewBox="0 0 177 14"><g><g><path fill="#f1361d" d="M12.837 0c1.828 0 3.018.36 3.64 1.104.44.521.597 1.225.491 2.146l-.345 2.984-.259 2.263C16.17 10.197 15.595 11 11.2 11h-.209c-2.875 0-3.717-1.222-3.919-2.244-.23-1.167.067-2.803 1.268-3.642a6.29 6.29 0 0 1 2.458-.889c1.153-.23 2.93-.486 2.93-.486l.036-.297a1.159 1.159 0 0 0-.253-1.019c-.41-.414-1.223-.484-2.688-.219-.618.117-1.228.27-1.831.455a.101.101 0 0 1-.095 0 .136.136 0 0 1-.052-.087l-.22-1.567a.226.226 0 0 1 .121-.222A11.126 11.126 0 0 1 12.837 0zm.696 5.678s-.813.094-1.831.297c-1.019.204-1.516.764-1.516 1.657-.022.375.101.743.34 1.018.373.315.845.466 1.318.42.424.01.848-.046 1.256-.165h.037l.26-2.237c0-.011.088-.896.088-.896z"/></g><g><path fill="#f1361d" d="M53.934 0c1.51.047 3.416.47 3.916 2.26.15.56.188 1.146.112 1.722v.114c-.32 3.207-.664 4.39-.9 4.813-.765 1.374-2.336 2.09-4.662 2.09-1.296.016-3.549-.239-4.199-2.103a4.333 4.333 0 0 1-.174-1.793c.004-.04.305-3.85.934-4.973C49.74.721 51.308 0 53.615 0h.32m.533 6.948c.247-2.061.37-3.27.363-3.464a1.417 1.417 0 0 0-.527-1.143 1.6 1.6 0 0 0-.957-.242 1.679 1.679 0 0 0-1.089.391 2.252 2.252 0 0 0-.689 1.442l-.062.463c-.134 1-.384 2.861-.363 3.162.031.465.265.887.631 1.134a1.7 1.7 0 0 0 1.042.2 1.611 1.611 0 0 0 1.121-.473c.315-.398.501-.895.53-1.416v-.054"/></g><g><path fill="#f1361d" d="M47.887 1h-1.444a2.296 2.296 0 0 0-1.963.995l-3.662 4.402.099-.26.644-4.996a.1.1 0 0 0-.03-.092.118.118 0 0 0-.091-.041h-3.01a.181.181 0 0 0-.17.144L37 10.883a.109.109 0 0 0 .027.088c.024.019.055.03.087.029h1.573c.784.01 1.52-.372 1.949-1.008l3.578-4.501-.118.279-.652 5.099a.125.125 0 0 0 .026.09.134.134 0 0 0 .1.04h3.005a.18.18 0 0 0 .17-.146l1.252-9.743a.093.093 0 0 0-.024-.084.13.13 0 0 0-.087-.025"/></g><g><path fill="#f1361d" d="M68.867 1.005l-3.122.364a.214.214 0 0 0-.181.167l-.444 3.382-.023.138h-2.983l.517-3.942a.11.11 0 0 0-.027-.088.12.12 0 0 0-.088-.02l-3.122.363a.213.213 0 0 0-.181.167L58 10.87a.115.115 0 0 0 .03.091.12.12 0 0 0 .093.04h3.064a.18.18 0 0 0 .178-.149l.494-3.734v-.03h2.986l-.497 3.782a.112.112 0 0 0 .03.091c.023.026.057.04.093.04h.771c1.413 0 2.45-.16 2.67-1.7l1.084-8.186a.098.098 0 0 0-.022-.088.117.117 0 0 0-.108-.02"/></g><g><path fill="#f1361d" d="M36.739 3.188l.26-2.004a.11.11 0 0 0-.03-.092.127.127 0 0 0-.096-.04H25.339a.82.82 0 0 0-.552.245l-3.223 3.758h-.46l.517-3.944a.092.092 0 0 0-.026-.084.112.112 0 0 0-.09-.026l-3.1.365a.21.21 0 0 0-.18.168l-1.222 9.335a.095.095 0 0 0 .026.091c.024.025.06.04.096.04h3.066a.186.186 0 0 0 .173-.146l.494-3.769h.476l2.211 3.773a.33.33 0 0 0 .25.142h3.3c.054 0 .107-.026.061-.113l-3.02-4.79 2.506-2.759h3.622l-.984 7.53a.095.095 0 0 0 .026.092c.025.025.06.04.096.04h3.044a.177.177 0 0 0 .172-.146l.97-7.516h2.975a.182.182 0 0 0 .176-.15"/></g><g><path fill="#f1361d" d="M6.831 1H4.068a.727.727 0 0 0-.503.23L.113 5.453a.458.458 0 0 0-.05.532l2.682 4.763A.53.53 0 0 0 3.18 11h2.392c.17 0 .254-.11.17-.245L3.053 5.99l3.896-4.764C7.05 1.096 6.998 1 6.83 1"/></g><g><path fill="#f1361d" d="M76.94 6.018l-2.683-4.766A.534.534 0 0 0 73.823 1h-2.395c-.168 0-.251.11-.172.246l2.695 4.765-3.896 4.773c-.106.117-.055.216.117.216h2.763a.726.726 0 0 0 .499-.23l3.456-4.224a.465.465 0 0 0 .05-.528"/></g><g><path d="M81 10.763L82.295.237A.286.286 0 0 1 82.577 0h6.599a.168.168 0 0 1 .179.194l-.107.786a.226.226 0 0 1-.221.21H83.68L83.3 4.362h3.1c2.409 0 3.6.73 3.6 2.634.001.228-.013.456-.042.684-.297 2.426-1.684 3.32-4.365 3.32h-4.356a.226.226 0 0 1-.237-.213zm4.988-5.194h-2.86l-.52 4.24h2.86c1.669 0 2.74-.34 2.948-2.13.225-1.786-.765-2.11-2.428-2.11z"/></g><g><path d="M91.3 14a8.536 8.536 0 0 1-1.143-.073.16.16 0 0 1-.157-.16c0-.013.002-.024.005-.036l.09-.702c0-.107.093-.165.23-.165h.866c.78 0 1.234-.166 1.56-.976l.46-1.027h-.713a.268.268 0 0 1-.276-.238l-1.546-7.368a.22.22 0 0 1 .227-.253h1.065a.226.226 0 0 1 .256.189v.018l1.172 6.677h.39l2.665-6.677a.29.29 0 0 1 .288-.207h1.097c.09 0 .164.072.164.161v.004a.297.297 0 0 1-.028.119l-3.819 8.665C93.553 13.363 93.002 14 91.3 14"/></g><g><path d="M105.257 10.695c.06.09.037.21-.05.27a.177.177 0 0 1-.1.034h-1.109a.209.209 0 0 1-.207-.12l-1.782-3.186-2.427 3.17a.288.288 0 0 1-.253.136H98.13c-.15 0-.165-.195-.077-.304l3.175-3.826-2.08-3.595A.192.192 0 0 1 99.297 3h1.121a.287.287 0 0 1 .285.195l1.536 2.822 2.112-2.822a.38.38 0 0 1 .345-.195h1.152c.15 0 .196.195.103.305l-2.964 3.518z"/></g><g><path d="M106 8.872c0-1.675 1.045-2.312 2.816-2.557.74-.1 1.9-.23 1.9-1.242 0-.856-.755-1.026-1.62-1.026a9.818 9.818 0 0 0-2.023.259c-.086 0-.154 0-.154-.1l-.028-.742a.213.213 0 0 1 .182-.204 9.072 9.072 0 0 1 2.301-.259c1.242 0 2.626.39 2.626 2.054 0 1.605-1.173 2.153-2.626 2.397-.906.146-2.08.16-2.08 1.376 0 .897.813 1.082 1.622 1.082a7.95 7.95 0 0 0 2.248-.389.192.192 0 0 1 .082 0 .13.13 0 0 1 .14.122v.008l.067.74c0 .102-.068.16-.14.19a7.03 7.03 0 0 1-2.272.419c-1.327-.045-3.041-.289-3.041-2.128"/></g><g><path d="M119.921 5.514l-.462 3.784c-.13 1.03-.405 1.26-1.43 1.487a9.013 9.013 0 0 1-1.924.204 5.012 5.012 0 0 1-2.152-.334 1.694 1.694 0 0 1-.949-1.644c0-.493.098-.98.29-1.434.459-.985 1.37-1.115 2.466-1.275l2.775-.45c.055-.336.09-.675.104-1.015a.61.61 0 0 0-.422-.61 3.553 3.553 0 0 0-1.242-.145c-.882.039-1.757.174-2.61.402a1.28 1.28 0 0 1-.16.03.126.126 0 0 1-.13-.12l-.06-.743a.201.201 0 0 1 .16-.216A12.179 12.179 0 0 1 117.298 3c1.042 0 1.689.146 2.093.39.397.228.631.66.607 1.117-.004.267-.059.787-.077 1.007m-5.3 2.382c-.152.291-.226.616-.216.945a1 1 0 0 0 .372.825c.37.305.958.334 1.485.334a6.252 6.252 0 0 0 1.812-.245l.371-2.873-2.622.42c-.52.067-.94.137-1.203.594"/></g><g><path d="M121.246 11c-.16 0-.26-.106-.245-.242l.086-.704a.257.257 0 0 1 .26-.242c1.289-.09 1.375-.961 1.579-2.712l.444-3.873a.246.246 0 0 1 .248-.226h5.192a.176.176 0 0 1 .189.166c.002.02.001.04-.003.06l-.88 7.546a.232.232 0 0 1-.233.227h-.897c-.145 0-.23-.09-.215-.227l.797-6.737h-2.996l-.345 3.048c-.289 2.5-.768 3.916-2.981 3.916"/></g><g><path d="M141.957 5.25l-.648 5.5a.222.222 0 0 1-.224.221h-.89a.178.178 0 0 1-.188-.166.21.21 0 0 1 .003-.055l.622-5.398c.017-.138.026-.277.03-.415a.91.91 0 0 0-.185-.61 1.215 1.215 0 0 0-.959-.297c-.835.024-1.664.152-2.47.38l-.724 6.352a.226.226 0 0 1-.231.222l-.008-.001h-.876a.176.176 0 0 1-.197-.154.196.196 0 0 1 .002-.067l.622-5.44c.017-.11.026-.218.03-.328a.915.915 0 0 0-.229-.698 1.255 1.255 0 0 0-.915-.251c-.839.025-1.671.153-2.482.38l-.723 6.352a.228.228 0 0 1-.239.22h-.875a.178.178 0 0 1-.2-.158.191.191 0 0 1 0-.062l.724-6.229c.069-.595.184-.835.93-1.087.999-.288 2.028-.443 3.064-.461.886 0 1.48.194 1.834.55a11.099 11.099 0 0 1 3.173-.55c.904 0 1.537.149 1.907.55.26.315.39.726.361 1.143a5.649 5.649 0 0 1-.04.556"/></g><g><path d="M145.37 8.197c0 1.32.768 1.77 2.302 1.77a5.967 5.967 0 0 0 2.087-.434c.145-.06.217 0 .231.13l.087.655c0 .116-.027.186-.173.246a7.345 7.345 0 0 1-2.538.436c-2.45 0-3.366-.93-3.366-2.903.005-.365.029-.73.07-1.091.308-2.51 1.067-4.006 3.938-4.006 1.926 0 2.992.745 2.992 2.338 0 2.263-1.402 2.498-3.444 2.498h-2.172a2.71 2.71 0 0 0-.015.36m4.3-2.698c.03-1.001-.478-1.467-1.75-1.467-1.836 0-2.288 1.047-2.434 2.859h2.217c1.354 0 1.937-.19 1.967-1.392"/></g><g><path d="M159.895 7.036c-.347 2.722-1.26 4.045-4.028 4.045a8.752 8.752 0 0 1-2.234-.279l.058.882-.243 1.884a.26.26 0 0 1-.229.223l-1.018.204c-.137.03-.215-.072-.199-.204l1.17-9.159c.075-.648.195-.897.972-1.161.983-.302 2.009-.46 3.041-.471 1.034 0 1.705.218 2.145.634.502.466.67 1.19.67 2.084-.006.441-.042.882-.105 1.318m-1.634-2.439c-.288-.456-.819-.542-1.56-.542-.708.037-1.412.145-2.098.32l-.682 5.44c.63.162 1.279.24 1.93.235 1.658 0 2.297-.704 2.585-3.01.056-.41.086-.82.09-1.23a2.26 2.26 0 0 0-.265-1.213"/></g><g><path d="M167.428 8.024C167.24 9.55 166.714 11 163.875 11c-1.185 0-1.94-.23-2.381-.71a2.082 2.082 0 0 1-.488-1.51c.007-.25.027-.498.059-.745l.542-4.598a.24.24 0 0 1 .212-.215l.944-.205a.17.17 0 0 1 .197.205l-.6 4.932a4.278 4.278 0 0 0-.04.536c0 1.03.64 1.305 1.683 1.305 1.698 0 1.968-.84 2.082-1.859l.57-4.699a.237.237 0 0 1 .216-.245l.926-.19a.175.175 0 0 1 .2.148.183.183 0 0 1 0 .057z"/></g><g/><g><path d="M169.234 9.28c.197-1.278.787-1.782 1.95-1.904v-.214c-1.028-.195-1.415-.73-1.415-1.563.004-.13.014-.261.031-.39.201-1.646 1.261-2.208 2.903-2.208h4.091a.184.184 0 0 1 .2.227l-.936 7.544a.235.235 0 0 1-.244.227h-.953a.197.197 0 0 1-.219-.172.188.188 0 0 1 .002-.055l.393-3.016-2.44.074c-1.229.047-1.706.426-1.86 1.524l-.2 1.418a.25.25 0 0 1-.26.227h-1.043c-.154-.012-.249-.101-.232-.24zm3.52-5.256c-.956 0-1.37.491-1.48 1.376-.154 1.15.6 1.346 1.578 1.377l2.309.09.355-2.843z"/></g></g></svg>