<svg xmlns="http://www.w3.org/2000/svg" width="194" height="69" viewBox="0 0 194 69"><g><g><g><path fill="#0af" d="M49.486 27.623l-3.333 9.223H0l3.329-9.223zm4.977-13.81l-3.328 9.223H4.988l3.332-9.222zM59.474 0l-3.333 9.212H9.984L13.317 0z"/></g><g><path fill="#fff" d="M166.07 44.398h8.165c2.566 0 4.088.484 5.225 1.34 1.9 1.434 2.848 3.446 2.848 6.314s-.948 4.395-1.613 5.26c-1.332 1.719-3.228 2.482-6.363 2.482h-8.262zm6.843 24.669c7.312 0 10.924-.666 14.346-3.058 2.942-2.103 6.457-6.217 6.457-13.667 0-7.557-3.418-11.378-5.416-13.1-2.562-2.2-6.271-3.918-13.394-3.918h-8.833V23.09h21.658l3.136-9.27h-35.723v55.247zm-38.371 0V23.09h14.06l3.135-9.27h-44.083v9.27h15.867v45.977zm-55-46.17h5.793c2.09 0 3.135.094 4.18.382 2.469.764 4.18 2.39 4.18 6.123 0 3.157-1.614 5.448-4.18 6.216-.948.285-1.9.285-3.801.285h-6.173zm7.314 22.557c3.417 0 5.414.475 7.028 2.481.952 1.248 1.424 2.966 1.424 4.782 0 2.398-.666 4.213-2.187 5.647-1.516 1.43-3.606 1.625-5.886 1.625h-7.597V45.454zm10.353-5.83c1.992-.86 3.324-2.006 4.272-2.964 2.187-2.1 3.514-5.254 3.514-8.977 0-6.985-4.175-11.382-10.542-13.1-2.183-.572-4.656-.763-8.263-.763H68.62v55.247h19.85c3.897 0 5.983-.19 7.98-.763 6.552-1.722 10.542-7.171 10.542-14.72 0-4.588-1.424-8.125-4.656-10.805-1.045-.856-3.038-2.196-5.127-2.964z"/></g></g></g></svg>