<svg xmlns="http://www.w3.org/2000/svg" width="428" height="152" viewBox="0 0 428 152"><defs><clipPath id="65ufa"><path d="M151.42 30.23h275.832v120.929H151.42z"/></clipPath></defs><g><g><g><path fill="#0af" d="M29.366 0L22.02 20.155h101.785L131.149 0z"/></g><g><path fill="#0af" d="M120.127 30.23H18.344L11 50.385h101.783z"/></g><g><path fill="#0af" d="M7.344 60.47L0 80.625h101.783l7.344-20.155z"/></g><g><g/><g clip-path="url(#65ufa)"><path fill="#002882" d="M366.307 97.18h18.011c5.653 0 9.005 1.047 11.518 2.93 4.188 3.137 6.283 7.532 6.283 13.809 0 6.276-2.095 9.622-3.56 11.507-2.932 3.764-7.12 5.439-14.031 5.439h-18.221zm15.078 53.979c16.127 0 24.085-1.463 31.626-6.693 6.492-4.604 14.241-13.601 14.241-29.918 0-16.53-7.54-24.899-11.938-28.665-5.655-4.813-13.823-8.58-29.531-8.58h-19.476V50.525h47.75l6.912-20.294h-78.75v120.929zm-84.614 0V50.524h30.998l6.91-20.294H237.5v20.294h34.977V151.16zM175.505 50.106h12.773c4.606 0 6.909.21 9.211.836 5.444 1.674 9.213 5.231 9.213 13.39 0 6.904-3.56 11.927-9.213 13.6-2.093.628-4.187.628-8.374.628h-13.61zm16.122 49.377c7.538 0 11.935 1.045 15.495 5.438 2.093 2.721 3.141 6.485 3.141 10.463 0 5.231-1.466 9.204-4.817 12.343-3.348 3.138-7.956 3.556-12.98 3.556h-16.75v-31.8zm22.835-12.764c4.398-1.883 7.33-4.393 9.423-6.485 4.818-4.602 7.75-11.506 7.75-19.667 0-15.274-9.214-24.899-23.247-28.665-4.818-1.254-10.262-1.672-18.223-1.672H151.42v120.929h43.773c8.586 0 13.195-.418 17.593-1.674 14.45-3.765 23.248-15.69 23.248-32.218 0-10.043-3.142-17.784-10.262-23.642-2.305-1.884-6.703-4.814-11.31-6.488z"/></g></g></g></g></svg>