<svg xmlns="http://www.w3.org/2000/svg" width="17" height="7" viewBox="0 0 17 7"><g><g><path fill="#d6d6d6" d="M9.553 3.58c-.026.232-.047.427-.076.625-.058.448-.115.897-.179 1.343a.171.171 0 0 1-.09.124c-.419.113-.86.133-1.289.059-.573-.11-.756-.548-.704-1.022.053-.474.362-.75.814-.856.495-.114.998-.181 1.524-.274zM8.025 7c.462-.025.927-.025 1.384-.064a7.397 7.397 0 0 0 1.176-.225c.5-.122.867-.534.919-1.03.08-.526.144-1.053.213-1.58.078-.588.153-1.176.226-1.765.04-.32.092-.642.025-.966-.117-.575-.495-.918-1.041-1.12A4.565 4.565 0 0 0 9.347 0c-.449 0-.897.024-1.344.071-.59.066-1.169.2-1.725.4a.16.16 0 0 0-.103.071.15.15 0 0 0-.016.12c.049.29.092.582.136.873.022.15.034.16.182.12a10.49 10.49 0 0 1 1.793-.344c.339-.03.684-.05 1.012.06a.609.609 0 0 1 .46.515c.01.146.005.293-.015.438a.128.128 0 0 1-.093.064c-.53.08-1.061.15-1.59.233a8.281 8.281 0 0 0-1.623.385C5.095 3.5 4.823 4.807 5.095 5.713c.183.604.669.912 1.26 1.092.542.165 1.104.195 1.67.195z"/></g><g><path fill="#d6d6d6" d="M3.907.002h.922A.727.727 0 0 1 5 .047a.684.684 0 0 1-.071.144c-.798.959-1.596 1.915-2.395 2.87-.098.118-.193.24-.296.353a.131.131 0 0 0-.013.183c.608 1.04 1.213 2.082 1.817 3.124.137.237.111.278-.17.278H2.372a.468.468 0 0 1-.453-.256A491.22 491.22 0 0 0 .073 3.545.346.346 0 0 1 .11 3.08L2.516.205A.563.563 0 0 1 2.97 0l.936.002z"/></g><g><path fill="#d6d6d6" d="M13.081 6.996h-.923A.666.666 0 0 1 12 6.954a.592.592 0 0 1 .066-.147 848.321 848.321 0 0 1 2.684-3.213.148.148 0 0 0 .012-.204c-.619-1.06-1.236-2.122-1.85-3.184-.08-.138-.041-.205.121-.206h1.673a.36.36 0 0 1 .334.188l1.902 3.291a.341.341 0 0 1-.045.435c-.817.964-1.63 1.932-2.44 2.905a.53.53 0 0 1-.425.18c-.317 0-.634-.003-.95-.003z"/></g></g></svg>