<?xml version="1.0" encoding="utf-8"?><svg viewBox="0 0 576 512" xmlns="http://www.w3.org/2000/svg" xmlns:xlink="http://www.w3.org/1999/xlink"><style>:root>svg{display:none}:root>svg:target{display:block}</style><svg viewBox="0 0 83 83" id="b1--1" xmlns="http://www.w3.org/2000/svg"><g fill="none" fill-rule="evenodd" stroke-linecap="square" stroke-width="2"><path stroke="#FFF" d="M73.464 16.522l-3.004 3.004a2.484 2.484 0 00-.33 3.107 34.033 34.033 0 014.708 11.362 2.485 2.485 0 002.43 1.963h4.272v10.57h-4.272a2.487 2.487 0 00-2.43 1.964 34.019 34.019 0 01-4.708 11.362 2.486 2.486 0 00.33 3.107l3.024 3.023-7.471 7.477-3.027-3.025a2.485 2.485 0 00-3.107-.33 34.052 34.052 0 01-11.362 4.708 2.485 2.485 0 00-1.963 2.43v4.289h-10.57v-4.29a2.49 2.49 0 00-1.964-2.43 34.03 34.03 0 01-11.361-4.707 2.486 2.486 0 00-3.107.33l-3.026 3.026-7.472-7.477 3.023-3.024a2.485 2.485 0 00.33-3.107A34.018 34.018 0 017.7 48.492a2.486 2.486 0 00-2.43-1.963H1.001l.005-10.57h4.263a2.485 2.485 0 002.43-1.964 34.024 34.024 0 014.709-11.362 2.485 2.485 0 00-.33-3.106l-3.005-3.005 7.478-7.47 3 3.001a2.487 2.487 0 003.108.33A33.994 33.994 0 0134.02 7.675a2.487 2.487 0 001.964-2.43V1h10.57v4.244c0 1.172.817 2.184 1.963 2.43a34.02 34.02 0 0111.362 4.708 2.483 2.483 0 003.106-.33l3.002-3 7.477 7.47z"/><path stroke="#0AF" d="M58.745 41.266c0-9.651-7.824-17.475-17.475-17.475-9.652 0-17.475 7.824-17.475 17.475 0 9.652 7.823 17.475 17.475 17.475 9.651 0 17.475-7.823 17.475-17.475z"/></g></svg><svg viewBox="0 0 64 82" id="b1--2" xmlns="http://www.w3.org/2000/svg"><g fill="none" fill-rule="evenodd" stroke-linecap="square" stroke-width="2"><path stroke="#0AF" d="M40.027 50.529c0-4.483-3.655-8.118-8.164-8.118-4.508 0-8.163 3.635-8.163 8.118 0 4.482 3.655 8.117 8.163 8.117 4.51 0 8.164-3.635 8.164-8.117zm-8.164 21.229V58.646"/><path stroke="#FFF" d="M31.864 81C14.818 81 1 67.26 1 50.312V29.783h61.727v20.53C62.727 67.26 48.909 81 31.864 81z"/><path stroke="#FFF" d="M62.727 20.471H1v9.596h61.727zm-11.281 0C51.446 9.717 42.679 1 31.864 1 21.048 1 12.28 9.717 12.28 20.471"/></g></svg><svg viewBox="0 0 72 88" id="b1--3" xmlns="http://www.w3.org/2000/svg"><g fill="none" fill-rule="evenodd" stroke-linecap="square" stroke-width="2"><path stroke="#FFF" d="M64.305 15.17A32.667 32.667 0 0142.01 6.384L36.245 1h-.49L29.99 6.384A32.666 32.666 0 017.695 15.17H1v35.285c0 8.48 4.26 16.394 11.344 21.075L35.755 87h.49l23.412-15.47A25.263 25.263 0 0071 50.455V15.17h-6.695z"/><path stroke="#0AF" d="M26.617 66.738l9.219 6.091h.328l15.697-10.371a16.937 16.937 0 007.605-14.13V24.67h-4.489a21.903 21.903 0 01-14.948-5.89l-3.865-3.61h-.328l-3.865 3.61a21.903 21.903 0 01-14.948 5.89h-4.489v23.657c0 2.707.648 5.33 1.84 7.672l12.243 10.738z"/></g></svg><svg viewBox="0 0 56 72" id="b2--1" xmlns="http://www.w3.org/2000/svg"><g stroke-width="2.25" fill="none" fill-rule="evenodd" stroke-linecap="round" stroke-linejoin="round"><path d="M54 33.86V14.456C32.875 14.457 28 2 28 2S23.126 14.457 2 14.457v19.402S1.594 53.46 28 70c26.406-16.54 26-36.14 26-36.14z" stroke="#0A2896"/><path d="M45 34.552V21.427C31.188 21.427 28 13 28 13s-3.187 8.427-17 8.427v13.125S10.735 47.81 28 59c17.265-11.19 17-24.448 17-24.448z" stroke="#0AF"/></g></svg><svg viewBox="0 0 68 70" id="b2--2" xmlns="http://www.w3.org/2000/svg"><defs><path id="ea" d="M0 .004h68v68.981H0z"/></defs><g fill="none" fill-rule="evenodd"><g transform="translate(0 .507)"><mask id="eb" fill="#fff"><use xlink:href="#ea"/></mask><path fill="#0A2896" d="M2.254 34.507c.106 18.085 14.211 32.31 31.92 32.19 17.604-.118 31.645-14.432 31.572-32.185C65.67 16.443 51.574 2.197 33.858 2.287c-17.626.09-31.708 14.446-31.604 32.22zM0 32.337c.19-1.321.338-2.65.577-3.962C1.99 20.622 5.644 14.123 11.397 8.86 16.485 4.204 22.45 1.32 29.242.362c8.63-1.217 16.616.668 23.793 5.676 7.624 5.32 12.404 12.636 14.302 21.845.255 1.236.346 2.507.52 3.76.031.234.094.463.143.694v4.311c-.125.944-.237 1.89-.378 2.83-1.02 6.803-3.796 12.785-8.32 17.896-5.193 5.865-11.615 9.583-19.278 11.026-1.29.243-2.599.393-3.9.585h-4.25c-.928-.126-1.86-.239-2.786-.382-6.706-1.035-12.605-3.846-17.643-8.437-5.78-5.268-9.45-11.78-10.868-19.557-.239-1.312-.387-2.64-.577-3.96v-4.312z" mask="url(#eb)"/></g><path fill="#0AF" d="M32.018 26.954c0-2.585-.002-5.17 0-7.755.002-.932.4-1.445 1.11-1.445.713-.001 1.114.51 1.114 1.44.002 4.857.01 9.713-.012 14.568-.002.535.16.886.533 1.243 5.174 4.947 10.335 9.909 15.498 14.867.103.1.21.194.308.298.516.545.572 1.184.15 1.678-.442.518-1.116.542-1.681.007-1.417-1.34-2.816-2.7-4.222-4.05-4.014-3.856-8.02-7.719-12.051-11.556-.547-.52-.776-1.064-.765-1.83.039-2.488.015-4.977.015-7.465h.003z"/></g></svg><svg viewBox="0 0 53 68" id="b2--3" xmlns="http://www.w3.org/2000/svg"><g fill="none" fill-rule="evenodd" stroke-width="2"><path stroke="#0A2896" d="M26.628 67h-.248c-.217-.192-.422-.395-.65-.571-5.703-4.39-10.854-9.371-15.274-15.14-3-3.913-5.552-8.098-7.288-12.768-2.552-6.87-3.055-13.805-.405-20.79 1.626-4.29 4.173-7.91 7.64-10.804 4.122-3.442 8.836-5.416 14.15-5.842 5.042-.408 9.788.658 14.198 3.159 4.87 2.762 8.511 6.77 10.862 11.979 2.469 5.468 3.005 11.15 1.69 17.022-1.028 4.594-2.981 8.776-5.454 12.704-4.414 7.016-9.949 12.999-16.125 18.377-1.028.895-2.063 1.783-3.096 2.674z"/><path stroke="#0AF" d="M38 26.5C38 20.701 33.299 16 27.5 16S17 20.701 17 26.5 21.701 37 27.5 37 38 32.299 38 26.5z"/></g></svg><svg viewBox="0 0 53 49" id="b4--1" xmlns="http://www.w3.org/2000/svg"><g fill="none" fill-rule="evenodd" stroke-width="2"><path stroke="#002882" d="M46.101 48H6.899C3.641 48 1 45.399 1 42.189V1h51v41.189C52 45.399 49.358 48 46.101 48z"/><path stroke="#0AF" d="M1 7.658h51"/><path stroke="#002882" d="M19.83 20.726l7.062-6.41v23.5"/></g></svg><svg viewBox="0 0 51 52" id="b4--2" xmlns="http://www.w3.org/2000/svg"><g fill="none" fill-rule="evenodd" stroke-width="2"><path stroke="#002882" d="M8.176 43.678a24.155 24.155 0 0034.648 0c9.568-9.763 9.568-25.592 0-35.356a24.156 24.156 0 00-34.648 0c-9.568 9.764-9.568 25.593 0 35.356z"/><path stroke="#0AF" d="M21.24 15.286v21.428m-4.617-6.071h15.623M20.975 15.286h7.252s5.44.357 5.44 5.357S28.227 26 28.227 26H16.623"/></g></svg><svg viewBox="0 0 48 30" id="b4--3" xmlns="http://www.w3.org/2000/svg"><g fill="none" fill-rule="evenodd" stroke-width="2"><path stroke="#002882" d="M45 10.333H2.642L13.702 1"/><path stroke="#0AF" d="M2.642 19.667H45L33.94 29"/></g></svg><svg viewBox="0 0 51 48" id="b4--4" xmlns="http://www.w3.org/2000/svg"><defs><path id="ja" d="M.4.596h18.375v7.667H.4z"/></defs><g fill="none" fill-rule="evenodd"><path stroke="#002882" stroke-width="2" d="M44.867 47H6.133C3.3 47 1 44.712 1 41.89V6.11C1 3.287 3.299 1 6.133 1h38.734C47.702 1 50 3.288 50 6.11v35.78c0 2.822-2.298 5.11-5.133 5.11z"/><path stroke="#0AF" stroke-width="2" d="M44.989 24.277c0-10.713-8.726-19.397-19.49-19.397-10.762 0-19.488 8.684-19.488 19.397S14.737 43.675 25.5 43.675s19.489-8.685 19.489-19.398z"/><g transform="translate(16.313 20.167)"><mask id="jb" fill="#fff"><use xlink:href="#ja"/></mask><path fill="#002882" d="M4.6 4.178v.026c.306.106.6.292.753.411.474.372.684.863.684 1.5 0 1.047-.587 1.803-1.55 2.042-.292.08-.6.106-1.171.106H.4V.596h2.58c.531 0 .894.027 1.215.106.935.24 1.548.85 1.548 1.818 0 .517-.195.955-.516 1.246a1.96 1.96 0 01-.628.412zm-2.582.809v2.016h1.116c.335 0 .642-.027.865-.226.224-.199.321-.45.321-.782 0-.252-.07-.49-.209-.663-.237-.279-.53-.345-1.032-.345h-1.06zM2.004 3.66h.907c.28 0 .419 0 .558-.04.377-.106.614-.424.614-.862 0-.517-.251-.742-.614-.849-.153-.04-.307-.053-.614-.053h-.85V3.66zm6.46 4.603v-6.38h-2.33V.596h6.474l-.46 1.287h-2.065v6.38H8.464zm4.646 0V.596h5.246l-.46 1.287h-3.181V3.58h1.297c1.047 0 1.59.238 1.968.544.292.238.795.769.795 1.817 0 1.034-.516 1.605-.949 1.897-.502.331-1.032.424-2.107.424H13.11zm1.605-1.287h1.214c.46 0 .739-.106.934-.344.098-.12.237-.332.237-.73 0-.398-.139-.677-.418-.875-.167-.12-.39-.186-.767-.186h-1.2v2.135z" mask="url(#jb)"/></g></g></svg><svg viewBox="0 0 68 70" id="clock-white" xmlns="http://www.w3.org/2000/svg"><defs><clipPath id="ka"><path d="M0 .51h68v68.981H0z"/></clipPath></defs><g clip-path="url(#ka)"><path fill="#fff" d="M0 32.843c.19-1.321.338-2.65.577-3.962 1.413-7.754 5.067-14.253 10.82-19.516C16.485 4.709 22.45 1.826 29.242.868c8.63-1.217 16.616.668 23.793 5.676 7.624 5.32 12.404 12.636 14.302 21.845.255 1.236.346 2.506.52 3.76.031.234.094.463.143.694v4.311c-.125.944-.237 1.89-.378 2.83-1.02 6.803-3.796 12.785-8.32 17.896-5.193 5.865-11.615 9.583-19.278 11.025-1.29.244-2.599.393-3.899.586h-4.25c-.93-.126-1.86-.24-2.787-.382-6.706-1.035-12.605-3.846-17.643-8.437-5.78-5.268-9.45-11.78-10.868-19.558-.239-1.311-.387-2.64-.577-3.96zm34.178 34.36c17.608-.119 31.65-14.432 31.578-32.185C65.68 16.949 51.582 2.703 33.863 2.793c-17.63.089-31.713 14.446-31.609 32.22.106 18.085 14.213 32.31 31.924 32.19z"/></g><g><path fill="#fff" d="M32.018 26.95c0-2.585-.002-5.17 0-7.755.002-.932.4-1.444 1.11-1.445.713-.001 1.114.51 1.114 1.441.002 4.856.01 9.712-.012 14.568-.002.535.16.886.533 1.242 5.174 4.947 10.335 9.91 15.498 14.868.103.099.21.194.308.297.516.545.572 1.185.15 1.678-.442.519-1.116.542-1.681.007-1.417-1.34-2.816-2.7-4.222-4.05-4.014-3.855-8.02-7.719-12.051-11.555-.547-.52-.776-1.065-.765-1.831.039-2.488.015-4.977.015-7.465z"/></g></svg><svg viewBox="0 0 60 59" id="cookie" xmlns="http://www.w3.org/2000/svg"><defs><clipPath id="la"><path d="M0 .15h59.266v58.106H0z"/></clipPath></defs><g clip-path="url(#la)"><path fill="#fff" d="M59.255 28.921c.102 14.803-11.15 27.353-26.046 29.127C18.3 59.822 4.174 50.114.77 35.752-3.203 18.997 8.654 2.339 26.058.309c2.01-.235 4.066-.15 6.099-.115.995.017 1.155.371.852 1.308-1.318 4.095.862 7.752 5.151 8.64 1.034.215 1.145.428.81 1.443-.863 2.612-.47 5.019 1.536 6.968 2.005 1.947 4.456 2.328 7.116 1.46.982-.321 1.282-.15 1.455.843.683 3.959 4.605 6.286 8.562 5.081 1.29-.392 1.542-.234 1.61 1.077.033.634.006 1.271.006 1.907M31.315 1.655C22.967.856 11.154 4.675 4.9 15.869-1.082 26.581.905 40.144 9.687 48.75c8.797 8.622 22.647 10.564 33.522 4.707 11.463-6.173 15.308-17.826 14.493-25.92-5.014.751-8.308-1.35-10.096-5.91-6.27 1.612-11.908-3.867-10.273-10.066-4.665-1.746-6.773-4.994-6.019-9.906"/></g><path fill="#fff" d="M26.042 34.99c3.574.045 6.627 3.129 6.585 6.654-.04 3.447-3.188 6.462-6.718 6.435-3.62-.028-6.69-3.13-6.628-6.702.06-3.445 3.219-6.43 6.761-6.387m5.105 6.562c.007-2.873-2.213-5.085-5.127-5.108-2.983-.022-5.248 2.164-5.256 5.07-.008 2.911 2.247 5.121 5.215 5.11 2.921-.007 5.16-2.207 5.168-5.072M19.28 25.482c.021-2.677 2.454-5.042 5.188-5.042 2.77 0 5.21 2.414 5.19 5.132-.02 2.671-2.464 5.047-5.188 5.046-2.772-.001-5.209-2.413-5.19-5.136m5.317-3.587c-2.135-.05-3.763 1.423-3.832 3.467-.073 2.13 1.449 3.741 3.586 3.8 2.122.059 3.764-1.426 3.833-3.467.072-2.128-1.46-3.752-3.587-3.8M9.629 32.07c-1.91 0-3.682-1.726-3.699-3.598-.016-1.918 1.755-3.67 3.713-3.672 1.906-.001 3.68 1.722 3.7 3.594.02 1.911-1.765 3.678-3.714 3.676m2.232-3.666c-.018-1.28-.927-2.153-2.238-2.147-1.346.005-2.247.928-2.208 2.262.036 1.271.968 2.132 2.28 2.104 1.297-.027 2.183-.934 2.166-2.22M45.225 40.8c-1.908-.002-3.68-1.727-3.695-3.598-.015-1.92 1.758-3.672 3.714-3.672 1.907 0 3.68 1.725 3.699 3.598.018 1.91-1.767 3.676-3.718 3.672m2.235-3.616c.009-1.284-.88-2.18-2.182-2.198-1.32-.02-2.235.836-2.264 2.114-.031 1.325.883 2.248 2.224 2.247 1.309-.002 2.212-.883 2.222-2.163M23.726 11.737c-.018 1.495-1.476 2.895-2.996 2.876-1.529-.02-2.949-1.443-2.93-2.939.019-1.5 1.468-2.891 2.994-2.874 1.53.019 2.95 1.442 2.932 2.937m-2.929 1.42c.899-.014 1.488-.62 1.46-1.503-.026-.846-.6-1.39-1.473-1.395-.917-.006-1.503.562-1.502 1.455.002.884.603 1.458 1.515 1.443M38.56 21.973c-.05 1.497-1.53 2.876-3.044 2.832-1.528-.045-2.93-1.495-2.885-2.986.046-1.507 1.514-2.872 3.04-2.828 1.53.044 2.937 1.498 2.888 2.982m-2.92 1.38c.894-.022 1.47-.634 1.438-1.522-.034-.879-.658-1.428-1.574-1.387-.858.039-1.4.616-1.387 1.473.013.889.616 1.458 1.523 1.436"/><g><path fill="#fff" d="M41.516 45.15c.01 1.494-1.424 2.915-2.948 2.922-1.526.01-2.969-1.393-2.978-2.89-.01-1.5 1.418-2.913 2.947-2.922 1.526-.01 2.97 1.393 2.979 2.89m-2.883-1.434c-.92-.033-1.532.516-1.558 1.4-.027.89.551 1.49 1.454 1.504.869.014 1.469-.523 1.515-1.358.048-.893-.517-1.513-1.411-1.546"/></g></svg><svg viewBox="0 0 177 14" id="header-logo" xmlns="http://www.w3.org/2000/svg"><path fill="#f1361d" d="M12.837 0c1.828 0 3.018.36 3.64 1.104.44.521.597 1.225.491 2.146l-.345 2.984-.259 2.263C16.17 10.197 15.595 11 11.2 11h-.209c-2.875 0-3.717-1.222-3.919-2.244-.23-1.167.067-2.803 1.268-3.642a6.29 6.29 0 012.458-.889c1.153-.23 2.93-.486 2.93-.486l.036-.297a1.159 1.159 0 00-.253-1.019c-.41-.414-1.223-.484-2.688-.219-.618.117-1.228.27-1.831.455a.101.101 0 01-.095 0 .136.136 0 01-.052-.087l-.22-1.567a.226.226 0 01.121-.222A11.126 11.126 0 0112.837 0zm.696 5.678s-.813.094-1.831.297c-1.019.204-1.516.764-1.516 1.657-.022.375.101.743.34 1.018.373.315.845.466 1.318.42a4.14 4.14 0 001.256-.165h.037l.26-2.237c0-.011.088-.896.088-.896zM53.934 0c1.51.047 3.416.47 3.916 2.26.15.56.188 1.146.112 1.722v.114c-.32 3.207-.664 4.39-.9 4.813-.765 1.374-2.336 2.09-4.662 2.09-1.296.016-3.549-.239-4.199-2.103a4.333 4.333 0 01-.174-1.793c.004-.04.305-3.85.934-4.973C49.74.721 51.308 0 53.615 0h.32m.533 6.948c.247-2.061.37-3.27.363-3.464a1.417 1.417 0 00-.527-1.143 1.6 1.6 0 00-.957-.242 1.679 1.679 0 00-1.089.391 2.252 2.252 0 00-.689 1.442l-.062.463c-.134 1-.384 2.861-.363 3.162.031.465.265.887.631 1.134a1.7 1.7 0 001.042.2 1.611 1.611 0 001.121-.473c.315-.398.501-.895.53-1.416v-.054M47.887 1h-1.444a2.296 2.296 0 00-1.963.995l-3.662 4.402.099-.26.644-4.996a.1.1 0 00-.03-.092.118.118 0 00-.091-.041h-3.01a.181.181 0 00-.17.144L37 10.883a.109.109 0 00.027.088c.024.019.055.03.087.029h1.573c.784.01 1.52-.372 1.949-1.008l3.578-4.501-.118.279-.652 5.099a.125.125 0 00.026.09.134.134 0 00.1.04h3.005a.18.18 0 00.17-.146l1.252-9.743a.093.093 0 00-.024-.084.13.13 0 00-.087-.025M68.867 1.005l-3.122.364a.214.214 0 00-.181.167l-.444 3.382-.023.138h-2.983l.517-3.942a.11.11 0 00-.027-.088.12.12 0 00-.088-.02l-3.122.363a.213.213 0 00-.181.167L58 10.87a.115.115 0 00.03.091.12.12 0 00.093.04h3.064a.18.18 0 00.178-.149l.494-3.734v-.03h2.986l-.497 3.782a.112.112 0 00.03.091c.023.026.057.04.093.04h.771c1.413 0 2.45-.16 2.67-1.7l1.084-8.186a.098.098 0 00-.022-.088.117.117 0 00-.108-.02M36.739 3.188l.26-2.004a.11.11 0 00-.03-.092.127.127 0 00-.096-.04H25.339a.82.82 0 00-.552.245l-3.223 3.758h-.46l.517-3.944a.092.092 0 00-.026-.084.112.112 0 00-.09-.026l-3.1.365a.21.21 0 00-.18.168l-1.222 9.335a.095.095 0 00.026.091c.024.025.06.04.096.04h3.066a.186.186 0 00.173-.146l.494-3.769h.476l2.211 3.773a.33.33 0 00.25.142h3.3c.054 0 .107-.026.061-.113l-3.02-4.79 2.506-2.759h3.622l-.984 7.53a.095.095 0 00.026.092c.025.025.06.04.096.04h3.044a.177.177 0 00.172-.146l.97-7.516h2.975a.182.182 0 00.176-.15M6.831 1H4.068a.727.727 0 00-.503.23L.113 5.453a.458.458 0 00-.05.532l2.682 4.763A.53.53 0 003.18 11h2.392c.17 0 .254-.11.17-.245L3.053 5.99l3.896-4.764C7.05 1.096 6.998 1 6.83 1M76.94 6.018l-2.683-4.766A.534.534 0 0073.823 1h-2.395c-.168 0-.251.11-.172.246l2.695 4.765-3.896 4.773c-.106.117-.055.216.117.216h2.763a.726.726 0 00.499-.23l3.456-4.224a.465.465 0 00.05-.528"/><path d="M81 10.763L82.295.237A.286.286 0 0182.577 0h6.599a.168.168 0 01.179.194l-.107.786a.226.226 0 01-.221.21H83.68l-.38 3.172h3.1c2.409 0 3.6.73 3.6 2.634.001.228-.013.456-.042.684-.297 2.426-1.684 3.32-4.365 3.32h-4.356a.226.226 0 01-.237-.213zm4.988-5.194h-2.86l-.52 4.24h2.86c1.669 0 2.74-.34 2.948-2.13.225-1.786-.765-2.11-2.428-2.11zM91.3 14a8.536 8.536 0 01-1.143-.073.16.16 0 01-.157-.16c0-.013.002-.024.005-.036l.09-.702c0-.107.093-.165.23-.165h.866c.78 0 1.234-.166 1.56-.976l.46-1.027h-.713a.268.268 0 01-.276-.238l-1.546-7.368a.22.22 0 01.227-.253h1.065a.226.226 0 01.256.189v.018l1.172 6.677h.39l2.665-6.677a.29.29 0 01.288-.207h1.097c.09 0 .164.072.164.161v.004a.297.297 0 01-.028.119l-3.819 8.665C93.553 13.363 93.002 14 91.3 14M105.257 10.695c.06.09.037.21-.05.27a.177.177 0 01-.1.034h-1.109a.209.209 0 01-.207-.12l-1.782-3.186-2.427 3.17a.288.288 0 01-.253.136H98.13c-.15 0-.165-.195-.077-.304l3.175-3.826-2.08-3.595A.192.192 0 0199.297 3h1.121a.287.287 0 01.285.195l1.536 2.822 2.112-2.822a.38.38 0 01.345-.195h1.152c.15 0 .196.195.103.305l-2.964 3.518zM106 8.872c0-1.675 1.045-2.312 2.816-2.557.74-.1 1.9-.23 1.9-1.242 0-.856-.755-1.026-1.62-1.026a9.818 9.818 0 00-2.023.259c-.086 0-.154 0-.154-.1l-.028-.742a.213.213 0 01.182-.204 9.072 9.072 0 012.301-.259c1.242 0 2.626.39 2.626 2.054 0 1.605-1.173 2.153-2.626 2.397-.906.146-2.08.16-2.08 1.376 0 .897.813 1.082 1.622 1.082a7.95 7.95 0 002.248-.389.192.192 0 01.082 0 .13.13 0 01.14.122v.008l.067.74c0 .102-.068.16-.14.19a7.03 7.03 0 01-2.272.419c-1.327-.045-3.041-.289-3.041-2.128M119.921 5.514l-.462 3.784c-.13 1.03-.405 1.26-1.43 1.487a9.013 9.013 0 01-1.924.204 5.012 5.012 0 01-2.152-.334 1.694 1.694 0 01-.949-1.644c0-.493.098-.98.29-1.434.459-.985 1.37-1.115 2.466-1.275l2.775-.45c.055-.336.09-.675.104-1.015a.61.61 0 00-.422-.61 3.553 3.553 0 00-1.242-.145c-.882.039-1.757.174-2.61.402a1.28 1.28 0 01-.16.03.126.126 0 01-.13-.12l-.06-.743a.201.201 0 01.16-.216A12.179 12.179 0 01117.298 3c1.042 0 1.689.146 2.093.39.397.228.631.66.607 1.117-.004.267-.059.787-.077 1.007m-5.3 2.382a1.914 1.914 0 00-.216.945 1 1 0 00.372.825c.37.305.958.334 1.485.334a6.252 6.252 0 001.812-.245l.371-2.873-2.622.42c-.52.067-.94.137-1.203.594M121.246 11c-.16 0-.26-.106-.245-.242l.086-.704a.257.257 0 01.26-.242c1.289-.09 1.375-.961 1.579-2.712l.444-3.873a.246.246 0 01.248-.226h5.192a.176.176 0 01.189.166c.002.02.001.04-.003.06l-.88 7.546a.232.232 0 01-.233.227h-.897c-.145 0-.23-.09-.215-.227l.797-6.737h-2.996l-.345 3.048c-.289 2.5-.768 3.916-2.981 3.916M141.957 5.25l-.648 5.5a.222.222 0 01-.224.221h-.89a.178.178 0 01-.188-.166.21.21 0 01.003-.055l.622-5.398c.017-.138.026-.277.03-.415a.91.91 0 00-.185-.61 1.215 1.215 0 00-.959-.297c-.835.024-1.664.152-2.47.38l-.724 6.352a.226.226 0 01-.231.222l-.008-.001h-.876a.176.176 0 01-.197-.154.196.196 0 01.002-.067l.622-5.44c.017-.11.026-.218.03-.328a.915.915 0 00-.229-.698 1.255 1.255 0 00-.915-.251c-.839.025-1.671.153-2.482.38l-.723 6.352a.228.228 0 01-.239.22h-.875a.178.178 0 01-.2-.158.191.191 0 010-.062l.724-6.229c.069-.595.184-.835.93-1.087A11.795 11.795 0 01134.721 3c.886 0 1.48.194 1.834.55a11.099 11.099 0 013.173-.55c.904 0 1.537.149 1.907.55.26.315.39.726.361 1.143a5.649 5.649 0 01-.04.556M145.37 8.197c0 1.32.768 1.77 2.302 1.77a5.967 5.967 0 002.087-.434c.145-.06.217 0 .231.13l.087.655c0 .116-.027.186-.173.246a7.345 7.345 0 01-2.538.436c-2.45 0-3.366-.93-3.366-2.903.005-.365.029-.73.07-1.091.308-2.51 1.067-4.006 3.938-4.006 1.926 0 2.992.745 2.992 2.338 0 2.263-1.402 2.498-3.444 2.498h-2.172a2.71 2.71 0 00-.015.36m4.3-2.698c.03-1.001-.478-1.467-1.75-1.467-1.836 0-2.288 1.047-2.434 2.859h2.217c1.354 0 1.937-.19 1.967-1.392M159.895 7.036c-.347 2.722-1.26 4.045-4.028 4.045a8.752 8.752 0 01-2.234-.279l.058.882-.243 1.884a.26.26 0 01-.229.223l-1.018.204c-.137.03-.215-.072-.199-.204l1.17-9.159c.075-.648.195-.897.972-1.161.983-.302 2.009-.46 3.041-.471 1.034 0 1.705.218 2.145.634.502.466.67 1.19.67 2.084-.006.441-.042.882-.105 1.318m-1.634-2.439c-.288-.456-.819-.542-1.56-.542a10.77 10.77 0 00-2.098.32l-.682 5.44c.63.162 1.279.24 1.93.235 1.658 0 2.297-.704 2.585-3.01.056-.41.086-.82.09-1.23a2.26 2.26 0 00-.265-1.213M167.428 8.024C167.24 9.55 166.714 11 163.875 11c-1.185 0-1.94-.23-2.381-.71a2.082 2.082 0 01-.488-1.51c.007-.25.027-.498.059-.745l.542-4.598a.24.24 0 01.212-.215l.944-.205a.17.17 0 01.197.205l-.6 4.932a4.278 4.278 0 00-.04.536c0 1.03.64 1.305 1.683 1.305 1.698 0 1.968-.84 2.082-1.859l.57-4.699a.237.237 0 01.216-.245l.926-.19a.175.175 0 01.2.148.183.183 0 010 .057zM169.234 9.28c.197-1.278.787-1.782 1.95-1.904v-.214c-1.028-.195-1.415-.73-1.415-1.563.004-.13.014-.261.031-.39.201-1.646 1.261-2.208 2.903-2.208h4.091a.184.184 0 01.2.227l-.936 7.544a.235.235 0 01-.244.227h-.953a.197.197 0 01-.219-.172.188.188 0 01.002-.055l.393-3.016-2.44.074c-1.229.047-1.706.426-1.86 1.524l-.2 1.418a.25.25 0 01-.26.227h-1.043c-.154-.012-.249-.101-.232-.24zm3.52-5.256c-.956 0-1.37.491-1.48 1.376-.154 1.15.6 1.346 1.578 1.377l2.309.09.355-2.843z"/></svg><svg viewBox="0 0 99 11" id="icon--arrow-black" xmlns="http://www.w3.org/2000/svg"><defs><linearGradient id="na" x1="4.779%" x2="96.167%" y1="0%" y2="0%"><stop offset="0%" stop-color="#002882"/><stop offset="100%" stop-color="#2D3039"/></linearGradient></defs><path fill="url(#na)" d="M709.591 1485l-6.336-3.564-.436-.245.49-.872.436.245 8 4.5.775.436-.775.436-8 4.5-.436.245-.49-.872.436-.245 6.336-3.564h-95.225v-1h95.225z" transform="translate(-614 -1480)"/></svg><svg viewBox="0 0 282 11" id="icon--arrow-long" xmlns="http://www.w3.org/2000/svg"><path fill="#FFF" d="M278.591 5l-6.336-3.564-.436-.245.49-.872.436.245 8 4.5.775.436-.775.436-8 4.5-.436.245-.49-.872.436-.245L278.59 6H.5V5h278.091z"/></svg><svg aria-hidden="true" data-prefix="fab" data-icon="facebook-f" class="psvg-inline--fa pfa-facebook-f pfa-w-10" viewBox="0 0 320 512" id="icon--fb" xmlns="http://www.w3.org/2000/svg"><path fill="#fff" d="M279.14 288l14.22-92.66h-88.91v-60.13c0-25.35 12.42-50.06 52.24-50.06h40.42V6.26S260.43 0 225.36 0c-73.22 0-121.08 44.38-121.08 124.72v70.62H22.89V288h81.39v224h100.17V288z"/></svg><svg aria-hidden="true" data-prefix="fab" data-icon="instagram" class="qsvg-inline--fa qfa-instagram qfa-w-14" viewBox="0 0 448 512" id="icon--inst" xmlns="http://www.w3.org/2000/svg"><path fill="#fff" d="M224.1 141c-63.6 0-114.9 51.3-114.9 114.9s51.3 114.9 114.9 114.9S339 319.5 339 255.9 287.7 141 224.1 141zm0 189.6c-41.1 0-74.7-33.5-74.7-74.7s33.5-74.7 74.7-74.7 74.7 33.5 74.7 74.7-33.6 74.7-74.7 74.7zm146.4-194.3c0 14.9-12 26.8-26.8 26.8-14.9 0-26.8-12-26.8-26.8s12-26.8 26.8-26.8 26.8 12 26.8 26.8zm76.1 27.2c-1.7-35.9-9.9-67.7-36.2-93.9-26.2-26.2-58-34.4-93.9-36.2-37-2.1-147.9-2.1-184.9 0-35.8 1.7-67.6 9.9-93.9 36.1s-34.4 58-36.2 93.9c-2.1 37-2.1 147.9 0 184.9 1.7 35.9 9.9 67.7 36.2 93.9s58 34.4 93.9 36.2c37 2.1 147.9 2.1 184.9 0 35.9-1.7 67.7-9.9 93.9-36.2 26.2-26.2 34.4-58 36.2-93.9 2.1-37 2.1-147.8 0-184.8zM398.8 388c-7.8 19.6-22.9 34.7-42.6 42.6-29.5 11.7-99.5 9-132.1 9s-102.7 2.6-132.1-9c-19.6-7.8-34.7-22.9-42.6-42.6-11.7-29.5-9-99.5-9-132.1s-2.6-102.7 9-132.1c7.8-19.6 22.9-34.7 42.6-42.6 29.5-11.7 99.5-9 132.1-9s102.7-2.6 132.1 9c19.6 7.8 34.7 22.9 42.6 42.6 11.7 29.5 9 99.5 9 132.1s2.7 102.7-9 132.1z"/></svg><svg aria-hidden="true" data-prefix="fab" data-icon="odnoklassniki" class="rsvg-inline--fa rfa-odnoklassniki rfa-w-10" viewBox="0 0 320 512" id="icon--ok" xmlns="http://www.w3.org/2000/svg"><path fill="#fff" d="M275.1 334c-27.4 17.4-65.1 24.3-90 26.9l20.9 20.6 76.3 76.3c27.9 28.6-17.5 73.3-45.7 45.7-19.1-19.4-47.1-47.4-76.3-76.6L84 503.4c-28.2 27.5-73.6-17.6-45.4-45.7 19.4-19.4 47.1-47.4 76.3-76.3l20.6-20.6c-24.6-2.6-62.9-9.1-90.6-26.9-32.6-21-46.9-33.3-34.3-59 7.4-14.6 27.7-26.9 54.6-5.7 0 0 36.3 28.9 94.9 28.9s94.9-28.9 94.9-28.9c26.9-21.1 47.1-8.9 54.6 5.7 12.4 25.7-1.9 38-34.5 59.1zM30.3 129.7C30.3 58 88.6 0 160 0s129.7 58 129.7 129.7c0 71.4-58.3 129.4-129.7 129.4s-129.7-58-129.7-129.4zm66 0c0 35.1 28.6 63.7 63.7 63.7s63.7-28.6 63.7-63.7c0-35.4-28.6-64-63.7-64s-63.7 28.6-63.7 64z"/></svg><svg aria-hidden="true" data-prefix="fab" data-icon="twitter" class="ssvg-inline--fa sfa-twitter sfa-w-16" viewBox="0 0 512 512" id="icon--tw" xmlns="http://www.w3.org/2000/svg"><path fill="#fff" d="M459.37 151.716c.325 4.548.325 9.097.325 13.645 0 138.72-105.583 298.558-298.558 298.558-59.452 0-114.68-17.219-161.137-47.106 8.447.974 16.568 1.299 25.34 1.299 49.055 0 94.213-16.568 130.274-44.832-46.132-.975-84.792-31.188-98.112-72.772 6.498.974 12.995 1.624 19.818 1.624 9.421 0 18.843-1.3 27.614-3.573-48.081-9.747-84.143-51.98-84.143-102.985v-1.299c13.969 7.797 30.214 12.67 47.431 13.319-28.264-18.843-46.781-51.005-46.781-87.391 0-19.492 5.197-37.36 14.294-52.954 51.655 63.675 129.3 105.258 216.365 109.807-1.624-7.797-2.599-15.918-2.599-24.04 0-57.828 46.782-104.934 104.934-104.934 30.213 0 57.502 12.67 76.67 33.137 23.715-4.548 46.456-13.32 66.599-25.34-7.798 24.366-24.366 44.833-46.132 57.827 21.117-2.273 41.584-8.122 60.426-16.243-14.292 20.791-32.161 39.308-52.628 54.253z"/></svg><svg aria-hidden="true" data-prefix="fab" data-icon="vk" class="tsvg-inline--fa tfa-vk tfa-w-18" viewBox="0 0 576 512" id="icon--vk" xmlns="http://www.w3.org/2000/svg"><path fill="#fff" d="M545 117.7c3.7-12.5 0-21.7-17.8-21.7h-58.9c-15 0-21.9 7.9-25.6 16.7 0 0-30 73.1-72.4 120.5-13.7 13.7-20 18.1-27.5 18.1-3.7 0-9.4-4.4-9.4-16.9V117.7c0-15-4.2-21.7-16.6-21.7h-92.6c-9.4 0-15 7-15 13.5 0 14.2 21.2 17.5 23.4 57.5v86.8c0 19-3.4 22.5-10.9 22.5-20 0-68.6-73.4-97.4-157.4-5.8-16.3-11.5-22.9-26.6-22.9H38.8c-16.8 0-20.2 7.9-20.2 16.7 0 15.6 20 93.1 93.1 195.5C160.4 378.1 229 416 291.4 416c37.5 0 42.1-8.4 42.1-22.9 0-66.8-3.4-73.1 15.4-73.1 8.7 0 23.7 4.4 58.7 38.1 40 40 46.6 57.9 69 57.9h58.9c16.8 0 25.3-8.4 20.4-25-11.2-34.9-86.9-106.7-90.3-111.5-8.7-11.2-6.2-16.2 0-26.2.1-.1 72-101.3 79.4-135.6z"/></svg><svg aria-hidden="true" data-prefix="fab" data-icon="youtube" class="usvg-inline--fa ufa-youtube ufa-w-18" viewBox="0 0 576 512" id="icon--youtube" xmlns="http://www.w3.org/2000/svg"><path fill="#fff" d="M549.655 124.083c-6.281-23.65-24.787-42.276-48.284-48.597C458.781 64 288 64 288 64S117.22 64 74.629 75.486c-23.497 6.322-42.003 24.947-48.284 48.597-11.412 42.867-11.412 132.305-11.412 132.305s0 89.438 11.412 132.305c6.281 23.65 24.787 41.5 48.284 47.821C117.22 448 288 448 288 448s170.78 0 213.371-11.486c23.497-6.321 42.003-24.171 48.284-47.821 11.412-42.867 11.412-132.305 11.412-132.305s0-89.438-11.412-132.305zm-317.51 213.508V175.185l142.739 81.205-142.739 81.201z"/></svg><svg viewBox="0 0 428 152" id="logo-blue" xmlns="http://www.w3.org/2000/svg"><defs><clipPath id="va"><path d="M151.42 30.23h275.832v120.929H151.42z"/></clipPath></defs><path fill="#0af" d="M29.366 0L22.02 20.155h101.785L131.149 0zM120.127 30.23H18.344L11 50.385h101.783zM7.344 60.47L0 80.625h101.783l7.344-20.155z"/><g clip-path="url(#va)"><path fill="#002882" d="M366.307 97.18h18.011c5.653 0 9.005 1.047 11.518 2.93 4.188 3.137 6.283 7.532 6.283 13.809 0 6.276-2.095 9.622-3.56 11.507-2.932 3.764-7.12 5.439-14.031 5.439h-18.221zm15.078 53.979c16.127 0 24.085-1.463 31.626-6.693 6.492-4.604 14.241-13.601 14.241-29.918 0-16.53-7.54-24.899-11.938-28.665-5.655-4.813-13.823-8.58-29.531-8.58h-19.476V50.525h47.75l6.912-20.294h-78.75V151.16zm-84.614 0V50.524h30.998l6.91-20.294H237.5v20.294h34.977V151.16zM175.505 50.106h12.773c4.606 0 6.909.21 9.211.836 5.444 1.674 9.213 5.231 9.213 13.39 0 6.904-3.56 11.927-9.213 13.6-2.093.628-4.187.628-8.374.628h-13.61zm16.122 49.377c7.538 0 11.935 1.045 15.495 5.438 2.093 2.721 3.141 6.485 3.141 10.463 0 5.231-1.466 9.204-4.817 12.343-3.348 3.138-7.956 3.556-12.98 3.556h-16.75v-31.8zm22.835-12.764c4.398-1.883 7.33-4.393 9.423-6.485 4.818-4.602 7.75-11.506 7.75-19.667 0-15.274-9.214-24.899-23.247-28.665-4.818-1.254-10.262-1.672-18.223-1.672H151.42v120.929h43.773c8.586 0 13.195-.418 17.593-1.674 14.45-3.765 23.248-15.69 23.248-32.218 0-10.043-3.142-17.784-10.262-23.642-2.305-1.884-6.703-4.814-11.31-6.488z"/></g></svg><svg viewBox="0 0 194 69" id="logo-white" xmlns="http://www.w3.org/2000/svg"><path fill="#0af" d="M49.486 27.623l-3.333 9.223H0l3.329-9.223zm4.977-13.81l-3.328 9.223H4.988l3.332-9.222zM59.474 0l-3.333 9.212H9.984L13.317 0z"/><path fill="#fff" d="M166.07 44.398h8.165c2.566 0 4.088.484 5.225 1.34 1.9 1.434 2.848 3.446 2.848 6.314s-.948 4.395-1.613 5.26c-1.332 1.719-3.228 2.482-6.363 2.482h-8.262zm6.843 24.669c7.312 0 10.924-.666 14.346-3.058 2.942-2.103 6.457-6.217 6.457-13.667 0-7.557-3.418-11.378-5.416-13.1-2.562-2.2-6.271-3.918-13.394-3.918h-8.833V23.09h21.658l3.136-9.27h-35.723v55.247zm-38.371 0V23.09h14.06l3.135-9.27h-44.083v9.27h15.867v45.977zm-55-46.17h5.793c2.09 0 3.135.094 4.18.382 2.469.764 4.18 2.39 4.18 6.123 0 3.157-1.614 5.448-4.18 6.216-.948.285-1.9.285-3.801.285h-6.173zm7.314 22.557c3.417 0 5.414.475 7.028 2.481.952 1.248 1.424 2.966 1.424 4.782 0 2.398-.666 4.213-2.187 5.647-1.516 1.43-3.606 1.625-5.886 1.625h-7.597V45.454zm10.353-5.83c1.992-.86 3.324-2.006 4.272-2.964 2.187-2.1 3.514-5.254 3.514-8.977 0-6.985-4.175-11.382-10.542-13.1-2.183-.572-4.656-.763-8.263-.763H68.62v55.247h19.85c3.897 0 5.983-.19 7.98-.763 6.552-1.722 10.542-7.171 10.542-14.72 0-4.588-1.424-8.125-4.656-10.805-1.045-.856-3.038-2.196-5.127-2.964z"/></svg><svg viewBox="0 0 17 7" id="mark" xmlns="http://www.w3.org/2000/svg"><path fill="#d6d6d6" d="M9.553 3.58c-.026.232-.047.427-.076.625-.058.448-.115.897-.179 1.343a.171.171 0 01-.09.124c-.419.113-.86.133-1.289.059-.573-.11-.756-.548-.704-1.022.053-.474.362-.75.814-.856.495-.114.998-.181 1.524-.274zM8.025 7c.462-.025.927-.025 1.384-.064a7.397 7.397 0 001.176-.225c.5-.122.867-.534.919-1.03.08-.526.144-1.053.213-1.58.078-.588.153-1.176.226-1.765.04-.32.092-.642.025-.966-.117-.575-.495-.918-1.041-1.12A4.565 4.565 0 009.347 0c-.449 0-.897.024-1.344.071-.59.066-1.169.2-1.725.4a.16.16 0 00-.103.071.15.15 0 00-.016.12c.049.29.092.582.136.873.022.15.034.16.182.12a10.49 10.49 0 011.793-.344c.339-.03.684-.05 1.012.06a.609.609 0 01.46.515c.01.146.005.293-.015.438a.128.128 0 01-.093.064c-.53.08-1.061.15-1.59.233a8.281 8.281 0 00-1.623.385C5.095 3.5 4.823 4.807 5.095 5.713c.183.604.669.912 1.26 1.092.542.165 1.104.195 1.67.195zM3.907.002h.922A.727.727 0 015 .047a.684.684 0 01-.071.144c-.798.959-1.596 1.915-2.395 2.87-.098.118-.193.24-.296.353a.131.131 0 00-.013.183c.608 1.04 1.213 2.082 1.817 3.124.137.237.111.278-.17.278h-1.5a.468.468 0 01-.453-.256A491.22 491.22 0 00.073 3.545.346.346 0 01.11 3.08L2.516.205A.563.563 0 012.97 0l.936.002zM13.081 6.996h-.923A.666.666 0 0112 6.954a.592.592 0 01.066-.147 848.321 848.321 0 012.684-3.213.148.148 0 00.012-.204 848.373 848.373 0 01-1.85-3.184c-.08-.138-.041-.205.121-.206h1.673a.36.36 0 01.334.188l1.902 3.291a.341.341 0 01-.045.435 430.33 430.33 0 00-2.44 2.905.53.53 0 01-.425.18c-.317 0-.634-.003-.95-.003z"/></svg></svg>