<svg xmlns="http://www.w3.org/2000/svg" width="83" height="83" viewBox="0 0 83 83">
    <g fill="none" fill-rule="evenodd" stroke-linecap="square" stroke-width="2">
        <path stroke="#FFF" d="M73.464 16.522l-3.004 3.004a2.484 2.484 0 0 0-.33 3.107 34.033 34.033 0 0 1 4.708 11.362 2.485 2.485 0 0 0 2.43 1.963h4.272v10.57h-4.272a2.487 2.487 0 0 0-2.43 1.964 34.019 34.019 0 0 1-4.708 11.362 2.486 2.486 0 0 0 .33 3.107l3.024 3.023-7.471 7.477-3.027-3.025a2.485 2.485 0 0 0-3.107-.33 34.052 34.052 0 0 1-11.362 4.708 2.485 2.485 0 0 0-1.963 2.43v4.289h-10.57v-4.29c0-1.17-.819-2.182-1.964-2.43a34.03 34.03 0 0 1-11.361-4.707 2.486 2.486 0 0 0-3.107.33l-3.026 3.026-7.472-7.477 3.023-3.024a2.485 2.485 0 0 0 .33-3.107A34.018 34.018 0 0 1 7.7 48.492a2.486 2.486 0 0 0-2.43-1.963H1.001l.005-10.57h4.263a2.485 2.485 0 0 0 2.43-1.964 34.024 34.024 0 0 1 4.709-11.362 2.485 2.485 0 0 0-.33-3.106l-3.005-3.005 7.478-7.47 3 3.001a2.487 2.487 0 0 0 3.108.33A33.994 33.994 0 0 1 34.02 7.675a2.487 2.487 0 0 0 1.964-2.43V1h10.57v4.244c0 1.172.817 2.184 1.963 2.43a34.02 34.02 0 0 1 11.362 4.708 2.483 2.483 0 0 0 3.106-.33l3.002-3 7.477 7.47z"/>
        <path stroke="#0AF" d="M58.745 41.266c0-9.651-7.824-17.475-17.475-17.475-9.652 0-17.475 7.824-17.475 17.475 0 9.652 7.823 17.475 17.475 17.475 9.651 0 17.475-7.823 17.475-17.475z"/>
    </g>
</svg>
