<svg xmlns="http://www.w3.org/2000/svg" width="72" height="88" viewBox="0 0 72 88"><g><g><g><path fill="none" stroke="#ccc" stroke-linecap="square" stroke-miterlimit="50" stroke-width="2" d="M64.304 15.17A32.667 32.667 0 0 1 42.01 6.384L36.245 1v0h-.49v0L29.99 6.384A32.666 32.666 0 0 1 7.695 15.17H1v35.285c0 8.48 4.26 16.394 11.343 21.075L35.755 87v0h.49v0l23.412-15.47A25.263 25.263 0 0 0 71 50.455v-26.39 0"/></g><g><path fill="none" stroke="#ccc" stroke-linecap="square" stroke-miterlimit="50" stroke-width="2" d="M26.613 66.738l9.219 6.091v0h.328v0l15.697-10.372a16.937 16.937 0 0 0 7.605-14.13V24.671v0h-4.489a21.903 21.903 0 0 1-14.948-5.89L36.16 15.17v0h-.328v0l-3.865 3.61a21.903 21.903 0 0 1-14.948 5.891H12.53v23.656c0 2.708.648 5.33 1.84 7.672"/></g><g><path fill="none" stroke="#ccc" stroke-linecap="square" stroke-miterlimit="50" stroke-width="2" d="M36.245 15.17v57.66"/></g></g></g></svg>