<svg xmlns="http://www.w3.org/2000/svg" width="72" height="88" viewBox="0 0 72 88">
    <g fill="none" fill-rule="evenodd" stroke-linecap="square" stroke-width="2">
        <path stroke="#FFF" d="M64.305 15.17A32.667 32.667 0 0 1 42.01 6.384L36.245 1h-.49L29.99 6.384A32.666 32.666 0 0 1 7.695 15.17H1v35.285c0 8.48 4.26 16.394 11.344 21.075L35.755 87h.49l23.412-15.47A25.263 25.263 0 0 0 71 50.455V15.17h-6.695z"/>
        <path stroke="#0AF" d="M26.617 66.738l9.219 6.091h.328l15.697-10.371a16.937 16.937 0 0 0 7.605-14.13V24.67h-4.489a21.903 21.903 0 0 1-14.948-5.89l-3.865-3.61h-.328l-3.865 3.61a21.903 21.903 0 0 1-14.948 5.89h-4.489v23.657c0 2.707.648 5.33 1.84 7.672l12.243 10.738z"/>
    </g>
</svg>
