<svg xmlns="http://www.w3.org/2000/svg" width="83" height="83" viewBox="0 0 83 83"><g><g><g><path fill="none" stroke="#ccc" stroke-linecap="square" stroke-miterlimit="50" stroke-width="2" d="M73.464 16.522v0l-3.004 3.004a2.484 2.484 0 0 0-.33 3.107 34.032 34.032 0 0 1 4.707 11.362 2.485 2.485 0 0 0 2.43 1.963h4.272v10.57h-4.271a2.487 2.487 0 0 0-2.43 1.964 34.019 34.019 0 0 1-4.709 11.362 2.486 2.486 0 0 0 .33 3.107l3.024 3.023v0l-7.47 7.477v0l-3.028-3.026a2.485 2.485 0 0 0-3.107-.33 34.052 34.052 0 0 1-11.361 4.709 2.485 2.485 0 0 0-1.964 2.43v4.288h-10.57v0-4.288a2.487 2.487 0 0 0-1.963-2.43 34.03 34.03 0 0 1-11.362-4.708 2.486 2.486 0 0 0-3.107.33l-3.026 3.026v0l-7.472-7.477v0l3.024-3.024a2.485 2.485 0 0 0 .33-3.107A34.018 34.018 0 0 1 7.7 48.492a2.486 2.486 0 0 0-2.43-1.963H1v0l.005-10.57v0H5.27a2.485 2.485 0 0 0 2.43-1.964 34.024 34.024 0 0 1 4.708-11.362 2.485 2.485 0 0 0-.33-3.106l-3.004-3.005v0l7.477-7.47v0l3.001 3.001a2.487 2.487 0 0 0 3.107.33A33.994 33.994 0 0 1 34.02 7.675a2.487 2.487 0 0 0 1.963-2.43V1v0h10.57v4.244c0 1.172.818 2.184 1.964 2.43a34.02 34.02 0 0 1 11.361 4.708 2.483 2.483 0 0 0 3.106-.33l3.003-3v0"/></g><g><path fill="none" stroke="#ccc" stroke-linecap="square" stroke-miterlimit="50" stroke-width="2" d="M58.74 41.265c0-9.651-7.824-17.475-17.475-17.475-9.651 0-17.475 7.824-17.475 17.475 0 9.651 7.824 17.475 17.475 17.475 9.651 0 17.475-7.824 17.475-17.475z"/></g></g></g></svg>